# .PCD v0.7 - Point Cloud Data file format
VERSION 0.7
FIELDS x y z
SIZE 4 4 4
TYPE F F F
COUNT 1 1 1
WIDTH 280
HEIGHT 1
VIEWPOINT 0 0 0 1 0 0 0
POINTS 280
DATA ascii
140.743103 -144.247894 2.75629997
140.640701 -143.436493 2.70600009
140.935104 -146.370102 2.77729988
141.251801 -146.447495 1.09500003
142.032593 -146.148697 1.66059995
142.471298 -146.376999 1.03299999
144.320694 -144.4655 0.497900009
148.074203 -152.814896 0.793299973
149.744705 -149.686005 0.649999976
149.721695 -149.443298 0.576900005
150.798492 -149.169403 0.477600008
150.910004 -149.0495 0.555100024
151.008408 -148.717606 0.32280001
151.506195 -149.625504 0.513100028
152.13945 -149.33374 0.453550011
152.218201 -150.175705 0.609700024
152.282806 -149.625 0.515999973
153.077194 -149.381393 0.266400009
153.2948 -149.716705 0.470899999
153.566696 -159.969299 0.524299979
153.781601 -159.662003 0.389999986
153.746704 -159.337799 0.561200023
153.7108 -150.150803 0.430599988
153.958405 -159.666794 0.349099994
153.917603 -143.554504 0.190400004
154.1716 -150.332596 0.484100014
154.174606 -145.158295 0.419499993
154.127304 -144.4133 0.254599988
154.250198 -150.124802 0.475300014
154.360703 -149.913101 0.257499993
154.315704 -144.642502 0.328299999
154.312195 -144.624496 0.492500007
154.508301 -158.969299 0.274599999
154.534393 -158.563797 0.61650002
154.464905 -150.210693 0.119000003
154.731201 -159.332901 0.38499999
154.737396 -158.786194 0.373800009
154.833694 -158.752304 0.407099992
154.942093 -158.4767 0.553200006
154.926498 -158.1931 0.725199997
154.989899 -150.775406 0.300700009
155.076294 -158.759903 0.588699996
155.080688 -158.471191 0.318800002
155.025299 -158.030899 0.571200013
155.071304 -158.185303 0.645099998
155.112396 -157.928146 0.649000049
155.124893 -157.638306 0.395200014
155.091507 -157.713593 0.475199997
155.050797 -157.447693 0.500100017
155.111496 -151.215805 0.717800021
155.026703 -145.462494 0.364800006
155.036102 -145.215393 0.319299996
155.127808 -145.3573 0.585300028
155.173599 -145.040894 0.366400003
155.267197 -158.689606 0.3759
155.298599 -158.053299 0.280999988
155.259705 -157.917892 0.429899991
155.3237 -150.991592 0.413800001
155.579697 -158.323196 0.307099998
155.457001 -157.910706 0.336699992
155.525803 -150.910599 0.522199988
155.873703 -158.034393 0.418300003
155.870911 -157.787354 0.26730001
155.862793 -157.148499 0.227599993
155.9505 -157.024597 0.637099981
155.908493 -156.840103 0.526899993
155.974503 -156.752441 0.470899999
156.0728 -157.593704 0.230900005
156.051193 -157.145599 0.657199979
156.113098 -156.900253 0.364549994
156.036102 -156.963501 0.503600001
156.112106 -156.634995 0.389099985
156.119095 -156.583405 0.550599992
156.155594 -150.391907 0.27669999
156.127594 -145.666504 0.0952000022
156.3694 -157.190002 0.191699997
156.201797 -156.993301 0.313899994
156.333313 -156.530594 0.679199994
156.384094 -156.216293 0.756699979
156.3367 -156.247299 0.864199996
156.254105 -156.188202 0.694599986
156.493103 -156.867401 0.109999999
156.534698 -156.255402 0.502550006
156.547104 -156.172394 0.372599989
156.506302 -156.188095 0.442200005
156.443695 -156.126007 0.764800012
156.535156 -155.846771 0.704433322
156.499207 -155.8918 0.902400017
156.593307 -155.479004 0.699299991
156.581406 -153.907196 0.642700016
156.445297 -150.558304 0.395599991
156.607697 -156.411606 0.675199986
156.736694 -155.949097 0.0379999988
156.661804 -155.932693 0.415800005
156.779694 -151.232101 0.361400008
156.681702 -141.727493 0.305200011
156.838104 -156.461395 0.119400002
156.884506 -156.549698 0.297600001
156.861801 -156.273697 0.106799997
156.825256 -155.704193 0.365649998
156.865128 -155.685867 0.462166667
156.853088 -154.871063 0.934000015
156.963699 -147.739304 0.389099985
156.972702 -141.377701 0.246999994
157.167206 -155.981293 0.422199994
157.166 -155.490295 0.320499986
157.092499 -155.161606 0.462000012
157.342453 -156.042953 0.235799998
157.296204 -155.616104 0.404300004
157.292999 -155.477005 0.233099997
157.375397 -155.481445 0.492200017
157.343475 -155.327271 0.496499985
157.311798 -155.136597 0.344199985
157.388504 -152.336502 0.622600019
157.252899 -152.017807 0.672699988
157.388794 -151.889008 0.601100028
157.349792 -151.713989 0.657649994
157.48555 -155.255188 0.345499992
157.537933 -154.746262 0.68809998
157.552002 -152.231003 0.454100013
157.441895 -152.081894 0.49939999
157.526901 -151.945602 0.313699991
157.524597 -151.69165 0.490750015
157.523499 -151.463593 0.454400003
157.518005 -151.358902 0.0697000027
157.496201 -151.385895 0.601899981
157.441605 -143.7034 0.066399999
157.472198 -141.931396 0.301400006
157.687607 -155.106995 0.724699974
157.763794 -154.807907 0.333200008
157.677933 -154.905899 0.458900005
157.670593 -154.664307 0.591499984
157.757797 -154.240601 0.579100013
157.653198 -153.672806 0.820500016
157.723602 -152.265594 0.505599976
157.7883 -151.822098 0.366899997
157.784302 -151.879593 0.449900001
157.682007 -151.604797 0.103100002
157.656601 -151.798706 0.344300002
157.678207 -151.2034 0.296200007
157.619797 -151.092804 0.404799998
157.736404 -144.719894 0.270799994
157.951096 -154.766403 0.391499996
157.893097 -154.185303 0.57249999
157.958298 -154.070999 0.653500021
157.912994 -151.983505 0.370000005
157.909805 -144.746902 0.801500022
157.809601 -141.691406 0.243599996
157.908905 -140.556793 0.265100002
158.085098 -154.647003 0.178599998
158.127701 -154.616699 0.362300009
158.192902 -154.626999 0.729600012
158.195908 -154.482407 0.37349999
158.134094 -154.487106 0.466600001
158.047699 -154.253601 0.371399999
158.181396 -152.061096 0.208000004
158.110397 -144.619507 0.575800002
158.094193 -144.095703 0.360000014
158.157898 -140.343796 0.323700011
158.214401 -158.272995 0.380800009
158.246994 -154.650101 0.389099985
158.312195 -154.491547 0.492650032
158.291306 -154.121506 0.595499992
158.365494 -153.930801 0.458900005
158.373001 -152.576797 0.772400022
158.321793 -152.252304 0.396499991
158.359802 -152.347504 0.437400013
158.395706 -151.666794 0.555499971
158.321304 -146.076904 0.47240001
158.360199 -143.640198 0.2773
158.495499 -154.030106 0.327100009
158.427094 -154.0755 0.727999985
158.490601 -152.8228 0.809400022
158.481003 -152.656342 0.640699983
158.518295 -152.461594 0.508599997
158.5625 -152.481995 0.624100029
158.501694 -152.338806 0.209600002
158.433304 -151.802902 0.140900001
158.483307 -151.942093 0.310099989
158.446701 -151.528 0.188600004
158.555801 -144.7509 0.574699998
158.723602 -154.185196 -0.00079999998
158.707199 -154.033005 0.355100006
158.64151 -153.848801 0.530499995
158.6465 -153.873398 0.658500016
158.741791 -153.71701 0.329150021
158.784302 -153.432297 0.382800013
158.679993 -153.4711 0.601499975
158.660004 -153.300995 0.682600021
158.780304 -153.177704 0.640900016
158.6996 -152.891602 0.363000005
158.739899 -152.811295 0.453599989
158.681702 -152.915604 0.697600007
158.726105 -152.953796 0.800800025
158.655365 -152.68866 0.495033324
158.689301 -152.514099 0.269400001
158.748901 -148.067001 0.802100003
158.753494 -147.925201 0.644599974
158.6642 -145.064407 0.694400012
158.779495 -144.822296 0.677600026
158.763596 -144.621902 0.398000002
158.605103 -144.617493 0.528199971
158.735703 -144.649597 0.66170001
158.741302 -144.660004 0.809800029
158.678894 -144.497498 0.804099977
158.881104 -153.568893 0.318100005
158.999893 -153.365494 0.253800005
158.936096 -153.337906 0.469850004
158.9077 -153.352493 0.721000016
158.874496 -153.172394 0.424899995
158.905304 -153.022202 0.705799997
158.909851 -153.126297 0.822350025
158.888428 -152.92453 0.531599998
158.889969 -152.98967 0.705166698
158.897095 -148.305496 0.685599983
158.827499 -145.343094 0.585699975
158.910004 -144.816406 0.190099999
158.904205 -144.678894 0.221300006
158.903107 -144.123398 0.281199992
159.151001 -157.831802 0.354600012
159.047699 -153.012604 0.194199994
159.109924 -153.068558 0.312739998
159.020004 -153.040665 0.513433337
159.007706 -152.868301 0.377900004
159.104996 -152.379593 0.291500002
159.065994 -149.646698 0.468400002
159.116806 -148.463593 0.86619997
159.037094 -145.965103 0.443899989
159.0242 -144.655197 0.324699998
159.2883 -153.131149 0.0930999964
159.384094 -152.954498 0.324800014
159.390793 -151.485596 0.156100005
159.393204 -149.620407 0.498199999
159.394608 -149.207504 0.556299984
159.276703 -149.042206 0.728799999
159.286453 -148.692841 0.740700006
159.388901 -148.349594 0.560699999
159.209106 -148.272598 0.82950002
159.394806 -147.544601 0.529399991
159.214005 -145.935898 0.438300014
159.301193 -144.563202 0.151099995
159.427902 -149.233398 0.65109998
159.457306 -149.159393 0.500199974
159.473206 -149.082397 0.645600021
159.573105 -148.415894 0.529500008
159.470566 -148.474258 0.649933338
159.459198 -148.306198 0.559099972
159.443802 -148.183594 0.286199987
159.533997 -148.002594 0.668200016
159.410706 -147.602707 0.508300006
159.471893 -147.572205 0.563399971
159.485703 -145.242599 0.562399983
159.483398 -144.954102 0.633300006
159.479004 -144.403305 0.300500005
159.491806 -144.253494 0.391799986
159.502899 -144.356506 0.619400024
159.760101 -157.019302 0.424699992
159.619904 -156.373993 0.284799993
159.71109 -149.535492 0.46025002
159.656494 -149.124496 0.465999991
159.766098 -148.967407 0.504599988
159.730698 -148.600998 0.498400003
159.650696 -148.4617 0.561999977
159.720596 -148.398102 0.196799994
159.73465 -147.629242 0.51275003
159.72821 -147.54715 0.493049979
159.622498 -145.341095 0.504100025
159.607803 -145.109802 0.588100016
159.655594 -144.820297 0.500800014
159.799393 -144.650803 0.534799993
159.662399 -144.742203 0.631699979
159.607498 -144.405899 0.460999995
159.827301 -157.309692 0.29550001
159.966995 -149.300797 0.377900004
159.933334 -148.965836 0.492199987
159.920593 -148.647507 0.448000014
159.922638 -144.892609 0.322300017
159.849304 -144.679001 0.351999998
159.971802 -144.627106 0.426200002
159.882004 -144.447403 0.0555999987
