# .PCD v0.7 - Point Cloud Data file format
VERSION 0.7
FIELDS x y z
SIZE 4 4 4
TYPE F F F
COUNT 1 1 1
WIDTH 47
HEIGHT 1
VIEWPOINT 0 0 0 1 0 0 0
POINTS 47
DATA ascii
200.145905 -113.983803 11.3633003
200.258102 -113.965103 11.1606998
200.684296 -113.970596 14.2264996
200.933105 -113.700996 19.2901993
202.721405 -114.3508 12.0031004
202.755798 -114.065598 14.2296
202.850906 -114.156601 11.2678003
202.824905 -114.024002 11.9323997
202.934006 -114.129601 13.6415005
202.895294 -114.0868 17.1191998
202.958298 -113.877403 10.6725998
202.860901 -113.944 11.5759001
202.903 -113.987999 13.5115004
202.974197 -113.942902 14.1555004
202.893707 -113.972801 16.6350002
202.922195 -113.760498 10.0731001
202.939697 -113.781502 10.8036003
202.919998 -113.562599 9.31709957
202.971695 -113.516403 14.0908003
203.053696 -114.028397 16.7521992
203.037094 -114.058601 16.8064995
203.087708 -113.856201 18.9568005
203.029205 -113.695198 11.2381001
203.0186 -113.782501 13.8216
203.232101 -113.660103 11.4419003
212.319794 -114.185799 12.2559996
212.372894 -114.121201 16.6966991
212.204605 -114.074402 18.4155006
212.354996 -113.939796 12.4240999
212.287201 -113.517799 5.85820007
212.521606 -115.429199 14.8494997
212.490601 -115.473701 15.6412001
212.490799 -115.025703 4.67579985
212.487305 -115.017998 11.5064001
212.404999 -114.327698 13.0846996
212.474197 -114.050598 14.1084995
212.441406 -113.683197 17.7329998
212.406204 -113.379501 16.9591999
212.594803 -113.266602 18.7315998
212.621399 -115.539001 17.3945999
212.625 -115.459 18.2507992
212.602905 -115.374298 16.8216
212.783997 -113.417297 17.0688
213.2854 -113.205101 5.97669983
213.294495 -113.0718 17.1348
213.344498 -112.869698 13.941
213.282394 -112.702103 15.0661001
