# .PCD v0.7 - Point Cloud Data file format
VERSION 0.7
FIELDS x y z
SIZE 4 4 4
TYPE F F F
COUNT 1 1 1
WIDTH 14
HEIGHT 1
VIEWPOINT 0 0 0 1 0 0 0
POINTS 14
DATA ascii
252.4664 -285.781891 8.10919952
255.975204 -287.751312 0.0226000007
255.939301 -287.774109 0.453500003
255.913101 -287.568909 -0.708899975
255.994507 -287.460907 -0.162699997
255.918503 -287.109192 -0.701399982
255.913895 -287.178101 -0.248899996
255.8405 -286.788391 -0.0324999988
256.439697 -293.726593 10.9120998
256.912689 -295.155701 9.27340031
257.173706 -293.702789 8.37450027
257.155609 -292.86969 6.37389994
257.625305 -292.867188 6.41629982
257.886597 -299.825714 -1.00820005
