# .PCD v0.7 - Point Cloud Data file format
VERSION 0.7
FIELDS x y z
SIZE 4 4 4
TYPE F F F
COUNT 1 1 1
WIDTH 351
HEIGHT 1
VIEWPOINT 0 0 0 1 0 0 0
POINTS 351
DATA ascii
141.532745 -55.0952988 15.3010502
141.583603 -55.1921997 15.4577999
141.980499 -53.8939018 12.4316998
142.968704 -54.9678001 15.1820002
143.770203 -54.9178009 12.3669004
143.619995 -54.8748016 12.9568005
143.658096 -54.9151001 15.1129999
143.824097 -54.9179001 11.7519999
144.027405 -55.0040016 15.4025002
144.326508 -55.1060982 15.6673002
144.465607 -53.8093987 12.0016003
144.790405 -55.1146011 15.8416004
145.124207 -55.0449982 12.9959002
145.167892 -55.0764999 13.0789003
145.391495 -55.1320992 11.1885996
145.360001 -55.0424995 13.1138
145.362198 -55.0979996 13.5334997
145.386093 -55.0019989 13.6268997
145.222702 -55.1221008 13.9983997
145.447006 -55.0348015 10.2621002
145.505905 -55.0326996 12.9703999
145.571701 -54.9201012 15.3156996
145.642807 -55.0600014 10.9240999
145.684097 -55.0251007 12.9473
145.710907 -54.8030014 12.1746998
145.7565 -54.9729996 15.4076996
145.818604 -55.1026001 13.4077997
145.867599 -54.8758011 11.7524004
145.926697 -54.7873001 11.6099997
146.165207 -55.1151009 10.6870003
146.064499 -55.1026993 11.0623999
146.062393 -54.8223 12.4519997
146.095001 -54.9422989 12.8381996
146.019501 -54.7849998 12.1477003
146.235703 -55.0999985 10.2957001
146.507507 -55.0616493 10.7537498
146.470093 -54.8226013 12.3872995
146.401993 -54.9817009 13.0086002
146.463898 -54.9939003 13.2396002
146.576096 -54.9247017 13.7076998
146.517395 -54.7761002 11.9792004
146.641098 -55.010601 15.3360004
146.798096 -54.8642006 12.7224998
146.777496 -54.9434013 13.8359003
146.6931 -54.0488014 10.1236
146.793503 -54.0480003 15.8619003
146.766205 -53.8788986 11.7719002
146.870407 -54.8667984 15.2258997
146.994598 -53.9014015 10.9490995
146.866806 -53.8786011 12.0984001
146.957504 -53.828701 12.7463999
146.945908 -53.9426003 15.1810999
146.979904 -53.7915001 13.3030005
147.087601 -53.8638 15.0657997
147.126999 -53.8526001 15.5578003
147.219101 -53.9121017 10.4637003
147.292694 -53.8782997 10.8083
147.393707 -53.8801994 11.3615999
147.295502 -53.9081993 11.6669998
147.386597 -53.8181 11.9717999
147.2724 -53.8314018 12.3297005
147.323395 -53.8502007 13.1213999
147.386703 -53.8778 14.4665003
147.285095 -53.8755989 14.6122999
147.311493 -53.899601 14.9386997
147.3535 -53.7705002 13.0832996
147.505493 -54.0637016 16.0652008
147.404404 -53.8576012 11.2828999
147.514999 -53.8889008 11.6096001
147.408005 -53.8796997 12.0193005
147.449493 -53.8693008 12.5296001
147.557999 -53.8927002 14.7882996
147.453094 -53.7593002 12.6643
147.4599 -53.7837982 13.3938999
147.496597 -53.7608986 15.4308004
147.699905 -53.8098984 10.7025003
147.663452 -53.8658981 11.9693508
147.628403 -53.8049011 12.1118002
147.638702 -53.8251991 12.5201998
147.757004 -53.9878998 15.7410002
147.750793 -53.7783012 11.3219995
147.744797 -53.7696991 13.0236998
147.726501 -53.7985001 14.4238005
147.909103 -53.8171997 11.4154997
147.989807 -53.8432999 12.5359001
147.875595 -53.6374016 11.1036997
147.874405 -53.6526985 11.4264002
147.8396 -53.7489014 12.6156998
147.816299 -53.7477989 14.6188002
147.910995 -53.7653999 14.8315001
147.809402 -53.7500992 15.0396996
147.949707 -53.7439003 15.4161997
148.058304 -54.0415993 15.9733
148.1651 -53.9067001 10.1049004
148.1091 -53.8222008 14.4799995
148.040695 -53.6253014 13.0760002
148.148407 -53.7442017 14.2426004
148.134705 -53.7751007 14.8965998
148.087402 -53.5699997 13.3720999
148.213593 -53.8368988 12.0390997
148.203903 -53.888401 12.4231997
148.391998 -53.8754005 15.4066
148.371094 -53.8699989 15.6408005
148.341705 -53.7510986 10.4988003
148.386505 -53.7435989 11.0752001
148.345795 -53.7033997 11.4159002
148.302094 -53.7429008 12.3920002
148.205704 -53.6725006 13.8711996
148.224396 -53.7154007 14.1863003
148.324493 -53.771801 14.2769003
148.205994 -53.7883987 14.8352003
148.524094 -53.8457985 11.5761003
148.552795 -53.8198013 13.7180996
148.465302 -53.8656006 15.58745
148.498093 -53.6920013 10.9719
148.412994 -53.7560997 11.8682003
148.508698 -53.7580986 12.8149996
148.472702 -53.7271996 13.4864998
148.425797 -53.7406006 13.7718
148.487305 -53.732399 13.8478003
148.470901 -53.7845993 14.0555
148.5616 -53.7687988 14.6331997
148.467407 -53.7556992 15.0099001
148.526794 -53.7970009 15.4860001
148.746796 -53.9118996 6.60459995
148.681 -53.8053017 12.4686003
148.749802 -53.7380981 14.6690998
148.746307 -53.7565994 15.0073996
148.966003 -53.8054008 10.3449001
148.960907 -53.8320999 11.6527996
148.870697 -53.8322983 12.7392998
148.955795 -53.7153015 11.4696999
148.9198 -53.7925987 12.1150999
148.966599 -53.7602005 13.0211
148.855499 -53.7010994 14.8472996
149.179794 -55.051899 14.1634998
149.027298 -53.8269997 12.2851
149.0858 -53.9510002 16.1459999
149.110596 -53.7542 11.0456505
149.151596 -53.7653008 12.3312998
149.1147 -53.7386017 13.1324997
149.1548 -53.7896996 13.7757998
149.154694 -53.7385025 13.9781494
149.185501 -53.7374001 14.8195
149.389404 -54.9772987 10.7463999
149.217697 -54.9807014 10.967
149.364807 -54.8665009 13.3760004
149.345596 -54.8894005 13.8794003
149.212296 -53.9515991 15.9308996
149.314606 -53.7125015 14.3443003
149.548645 -54.8987999 13.3337002
149.475906 -54.8451996 13.4493999
149.584 -54.921299 13.6127996
149.5448 -54.8069992 13.9988003
149.5952 -54.8510017 14.0407
149.587708 -54.709301 14.7397003
149.511963 -54.7424507 15.03755
149.769897 -54.9127007 10.073
149.767105 -54.9370003 11.3610001
149.655457 -54.9076004 13.2421999
149.632797 -54.7518005 12.5599003
149.7034 -54.7382011 14.6004
149.912796 -54.9651985 10.6599998
149.847794 -54.8830986 13.4882002
150.034805 -54.8391991 9.97780037
150.003296 -54.9375 10.7340002
150.174805 -54.9445992 10.8155003
150.061295 -54.8521996 11.5606003
150.180893 -54.7355995 11.6578999
150.372803 -54.928299 10.1171999
150.2202 -54.9485016 11.2229996
150.382599 -54.8695984 12.9661999
150.244507 -54.7765007 12.7094002
150.479202 -54.9318008 10.8458004
150.543106 -54.8203011 12.7049999
150.521103 -54.8376007 12.8400002
150.591599 -54.8671989 13.1189003
150.588196 -54.8801994 13.7720003
150.459106 -54.7145996 12.5483999
150.538498 -54.7985992 12.6559
150.568207 -54.7420006 14.0198002
150.587097 -54.7986984 15.5221996
150.667892 -54.8904991 13.1114998
150.683899 -54.8586006 13.2028999
150.657394 -54.8030014 15.4547997
150.792206 -54.6636009 12.5436001
150.883606 -54.9860001 8.61810017
150.911606 -54.8434982 13.1329002
150.928497 -54.8795013 15.6145
150.903702 -54.7977982 9.75889969
150.935104 -54.7743988 10.7475996
150.919601 -54.6896515 12.7002001
151.094406 -54.8484993 9.78240013
151.171204 -54.6127014 11.9160995
151.025894 -54.6492996 14.3500996
151.093903 -54.7476997 15.2587996
151.168793 -54.5195999 14.2453003
151.326797 -54.6417007 11.9134998
151.330399 -54.6166 12.1945
151.294098 -54.6024017 14.8867998
151.569199 -54.8378983 10.3381004
151.578705 -54.6329994 12.2764997
151.5177 -54.7041016 12.4925003
151.512299 -54.7921982 15.4143
151.4617 -54.5541 11.8935003
151.588303 -54.5223007 14.8895998
151.705795 -54.8199997 12.7356005
151.62265 -54.6557007 12.7180004
151.925003 -53.6548996 9.33640003
152.047394 -54.7565002 9.8895998
152.172501 -54.7431984 10.1308002
152.174393 -54.6587982 11.4059
152.171204 -54.7108002 11.9345999
152.131195 -54.6310005 12.6352997
152.057297 -54.7708015 15.3889999
152.076706 -54.5796013 14.0407
152.211197 -54.6669006 11.6573
152.363098 -54.7636986 15.3285999
152.476105 -54.8754997 15.8505001
152.682693 -58.4514999 5.88880014
152.720901 -54.6694984 11.8055
152.608597 -54.5905991 14.3753004
152.938202 -54.6128006 11.4252996
153.036499 -54.7347984 9.90289974
153.009995 -54.6362 14.5494003
153.147797 -54.5908012 12.5607996
153.269104 -55.1417007 10.4809999
153.259705 -54.9592018 13.4612999
153.343002 -54.7546997 8.87100029
153.387894 -54.7061996 9.23250008
153.2332 -54.6674995 12.3206997
153.224594 -54.6545982 12.5860996
153.435806 -55.1862984 13.7790003
153.427399 -54.8156013 15.5229998
153.517807 -54.6099014 12.3378
153.595993 -54.625 12.5771999
153.578796 -54.5844002 9.84609985
153.570602 -54.4828987 11.8476
153.839798 -54.6795006 15.3469
153.903107 -54.7126999 15.4604998
153.948105 -54.5194016 12.3136997
154.124893 -54.7394981 9.18980026
154.003998 -54.5303001 12.2396002
154.205399 -54.8153 11.2480001
154.366806 -54.8361015 12.7414999
154.235596 -54.7486 8.78509998
154.500305 -54.8605003 7.77040005
154.508804 -54.912899 10.8479996
154.517593 -54.6936989 8.52600002
154.496506 -54.7388992 13.0382996
154.480194 -54.7505989 15.3495998
154.452194 -54.5666008 12.1325998
154.706802 -54.6184006 15.0654001
154.784302 -54.4407997 14.9295998
154.639008 -54.5800018 15.1872997
154.769897 -54.2792015 9.08699989
154.912598 -54.3278008 11.6705999
154.801895 -54.3815994 14.5760002
155.164001 -54.6500015 15.4336004
155.186798 -54.4752998 12.1738997
155.021194 -54.4427986 14.9143
155.122299 -54.5135002 15.2559004
155.195099 -54.3795013 11.6472998
155.161301 -54.3825989 12.3792
155.317795 -54.6328011 15.2549
155.375397 -53.5186005 9.50559998
155.513199 -55.230999 8.3743
155.486603 -54.4164009 11.8871002
155.669601 -54.4399986 13.7902002
155.740997 -54.4746017 14.3898001
155.808594 -54.4367981 13.8966999
156.137695 -54.4840012 15.1352997
156.255493 -55.0716019 11.0607996
156.281204 -54.6829987 15.4632998
156.298203 -54.6729012 15.6227999
156.240799 -54.4365005 12.5068998
156.290604 -54.4168015 14.1602001
156.277206 -54.4994011 15.0052996
156.330994 -54.3942986 13.8456001
156.4142 -54.6226997 15.6217003
156.421799 -54.5219002 15.1729002
156.450104 -54.5054016 15.3311996
156.671799 -54.5354004 15.4017
156.813004 -55.0483017 12.9524002
156.838104 -54.4612007 14.5087004
157.395004 -54.5912018 15.2932997
157.362793 -54.3894997 14.7110996
157.473206 -59.2347984 6.19399977
157.565903 -54.2699013 14.1766996
157.763199 -54.4822998 13.9491997
157.7061 -54.4213982 14.6815004
157.894897 -54.6568985 8.27950001
157.916199 -54.639801 11.1724005
157.827499 -54.5457001 10.9298
157.983994 -54.5236015 13.5405998
157.914902 -54.4640007 14.2192001
158.140701 -59.6654015 5.69649982
158.167603 -54.725399 8.53409958
158.163193 -54.6777 10.7397003
158.196594 -54.6095009 14.3360996
158.076096 -54.4404984 13.9913998
158.297501 -59.857399 5.80959988
158.348007 -59.8692017 6.24429989
158.201508 -54.7066994 10.9427004
158.378403 -54.6111984 13.6142998
158.244202 -54.5481987 9.89770031
158.382507 -54.5368004 12.7868004
158.267807 -54.5746002 12.8979998
158.228195 -54.4682999 13.5096998
158.219498 -54.4972 15.1903
158.408005 -59.9402008 6.40140009
158.444397 -54.8103981 11.5822001
158.452301 -54.6301994 11.2601995
158.548996 -54.6223984 13.6224003
158.510895 -54.5812988 10.0099001
158.465393 -54.5690002 13.7744999
158.49649 -54.5325012 15.2912998
158.437103 -54.3647995 14.8463001
158.725204 -54.7237015 7.92679977
158.639297 -54.6845016 8.3927002
158.775604 -54.6814995 10.6519003
158.601501 -54.6827011 11.1433001
158.665405 -54.6245995 13.0922003
158.604706 -54.6769981 13.5591002
158.625397 -54.4390984 9.78470039
158.871796 -54.7271996 8.35579967
158.916794 -54.7519989 8.55230045
158.940094 -54.4468994 12.4091997
158.873596 -54.5326996 13.0256004
158.951599 -54.4954987 15.3171997
158.948196 -54.3736992 11.9792004
159.055893 -54.7338982 7.67999983
159.061707 -54.517601 12.7637997
159.045395 -54.5749016 13.3346004
159.31839 -54.6308975 10.5103502
159.366592 -54.6283989 10.6455002
159.255295 -54.5929985 9.92759991
159.391296 -54.5940018 10.9237003
159.337296 -54.5531006 12.9456997
159.279404 -54.5443001 13.1884003
159.487701 -54.6483002 8.14680004
159.579193 -54.6431999 10.6680002
159.592499 -54.6039009 13.4296999
159.554199 -53.4034996 8.72679996
159.557297 -53.4057999 12.2109003
159.762894 -53.4794006 9.03740025
159.856003 -53.5107994 9.22019958
159.921997 -53.4786987 9.66399956
159.900101 -53.4757004 9.99199963
159.926102 -53.4044991 12.0125999
159.953094 -53.3977013 12.5112
