# .PCD v0.7 - Point Cloud Data file format
VERSION 0.7
FIELDS x y z
SIZE 4 4 4
TYPE F F F
COUNT 1 1 1
WIDTH 2032
HEIGHT 1
VIEWPOINT 0 0 0 1 0 0 0
POINTS 2032
DATA ascii
160.026993 -76.2332001 2.06500006
160.093399 -76.1427002 1.48769999
160.073593 -76.1193008 1.71039999
160.127701 -76.1490021 2.43484998
160.249298 -79.7742004 -0.305999994
160.380005 -79.574501 0.216000006
160.251297 -77.6352005 0.475600004
160.395294 -76.3051987 1.97220004
160.294968 -76.312767 2.2743001
160.286499 -76.291153 2.48355007
160.251907 -76.1766968 1.54550004
160.391495 -76.0598984 1.77119994
160.396194 -76.1492004 1.93799996
160.332504 -76.175354 2.25535011
160.569901 -79.373497 0.131200001
160.422302 -76.4031982 2.30850005
160.478897 -76.2335968 2.15890002
160.535248 -76.2803955 2.27349997
160.429398 -76.3199997 2.4223001
160.48996 -76.1535492 1.68200004
160.528198 -76.0614471 1.91900003
160.645905 -79.5893021 -0.151899993
160.660797 -77.8960037 0.262199998
160.685547 -76.0433044 1.30909991
160.773407 -76.1260986 1.50039995
160.6689 -76.0990982 1.73810005
160.680801 -76.1853027 1.94850004
160.709946 -76.1650543 2.08684993
160.784302 -75.9083023 1.94729996
160.741196 -60.0760002 5.28779984
160.984207 -79.735199 -0.519500017
160.987198 -79.6387024 -0.277200013
160.970505 -77.9742966 0.528199971
160.954803 -76.0766983 1.52139997
160.800903 -76.1959 1.66079998
160.976501 -76.0957031 2.05940008
160.902206 -76.0954971 2.27900004
161.163406 -79.8501968 -0.390399992
161.111237 -79.5568542 -0.089850001
161.105545 -79.5007477 0.279049993
161.018097 -76.0005035 1.54560006
161.036102 -76.1208496 1.81955004
161.090561 -76.0813293 2.09113336
161.181 -76.0133972 2.22399998
161.090103 -75.9559021 1.53410006
161.040741 -75.66185 2.43505001
161.328293 -79.740799 0.0546999983
161.2435 -77.9438019 -0.497900009
161.285706 -76.2709503 1.72060001
161.331161 -76.25737 1.87849998
161.373093 -76.1977005 1.39289999
161.381104 -76.1527023 1.52779996
161.373901 -76.1725998 1.76520002
161.265289 -76.0864029 1.90194988
161.284805 -76.0542984 2.10019994
161.392197 -75.8520966 1.16709995
161.221298 -75.9332962 1.27559996
161.288406 -75.9754028 1.67620003
161.208099 -75.7277985 0.94690001
161.531204 -79.5597992 0.343899995
161.436203 -77.6900024 0.431600004
161.586395 -76.235199 1.66550004
161.467102 -76.2182007 2.29360008
161.443497 -76.2241974 2.50040007
161.441742 -76.1367035 1.34975004
161.445801 -76.0175018 1.47130001
161.437698 -76.0509491 1.63630009
161.406403 -76.1871033 2.24559999
161.421204 -75.9160995 2.2506001
161.525909 -75.6838989 2.14599991
161.784607 -79.1633987 0.52609998
161.679001 -76.3658981 1.43480003
161.634506 -76.259201 2.18409991
161.709747 -76.3063965 2.27199984
161.75 -76.0224991 0.801199973
161.720505 -76.066597 1.08829999
161.692505 -76.1847 2.00979996
161.893707 -79.8914032 -0.0763999969
161.9841 -79.8625031 0.0236000009
161.880402 -79.6880035 -0.380400002
161.951599 -79.7366028 0.153099999
161.822006 -79.5641022 -0.398699999
161.985199 -79.5459976 0.338800013
161.874405 -79.4924011 0.465700001
161.988495 -79.4517975 0.671750009
161.869705 -79.3917007 -0.162900001
161.979599 -76.7198029 1.21689999
161.9534 -76.7931976 1.48090005
161.993195 -76.6314011 2.07640004
161.932602 -76.6037979 2.2263999
161.974396 -76.4593964 1.78129995
161.857605 -76.3666992 1.59150004
161.879395 -76.2847977 1.75199997
161.845337 -76.3032303 1.86696672
161.937698 -76.2845993 2.04509997
161.930695 -76.153801 1.26450002
162.061447 -79.725296 0.0727999955
162.085602 -79.490097 0.340000004
162.119705 -79.5849991 0.454400003
162.031494 -79.2086029 0.0838000029
162.179596 -78.0535965 0.290699989
162.134201 -78.0505981 0.729300022
162.185699 -78.1776962 1.04579997
162.137802 -78.1572037 1.24469995
162.132294 -77.9792023 0.685500026
162.163895 -77.7463989 0.500199974
162.049042 -76.8577499 1.34085
162.177902 -76.4172974 1.38880002
162.045502 -76.4568024 1.60689998
162.132401 -76.3430481 1.47325003
162.043747 -76.3376007 1.96134996
162.028 -75.9132996 2.2506001
162.086807 -74.2312012 0.413300008
162.007797 -74.2572021 0.951399982
162.182602 -73.979599 0.769999981
162.100998 -61.2933998 3.34159994
162.255707 -79.7134018 0.114500001
162.255798 -79.7142029 0.29550001
162.250305 -79.5874023 0.271299988
162.335999 -78.5416031 0.717499971
162.237701 -78.4545975 0.945200026
162.306305 -78.4429016 1.14390004
162.292999 -78.2473984 0.416900009
162.216949 -78.3574982 0.694350004
162.232101 -78.3090973 0.820900023
162.294403 -78.0994034 0.292600006
162.290298 -78.0035019 0.662199974
162.378403 -77.9926987 0.648999989
162.245605 -77.6587982 0.475100011
162.277405 -76.4815979 1.64740002
162.363312 -76.4862518 1.95005
162.325302 -76.2331009 1.20019996
162.507706 -79.5548019 -0.260500014
162.406006 -77.956398 1.05340004
162.573303 -77.7593994 1.23479998
162.522797 -76.5809021 1.85399997
162.405396 -76.5505981 2.37319994
162.582993 -75.8016968 0.846099973
162.572006 -61.7243004 3.12739992
162.766907 -79.9477997 0.121600002
162.688705 -79.514801 0.154100001
162.645294 -78.5388031 0.561999977
162.796295 -78.5140991 0.934000015
162.785095 -78.0291977 0.403899997
162.736206 -76.2682495 0.817499995
162.615005 -76.0606995 0.672699988
162.752838 -76.0514984 0.972350001
162.701599 -75.8321991 0.436199993
162.659393 -75.9702988 0.697300017
162.7108 -75.9181976 0.906700015
162.687195 -75.9806976 1.04910004
162.667801 -75.6520996 1.10119998
162.721603 -75.7307968 1.60420001
162.775406 -62.1702995 3.56690001
162.920898 -79.9011002 0.235200003
162.853195 -79.6138992 0.125400007
162.828598 -79.6130981 0.209299996
162.964096 -79.7230988 0.563600004
162.953552 -79.6613464 0.741150022
162.88559 -79.5422974 0.26425001
162.943695 -79.572403 0.428900003
162.8965 -79.3932037 -0.457599998
162.880005 -78.4217987 0.898800015
162.937042 -78.095047 1.13260007
162.889297 -76.3462982 0.795400023
162.871902 -76.3567963 0.970200002
162.873199 -76.1311035 0.703299999
162.942795 -76.0828018 1.09660006
162.963196 -74.5280991 0.987999976
162.827393 -61.2084999 3.41499996
163.083328 -79.9095001 -0.0767999962
163.097107 -79.9888992 0.125833333
163.114792 -79.956665 0.490033329
163.068207 -79.8223038 0.72359997
163.010895 -78.3955994 0.764800012
163.092499 -78.2284012 0.812099993
163.034393 -78.1700974 1.28299999
163.059601 -76.4742966 0.972299993
163.076141 -76.5474548 1.11234999
163.032303 -76.3246002 1.03620005
163.021896 -76.1679993 1.15400004
163.034698 -76.0806503 1.29404998
163.150299 -75.9215012 1.30710006
163.165695 -74.1148987 0.708999991
163.098206 -63.2977982 2.84739995
163.138702 -63.0610008 3.7348001
163.002701 -62.3210983 3.87069988
163.022797 -62.1194992 2.87750006
163.021606 -62.1203003 3.09960008
163.179703 -60.6537018 3.94330001
163.156799 -60.5163002 3.63790011
163.072296 -60.332901 4.16879988
163.367203 -79.8528976 -0.484499991
163.3414 -78.2743988 0.434199989
163.267593 -76.6460037 0.730700016
163.298294 -76.7160034 0.967299998
163.291397 -76.7787018 1.03470004
163.320648 -76.5539017 1.30524993
163.292801 -76.2345963 1.40639997
163.214905 -63.0013008 2.72390008
163.321701 -62.9087982 3.09730005
163.228806 -62.2192001 3.64050007
163.296906 -62.138401 4.04129982
163.211395 -60.7659988 4.21799994
163.457611 -79.4774017 0.769800007
163.541595 -79.4589539 1.13565004
163.541306 -79.4029999 1.26839995
163.540298 -79.4169006 1.47850001
163.553299 -79.2965012 1.35109997
163.542496 -76.6772003 1.50179994
163.577499 -63.2835999 2.79879999
163.498199 -63.139801 2.3362
163.568298 -61.6431007 4.14799976
163.421402 -60.6273003 4.53079987
163.756607 -79.6054993 0.958199978
163.766998 -79.4492035 0.539900005
163.615005 -79.4598007 0.675000012
163.682098 -79.5999985 0.982800007
163.68512 -79.5578232 1.13619995
163.690994 -79.5953979 1.38859999
163.767197 -78.1529999 0.672100008
163.772202 -74.308197 1.43069994
163.792892 -74.2754974 1.62759995
163.779099 -74.1883011 1.59979999
163.747803 -73.6746979 0.987399995
163.7603 -63.2444 2.34120011
163.664398 -63.1483994 3.07159996
163.673004 -62.0513992 3.70880008
163.665695 -62.0936012 4.05429983
163.948502 -79.6429977 0.104199998
163.982101 -79.6379013 0.272799999
163.803604 -79.7561035 0.608299971
163.912094 -79.7347031 1.06519997
163.9664 -79.6579971 1.45519996
163.930496 -79.4395981 0.163699999
163.949295 -79.4344025 0.352600008
163.887299 -79.5830994 0.620700002
163.8396 -79.4822006 0.880699992
163.8862 -79.2659988 -0.323599994
163.909897 -79.3212967 0.337900013
163.997192 -79.2876968 0.62349999
163.848007 -77.9293976 0.703700006
163.806 -77.7298965 0.420599997
163.973907 -77.5932999 0.502900004
163.886307 -76.7945023 1.11010003
163.835403 -74.4317017 1.63160002
163.803299 -63.0195007 2.19779992
163.947403 -61.2899017 4.2198
164.162598 -79.9213028 0.513199985
164.098846 -79.8419037 0.901649952
164.036301 -79.7559967 0.702499986
164.025803 -79.7884979 1.05309999
164.067307 -79.7166977 1.32200003
164.13945 -79.4772034 -0.283850014
164.094849 -79.4364471 0.498800009
164.008896 -79.3799973 -0.136199996
164.1147 -79.393898 0.501699984
164.002808 -78.0986023 0.656400025
164.154694 -77.8415985 1.13610005
164.078506 -77.7226028 0.964600027
164.031799 -74.6285019 1.79419994
164.0298 -74.5080032 1.39859998
164.018097 -74.5035019 1.58210003
164.177505 -74.2034988 1.78390002
164.182098 -74.0914001 1.95039999
164.018799 -74.1240997 2.07800007
164.143097 -62.9079018 3.14840007
164.303497 -79.5619965 -0.419200003
164.26059 -79.4438019 -0.17735
164.240097 -79.5267029 0.32159999
164.233002 -78.2753983 0.655700028
164.206207 -78.1304016 0.688399971
164.227798 -77.8230972 1.05420005
164.313797 -74.5007019 1.70190001
164.309097 -74.4549026 1.85580003
164.229034 -74.3294373 1.89106667
164.275604 -74.1966019 1.82990003
164.229004 -73.9744034 1.72930002
164.233704 -73.2027969 1.34319997
164.253403 -73.0529022 1.14639997
164.327103 -63.7071991 2.67860007
164.251602 -63.4441986 2.47909999
164.330002 -63.2276001 2.15919995
164.589798 -79.728302 -0.309599996
164.485596 -79.6414032 -0.177699998
164.509796 -79.6740036 0.157900006
164.420395 -79.5505981 0.423500001
164.5439 -74.6854019 1.73969996
164.439606 -74.4877014 1.59220004
164.417694 -74.5108032 1.73730004
164.441299 -63.6595993 2.91289997
164.555405 -63.5714989 3.0625
164.525101 -62.7953987 2.91420007
164.479401 -61.6609001 3.85630012
164.640747 -79.6267471 -0.328949988
164.740097 -79.3789978 16.1492004
164.654907 -77.7577972 16.2047997
164.785507 -76.8046036 16.9529991
164.767197 -76.4733963 16.3230991
164.660294 -74.7889023 1.5194
164.636749 -63.7450027 2.51875019
164.958298 -79.5180969 15.8522997
164.912506 -79.2406998 1.31669998
164.968399 -79.3946991 15.7181997
164.938843 -79.1468048 1.27900004
164.968002 -79.1708984 1.41910005
164.951294 -79.0702972 16.3680992
164.981003 -78.9689026 16.2096996
164.932007 -78.7460022 16.2182999
164.826294 -78.7429962 16.9424
164.848495 -78.0427017 15.7819004
164.889404 -77.8304977 15.8077002
164.937607 -77.680397 16.5401993
164.930298 -77.4804001 18.5118008
164.9245 -77.0255966 17.5629005
164.8479 -76.9674988 17.6018009
164.990494 -76.7645035 17.0953007
164.836594 -76.7012024 17.2360001
164.935303 -76.5534973 16.5827999
164.989105 -76.2557983 12.4833002
164.921906 -76.2618027 12.6850996
164.822205 -75.8153992 1.0704
165.102707 -79.879097 15.8185997
165.015106 -79.7322998 15.8463001
165.151001 -79.5074997 0.979600012
165.042892 -79.4992981 15.7791004
165.0401 -79.4524994 15.9856005
165.137405 -79.2658997 1.02180004
165.164902 -79.1286011 1.67289996
165.196304 -79.1193008 15.6816998
165.038101 -79.0748978 16.3525009
165.128494 -78.9906998 15.7143002
165.094803 -78.6846008 16.0072002
165.132095 -78.4568024 16.6109009
165.122192 -78.4298019 17.6182003
165.190903 -78.2856979 17.3677998
165.151703 -78.2771988 18.1926994
165.167358 -77.8383026 17.7233505
165.183502 -77.6863556 2.11299992
165.044693 -77.7813034 16.0184994
165.190994 -77.5634995 1.34990001
165.087601 -77.4985962 17.1411991
165.030701 -77.5799026 17.3122997
165.12146 -77.3244476 18.3045998
165.069 -77.0890961 18.3149986
165.0867 -76.8947983 1.48880005
165.049103 -76.8803024 17.0911007
165.092804 -76.8900986 17.2560997
165.096893 -76.601799 16.5771999
165.102707 -76.7987976 17.0872993
165.194 -76.5252991 12.1710997
165.1483 -63.9864006 2.54130006
165.092499 -62.1439018 3.72930002
165.186295 -61.8783989 4.4691
165.296951 -79.6350555 -0.495049983
165.34285 -79.7129059 1.09119999
165.279755 -79.7340469 1.33065009
165.301056 -79.6598053 1.44585001
165.397903 -79.6950989 15.6859999
165.399307 -79.6311035 15.9953003
165.366394 -79.6120987 16.2182999
165.307098 -79.6097031 16.4857998
165.241196 -79.6461029 16.7096996
165.205307 -79.4616013 -0.393599987
165.393707 -79.4505005 0.319200009
165.290802 -79.4447021 0.890100002
165.264694 -79.4529037 1.03559995
165.37117 -79.4831314 1.68570006
165.364304 -79.4841003 2.04629993
165.378098 -79.5445023 16.7057991
165.311707 -79.3998032 0.291299999
165.339798 -79.3089981 0.64349997
165.266693 -79.3359985 1.27939999
165.273666 -79.2963791 1.47218001
165.311295 -79.3918991 2.03180003
165.232697 -79.3580017 15.6417999
165.309601 -79.1807556 15.5257502
165.328003 -78.8758011 13.8976002
165.311295 -78.8574982 16.2770004
165.302597 -78.6517029 13.4975996
165.224747 -78.6949463 14.9239502
165.348648 -78.6912537 15.5274
165.353897 -78.6304016 16.3803005
165.357803 -78.4518967 10.5910997
165.327393 -78.5645981 16.3281002
165.212494 -78.5255966 16.4300003
165.287598 -78.4462967 17.5641994
165.321899 -78.2235031 16.6081009
165.215805 -78.3924026 16.8113003
165.364899 -78.2381973 17.3351994
165.308807 -78.0083008 1.86269999
165.247894 -78.0878983 17.8837509
165.327194 -77.8283005 1.69690001
165.236893 -77.9430008 2.02950001
165.270706 -77.9016037 2.2342999
165.306152 -77.9585495 16.6752014
165.364975 -77.8591309 16.9157677
165.219498 -77.8504028 17.2269001
165.348907 -78 17.4554005
165.320297 -77.8570023 18.2112007
165.335403 -77.7460022 16.7201004
165.270203 -77.6738968 17.9811001
165.239899 -77.5469971 1.26590002
165.209503 -77.5673981 1.87600005
165.207794 -77.4721985 2.17659998
165.307312 -77.4537506 18.3420486
165.219803 -77.2865982 1.21609998
165.346893 -77.3684006 17.7742004
165.2733 -77.1414032 1.80770004
165.2202 -77.0653 17.9680996
165.238205 -76.6948013 13.3004999
165.329803 -76.6978989 17.9591999
165.324402 -76.4020004 12.7269001
165.345306 -76.4952011 15.4205999
165.352203 -76.4980011 17.7178001
165.305405 -76.3275986 14.9507999
165.238007 -75.722702 12.4174004
165.246994 -63.9202995 2.63849998
165.227295 -61.5293007 4.36320019
165.5728 -79.8725967 1.05840003
165.496353 -79.9408493 1.26905
165.429703 -79.6112976 -0.0403000005
165.519699 -79.677002 0.836000025
165.533432 -79.6819992 1.9380666
165.559906 -79.7639008 15.7385998
165.542496 -79.5828018 -0.0172000006
165.526001 -79.5394974 0.135900006
165.464294 -79.5238037 0.258300006
165.423203 -79.5559006 0.902199984
165.470993 -79.550499 1.56169999
165.500839 -79.5533981 1.90110004
165.433105 -79.5042038 2.0848999
165.456497 -79.3655014 1.76049995
165.50354 -79.3610535 16.5316505
165.509293 -79.0534973 15.5348997
165.463257 -79.0198517 15.6291504
165.589401 -78.8125 13.2578001
165.447403 -78.8503036 13.9259996
165.432343 -78.9132004 14.5284996
165.486603 -78.9674988 14.6969004
165.508698 -78.9623032 14.908
165.4151 -78.8927002 15.5500002
165.476501 -78.6278992 10.5161495
165.538498 -78.6477509 10.6583996
165.458405 -78.6878967 10.8402996
165.462799 -78.7401962 13.0478001
165.4953 -78.6278992 13.2179003
165.515198 -78.7501984 13.8126001
165.440399 -78.7547989 15.0962
165.462997 -78.5049973 10.3996
165.414505 -78.4546967 17.3209991
165.470795 -78.3233032 10.2028999
165.487701 -78.3964996 14.6639996
165.573502 -78.2446976 15.0376997
165.536407 -78.0803986 1.88689995
165.459442 -78.1083527 2.05684996
165.497192 -77.9781036 1.70190001
165.504944 -77.9337006 2.11955023
165.448303 -77.9369965 2.2723999
165.504807 -77.9291 16.7252502
165.476807 -77.9029007 16.9724998
165.450851 -77.7264481 1.50814998
165.446106 -77.6689987 1.73689997
165.5802 -77.4319992 12.8584003
165.559402 -77.3006973 1.67840004
165.455795 -77.3843002 1.95959997
165.425598 -77.2294998 17.2091999
165.527695 -77.3488007 17.4239998
165.497498 -77.3975983 17.6648006
165.419998 -77.1941986 2.07319999
165.492401 -77.134903 12.6146002
165.471497 -76.9020004 17.0335007
165.501755 -76.6464539 13.37535
165.448303 -76.7116013 16.5697002
165.423004 -76.5292969 -0.339700013
165.593994 -76.5269012 14.4879999
165.462402 -76.5194016 14.6871996
165.587006 -76.5342026 15.0812998
165.591705 -76.2193985 11.4209995
165.589798 -62.7659988 4.28350019
165.695404 -79.8380966 1.47109997
165.783295 -79.6155014 1.23899996
165.613998 -79.7781982 1.57509995
165.638596 -79.6735992 1.94160008
165.786606 -79.6584015 15.5352001
165.718201 -79.6094971 16.8899994
165.610794 -79.5481033 0.601100028
165.772095 -79.540802 2.09940004
165.600906 -79.5873032 15.5002003
165.612198 -79.5440979 16.7768002
165.646606 -79.1679001 14.3404999
165.756699 -78.6330032 12.4649
165.787994 -78.7930984 13.1129999
165.701202 -78.6796494 15.2866001
165.747803 -78.5034027 15.3381996
165.771896 -78.4873962 15.6223001
165.678299 -78.2649002 14.8762999
165.716995 -78.1434021 1.51670003
165.711807 -78.0395966 1.92270005
165.697906 -78.115097 2.05940008
165.691696 -77.9544983 2.02220011
165.782806 -77.9856033 2.33649993
165.722504 -77.7686005 2.47670007
165.683701 -77.6747971 16.2577991
165.765503 -77.5662994 14.158
165.7314 -77.5226974 14.6982002
165.706299 -77.2125015 12.1501999
165.775696 -77.3143005 12.9326
165.657898 -77.2856979 18.4197998
165.614746 -77.0932999 12.6826496
165.677704 -76.8692017 17.1802006
165.721405 -76.6042023 13.0978003
165.726807 -76.6340027 14.9982004
165.655243 -76.6307526 15.125
165.673203 -76.6164017 15.4411001
165.749603 -76.5958023 13.6447001
165.696899 -76.3171997 11.5360003
165.7612 -76.2440033 11.8608999
165.734695 -76.3403015 12.5183001
165.7948 -76.3074036 16.4782009
165.7061 -76.118103 11.1005001
165.732605 -75.9868011 10.9441004
165.787598 -75.9633026 12.0396996
165.720306 -74.3195038 0.895600021
165.6707 -74.2782974 1.5517
165.657593 -74.1755981 1.45469999
165.993698 -79.8607025 15.8744001
165.969803 -79.6938019 1.13839996
165.86734 -79.4946518 1.06075001
165.823898 -79.3880005 15.9376001
165.946793 -79.3091965 16.5408001
165.812607 -79.1819 15.2336998
165.979004 -79.1949005 15.5178003
165.872498 -78.9436035 10.4993
165.943298 -78.8716965 12.2770004
165.816299 -78.8153 13.5642996
165.871994 -78.7997971 10.3542004
165.824203 -78.7307968 10.4207001
165.906998 -78.7698975 10.6275997
165.959595 -78.6924973 11.3976002
165.900604 -78.7702484 15.4574003
165.831802 -78.4950027 10.6302996
165.947998 -78.2276993 12.9041996
165.908203 -78.3785019 13.0403004
165.919907 -78.1783981 12.1330004
165.959152 -78.0954514 14.0876503
165.993805 -77.9754028 13.0338001
165.924896 -77.9592972 13.9928999
165.917999 -77.6174011 14.8176003
165.805603 -77.1503983 12.7671003
165.871307 -76.7127991 13.9054003
165.950302 -76.6577988 14.4120998
165.888702 -76.6812973 16.2663002
165.878998 -76.5944977 13.3727999
165.959503 -76.4682007 14.8808002
165.960205 -76.2742004 11.1129999
165.822296 -76.2720032 11.7004004
165.840897 -76.2406006 12.3492002
165.946396 -76.3049011 12.6076002
165.974396 -76.1174011 12.1219997
165.998093 -73.9384003 1.37300003
165.914993 -62.4626999 4.2967
166.024994 -79.8314972 15.6496
166.158997 -79.4876022 -0.415800005
166.137207 -79.4340973 -0.317099988
166.087906 -79.302803 -0.221699998
166.195297 -79.2733002 0.950800002
166.153107 -79.3534012 15.7501001
166.176193 -79.3714981 16.1306
166.165604 -79.1223984 1.43859994
166.192093 -78.8553009 11.2421999
166.08194 -78.8935013 14.2810497
166.161499 -78.7266006 10.3948002
166.103104 -78.7034531 15.3415499
166.141205 -78.5169983 12.1548004
166.047394 -78.5011978 13.0634003
166.150406 -78.5134964 13.4800997
166.042297 -78.2779999 12.0338001
166.061401 -78.2272949 12.2756996
166.010605 -78.2411499 12.4963999
166.051407 -78.3029022 12.8367996
166.0811 -78.2779007 14.3631001
166.030396 -78.1893005 12.3717003
166.039795 -78.0998001 12.6859999
166.091797 -78.1828995 12.9129
166.076202 -77.8507996 10.5472002
166.121399 -77.7350998 0.436800003
166.027496 -77.6688995 10.4526997
166.09436 -76.7257996 12.5034008
166.098206 -76.7806015 13.191
166.090698 -76.6837997 13.9856005
166.155899 -76.6270981 14.0458002
166.009796 -76.6308975 14.2692003
166.091003 -76.7360001 15.0847998
166.139999 -76.4169998 11.3515997
166.163193 -76.419899 12.4048996
166.023102 -76.4741974 12.7110996
166.117905 -76.2037964 10.6613998
166.045502 -76.3635025 10.8542004
166.057495 -76.1594009 12.0381002
166.106995 -74.5434036 14.8796997
166.376999 -79.8452988 1.29270005
166.292892 -79.8403015 12.2161999
166.277893 -79.6026001 -0.267500013
166.338699 -79.5537033 -0.403499991
166.309509 -79.5216064 -0.241250008
166.2491 -79.4641037 1.33780003
166.315598 -79.5531998 16.9379005
166.237503 -79.5414963 17.1263008
166.309402 -79.5562973 17.2189007
166.324493 -79.3307953 0.103400007
166.336197 -79.3610001 1.63590002
166.227402 -79.303299 11.5679998
166.287003 -79.0158997 0.712100029
166.300003 -79.0455017 1.36210001
166.322495 -79.1288986 11.5082998
166.261398 -79.0400009 16.0646
166.324402 -78.9412994 11.3719997
166.372894 -78.9075012 11.5214005
166.363403 -78.8115997 12.9317999
166.397293 -78.7699966 10.6148005
166.227905 -78.736702 10.8074999
166.382202 -78.697998 11.0481005
166.37439 -78.6773987 12.2755499
166.222702 -78.6065979 13.4173002
166.247192 -78.4112015 13.4281998
166.354904 -78.4431 14.8212004
166.269302 -78.2042999 13.2096004
166.354507 -78.1792984 10.6189003
166.316803 -78.1417999 10.8163004
166.374695 -78.0970001 11.9832001
166.391403 -78.0896988 12.8692999
166.372406 -78.1070023 13.4097996
166.355606 -77.9859009 0.4463
166.336807 -77.9308014 13.9535999
166.245102 -77.751297 -0.305700004
166.359604 -77.7027969 -0.0270000007
166.333954 -77.709053 0.328850001
166.260696 -77.7956009 1.8096
166.290405 -77.5904999 0.152199998
166.363205 -77.489502 9.76830006
166.283752 -77.4858475 14.7863007
166.379501 -77.2835999 10.6726999
166.364807 -77.0670013 12.8122997
166.250397 -77.0109024 13.309
166.334198 -77.0276031 13.6422005
166.360901 -77.0634995 16.4004993
166.384796 -76.9409027 16.2017002
166.315704 -76.6705475 11.6756496
166.292404 -76.7039032 11.9161501
166.2836 -76.7382965 12.1450005
166.261154 -76.6746521 12.2951508
166.218704 -76.6054993 15.1591997
166.311401 -76.7546005 17.0739002
166.278503 -76.5585022 11.2629995
166.201706 -76.4432983 12.9877005
166.245804 -76.5912018 13.5008001
166.219193 -76.3085022 11.0895996
166.307602 -76.2444992 11.8617001
166.234299 -76.0979004 10.7700005
166.341797 -74.6856003 13.7825003
166.352798 -74.4340973 14.9756002
166.288895 -74.0296021 1.43180001
166.223404 -74.1324005 14.6637001
166.321106 -73.7723999 1.3082
166.227005 -73.6936035 1.42519999
166.269608 -73.6713028 15.6641998
166.540604 -79.9135971 1.19190001
166.530212 -79.9055939 1.31725001
166.470993 -79.8355026 14.9547005
166.530594 -79.6296005 -0.318599999
166.411407 -79.6214981 0.693899989
166.406097 -79.7564011 1.3075
166.582901 -79.6735992 1.57490003
166.581207 -79.7087555 14.62885
166.441101 -79.6667023 14.9545002
166.452301 -79.6471024 15.1141005
166.484695 -79.5876999 -0.436300009
166.458893 -79.5551987 -0.2139
166.508408 -79.4320984 0.592700005
166.4048 -79.4914017 0.701699972
166.415604 -79.594101 0.889599979
166.455093 -79.4483032 1.50129998
166.486801 -79.5605011 1.67379999
166.506805 -79.4321976 14.6644001
166.528793 -79.4673309 16.7194672
166.506805 -79.5071487 16.8817997
166.522705 -79.3623047 0.377700001
166.460205 -79.2249985 1.87100005
166.4133 -79.2117004 11.2617998
166.544006 -79.3788986 16.7577991
166.452301 -79.1048965 11.3533001
166.531693 -79.1860962 15.7858
166.435104 -78.8690033 11.1798
166.567993 -78.8937988 12.8372002
166.494202 -78.8180008 13.0967999
166.424103 -78.8142014 13.3761997
166.581604 -78.9368973 14.9308996
166.415894 -78.9809036 15.3437996
166.403595 -78.7289963 10.8238001
166.477539 -78.7465973 12.9554005
166.523605 -78.6259003 14.8727999
166.512497 -78.4962006 11.0998001
166.423004 -78.2450027 18.1560993
166.472 -78.1448975 10.9301004
166.457703 -78.0367966 13.7769003
166.490402 -77.9582977 1.53709996
166.406403 -77.8623962 10.4383001
166.405701 -77.846199 10.8059998
166.438797 -77.7218018 1.80509996
166.427505 -77.6044006 10.7532997
166.5271 -77.5654984 10.3936005
166.547302 -76.9345016 11.9921999
166.468994 -76.9094543 12.2955494
166.403503 -76.8582993 14.9846001
166.443695 -76.8445969 15.1216002
166.531601 -76.9402008 15.5276003
166.438095 -76.9769974 16.4801998
166.471802 -76.7823029 15.2175999
166.5625 -76.5540009 0.157900006
166.555603 -76.5647964 0.368600011
166.585205 -76.4129028 10.5529003
166.401199 -76.490799 12.2398996
166.416397 -76.2940979 11.967
166.593201 -75.953598 10.8333998
166.485794 -74.7277985 15.1761999
166.5811 -74.5992966 14.1302004
166.5215 -74.2189026 14.3290005
166.443405 -74.2128983 14.6009998
166.528198 -74.376297 15.7639999
166.537796 -74.1023026 15.1893997
166.536102 -74.081398 15.6246004
166.439301 -73.5563965 1.69939995
166.470001 -73.4710007 2.02489996
166.662704 -79.8544998 1.06140006
166.6483 -79.9654007 14.7952003
166.779694 -79.9294968 16.4596004
166.719803 -79.864502 16.737999
166.674957 -79.7087479 1.52709997
166.752106 -79.4582977 0.428900003
166.650803 -79.5304031 16.7943001
166.649506 -79.2222977 10.7940998
166.723099 -79.254097 10.9145002
166.717102 -79.2639008 15.2833996
166.696533 -79.1399307 10.8431997
166.675797 -79.0362015 11.6608
166.675293 -78.8312988 10.2909002
166.735504 -78.867897 10.5907001
166.69931 -78.9264526 10.6070995
166.653503 -78.8117981 10.9126997
166.679092 -78.8543015 11.1226997
166.773407 -78.8868027 12.7510004
166.655197 -78.9881973 13.0522003
166.602997 -78.6968994 10.9582005
166.793198 -78.6921997 11.0555
166.634506 -78.7108994 11.8500996
166.798203 -78.6513977 12.4940004
166.676804 -78.7885971 14.8273001
166.723404 -78.5223007 9.83139992
166.722595 -78.5053024 10.0502501
166.618805 -78.0044022 10.4218998
166.617401 -78.1427994 10.6903
166.682693 -77.9345703 10.4607334
166.722198 -77.6022034 9.57820034
166.675995 -77.7041016 9.74180031
166.707947 -77.6895523 9.90755081
166.603394 -77.677002 10.1105003
166.606995 -77.4701004 10.9503002
166.794693 -77.560997 15.9296999
166.684494 -77.2118988 13.1595001
166.779297 -77.0158997 9.73680019
166.630905 -77.0863037 11.8900995
166.665894 -77.094902 16.5077
166.684204 -76.9316025 10.5818996
166.675705 -76.8440018 10.9266996
166.639801 -76.5600967 0.102499999
166.663101 -76.5727005 16.7626991
166.655807 -75.032402 13.3214998
166.759995 -74.8774033 14.4101
166.739105 -74.7052994 15.2995996
166.706299 -74.5178986 14.5283003
166.635406 -74.444603 15.0296001
166.774399 -74.0330963 1.6372
166.6763 -73.8887024 1.70190001
166.689194 -73.819397 1.89909995
166.7164 -73.7451019 1.66779995
166.891098 -79.822403 16.4729996
166.971298 -79.8908005 16.6266003
166.911407 -79.6378021 14.0812998
166.8862 -79.4872971 0.650399983
166.832703 -79.4745026 14.4427004
166.928802 -79.4468002 16.3647995
166.888458 -79.5341034 16.710701
166.974396 -79.4076996 18.8171997
166.808594 -79.4096985 19.1256008
166.844604 -79.2521973 10.9920998
166.966202 -79.3841019 16.2049999
166.839493 -79.0635986 10.3919001
166.8629 -79.1594009 10.4590998
166.8134 -78.3674011 14.7770004
166.805298 -77.8495026 10.5830002
166.900208 -77.6213989 10.1655998
166.857498 -77.563797 10.9900999
166.808197 -77.4317017 15.2414999
166.956406 -77.3114014 9.75450039
166.990295 -77.2362976 9.89990044
166.980606 -77.3332977 11.8418999
166.810303 -77.0037994 10.9457998
166.952393 -77.0236969 11.6884003
166.887207 -77.1725998 14.1695995
166.988098 -77.0215988 14.3375998
166.832199 -76.969101 11.3425999
166.960999 -76.8647995 14.2076998
166.905899 -76.6764984 0.253899992
166.850998 -76.7925034 9.82120037
166.892105 -74.3735962 1.4698
166.801193 -74.3815994 14.6345997
166.867798 -73.8528976 1.75929999
166.831207 -73.8243027 1.93920004
166.857498 -73.906601 13.9036999
166.911804 -73.7855988 1.85650003
167.02124 -79.9043503 16.4478493
167.110001 -79.6166992 14.0071001
167.166 -79.7746964 16.1884995
167.061493 -79.6381989 16.2420006
167.116196 -79.6757965 17.1585007
167.117996 -79.4032974 0.493000001
167.082703 -79.4899979 0.777499974
167.027695 -79.4045029 0.862399995
167.102005 -79.449501 13.9212999
167.076904 -79.4944 18.7264996
167.199905 -79.3473969 -0.341399997
167.041397 -79.2478027 10.4792995
167.045105 -79.302597 10.8457003
167.184601 -79.1976013 -0.284000009
167.160904 -79.0268021 18.3945999
167.076401 -78.8930969 18.2350006
167.058304 -78.2695999 14.2510996
167.027206 -77.4153976 11.6837997
167.017197 -77.0233994 9.76799965
167.001205 -77.0301971 10.1688004
167.071304 -77.1669006 11.4736004
167.088501 -75.0434036 15.2542
167.083603 -74.8243027 9.71000004
167.045853 -74.9486008 10.0536499
167.036606 -74.898201 15.1420002
167.111298 -74.3068008 9.09980011
167.281296 -79.9758987 16.7982006
167.234894 -79.8772964 17.3171005
167.2845 -79.6296997 0.560000002
167.247498 -79.7070999 14.2355003
167.304153 -79.5599976 -0.413150012
167.389206 -79.430397 0.0471000001
167.348404 -79.4503021 0.257400006
167.299805 -79.4122009 0.528599977
167.309097 -79.3342972 -0.202700004
167.391693 -79.3852997 -0.152099997
167.283936 -79.2777634 0.132533342
167.382202 -79.2037964 0.39230001
167.207199 -79.2774963 0.601000011
167.290497 -79.3755035 16.4092999
167.260895 -79.2429962 18.2112999
167.258408 -79.3869019 18.5116005
167.288696 -79.0103989 0.300599992
167.220703 -79.1231995 17.7779999
167.218506 -79.1340027 18.2674007
167.219696 -79.1740036 18.4167004
167.294601 -78.9076996 18.1522999
167.324402 -78.7394028 13.2754002
167.250107 -78.4175034 11.3325005
167.276306 -78.5957031 14.8462
167.2341 -78.2371979 14.6468
167.247604 -77.7115021 0.270200014
167.379593 -77.7695999 10.6014004
167.336502 -77.7220993 10.8210001
167.288498 -77.4972992 10.5064001
167.210999 -77.2697983 9.83119965
167.230103 -77.2284012 10.8631001
167.216293 -77.0705032 9.70610046
167.337402 -76.450798 11.0881004
167.216095 -76.1418991 11.5502996
167.364502 -75.4586029 9.25469971
167.3405 -75.3106995 9.8451004
167.337997 -75.3792038 10.0878
167.3974 -75.1576004 8.90789986
167.273254 -75.0502014 9.77210045
167.332993 -75.1728973 15.2320995
167.319702 -74.9151993 9.22159958
167.274704 -74.9684982 9.69349957
167.297699 -74.6979523 9.2058506
167.271606 -74.594101 8.99330044
167.233307 -74.501503 9.35830021
167.2099 -74.3136978 8.94869995
167.206406 -74.0109024 1.84749997
167.212204 -73.4741974 1.91489995
167.391403 -73.1195526 3.52474999
167.3806 -73.063797 3.69239998
167.361099 -72.9929962 3.48070002
167.360107 -72.9548035 3.85549998
167.537796 -79.8002014 11.7672997
167.521301 -79.9257965 14.6099997
167.582199 -79.6383972 -0.46450001
167.492493 -79.697998 12.6826
167.495804 -79.6194992 17.6380997
167.537506 -79.4503021 0.464399993
167.458694 -79.4540024 0.619799972
167.455902 -79.5529022 12.9709997
167.401398 -79.3191986 0.544399977
167.538605 -79.3672028 16.1406994
167.570999 -79.3587036 17.8691998
167.594498 -79.1473007 13.1375999
167.432999 -79.1925964 17.4853992
167.501297 -78.5687027 11.7716999
167.426407 -78.2388992 11.9893999
167.433304 -78.3722 14.1760998
167.558807 -78.0526962 10.5634003
167.493393 -77.8203964 10.2881002
167.549896 -77.742897 13.9224005
167.509705 -77.4497986 2.69155002
167.439499 -77.5319977 2.97740006
167.415207 -77.4564972 3.046
167.558197 -77.4735031 3.28999996
167.500793 -77.3504028 0.426299989
167.561401 -76.9027328 9.96016693
167.423706 -76.1813965 9.78380013
167.585602 -76.1691971 10.5293999
167.454102 -75.6605988 10.1632996
167.484604 -75.5315552 9.12370014
167.598099 -75.4296036 9.53419971
167.567795 -75.5403976 9.94830036
167.501099 -75.0878983 9.81439972
167.455093 -74.8830032 8.95650005
167.473846 -74.887001 9.10494995
167.4767 -74.6111984 8.78289986
167.427094 -74.721199 9.42080021
167.497803 -74.2451019 6.02610016
167.570694 -73.2005997 3.46939993
167.581696 -73.2610016 5.51440001
167.476898 -73.1794968 3.50090003
167.590897 -73.1801987 3.68409991
167.6987 -79.8516006 15.8318996
167.703003 -79.6100006 0.46360001
167.744202 -79.7145996 15.2707005
167.690399 -79.6619034 17.8761997
167.621704 -79.5252991 0.896700025
167.625793 -79.4132004 1.42089999
167.756607 -79.4726715 1.65782499
167.722702 -79.4236984 1.80589998
167.782806 -79.5292969 8.01099968
167.679138 -79.2426987 1.09439993
167.643799 -79.2065964 1.40670002
167.654999 -79.2987976 1.74749994
167.794098 -79.3550034 10.9045
167.712601 -79.3930969 12.9301004
167.768707 -79.2998962 13.4631004
167.639801 -79.3414993 14.0902004
167.615997 -79.3171997 17.5739994
167.769394 -79.1975021 10.9202003
167.773193 -79.1148987 13.3913002
167.631607 -79.0811996 13.6976995
167.736694 -78.802803 12.6824999
167.610901 -78.9703979 13.6412001
167.684494 -78.4777985 9.14620018
167.740997 -78.4720001 13.3683996
167.667694 -78.4452972 13.9348001
167.752304 -78.514801 14.0417004
167.6017 -78.3167038 9.06000042
167.605499 -78.2457962 10.8296003
167.622192 -78.2331009 16.4876995
167.665497 -78.0089035 10.2758999
167.779404 -78.1904984 10.7856998
167.7323 -77.9220963 0.878099978
167.732101 -77.8406982 9.67640018
167.755798 -77.8286972 9.84879971
167.614304 -77.8638992 10.1513004
167.669601 -77.876297 10.3015003
167.757904 -77.7926025 0.630800009
167.691696 -77.6715012 2.85770011
167.761002 -77.7256012 9.55179977
167.651001 -77.7213974 9.89080048
167.768707 -77.6218033 10.1068001
167.740402 -77.5723038 2.67880011
167.617157 -77.5006485 3.11295009
167.703796 -77.5953979 8.85480022
167.681107 -77.4113007 9.44040012
167.637604 -77.4615021 10.1377001
167.773407 -77.0262985 9.83880043
167.647797 -77.178299 12.2219
167.7957 -76.8656006 8.66699982
167.608795 -76.8852005 9.58469963
167.697693 -76.8905945 9.61985016
167.759995 -76.7238007 9.24429989
167.763199 -76.3686981 9.37020016
167.720703 -76.3924026 9.49040031
167.728302 -75.7277985 8.87699986
167.745697 -75.6517029 9.79430008
167.761597 -75.5198975 8.75790024
167.750702 -75.4731979 9.5916996
167.693207 -75.5635986 9.69629955
167.703003 -75.3960037 9.70460033
167.735001 -73.8276978 4.19320011
167.737305 -73.7402344 3.90156674
167.722107 -73.7173004 4.30679989
167.742294 -73.4552994 4.10680008
167.699005 -73.4883499 5.45125008
167.746201 -73.4598007 5.97049999
167.673996 -73.2567978 3.49449992
167.655151 -73.2412567 3.69994998
167.625198 -73.3684998 3.82780004
167.788696 -73.2966995 4.55840015
167.783997 -73.2554016 4.73689985
167.747299 -73.3834 5.27580023
167.696503 -73.1772995 3.33150005
167.661896 -73.1813965 3.79909992
167.654099 -73.1449966 3.81369996
167.677399 -73.1921005 4.16139984
167.966797 -79.8275986 10.8410997
167.929047 -79.9355011 16.0664501
167.922501 -79.6109009 1.60780001
167.974197 -79.6417007 7.85109997
167.811798 -79.6425018 8.09539986
167.886093 -79.7580032 11.0537004
167.940903 -79.4888458 0.479400009
167.9095 -79.5764999 0.64200002
167.8461 -79.4438019 0.87470001
167.896194 -79.4648972 1.16779995
167.846893 -79.4375 1.21860003
167.896164 -79.521637 1.47220004
167.906906 -79.5478973 1.6609
167.936005 -79.553299 7.44710016
167.895813 -79.5019531 7.70720005
167.979797 -79.4869995 7.91730022
167.983505 -79.5466995 8.01970005
167.882202 -79.490799 8.30780029
167.866592 -79.3672028 0.213599995
167.951401 -79.3481979 10.6435003
167.995407 -79.3139038 12.4535999
167.891296 -79.1475983 12.2263002
167.892303 -79.1414032 12.7075005
167.809906 -79.0285034 13.1322002
167.908295 -78.9621964 10.7824001
167.885193 -78.6211014 9.15180016
167.844604 -78.723999 9.2407999
167.926498 -78.7297974 9.4296999
167.982407 -78.7097015 11.7898998
167.927094 -78.5280457 8.94734955
167.908798 -78.5248032 9.2336998
167.864304 -78.5537033 9.96399975
167.940598 -78.4321976 10.6019001
167.866196 -78.5954971 11.6952
167.950806 -78.5310974 11.8484001
167.960007 -78.2539978 9.42300034
167.945801 -78.3172989 10.6338997
167.867401 -78.3671036 11.3049002
167.907104 -78.2478027 12.6020002
167.964005 -78.0805969 9.76309967
167.935898 -78.1679993 11.0733995
167.873199 -77.9000015 9.56029987
167.9104 -77.9923019 9.6505003
167.866394 -77.8534012 9.93130016
167.905594 -77.6624985 -0.212599993
167.980392 -77.6285019 2.62140012
167.947952 -77.6759033 3.10474992
167.984894 -77.6634979 8.61810017
167.820206 -77.7270966 9.50949955
167.833694 -77.7879028 9.66300011
167.874207 -77.5656967 -0.250699997
167.899506 -77.5318985 0.0798999965
167.857498 -77.5167007 2.81159997
167.829697 -77.4260025 10.6147003
167.944794 -77.2945023 9.26599979
167.989304 -77.0152969 3.95810008
167.989304 -77.1735001 8.46170044
167.887054 -77.1085052 9.10085011
167.875595 -77.0513992 9.28999996
167.844696 -76.9477997 8.51659966
167.815002 -76.8519974 8.95510006
167.947601 -76.7578964 10.4285002
167.864807 -76.4542007 9.3114996
167.865707 -76.4253006 9.62419987
167.882294 -76.0063019 10.2838001
167.947296 -75.5048981 9.14570045
167.937103 -75.5506973 9.31019974
167.801498 -75.5345001 9.60449982
167.978699 -75.3772964 4.32000017
167.984497 -74.4256973 4.32380009
167.957397 -74.4320984 4.42180014
167.922806 -74.5622025 5.89559984
167.826202 -74.0571976 5.85419989
167.863602 -73.4373016 3.75990009
167.899902 -73.5106964 5.51684999
167.8452 -73.2203979 2.89840007
167.854507 -73.273201 3.88429999
167.897095 -73.2145996 4.61539984
167.838394 -73.335701 5.06419992
167.925705 -73.1781998 3.72000003
167.915405 -72.0646973 0.0083999997
168.106293 -79.8833008 15.9327002
168.025894 -79.9532013 16.1657009
168.063004 -79.9713974 16.2346992
168.000107 -79.6044998 1.77409995
168.125397 -79.6727982 8.11400032
168.096252 -79.7037506 15.9836502
168.022797 -79.4098969 0.924000025
168.152405 -79.5251007 7.80779982
168.022202 -79.5979004 8.2798996
168.171295 -79.5660019 8.55220032
168.018707 -79.4470978 10.6667995
168.184799 -79.3750992 7.6099
168.052994 -79.1018982 7.38929987
168.109894 -79.1815033 7.8579998
168.054993 -78.610199 8.94629955
168.129303 -78.7854462 9.12944984
168.084702 -78.6575012 9.25370026
168.118896 -78.7790985 9.4368
168.141205 -78.4225006 10.3318005
168.030106 -78.4554977 12.7031002
168.061264 -78.319664 10.2891665
168.119095 -78.3660965 10.4996996
168.011703 -78.0278015 9.99170017
168.149796 -77.8860626 2.70973325
168.156097 -77.9304352 8.86963272
168.154495 -77.9257965 9.02820015
168.006805 -77.9935989 9.39869976
168.018799 -77.9375 9.46329975
168.092804 -77.7425995 -0.569999993
168.080093 -77.6594009 0.0201999992
168.030197 -77.7827988 2.61339998
168.075607 -77.7272034 3.27250004
168.109436 -77.7362518 3.45274997
168.033203 -77.7539978 8.98579979
168.027206 -77.7416534 9.02900028
168.047806 -77.5776978 3.27979994
168.189499 -77.4751968 5.20179987
168.004807 -77.5982971 8.63770008
168.018799 -77.5410004 9.92090034
168.194504 -77.2390976 3.51769996
168.113144 -77.3180466 4.15925026
168.124802 -77.2524033 4.2171998
168.079193 -77.263504 8.65979958
168.021103 -77.2443008 10.4391003
168.009201 -77.0926971 4.75740004
168.072601 -77.1353989 8.4968996
168.066605 -76.6707993 5.72300005
168.131897 -76.5033035 5.44640017
168.176605 -75.6253967 4.38250017
168.129395 -75.6804962 4.65409994
168.047607 -75.5944977 9.42630005
168.051361 -75.2550507 4.09030008
168.030304 -75.379097 4.22100019
168.075394 -75.3983002 4.64830017
168.150696 -74.8013992 8.08930016
168.159058 -74.4705963 4.09819984
168.042007 -74.3936996 4.30970001
168.046844 -74.3068008 4.71409988
168.007599 -74.365303 6.07070017
168.080002 -74.1987 4.52260017
168.031006 -74.0038986 5.20739985
168.155899 -73.8805008 4.90560007
168.188599 -73.8619995 5.38430023
168.154404 -73.6734009 3.63820004
168.12735 -73.6326981 4.30840015
168.1017 -73.6244965 4.42689991
168.106201 -73.7856979 5.31619978
168.009094 -73.5169983 3.54780006
168.166702 -73.5390015 4.87410021
168.044098 -73.5635986 5.25500011
168.019394 -73.3905029 3.76300001
168.175507 -73.3615036 3.91910005
168.213898 -79.6066971 8.28380013
168.278595 -79.2906036 7.42740011
168.294601 -79.3211975 7.76410007
168.360001 -79.3864975 7.8368001
168.315796 -79.0479965 7.13119984
168.392395 -79.1900024 7.47200012
168.216904 -79.0734024 12.0087004
168.328094 -78.531601 9.36559963
168.376953 -78.3204498 2.67225003
168.338593 -78.2500992 2.80259991
168.322906 -78.2226028 9.6796999
168.254395 -78.0112991 0.936200023
168.296143 -78.083847 2.32824993
168.314194 -78.0742035 2.5243001
168.261551 -78.1120529 2.68249989
168.339096 -78.1306 2.96259999
168.2173 -78.1755981 9.81029987
168.316406 -77.9577026 2.18169999
168.276794 -77.9934998 2.94039989
168.278931 -77.9230652 3.07783341
168.3694 -77.9367981 3.5316
168.2444 -77.9262009 8.57260036
168.238098 -77.9786987 8.60809994
168.253494 -77.9994965 11.1373997
168.201508 -77.7100983 0.443199992
168.318207 -77.7230988 1.13950002
168.319931 -77.4438629 3.90689993
168.3004 -77.459198 4.00939989
168.388 -77.5187988 4.39309978
168.386795 -77.5748978 4.55660009
168.277893 -77.3431015 4.88269997
168.343796 -77.3887024 5.1171999
168.360596 -76.8267975 5.25110006
168.374496 -76.2527008 4.67159986
168.264496 -75.944603 4.91099977
168.202194 -75.5598984 4.92250013
168.204102 -75.3843994 4.22209978
168.352097 -74.6869965 4.15939999
168.264496 -74.6308975 4.24770021
168.238998 -74.6167984 4.45769978
168.305496 -74.7176971 4.86929989
168.351807 -74.5474014 4.65369987
168.217499 -74.5578995 7.9914999
168.302399 -74.3376999 3.85800004
168.262695 -74.2197037 5.66550016
168.302094 -74.155098 3.53460002
168.243805 -74.0876999 3.64163327
168.238602 -74.0498962 4.12160015
168.343399 -73.8192978 3.05819988
168.242493 -73.884697 4.92210007
168.275497 -73.6511002 2.88930011
168.252304 -73.6621017 3.35249996
168.381393 -71.6643982 4.72539997
168.309494 -71.6852036 4.88539982
168.524399 -78.9107971 8.30980015
168.5513 -78.8304977 9.36919975
168.595001 -78.8776016 19.1357994
168.507599 -78.722702 9.00489998
168.476395 -78.7823029 9.37619972
168.435806 -78.6526031 10.3943005
168.580551 -78.4849472 8.64540005
168.434906 -78.4438019 8.91839981
168.497498 -78.4224014 9.7269001
168.547791 -78.2693024 2.8369
168.477707 -78.2629013 3.28559995
168.419907 -78.0037994 2.99489999
168.519104 -78.1980972 7.86520004
168.417206 -78.0438995 8.58170033
168.538406 -78.0942993 8.71280003
168.450302 -78.1243973 10.1843004
168.428894 -77.9023972 11.1757002
168.4888 -77.7065964 2.2737999
168.418594 -77.667099 3.58960009
168.559296 -77.5512009 4.09180021
168.491104 -77.5098038 4.41470003
168.526703 -77.4299011 5.14620018
168.446396 -77.3983994 4.05819988
168.581497 -77.3247986 5.19040012
168.406403 -77.0175018 9.36320019
168.536194 -76.8134995 2.41950011
168.541702 -76.8347015 5.47720003
168.516602 -76.7835999 4.91680002
168.496353 -76.2817993 4.93335009
168.502502 -76.324295 5.11240005
168.544205 -76.1598969 -0.136700004
168.445602 -76.1610031 5.10500002
168.496643 -75.9339447 3.94404984
168.462906 -75.8227997 4.83050013
168.455902 -75.8230438 9.21500015
168.594803 -75.649498 5.79090023
168.479202 -75.7125015 9.15149975
168.573303 -75.4998016 4.34700012
168.589096 -75.4403992 5.37769985
168.527008 -75.5043488 5.65345001
168.5065 -75.4695969 5.8671999
168.509506 -75.4909973 10.1604996
168.597702 -75.3888016 4.72459984
168.417206 -74.9636002 8.23449993
168.492706 -74.8320007 8.71809959
168.417603 -74.5031967 4.02799988
168.427704 -74.4611969 5.71670008
168.575806 -74.4048996 16.9475002
168.592697 -74.2116013 2.78239989
168.515106 -74.3305511 3.10699987
168.453293 -74.1224976 3.09929991
168.484802 -74.1993027 3.38930011
168.460907 -74.1044006 16.7744007
168.465393 -72.1304016 4.829
168.525894 -71.9366989 4.77260017
168.599792 -71.8094025 4.87779999
168.440399 -71.6379013 4.35129976
168.503693 -71.7509003 4.72189999
168.485138 -71.6736984 4.90744972
168.612595 -79.9079971 11.3780003
168.723297 -79.6474991 8.19299984
168.760605 -79.7822037 20.1681004
168.730896 -79.5577011 7.8355999
168.699905 -79.469101 10.7340002
168.629303 -79.0681992 19.1471996
168.711197 -78.8817978 10.5190001
168.645599 -78.8648529 10.6262503
168.769302 -78.8820038 11.2285004
168.754105 -78.6062012 8.31070042
168.677002 -78.6199036 8.43470001
168.671005 -78.6968994 9.17010021
168.759705 -78.607399 9.92319965
168.745605 -78.6616974 10.1799002
168.638901 -78.5161972 8.39620018
168.617096 -78.4991989 9.96049976
168.758194 -78.2036972 2.84290004
168.676102 -78.3442001 7.80049992
168.751404 -78.137001 2.90159988
168.778595 -78.1212006 3.15089989
168.759003 -78.138298 3.36989999
168.671906 -77.9325027 11.1851997
168.786301 -77.6285019 3.98559999
168.658707 -77.6235962 4.17339993
168.774094 -77.5358963 3.89289999
168.691299 -77.455101 19.8502007
168.706802 -77.2643967 5.23110008
168.784393 -77.3386002 8.17549992
168.742798 -77.007103 2.13030005
168.654404 -77.0742035 2.71440005
168.6772 -77.0833969 5.53429985
168.790298 -77.0720978 5.62139988
168.694702 -76.8300018 4.80749989
168.633499 -76.5875015 4.92990017
168.6745 -76.5526962 5.08930016
168.774155 -76.2669525 3.9289999
168.726807 -76.1445007 3.69269991
168.600601 -76.0453033 4.20389986
168.659805 -75.9937973 3.87039995
168.636093 -75.6204987 5.63369989
168.604095 -74.9140015 7.48290014
168.7453 -74.9126968 8.12590027
168.627808 -74.8867035 8.34389973
168.715698 -74.4131012 2.70499992
168.648895 -74.4011002 3.08800006
168.694199 -74.3660965 2.60540009
168.648102 -74.3634033 3.19059992
168.703552 -74.3014984 3.49550009
168.766098 -74.2022018 4.04879999
168.783096 -74.308403 5.05579996
168.797302 -74.0147018 4.69770002
168.798996 -74.1453018 5.2414999
168.7509 -74.1379013 5.72160006
168.647598 -73.9317017 5.35540009
168.746094 -72.1328964 4.55880022
168.823105 -79.8102036 8.11240005
168.901001 -79.7753983 9.35890007
168.933197 -79.4626999 8.66800022
168.946106 -79.453598 20.0440998
168.987503 -79.2563019 -0.322400004
168.886597 -79.393898 7.07089996
168.886307 -79.0558014 5.69150019
168.997406 -79.0306015 6.49630022
168.887604 -79.1191025 19.8455009
168.889999 -78.9926987 6.33739996
168.990707 -78.9372025 9.89050007
168.800201 -78.9878006 10.5058002
168.950806 -78.5746994 8.32870007
168.9086 -78.5558014 9.27840042
168.813599 -78.5606003 9.94569969
168.855194 -78.2590027 3.09739995
168.932098 -78.2257996 3.20970011
168.953201 -78.1232986 2.89179993
168.883301 -78.1384506 3.09555006
168.944901 -78.1576996 8.1388998
168.819199 -77.8555984 7.70559978
168.837296 -77.6589966 4.71560001
168.915497 -77.604599 4.87709999
168.977295 -77.7965012 5.16499996
168.973602 -77.6921997 8.68690014
168.885406 -77.6743011 10.8579998
168.971405 -77.5179977 4.02199984
168.885498 -77.4299011 4.50075006
168.983505 -77.4247971 7.23600006
168.8992 -77.3003998 7.15399981
168.921906 -77.0203018 5.18340015
168.858154 -77.1376495 5.32719994
168.919205 -77.103302 6.94089985
168.894012 -77.1260986 7.07804966
168.897995 -77.0976028 7.59490013
168.846603 -76.9894028 7.69439983
168.835602 -76.5653 7.94560003
168.970306 -75.8949966 3.88610005
168.886597 -75.8262024 4.77899981
168.800797 -75.7890015 8.57800007
168.998703 -75.5688019 2.98130012
168.922104 -75.5827026 3.12870002
168.851303 -75.4496002 3.2974999
168.8452 -75.4405975 4.57560015
168.939102 -75.3225021 3.7723
168.841003 -75.2882996 4.35340023
168.860306 -75.3116989 4.65490007
168.963104 -74.9185028 8.11289978
168.973602 -74.8066025 8.5571003
168.907806 -74.9487991 8.87520027
168.967194 -74.4582977 3.57310009
168.975296 -74.4030991 3.76609993
168.967743 -74.4120941 7.75409985
168.858398 -74.5924988 8.36680031
168.914505 -74.3348999 2.55019999
168.957397 -74.2480011 3.6882
168.897202 -74.3125992 4.0165
168.926605 -74.2656021 4.56080008
168.865402 -74.1659012 17.3831005
168.934006 -72.6976013 5.35559988
168.860291 -72.2758026 5.14770031
169.025406 -79.9409027 6.17390013
169.189896 -79.8440018 15.5521002
169.083893 -79.9570999 19.6618996
169.136002 -79.6980972 7.55770016
169.061096 -79.4744034 19.4957008
169.072403 -79.328598 -0.272700012
169.155701 -79.2184982 0.618099988
169.153107 -79.2042999 6.44750023
169.106796 -79.2774963 7.52010012
169.055389 -79.1105957 -0.0947999954
169.045959 -79.0933533 0.706699967
169.045502 -79.1253967 1.14470005
169.1577 -79.0282974 1.35969996
169.062805 -79.0865021 5.35550022
169.150406 -79.1593018 5.91830015
169.133408 -79.0218964 6.97349977
169.011795 -78.9882965 0.813000023
169.109406 -78.9307022 10.5132999
169.125504 -78.7562027 6.59719992
169.174301 -78.7926025 6.76310015
169.036194 -78.5429993 6.63969994
169.114395 -78.060997 7.24630022
169.151703 -78.1233978 10.8325005
169.061401 -78.0893021 11.0314999
169.100006 -77.6458969 3.58069992
169.191406 -77.6893005 3.67379999
169.094498 -77.6302032 3.90229988
169.017395 -77.6091995 4.05730009
169.109802 -77.7161026 5.13439989
169.080307 -77.5830994 4.18739986
169.089905 -77.5146027 4.37330008
169.115295 -77.4626999 6.98769999
169.033798 -77.4585037 7.15189981
169.063004 -77.4123993 19.7241001
169.174393 -77.2324982 6.92560005
169.173294 -76.5944977 8.68589973
169.058594 -76.0138016 4.49849987
169.116806 -75.8968964 7.41750002
169.140106 -75.7171021 2.73609996
169.041107 -75.3405991 3.82209992
169.156097 -75.0976028 6.49590015
169.120804 -75.009697 8.65979958
169.151505 -74.8443985 3.95499992
169.041595 -74.9709015 4.23799992
169.044693 -74.8608017 8.57250023
169.074799 -74.6653976 5.5243001
169.147903 -74.479599 3.45350003
169.185104 -74.5342026 8.21409988
169.160095 -74.3979034 16.3377991
169.055206 -73.0391006 5.13140011
169.243607 -79.9906006 7.65560007
169.342697 -79.6492004 7.08570004
169.261505 -79.7427979 15.0234003
169.275406 -79.6066971 19.2075996
169.2164 -79.4316025 -0.371199995
169.392303 -79.4106979 14.2961998
169.316803 -79.3085022 5.74539995
169.201004 -79.2651978 6.01380014
169.299393 -79.2804031 6.37419987
169.395096 -79.1565018 5.5618
169.284302 -79.0309982 6.74760008
169.317963 -79.1265488 21.3424988
169.277802 -78.8792038 9.48729992
169.308701 -78.3330002 7.14050007
169.303604 -78.1703033 4.39779997
169.244293 -78.0831985 4.48010015
169.330505 -77.8554993 4.36030006
169.328094 -77.8125992 4.6244998
169.354507 -77.6699982 3.46370006
169.235504 -77.6565018 3.72309995
169.3246 -77.7029037 4.52139997
169.314697 -77.7357025 4.69430017
169.315308 -77.3777008 6.7809
169.209 -77.191803 8.17599964
169.252701 -77.0699997 19.8111
169.285095 -77.1474991 20.3381004
169.219498 -76.9843979 6.00699997
169.266998 -76.9079971 8.0326004
169.269104 -76.6274033 8.77840042
169.380707 -75.0350037 5.99350023
169.250702 -75.0755997 6.18270016
169.264404 -75.0772018 8.23970032
169.275101 -74.9992981 6.16330004
169.259094 -74.6430969 2.69829988
169.238998 -74.7106018 2.93610001
169.337448 -74.7517014 3.33545017
169.214493 -74.7443008 3.74710011
169.316605 -74.6744995 8.14649963
169.356598 -74.7993011 8.29389954
169.204803 -74.7761993 10.6155005
169.212006 -74.4617004 3.03579998
169.211502 -74.305397 4.39900017
169.290894 -74.3669968 7.5078001
169.228607 -74.3990021 7.66289997
169.222504 -73.2089005 9.51119995
169.309799 -70.6902008 9.24110031
169.511307 -79.6651001 4.08820009
169.569305 -79.7014999 6.27899981
169.513794 -79.7593994 15.4039001
169.540695 -79.5511017 5.44850016
169.535294 -79.2040024 5.86940002
169.582993 -79.3198013 21.1156006
169.567596 -78.6362991 9.31680012
169.435104 -78.7250977 10.5310001
169.493607 -78.3047028 4.46099997
169.470993 -78.1455994 0.758400023
169.559998 -78.117897 4.28730011
169.580994 -78.0330963 5.40100002
169.595901 -77.8154984 0.811200023
169.486603 -77.8837967 4.05240011
169.517899 -77.9104004 4.2276001
169.545502 -77.941597 5.15939999
169.451508 -77.9046021 5.4289999
169.4552 -77.9072037 5.68790007
169.533707 -77.6654968 0.73150003
169.564804 -77.6899033 3.56349993
169.511703 -77.7429962 3.6479001
169.539902 -77.5737 -0.438600004
169.485107 -77.5019989 -0.315800011
169.499802 -77.5406036 3.38680005
169.554092 -77.0330963 5.73250008
169.449203 -76.1404037 6.74469995
169.490601 -76.1628036 7.84509993
169.509949 -75.0362015 6.14650011
169.596207 -74.450798 7.56110001
169.444397 -74.5892029 8.11569977
169.570099 -74.3703003 2.00430012
169.47934 -73.4794998 4.15070009
169.549194 -73.0916977 3.1479001
169.402893 -73.1407013 3.61730003
169.758698 -79.8909988 6.10430002
169.606293 -79.6789017 3.89459991
169.657104 -79.6477966 6.02019978
169.625 -79.7307968 6.23920012
169.603302 -79.697197 8.64690018
169.773193 -79.6514969 16.5323009
169.757797 -79.5412979 16.4029999
169.679001 -79.2891998 7.0703001
169.611206 -79.1169968 5.37680006
169.7267 -79.1615982 5.49350023
169.665802 -78.2033005 3.9835999
169.613998 -78.210701 4.24840021
169.741592 -78.281601 10.6592999
169.697693 -78.1761017 5.12839985
169.681503 -77.9097977 0.958299994
169.696991 -77.8152008 3.66230011
169.604996 -77.8468018 5.0868001
169.686996 -77.9504013 5.42309999
169.7314 -77.6486969 0.388700008
169.787506 -77.655098 1.2938
169.703293 -77.5126038 1.20239997
169.792496 -76.7124023 3.38210011
169.667694 -75.376297 6.23929977
169.697205 -74.9861984 5.95300007
169.760498 -74.9297028 8.71500015
169.742996 -74.9581985 8.98149967
169.617599 -74.6681976 8.23840046
169.682602 -74.490097 7.6875
169.685501 -74.3167038 6.71290016
169.643097 -74.1667023 6.83620024
169.621201 -73.4965973 4.02409983
169.960297 -79.8687973 3.5157001
169.823196 -79.9106979 3.85770011
169.994797 -79.8566971 5.87400007
169.946899 -79.7805023 16.4601994
169.954895 -79.4789963 3.27659988
169.901794 -79.5964966 5.76539993
169.803802 -79.2708969 7.09910011
169.811493 -79.3760986 7.23789978
169.970505 -79.0888977 -0.0131000001
169.990295 -79.0689011 0.0843999982
169.910995 -78.7550964 0.67869997
169.860199 -78.4534988 4.35489988
169.851395 -78.403801 4.48460007
169.834396 -78.459198 4.94729996
169.922897 -78.4553986 5.01140022
169.852493 -78.4007034 5.26849985
169.955307 -78.3406982 0.373800009
169.874405 -78.2991028 3.93510008
169.925003 -78.2927017 4.11584997
169.889999 -78.3787003 4.33669996
169.903137 -78.304245 5.05589962
169.810104 -78.1190033 3.83039999
169.933807 -77.8630981 5.89449978
169.833496 -77.7516022 6.32310009
169.864899 -77.1595993 7.95230007
169.857101 -77.1996002 8.03639984
169.884796 -76.0546036 0.113700002
169.980194 -75.9996033 -0.430799991
169.829605 -75.6419983 4.55009985
169.969299 -75.4589996 3.85489988
169.917206 -75.0709991 9.05200005
169.900406 -70.9263 9.43500042
170.036301 -79.8152008 3.65260005
170.040802 -79.8648987 16.8563995
170.067505 -79.6136017 2.66050005
170.11235 -79.6730957 2.88085008
170.028305 -79.7581024 3.15420008
170.048904 -79.6389999 3.30900002
170.075104 -79.7879028 16.7043991
170.098999 -79.4188004 0.1162
170.075104 -79.5110016 16.2427998
170.024399 -79.2628021 0.0355000012
170.182907 -79.3332977 0.528800011
170.129593 -79.3237991 5.59709978
170.089294 -79.3881989 21.3103008
170.058395 -79.0354004 0.589399993
170.119705 -79.1147003 0.754299998
170.057098 -79.1847992 20.6051998
170.153107 -78.9800034 5.44719982
170.104202 -78.8899994 7.14349985
170.136002 -78.6027985 4.78389978
170.0065 -78.626297 4.83909988
170.050797 -78.6884995 5.91169977
170.183899 -78.4065018 5.62960005
170.093094 -78.4328003 5.83470011
170.044205 -78.3546982 3.73559999
170.044907 -78.0130997 5.52489996
170.145599 -76.6809998 2.08999991
170.118896 -76.6578979 2.31960011
170.061203 -76.6377029 2.99690008
170.166702 -76.2581024 6.24370003
170.135193 -75.9882965 6.40229988
170.025101 -74.4301987 9.68200016
170.050797 -74.2231979 9.23690033
170.088593 -72.9826965 2.31030011
170.013397 -72.9505005 2.47440004
170.034195 -72.8674011 3.21429992
170.158005 -72.9625015 3.45379996
170.117996 -72.7886963 6.77479982
170.274399 -79.8743973 2.7355001
170.393402 -79.9095001 18.1483994
170.379501 -79.6595001 0.410600007
170.220596 -79.5223999 0.313699991
170.3302 -79.4470978 0.729449987
170.264603 -79.3599014 0.692550004
170.226105 -79.3656006 4.01350021
170.201096 -79.0888977 -0.388500005
170.256607 -79.1406021 0.0166999996
170.338699 -78.9889984 4.96969986
170.226898 -78.433197 5.30179977
170.336105 -77.5968018 20.3458004
170.392502 -76.9263 2.06360006
170.300095 -76.9217987 2.36999989
170.235199 -76.8097992 2.88840008
170.24176 -76.7224503 2.30080009
170.312714 -76.7217484 3.12884998
170.231506 -76.607399 4.3276
170.337097 -75.5886993 6.5467
170.292297 -73.0479965 2.94210005
170.350906 -71.8367996 8.71899986
170.520203 -79.822403 3.96460009
170.407303 -79.6520996 0.771200001
170.432404 -79.7845001 3.41499996
170.467194 -79.7257996 3.98440003
170.569199 -79.7752991 4.01929998
170.529205 -79.5411987 0.321350008
170.574402 -79.4047012 5.40189981
170.441193 -79.4126968 10.7782001
170.4702 -79.5307007 10.8865004
170.453094 -79.1530991 5.1729002
170.429596 -79.0360031 20.5865993
170.526001 -77.4694977 1.06550002
170.539597 -77.3318024 1.55789995
170.5233 -76.7030029 2.95379996
170.4142 -76.638298 3.26090002
170.5952 -71.4732971 7.42469978
170.403 -70.825798 8.67459965
170.651596 -79.8669968 2.32200003
170.675507 -79.9302979 2.74259996
170.630096 -79.8076019 3.77830005
170.790207 -79.6443024 2.99839997
170.725693 -79.6070023 3.04489994
170.670105 -79.6362991 3.6263001
170.699997 -79.7693024 6.26009989
170.682404 -79.6106033 6.69189978
170.693695 -79.5828018 0.4648
170.657501 -79.4750977 3.25755
170.799301 -79.5000992 3.40100002
170.647598 -77.4431 1.44019997
170.795593 -77.3731995 -0.138699993
170.657501 -77.2669983 1.19149995
170.654694 -77.3189011 1.25129998
170.653503 -77.3075027 1.61969995
170.729507 -75.4884033 6.6086998
170.743607 -71.8873978 9.66889954
170.787994 -71.1843033 8.20720005
170.938004 -79.8237 3.72589993
170.825394 -79.7248993 6.19610023
170.806198 -79.444603 3.27620006
170.803604 -79.5110016 4.22949982
170.905396 -79.5289001 21.1619492
170.824493 -79.1826019 0.680199981
170.944702 -77.8100967 1.72280002
170.925293 -77.7748489 1.3506
170.862305 -77.6292038 1.78219998
170.940201 -77.6533966 1.81279993
170.990707 -77.5695038 1.22969997
170.990707 -77.4562988 3.07949996
170.952606 -77.3703003 0.589999974
170.812103 -77.2935028 1.31369996
170.916107 -77.0045013 1.74039996
170.813599 -76.8321991 1.73409998
170.932602 -76.7567978 3.84870005
170.912201 -76.5569 4.42719984
170.979095 -76.4944992 5.59940004
170.906204 -76.468399 6.00610018
170.953598 -76.3937988 4.69490004
170.845596 -76.2800446 6.24820042
170.900894 -75.952301 6.63999987
170.9561 -72.7397003 12.467
170.868301 -72.231102 12.0586004
170.914703 -71.7356033 9.09539986
170.933701 -71.5550995 8.8192997
170.864105 -71.3728027 7.36070013
170.928604 -70.8587036 8.74139977
171.059204 -79.6078033 4.19659996
171.177597 -79.5184021 4.02640009
171.156601 -79.3093033 0.790499985
171.194794 -78.6624985 0.803200006
171.065338 -77.9546509 1.31155002
171.109802 -77.8094025 1.52180004
171.011795 -77.7718964 1.39289999
171.152206 -77.6175995 3.4598
171.179901 -77.4391022 1.09640002
171.104507 -77.5878983 1.62109995
171.114899 -77.4244995 3.23469996
171.121094 -77.3824997 0.92869997
171.186203 -76.9217987 3.96440005
171.127304 -76.2345963 4.39779997
171.011307 -75.9417038 -0.000899999985
171.061401 -75.7575989 6.72940016
171.045593 -75.7496033 6.85470009
171.178802 -71.2235031 7.43179989
171.099594 -70.9632034 8.50020027
171.305206 -79.8386002 2.96379995
171.384995 -79.9885025 3.03180003
171.251801 -79.9319 4.22919989
171.252396 -79.9001007 20.9130001
171.330795 -79.5650024 3.99569988
171.226501 -79.3536987 0.816500008
171.231506 -79.1789017 0.153899997
171.345901 -79.1641998 0.900300026
171.250198 -78.7894974 1.13479996
171.382797 -77.8980026 2.75259995
171.3358 -77.8667984 2.87420011
171.2845 -77.8872986 3.11509991
171.2957 -77.8134995 3.41140008
171.226105 -77.6271973 1.16149998
171.243393 -77.7410965 1.36039996
171.380493 -77.6997986 1.4102
171.382904 -77.6432037 1.67980003
171.335541 -77.6509705 2.69016671
171.306396 -77.7036972 2.8210001
171.380997 -77.3750992 1.99450004
171.308502 -77.1653976 1.83449996
171.352295 -76.961998 1.88399994
171.259705 -75.8388977 6.73140001
171.365707 -75.5294037 0.33070001
171.493301 -79.7425995 2.73230004
171.494843 -79.4380951 0.697799981
171.430801 -78.9123993 1.03439999
171.435699 -78.8591003 1.31099999
171.521851 -77.8618469 2.49534988
171.529358 -77.8842468 3.82200003
171.453506 -77.652298 1.66729999
171.4104 -77.6135025 2.06599998
171.529099 -77.4240036 1.13810003
171.509201 -77.5304031 1.6875
171.445206 -77.4828033 2.12730002
171.513306 -77.3198013 1.91149998
171.428604 -76.9404984 4.89219999
171.465149 -76.2916565 3.32669997
171.482895 -76.0534973 0.103
171.5867 -74.3310013 1.43480003
171.526398 -74.0975037 8.58069992
171.540207 -72.6977997 7.76760006
171.544006 -71.9623032 7.03679991
171.438797 -71.3462982 8.93789959
171.474503 -70.1521988 10.7855997
171.630493 -79.7894974 0.978699982
171.7005 -79.3528519 0.931349993
171.685242 -79.3104477 1.05314994
171.723801 -79.0083008 -0.280299991
171.657303 -79.014801 0.468699992
171.669495 -79.1435013 1.01419997
171.697006 -77.8228989 1.41489995
171.706604 -77.8788986 2.09910011
171.656097 -77.8690033 2.45280004
171.750305 -77.7322006 1.39979994
171.682068 -77.7601471 2.12335014
171.668396 -77.4581985 1.90170002
171.764206 -76.8432007 4.41340017
171.784149 -76.5456543 3.02174997
171.781494 -76.5398026 3.48280001
171.634201 -76.3105011 3.09750009
171.686295 -74.2743988 1.49989998
171.727997 -74.1029968 6.90040016
171.648605 -73.6666031 1.90540004
171.684906 -73.0670013 7.32079983
171.707993 -71.5062027 9.68910027
171.973099 -79.8007965 0.328000009
171.905502 -79.6380997 0.367599994
171.937103 -79.6003036 0.548500001
171.807693 -79.7743988 1.12829995
171.930954 -79.4769516 0.341350019
171.832001 -79.2184982 0.129800007
171.925797 -79.1352997 0.489499986
171.873001 -78.8066025 6.28730011
171.801605 -77.9279022 2.02600002
171.916595 -77.8992996 2.77710009
171.971207 -77.9358978 3.40330005
171.903107 -77.9925003 3.69709992
171.878799 -77.6231995 1.87650001
171.965607 -77.6894989 2.58909988
171.882095 -76.5904007 2.94120002
171.897705 -76.5707016 3.10549998
171.872101 -71.5121002 9.11880016
172.017105 -79.3692017 2.58419991
172.085907 -78.0494003 2.51029992
172.130096 -76.6080017 3.05349994
172.026306 -76.6996002 4.29409981
172.016403 -75.7514038 16.2418003
172.009094 -70.9609985 7.35489988
172.202194 -79.4606018 2.24920011
172.263901 -79.3077011 1.88979995
172.311905 -79.3434448 2.02719998
172.323502 -77.2807007 1.08949995
172.358704 -76.8152008 0.842199981
172.224304 -76.6744003 0.988099992
172.361099 -73.4785995 7.89940023
172.343597 -72.9841003 7.67040014
172.332397 -72.8602982 8.61489964
172.5811 -79.9521027 4.45959997
172.585403 -79.735199 3.00029993
172.4608 -79.4517975 1.84140003
172.530548 -79.4571991 2.10430002
172.571106 -79.3776016 2.37150002
172.585007 -79.1600037 1.82309997
172.530502 -78.950798 1.76989996
172.539597 -78.572403 2.31389999
172.467606 -78.5932999 2.62050009
172.543503 -68.8177032 7.3743
172.440308 -68.763298 7.57490015
172.65799 -79.8765564 2.76100016
172.744904 -79.9819031 4.02409983
172.6492 -79.8749008 4.28989983
172.625 -79.7466965 4.18909979
172.787994 -79.526001 2.01939988
172.621994 -79.430397 2.23830009
172.720306 -79.5066986 2.49099994
172.7211 -79.3802032 2.17989993
172.744705 -79.3666992 2.70849991
172.6586 -79.0152969 1.60529995
172.768707 -77.9120026 2.33030009
172.680099 -77.6729965 2.25640011
172.720306 -70.8190994 10.9958
172.6418 -70.5449982 11.4983997
172.971405 -79.9107971 1.86689997
172.873856 -79.9150009 2.0710001
172.966995 -79.706398 1.6652
172.881897 -79.6259995 1.89339995
172.840454 -79.5290527 1.93515003
172.816299 -79.5362549 2.12860012
172.924301 -79.5077972 2.30920005
172.936295 -79.3041 1.99370003
172.823593 -79.0654984 1.4842
172.885193 -77.9095993 2.29209995
172.843307 -70.9804993 11.7376003
173.005707 -79.8509979 2.23880005
173.080795 -79.7412033 2.07489991
173.140106 -79.4834976 2.45799994
173.189102 -79.1662979 4.65280008
173.052597 -78.4813004 2.02929997
173.027298 -78.2340012 2.3434999
173.154495 -78.0541992 3.50839996
173.11264 -77.9006042 2.78674984
173.001205 -77.8087997 12.1497002
173.028793 -77.3110962 11.8955002
173.033798 -75.8151016 1.7148
173.383698 -79.8097992 4.36539984
173.367599 -79.7197037 2.15540004
173.200897 -79.4524994 -0.220200002
173.386902 -78.7121964 4.43260002
173.210403 -78.0646973 11.2348003
173.206299 -73.8386002 13.1618996
173.536407 -79.9244003 5.33279991
173.593796 -75.4197006 1.33790004
173.693802 -79.8455963 1.17939997
173.651398 -79.6984024 4.21280003
173.742798 -78.7012024 1.09169996
173.783905 -78.5830002 0.00769999996
173.641602 -78.3607025 5.36789989
173.924194 -79.8892365 1.28253329
173.8414 -79.879097 3.96639991
173.838501 -79.7891998 1.92789996
173.890198 -75.4260025 1.83039999
174.106293 -79.9395447 1.7428
174.020004 -79.9364014 2.25119996
174.133408 -77.4309006 -0.26789999
174.217102 -75.949501 1.21239996
174.397705 -75.4085007 2.10240006
174.390396 -75.2235031 1.61880004
174.599197 -75.0842972 1.76989996
174.559097 -75.0166016 1.99940002
174.747498 -79.9561996 -0.311500013
174.642502 -75.7440033 1.53550005
174.705353 -75.5086975 1.89454997
174.72876 -75.2798462 2.13014984
174.623993 -75.1855011 1.63469994
175.118805 -79.6490021 -0.0458000004
175.079498 -79.3808975 1.92690003
175.007706 -79.1672974 2.02620006
175.170197 -77.060997 1.28680003
175.097702 -75.5634003 2.16779995
175.563004 -75.903801 2.33739996
175.723907 -75.4235992 1.69169998
175.759003 -75.0382004 1.47839999
175.901596 -77.4934998 1.17910004
175.856705 -75.1388016 3.16470003
176.018799 -75.7118988 1.7421
176.462097 -79.4993973 4.3368001
176.477707 -79.4133987 4.68620014
176.417297 -79.3330002 -0.0768999979
176.7229 -77.1616974 0.870299995
176.739304 -77.0622025 1.48109996
176.613297 -74.9592972 1.58229995
176.991104 -79.9341965 4.55620003
176.936707 -79.4412003 4.45590019
176.861603 -71.5986023 0.198200002
177.113403 -79.6810989 0.291099995
177.098099 -77.0670013 1.46490002
177.095398 -75.7098007 1.67630005
177.581406 -79.0070038 0.0566000007
177.582001 -79.1546021 0.758599997
177.478394 -78.9856033 1.45000005
177.4729 -78.887001 8.74800014
177.402298 -78.7768021 0.435200006
177.650406 -79.3305969 0.618600011
177.772202 -79.3238983 1.35350001
177.716507 -79.232399 1.52690005
177.798599 -79.2893982 1.81099999
177.669601 -79.1853027 1.18420005
177.677094 -79.1903 1.57969999
177.716751 -79.0906525 1.93950009
177.742493 -79.0338974 2.30570006
177.740204 -79.0835037 2.49749994
177.620697 -78.895401 1.77199996
177.642502 -78.9513016 1.91970003
177.701797 -78.8628006 2.74000001
177.627106 -78.7494965 2.13980007
177.755905 -77.2558975 8.44460011
177.963699 -79.3532028 1.17250001
177.891541 -79.3144989 1.69985008
177.867706 -79.2761993 2.20709991
177.901001 -79.2018967 2.7105
177.848602 -79.1829987 2.53920007
177.940704 -79.1681976 3.21169996
177.997299 -76.6191025 1.30330002
177.931793 -75.389801 1.73590004
178.028 -79.2991028 1.52409995
178.017807 -79.3043976 1.61319995
178.084198 -79.2214966 2.39890003
178.101593 -77.1214981 1.06449997
178.188599 -77.1940002 1.48599994
178.024506 -76.9806976 1.06029999
178.099899 -76.9450989 1.44790006
178.169296 -75.5279999 1.85309994
178.328293 -79.9770966 2.95359993
178.264694 -79.2081985 1.81939995
178.384003 -79.1771011 2.69970012
178.278305 -77.5134964 5.57620001
178.217102 -77.186203 1.255
178.284195 -76.0587997 1.40550005
178.313202 -75.4628983 1.8556
178.423706 -79.930603 3.45530009
178.439606 -79.7268982 3.6006999
178.448303 -79.2072983 2.75320005
178.406403 -77.2412033 0.887799978
178.410095 -77.3515015 1.42719996
178.446701 -77.2473984 1.71080005
178.412292 -76.6800995 2.73639989
178.426895 -76.1453018 1.68529999
178.426102 -75.9450989 3.71630001
178.789993 -79.3967972 2.7019999
178.645203 -77.5033035 1.51929998
178.786697 -77.2934036 1.65939999
178.618103 -76.3340988 16.9181004
178.742004 -75.8988037 3.75690007
178.812302 -79.8060989 3.69829988
178.875107 -76.473999 15.0862999
179.127899 -79.924202 4.1395998
179.055801 -79.6125031 2.59190011
179.095001 -79.6520004 18.7562008
179.033005 -79.1808014 2.0086
179.315903 -79.7434998 2.62590003
179.552002 -79.870697 0.758400023
179.452606 -79.9026031 2.22480011
179.551804 -79.1455994 2.31620002
179.577499 -78.9759979 0.437999994
179.5672 -78.6797028 0.512399971
179.651001 -79.8182983 0.98119998
179.614197 -79.9489975 1.04750001
179.726303 -79.9877014 1.2198
179.709503 -79.8985977 1.43200004
179.792603 -79.6706009 0.591899991
179.749802 -79.6836014 1.29760003
179.730804 -79.5323944 0.159700006
179.671204 -79.5903015 0.4005
179.753906 -79.5574036 0.737200022
179.673706 -79.538002 1.12349999
179.725693 -79.3376999 0.979600012
179.613297 -79.2749023 1.12979996
179.71759 -79.1157532 0.676050007
179.700699 -79.0754547 0.88380003
179.796707 -79.0486984 1.14380002
179.707397 -79.0811996 1.26479995
179.651505 -79.1934967 2.45889997
179.774704 -78.800499 1.01429999
179.728302 -78.8826981 1.68079996
179.739395 -78.7617035 0.169
179.682098 -78.6169968 1.27049994
179.784607 -78.2966995 0.8125
179.635193 -78.3852997 1.05340004
179.739899 -78.2695999 1.28849995
179.631393 -78.0787964 0.83130002
179.798798 -78.0575027 1.42069995
179.629196 -74.9732971 -0.0489000008
179.857697 -79.8360977 0.818000019
179.858398 -79.4754028 0.645500004
179.968201 -79.3162003 0.981400013
179.987793 -79.1020966 0.542999983
179.945694 -78.9436035 0.787999988
179.828796 -78.5450974 0.817900002
