# .PCD v0.7 - Point Cloud Data file format
VERSION 0.7
FIELDS x y z
SIZE 4 4 4
TYPE F F F
COUNT 1 1 1
WIDTH 36
HEIGHT 1
VIEWPOINT 0 0 0 1 0 0 0
POINTS 36
DATA ascii
0.683899999 -48.5948982 1.37969995
0.69145 -48.5316467 1.57659996
0.74150002 -48.2986984 1.28869998
3.49850011 -40.7667999 5.78389978
7.20730019 -40.645401 6.65100002
14.3000002 -42.5471001 5.92729998
14.3135004 -42.4082985 10.5468998
14.2309999 -42.2514 9.19789982
14.3615999 -42.2636986 11.0366001
14.3655996 -42.1736984 10.8332005
14.4343996 -42.2983017 11.5551996
14.4097004 -42.1764984 6.2434001
17.8715992 -42.4637985 5.95830011
17.8001003 -42.4864998 9.26039982
17.8857994 -42.4394989 9.67469978
17.9230995 -42.3468018 5.27629995
17.9731007 -42.3030014 6.87860012
17.8794003 -42.2961998 7.2354002
17.9673004 -42.2546005 9.9762001
17.9867992 -42.1817017 9.96619987
18.0032005 -42.2313995 7.09499979
18.0072002 -42.3879013 9.86240005
18.4407005 -51.3853989 2.67619991
18.4887009 -50.7601013 2.10479999
18.9417992 -50.3469009 1.89719999
19.6299992 -50.0597992 1.04770005
19.7386494 -50.0118484 1.32360005
19.6168995 -49.7042999 1.60160005
19.8530998 -51.4094009 3.30279994
19.9235001 -51.3978996 3.51530004
19.9668999 -51.3133011 3.6394999
19.9016991 -51.0038986 2.78970003
19.8143997 -51.1697998 3.19630003
19.8826008 -51.1015015 3.32590008
19.9169006 -49.9006996 1.63209999
19.8395996 -49.5718002 0.892499983
