# .PCD v0.7 - Point Cloud Data file format
VERSION 0.7
FIELDS x y z
SIZE 4 4 4
TYPE F F F
COUNT 1 1 1
WIDTH 2158
HEIGHT 1
VIEWPOINT 0 0 0 1 0 0 0
POINTS 2158
DATA ascii
280.164398 -335.088196 13.7150993
280.181793 -335.067413 13.9980001
280.131989 -334.929596 13.4833002
280.1763 -334.91571 14.1351004
280.109589 -334.740692 12.7994003
280.101898 -334.798615 13.2769003
280.191986 -334.599701 10.0213003
280.173492 -334.51181 12.1285
280.134308 -334.562714 12.4029999
280.059906 -334.54129 13.3327999
280.040802 -334.521912 13.4483995
280.12149 -334.572998 14.1026001
280.123108 -334.346802 9.87020016
280.069 -334.39859 10.5831003
280.175415 -334.254913 11.9483995
280.03479 -334.203308 12.8773003
280.02951 -334.237213 13.1744003
280.087891 -334.348511 13.2025003
280.027588 -334.219391 13.7591
280.112823 -334.085297 9.78143311
280.083313 -334.079895 10.0649004
280.155487 -334.157501 10.2157001
280.127502 -334.151794 10.5040998
280.086365 -334.060547 10.7542992
280.137695 -334.033508 12.2285004
280.113403 -334.019196 12.4345999
280.044617 -334.023438 13.6408997
280.121094 -334.153015 14.1596003
280.124298 -334.104309 14.2854996
280.178589 -333.856689 6.08059978
280.172699 -333.853302 7.18160009
280.189301 -333.800507 11.8205996
280.074585 -333.934509 13.6806002
280.158813 -333.823395 14.2318001
280.117493 -333.827209 14.4208002
280.123291 -333.835114 14.6008997
280.191498 -333.688599 6.93470001
280.113007 -333.712311 7.19740009
280.120789 -333.685791 8.83909988
280.096161 -333.69574 9.16379929
280.112396 -333.689514 10.1367998
280.190613 -333.691101 11.1205997
280.172607 -333.649811 11.4393997
280.111603 -333.610199 13.1365995
280.0354 -333.737915 13.5525999
280.072815 -333.604187 14.4604998
280.060699 -333.537994 6.70079994
280.123413 -333.409485 6.9847002
280.13559 -333.521606 9.08279991
280.006592 -333.555603 9.73620033
280.062897 -333.470337 10.2982998
280.011993 -333.408203 10.5299997
280.131226 -333.508759 10.9014997
280.094696 -333.457245 11.2672005
280.168396 -333.422302 11.4696999
280.084473 -333.544891 11.6245995
280.076813 -333.403107 11.8736
280.048401 -333.483002 12.1751003
280.005402 -333.479187 12.3465996
280.12439 -333.406891 12.5697002
280.113892 -333.40509 12.7368002
280.0383 -333.559387 13.1265001
280.081299 -333.584595 13.4371996
280.064545 -333.483948 13.7188492
280.105896 -333.404999 13.9703999
280.161896 -333.334015 2.53670001
280.183197 -333.349396 6.70240021
280.182312 -333.213806 8.77929974
280.015594 -333.2341 8.97990036
280.044739 -333.364929 9.6697998
280.093414 -333.348114 9.89540005
280.154907 -333.279205 10.2566004
280.096893 -333.32431 10.4056997
280.155518 -333.288696 10.7209492
280.082306 -333.334015 10.8430996
280.101501 -333.398895 11.3191996
280.10611 -333.219788 12.3900003
280.02951 -333.246887 12.6275997
280.06781 -333.217285 12.8551998
280.007996 -333.30191 13.3202
280.013702 -333.361115 13.8542995
280.012085 -333.235687 14.0485001
280.03009 -333.368286 14.382
280.001495 -333.348114 14.4673004
280.096802 -333.268402 14.6484003
280.194397 -333.001404 7.22559977
280.137695 -333.139587 7.63549995
280.166809 -333.168304 7.83830023
280.149902 -333.185791 8.23700047
280.183197 -333.033112 8.57540035
280.176239 -333.073547 8.88685036
280.104004 -333.167694 9.21870041
280.134186 -333.061707 9.57089996
280.118195 -333.09549 9.68120003
280.109406 -333.005707 9.82750034
280.083984 -333.110596 10.8301334
280.082611 -333.116486 11.1829004
280.104492 -333.11261 11.3823996
280.036987 -333.012787 11.5923004
280.046692 -333.148895 12.4914999
280.028412 -333.06131 12.6337004
280.017822 -333.114502 14.1506004
280.196014 -333.184601 14.8438997
280.191315 -332.928101 6.78000021
280.153931 -332.816833 6.88084984
280.169037 -332.967133 7.85993338
280.143402 -332.916687 8.58080006
280.171692 -332.874603 8.6892004
280.171387 -332.814789 8.89560032
280.08728 -332.934692 9.46450043
280.183899 -332.994293 9.77840042
280.095001 -332.909393 9.84969997
280.074707 -332.948914 10.2511997
280.08255 -332.852539 10.9184999
280.050293 -332.926605 11.0395002
280.105011 -332.989899 11.8327999
280.034302 -332.991791 12.4104996
280.041321 -332.963074 13.5496006
280.008514 -332.946411 13.9295998
280.083405 -332.977112 14.3927002
280.194489 -332.759705 6.28929996
280.114594 -332.661285 7.39359999
280.101654 -332.721436 7.68429995
280.089691 -332.717529 7.9626503
280.023407 -332.679413 8.11390018
280.118195 -332.798889 8.2816
280.067108 -332.677612 8.80070019
280.043304 -332.67569 9.18599987
280.126587 -332.720703 9.23550034
280.055908 -332.673401 9.50650024
280.070496 -332.695099 9.84430027
280.036224 -332.63446 10.5132999
280.042694 -332.758698 10.9898996
280.02121 -332.66449 11.0475998
280.037994 -332.729492 11.2196999
280.056305 -332.600891 11.4959002
280.185669 -332.512299 3.94140005
280.155884 -332.535736 6.51469994
280.137512 -332.457794 6.7480998
280.120087 -332.496399 7.14610004
280.175415 -332.426697 7.39160013
280.080353 -332.461853 7.69250011
280.088623 -332.550659 7.87435007
280.120209 -332.506805 8.18330002
280.101288 -332.465698 8.37590027
280.079773 -332.457092 8.62605
280.044006 -332.444794 8.91049957
280.039795 -332.513092 9.06750011
280.032715 -332.556396 9.98110008
280.066406 -332.498413 10.1906004
280.001099 -332.442291 10.9538002
280.009796 -332.473907 11.1622
280.036011 -332.410095 11.8183002
280.199585 -332.271698 3.73180008
280.161987 -332.248596 4.15159988
280.198792 -332.249603 4.36170006
280.153015 -332.210114 5.65259981
280.150909 -332.211914 5.97310019
280.126495 -332.329041 6.0451498
280.091888 -332.296997 6.2189002
280.151398 -332.218414 6.53609991
280.117065 -332.331696 6.96644974
280.153015 -332.38681 7.50689983
280.057312 -332.230896 7.64309978
280.166687 -332.392609 7.94189978
280.099854 -332.292511 8.09943295
280.015198 -332.389313 8.39570045
280.0448 -332.391296 8.70689964
280.111298 -332.204498 8.86279964
280.046021 -332.282593 9.30924988
280.024689 -332.335907 9.89659977
280.162415 -332.029388 2.36560011
280.186798 -332.100006 3.12520003
280.169312 -332.063995 3.54699993
280.179688 -332.180206 4.13759995
280.052185 -332.075989 5.28350019
280.108887 -332.071045 5.54384995
280.1716 -332.142487 5.60449982
280.097107 -332.110596 5.92040014
280.070892 -332.103485 6.7203002
280.094482 -332.11499 7.08249998
280.013855 -332.12323 7.4698
280.068848 -332.111694 7.70168018
280.009094 -332.014709 8.82680035
280.037506 -332.01709 9.64350033
280.027588 -332.028687 12.8565998
280.177551 -331.931854 2.68653345
280.198059 -331.853943 3.15114999
280.178192 -331.832397 3.54200006
280.109589 -331.858795 4.64219999
280.140594 -331.958801 5.12084961
280.080414 -331.898712 6.36009979
280.067688 -331.948486 6.55109978
280.075195 -331.932587 6.93419981
280.05481 -331.945282 7.48403358
280.068787 -331.964996 9.20189953
280.194092 -331.66629 1.24310005
280.187714 -331.665314 1.69889998
280.170807 -331.751709 1.98500001
280.154114 -331.790497 2.33820009
280.192261 -331.64209 2.68700004
280.155304 -331.719513 2.91720009
280.13089 -331.762695 3.28559995
280.102783 -331.699158 4.2658
280.075287 -331.73999 4.44700003
280.06369 -331.600586 4.95639992
280.12851 -331.683899 5.07399988
280.079712 -331.622711 5.54419994
280.051056 -331.757935 5.89209986
280.009827 -331.666809 6.28859997
280.021576 -331.75769 6.44950008
280.016479 -331.66629 7.0571003
280.118164 -331.448792 0.928499997
280.178406 -331.424713 1.04700005
280.13089 -331.536499 1.6171
280.183105 -331.558502 1.91129994
280.127014 -331.595093 2.41729999
280.172699 -331.427094 2.61290002
280.103271 -331.469666 2.88680005
280.068909 -331.416595 3.23790002
280.013214 -331.438202 3.45160007
280.071808 -331.531006 3.71569991
280.083405 -331.561157 3.87654996
280.099792 -331.496796 4.24020004
280.166687 -331.576813 4.40299988
280.085907 -331.483612 4.69390011
280.013062 -331.50824 5.50804996
280.049744 -331.430756 5.71714973
280.026489 -331.41629 6.15950012
280.015686 -331.507385 6.34350014
280.058807 -331.570709 6.5065999
280.017212 -331.536804 6.96820021
280.124512 -331.319305 0.25
280.140808 -331.219299 0.999000013
280.147797 -331.288208 1.12629998
280.155029 -331.348267 1.44564998
280.022308 -331.234192 2.10809994
280.00769 -331.203186 2.97469997
280.061493 -331.338074 3.10264993
280.028595 -331.308014 3.88779998
280.029694 -331.20871 4.60979986
280.077606 -331.197998 0.654200017
280.038696 -331.135101 1.29369998
280.147614 -331.157196 1.61909997
280.090942 -331.059692 2.10473347
280.003998 -331.007385 2.45630002
280.045288 -331.129608 4.55579996
280.164215 -330.900208 -1.79830003
280.066895 -330.900299 1.20290005
280.103607 -330.920105 1.49965
280.070862 -330.938538 1.68999994
280.061401 -330.865173 1.85949993
280.047394 -330.685791 1.38740003
280.052795 -330.711609 1.46942496
280.009094 -330.641998 1.71239996
280.05719 -330.778503 2.06290007
280.036987 -330.460999 1.66170001
280.066803 -330.332001 1.49849999
280.038147 -328.736694 3.07455015
280.165497 -325.796906 -1.45539999
280.0802 -321.615601 -1.39349997
280.253387 -335.652191 12.7384996
280.389008 -335.755493 14.2756004
280.32489 -335.423615 13.3646002
280.383301 -335.406403 13.8986998
280.385712 -335.324188 11.8683996
280.325989 -335.255707 12.4144001
280.320709 -335.273895 12.9390001
280.344604 -335.212585 13.5861998
280.337494 -335.285004 13.7275
280.387787 -335.358795 14.0015001
280.326111 -335.039703 9.58950043
280.312988 -335.119995 9.95680046
280.244202 -335.0513 10.4596004
280.216888 -335.154907 13.1843004
280.321289 -335.081512 14.1863003
280.324768 -335.168396 14.2776499
280.266296 -334.82431 6.52780008
280.298401 -334.973999 7.1388998
280.366089 -334.880005 9.05780029
280.261597 -334.909698 9.48919964
280.210114 -334.895294 9.68550014
280.243103 -334.911285 10.0263004
280.273438 -334.848907 10.3411007
280.323608 -334.899811 11.3648996
280.393585 -334.968994 11.6583996
280.242493 -334.98999 13.4862003
280.217712 -334.885986 14.2004004
280.349792 -334.850311 14.7468004
280.364624 -334.691589 6.87919998
280.233795 -334.793701 9.41629982
280.21991 -334.732605 10.1691999
280.278687 -334.674713 10.6575003
280.366699 -334.693909 12.2048998
280.349213 -334.429199 5.63019991
280.393799 -334.556396 6.10620022
280.335388 -334.56189 6.93380022
280.373993 -334.419708 7.46999979
280.366699 -334.456696 8.68889999
280.39621 -334.477295 8.8512001
280.224487 -334.502808 9.89039993
280.294586 -334.597687 10.9730997
280.306915 -334.535065 11.0440998
280.21701 -334.592102 14.3125
280.368713 -334.282806 3.69350004
280.37381 -334.359192 5.94750023
280.266693 -334.235291 6.04099989
280.291595 -334.224487 7.18130016
280.305389 -334.216003 7.39179993
280.345215 -334.202087 7.48699999
280.396301 -334.354309 7.98890018
280.368713 -334.238708 8.05959988
280.359894 -334.297607 8.89480019
280.214905 -334.230286 10.7742004
280.39389 -334.385803 11.1660995
280.219513 -334.317902 11.3951998
280.24411 -334.369995 11.7986002
280.312714 -334.213593 14.7434998
280.38089 -334.13681 3.71810007
280.368805 -334.176392 3.80220008
280.380798 -334.041504 5.29110003
280.377808 -334.076691 5.70289993
280.275299 -334.051208 6.06990004
280.301697 -334.191986 7.3354001
280.335114 -334.169312 7.54559994
280.312408 -334.012207 7.67600012
280.384186 -334.1008 7.94180012
280.36731 -334.153107 8.12849998
280.314087 -334.099548 9.04509926
280.261505 -334.15329 9.37919998
280.344391 -334.093109 11.3853998
280.276794 -334.08139 11.5670004
280.337006 -334.122986 12.1914997
280.262451 -334.076752 14.6661501
280.384491 -333.876404 2.31550002
280.292114 -333.955292 3.28679991
280.343109 -333.942688 3.52900004
280.362457 -333.894135 3.6655333
280.34671 -333.864197 3.86599994
280.373657 -333.811401 4.08755016
280.33609 -333.928711 4.32070017
280.314301 -333.922211 5.62160015
280.320007 -333.938293 5.87074995
280.289917 -333.869202 6.03644991
280.243591 -333.885712 7.59130001
280.327393 -333.856445 7.68984985
280.363251 -333.833893 7.88590002
280.34375 -333.900787 8.10354996
280.361115 -333.974304 8.37390041
280.303497 -333.967102 8.75870037
280.343689 -333.858398 8.90485001
280.219513 -333.848114 11.335
280.387695 -333.882385 11.6304998
280.341309 -333.883789 12.0612001
280.224609 -333.862305 14.4769001
280.3974 -333.682587 2.39630008
280.259491 -333.647797 2.75169992
280.26416 -333.644897 3.33045006
280.362152 -333.68042 4.31194973
280.384186 -333.628815 4.82439995
280.335815 -333.689056 5.54250002
280.274597 -333.743011 5.80509996
280.236389 -333.75 6.77780008
280.223114 -333.680695 6.99090004
280.366089 -333.74939 7.58459997
280.306 -333.698486 8.1310997
280.236298 -333.703491 11.3231001
280.384399 -333.769501 14.7740002
280.398285 -333.511688 -0.976100028
280.288452 -333.449829 2.74796653
280.314911 -333.50119 3.10310006
280.252808 -333.423889 3.45230007
280.292908 -333.505615 4.09240007
280.377686 -333.480286 4.58760023
280.385712 -333.5755 5.0310998
280.355164 -333.498047 5.28055
280.223206 -333.479187 7.15420008
280.261688 -333.508789 7.73400021
280.352905 -333.524109 8.1480999
280.315186 -333.59549 8.26959991
280.262909 -333.510803 8.50570011
280.297485 -333.431702 8.86909962
280.272003 -333.439911 11.2608995
280.207306 -333.531097 11.5487003
280.218506 -333.454102 11.8345003
280.379486 -333.202911 2.00869989
280.346191 -333.311188 2.39409995
280.287689 -333.246399 2.40300012
280.35849 -333.292908 2.8670001
280.306488 -333.266815 3.91529989
280.228394 -333.345306 4.09019995
280.280701 -333.28299 4.38409996
280.365906 -333.243286 4.71820021
280.316315 -333.213898 4.81120014
280.357605 -333.314301 5.35474968
280.357086 -333.273499 5.56529999
280.318207 -333.253296 5.62169981
280.205414 -333.24231 6.36119986
280.274414 -333.231201 6.78100014
280.26059 -333.223602 7.84579992
280.324188 -333.380615 8.9598999
280.224091 -333.269409 9.47889996
280.319214 -333.175812 2.30800009
280.275299 -333.132202 2.9698
280.260132 -333.148071 3.55565
280.383209 -333.170685 3.64580011
280.294128 -333.128479 3.88089991
280.296906 -333.108887 4.34310007
280.35141 -333.025513 4.50699997
280.345703 -333.142609 4.9355998
280.298187 -333.052002 5.22090006
280.275299 -333.007996 5.57910013
280.219696 -333.151794 6.71939993
280.257904 -333.10611 7.04390001
280.213287 -333.078491 7.35519981
280.245819 -333.117523 7.73856688
280.217804 -333.12561 9.10900021
280.295288 -332.885101 1.95109999
280.364594 -332.803711 2.59549999
280.347778 -332.906372 2.75855017
280.365234 -332.843353 3.15110016
280.363098 -332.913391 3.42280006
280.213715 -332.87619 4.09950018
280.296295 -332.866699 4.21509981
280.330811 -332.813385 4.53340006
280.27179 -332.933594 4.74510002
280.309448 -332.866211 5.53994989
280.239014 -332.947571 5.7645998
280.278809 -332.950195 5.91200018
280.257507 -332.915741 6.15476656
280.201691 -332.899506 6.33850002
280.236206 -332.886414 6.50810003
280.297913 -332.82901 6.60909986
280.210693 -332.891205 6.92770004
280.217407 -332.962402 7.08939981
280.391998 -332.650696 1.95850003
280.353912 -332.713104 2.00180006
280.302856 -332.692413 2.71689987
280.321686 -332.603912 2.92129993
280.298096 -332.669495 3.5315001
280.312866 -332.762848 4.64260006
280.253113 -332.781403 5.04449987
280.267212 -332.781616 5.33874989
280.202698 -332.747498 7.22930002
280.305206 -332.527802 2.33800006
280.288055 -332.480194 2.47530007
280.322296 -332.570953 2.92460012
280.266449 -332.473297 3.3260498
280.361786 -332.494507 4.12919998
280.222504 -332.573303 4.52229977
280.220612 -332.544098 4.61630011
280.221008 -332.435211 4.90929985
280.214294 -332.520599 5.70269966
280.288788 -332.450195 5.97340012
280.203186 -332.598206 7.8987999
280.373993 -332.261108 -0.72240001
280.268707 -332.213898 0.0132999998
280.308899 -332.286743 1.24145007
280.308411 -332.24353 1.41194999
280.2388 -332.222412 2.3348999
280.303497 -332.331085 2.5632
280.249908 -332.25531 2.80800009
280.292297 -332.249695 3.11739993
280.266998 -332.389587 3.56389999
280.222687 -332.310303 3.78430009
280.247803 -332.298004 3.98559999
280.256409 -332.359802 4.37029982
280.228394 -332.339294 4.48960018
280.228699 -332.384888 5.34590006
280.37439 -332.082092 -1.16059995
280.304871 -332.133362 1.91534996
280.204315 -332.003387 2.34910011
280.290588 -332.174591 2.48250008
280.211212 -332.147095 2.95689988
280.234406 -332.014801 3.15199995
280.245087 -332.165192 3.22679996
280.234802 -332.03064 3.77075005
280.253601 -332.102295 4.17729998
280.356995 -331.862305 -1.73070002
280.331604 -331.894897 -1.15610003
280.329315 -331.882294 0.232299998
280.26059 -331.882111 0.872699976
280.2276 -331.9104 1.88180006
280.246887 -331.966003 2.07649994
280.218506 -331.944489 2.4454
280.242706 -331.9711 3.06220007
280.326813 -331.765015 -1.52540004
280.275696 -331.620697 -1.01370001
280.212006 -331.660095 1.63339996
280.250488 -331.769287 1.83010006
280.205444 -331.694702 2.85150003
280.234894 -331.435699 -0.747699976
280.204102 -331.452789 1.51279998
280.27951 -331.252502 -1.08290005
280.243805 -325.37561 -1.49880004
280.395691 -324.384003 1.69459999
280.332489 -324.088806 1.77509999
280.337708 -323.954498 1.63559997
280.485504 -337.513397 12.9313002
280.588501 -336.737213 13.6399002
280.484802 -336.489014 13.0831003
280.593597 -336.487213 14.0726995
280.436798 -336.369904 13.7453003
280.441711 -336.09549 11.6325998
280.585999 -336.1633 13.6892004
280.599915 -336.132904 13.8218002
280.499603 -336.052185 14.2802
280.529694 -335.869904 10.0805998
280.558289 -335.880707 10.5930996
280.535004 -335.807495 11.1233997
280.575104 -335.904785 11.49545
280.596802 -335.8638 11.7807999
280.480011 -335.803101 12.3214998
280.542297 -335.969299 13.2230997
280.473541 -335.893646 13.4238501
280.559204 -335.614899 7.52040005
280.588501 -335.696594 8.94620037
280.589691 -335.670807 9.10849953
280.590698 -335.785797 10.3977003
280.536194 -335.739502 10.6238003
280.521606 -335.640686 10.8886995
280.563812 -335.627014 11.2867002
280.545593 -335.731598 11.4524002
280.462006 -335.673309 12.1184998
280.425903 -335.680115 13.6850996
280.438995 -335.708191 14.3348999
280.524597 -335.519806 10.1882
280.533691 -335.416992 10.2880001
280.583893 -335.592804 10.5834999
280.476013 -335.59079 11.2263002
280.544098 -335.423004 11.6583996
280.408813 -335.576599 13.9654999
280.55899 -335.562103 14.3565998
280.433411 -335.41449 14.4639997
280.564087 -335.217896 5.78830004
280.545502 -335.215515 5.95889997
280.583496 -335.344086 7.29209995
280.522614 -335.221893 7.50670004
280.572601 -335.359985 7.98479986
280.548615 -335.354401 8.07979965
280.513611 -335.356293 10.0255003
280.483398 -335.208252 10.9261999
280.484406 -335.392792 11.1594
280.580811 -335.36499 11.2475996
280.47049 -335.312195 12.0560999
280.592194 -335.270691 13.0804996
280.485199 -335.368591 14.4033003
280.59259 -335.056488 3.17840004
280.50589 -335.08371 5.94859982
280.45639 -335.002686 6.1315999
280.53949 -335.081207 6.46029997
280.526947 -335.082397 6.80729961
280.566498 -335.099304 7.26170015
280.507507 -335.148987 7.42990017
280.548737 -335.080963 7.9046998
280.546814 -335.038605 8.3348999
280.524506 -335.146698 8.61489964
280.564392 -335.041595 9.06659985
280.463806 -335.064514 10.9359999
280.463501 -335.10849 11.0657997
280.436737 -335.093018 14.6691494
280.531647 -334.837891 3.23815012
280.520691 -334.908386 3.42079997
280.551453 -334.900818 3.95845008
280.476715 -334.97699 5.8368001
280.446991 -334.918304 6.30859995
280.451599 -334.984009 6.97480011
280.456512 -334.980896 7.14020014
280.486298 -334.904297 8.25430012
280.422852 -334.923004 11.3136997
280.428802 -334.936188 11.9789
280.56131 -334.929291 14.7723999
280.513885 -334.737976 2.68813348
280.451599 -334.655304 2.88975
280.516388 -334.799194 3.03559995
280.472504 -334.748505 3.40370011
280.491913 -334.798798 3.76270008
280.598907 -334.731903 4.33470011
280.560394 -334.61261 5.39610004
280.565308 -334.68869 5.63549995
280.401093 -334.751495 7.00719976
280.402802 -334.694794 7.45100021
280.44931 -334.64621 7.80859995
280.473969 -334.697571 8.10762501
280.488098 -334.723755 8.25180054
280.500793 -334.766235 8.51664925
280.493011 -334.797699 8.7887001
280.412903 -334.767792 12.2749004
280.504211 -334.650909 14.7524996
280.473114 -334.566315 2.84850001
280.479004 -334.567413 3.30850005
280.514465 -334.438995 4.33644962
280.586304 -334.40509 4.49329996
280.545593 -334.413513 4.72060013
280.577698 -334.541901 5.12699986
280.529785 -334.451111 5.22910023
280.586212 -334.541199 5.48260021
280.403809 -334.490387 5.7519002
280.448364 -334.440491 7.56110001
280.461975 -334.52887 7.954
280.415894 -334.500732 8.12870026
280.523285 -334.463898 8.33810043
280.411804 -334.524689 8.78299999
280.427246 -334.262817 3.16000009
280.439789 -334.316101 3.61459994
280.594604 -334.341614 4.60900021
280.532837 -334.290222 4.95340014
280.506409 -334.343292 5.31459999
280.56369 -334.354706 5.67299986
280.535797 -334.329315 5.86240005
280.404694 -334.316498 6.47800016
280.427399 -334.357513 7.74849987
280.419495 -334.3284 8.08080006
280.429993 -334.307892 11.2679005
280.480591 -334.121704 3.14479995
280.485107 -334.012787 4.47529984
280.52594 -334.119904 4.73260021
280.532532 -334.026947 4.88659954
280.4823 -334.100403 5.19939995
280.428101 -334.173615 7.88170004
280.446899 -334.104309 8.4041996
280.557098 -333.938904 2.01749992
280.470215 -333.989197 2.21569991
280.407104 -333.818787 2.71729994
280.444885 -333.905701 3.22740006
280.437195 -333.968597 4.12419987
280.442108 -333.992554 4.30585003
280.515411 -333.903198 4.69764996
280.497711 -333.987213 4.98710012
280.48053 -333.767151 -0.721150041
280.521088 -333.616699 1.8348
280.455353 -333.733643 2.36455011
280.547241 -333.753601 2.48686671
280.472839 -333.74054 4.48849964
280.472473 -333.751282 4.72844982
280.421997 -333.700806 5.0948
280.431 -333.700989 5.4994998
280.403015 -333.796906 5.62139988
280.565887 -333.539001 1.7119
280.403503 -333.463989 4.48239994
280.411896 -333.518005 4.9822998
280.575806 -333.340515 -1.31449997
280.596313 -333.387299 2.06529999
280.481415 -333.2276 2.31660008
280.406586 -333.307495 5.11969995
280.439697 -333.131195 1.37109995
280.447815 -333.174011 1.50660002
280.48941 -333.082397 2.06150007
280.43161 -333.024689 2.58290005
280.533295 -333.072906 3.02489996
280.488586 -332.859314 -0.832700014
280.430298 -332.929901 1.64600003
280.405304 -332.995209 2.65619993
280.40979 -332.897491 3.64890003
280.400085 -332.8508 4.15819979
280.405609 -332.206512 -0.992999971
280.527008 -332.109985 -0.656099975
280.440704 -326.324005 -1.62249994
280.524994 -325.473999 1.28729999
280.577209 -325.208405 1.62679994
280.519989 -325.079102 1.81260002
280.510895 -324.914001 1.7098
280.532715 -324.822906 1.9073
280.419312 -324.706512 1.49520004
280.480591 -324.644989 1.82599998
280.462708 -324.393097 1.67729998
280.768616 -338.302063 13.5226002
280.753113 -338.365692 13.7715998
280.688507 -338.033386 13.8603001
280.792603 -338.067596 14.4640999
280.7724 -337.950104 9.31840038
280.7854 -337.87149 9.61429977
280.621796 -337.968506 12.4624996
280.68161 -337.926392 13.1481333
280.768188 -337.976593 13.6697998
280.627014 -337.971191 13.8629999
280.797302 -337.791412 10.0853996
280.785889 -337.756592 11.0943003
280.738708 -337.756287 14.2244997
280.700989 -337.44989 9.93729973
280.665833 -337.486755 10.5214005
280.64389 -337.557587 13.0146999
280.629395 -337.530396 13.6610003
280.688812 -337.4487 14.1798
280.762207 -337.318787 6.30179977
280.78479 -337.250092 9.44379997
280.778809 -337.346588 10.0197001
280.69339 -337.327606 10.3169003
280.761414 -337.332886 10.4098997
280.74469 -337.283295 10.7396002
280.772186 -337.261414 10.8533001
280.788788 -337.314209 11.1452999
280.777313 -337.33371 12.4723997
280.75 -337.355408 13.4207001
280.750305 -337.246399 14.0377998
280.758698 -337.065399 11.7201996
280.760803 -337.110107 11.9428997
280.692291 -337.065186 12.4119997
280.62851 -337.138794 13.5865002
280.689514 -337.060089 14.0569
280.786285 -336.990509 9.92720032
280.785248 -336.928955 10.2363501
280.739899 -336.919708 10.7762003
280.716858 -336.900208 11.3314667
280.650391 -336.862396 11.5566998
280.707703 -336.855591 11.9153996
280.753113 -336.850403 13.1429005
280.766388 -336.837799 13.5418997
280.634705 -336.917908 13.6136999
280.752899 -336.860596 13.8827
280.666595 -336.972504 14.0604
280.792603 -336.8797 14.4261999
280.763611 -336.776794 10.9027004
280.701996 -336.688812 12.5250998
280.683289 -336.723114 13.9524002
280.797791 -336.553314 7.05530024
280.749939 -336.468506 10.2451496
280.723907 -336.560791 10.8841
280.616791 -336.409912 12.3263998
280.661285 -336.407593 13.6148996
280.726013 -336.530396 13.8638496
280.670288 -336.594391 14.6183004
280.777893 -336.342285 7.69939995
280.756744 -336.298584 8.12674999
280.743286 -336.384796 8.47679996
280.740387 -336.221497 9.60639954
280.718597 -336.386108 10.5553999
280.71521 -336.267212 10.6605997
280.652405 -336.214996 10.9046001
280.687286 -336.209015 11.2824001
280.762512 -336.214508 11.9944
280.713257 -336.376251 12.1117001
280.65741 -336.330414 12.9631004
280.723907 -336.255402 13.1362
280.794189 -336.275604 13.3200998
280.745209 -336.214905 13.6627998
280.727997 -336.288208 14.1124496
280.730591 -336.207611 14.6512003
280.799103 -336.120789 8.15750027
280.74881 -336.010895 8.27999973
280.722595 -336.193207 8.82400036
280.714294 -336.037201 9.98530006
280.766907 -336.14389 10.0684996
280.769714 -336.052795 10.2444
280.746307 -336.184906 10.4933996
280.787689 -336.170105 11.1681995
280.725586 -336.133057 11.3069992
280.640289 -336.004791 12.1892004
280.600494 -336.098511 13.5543003
280.710297 -336.178497 13.7517004
280.635803 -336.149292 14.5705004
280.665161 -335.906433 8.05095005
280.669861 -335.9039 8.35034943
280.707306 -335.883972 8.43663311
280.725098 -335.858185 9.03409958
280.629486 -335.952515 10.1084995
280.705994 -335.922089 10.2361002
280.629303 -335.909241 10.8672504
280.666412 -335.924408 12.4312
280.723602 -335.832703 14.8107004
280.719299 -335.971588 15.0994997
280.780914 -335.641113 4.15899992
280.792114 -335.608307 4.39709997
280.775909 -335.706604 5.26429987
280.783813 -335.756195 5.52540016
280.795105 -335.771301 5.74350023
280.709198 -335.776886 6.61850023
280.766388 -335.700287 7.05049992
280.647308 -335.628693 7.49590015
280.67981 -335.650299 7.80089998
280.739105 -335.70459 8.30160046
280.6698 -335.779388 8.54399967
280.60611 -335.658813 8.64700031
280.690704 -335.724701 8.80309963
280.629395 -335.783203 11.4174004
280.752411 -335.627258 12.5534
280.670746 -335.719604 14.8739996
280.787994 -335.406097 3.54949999
280.776398 -335.437408 3.99569988
280.764526 -335.440704 4.66263342
280.787811 -335.587494 4.88740015
280.72049 -335.56131 5.14440012
280.760895 -335.44281 5.6882
280.632141 -335.429657 6.87370014
280.669312 -335.449188 7.56090021
280.656586 -335.570709 7.65899992
280.675201 -335.442993 8.85910034
280.612244 -335.518738 10.2427998
280.657898 -335.549011 10.4545498
280.689697 -335.590698 11.1739998
280.799194 -335.292908 2.03430009
280.795044 -335.302856 3.65114999
280.748444 -335.294434 4.10865021
280.687103 -335.217804 4.28410006
280.729126 -335.267761 4.48000002
280.731262 -335.351685 5.35074997
280.645599 -335.328186 7.10379982
280.645599 -335.313995 7.31669998
280.611389 -335.319214 7.55119991
280.69989 -335.359894 8.48519993
280.797913 -335.356903 9.2166996
280.720398 -335.101593 2.62229991
280.706848 -335.068237 3.22259998
280.654602 -335.145508 3.67600012
280.704712 -335.158905 4.15749979
280.692413 -335.125732 4.26293325
280.69339 -335.115112 4.43650007
280.612793 -335.005188 5.23969984
280.615387 -335.042908 5.56720018
280.67099 -335.17691 6.46640015
280.643311 -335.135193 8.05440044
280.670685 -335.180695 8.26150036
280.655487 -334.979614 4.62970018
280.607086 -334.803802 5.23789978
280.68631 -334.845612 5.41099977
280.704895 -334.652893 1.6688
280.681091 -334.718597 2.08780003
280.619446 -334.738251 4.43120003
280.698303 -334.60791 4.71190023
280.620087 -334.620911 5.00379992
280.613312 -334.511597 4.55280018
280.687897 -334.582092 4.6887002
280.782104 -332.895294 -2.01209998
280.725159 -332.242157 -0.523299992
280.63031 -331.605194 -0.627499998
280.76001 -326.469299 1.55009997
280.696899 -326.068115 1.67799997
280.686707 -325.866913 1.85239995
280.617889 -325.520691 1.92040002
280.629486 -325.305695 1.94990003
280.607788 -325.173889 1.6767
280.615295 -324.042694 -2.01679993
280.997314 -339.240295 13.2410002
280.952393 -339.044006 12.7233
280.914398 -339.132996 13.4892998
280.901215 -339.075958 13.8806
280.933899 -339.007996 14.0759001
280.977051 -338.957031 9.53610039
280.801086 -338.815399 13.6089001
280.985901 -338.83371 14.0261002
280.803314 -338.661499 10.4517002
280.813599 -338.64679 13.3899002
280.881714 -338.659485 14.0700998
280.835297 -338.445801 9.72410011
280.90329 -338.498505 10.1710997
280.928802 -338.462799 10.2734003
280.839294 -338.532806 10.5574999
280.905701 -338.51709 12.2503996
280.825897 -338.557709 13.4266996
280.987 -338.249908 5.89979982
280.948395 -338.331909 7.3046999
280.920898 -338.24231 10.2361002
280.869293 -338.290009 10.4816999
280.993195 -338.254913 11.1912003
280.873108 -338.246094 13.1451998
280.845612 -338.321594 14.1996002
280.859589 -338.217712 14.2005997
280.957397 -338.066101 6.59019995
280.962402 -338.122498 7.19269991
280.98761 -338.0914 8.99750042
280.835907 -338.114899 10.1766005
280.890594 -338.152893 10.4637003
280.870422 -338.037811 10.7237997
280.974487 -338.167297 10.9256001
280.963104 -338.095306 11.7145004
280.979309 -338.135498 11.8905001
280.999207 -337.910492 2.81579995
280.980286 -337.814392 6.00619984
280.912506 -337.843506 6.58050013
280.952087 -337.896088 7.35489988
280.996307 -337.889404 8.91119957
280.947998 -337.916901 9.0607996
280.948608 -337.971008 9.30630016
280.811188 -337.962799 10.1297998
280.893585 -337.928009 10.5847998
280.89621 -337.881989 10.7952003
280.990509 -337.9953 10.8304005
280.899963 -337.917603 11.0986004
280.966309 -337.931396 12.1033001
280.814789 -337.834991 12.3659
280.800903 -337.980591 13.7706003
280.92691 -337.611511 6.10150003
280.896301 -337.611603 6.76679993
280.885895 -337.60379 8.85149956
280.939087 -337.612 11.2884998
280.917206 -337.687195 11.7614002
280.808594 -337.622589 12.1497002
280.983887 -337.576111 3.17319989
280.931091 -337.499115 5.7730999
280.868408 -337.498596 6.16209984
280.859314 -337.510406 6.50610018
280.874359 -337.505676 6.66505003
280.901306 -337.460724 6.90285015
280.996704 -337.422394 7.91919994
280.954712 -337.492859 8.49189949
280.94101 -337.425903 9.03439999
280.87381 -337.531799 9.26140022
280.813385 -337.586914 9.59259987
280.859711 -337.407806 10.7995996
280.94751 -337.583405 11.0221004
280.942993 -337.448608 11.5160999
280.931793 -337.280792 3.52699995
280.963135 -337.235443 3.86879992
280.888214 -337.222595 5.58300018
280.838287 -337.234589 6.07849979
280.96991 -337.280914 6.58479977
280.885895 -337.356598 6.72510004
280.879089 -337.239288 7.3993001
280.956299 -337.393005 7.44269991
280.97168 -337.223907 7.66514969
280.931946 -337.292664 8.125
280.937897 -337.39389 8.28149986
280.891113 -337.276611 8.53460026
280.85199 -337.224701 8.7258997
280.94101 -337.275391 8.93280029
280.879913 -337.31369 9.41919994
280.866394 -337.388397 9.94169998
280.802185 -337.320007 10.3358002
280.847595 -337.225891 10.9771004
280.858307 -337.292511 11.1456003
280.862427 -337.297974 11.5482502
280.837494 -337.375 11.7818003
280.831696 -337.367615 12.2388
280.809296 -337.314087 12.4830999
280.803314 -337.313995 13.4312
280.962799 -337.141205 2.69289994
280.984589 -337.008209 4.9684
280.976807 -337.102692 5.40490007
280.944794 -337.118103 6.42965031
280.888794 -337.055511 6.7823
280.889313 -337.087402 7.07189989
280.910187 -337.174286 7.58620024
280.894501 -337.132111 8.0951004
280.881714 -337.084503 8.40970039
280.864319 -337.092163 10.4755993
280.861511 -337.019989 12.3998003
280.849915 -337.15271 13.5478001
280.817505 -337.183105 13.9337997
280.984192 -336.954498 3.6329999
280.963287 -336.832886 5.32770014
280.983093 -336.856995 5.56389999
280.953796 -336.904999 5.7828002
280.926514 -336.855408 6.66009998
280.934296 -336.88031 6.94360018
280.937073 -336.862793 7.14249992
280.91571 -336.958405 7.57040024
280.875397 -336.812714 7.73619986
280.859894 -336.876801 8.10280037
280.847778 -336.922913 8.28520012
280.841888 -336.817108 8.42980003
280.886505 -336.928101 8.77600002
280.825104 -336.931396 8.80690002
280.80191 -336.926514 10.5960999
280.803009 -336.865906 14.684
280.957489 -336.757385 3.6329999
280.952026 -336.645813 5.24030018
280.976715 -336.633514 5.41209984
280.875763 -336.693909 7.47366667
280.81131 -336.788605 7.6401
280.83371 -336.669403 7.88619995
280.827393 -336.638489 8.33930016
280.849976 -336.694031 8.71635056
280.906311 -336.718811 8.97949982
280.848206 -336.696594 9.83230019
280.841919 -336.659607 12.37955
280.983704 -336.41861 3.36660004
280.944305 -336.525909 3.68239999
280.947662 -336.451599 3.98959994
280.993286 -336.480499 4.79110003
280.937012 -336.511108 5.12540007
280.838593 -336.494812 6.41669989
280.870789 -336.504944 6.80350018
280.858612 -336.574005 7.31279993
280.840881 -336.549622 8.14564991
280.808685 -336.587006 8.32940006
280.844604 -336.423706 10.8455
280.927399 -336.462585 12.7207003
280.987213 -336.51651 12.8924999
280.991699 -336.308807 3.19280005
280.936096 -336.2453 3.95619988
280.925903 -336.32132 4.15089989
280.856201 -336.346893 4.65490007
280.896545 -336.356293 5.62039995
280.906799 -336.228607 5.98719978
280.929688 -336.290894 6.85529995
280.981689 -336.360107 7.16160011
280.835907 -336.284607 8.32369995
280.814911 -336.24411 9.19139957
280.953186 -336.289398 9.30700016
280.996002 -336.146698 1.47189999
280.978699 -336.15451 3.50510001
280.955444 -336.016785 4.27769995
280.954102 -336.172302 4.99039984
280.892914 -336.110107 5.06599998
280.897156 -336.058411 5.45240021
280.967499 -336.1521 5.66949987
280.9021 -336.113312 5.9236002
280.905396 -336.170105 6.20039988
280.847809 -336.010193 6.49564981
280.908813 -336.046997 6.62230015
280.914215 -336.162598 6.95370007
280.854187 -336.18161 7.34469986
280.80481 -336.006012 8.51519966
280.843811 -336.167297 9.15069962
280.95401 -336.041504 9.50959969
280.95459 -336.064087 12.8888998
280.977814 -335.800598 2.00749993
280.978699 -335.980713 2.35489988
280.974396 -335.813385 2.41960001
280.966095 -335.835297 3.3829999
280.975708 -335.847107 3.55139995
280.934875 -335.931549 4.46659994
280.910278 -335.96875 5.33775043
280.863159 -335.886841 5.77215004
280.858185 -335.977295 5.8762002
280.972809 -335.964386 6.18900013
280.873199 -335.936615 6.38469982
280.932007 -335.838501 6.49609995
280.919312 -335.963013 6.84189987
280.830444 -335.920471 9.08995056
280.996002 -335.822998 9.39859962
280.940399 -335.973297 9.61769962
280.920502 -335.900513 12.8282003
280.918091 -335.736603 1.19239998
280.956085 -335.779114 1.66209996
280.889099 -335.737091 2.46300006
280.951904 -335.78009 2.79369998
280.867004 -335.660095 2.94779992
280.852997 -335.703094 3.34850001
280.914795 -335.716492 3.46790004
280.835999 -335.797089 3.79349995
280.832306 -335.60199 3.83739996
280.802307 -335.600189 4.30369997
280.838806 -335.780212 4.51490021
280.808197 -335.707489 5.11670017
280.991394 -335.538696 -1.0194
280.826691 -335.423889 2.11240005
280.884094 -335.42099 2.36730003
280.851379 -335.440094 2.43935013
280.95459 -335.591492 2.93129992
280.835205 -335.538086 3.7734499
280.8349 -335.532501 3.91750002
280.948395 -335.413788 5.97910023
280.957703 -335.493408 9.20059967
280.936707 -335.472046 9.56134987
280.897491 -335.439301 12.7707996
280.865509 -335.478699 12.9060001
280.926788 -335.328888 -0.952300012
280.917206 -335.308289 2.69239998
280.810913 -335.314911 4.55700016
280.93161 -335.367798 5.63740015
280.931885 -335.301208 9.35095024
280.964813 -335.307007 9.58479977
280.839691 -335.384003 12.8432999
280.915192 -335.160706 -1.21220005
280.833496 -335.173798 2.41300011
280.985809 -335.18811 2.70970011
280.971497 -335.122406 6.39799976
280.833588 -334.557892 -1.53569996
280.995392 -327.897705 1.03869998
280.925507 -327.278809 1.38999999
280.947205 -327.230804 1.64859998
280.943298 -327.378906 1.8513
280.998993 -327.129486 1.70169997
280.982605 -327.110687 1.90030003
280.871002 -326.953796 1.62600005
280.862793 -326.689514 1.68299997
280.964386 -321.505615 -0.339100003
281.185791 -339.947815 13.2159996
281.179993 -339.780914 12.5093002
281.130493 -339.798309 13.5453997
281.190002 -339.576294 10.7068996
281.192108 -339.532898 11.2305002
281.117432 -339.54245 12.5538998
281.155518 -339.538574 12.7585506
281.102509 -339.561707 14.3954
281.152893 -339.408997 14.6377001
281.193909 -339.38739 10.1891003
281.118713 -339.216705 10.4376001
281.101898 -339.366608 10.9329996
281.147797 -339.2388 11.3698997
281.023407 -339.358093 11.6321001
281.12149 -339.379791 12.4996004
281.095215 -339.396606 13.3527002
281.046204 -339.342712 14.0172997
281.108185 -339.352203 14.3270998
281.1698 -339.138092 7.73789978
281.127899 -339.088013 8.85649967
281.193604 -339.085114 9.05500031
281.027405 -339.003815 9.27540016
281.112305 -339.156097 9.72945023
281.139587 -339.110291 9.83734989
281.119293 -339.140503 10.1247997
281.184601 -339.119293 10.2145996
281.158936 -339.148804 10.7608004
281.176514 -339.176697 11.1131001
281.110992 -339.001007 11.9285002
281.050598 -339.069214 14.4112997
281.180603 -338.883514 5.65719986
281.123993 -338.838715 5.9222002
281.158386 -338.902191 6.10774994
281.187103 -338.918701 6.97459984
281.139893 -338.870209 7.01240015
281.197388 -338.911499 7.8046999
281.021606 -338.881897 9.26010036
281.014587 -338.914795 10.2298002
281.071594 -338.908295 10.5991001
281.182007 -338.994202 11.0749998
281.060791 -338.917694 11.3010998
281.07074 -338.923645 14.2991505
281.089203 -338.871002 14.4983997
281.19281 -338.612396 3.89590001
281.076996 -338.644409 6.33010006
281.065369 -338.701843 6.65719986
281.149597 -338.604187 7.52169991
281.188812 -338.71759 7.8125
281.05011 -338.674805 14.2439003
281.139496 -338.598999 2.79780006
281.145294 -338.570801 2.98189998
281.178009 -338.543793 3.22379994
281.141541 -338.512299 3.50699997
281.003998 -338.44809 6.55900002
281.037689 -338.502106 6.89179993
281.088898 -338.468201 7.29820013
281.189514 -338.510986 7.47069979
281.18399 -338.516296 7.77580023
281.137848 -338.488403 7.87325001
281.129303 -338.508209 8.33320045
281.133514 -338.416687 8.55039978
281.161499 -338.45459 8.74110031
281.0242 -338.425995 11.0414
281.015961 -338.450348 11.6901493
281.065308 -338.554504 14.5962
281.194885 -338.345398 0.134800002
281.156128 -338.305908 2.98950005
281.125793 -338.216095 3.84870005
281.145203 -338.390015 5.08029985
281.034088 -338.299805 6.94159985
281.135101 -338.331604 7.78219986
281.159698 -338.32309 8.43109989
281.148071 -338.282104 8.64284992
281.128113 -338.328003 11.1111002
281.117493 -338.360809 11.6791
281.178497 -338.001892 -0.403299987
281.125549 -338.068176 0.290700018
281.195801 -338.053192 0.586099982
281.156708 -338.070312 2.77620006
281.099304 -338.079102 2.86170006
281.158295 -338.091187 3.93065
281.145691 -338.022888 4.2262001
281.195312 -338.185486 4.5079999
281.183105 -338.112305 5.07999992
281.058289 -338.099792 5.72539997
281.025513 -338.028503 5.94059992
281.054108 -338.135406 6.88579988
281.014801 -338.029694 7.05319977
281.020599 -338.110901 7.57849979
281.094696 -338.017303 7.62629986
281.091705 -338.074402 7.98250008
281.034088 -338.029388 8.1097002
281.117889 -338.051697 8.27040005
281.091705 -338.090088 11.0592003
281.063995 -338.095886 11.4384499
281.00119 -338.187592 12.2559004
281.138611 -337.804108 2.1421001
281.108093 -337.888885 2.33049989
281.070312 -337.872559 2.42689991
281.071289 -337.958099 3.24119997
281.042999 -337.83429 3.52010012
281.058044 -337.90918 3.70309997
281.080811 -337.952911 3.91619992
281.005798 -337.985413 6.6244998
281.079895 -337.971008 7.47800016
281.110107 -337.860535 7.91635036
281.032288 -337.935303 8.15929985
281.045807 -337.976593 8.47089958
281.010986 -337.875885 8.74670029
281.0896 -337.963715 9.22990036
281.135712 -337.65509 -0.613600016
281.146301 -337.798615 -0.135900006
281.073914 -337.795105 0.540799975
281.076904 -337.600586 2.26679993
281.078003 -337.760803 2.7407999
281.024109 -337.6651 2.88109994
281.064392 -337.790192 3.07019997
281.011993 -337.605011 3.31609988
281.148712 -337.738312 4.49139977
281.06369 -337.629303 5.31430006
281.013214 -337.659607 7.56419992
281.0802 -337.729004 7.6637001
281.055969 -337.71875 7.8835001
281.036072 -337.734192 8.09990025
281.166656 -337.436096 -0.903949976
281.132996 -337.534302 -0.189099997
281.138306 -337.530396 0.00850000046
281.107117 -337.504547 2.47239995
281.090302 -337.545105 3.99850011
281.061218 -337.497925 4.14949989
281.106293 -337.446411 4.29680014
281.148804 -337.522705 4.46159983
281.133209 -337.463501 4.87440014
281.01889 -337.589203 7.64699984
281.034607 -337.589691 8.56499958
281.049713 -337.597992 8.73270035
281.04541 -337.542908 9.04539967
281.041901 -337.343109 -0.958599985
281.067413 -337.267212 -0.181099996
281.101501 -337.373505 0.0320000015
281.076691 -337.348602 0.538900018
281.1539 -337.319214 0.70539999
281.181244 -337.211365 1.0661
281.192291 -337.311096 1.23269999
281.126801 -337.224609 1.88180006
281.185913 -337.3284 2.14249992
281.048615 -337.338593 2.44339991
281.045746 -337.30304 4.26500034
281.104187 -337.398987 4.55760002
281.044312 -337.207001 5.60620022
281.151703 -337.085693 -1.12119997
281.132507 -337.026611 -0.975899994
281.000885 -337.15979 -0.677900016
281.011993 -337.085907 -0.183400005
281.061707 -337.007599 0.269400001
281.067993 -337.182587 0.920700014
281.155914 -337.092194 1.37899995
281.162109 -337.058014 1.5711
281.147705 -337.06311 1.67484999
281.100586 -337.116364 2.5230999
281.091919 -337.148407 2.67799997
281.179199 -337.043793 3.11660004
281.002899 -337.185608 3.38560009
281.010986 -337.102295 3.45549989
281.133209 -337.068298 4.54500008
281.039001 -337.175293 5.1546998
281.007507 -337.018402 5.59649992
281.160309 -337.018494 6.16820002
281.122314 -337.09491 9.20580006
281.1185 -337.110596 9.57940006
281.104095 -336.84549 -0.537899971
281.052795 -336.948486 0.665300012
281.111115 -336.823212 0.975499988
281.129395 -336.898346 1.04014993
281.163208 -336.873596 1.60360003
281.165405 -336.966309 1.80340004
281.059631 -336.921661 2.14634991
281.130402 -336.913605 2.44645
281.004395 -336.910492 2.86439991
281.042297 -336.873413 3.50679994
281.01239 -336.931793 4.09630013
281.063995 -336.884491 4.38759995
281.008789 -336.820496 4.49160004
281.074097 -336.982788 5.91699982
281.082306 -336.854095 6.35610008
281.188995 -336.930389 9.39519978
281.025391 -336.870697 9.61240005
281.085388 -336.89679 12.5026503
281.191895 -336.76001 -0.850700021
281.079987 -336.643402 0.915700018
281.103302 -336.738007 1.11810005
281.087097 -336.665161 1.3484
281.131836 -336.733948 1.44825006
281.112 -336.748199 1.93429995
281.065308 -336.655914 2.1703999
281.063751 -336.680145 2.43289995
281.072693 -336.641815 2.62420011
281.007294 -336.779114 4.07690001
281.022888 -336.697296 4.45569992
281.106873 -336.733704 9.2322998
281.080597 -336.667206 12.6176004
281.097687 -336.454895 -1.02040005
281.06369 -336.450104 1.14049995
281.018585 -336.469513 2.22259998
281.162689 -336.553497 3.19219995
281.033813 -336.595215 3.97329998
281.035004 -336.597595 4.46750021
281.157898 -336.440094 5.64979982
281.098389 -336.521393 6.60440016
281.010895 -336.473999 9.1782999
281.135406 -336.423706 9.41800022
281.155487 -336.384003 -0.851199985
281.028076 -336.233032 1.30290008
281.032898 -336.22229 1.91024995
281.031067 -336.332153 2.30824995
281.100189 -336.264801 2.64569998
281.031708 -336.35791 4.11929989
281.183502 -336.394104 6.05800009
281.085297 -336.291748 6.3376503
281.116486 -336.283203 6.41529989
281.050995 -336.322388 9.06989956
281.058685 -336.000885 1.55920005
281.030701 -336.020599 1.68760002
281.002289 -336.020905 2.2033
281.020905 -336.02829 2.48234987
281.040192 -336.004608 3.12610006
281.010101 -336.183502 3.42269993
281.053497 -336.195801 4.07000017
281.079102 -336.164215 4.52600002
281.034607 -336.140015 5.91260004
281.003113 -335.88089 1.54700005
281.036407 -335.996094 2.77729988
281.067413 -335.816986 3.0079
281.030457 -335.915222 9.52560043
281.184387 -335.857208 9.79940033
281.150696 -335.71759 2.9921999
281.087494 -335.658295 5.97849989
281.108948 -335.731049 6.06139994
281.131104 -335.569214 2.58360004
281.148407 -335.504517 2.6324501
281.193115 -335.43631 3.14039993
281.046692 -335.422394 6.23519993
281.03363 -335.532715 9.51239967
281.166687 -335.30957 2.64949989
281.160797 -335.33609 2.88249993
281.052063 -335.31781 5.93744993
281.090271 -335.274536 6.39645004
281.140503 -335.061096 2.56739998
281.093201 -335.177399 2.72819996
281.170502 -335.131226 2.97375011
281.182007 -335.110687 3.1243999
281.016388 -327.951508 1.58239996
281.152313 -327.857697 1.70449996
281.032013 -327.700195 1.69589996
281.190308 -324.116699 -1.94089997
281.136414 -324.124786 -1.70869994
281.103485 -323.812988 -0.759599984
281.160095 -321.518372 -0.38804999
281.366394 -339.879303 9.05249977
281.399597 -339.920197 9.31639957
281.305389 -339.909393 9.50269985
281.390289 -339.808411 9.64050007
281.384308 -339.90979 9.97694969
281.297485 -339.899109 11.0198002
281.344086 -339.857391 11.2435999
281.269775 -339.910767 11.4516506
281.363007 -339.975006 12.4382
281.206696 -339.930206 12.9343004
281.25415 -339.894501 13.48985
281.241699 -339.983276 13.7051506
281.260712 -339.977386 13.9198999
281.292389 -339.867493 14.2707005
281.304291 -339.855011 14.4581003
281.389496 -339.718597 7.77120018
281.363495 -339.647797 8.00640011
281.330597 -339.615692 9.10330009
281.382355 -339.678589 9.52464962
281.299683 -339.673584 9.74690056
281.359589 -339.727844 10.4988499
281.307129 -339.7276 10.7016001
281.224915 -339.607697 11.5263996
281.30191 -339.690704 12.3100996
281.242096 -339.7901 12.5437002
281.38089 -339.429413 4.40969992
281.396088 -339.572388 6.47300005
281.37439 -339.411407 7.21670008
281.377502 -339.535797 7.48169994
281.330414 -339.408386 7.78630018
281.376892 -339.471497 7.98780012
281.253815 -339.513214 8.46940041
281.333008 -339.481598 8.64599991
281.248596 -339.570007 8.93400002
281.357605 -339.404907 9.1736002
281.232391 -339.415405 9.30650043
281.282501 -339.5867 9.47579956
281.255615 -339.472992 9.86219978
281.258514 -339.567413 10.3601999
281.209412 -339.446686 10.6035004
281.316498 -339.415588 11.0902004
281.247589 -339.584595 11.4904003
281.252289 -339.586792 12.4657001
281.277405 -339.462189 12.7285004
281.363403 -339.332306 4.55910015
281.375 -339.306213 5.88119984
281.393097 -339.372986 6.0703001
281.385101 -339.210999 6.28809977
281.321808 -339.259888 6.8118
281.315704 -339.233002 7.62400007
281.342712 -339.369598 8.25760078
281.395996 -339.397888 8.41619968
281.216888 -339.222992 9.22809982
281.205811 -339.397186 9.9843998
281.247498 -339.237488 11.0532999
281.231995 -339.287506 11.5002003
281.393494 -339.10849 3.73970008
281.356201 -339.059204 3.84150004
281.385315 -339.063202 4.12270021
281.38739 -339.051208 4.3980999
281.373688 -339.105103 4.69159985
281.39389 -339.148987 4.80319977
281.330688 -339.077515 5.2421999
281.332397 -339.037811 5.65170002
281.296295 -339.090088 5.93520021
281.319092 -339.143097 6.08430004
281.292206 -339.065186 6.8927002
281.236389 -339.086304 7.32060003
281.2742 -339.058685 7.70319986
281.275604 -339.121887 8.39340019
281.282501 -339.146515 11.2950001
281.245087 -339.060211 11.6636
281.207092 -339.035004 12.0605001
281.327393 -338.862915 2.49850011
281.355286 -338.817413 2.87140012
281.291687 -338.885315 3.75580001
281.360992 -338.929596 3.99850011
281.322479 -338.886505 4.25976658
281.369202 -338.893585 4.68079996
281.355988 -338.936707 5.09765005
281.200897 -338.935211 6.22419977
281.212891 -338.893585 7.09759998
281.291809 -338.849213 7.52229977
281.263885 -338.912689 11.0985003
281.372986 -338.689697 -0.577700019
281.272156 -338.761719 2.70700002
281.233459 -338.739227 2.92787504
281.273193 -338.693298 3.10734987
281.274902 -338.717529 3.70877504
281.223511 -338.653595 3.95409989
281.287109 -338.701385 4.32719994
281.358093 -338.683899 4.51385021
281.298309 -338.778687 4.95839977
281.280396 -338.652893 5.05410004
281.250305 -338.786102 5.89650011
281.226501 -338.750488 7.32870007
281.276367 -338.693848 7.90184975
281.231079 -338.696777 8.08080006
281.234985 -338.793488 8.36639977
281.27655 -338.734375 8.44745064
281.299286 -338.457306 -0.811800003
281.362701 -338.473206 0.0480000004
281.36499 -338.593903 0.238199994
281.289307 -338.517395 0.739700019
281.366394 -338.452911 1.84640002
281.232513 -338.540497 2.38759995
281.278748 -338.450134 2.45039988
281.2388 -338.518585 2.7328999
281.243988 -338.560089 2.85700011
281.319702 -338.446899 4.296
281.314209 -338.483887 4.45860004
281.371094 -338.409485 4.73430014
281.297089 -338.579407 4.90460014
281.31015 -338.45575 5.28593349
281.230988 -338.449707 5.69500017
281.219513 -338.476105 7.65220022
281.23819 -338.540802 8.03649998
281.292999 -338.363403 0.0559
281.250702 -338.313507 0.694700003
281.374512 -338.212402 1.13030005
281.381042 -338.24469 1.48900008
281.329193 -338.279602 1.68420005
281.323669 -338.355804 2.09523344
281.297699 -338.330505 4.16800022
281.239685 -338.305511 4.7961998
281.252594 -338.208099 4.80980015
281.223297 -338.341003 5.04829979
281.23114 -338.361755 5.29209995
281.327789 -338.098297 -0.944400012
281.2117 -338.048492 -0.311199993
281.256805 -338.166901 0.0286999997
281.374512 -338.112396 1.12150002
281.350494 -338.087799 1.34889996
281.309906 -338.074585 1.6631
281.305389 -338.078705 2.00209999
281.240997 -338.165894 4.13759995
281.202606 -338.041199 4.26690006
281.273712 -337.869568 -0.972599983
281.214508 -337.834808 -0.642199993
281.240601 -337.967712 0.00120000006
281.345306 -337.927704 1.03569996
281.314514 -337.945374 1.34280002
281.284058 -337.865448 1.70005
281.254852 -337.883972 2.1104002
281.229889 -337.951904 2.42499995
281.232697 -337.939087 8.24909973
281.389587 -337.66571 -1.02719998
281.242706 -337.787201 0.884199977
281.283295 -337.714996 1.01160002
281.244598 -337.639191 1.63269997
281.210449 -337.622864 2.2421999
281.212708 -337.749786 4.71320009
281.2677 -337.570801 -1.13180006
281.211212 -337.481293 -0.771300018
281.282715 -337.587311 1.38320005
281.223907 -337.462891 1.47909999
281.259766 -337.502197 1.74230003
281.2789 -337.339691 -2.07159996
281.261505 -337.246796 -1.25160003
281.315399 -337.321899 -1.16949999
281.257111 -337.281403 -0.946099997
281.235992 -337.248413 1.20410001
281.235809 -337.236115 1.68079996
281.247803 -337.378296 1.86740005
281.293152 -337.161743 -1.30914998
281.256805 -337.095001 -1.0675
281.21051 -337.181488 1.77059996
281.227997 -337.134399 2.41989994
281.278107 -336.907196 6.13730001
281.291901 -336.828308 6.22580004
281.383698 -336.718811 -0.62349999
281.257996 -336.610291 6.1177001
281.319702 -336.475403 3.0869
281.276215 -336.442993 6.13740015
281.203613 -336.38681 -1.56980002
281.390594 -336.351196 2.5308001
281.356445 -336.348694 2.81424999
281.384705 -336.164215 2.74720001
281.22699 -336.157501 2.85229993
281.263672 -336.134155 3.08745003
281.36499 -335.556213 2.8519001
281.216797 -335.238708 2.56340003
281.231506 -335.152313 3.17190003
281.295898 -324.531403 -1.59720004
281.338989 -322.345306 -0.00680000009
281.336212 -321.289398 -1.13689995
281.542297 -339.941803 3.87529993
281.554199 -339.924805 4.53690004
281.549591 -339.972198 5.11229992
281.47879 -339.886902 5.25710011
281.505798 -339.835297 5.73969984
281.477203 -339.821106 5.90719986
281.509003 -339.838409 6.15950012
281.508698 -339.972504 6.2111001
281.443695 -339.921906 6.48570013
281.568115 -339.976288 6.93669987
281.497864 -339.891602 7.11129999
281.452393 -339.94519 7.72259998
281.445618 -339.91095 8.10074997
281.522186 -339.937195 8.24950027
281.439911 -339.992401 8.75409985
281.455994 -339.82959 9.1814003
281.418396 -339.993805 9.24569988
281.411011 -339.831604 10.0495005
281.426086 -339.912994 14.7059002
281.573792 -339.717804 2.63540006
281.569611 -339.730286 3.38940001
281.511292 -339.767212 3.40199995
281.570099 -339.764008 3.66170001
281.548096 -339.770386 3.83739996
281.538879 -339.680237 4.10134983
281.592987 -339.754486 4.5935998
281.506897 -339.686401 5.36689997
281.519653 -339.770508 5.74995041
281.479492 -339.673492 5.86210012
281.557587 -339.798615 6.01210022
281.458405 -339.771515 6.39799976
281.462006 -339.621704 6.56110001
281.423889 -339.633606 6.68279982
281.507111 -339.708374 7.73110008
281.400909 -339.685089 7.81379986
281.415497 -339.717804 8.82900047
281.589691 -339.56781 1.19560003
281.568909 -339.57489 2.27180004
281.55249 -339.555664 2.89655018
281.484711 -339.509888 3.13599992
281.511688 -339.423615 3.32450008
281.494904 -339.474915 3.43849993
281.465942 -339.444641 3.65789986
281.474396 -339.465302 3.90280008
281.469391 -339.595703 4.26889992
281.529785 -339.530151 4.48429966
281.456787 -339.426086 4.83799982
281.468414 -339.531708 5.05280018
281.436188 -339.593994 5.69099998
281.453705 -339.591888 6.83120012
281.418762 -339.453247 8.35124969
281.581512 -339.290314 0.113499999
281.556885 -339.312012 1.49520004
281.558411 -339.294495 1.77629995
281.583588 -339.248596 1.87409997
281.528687 -339.288452 2.69784999
281.511536 -339.228912 2.93624997
281.474792 -339.225891 3.37269998
281.452148 -339.231812 3.5
281.464203 -339.225708 3.94770002
281.484497 -339.323212 4.1722002
281.461548 -339.30603 5.50839996
281.441803 -339.319214 5.70559978
281.454102 -339.379303 6.36600018
281.569092 -339.073608 -0.0944999978
281.537598 -339.025696 0.736400008
281.509399 -339.05069 0.997500002
281.519806 -339.00351 1.10440004
281.529297 -339.101929 1.41925001
281.544403 -339.016815 1.93229997
281.487976 -339.101807 2.27139997
281.420898 -339.046112 3.1573
281.451813 -339.118591 3.25959992
281.448181 -339.149719 3.91696668
281.479401 -338.804413 -0.0860000029
281.488159 -338.93457 0.483999997
281.493011 -338.893494 0.705299973
281.50531 -338.808289 1.0618
281.45755 -338.898682 1.50970006
281.507385 -338.821808 1.63209999
281.485596 -338.856293 2.06299996
281.401306 -338.968201 2.86209989
281.42749 -338.984406 3.17219996
281.423187 -338.905212 5.31419992
281.433899 -338.78421 0.341399997
281.426392 -338.763489 0.570100009
281.403503 -338.669708 1.14890003
281.411713 -338.605286 1.25419998
281.44519 -338.727844 1.74975002
281.408295 -338.654388 1.81649995
281.429291 -338.761597 2.31049991
281.582092 -338.462494 -1.89460003
281.5112 -338.531189 -1.7129333
281.464203 -338.487061 1.33749998
281.423706 -338.503601 1.45220006
281.429626 -338.477844 1.94035006
281.400391 -338.285187 1.30980003
281.418518 -338.304504 1.48534989
281.463593 -338.030914 -1.46720004
281.495697 -338.112 -1.33539999
281.45813 -338.103943 -1.13450003
281.422607 -336.872101 2.58130002
281.445404 -323.270294 -0.154499993
281.507111 -322.616608 -0.316900015
281.521515 -321.917999 -1.90069997
281.544495 -321.726196 -1.59099996
281.419891 -321.527191 -1.47590005
281.473389 -321.416809 -1.02639997
281.482605 -321.513397 -0.73089999
281.775604 -339.941406 -0.869199991
281.737915 -339.8638 -0.232199997
281.672363 -339.879028 0.135049999
281.722595 -339.8909 0.486099988
281.695404 -339.894897 0.763499975
281.667938 -339.882751 1.29229999
281.65799 -339.870605 2.08669996
281.646515 -339.886993 3.56929994
281.607086 -339.822113 5.53980017
281.752197 -339.600708 -2.08299994
281.715515 -339.704193 -1.82120001
281.754791 -339.616211 -1.24389994
281.717499 -339.741058 -1.09045005
281.732788 -339.6539 -0.230700001
281.662598 -339.732513 -0.117600001
281.699402 -339.624512 0.0653000027
281.666901 -339.665009 0.593100011
281.648712 -339.666199 0.752799988
281.647888 -339.6203 1.00020003
281.64801 -339.716431 1.54605007
281.675201 -339.608185 1.70780003
281.643799 -339.790894 2.09570003
281.606812 -339.721313 2.66680002
281.603699 -339.722504 7.32679987
281.737 -339.592804 -2.2191
281.661194 -339.456085 -1.71749997
281.692688 -339.580994 -0.207000002
281.625488 -339.511414 0.173099995
281.677368 -339.504028 0.298166662
281.623444 -339.508911 1.30135
281.613403 -339.53479 1.56429994
281.652405 -339.438385 1.90180004
281.664795 -339.326508 -1.23020005
281.655975 -339.306854 -1.06887496
281.627411 -339.226501 -0.818099976
281.662994 -339.355804 -0.747900009
281.626892 -339.333801 0.179399997
281.6026 -339.353912 0.211099997
281.627991 -339.365997 1.67009997
281.608185 -339.113098 -1.64499998
281.623108 -338.903107 -1.17040002
281.611603 -323.925812 -1.51499999
281.75 -323.256012 -1.82550001
281.785309 -322.968292 -0.3495
281.753601 -322.202698 -1.61489999
281.710693 -322.369293 -0.156000003
281.718018 -322.119812 -0.34890002
281.786011 -321.793304 -1.62329996
281.636414 -321.768402 -1.22029996
281.769714 -321.654785 -0.939899981
281.858093 -339.996704 -1.90929997
281.815613 -339.30069 -1.93579996
281.88089 -323.430786 -0.450599998
281.850891 -322.872101 -2.07979989
281.942596 -322.941711 -0.50999999
281.993591 -321.824097 -1.81379998
281.935303 -321.940887 -1.38310003
281.939545 -321.89621 -0.812950015
281.998108 -321.997101 -0.702000022
281.836792 -321.788391 -0.726000011
282.113007 -338.759399 -1.67869997
282.197388 -334.504608 -0.381799996
282.174713 -327.933105 -0.654200017
282.019196 -323.675842 -1.23924994
282.012695 -323.605286 -0.928200006
282.021301 -323.514008 -1.50689995
282.035492 -323.36319 -1.68659997
282.144196 -323.337494 -1.06690001
282.15799 -323.046814 -1.62709999
282.109802 -322.881195 -1.7658
282.080994 -322.737 -1.94860005
282.193512 -322.761414 -1.55729997
282.14151 -322.38559 -1.85210001
282.328186 -338.282288 -2.12089992
282.310394 -328.427094 -0.101999998
282.202209 -323.238403 -1.09640002
282.267303 -323.184509 -1.2119
282.228607 -323.044189 -0.755599976
282.224396 -322.905914 -1.5898
282.362915 -322.929596 -0.911199987
282.341187 -322.6604 -1.31359994
282.251099 -322.503906 -1.57120001
282.281799 -322.213287 -1.51419997
282.368713 -322.375702 -1.03129995
282.2005 -321.919891 -1.21899998
282.4823 -331.878693 0.75
282.536407 -330.56189 -0.557399988
282.596191 -328.730804 -0.28549999
282.5354 -328.681 -0.161300004
282.406403 -327.803101 -1.07149994
282.531891 -327.940002 -0.600000024
282.481415 -327.786011 -0.819000006
282.438385 -322.729401 -1.02240002
282.411499 -322.545685 -1.14830005
282.677002 -331.247986 0.0390000008
282.654907 -328.2854 -0.522400022
282.888611 -334.355499 1.09070003
282.989288 -331.617493 -0.179800004
282.929199 -329.728699 -0.229900002
282.829193 -328.600189 -0.412699997
282.933289 -328.290588 -0.762499988
282.918915 -328.182007 -0.649699986
282.805389 -327.976013 -1.16719997
282.807495 -327.948395 -0.815999985
283.109497 -331.353607 -0.452800006
283.155212 -330.872314 0.627200007
283.110291 -330.313202 -1.6717
283.062714 -330.229401 -0.958500028
283.190186 -329.598206 -0.491299987
283.018005 -328.856415 -0.49000001
283.010803 -328.087585 -1.8829
283.238312 -332.931702 -0.728500009
283.32309 -332.385803 1.13929999
283.365906 -331.841492 1.16100001
283.351807 -331.697815 1.17390001
283.348694 -331.758911 1.37479997
283.246796 -330.433197 -0.763300002
283.268311 -330.112213 -0.831499994
283.269196 -330.007294 -0.721000016
283.270691 -329.986908 -0.518400013
283.386292 -329.590393 -0.58099997
283.291992 -329.161896 -0.670400023
283.388885 -329.100189 -0.443899989
283.344208 -328.801605 -1.91279995
283.273743 -328.706879 -0.747999966
283.251007 -328.449097 -0.914300025
283.569702 -338.592102 -2.50699997
283.431091 -338.35849 -1.95630002
283.542389 -336.009399 0.395399988
283.499695 -336.083893 0.506399989
283.536987 -334.68631 -2.16070008
283.598785 -332.431396 0.967999995
283.552307 -332.53949 1.04250002
283.423798 -330.062195 -1.3362
283.498505 -329.985413 -1.29840004
283.536285 -329.633514 -1.24329996
283.580292 -329.418915 -0.963500023
283.468109 -329.4664 -0.742900014
283.408997 -329.317108 -0.622900009
283.570404 -329.171997 -1.64170003
283.4711 -328.848114 -1.57500005
283.590912 -328.846313 -1.07369995
283.537598 -328.712402 -1.21969998
283.686401 -338.633087 -2.36109996
283.608093 -338.638 -1.02400005
283.779602 -338.700104 -0.218999997
283.713104 -338.776794 -0.160899997
283.611786 -338.539307 -2.34590006
283.624207 -337.813202 -0.1787
283.689301 -337.677307 -0.0980999991
283.747803 -335.386993 -0.0808999985
283.775696 -334.919403 1.06949997
283.617096 -332.270691 0.91869998
283.676239 -332.219452 1.08724999
283.769897 -331.73999 0.450300008
283.833679 -338.504456 -1.64894998
283.846802 -333.221313 1.01204991
283.820801 -332.818207 1.44819999
283.953613 -332.688812 1.13670003
283.815887 -332.702393 1.36249995
283.861603 -332.264191 1.39970005
283.910187 -332.069611 1.49590003
283.973694 -332.178497 1.60220003
283.931793 -331.805786 0.194000006
283.938293 -331.880798 0.214599997
283.879272 -331.716614 0.508650005
284.145111 -337.681091 -0.814499974
284.19101 -334.87381 0.0903000012
284.047211 -334.229187 -0.232899994
284.097168 -334.330688 -0.168150008
284.052094 -334.202789 0.0449000001
284.0961 -333.719788 -0.345699996
284.13269 -333.325806 0.974300027
284.077911 -333.130615 -0.307000011
284.098206 -333.074097 1.39970005
284.115112 -333.115906 1.51585007
284.188995 -332.963287 0.951699972
284.057312 -332.894287 1.24600005
284.037506 -332.404907 1.06099999
284.199707 -331.954498 0.480699986
284.171112 -331.702087 0.119400002
284.172699 -331.712311 0.74089998
284.081299 -331.371002 -0.389499992
284.063385 -331.243713 0.114
284.092499 -331.153687 0.0419000015
284.365204 -339.423401 -2.03060007
284.327301 -339.222504 -2.02979994
284.262787 -338.213287 -0.869700015
284.2034 -338.088989 -0.68629998
284.280579 -335.578308 -0.254700005
284.257599 -335.216705 -0.635999978
284.236206 -335.098602 -0.881200016
284.386292 -334.468201 -0.727400005
284.337494 -333.633209 0.906199992
284.307465 -333.493835 -0.477500021
284.240112 -333.368805 -0.468400002
284.224487 -333.270599 -0.105599999
284.214203 -333.3909 0.990199983
284.388611 -332.904999 1.07690001
284.288788 -332.618286 1.32070005
284.291199 -332.543091 -0.819899976
284.394409 -332.440308 -0.787599981
284.243896 -332.446014 1.08570004
284.305389 -332.332397 1.02699995
284.355896 -332.26181 1.43719995
284.315643 -332.06131 0.247325003
284.35907 -331.85611 0.128999993
284.231201 -331.853088 0.26730001
284.262787 -331.796112 -0.605400026
284.2901 -331.75061 -0.0527999997
284.220093 -331.776886 0.112800002
284.393585 -331.658112 0.541599989
284.305786 -331.687714 0.71359998
284.490112 -339.626495 -2.24950004
284.417603 -339.26001 -2.32979989
284.546692 -338.558289 -0.450199991
284.493103 -338.0466 -0.31310001
284.590393 -337.849304 -0.602400005
284.533905 -337.708801 -0.306300014
284.550201 -335.627991 -1.29569995
284.444305 -334.993713 0.0610999987
284.537506 -333.903412 1.06770003
284.542908 -333.774994 -0.813300014
284.435608 -333.672302 -0.693700016
284.428497 -333.503998 -0.781400025
284.509338 -333.490601 1.06984997
284.492615 -333.486603 1.26189995
284.535889 -332.133698 -0.311800003
284.501312 -332.179688 -0.193800002
284.555786 -332.099915 0.177100003
284.46051 -331.758301 0.601700008
284.792114 -339.058685 -0.761900008
284.658905 -337.786194 -0.442200005
284.650543 -337.560455 -0.462650001
284.664215 -335.622589 -0.760699987
284.615997 -334.054108 0.2271
284.777405 -333.621704 -0.104800001
284.631958 -333.519348 -0.182249993
284.603912 -333.457214 0.364399999
284.650208 -333.507111 1.26310003
284.679901 -332.832092 -0.448000014
284.65271 -332.745789 0.460399985
284.694214 -332.239136 -0.293549985
284.718414 -332.309692 -0.0388999991
284.709991 -332.176788 -0.0952000022
284.690918 -332.058167 0.0560999997
284.7099 -331.909485 -0.063500002
284.834686 -334.309296 -0.595300019
284.846313 -334.075989 -0.583899975
284.976196 -333.899109 -0.627099991
284.949005 -333.496613 -0.26699999
284.810699 -333.116791 0.0789000019
284.828735 -333.075195 0.417550027
284.923401 -332.672241 -0.0583499968
284.961304 -332.701508 0.1479
284.988403 -332.513397 -0.0595999993
285.111908 -333.760498 0.2368
285.097198 -333.419891 0.333499998
285.100525 -333.361938 -0.111400001
285.064911 -333.090607 0.648299992
285.087189 -332.698212 -0.546700001
285.024506 -332.460602 -0.0137999998
285.016602 -332.341003 0.423200011
285.033386 -332.082001 0.0284000002
285.371613 -333.964691 0.0183000006
285.291199 -333.704102 0.0561999977
285.214722 -333.490906 -0.0620499998
285.286804 -333.504486 0.0293000005
285.278015 -333.563507 0.25150001
285.212402 -333.290894 0.672599971
285.251495 -332.795197 -0.132300004
285.220093 -332.461304 -0.201299995
285.215088 -332.486389 -0.125300005
287.788208 -323.03949 -1.7428
288.045898 -339.937714 -2.08859992
288.164307 -324.063904 -1.40320003
288.188202 -322.746094 -1.21280003
288.248291 -326.408508 -1.2098
288.247589 -325.91449 -1.21259999
288.279907 -325.57959 -1.26950002
288.301788 -324.529388 -1.29170001
288.25354 -323.776794 -1.29414999
288.467896 -327.534485 -1.48609996
288.507812 -327.058899 -1.60660005
288.553711 -327.056488 -1.45959997
288.456207 -326.619507 -1.30379999
288.526703 -326.740692 -1.18879998
288.414795 -325.879395 -1.44910002
288.415894 -324.434204 -1.43980002
288.448792 -324.524811 0.421099991
288.453705 -324.043488 0.386500001
288.43576 -323.842773 -0.729949951
288.444397 -323.9646 -0.269699991
288.434906 -323.638397 -0.75120002
288.403198 -323.753296 0.0296999998
288.444214 -322.983307 -1.19089997
288.701813 -327.441895 -1.21959996
288.799713 -325.995209 0.3926
288.601013 -325.587891 0.324499995
288.981873 -331.267456 -1.31424999
288.97879 -331.3797 -1.18050003
288.85321 -330.929901 -1.38999999
288.974915 -328.747406 -1.46469998
288.915802 -328.512085 -1.40750003
288.867188 -328.480804 -1.26769996
288.855713 -328.399109 -1.47930002
288.825714 -328.174408 -1.31159997
288.969208 -326.920288 0.337700009
289.152161 -331.653107 -1.53990006
289.143005 -331.780487 -1.38119996
289.017303 -328.94931 -1.47160006
289.145203 -328.054688 0.511200011
289.053589 -325.774292 -1.57490003
289.397797 -332.236389 -1.51370001
289.373413 -328.897705 0.326599985
289.559204 -332.443298 -1.21710002
289.506409 -332.347809 -1.54680002
289.472595 -331.927399 -1.78250003
289.418304 -331.951385 -1.55340004
289.565002 -330.725586 0.0778999999
289.502502 -330.124512 0.068400003
289.449402 -329.888611 -0.116499998
289.499908 -329.71521 -0.985499978
289.722198 -333.679443 -1.72924995
289.728088 -333.512787 -1.96899998
289.799805 -333.514709 -1.41349995
289.718506 -333.321991 -1.58739996
289.771912 -331.467194 0.181099996
289.87265 -333.850006 -1.46165001
289.850098 -333.7547 -1.57939994
289.801208 -333.428802 -1.88919997
289.818207 -333.35611 -1.84130001
290.162292 -335.481903 -1.60580003
290.121887 -335.528992 -1.55379999
290.120789 -335.264893 -1.78279996
290.088898 -335.075012 -1.74049997
290.119995 -335.162811 -1.477
290.14975 -322.83783 -1.65464997
290.218292 -335.959198 -1.62919998
290.26651 -334.270508 -0.0553000011
290.339111 -334.282196 0.236300007
290.677704 -336.060089 -0.990100026
290.671143 -335.864044 -0.947250009
290.639313 -335.964508 -0.48300001
290.678192 -335.89801 -0.322600007
290.741394 -323.332214 -1.46340001
291.152008 -336.318604 -1.82249999
291.53009 -322.509888 -1.53709996
291.655792 -322.673401 -1.70630002
291.600189 -322.554688 -1.45819998
291.887787 -329.535187 -0.971499979
292.136597 -322.187012 -1.21350002
292.368591 -336.564087 -1.58669996
292.273499 -322.243805 -0.935000002
292.365295 -322.187103 -1.46599996
292.552307 -336.524689 -1.4971
292.531891 -336.305511 -1.97109997
292.5401 -322.296906 -1.38150001
292.771698 -322.165405 -1.04540002
292.985687 -335.500885 -1.35739994
292.916992 -335.519287 -0.380800009
292.975311 -323.256012 0.532599986
292.964203 -322.896515 0.41839999
292.905701 -322.489685 -1.6925
292.846649 -322.543945 -1.51049995
292.879791 -322.458099 -1.3175
292.817505 -322.328613 -1.60720003
292.830902 -322.266693 -0.913299978
293.017487 -322.951202 -1.10619998
293.361786 -325.485199 0.736699998
293.351807 -325.325989 0.539600015
293.266907 -324.8591 0.577899992
293.210388 -324.685486 0.379299998
293.208008 -324.537689 0.607599974
293.589203 -335.702087 -1.47109997
293.463501 -326.147949 0.543349981
293.762909 -335.644287 -1.30429995
293.789886 -328.043304 0.434199989
293.799805 -327.867798 0.479099989
293.764221 -327.688812 0.506150007
293.683502 -326.922302 0.455500007
293.605408 -326.782898 0.401300013
293.841003 -328.003387 0.546599984
293.832489 -327.311798 0.512499988
294.190613 -330.093201 0.376700014
294.122314 -329.616394 0.252400011
294.060394 -329.050903 -0.265799999
294.305511 -330.784607 0.458499998
294.334015 -330.525909 0.416099995
294.540894 -332.023895 0.332599998
294.466614 -331.456512 0.475899994
294.687988 -332.97229 0.390100002
294.758209 -332.941986 0.43810001
294.724915 -332.671204 0.437999994
294.931793 -336.001709 -1.42739999
294.819397 -335.643097 -1.64380002
294.97171 -335.442596 -1.41180003
294.889008 -333.489197 0.405800015
294.835693 -333.310211 0.412600011
295.177185 -336.098206 -1.50699997
295.073639 -336.126892 -1.28649998
295.185211 -335.855286 -1.84790003
295.014191 -335.536011 -1.50150001
295.159698 -335.144104 -0.824899971
295.163696 -335.081787 -0.549899995
295.159698 -335.065002 -0.187399998
295.168915 -335.122101 0.131799996
295.191101 -328.914215 0.484400004
295.150696 -321.748291 -1.35109997
295.100189 -321.762512 -0.816200018
295.309509 -336.057312 -1.35239995
295.232788 -335.803711 -1.87919998
295.300995 -335.827515 -1.59710002
295.258209 -335.667999 -1.44920003
295.223297 -335.178711 -0.926100016
295.234314 -322.657501 0.0671000034
295.241913 -322.522705 -0.988900006
295.251007 -322.562286 -0.504199982
295.257111 -322.551392 -0.299699992
295.256897 -321.922394 -1.04779994
295.282227 -321.773743 -1.27170002
295.436279 -321.868042 -1.14135003
295.686493 -321.853302 -1.61310005
295.603485 -321.866211 -1.46360004
296.160187 -327.707489 -1.37450004
296.336487 -328.813385 -0.331200004
296.368896 -328.616089 -1.24109995
296.392303 -328.66391 -1.04429996
296.377411 -328.732788 -0.750400007
296.376801 -328.627411 -0.439700007
296.35141 -328.6745 -0.0212999992
296.296906 -328.648193 0.368400007
296.35199 -328.596985 -0.835900009
296.434692 -328.636688 -1.48090005
296.719391 -321.513092 -0.730300009
296.627289 -321.3992 -0.827099979
296.862701 -322.021301 -0.763199985
296.905487 -321.452789 -1.28279996
296.877899 -321.524506 -1.05344999
296.971405 -321.366302 -1.06519997
297.104706 -321.512299 -1.26559997
297.163513 -321.553894 -0.958999991
297.45636 -335.536804 -1.90629995
297.513702 -334.981415 -1.28849995
297.504913 -334.882294 -0.717299998
297.45929 -334.664001 -0.628700018
297.453003 -334.627594 -0.51910001
297.480194 -334.724609 -0.264499992
297.477509 -334.7146 0.02245
297.451202 -334.679108 0.301800013
297.527802 -322.389587 0.129299998
297.562714 -322.264587 0.341600001
297.517395 -322.288086 0.418799996
297.549591 -322.154785 -0.657599986
297.538391 -322.123291 -0.486799985
297.505493 -322.195007 0.526300013
297.780212 -335.333099 -1.52390003
297.703491 -335.049103 -1.54229999
297.773987 -334.888489 -1.41509998
297.635406 -334.853699 -1.09780002
297.878815 -335.270599 -1.5618
297.885864 -335.247955 -1.13404989
297.815613 -321.24115 -1.09759998
298.083313 -321.452942 -0.707650006
298.017609 -321.358307 -1.07579994
298.26001 -321.473114 -1.22019994
298.570709 -328.218506 -0.515699983
298.596985 -328.352203 0.0401000008
298.577606 -328.284302 0.571099997
298.599609 -328.181396 -0.74150002
298.443298 -321.606415 -1.66919994
298.498688 -321.457306 -1.30350006
298.412292 -321.387695 -1.22969997
298.614014 -335.728607 -1.82630002
298.662598 -328.247498 -1.34019995
298.604614 -328.351105 -0.457899988
298.614014 -328.321686 0.192399994
298.614807 -328.300354 0.358550012
298.654999 -328.152405 -1.36140001
298.904663 -335.315033 -1.46500003
298.962311 -321.249115 -0.782100022
299.166992 -335.322296 -1.66820002
299.0979 -335.068542 -1.54399991
299.136108 -335.049988 -1.37510002
299.083496 -321.173187 -1.17420006
299.330048 -335.278076 -1.76565003
299.253906 -335.35907 -1.13829994
299.351959 -335.14386 -1.89787507
299.340515 -335.112396 -1.66960001
299.346008 -321.024292 -1.34249997
299.376709 -321.092407 -1.18490005
299.453308 -335.240814 -1.28779995
299.591614 -321.0979 -1.45749998
299.799896 -334.60791 -0.0167999994
299.731812 -334.430695 -0.673099995
299.737305 -334.460266 -0.51880002
299.690613 -334.458893 -0.0855000019
299.737488 -334.441589 0.354900002
299.680206 -334.505188 0.419400007
299.720215 -334.373199 -1.43770003
299.730896 -334.304688 -0.686749995
299.733337 -334.353363 -0.50396663
299.705414 -334.316986 -0.283800006
299.67627 -334.259796 -0.188749999
299.693909 -334.299408 0.0760666654
299.699951 -334.230804 0.308833331
299.738708 -334.26239 0.406100005
299.77948 -322.125977 0.704900026
299.795197 -322.012787 0.95389998
299.766357 -321.923035 0.50910002
299.656799 -321.922485 0.930499971
299.743286 -321.768188 -0.0632999986
299.722107 -321.756531 0.0778499991
299.793304 -321.799713 0.316000015
299.780792 -321.353088 -1.1487
299.750214 -321.32309 -0.651799977
299.726013 -321.10968 -1.15575004
299.671967 -320.939087 -1.08975005
299.828308 -339.737701 -1.89100003
299.924194 -334.580597 -1.41779995
299.867493 -334.481689 0.412099987
299.959991 -323.2453 0.575200021
299.979401 -323.223206 0.74180001
299.981293 -323.298401 0.833999991
299.93811 -323.123108 0.786300004
299.922729 -322.756836 0.701133311
299.941711 -322.785889 0.820500016
299.858704 -322.551697 0.773199975
299.829407 -322.166687 0.853900015
299.83252 -321.915649 -0.441700011
299.822113 -321.865906 0.0379999988
299.949005 -321.971191 0.214100003
299.822693 -321.797699 -0.4727
299.82431 -321.799011 -0.3204
299.805389 -321.788086 -0.0408999994
299.812286 -321.789215 0.662500024
299.852692 -321.774902 0.909300029
