# .PCD v0.7 - Point Cloud Data file format
VERSION 0.7
FIELDS x y z
SIZE 4 4 4
TYPE F F F
COUNT 1 1 1
WIDTH 90
HEIGHT 1
VIEWPOINT 0 0 0 1 0 0 0
POINTS 90
DATA ascii
141.808701 -208.242599 1.31719995
144.397003 -208.810394 1.755
144.496399 -209.605499 2.05139995
144.783905 -213.959702 1.57679999
145.124603 -214.376205 1.81850004
146.306595 -215.934204 1.86810005
147.165695 -217.850906 1.46290004
148.162003 -216.877502 2.41960001
148.418304 -216.640305 2.5072999
148.966995 -216.404099 2.28049994
148.873795 -216.347305 2.41129994
149.420898 -216.418396 2.52469993
149.502304 -215.945206 2.42479992
149.958405 -211.485504 2.01149988
150.173294 -215.445099 2.05480003
150.080704 -212.173004 2.08739996
150.1436 -206.0466 0.440299988
150.565903 -215.8965 1.89600003
150.490097 -214.7117 2.08739996
150.554398 -214.253998 2.00079989
152.237 -205.667099 1.53470004
152.890594 -209.334106 2.8585
153.338501 -212.625595 2.07590008
153.267899 -209.919601 1.86559999
153.2659 -209.705307 2.03259993
153.364197 -209.487595 1.78960001
153.787201 -210.029007 2.11100006
154.179001 -208.331604 2.99429989
154.313705 -210.736603 2.51690006
154.553101 -210.744995 2.55500007
154.504593 -207.604797 1.23520005
154.436905 -207.332901 1.99580002
154.512894 -202.295898 1.45449996
154.752106 -207.719604 1.82439995
154.668594 -202.381805 1.79830003
154.9431 -207.511093 1.93359995
154.889206 -201.660095 1.5359
155.118607 -207.197205 1.58469999
155.097 -206.489807 1.62909997
155.371597 -206.75 2.56270003
155.273895 -202.743103 2.1171
155.432404 -202.403107 2.12210011
155.433197 -201.7677 0.521700025
155.944595 -201.451599 1.73520005
156.044296 -201.841293 1.62750006
156.043304 -201.669601 1.2687
156.167404 -201.6651 2.6099999
156.156601 -201.459793 1.87520003
156.2314 -213.959 1.92229998
156.207306 -201.507401 1.45539999
156.270004 -201.263397 1.96560001
156.218399 -200.723999 1.37960005
156.415497 -215.124298 1.09790003
156.411194 -213.339294 2.1256001
156.685196 -214.557205 1.08580005
156.6548 -211.356705 1.91489995
156.724396 -210.644608 0.87559998
156.9319 -212.783295 2.06830001
156.917801 -205.041702 1.31770003
157.006195 -212.513 1.65910006
157.016693 -212.446503 1.92729998
157.075897 -205.540298 1.16639996
157.352402 -214.617004 0.892799973
157.341904 -214.440704 2.21729994
157.350204 -214.173599 2.15890002
157.560196 -214.474396 1.19260001
157.546906 -213.974792 2.0374999
157.588303 -213.337204 1.85459995
157.522308 -204.654449 2.29465008
157.654999 -213.672501 1.94640005
157.743301 -205.670303 2.13179994
157.773697 -205.526093 1.97169995
157.813095 -214.939102 1.46959996
157.899002 -211.168198 2.48939991
157.888 -205.515503 1.87670004
158.089493 -213.208298 0.619899988
158.212402 -212.485794 1.77129996
158.387299 -205.108994 1.82449996
158.360596 -204.057602 0.532999992
158.2742 -204.130707 1.05879998
158.747299 -212.678207 2.05629992
158.606094 -200.380005 4.06500006
158.8293 -212.190796 2.22659993
158.845398 -203.434601 0.759500027
158.878998 -202.668198 1.62880003
158.852295 -202.165894 3.04310012
159.054794 -214.450302 1.56169999
159.794907 -214.867798 1.1437
159.648407 -204.281799 1.10459995
159.607697 -203.407593 0.636699975
