# .PCD v0.7 - Point Cloud Data file format
VERSION 0.7
FIELDS x y z
SIZE 4 4 4
TYPE F F F
COUNT 1 1 1
WIDTH 781
HEIGHT 1
VIEWPOINT 0 0 0 1 0 0 0
POINTS 781
DATA ascii
40.1063004 -96.6427002 4.09009981
40.1305008 -96.6041031 4.62639999
40.0329018 -96.4993973 4.42770004
40.217701 -96.2388992 4.3052001
40.2980003 -96.3125992 4.47249985
40.9992981 -97.5559998 1.0395
41.3735008 -92.3410034 0.810400009
41.524601 -92.5963974 0.716899991
41.4263496 -92.5208435 1.05259991
41.6026993 -97.7390976 1.24319994
44.388401 -92.5105972 1.19879997
45.1461983 -98.3422012 1.09710002
45.5536003 -97.7354965 1.14199996
45.6325989 -97.7500992 1.20799994
46.9417 -95.9196014 2.05640006
46.8544006 -95.7377014 2.13199997
46.8195 -95.4856033 1.91340005
46.8470001 -95.5734024 2.22399998
46.9454002 -95.4182968 2.51130009
46.8064995 -95.2639999 2.40879989
47.0862503 -95.5389481 2.63035011
47.1077003 -95.1362 2.3045001
47.0540009 -94.9284973 2.21679997
47.3712006 -92.5641022 1.05410004
48.593399 -93.4508972 0.906400025
49.6327019 -97.9533997 1.17610002
50.1231995 -92.3326035 1.14629996
50.2299004 -92.5548019 0.879999995
51.1543007 -85.6399994 0.545300007
51.8875999 -97.9001007 1.23839998
52.3951988 -94.2506027 1.50320005
52.3862 -94.2254028 1.60500002
52.3721352 -94.1023026 2.54949999
52.387352 -93.8169556 2.30739999
52.3097 -93.8875504 2.67659998
52.390152 -93.6419983 2.30324984
52.3893509 -93.4299011 1.88950002
52.3483009 -93.5554962 2.12129998
52.3331985 -93.3367996 1.71710002
52.2943993 -93.2530975 1.95070004
52.4637985 -97.0774994 1.0632
52.4765015 -94.3226013 0.898800015
52.4417992 -94.3153992 1.13320005
52.4441986 -94.3097992 1.95290005
52.4225998 -94.2675018 2.55719995
52.4338989 -93.6896515 0.723099947
52.4175987 -93.6078033 2.06360006
52.4221992 -93.3240967 0.663699985
52.4834518 -93.3023987 1.06064999
52.466301 -93.3350983 1.34829998
52.4234009 -93.1942978 1.14590001
52.4369011 -93.1619034 1.35679996
52.4878998 -92.9740982 0.727500021
52.6152 -94.2845001 2.80110002
52.6822014 -93.6352997 1.51250005
52.789299 -92.1296005 1.14189994
52.8824501 -94.3133545 2.91275001
52.9672012 -93.8021011 1.926
52.956501 -93.9862976 2.82719994
52.9108505 -92.7624054 0.765950024
52.9558983 -92.2169037 1.03569996
52.8778 -92.1408005 1.1918
52.8049011 -86.2164001 0.546700001
53.0598984 -93.7202988 0.78579998
53.0327988 -93.7528 1.63119996
53.0545998 -92.9593964 0.833400011
53.0941353 -92.3338699 0.905233324
53.0024986 -92.1987991 1.10450006
53.1665993 -80.3831024 0.437400013
53.3377991 -86.2356033 0.441100001
53.3255005 -85.0792999 0.478599995
53.4185982 -94.2404022 2.73379993
53.5130997 -94.186203 2.75760007
53.5839996 -94.1028976 2.85109997
53.5559006 -80.0289993 0.460999995
53.778801 -97.2891006 1.03470004
53.723999 -94.2074966 2.87899995
53.7019005 -94.1372986 2.49849987
53.7196999 -94.0407028 3.11310005
53.7364998 -88.0776978 0.707599998
53.6186981 -81.2601013 0.451499999
53.9632988 -94.2259979 2.62529993
54.0312996 -94.2192001 2.89980006
54.0559006 -93.518898 0.943099976
54.3566017 -94.2005997 2.80550003
54.5550003 -94.2338028 2.92630005
54.4799004 -94.1667023 2.81699991
54.5433006 -93.7778015 1.70669997
54.4415016 -85.8983994 0.504999995
54.6106987 -98.2315979 1.01719999
54.6334991 -97.879097 0.9824
54.618 -94.1034012 2.86919999
54.7176018 -93.7446976 1.85339999
54.6497993 -86.6299973 0.575100005
54.6286011 -82.8223038 0.500999987
54.6450996 -82.3637009 0.395399988
54.7579994 -81.9404984 0.408100009
54.9393005 -98.0053024 1.11609995
54.9389 -98.0455017 1.29449999
54.9482994 -94.2460022 2.87919998
54.8582993 -94.1343994 2.91094995
55.053299 -95.5503006 1.76999998
55.1348 -94.2406998 2.86509991
55.3644981 -98.3042984 1.13520002
55.3133011 -97.7984009 1.22829998
55.3965988 -94.3669968 1.19529998
55.3059502 -94.282753 1.29894996
55.3717499 -94.3209534 1.74565005
55.3026009 -94.1950989 1.03030002
55.3263016 -94.196701 1.28429997
55.2915001 -94.1674042 1.47685003
55.3384018 -94.1173019 2.93849993
55.2762985 -93.9656982 2.76069999
55.3494339 -93.7009964 2.54783344
55.3459015 -93.5867004 2.38039994
55.2896996 -93.2207031 1.3312
55.3193016 -80.7128983 0.4014
55.4291992 -94.2110977 2.44589996
55.4101982 -94.2593994 2.88459992
55.428299 -94.2114029 3.05769992
55.5259018 -93.2594986 1.4418
55.448101 -93.2006989 1.71500003
55.4053001 -93.3553009 1.82439995
55.4723015 -93.1932983 1.51489997
55.4998512 -92.8894958 0.995050013
55.5881996 -91.8855972 0.756799996
55.7131996 -98.2381973 1.12109995
55.6972008 -98.1389999 1.26240003
55.7731018 -84.4464035 0.469700009
55.8880463 -98.2915039 1.15525007
55.9435005 -98.0667038 1.13460004
55.9560013 -95.3675995 0.824899971
55.928299 -95.1003036 0.888499975
55.8837013 -94.1353989 1.15719998
55.8748016 -93.8659973 1.46700001
55.9288483 -93.9593048 2.24870014
55.9967995 -93.6796036 0.894200027
55.9401016 -93.6838531 2.48180008
55.9990005 -93.4669037 2.17219996
55.9878998 -93.5270996 2.2888
55.9600983 -93.0178986 0.783999979
55.9570007 -92.8516998 0.933700025
55.9528008 -92.9508972 1.22309995
55.9119987 -92.7549973 0.713999987
55.9802513 -92.5164032 0.900399983
55.911499 -88.7134018 0.612900019
55.9473991 -84.8970032 0.512499988
55.8182983 -83.7778015 0.4287
56.0068016 -94.2662964 0.889900029
56.1626015 -94.237999 1.38740003
56.1977005 -94.2881012 1.87150002
56.0353012 -94.0968018 0.999199986
56.0325012 -94.1593018 1.06009996
56.0414009 -94.1623993 1.21350002
56.0503006 -94.1278 1.46259999
56.0304985 -94.1873016 1.71659994
56.0930023 -94.1288528 1.91170001
56.0516319 -94.1294708 2.08986664
56.1038513 -94.1022949 2.27635002
56.1111984 -94.0572052 2.53499985
56.0164986 -93.8844986 1.02909994
56.0723991 -93.8001022 2.35389996
56.0559998 -93.8824005 2.68009996
56.091301 -93.6222 1.88275003
56.0778999 -93.6576996 2.14280009
56.0377998 -93.7164001 2.32270002
56.0187988 -93.7899017 2.49070001
56.0256996 -93.5830002 0.739050031
56.0275002 -93.550499 0.909300029
56.0481987 -93.4365997 2.17199993
56.0512505 -93.2640533 1.48757505
56.1824989 -93.392601 1.61300004
56.033699 -93.3084488 1.83280003
56.0236015 -93.0318985 0.703499973
56.0418015 -93.0800018 0.961499989
56.0455017 -93.1144028 1.54509997
56.0244522 -92.9398956 0.755699992
56.0135002 -92.9981003 0.93629998
56.0560989 -92.2185974 0.763800025
56.0483017 -92.3079987 1.05359995
56.0093994 -85.3929977 0.487500012
56.0153008 -84.0768967 0.442600012
56.3768997 -95.6042023 1.72130001
56.3044014 -94.0870972 2.6631
56.2420998 -93.8040009 2.46029997
56.4303017 -96.6997986 0.983200014
56.5485992 -93.6492996 1.86539996
56.5368004 -93.5597992 1.73689997
56.4160995 -93.2914963 1.19599998
56.4332008 -85.0895996 0.470499992
56.7244987 -97.6216965 1.02820003
56.6973 -94.1176987 2.78439999
56.7803001 -94.0261993 2.97270012
56.7789001 -93.9601974 2.51929998
56.7809982 -93.6517029 1.72650003
56.7568016 -93.479599 1.50650001
56.7247009 -93.3598022 1.51199996
56.6339989 -92.1007004 1.1444
56.7510986 -82.3878021 0.427300006
56.7142639 -81.8550644 3.21379995
56.7659988 -81.6700974 3.16599989
56.6175995 -81.6952972 3.23539996
56.712101 -81.5715485 3.1312499
56.6091003 -80.219101 0.374599993
56.8739014 -94.8597031 0.838800013
56.8852005 -94.0822983 2.52729988
56.8276978 -94.0988464 2.91300011
56.8103981 -93.8656006 2.25580001
56.9047012 -93.9822998 2.76390004
56.8055 -93.5236969 1.5503
56.9987984 -91.5419998 0.712800026
56.9098015 -90.3813019 0.669099987
56.9777985 -89.7157974 0.720600009
56.9720001 -86.2767029 0.558200002
56.9966011 -85.3625031 0.475400001
56.8316002 -81.8543015 3.26760006
56.8114471 -81.7490005 3.1493001
56.8419991 -81.7381973 3.25460005
56.8448982 -81.5821991 3.09669995
57.0813484 -94.0523529 2.90805006
57.1012001 -93.8323975 2.36940002
57.0127983 -93.9564972 2.43490005
57.0521011 -93.776001 1.88709998
57.1921997 -91.3279037 0.746800005
57.1719017 -84.5996017 0.448199987
57.1912994 -84.1007996 0.403899997
57.1472015 -83.9545975 0.456
57.0798988 -83.5976028 0.410299987
57.0284996 -83.0325012 0.415499985
57.1907997 -82.3190994 4.17589998
57.1861 -82.0675964 3.35409999
57.1991005 -81.8302994 3.18639994
57.1891479 -81.8752518 3.67054987
57.0013008 -81.7610016 3.16939998
57.1881485 -81.631752 3.70300007
57.0709991 -81.4419022 3.26830006
57.1775017 -81.4035034 3.48939991
57.1931 -81.4104004 3.76799989
57.0295982 -81.3302002 0.307200015
57.1417007 -81.3856964 3.12069988
57.1712494 -81.3131561 4.14055014
57.169548 -81.1088486 4.17679977
57.0960007 -80.9664001 0.350699991
57.1713028 -80.8121033 3.76950002
57.1485977 -80.8502045 3.87883329
57.1673012 -80.9589005 4.20800018
57.1453018 -80.634903 0.344700009
57.1685982 -80.7129974 3.3520999
57.1576996 -80.740303 3.42440009
57.1856995 -80.7414017 4.10309982
57.1590996 -80.7890015 4.24049997
57.2151985 -94.0764008 2.9749999
57.2458 -93.8940506 2.46079993
57.2929001 -92.0610962 0.759800017
57.2014008 -90.7089005 0.682600021
57.3014984 -84.2879028 0.40079999
57.2813492 -82.6893997 3.49294996
57.2747803 -82.4920197 3.34775996
57.2606354 -82.534668 3.47930002
57.2275314 -82.512764 4.09159994
57.2961006 -82.4582977 4.24880028
57.2445984 -82.2365494 3.13284993
57.2436676 -82.2770309 3.25006676
57.2915993 -82.3977966 4.12909985
57.2484016 -82.2972031 4.30159998
57.2585335 -82.105896 3.25873327
57.2498016 -82.0343018 3.72110009
57.2411346 -82.0711975 4.27466679
57.237999 -81.8899994 3.31658006
57.2417984 -81.8256989 3.73340011
57.2209015 -81.9625015 4.2810998
57.2596512 -81.7297211 3.32424998
57.2169991 -81.6223984 4.0152998
57.223053 -81.635849 4.27000046
57.2677002 -81.4800339 3.32013321
57.3488503 -81.4732971 3.45490003
57.2104988 -81.4964981 3.68779993
57.2303009 -81.5996017 4.18419981
57.2290001 -81.4828033 4.25209999
57.2247238 -81.2905502 3.11785007
57.2084007 -81.3043976 3.3591001
57.2206268 -81.2873993 4.26317501
57.2178001 -81.1008987 3.13450003
57.2179985 -81.1592026 3.30699992
57.2174988 -81.1094513 4.26195002
57.2689018 -80.9832001 0.352200001
57.2192993 -80.9834976 3.16810012
57.2783012 -80.8655243 3.32244992
57.2248001 -80.8998032 3.4921999
57.3445015 -80.8392029 3.98280001
57.2699013 -80.8199997 4.06510019
57.2215996 -80.9601974 4.25269985
57.2406502 -80.7444458 3.35169983
57.2798996 -80.7269974 3.59800005
57.2032013 -80.699501 3.86290002
57.2294998 -80.7786026 4.19999981
57.5265999 -96.7193985 1.00759995
57.4655991 -95.638298 1.61670005
57.5023003 -95.6645966 1.80920005
57.5542984 -94.1356964 2.99099994
57.4011993 -93.8491974 2.53460002
57.5289993 -93.555603 1.93780005
57.4449997 -92.5943985 0.751900017
57.4528008 -92.5850983 0.931900024
57.4892998 -85.9231033 0.540899992
57.4869995 -84.4531021 0.512499988
57.4799004 -82.467804 3.31375003
57.4968987 -81.722702 3.20020008
57.549099 -81.5705032 3.24110007
57.5996017 -81.0084 3.77859998
57.4846992 -80.8207016 3.65269995
57.4669991 -80.9082031 4.01809978
57.4006004 -80.5531998 0.336199999
57.6911011 -96.751503 0.800899982
57.7666016 -96.5167007 1.16260004
57.6563988 -96.5354996 1.31869996
57.7914009 -95.7444992 1.85679996
57.6651001 -95.3948975 0.814199984
57.7187996 -94.0627975 2.70770001
57.661499 -93.844101 2.29414988
57.6831017 -93.882103 2.55990005
57.7322006 -93.6867981 2.09310007
57.7095985 -93.4348984 1.73870003
57.7360992 -92.8731003 0.71390003
57.6222992 -85.0861969 0.505800009
57.6734505 -84.2879028 0.46329999
57.6664009 -82.2332993 3.20519996
57.6935501 -82.2818985 3.84675002
57.6926994 -82.1725998 3.35100007
57.7328987 -81.6853027 3.24799991
57.7725983 -81.4417038 3.33590007
57.7495499 -81.0852051 3.36759996
57.7108002 -81.1352997 3.75169992
57.7064018 -80.995697 0.298500001
57.6138992 -80.7988968 0.278299987
57.8426018 -96.4885025 0.997900009
57.9387016 -96.4501038 1.28400004
57.8148003 -96.3908997 0.999899983
57.9233017 -94.0251999 2.8599999
57.8452988 -93.9014969 2.3822999
57.9440536 -93.996994 2.87559986
57.9991989 -93.5636978 1.71879995
57.8073997 -93.3983994 1.45599997
57.8751984 -93.1797028 1.26059997
57.8972015 -89.1785965 0.621200025
57.9370003 -84.120697 0.407999992
57.8424988 -83.9449997 0.398999989
57.8540001 -83.6222 0.398200005
57.9877014 -83.6322021 0.421700001
57.8097 -82.8102036 0.493200004
57.9864006 -82.5849991 0.368999988
57.8985519 -82.0852966 3.25974989
57.9431 -81.9616547 3.30369997
57.8937988 -81.9917984 3.61570001
57.8132019 -81.7124023 3.19970012
57.9117012 -81.6292038 3.22429991
57.9744987 -81.4858017 3.11120009
57.8450012 -81.5214996 3.27710009
57.8346481 -81.263649 3.70799994
57.8572006 -80.7002029 0.416799992
57.9011002 -80.2031021 0.33860001
58.0203018 -96.5042038 0.993900001
58.1739006 -96.3442001 0.574599981
58.0153999 -96.3227997 1.22920001
58.037899 -94.0093002 2.77020001
58.1887016 -93.8729019 2.45709991
58.1240654 -93.9565048 2.72763324
58.1772003 -93.7266006 2.22289991
58.0293007 -93.5314026 1.92299998
58.012001 -93.3281021 1.3355
58.1062508 -93.1531982 1.15059996
58.1292992 -92.0121994 0.722599983
58.1214981 -91.5673981 0.722500026
58.0485001 -90.811203 0.691500008
58.1632004 -88.9177017 0.700800002
58.1092987 -86.4981003 0.506699979
58.1675491 -85.4417496 0.472050011
58.0057983 -84.5412979 0.481099993
58.1992989 -82.7994003 0.352999985
58.0842018 -81.8496017 3.2802
58.0157013 -81.8582993 3.41050005
58.099865 -81.6924973 3.26906657
58.0946999 -81.7022552 3.42009997
58.0945015 -81.5028 3.38369989
58.0886002 -81.5063019 3.48020005
58.3360519 -96.3296204 0.936850011
58.3439331 -96.3272018 1.06096661
58.3035507 -96.3209534 1.31305003
58.2477989 -96.1939011 1.15419996
58.3307991 -93.4641037 1.63779998
58.3577003 -93.2041016 1.22379994
58.2639008 -93.171402 1.39400005
58.3847008 -92.9684982 1.15450001
58.3359985 -92.2208023 0.769850016
58.3418999 -92.1110001 0.824400008
58.398201 -91.1344986 0.665000021
58.2167015 -90.8079987 0.619000018
58.3394012 -90.1090012 0.629700005
58.3256989 -89.8751984 0.588999987
58.286499 -89.5511017 0.6171
58.271801 -89.1495972 0.623700023
58.3064995 -88.5019989 0.57950002
58.2304001 -88.0268021 0.558899999
58.3862 -86.0357971 0.4472
58.2202988 -85.8840485 0.472450018
58.391201 -84.9626999 0.411900014
58.2492523 -84.3444519 0.464300007
58.3642006 -83.8924026 0.443199992
58.3223 -83.4852982 0.402700007
58.2495995 -83.3144989 0.43689999
58.3128967 -81.6340485 3.29235005
58.2262993 -81.6268997 3.40809989
58.2694511 -81.557251 3.29309988
58.3442001 -80.391098 0.332199991
58.3158989 -80.0839005 0.264499992
58.5959015 -96.9713974 0.750999987
58.5666008 -96.8534012 0.925700009
58.5788002 -96.7152023 0.914600015
58.530899 -96.6706543 1.06554997
58.4236984 -96.4292984 1.08914995
58.4693985 -96.5251007 1.25139999
58.4080009 -96.3990021 1.35039997
58.4832993 -95.6442032 0.822399974
58.5355988 -95.5830002 0.897099972
58.4912987 -94.0252991 2.58920002
58.5990982 -94.0589981 2.74569988
58.5760002 -94.0094986 2.84380007
58.5321999 -94.0465012 3.03449988
58.4488983 -93.9414978 2.97650003
58.463501 -93.6709976 2.09019995
58.4933014 -92.8879013 0.914799988
58.4248009 -92.9646988 1.03970003
58.4185028 -92.2201996 0.877950013
58.4062996 -92.2965012 1.11310005
58.5746994 -90.9196014 0.646000028
58.544899 -90.3991013 0.65170002
58.4682999 -89.9148026 0.630200028
58.5042 -88.8047028 0.628600001
58.5493011 -88.7019501 0.577049971
58.5054016 -86.1891022 0.4639
58.5423012 -85.6681976 0.437999994
58.4476013 -84.9508972 0.446200013
58.5572014 -84.4626999 0.429899991
58.4501991 -83.7070999 0.380800009
58.4625473 -83.5483551 0.426500022
58.4721985 -82.506897 0.368900001
58.4154015 -81.6416016 3.29469991
58.4103012 -81.4300003 0.446500003
58.7387352 -97.1327362 0.948199987
58.7268982 -97.1074524 1.06040001
58.6915016 -96.9461975 0.917200029
58.6759987 -96.8741989 1.02049994
58.6769981 -96.8451996 1.2026
58.6447983 -96.9912033 1.49699998
58.7080994 -95.5976028 0.874899983
58.6843987 -94.0124969 2.64039993
58.7616005 -93.8067017 2.15610003
58.6918983 -93.969101 2.8757
58.6161003 -93.4728012 2.08400011
58.7794991 -93.2729034 0.875500023
58.6943016 -93.2125015 1.36720002
58.7355995 -93.3712006 1.99059999
58.7667999 -93.0422974 1.29779994
58.6680984 -93.1378021 1.54980004
58.7472992 -92.9701004 1.22469997
58.6627007 -92.7804031 0.939300001
58.7284012 -91.5362015 0.657599986
58.6731987 -90.7675018 0.653500021
58.632 -89.8566971 0.611299992
58.7069016 -89.5605011 0.580600023
58.7748985 -88.7173004 0.545599997
58.667099 -87.8249969 0.561500013
58.6934013 -86.928299 0.52579999
58.6227989 -86.2002029 0.487199992
58.7715988 -83.9602966 0.344300002
58.7643013 -83.6779022 0.309799999
58.7616997 -83.3693008 0.358500004
58.7770004 -82.9847031 0.377999991
58.6567993 -82.5457001 0.351099998
58.7631989 -81.5365982 2.9993
58.7517014 -81.5305023 3.05159998
58.6439247 -81.5261002 3.28410006
58.6526489 -81.5348511 3.40299988
58.6939011 -80.7621994 0.338200003
58.6776009 -80.0625992 0.336100012
58.8429985 -98.0929031 1.07430005
58.9831009 -97.8946991 1.03480005
58.9777985 -97.9177017 1.2277
58.9104004 -97.4235001 1.02289999
58.8726006 -97.3116989 0.967999995
58.8086014 -97.3563995 1.15470004
58.8212013 -97.1583023 0.998099983
58.9972 -96.3144989 0.886500001
58.9697495 -94.1166534 0.759350002
58.9931984 -94.0783997 0.811999977
58.918602 -94.0879974 1.10925007
58.9202995 -94.0511017 1.33886671
58.8666 -94.0145035 1.47000003
58.9291992 -94.028244 1.64910007
58.9962997 -94.0217972 1.84179997
58.9487991 -94.0458984 2.00710011
58.9692001 -94.0128021 2.39890003
58.8166008 -94.0280991 2.81879997
58.9304008 -93.9916992 0.762099981
58.9384003 -93.9421005 0.915799975
58.8352509 -93.9607544 1.11724997
58.9333 -93.9936981 1.54869998
58.8255997 -93.9512024 1.70920002
58.9305992 -93.9586945 1.85380006
58.8661995 -93.8665009 2.28670001
58.9533997 -93.9637985 2.4999001
58.8972015 -93.9140701 2.69233322
58.8300018 -93.9803009 2.81660008
58.8196983 -93.7003021 2.33995008
58.914299 -93.6662979 2.63680005
58.8876495 -93.4904022 1.73755002
58.9089012 -93.5358963 1.86790001
58.8959999 -93.4128494 2.02999997
58.9059525 -93.5418549 2.28264999
58.9452019 -93.5683975 2.67020011
58.9301987 -93.3156967 0.798200011
58.8359985 -93.3171005 1.33309996
58.9347496 -93.2397003 1.67694998
58.911499 -93.245903 2.18109989
58.8867493 -93.3587952 2.36439991
58.8991508 -93.1410065 1.36194992
58.9262009 -93.1445007 1.7215333
58.8989487 -92.8821487 0.738900006
58.9651489 -92.8767548 1.13610005
58.9192009 -92.9343338 1.23763335
58.9031982 -92.995697 1.43889999
58.9346008 -92.7508011 0.679400027
58.9766998 -92.7369003 0.825900018
58.8455009 -92.7655029 1.11895001
58.9165993 -91.3566971 0.606000006
58.9952011 -88.7208023 0.55369997
58.9902992 -87.8370972 0.540700018
58.8685989 -87.6744995 0.522499979
58.9319 -85.9447021 0.445100009
58.8736 -85.6615982 0.424699992
58.9972992 -85.4349976 0.421099991
58.9491005 -85.0401001 0.439599991
58.8849983 -84.5959015 0.453299999
58.9109993 -84.3494492 0.37985
58.9812012 -83.8522034 0.379900008
58.9319992 -83.7501984 0.329299986
58.8769493 -83.0839539 0.363950014
58.9192009 -82.6874008 0.395000011
58.9513016 -82.552597 0.373899996
58.9641495 -81.6544037 3.06695008
58.9441986 -81.5317993 0.950200021
58.9305 -81.5509033 1.13540006
58.9393005 -81.5541 1.59580004
58.9583015 -81.5233002 1.85339999
58.9318008 -81.5365982 2.66659999
58.9216995 -81.5382004 2.96414995
58.9603004 -81.5432968 3.06900001
58.8901978 -81.5227509 3.30739999
58.8712997 -81.2197037 0.386299998
58.9920006 -81.2220993 0.424199998
58.9814987 -81.348999 0.667800009
58.9762001 -81.0934982 0.360700011
58.9636993 -81.1496964 0.456049979
58.9221001 -80.8851471 0.353349984
58.8759003 -80.6984558 0.313749999
58.9416008 -80.4483032 0.323900014
58.8750992 -80.3820038 0.189799994
58.9986 -80.0749969 0.323500007
59.1185989 -97.9550018 1.03380001
59.1010017 -97.4888 0.943400025
59.023201 -97.4669037 1.00150001
59.0400009 -97.3694 0.970200002
59.0922012 -96.8619995 0.978900015
59.0503998 -95.3985977 0.833199978
59.0144005 -94.1138 1.2414
59.0096016 -94.1230011 1.59609997
59.1209488 -94.1517487 2.12004995
59.0390015 -94.1390991 2.2026
59.0561981 -94.0774994 2.46720004
59.0046005 -94.0296021 2.66569996
59.0326004 -93.995903 2.6329
59.0050011 -93.1240997 0.722500026
59.0405998 -93.1082993 1.42299998
59.1231995 -91.2472992 0.59009999
59.1044006 -90.910202 0.616599977
59.1607018 -90.4937973 0.518299997
59.1963997 -90.4643021 0.63440001
59.1213989 -89.5151978 0.576399982
59.0578995 -89.321701 0.490999997
59.1553001 -89.077301 0.458400011
59.0651016 -88.9450989 0.546899974
59.1277008 -87.9371033 0.521899998
59.0741997 -87.7974014 0.550400019
59.1274033 -87.3242493 0.48939997
59.1174011 -87.2184982 0.721700013
59.0756683 -86.5334015 0.491099983
59.0066986 -86.3001022 0.473100007
59.0663986 -86.0042038 0.417899996
59.0466995 -85.8171997 0.407299995
59.0337982 -85.1902008 0.420899987
59.0214005 -84.9343033 0.362899989
59.0984993 -84.6551971 0.369300008
59.035099 -84.4052963 0.395700008
59.0008011 -84.5138016 0.426299989
59.013401 -84.0081024 0.352899998
59.1184502 -83.889122 0.357749999
59.0932655 -83.6868668 0.365366668
59.1809006 -83.4175034 0.328000009
59.1613998 -82.8125 0.325300008
59.1461983 -82.1549988 0.466399997
59.0997009 -82.0972977 0.609399974
59.0791016 -82.0410995 0.821399987
59.1090355 -81.8872681 0.687666655
59.0568008 -81.6041031 0.58099997
59.0766983 -81.7240982 0.788900018
59.0765152 -81.7105331 0.898916662
59.0753403 -81.6810226 1.08606005
59.0759506 -81.6399002 1.30050004
59.0714989 -81.6470032 1.47692502
59.0789261 -81.673645 1.63380003
59.0784988 -81.7242966 1.83829999
59.0642471 -81.6502991 2.11355019
59.1123505 -81.6972504 2.31034994
59.0753021 -81.6445999 2.50425005
59.1108322 -81.6489639 2.89126658
59.0177994 -81.6399002 3.0552001
59.1067657 -81.5371323 0.549233317
59.0809669 -81.5680008 0.689433336
59.0993996 -81.5898972 1.52709997
59.0503998 -81.5653534 1.75209999
59.0194016 -81.5915985 1.8441
59.0692673 -81.5615005 2.07786679
59.0722008 -81.5518036 2.31130004
59.0962982 -81.588501 2.40380001
59.0511017 -81.5569305 2.69420004
59.1053009 -81.5421295 2.90385008
59.0325012 -81.4707031 3.12529993
59.1869011 -81.2440033 0.376599997
59.0168991 -81.2248993 0.490500003
59.1063995 -81.1769028 0.377299994
59.1001511 -80.8278961 0.301100016
59.0033989 -80.2553024 0.232600003
59.1477013 -80.1072998 0.319200009
59.3877983 -95.935997 0.874000013
59.3267517 -95.7568054 1.81455004
59.2697983 -94.3215027 0.779299974
59.2056007 -94.1705017 2.69959998
59.3774986 -91.6384964 0.597199976
59.3524017 -91.4721985 0.656400025
59.2966003 -90.8159027 0.572799981
59.3967018 -89.1755981 0.476500005
59.2022018 -88.776001 0.498899996
59.2254982 -88.3541031 0.515299976
59.3303986 -87.7109985 0.452899992
59.2384987 -87.1361008 0.422699988
59.2270012 -86.6171036 0.463099986
59.2556992 -85.879097 0.439700007
59.2863998 -84.8552017 0.386400014
59.3741989 -84.2463989 0.257600009
59.3077011 -84.364502 0.438300014
59.2164993 -84.1644974 0.343800008
59.2442017 -83.9761963 0.365099996
59.3055992 -83.3499985 0.4208
59.3876991 -82.8646011 0.355199993
59.2801018 -81.6461029 2.79990005
59.2277985 -81.5803986 2.35949993
59.3558998 -81.5279007 2.5316
59.3620682 -81.5792007 2.69506669
59.263401 -81.5675964 2.85590005
59.2476006 -81.2289963 0.612500012
59.2889671 -81.17453 0.492933333
59.5992012 -96.8410034 0.947600007
59.5470009 -96.1337967 0.860599995
59.5172005 -94.783699 0.824000001
59.5171013 -92.839798 0.652899981
59.4967995 -92.6776962 0.671199977
59.5838013 -92.4902954 0.642949998
59.4888992 -90.1091003 0.574299991
59.5713997 -88.560997 0.49939999
59.4188995 -88.0679016 0.502200007
59.5561981 -87.9410019 0.511900008
59.5934982 -86.8255005 0.458700001
59.509201 -84.4378967 0.385600001
59.5741997 -84.1038971 0.351900011
59.4302521 -83.9071503 0.36954999
59.5103989 -83.9898987 0.405200005
59.5077019 -83.0157013 0.338400006
59.512001 -81.6251984 2.49009991
59.4752502 -81.6712036 2.67610002
59.506134 -81.5609665 2.50466681
59.5112 -81.4915009 2.68195009
59.403801 -81.2380981 0.337099999
59.5703011 -81.1453018 0.353199989
59.5306015 -81.1230011 0.50910002
59.7916985 -97.6022034 1.16639996
59.7686996 -97.367897 0.775099993
59.7140007 -97.3098984 0.930400014
59.7535667 -97.3162308 1.08369994
59.6309013 -96.9667969 1.02869999
59.6102982 -96.7259979 0.833500028
59.6171989 -96.4173965 0.929799974
59.760601 -95.7273026 1.93180001
59.6306992 -94.4011002 0.742799997
59.7607002 -93.1684036 0.782999992
59.6660995 -92.093399 0.652400017
59.7943993 -91.0357971 0.537999988
59.6786003 -90.6056976 0.559800029
59.7219009 -90.1514969 0.593500018
59.7410011 -89.8384018 0.573800027
59.770401 -89.6407013 0.536899984
59.7713013 -89.5025024 0.557600021
59.6683998 -89.213501 0.604499996
59.6657982 -89.0302963 0.52670002
59.6304016 -88.3220978 0.52700001
59.780899 -88.058197 0.515200019
59.7565994 -87.2425995 0.453900009
59.6002007 -86.3890991 0.487699986
59.6502991 -84.7232971 0.424499989
59.7140999 -84.4360962 0.358099997
59.6917992 -84.2740021 0.371199995
59.7849007 -83.8106003 0.362199992
59.664299 -82.504303 0.267399997
59.7234993 -81.6464005 2.16659999
59.6944008 -81.6094971 2.33899999
59.6802521 -81.6531525 2.49429989
59.655899 -81.6405029 2.77200007
59.7612991 -81.4160995 2.14240003
59.7134476 -81.5729523 2.25775003
59.6022987 -81.5150986 2.46860003
59.6141014 -81.5878983 2.67389989
59.7535019 -81.1156998 0.3847
59.7681007 -81.1001968 0.507099986
59.7542992 -80.8873978 0.295300007
59.6566467 -80.7003021 0.358150005
59.6894989 -80.1100006 0.245100006
59.8540993 -97.4665985 1.10283327
59.8358002 -97.3178024 0.958199978
59.8759003 -96.4308014 0.861999989
59.9468498 -95.502243 0.865649998
59.8059006 -94.6816025 0.597899973
59.8786011 -93.4782028 0.805100024
59.9634323 -93.2868958 0.760366678
59.9634018 -93.2069016 4.46649981
59.8614998 -93.1961975 0.784399986
59.9561996 -93.115799 3.50329995
59.9948006 -93.0187988 3.78290009
59.9743004 -93.0195007 3.8433001
59.8917007 -93.1379013 4.58690023
59.9073982 -92.9262009 3.30749989
59.9257011 -91.9197998 0.603699982
59.8875999 -91.1576004 0.594200015
59.9006996 -90.751503 0.636200011
59.8874512 -89.7364502 0.564399958
59.8214989 -88.5354004 0.526300013
59.9648018 -88.1790009 0.471799999
59.9970016 -86.9665985 0.417100012
59.9961014 -86.5955963 0.460599989
59.9868011 -86.1689987 0.422699988
59.8674011 -84.9141998 0.391299993
59.9422989 -84.6727982 0.388500005
59.8928986 -84.7443008 0.422150016
59.924202 -84.0765991 0.369499981
59.8484993 -83.8374023 0.403600007
59.8440018 -83.0401001 0.327199996
59.8412018 -82.9093018 0.332199991
59.9948006 -82.3933029 0.362300009
59.9167328 -81.6639862 1.68681669
59.8667412 -81.6614151 1.92687142
59.9636002 -81.5141983 1.55256665
59.90905 -81.5441513 1.68985009
59.8414001 -81.526001 1.86520004
59.8302002 -81.5873032 2.33349991
59.8613014 -81.0996246 0.339874983
59.8740005 -81.1304474 0.4745
59.9570007 -81.1706009 0.62349999
59.9150009 -80.8304443 0.321049988
59.8714981 -80.9802017 0.416799992
59.9144249 -80.6782532 0.264899999
59.9294014 -80.4381027 0.25850001
59.8861008 -80.3317566 0.313699991
59.8973999 -80.0941467 0.308149993
