# .PCD v0.7 - Point Cloud Data file format
VERSION 0.7
FIELDS x y z
SIZE 4 4 4
TYPE F F F
COUNT 1 1 1
WIDTH 34
HEIGHT 1
VIEWPOINT 0 0 0 1 0 0 0
POINTS 34
DATA ascii
280.047089 -176.248505 11.349
280.324799 -177.651794 11.7296
280.470703 -177.624405 10.1382999
280.5578 -177.658707 10.6048002
280.582306 -175.223694 15.2129002
280.639313 -178.748505 13.2711
280.675507 -177.483002 10.0337
280.774109 -175.037903 14.7638998
280.8992 -177.370102 10.4667997
280.839813 -177.379501 13.7875996
280.811401 -176.875595 12.2524996
281.185791 -177.091095 12.3747997
281.069 -175.365997 15.1921997
281.245392 -178.789795 12.7229996
281.300598 -177.225204 11.1961002
281.432495 -178.921997 12.8842001
281.588409 -177.082199 14.5586996
281.786499 -177.828995 11.2795
281.611694 -177.300095 10.0565996
281.797302 -177.148605 10.3915005
281.769196 -176.9039 12.4219999
281.858002 -177.842194 13.8340998
281.9198 -177.065598 10.3929996
281.9039 -176.961395 12.5164003
282.227997 -176.891602 10.4483995
282.804108 -179.515701 13.3157997
283.265106 -179.618698 11.0945997
283.472687 -179.580307 11.2758999
283.42569 -176.768295 15.7348003
283.958496 -177.624207 11.8021002
284.058289 -176.775406 15.7889004
284.286407 -178.787003 13.0044003
284.995514 -179.759094 12.5402002
286.276001 -177.826096 13.5396996
