# .PCD v0.7 - Point Cloud Data file format
VERSION 0.7
FIELDS x y z
SIZE 4 4 4
TYPE F F F
COUNT 1 1 1
WIDTH 58
HEIGHT 1
VIEWPOINT 0 0 0 1 0 0 0
POINTS 58
DATA ascii
206.354401 -161.896194 14.3427
206.342804 -161.138504 16.4188004
206.357101 -161.019501 17.0426998
206.357605 -161.056107 17.5713997
206.263107 -160.931503 16.3034992
206.322693 -160.639999 14.0101004
206.275101 -160.585693 16.4743996
206.366592 -160.3573 13.3459997
206.385406 -160.292099 15.1961002
206.281906 -160.216995 15.7907
206.327499 -160.2742 16.7565002
206.385193 -160.0401 10.2568998
206.340103 -160.134995 15.0108995
206.556702 -163.204407 15.3952999
206.572098 -163.082901 15.0115995
206.466995 -162.293396 14.7086
206.537704 -162.286407 14.9082003
206.589996 -162.051407 14.6288004
206.417099 -162.168304 15.5370998
206.526703 -161.631805 14.7511997
206.454605 -161.407501 16.5998001
206.516907 -161.323502 9.55270004
206.510498 -161.318604 12.9659004
206.426804 -161.351593 14.6892996
206.460999 -161.238205 15.4295998
206.457703 -161.1241 15.5031996
206.466995 -160.859207 11.901
206.509598 -160.935394 14.0410995
206.473602 -160.812103 14.8740997
206.411697 -160.944305 15.3435001
206.492203 -160.991898 16.2366009
206.4095 -160.920593 16.9929008
206.535706 -160.732407 15.5270996
206.450302 -160.383408 15.1163998
206.738403 -165.001907 14.2243996
206.720093 -164.219894 13.2723999
206.6483 -164.383499 17.4451008
206.668594 -163.6035 14.5464001
206.6698 -163.684204 17.4510994
206.603302 -163.170807 15.2925997
206.656799 -162.890793 12.5451002
206.620102 -162.621597 12.8669004
206.637695 -162.573807 12.2140999
206.606598 -162.247894 16.3171997
206.623596 -162.0056 16.9643993
206.629105 -161.677399 16.3409004
206.605804 -161.441101 15.3704004
206.893494 -165.978394 15.0265999
206.986298 -165.893295 15.9982004
206.971802 -165.587296 16.5690994
206.894104 -164.790802 14.8830004
206.872101 -164.417694 15.4249001
206.810898 -164.019806 11.4525003
206.805893 -163.809998 15.2150002
207.137894 -168.563995 14.1468
207.016602 -168.384598 16.3640995
207.162292 -168.138901 14.6684999
207.262802 -168.117203 16.0925007
