# .PCD v0.7 - Point Cloud Data file format
VERSION 0.7
FIELDS x y z
SIZE 4 4 4
TYPE F F F
COUNT 1 1 1
WIDTH 25
HEIGHT 1
VIEWPOINT 0 0 0 1 0 0 0
POINTS 25
DATA ascii
100.134598 -71.3952026 15.4548998
100.3853 -71.2957001 15.0543003
101.067902 -70.1110992 11.0896997
101.104401 -70.1684036 11.2023001
101.247299 -71.6860962 15.9090004
101.213303 -70.1837997 12.7593002
101.789703 -70.8281021 16.2497005
101.8536 -71.1801987 16.0664997
102.555702 -71.5421982 15.8551998
102.504303 -71.2828979 15.7542
103.1558 -70.3674011 10.3269997
103.198402 -70.2792969 12.7020998
103.293503 -70.3330994 12.3666
103.275497 -70.0698013 12.9203997
104.261703 -71.3219986 15.8010998
105.154404 -69.9913025 8.57120037
105.296799 -70.1428986 8.4605999
105.700897 -69.9353027 11.2217999
105.988197 -71.1640015 15.5915003
105.906303 -70.8319016 16.2970009
105.999001 -69.6529999 11.2174997
106.048103 -71.5886002 14.5727997
106.053902 -71.3968964 15.5669003
109.523399 -71.2882004 15.0576
110.914597 -71.0441971 16.0895004
