# .PCD v0.7 - Point Cloud Data file format
VERSION 0.7
FIELDS x y z
SIZE 4 4 4
TYPE F F F
COUNT 1 1 1
WIDTH 70
HEIGHT 1
VIEWPOINT 0 0 0 1 0 0 0
POINTS 70
DATA ascii
120.605499 -107.8862 0.813399971
121.3368 -108.1642 0.721800029
121.398499 -107.887703 0.799499989
121.541901 -101.344101 0.598399997
121.682297 -107.930801 0.654699981
124.350403 -107.743851 0.692499995
126.687897 -107.802101 0.625999987
126.998398 -107.754402 0.359899998
126.944801 -107.692101 0.63499999
127.359901 -107.649597 0.587599993
128.304092 -105.3582 0.766799986
128.568298 -107.707397 0.637000024
128.513 -105.476997 0.763800025
128.899902 -105.863899 0.768599987
128.818893 -105.575996 0.549099982
129.388901 -105.912399 0.740800023
129.373795 -105.718498 0.480500013
129.229004 -105.493301 0.537299991
133.533401 -106.965401 0.468400002
133.775696 -109.593803 0.510500014
133.749603 -107.105202 0.618099988
133.996704 -107.014603 0.272599995
134.017105 -101.170197 0.364899993
134.450195 -108.005096 0.470800012
134.440201 -107.4748 0.726999998
134.491394 -102.413597 0.367399991
134.742599 -106.435402 0.402399987
134.788605 -103.190201 0.377099991
134.605606 -100.408997 0.319000006
135.265701 -108.122902 0.399699986
135.882507 -110.941597 0.266000003
136.268707 -105.338898 0.272799999
136.701004 -103.569603 0.307900012
136.712799 -101.489899 0.378899992
137.072006 -100.513 0.301699996
137.357193 -108.823799 0.320199996
138.243805 -103.7295 0.307799995
138.718994 -106.287399 0.420599997
138.6978 -106.152802 0.332399994
138.951797 -112.865097 0.310600013
138.871399 -112.8582 0.404900014
138.857193 -111.325897 0.523400009
138.837708 -106.23175 0.270700008
139.049606 -111.265701 0.349400014
139.091995 -111.334702 0.452800006
139.054749 -106.498352 0.354799986
139.125702 -103.8358 0.303299993
139.249893 -111.397797 0.381199986
139.3629 -106.673897 0.617900014
139.203995 -106.5299 0.234200001
139.288605 -106.478798 0.454299986
139.586502 -114.022697 0.679899991
139.582596 -106.432899 0.184200004
139.506958 -106.456894 0.499799997
139.566299 -106.338394 0.297650009
139.463196 -106.339401 0.496100008
139.7034 -117.679298 0.618099988
139.675293 -117.420898 0.59829998
139.6642 -117.319199 0.841799974
139.623901 -114.133202 0.496899992
139.600006 -112.622597 0.430000007
139.759903 -106.403801 0.289900005
139.789505 -106.5383 0.481900007
139.636002 -106.2985 0.335099995
139.838196 -117.517502 1.09720004
139.98085 -112.957153 0.486400008
139.889206 -112.641602 0.409000009
139.962601 -106.643997 0.618099988
139.804092 -106.411697 0.107000001
139.947006 -106.573502 0.511200011
