# .PCD v0.7 - Point Cloud Data file format
VERSION 0.7
FIELDS x y z
SIZE 4 4 4
TYPE F F F
COUNT 1 1 1
WIDTH 33
HEIGHT 1
VIEWPOINT 0 0 0 1 0 0 0
POINTS 33
DATA ascii
257.959412 -300.401489 -0.730300009
257.9646 -300.273712 -1.21539998
258.1828 -301.847107 -1.54499996
258.148712 -301.631714 -2.35019994
258.181793 -301.703094 -1.25489998
258.167206 -301.75061 -0.960099995
258.054199 -301.623199 -0.470200002
258.140686 -301.55011 -0.635999978
258.153412 -301.537201 -0.443800002
258.004211 -301.471191 -0.28459999
258.125458 -301.306824 -1.45910001
258.129913 -301.255188 -1.35029995
258.062408 -301.029114 -1.52450001
258.024109 -300.901398 -0.529699981
258.383209 -303.045685 -0.935199976
258.332703 -302.803589 -1.88090003
258.343292 -302.791992 -1.19219995
258.305115 -302.463409 -1.61210001
258.31369 -302.472992 -0.766700029
258.268585 -302.536102 -0.415800005
258.253998 -302.541595 -0.268700004
258.357086 -302.308502 -1.8714
258.289215 -302.321594 -0.713699996
258.226593 -301.994598 -0.802100003
258.205811 -301.39151 -1.77279997
258.553101 -304.136993 -0.351799995
258.457001 -303.406403 -1.2112
258.491211 -303.578705 -0.822099984
258.4552 -303.265198 -1.91489995
258.420593 -303.261993 -1.09930003
258.464508 -303.265686 -0.892400026
258.404114 -303.267303 -0.660399973
258.400208 -302.916504 -1.15999997
