# .PCD v0.7 - Point Cloud Data file format
VERSION 0.7
FIELDS x y z
SIZE 4 4 4
TYPE F F F
COUNT 1 1 1
WIDTH 42
HEIGHT 1
VIEWPOINT 0 0 0 1 0 0 0
POINTS 42
DATA ascii
200.258698 -225.289001 6.26109982
200.314499 -224.742294 6.24900007
202.759003 -226.611496 7.08230019
202.731293 -226.153 7.1099
202.601501 -225.423492 7.32870007
202.738037 -225.287842 7.28779984
202.8246 -225.478104 6.3586998
204.309906 -225.236801 6.64099979
209.157394 -226.687805 7.86409998
209.287598 -227.095901 8.08819962
209.376694 -226.973297 7.84499979
209.5383 -226.677399 8.91870022
209.629501 -226.505005 9.32489967
209.645096 -226.211807 8.45330048
209.803802 -226.815399 8.36730003
209.804199 -226.4711 8.83829975
209.807007 -225.977493 8.6019001
210.309692 -226.315704 8.96520042
210.478806 -227.144302 9.55819988
210.405396 -225.981796 8.42630005
210.558594 -225.407898 7.92369986
210.602905 -225.695404 7.74569988
210.609802 -225.260193 7.96150017
211.101807 -226.028107 8.79950047
211.238297 -225.056595 7.49359989
211.333405 -224.261597 7.19969988
211.484894 -225.493805 8.89420033
211.412598 -223.877502 7.17390013
211.584198 -223.229996 7.37849998
211.752701 -224.826294 8.21090031
211.683197 -224.679398 7.73269987
211.623993 -224.131897 8.06130028
211.781799 -222.859497 7.55289984
211.933594 -225.067993 8.89490032
211.957794 -224.969604 8.5795002
211.823502 -223.338501 6.7494998
212.195099 -222.475098 7.44000006
212.678299 -223.9272 8.17930031
212.831802 -222.837997 6.64440012
213.301407 -224.621704 8.1413002
218.676102 -224.194397 7.67159986
218.984299 -223.220093 7.74520016
