# .PCD v0.7 - Point Cloud Data file format
VERSION 0.7
FIELDS x y z
SIZE 4 4 4
TYPE F F F
COUNT 1 1 1
WIDTH 25
HEIGHT 1
VIEWPOINT 0 0 0 1 0 0 0
POINTS 25
DATA ascii
144.101303 -172.336899 0.755500019
145.302094 -170.343704 0.394300014
145.530899 -171.335297 0.353500009
145.604904 -172.722702 0.60680002
148.813202 -168.173294 0.607200027
149.270706 -168.615997 0.75819999
149.520996 -168.902603 0.445800006
150.7052 -164.899796 0.405000001
150.623596 -164.608002 0.459100008
150.741394 -164.723206 0.81400001
150.602097 -164.292801 0.712800026
151.086594 -163.497192 0.460999995
151.344498 -163.776596 0.401899993
151.3909 -163.285706 0.440699995
151.394394 -162.869095 0.461699992
151.471497 -163.162704 0.604900002
152.067001 -162.540497 0.300000012
153.115005 -164.261597 0.299100012
153.166794 -161.608704 0.316199988
153.028793 -160.895905 0.415600002
153.704102 -172.590302 0.494599998
153.822601 -160.689804 0.375400007
159.172607 -160.333694 0.287
159.249298 -160.620605 0.348800004
159.730194 -164.226807 0.378899992
