# .PCD v0.7 - Point Cloud Data file format
VERSION 0.7
FIELDS x y z
SIZE 4 4 4
TYPE F F F
COUNT 1 1 1
WIDTH 1187
HEIGHT 1
VIEWPOINT 0 0 0 1 0 0 0
POINTS 1187
DATA ascii
180.193497 -179.843002 0.599900007
180.1828 -179.851105 0.742200017
180.168198 -179.9487 0.912699997
180.174438 -179.835358 1.25970006
180.182892 -179.930054 1.44105005
180.195908 -179.912094 1.79200006
180.168854 -179.832489 1.88870001
180.187454 -179.86676 2.09579992
180.187805 -179.920898 2.27535009
180.163437 -179.939163 2.52640009
180.13504 -179.929871 2.70547509
180.151398 -179.857498 2.82159996
180.124054 -179.70459 0.591899991
180.126602 -179.772156 0.635750055
180.180496 -179.723694 0.92750001
180.184509 -179.694794 1.00534999
180.192596 -179.661896 1.50479996
180.186249 -179.609192 1.68195009
180.186356 -179.693298 1.89345002
180.191849 -179.709625 2.14115
180.180939 -179.696594 2.25965023
180.169449 -179.682755 2.49504995
180.14946 -179.704636 2.69596004
180.184464 -179.703064 2.89993334
180.174316 -179.71344 3.14599991
180.126007 -179.654358 3.29246664
180.128204 -179.617905 3.42580009
180.041107 -179.537003 0.613449991
180.149429 -179.46254 0.893900037
180.171204 -179.500549 1.16689992
180.194305 -179.589996 1.38549995
180.188339 -179.489807 1.7299
180.1875 -179.415405 1.85010004
180.185226 -179.510941 2.10669994
180.167007 -179.565399 2.23729992
180.163483 -179.498016 2.52137995
180.130493 -179.508606 2.65366673
180.190704 -179.464096 3.0157001
180.1577 -179.52121 3.31815004
180.152725 -179.276062 0.657733321
180.197006 -179.3853 0.99089998
180.194901 -179.223297 1.12600005
180.195557 -179.337708 1.2980001
180.187408 -179.241196 1.47300005
180.175858 -179.30014 1.66302001
180.178696 -179.282501 1.93959999
180.175354 -179.351257 2.10494995
180.15303 -179.314072 2.31756663
180.148544 -179.266876 2.485075
180.124054 -179.283844 2.66100001
180.181351 -179.316498 3.26954985
180.155502 -179.047806 0.887600005
180.185196 -179.161606 1.07650006
180.185471 -179.136734 1.3330667
180.172607 -179.028 1.47580004
180.177551 -179.101898 1.72144997
180.172699 -179.058899 1.98239994
180.136505 -179.137299 2.11590004
180.155151 -179.1418 2.25375009
180.149231 -179.048676 2.51189995
180.149536 -179.122879 2.68808341
180.15686 -179.17746 2.84255004
180.153503 -179.100906 3.046
180.14415 -178.862579 0.691200018
180.164597 -178.830597 0.870100021
180.181961 -178.95224 1.10776663
180.177353 -178.877441 1.38024998
180.172653 -178.88324 1.49659991
180.1521 -178.917496 1.60739994
180.137604 -178.822403 1.91175008
180.183701 -178.861542 2.10885
180.1754 -178.866028 2.34113336
180.169434 -178.849503 2.47483325
180.181198 -178.961807 2.6407001
180.120895 -178.910156 2.93909979
180.074707 -178.890503 3.07430005
180.106369 -178.892792 3.25796676
180.147598 -178.683044 0.696699977
180.16864 -178.736206 0.85556668
180.164398 -178.749054 1.13380003
180.182495 -178.677994 1.22080004
180.165009 -178.648499 1.48413336
180.170135 -178.708771 1.65090001
180.170929 -178.671204 1.92386663
180.170853 -178.70105 2.07894993
180.150696 -178.752197 2.27010012
180.162827 -178.690826 2.5222249
180.155457 -178.718704 2.66017509
180.162201 -178.679993 3.12050009
180.163239 -178.658752 3.22644997
180.153503 -178.603607 3.40840006
180.135376 -178.499725 0.721099973
180.170898 -178.543304 0.916400015
180.172272 -178.470612 1.13387501
180.161041 -178.404358 1.37645006
180.161072 -178.466995 1.46853328
180.181366 -178.489761 1.69013333
180.174072 -178.473892 1.87838006
180.160568 -178.541031 2.12366652
180.167969 -178.530807 2.33399987
180.148666 -178.551331 2.49776673
180.149597 -178.508698 2.66335011
180.117767 -178.447845 3.10905004
180.144669 -178.310089 0.702000022
180.180435 -178.221405 0.885399997
180.183899 -178.285202 1.08467507
180.155792 -178.312927 1.34107494
180.169067 -178.304062 1.5704
180.17244 -178.296173 1.74993336
180.16246 -178.297379 1.89499998
180.149475 -178.298447 2.10050011
180.155792 -178.270844 2.3206749
180.151154 -178.323914 2.50848579
180.096527 -178.302444 2.66341662
180.163605 -178.242493 2.89750004
180.098297 -178.260803 3.08859992
180.166122 -178.095276 0.705875039
180.163544 -178.078888 0.936399996
180.158096 -178.049301 1.15050006
180.178436 -178.119507 1.29768002
180.154205 -178.087708 1.49220002
180.178345 -178.13501 1.70352507
180.162506 -178.085098 1.86465001
180.153992 -178.082352 2.09170008
180.172226 -178.078568 2.25196671
180.154785 -178.064606 2.52705002
180.066742 -178.062256 2.65904999
180.104599 -178.111099 2.85170007
180.112701 -178.126099 3.11220002
180.155594 -178.1922 3.27589989
180.064804 -177.839905 0.591099977
180.176239 -177.861755 0.717949986
180.166199 -177.907349 0.809399962
180.146118 -177.901978 1.11080003
180.154999 -177.895203 1.29565001
180.14444 -177.923599 1.49746668
180.147583 -177.892258 1.70744991
180.149506 -177.974899 1.8743999
180.149368 -177.913666 2.09719992
180.169205 -177.892212 2.34014988
180.131027 -177.929962 2.51053333
180.077423 -177.910522 2.63829994
180.182999 -177.807495 3.01629996
180.133499 -177.768402 0.584699988
180.158401 -177.787003 0.707400024
180.154572 -177.656662 0.860899985
180.161255 -177.661377 1.07117498
180.172501 -177.647949 1.30554998
180.152252 -177.698196 1.51084006
180.15889 -177.693573 1.68690002
180.138092 -177.673706 1.84789991
180.121597 -177.724106 2.07690001
180.147034 -177.693344 2.32106662
180.129501 -177.699265 2.52859998
180.096542 -177.718704 2.65991259
180.189102 -177.602402 2.86759996
180.12175 -177.671799 3.02769995
180.024307 -177.509705 0.56370002
180.169556 -177.581757 0.682999969
180.170258 -177.525848 0.876850009
180.152527 -177.482803 1.12466669
180.192993 -177.531296 1.26779997
180.15036 -177.565094 1.47895002
180.142487 -177.433899 1.72130001
180.137253 -177.482452 1.87247503
180.135468 -177.459961 2.0783
180.145569 -177.48674 2.26536679
180.132874 -177.469254 2.46880007
180.140396 -177.434692 2.63150001
180.138229 -177.450806 3.13333321
180.178894 -177.519257 3.26310015
180.149155 -177.311707 0.716199994
180.167297 -177.389053 0.918099999
180.158844 -177.224792 1.13774991
180.144562 -177.334534 1.25463331
180.138474 -177.247696 1.47858572
180.155151 -177.315979 1.68412495
180.153687 -177.347748 1.88625002
180.152313 -177.268341 2.04869986
180.133255 -177.330902 2.3248601
180.107056 -177.371048 2.51740003
180.087448 -177.330109 2.672225
180.095505 -177.232407 3.16140008
180.151489 -177.307144 3.29339981
180.0979 -177.180298 0.578599989
180.160843 -177.143372 0.739849985
180.148407 -177.156189 0.921499968
180.153732 -177.0513 1.09749997
180.121796 -177.133453 1.35010004
180.127106 -177.107391 1.52359998
180.136215 -177.089645 1.92376006
180.118271 -177.045731 2.10763335
180.14357 -177.102905 2.24489999
180.121674 -177.114639 2.49119997
180.091583 -177.108658 2.68931103
180.179306 -177.069 2.99810004
180.144196 -177.157349 3.06629992
180.123901 -177.063354 3.20270014
180.104187 -176.953049 0.586300015
180.1315 -176.964294 0.855199993
180.151337 -176.86264 1.06413329
180.143082 -176.917603 1.26812506
180.13887 -176.891357 1.48995006
180.149002 -176.976105 1.6573
180.161972 -176.883759 1.88510001
180.142212 -176.829559 2.13619995
180.120071 -176.899734 2.26306677
180.15686 -176.895996 2.49873328
180.098572 -176.869202 2.71729994
180.196106 -176.963806 2.89560008
180.101395 -176.824997 3.17330003
180.133026 -176.647446 0.659380019
180.154495 -176.754852 0.871299982
180.134796 -176.709473 1.10600007
180.16806 -176.716202 1.27859998
180.134857 -176.728867 1.51440001
180.145752 -176.669403 1.71252501
180.115997 -176.755905 1.87995005
180.111359 -176.721436 2.09990001
180.134354 -176.699738 2.2730999
180.099106 -176.702637 2.51703334
180.121368 -176.729507 2.65936661
180.135406 -176.601395 3.14949989
180.033905 -176.470642 0.566699982
180.136063 -176.54097 0.711533368
180.148865 -176.509735 0.882799983
180.143127 -176.530563 1.01563334
180.144485 -176.477509 1.30302
180.143005 -176.528107 1.45369995
180.124496 -176.501831 1.72893333
180.151855 -176.567352 1.83220005
180.131317 -176.515305 2.14673996
180.128677 -176.509216 2.31400013
180.1017 -176.49086 2.53600001
180.100876 -176.539658 2.64579988
180.151505 -176.567001 2.80850005
180.140808 -176.498962 3.02740002
180.177597 -176.406403 3.47000003
180.138153 -176.24855 0.687049985
180.112198 -176.320755 0.808300018
180.130463 -176.270538 1.13049996
180.133438 -176.334061 1.31856668
180.164902 -176.345703 1.48730004
180.138428 -176.331268 1.90789998
180.127151 -176.323944 2.05480003
180.120697 -176.247604 2.3664
180.10878 -176.29097 2.49188328
180.090363 -176.336472 2.67947507
180.128357 -176.300064 3.08483338
180.107132 -176.050568 0.684933364
180.139709 -176.131805 0.903550029
180.151367 -176.115005 1.109025
180.120941 -176.060638 1.31669998
180.135849 -176.05632 1.52324998
180.126953 -176.137054 1.69814992
180.123596 -176.14444 1.91194999
180.102905 -176.193802 2.04290009
180.100891 -176.066193 2.26215005
180.112732 -176.085526 2.50139999
180.106476 -176.093109 2.66149998
180.164307 -176.007797 2.94729996
180.179001 -176.057999 3.13809991
180.132599 -175.964996 0.783200026
180.125763 -175.93103 0.923200011
180.136536 -175.895172 1.09912503
180.129639 -175.881927 1.29406667
180.118698 -175.858704 1.42929995
180.136398 -175.886002 1.70424998
180.1539 -175.928894 1.8987
180.122269 -175.934708 2.10470009
180.111511 -175.9021 2.30040002
180.10614 -175.920471 2.49090004
180.149597 -175.928696 2.64299989
180.125107 -175.864594 2.98769999
180.055634 -175.879669 3.07633328
180.192902 -175.892593 3.24569988
180.100052 -175.716736 0.680925012
180.122025 -175.694565 0.882833362
180.133698 -175.730606 1.11603999
180.117477 -175.716278 1.30068326
180.122498 -175.736206 1.42069995
180.134567 -175.653168 1.67299998
180.105148 -175.765549 1.88190007
180.120941 -175.728333 2.09296656
180.093277 -175.688705 2.31513333
180.0867 -175.73819 2.45609999
180.089645 -175.675018 2.66374993
180.186707 -175.610901 2.84820008
180.088104 -175.762604 3.01810002
180.081894 -175.437607 0.57950002
180.12738 -175.540298 0.713275015
180.119385 -175.466278 0.889299989
180.125 -175.517578 1.10692501
180.127502 -175.50856 1.3223666
180.120453 -175.52655 1.55080009
180.121246 -175.479858 1.61389995
180.131104 -175.52356 1.83609998
180.115555 -175.485138 2.13170004
180.107193 -175.507202 2.29520011
180.096573 -175.500397 2.484375
180.110001 -175.512253 2.75769997
180.159149 -175.484802 3.05065012
180.191605 -175.402496 3.28049994
180.092407 -175.288086 0.706449986
180.127426 -175.316025 1.09582496
180.126602 -175.315002 1.28464997
180.121429 -175.325195 1.49357498
180.1035 -175.280304 1.69950008
180.101196 -175.285706 1.92449999
180.113449 -175.327209 2.10890007
180.070328 -175.314407 2.29340005
180.089188 -175.309235 2.50591254
180.157303 -175.342041 2.75314999
180.111786 -175.119995 0.677049994
180.106705 -175.077408 0.931166649
180.063797 -175.017807 1.18649995
180.122131 -175.153168 1.30049992
180.102539 -175.109573 1.52452505
180.113007 -175.111221 1.70757508
180.100769 -175.076569 1.89954996
180.128204 -175.122299 2.07876682
180.114227 -175.076675 2.28821993
180.032394 -175.047394 2.44989991
180.070053 -175.138214 2.62649989
180.199799 -175.181396 3.14840007
180.091461 -174.863007 0.599399984
180.116608 -174.854904 0.721000016
180.132355 -174.86795 0.937549949
180.115845 -174.931046 1.07297492
180.102371 -174.895203 1.2935667
180.101898 -174.923401 1.45000005
180.102509 -174.974655 1.69825006
180.109558 -174.899124 1.88356006
180.104202 -174.865753 2.07949996
180.093246 -174.907593 2.2960999
180.097366 -174.930222 2.53036666
180.091003 -174.898453 2.66232491
180.186005 -174.866302 2.92000008
180.121429 -174.867523 3.08417487
180.186188 -174.884201 3.2583499
180.129807 -174.686203 0.555400014
180.095627 -174.744949 0.729750037
180.154099 -174.796494 0.948000014
180.107971 -174.689804 1.08356667
180.124603 -174.74411 1.32513332
180.095734 -174.698471 1.4715333
180.096069 -174.6689 1.70663333
180.108246 -174.705154 1.87264991
180.090332 -174.73497 2.1304667
180.086807 -174.681305 2.36829996
180.089569 -174.695999 2.49064994
180.079773 -174.7034 2.69024992
180.154602 -174.715805 2.81139994
180.109558 -174.661194 3.08414984
180.123398 -174.630295 3.21029997
180.062393 -174.588303 0.596000016
180.064499 -174.473358 0.633899987
180.135101 -174.592102 0.863799989
180.105637 -174.513168 1.11713338
180.106094 -174.518539 1.28439999
180.108856 -174.519699 1.50805998
180.088303 -174.536697 1.71430004
180.08107 -174.470993 1.89810002
180.079437 -174.533066 2.16339993
180.08316 -174.527603 2.32089996
180.073364 -174.522278 2.51489997
180.049545 -174.529999 2.64424992
180.098495 -174.576599 2.99489999
180.078094 -174.453949 3.14700007
180.072098 -174.235001 0.558700025
180.069351 -174.282379 0.727675021
180.105179 -174.30722 1.09415007
180.085403 -174.326004 1.32356668
180.095993 -174.346695 1.45089996
180.108093 -174.318298 1.82556665
180.0905 -174.287292 2.0453999
180.102432 -174.323822 2.32476664
180.083252 -174.328232 2.51929998
180.063599 -174.361557 2.65334988
180.114532 -174.298172 2.91253352
180.119598 -174.3573 3.12380004
180.072693 -174.030502 0.564700007
180.092606 -174.072159 0.65259999
180.091263 -174.0672 0.905799985
180.109741 -174.10257 1.11469996
180.093353 -174.058578 1.51814997
180.117706 -174.059647 1.9102
180.094452 -174.162933 2.05717492
180.09816 -174.112915 2.28785706
180.100983 -174.122696 2.47037506
180.056 -174.082245 2.62820005
180.070496 -174.046494 2.97160006
180.165253 -174.096008 3.22480011
180.099869 -173.923737 0.718400002
180.10788 -173.887726 0.921200037
180.105423 -173.902283 1.10057139
180.077499 -173.991699 1.31920004
180.096222 -173.858292 1.50959992
180.129761 -173.922546 1.69375002
180.087692 -173.892929 1.89526665
180.078705 -173.891541 2.0852499
180.0569 -173.897995 2.2579
180.062225 -173.904755 2.49434996
180.08194 -173.928207 2.67523336
180.165359 -173.871185 2.9100399
180.114807 -173.923645 3.05914998
180.063705 -173.811798 3.24049997
180.1138 -173.646301 0.715399981
180.093063 -173.644226 0.947133362
180.086426 -173.690338 1.11166668
180.118607 -173.760803 1.21010005
180.139999 -173.75 1.58829999
180.08606 -173.667816 1.65555
180.084702 -173.703537 1.8973
180.074875 -173.667084 2.07730007
180.080994 -173.695541 2.27503324
180.051453 -173.618408 2.49935007
180.091217 -173.682281 2.65397501
180.107895 -173.763901 3.01979995
180.157104 -173.643448 3.29724979
180.063766 -173.475571 0.581099987
180.089005 -173.465302 0.683700025
180.113602 -173.491806 0.862299979
180.093704 -173.501038 1.12203336
180.068604 -173.411301 1.34230006
180.101273 -173.489975 1.53487504
180.083954 -173.504547 1.69674993
180.0672 -173.445206 1.90040004
180.086029 -173.492676 2.10562515
180.080322 -173.506073 2.29663992
180.069382 -173.487396 2.50419998
180.062744 -173.459442 2.72889996
180.162598 -173.510895 2.90179992
180.0672 -173.44751 3.11262512
180.071106 -173.599899 3.33220005
180.077423 -173.293686 0.689119995
180.107498 -173.354599 0.895900011
180.077103 -173.286774 1.1031667
180.084839 -173.280243 1.32069993
180.061234 -173.2836 1.52873337
180.082596 -173.398193 1.79279995
180.043304 -173.357407 1.89260006
180.079895 -173.221954 2.09520006
180.062851 -173.29155 2.30320001
180.062302 -173.279022 2.48767996
180.08316 -173.2453 2.74650002
180.193207 -173.285797 2.81369996
180.140656 -173.372849 3.15840006
180.147003 -173.284256 3.23495007
180.006897 -173.161804 0.569999993
180.056198 -173.092804 0.678025007
180.096664 -173.067734 0.852033317
180.060471 -173.06633 1.06079996
180.096695 -173.054794 1.30190003
180.070007 -173.095551 1.46794999
180.063934 -173.072144 1.72176003
180.04686 -173.136734 1.86720002
180.047653 -173.050552 2.12275004
180.093658 -173.0858 2.30030012
180.041946 -173.079041 2.49535728
180.074707 -173.166901 2.6236999
180.107803 -173.162201 2.89549994
180.092743 -173.085754 3.12522006
180.103302 -173.005493 3.25939989
180.087708 -172.839294 0.685950041
180.080673 -172.945557 0.896166682
180.056564 -172.897858 1.32776666
180.058105 -172.8573 1.56529999
180.055893 -172.903107 1.65814996
180.078903 -172.913788 1.83185005
180.056091 -172.927048 2.12844992
180.051941 -172.918503 2.31893325
180.035049 -172.896393 2.53579998
180.007706 -172.949707 2.6487999
180.088776 -172.893829 3.14439988
180.191696 -172.971695 3.23790002
180.088745 -172.710556 0.850899994
180.078552 -172.641495 1.03725004
180.069199 -172.640503 1.26520002
180.075043 -172.709808 1.47305
180.043793 -172.630798 1.68480003
180.077606 -172.705109 1.87004995
180.051575 -172.72522 2.11345005
180.074615 -172.723801 2.28402495
180.062714 -172.671295 2.51796007
180.060333 -172.693466 2.69140005
180.105942 -172.7005 2.94379997
180.074738 -172.763336 3.07963324
180.170197 -172.667007 3.24489999
180.025604 -172.489899 0.562600017
180.040192 -172.505844 0.685866654
180.054504 -172.500732 0.917866647
180.059769 -172.520905 1.13433325
180.067535 -172.449371 1.30140007
180.077164 -172.542068 1.46879995
180.067673 -172.455444 1.73860002
180.031036 -172.446899 1.95650005
180.046997 -172.496689 2.08516669
180.047943 -172.484634 2.30676675
180.009705 -172.505402 2.49559999
180.114838 -172.492508 2.94886661
180.097534 -172.450531 3.08766651
180.130798 -172.596405 3.24780011
180.047302 -172.236099 0.577100039
180.057739 -172.309631 0.679266691
180.056732 -172.29837 0.910366654
180.100967 -172.266571 1.13323331
180.042938 -172.31041 1.29816663
180.054733 -172.282837 1.52520001
180.057404 -172.354706 1.7033
180.059555 -172.280548 1.93299997
180.06842 -172.317169 2.12576675
180.059067 -172.264267 2.26636672
180.034088 -172.32399 2.52496672
180.085632 -172.26207 3.17190003
180.139008 -172.256439 3.2396667
180.088593 -172.028793 0.746999979
180.063904 -172.090851 0.802700043
180.070572 -172.084473 1.12909997
180.061752 -172.058746 1.29515004
180.062958 -172.143845 1.74772501
180.040405 -172.003494 1.9059
180.031036 -172.128296 2.13341999
180.046555 -172.078049 2.31669998
180.036972 -172.099808 2.56007504
180.072372 -172.074371 2.68149996
180.135803 -172.163101 2.93703341
180.173203 -172.185699 3.0394001
180.0336 -171.918503 0.595600009
180.060364 -171.88147 0.710333347
180.042572 -171.905731 0.880933344
180.048904 -171.864395 1.14760005
180.053345 -171.878952 1.29594994
180.042908 -171.869019 1.47052503
180.080658 -171.869461 1.66076672
180.066956 -171.914093 1.92659998
180.043701 -171.925507 2.16419983
180.037903 -171.840607 2.28390002
180.025482 -171.866791 2.50454998
180.067398 -171.853394 2.70160007
180.102997 -171.837799 2.92449999
180.057755 -171.837402 3.11574984
180.123596 -171.921005 3.21490002
180.082062 -171.604401 0.589300036
180.03566 -171.682739 0.687766671
180.059631 -171.700806 0.904033363
180.060028 -171.669556 1.15834999
180.047531 -171.715302 1.26016665
180.04483 -171.728775 1.58840001
180.056763 -171.708328 1.71640003
180.041931 -171.646545 1.898175
180.034973 -171.675125 2.12016654
180.045258 -171.692596 2.2423501
180.023727 -171.717133 2.44026661
180.177094 -171.6259 2.93390012
180.063995 -171.748108 3.07634997
180.072098 -171.433594 0.590799987
180.06105 -171.48764 0.711574972
180.065338 -171.495209 0.93780005
180.058868 -171.505829 1.07725
180.059875 -171.467422 1.29752004
180.043701 -171.524704 1.51995003
180.055832 -171.482162 1.73786664
180.050842 -171.53949 1.91415
180.054535 -171.464661 2.04783344
180.033615 -171.516556 2.30191994
180.04715 -171.505798 2.47891426
180.097672 -171.447662 2.75356674
180.154114 -171.458054 2.95869994
180.113495 -171.517975 3.12391663
180.066452 -171.4814 3.23900008
180.064835 -171.250671 0.681666672
180.04776 -171.308167 0.939940035
180.05661 -171.251846 1.08640003
180.018402 -171.320007 1.23689997
180.053772 -171.286545 1.53025007
180.042297 -171.279602 1.67304993
180.045227 -171.301575 1.88927996
180.044449 -171.325592 2.10995007
180.034607 -171.289032 2.47437501
180.116196 -171.349869 2.89829993
180.126892 -171.329987 3.07800007
180.149094 -171.255707 3.20549989
180.033997 -171.082001 0.594299972
180.046204 -171.110291 0.69115001
180.048401 -171.065796 0.857900023
180.078598 -171.193604 1.04449999
180.05423 -171.078598 1.2773
180.053955 -171.091599 1.54369998
180.025803 -171.000504 1.75539994
180.039597 -171.078705 1.81649995
180.039902 -171.046631 2.08747482
180.036896 -171.0168 2.30769992
180.010437 -171.134598 2.5316
180.098358 -171.095901 2.67190003
180.098694 -171.005096 2.88100004
180.029404 -171.108002 3.04530001
180.024292 -170.876602 0.552399993
180.043945 -170.966705 0.72815001
180.056702 -170.884354 0.93780005
180.037704 -170.910706 1.07356668
180.039978 -170.894424 1.28834999
180.056046 -170.906937 1.50287998
180.054977 -170.926102 1.69337499
180.040253 -170.909302 1.95060003
180.034668 -170.899048 2.06357503
180.021408 -170.878433 2.31996679
180.028107 -170.884796 2.45225
180.077148 -170.933502 2.76119995
180.123566 -170.936203 2.91300011
180.097107 -170.887909 3.24784994
180.055252 -170.662872 0.677725017
180.021698 -170.631104 0.990999997
180.044998 -170.730774 1.11950004
180.044159 -170.675659 1.26900005
180.04213 -170.781662 1.48793328
180.042114 -170.716125 1.71570003
180.033295 -170.721954 1.88617492
180.028549 -170.718094 2.05425
180.023026 -170.721054 2.29828
180.021637 -170.739014 2.49135995
180.075165 -170.740738 2.71249986
180.140442 -170.67215 2.91782498
180.108337 -170.643204 3.15444994
180.190506 -170.661606 3.2743001
180.059097 -170.436295 0.597299993
180.045502 -170.442703 0.64410001
180.059143 -170.502899 0.903100014
180.035736 -170.46524 1.26784992
180.03331 -170.487503 1.51740003
180.0495 -170.5784 1.73310006
180.026596 -170.504944 1.84984994
180.022247 -170.478745 2.10774994
180.015228 -170.470215 2.33669996
180.006805 -170.596405 2.47379994
180.044601 -170.529968 2.73532486
180.136017 -170.509445 2.93580008
180.121796 -170.471344 3.07765007
180.111206 -170.509201 3.23029995
180.050705 -170.261002 0.559700012
180.042053 -170.302948 0.728100002
180.04425 -170.214996 0.886100054
180.040543 -170.331467 1.08739996
180.036026 -170.284149 1.28937995
180.035599 -170.259995 1.43900001
180.037781 -170.335724 1.74718332
180.033966 -170.297531 1.87356663
180.057953 -170.319778 2.08692503
180.03569 -170.249039 2.31813335
180.029175 -170.331207 2.48523331
180.099457 -170.271378 2.86995006
180.042389 -170.231995 3.1329999
180.051254 -170.069397 0.689274967
180.044128 -170.089432 0.936466694
180.051346 -170.086075 1.32435
180.019455 -170.078186 1.55754995
180.034836 -170.099472 1.64613342
180.022095 -170.11145 1.84689999
180.036453 -170.145218 2.05967498
180.014404 -170.068695 2.32424998
180.011047 -170.086746 2.43867493
180.088745 -170.096527 2.93604994
180.133453 -170.11026 3.15670013
180.156403 -170.129593 3.23130012
180.045059 -169.885056 0.672779977
180.0578 -169.853546 0.947099984
180.037628 -169.886597 1.14152503
180.041153 -169.902191 1.25005007
180.048569 -169.8871 1.47786665
180.036255 -169.924164 1.76030004
180.017899 -169.866074 2.05556679
180.007095 -169.806396 2.35700011
180.070496 -169.858994 2.52880001
180.032806 -169.937393 2.94210005
180.151199 -169.949707 3.01530004
180.182404 -169.888306 3.20280004
180.060898 -169.752594 0.477899998
180.036163 -169.674896 0.893999994
180.029907 -169.625198 1.01800001
180.059204 -169.666306 1.37109995
180.025299 -169.622192 1.42200005
180.014603 -169.721405 1.71290004
180.027695 -169.709702 1.81350005
180.026566 -169.702972 2.04186678
180.012695 -169.711899 2.25530005
180.043091 -169.674255 2.55870008
180.047501 -169.695999 2.70659995
180.107101 -169.6978 2.91162515
180.119293 -169.680649 3.02659988
180.062698 -169.494995 0.568700016
180.065033 -169.490173 0.64713335
180.035294 -169.511261 0.91079998
180.021454 -169.515656 1.07349992
180.040695 -169.474197 1.24530005
180.021194 -169.474945 1.45245004
180.037827 -169.51387 1.67009997
180.02063 -169.501129 1.85156667
180.004639 -169.521027 2.07783341
180.012604 -169.501953 2.31474996
180.016205 -169.542007 2.52329993
180.129807 -169.476105 2.7198
180.093552 -169.490158 2.90758014
180.046906 -169.502808 3.12639999
180.104095 -169.436996 3.22519994
180.039597 -169.384598 0.545700014
180.020752 -169.281708 0.663800001
180.033844 -169.30925 0.886999965
180.041199 -169.326248 1.12985003
180.033554 -169.290344 1.30914998
180.022797 -169.271729 1.48392498
180.018402 -169.364502 1.74090004
180.015106 -169.318024 1.89252853
180.023849 -169.279449 2.13304996
180.030457 -169.3797 2.34735012
180.011139 -169.371613 2.51954985
180.063293 -169.284454 2.70725012
180.033447 -169.286652 2.9239502
180.060226 -169.323029 3.14090014
180.041901 -169.077103 0.551599979
180.029053 -169.09375 0.75485003
180.023895 -169.023193 0.993900001
180.016052 -169.092743 1.01169991
180.043106 -169.059998 1.24450004
180.013855 -169.081604 1.57159996
180.027252 -169.118347 1.76909995
180.009094 -169.060501 1.98140001
180.000595 -169.078506 2.01340008
180.022568 -169.066803 2.29990005
180.009964 -169.131531 2.49993348
180.130005 -169.013702 2.74979997
180.064377 -169.111328 3.0553
180.03186 -168.930649 0.506850004
180.036499 -168.860336 0.872166693
180.03685 -168.909241 1.08165002
180.022568 -168.905563 1.26836669
180.032318 -168.913895 1.51045001
180.012497 -168.837097 1.66059995
180.015579 -168.889099 1.89022505
180.03125 -168.938705 2.09315014
180.012299 -168.895599 2.38450003
180.017395 -168.928604 2.49160004
180.034897 -168.884705 2.7118001
180.16925 -168.92334 2.83274984
180.0466 -168.888901 3.06659985
180.033997 -168.622101 0.573899984
180.035309 -168.771393 0.693499982
180.0298 -168.716599 0.865700006
180.015045 -168.70343 1.117975
180.041245 -168.763199 1.30763328
180.016357 -168.699753 1.5237
180.011063 -168.676804 1.65663338
180.012604 -168.735703 1.99890006
180.0168 -168.694748 2.13590002
180.026794 -168.6353 2.23300004
180.030502 -168.639954 2.46969986
180.061493 -168.663239 2.9170332
180.086731 -168.723602 3.14913321
180.023346 -168.506546 0.560400009
180.023102 -168.517761 0.884966671
180.01944 -168.531235 1.03999996
180.011841 -168.493607 1.29076672
180.022446 -168.4702 1.51279998
180.007629 -168.458328 1.9040333
180.032013 -168.542542 2.01539993
180.024597 -168.472794 2.39389992
180.022797 -168.483597 2.42710018
180.080673 -168.56636 2.76643348
180.147034 -168.496857 2.88435006
180.078064 -168.457367 3.10502505
180.114594 -168.557404 3.21029997
180.022491 -168.319946 0.745499969
180.018799 -168.283249 0.902350008
180.023102 -168.284805 1.13909996
180.028198 -168.356995 1.23319995
180.022888 -168.285858 1.53055
180.001999 -168.2258 1.66369998
180.019669 -168.295975 1.90423334
180.025146 -168.349487 2.11504984
180.010498 -168.256393 2.2736001
180.118164 -168.275635 2.90296006
180.105652 -168.250244 3.13507509
180.019043 -168.1064 0.678799987
180.019852 -168.148651 1.02565002
180.011749 -168.084305 1.29215002
180.018845 -168.111923 1.48239994
180.027832 -168.044006 1.68143332
180.000702 -168.039993 1.98160005
180.1082 -168.059402 2.16210008
180.010071 -168.139404 2.2919333
180.036652 -168.0383 2.71500015
180.060257 -168.089722 2.87179995
180.197998 -168.040497 3.18889999
180.005798 -167.866104 0.54369998
180.058655 -167.841003 0.74000001
180.04924 -167.896362 0.891733348
180.025955 -167.952057 1.10769999
180.012802 -167.845901 1.30799997
180.01355 -167.944092 1.50839996
180.010498 -167.8022 1.75559998
180.012604 -167.92305 1.91004992
180.021805 -167.973999 2.13295007
180.016937 -167.921494 2.31599998
180.003296 -167.856201 2.45180011
180.001602 -167.822098 2.71259999
180.103714 -167.839081 2.92411661
180.131165 -167.922699 3.11249995
180.1483 -167.939896 3.23440003
180.006805 -167.648804 0.747699976
180.003601 -167.691406 0.936699986
180.032898 -167.666428 1.12020004
180.017197 -167.682053 1.22745001
180.005096 -167.743896 1.70319998
180.021454 -167.733994 2.1178
180.096283 -167.705078 2.88977504
180.093414 -167.709808 3.17245007
180.058197 -167.699203 3.21630001
180.011597 -167.519592 0.764599979
180.052795 -167.483505 0.808600008
180.005096 -167.473495 1.14769995
180.044403 -167.406403 1.22730005
180.015793 -167.50116 1.4641
180.030136 -167.505737 1.70883334
180.031403 -167.425903 2.12590003
180.006104 -167.574005 2.55040002
180.001999 -167.477295 2.73869991
180.0755 -167.465836 2.92713332
180.177094 -167.471893 3.17429996
180.001907 -167.294601 0.510500014
180.022705 -167.327393 0.665000021
180.019897 -167.292862 0.85710001
180.0215 -167.2332 1.56490004
180.001297 -167.314697 1.66129994
180.015991 -167.384003 1.92400002
180.001495 -167.269104 2.13720012
180.080704 -167.205795 2.7355001
180.047897 -167.2453 2.91050005
180.126602 -167.306305 3.13569999
180.016693 -167.1828 0.676900029
180.000504 -167.127304 1.12360001
180.065628 -167.12265 2.71565008
180.10585 -167.07605 2.97315001
180.074295 -167.173096 3.23460007
180.039597 -166.852005 0.761600018
180.014999 -166.911652 1.09579992
180.014999 -166.872696 1.60309994
180.009155 -166.94075 1.90674996
180.019608 -166.845398 2.29859996
180.158493 -166.905304 2.78629994
180.068756 -166.904297 2.91100001
180.13765 -166.905701 3.16345
180.008194 -166.628601 0.618900001
180.026947 -166.681625 1.09654999
180.008408 -166.761795 1.38810003
180.004395 -166.754196 1.4437499
180.006409 -166.744507 1.66595006
180.048309 -166.745758 2.2572999
180.065643 -166.696594 2.73094988
180.115494 -166.757782 2.88960004
180.136703 -166.673935 3.12303329
180.058807 -166.692902 3.34260011
180.000198 -166.593994 0.799399972
180.001053 -166.513794 1.13024998
180.009003 -166.500351 1.28305006
180.021698 -166.490997 2.52150011
180.049805 -166.437958 2.68945003
180.134644 -166.499695 2.92224979
180.063202 -166.532394 3.12809992
180.025696 -166.302597 1.27999997
180.018005 -166.209503 1.48290002
180.046494 -166.270599 2.37870002
180.116333 -166.309143 2.93372488
180.027405 -166.248199 3.2184999
180.024597 -166.093704 0.532800019
180.001007 -166.149796 0.707000017
180.031693 -166.116196 1.55780005
180.080048 -166.033203 2.74550009
180.159195 -166.173355 3.11864996
180.032501 -165.966202 1.16779995
180.026199 -165.976593 1.31325006
180.055405 -165.9953 1.74230003
180.015594 -165.950195 2.51259995
180.101395 -165.8564 2.79850006
180.094406 -165.937698 2.82489991
180.049194 -165.835403 3.00430012
180.035294 -165.682495 0.822399974
180.007095 -165.720901 1.11329997
180.060898 -165.670197 2.67639995
180.149902 -165.700897 2.85179996
180.120209 -165.737503 3.12685013
180.004501 -165.522202 0.863399982
180.001007 -165.521301 1.10599995
180.013596 -165.472198 1.52849996
180.034805 -165.441605 2.9303
180.124725 -165.469681 3.07999992
180.006302 -165.276489 0.715800047
180.116699 -165.203201 2.79500008
180.0858 -165.274216 2.90477991
180.110306 -165.233337 3.03760004
180.039398 -165.046906 1.4418
180.011093 -165.128998 2.53730011
180.196503 -165.160904 2.8670001
180.0905 -165.076263 3.04266667
180.063293 -164.861359 0.75395
180.0271 -164.990204 0.81129998
180.037994 -164.909607 2.69714999
180.049835 -164.918396 2.85539985
180.098022 -164.858551 3.11315012
180.043762 -164.714203 2.76265001
180.08197 -164.694748 2.91863322
180.128845 -164.696548 3.07205009
180.007401 -164.542206 0.952300012
180.014603 -164.499496 2.78130007
180.094299 -164.564407 3.16240001
180.002304 -164.525497 3.23040009
180.057159 -164.311493 2.7512002
180.085495 -164.254593 2.80859995
180.097672 -164.329803 3.07364988
180.112381 -164.088364 2.86019993
180.088806 -163.823105 1.23670006
180.016602 -163.833603 1.5323
180.0047 -163.940903 1.92499995
180.0112 -163.966202 2.10010004
180.063599 -163.923401 2.76869988
180.092499 -163.943207 3.07229996
180.000595 -163.7659 1.98300004
180.042297 -163.684097 2.7123332
180.088104 -163.672729 2.89024997
180.049469 -163.730301 3.09146667
180.064896 -163.477463 2.76106668
180.089706 -163.440994 2.83419991
180.078705 -163.450302 3.11890006
180.127045 -163.372986 2.68674994
180.058197 -163.334396 2.88499999
180.079697 -163.289444 3.08335018
180.149765 -163.082367 2.91456008
180.13736 -163.116455 3.11214995
180.17746 -163.09787 3.29803324
180.082581 -162.87558 2.75662494
180.170898 -162.911102 3.04806662
180.009506 -162.666901 0.745500028
180.030502 -162.612305 2.70720005
180.164505 -162.747101 3.04430008
180.040207 -162.433594 3.04769993
180.033401 -162.282593 2.78640008
180.070175 -162.222794 3.08546662
180.024689 -162.098724 2.7109201
180.054413 -161.950989 2.71230006
180.186295 -161.981598 2.95499992
180.052704 -161.892899 3.12529993
180.046631 -161.707474 2.6479001
180.033707 -161.659393 2.86635017
180.055893 -161.647903 3.03730011
180.024506 -161.466309 2.67044997
180.011002 -161.570694 2.96880007
180.060638 -161.459702 3.05119991
180.022202 -161.277863 2.95924997
180.041794 -161.208893 3.00110006
180.024796 -161.065201 2.73580003
180.011093 -160.8302 1.42130005
180.042542 -160.929398 2.68230009
180.008911 -160.970245 2.91724992
180.004303 -160.779099 1.25600004
180.096802 -160.768097 2.71760011
180.041199 -160.668396 2.89875007
180.062256 -160.695587 3.02855015
180.004807 -160.452393 2.81660008
180.046005 -160.28363 2.73545003
180.08725 -160.23996 2.93560004
180.046097 -160.250504 3.06710005
180.018005 -160.299393 3.20630002
180.010605 -160.127396 2.66170001
180.014999 -160.112 2.99659991
180.010269 -160.08876 3.07073331
180.212006 -179.908997 0.75880003
180.215103 -179.917801 0.901950002
180.214249 -179.834106 1.11269999
180.212234 -179.958893 1.26213336
180.212036 -179.9254 1.46739995
180.251007 -179.978394 2.28780007
180.201706 -179.858704 2.96020007
180.304504 -179.889191 3.03303337
180.270294 -179.879791 3.30084991
180.211899 -179.763397 0.797500014
180.20636 -179.693054 0.896700025
180.211502 -179.696259 1.11006665
180.265396 -179.769196 1.35590005
180.222046 -179.695251 1.49865007
180.209702 -179.757507 1.65509999
180.240402 -179.785706 1.81110001
180.2724 -179.780502 2.23970008
180.320648 -179.675858 2.94884992
180.353531 -179.691803 3.14976668
180.341797 -179.715698 3.27163339
180.210953 -179.538101 0.694450021
180.213196 -179.4702 0.924600005
180.207504 -179.484406 1.046
180.235397 -179.428696 1.27450001
180.227692 -179.500946 2.01959991
180.301941 -179.41684 2.92744994
180.333694 -179.497894 3.17775011
180.360901 -179.433746 3.29059982
180.222 -179.375702 0.662500024
180.218597 -179.208206 0.940900028
180.205093 -179.216797 1.59519994
180.223297 -179.253601 1.63300002
180.278595 -179.254791 2.8743
180.211807 -179.257202 3.03539991
180.27594 -179.335999 3.28705001
180.210129 -179.12323 0.669966638
180.208893 -179.137848 0.86589998
180.201508 -179.006195 1.26629996
180.201447 -179.03421 1.53964996
180.276047 -179.07196 2.89179993
180.255737 -179.0905 3.32442498
180.267502 -178.927399 2.87833333
180.359406 -178.899536 3.13030005
180.304077 -178.960999 3.29964995
180.206894 -178.688599 1.14499998
180.233994 -178.711807 1.71700001
180.274475 -178.715057 2.92359996
180.308548 -178.736786 3.09794998
180.274857 -178.695801 3.31252861
180.268494 -178.400406 2.93309999
180.217102 -178.550201 3.0316
180.247406 -178.471893 3.30130005
180.204163 -178.333008 0.6523
180.213196 -178.270905 2.79329991
180.287811 -178.390045 2.83529997
180.286102 -178.28624 3.07976675
180.275696 -178.343597 3.33975005
180.200394 -178.193497 0.601899981
180.226196 -178.041504 2.63540006
180.265701 -178.121338 3.12969995
180.292603 -178.103607 3.27005005
180.245605 -177.919006 2.74130011
180.288834 -177.942566 2.91096663
180.250092 -177.897888 3.17435002
180.270813 -177.88945 3.2887001
180.204803 -177.639206 2.15400004
180.246445 -177.681061 2.74484992
180.279434 -177.745834 2.85696673
180.271194 -177.637604 3.11479998
180.306854 -177.734848 3.24405003
180.220459 -177.458405 0.856899977
180.203796 -177.448593 2.80789995
180.266006 -177.472672 3.24786663
180.253403 -177.231094 3.24920011
180.318893 -177.074295 1.38250005
180.225128 -177.113098 2.95286655
180.261444 -177.043793 3.11905003
180.234894 -177.199295 3.28850007
180.256607 -176.873398 1.48409998
180.303207 -176.884171 2.93633342
180.331604 -176.956207 3.05410004
180.338104 -176.740662 2.9618001
180.311707 -176.650055 3.04850006
180.311401 -176.455902 2.93195009
180.276306 -176.546509 3.06005001
180.228149 -176.488403 3.26830006
180.266602 -176.215607 2.98609996
180.289398 -176.309067 3.28046656
180.239304 -176.006393 2.77649999
180.294098 -176.035294 2.89409995
180.215897 -176.172699 3.14129996
180.248093 -176.158295 3.28049994
180.274094 -175.913605 2.9052
180.373306 -175.898499 3.15190005
180.289429 -175.896637 3.29929996
180.252975 -175.70813 2.92930007
180.348938 -175.655762 3.14666653
180.289795 -175.67305 3.24485016
180.2556 -175.517303 3.2572
180.230179 -175.278351 2.93282509
180.281799 -175.259949 3.18099999
180.265594 -175.301407 3.23259997
180.228104 -175.033203 2.9289
180.289948 -175.170746 3.08279991
180.2285 -175.196793 3.20079994
180.200897 -174.910904 1.02830005
180.224457 -174.676254 2.88259983
180.202103 -174.637604 3.18070006
180.258804 -174.47847 2.90822506
180.284637 -174.500961 3.07389998
180.263901 -174.259949 2.93900013
180.331802 -174.256195 3.16429996
180.241302 -174.152847 2.93070006
180.362549 -174.071808 3.11409998
180.234268 -173.900772 2.92320013
180.317993 -173.8293 3.09019995
180.280304 -173.708405 2.97119999
180.314514 -173.542099 3.12300014
180.2146 -173.045303 3.28539991
180.3172 -172.64595 3.09710002
180.276794 -172.537003 3.16890001
180.208206 -172.374695 2.93050003
180.266403 -172.2612 3.33290005
180.204605 -171.9646 2.8908
180.266449 -171.888107 3.19370008
180.2995 -171.641647 3.16130018
180.271698 -171.690094 3.24049997
180.289001 -171.407898 3.1164
180.222107 -171.201797 3.19199991
180.277893 -171.013397 3.13000011
180.244751 -170.965607 2.93394995
180.279602 -170.756302 3.05789995
180.236206 -170.389496 2.88669991
180.222107 -170.3862 3.13630009
180.262207 -170.379593 3.2112
180.225494 -170.025696 3.16090012
180.230301 -169.966797 3.15350008
180.262299 -169.751709 2.93829989
180.242706 -169.745804 3.19210005
180.276901 -169.268402 3.05980015
180.28096 -169.115829 3.12406659
180.289093 -168.835297 3.08859992
180.230698 -168.771652 3.11220002
180.303497 -168.412201 3.07270002
180.308701 -168.366394 3.0618999
180.222702 -168.126236 2.91916656
180.289627 -168.104294 3.06146669
180.272461 -167.843292 2.93856668
180.249405 -167.654495 2.88660002
180.267502 -167.3246 2.90700006
180.248001 -167.289673 3.13503337
180.286697 -167.062805 2.93000007
180.249603 -167.163101 3.0854001
180.225204 -166.940201 2.87739992
180.216095 -166.817596 3.12249994
180.213989 -166.716003 2.88569999
180.209351 -166.748596 3.08349991
180.213806 -166.417953 2.90399981
180.208801 -165.867294 2.96650004
180.2117 -165.761093 3.06019998
180.260147 -165.302551 3.10010004
180.207596 -165.044907 2.89689994
180.306503 -165.096298 3.06520009
180.246201 -165.152206 3.2033999
180.246597 -164.840302 3.08529997
180.243393 -164.566406 2.98110008
180.265198 -164.530502 3.07209992
180.214401 -164.062698 2.88450003
180.215195 -163.713806 2.86260009
180.277893 -163.228394 2.85299993
180.271301 -163.247849 3.13164997
180.294952 -163.216507 3.2586
180.365204 -163.047806 2.77080011
180.252106 -163.1418 2.88269997
180.287247 -163.094925 3.07859993
180.31517 -163.104691 3.30320001
180.364899 -163.096298 3.5013001
180.382294 -162.923004 2.62240005
180.205002 -162.896896 2.87829995
180.299225 -162.963821 3.14077497
180.241425 -162.981567 3.29743338
180.255203 -162.782196 3.20280004
180.434998 -179.943207 3.16829991
180.432404 -179.996399 3.28649998
180.429199 -179.292404 3.28690004
180.421707 -177.330994 3.17499995
180.442703 -176.132004 3.17989993
180.420898 -175.901703 3.00259995
180.573105 -163.601105 3.77509999
180.557175 -163.488571 3.71193337
180.553604 -163.414001 3.80480003
180.520203 -163.31308 3.1245749
180.492538 -163.304642 3.29806662
180.521362 -163.266129 3.71658325
180.568604 -163.268402 3.89510012
180.431213 -163.0345 3.15260005
180.515701 -163.062408 3.23385
180.488205 -163.045395 3.50690007
180.527588 -163.09729 3.70335722
180.511047 -163.064636 3.87800002
180.576096 -163.069 4.06150007
180.520599 -163.133408 4.23320007
180.440491 -162.97905 3.10012507
180.487305 -162.956604 3.28935003
180.543701 -162.951096 3.48869991
180.507202 -162.9561 3.61150002
180.524796 -162.973206 3.81690001
180.683929 -163.949738 3.76959991
180.626007 -163.744049 3.80955005
180.697403 -163.466797 3.29710007
180.67955 -163.518051 3.71390009
180.622742 -163.055359 3.29404998
180.602905 -163.132095 3.92120004
180.6129 -163.186096 4.26660013
