# .PCD v0.7 - Point Cloud Data file format
VERSION 0.7
FIELDS x y z
SIZE 4 4 4
TYPE F F F
COUNT 1 1 1
WIDTH 2475
HEIGHT 1
VIEWPOINT 0 0 0 1 0 0 0
POINTS 2475
DATA ascii
264.972687 -326.680298 0.717499971
266.993896 -328.026398 -1.74179995
268.506714 -327.090607 -1.13059998
269.18399 -328.925201 -0.543900013
269.368591 -329.229401 -1.19299996
269.604492 -326.647003 -1.57850003
270.611206 -329.305603 -1.82179999
270.861694 -325.646912 0.352400005
271.576996 -329.687103 -0.797399998
271.990204 -321.790894 7.70629978
272.134491 -322.482788 7.81360006
272.273804 -321.874603 1.4404
272.578094 -323.590515 1.17879999
272.741943 -326.372437 7.71479988
272.770691 -326.125305 7.21159983
272.675812 -325.794189 7.28420019
272.989502 -327.697693 7.7816
272.912994 -327.504395 7.67320013
273.100708 -326.891998 1.32710004
273.350189 -328.165588 1.24829996
273.260803 -327.783386 1.20809996
273.447113 -329.9711 7.19540024
273.417389 -329.915009 7.63660002
273.410492 -329.748108 8.01179981
273.706696 -331.822296 7.42469978
273.770294 -331.676086 7.3281002
273.686096 -331.176605 7.49819994
273.6362 -329.993988 3.73559999
274.165802 -334.149811 7.66109991
274.039642 -333.904053 7.15140009
274.1203 -333.723694 7.16699982
274.070404 -332.950195 7.45949984
274.378815 -335.313293 7.42089987
274.287109 -334.820312 6.9854002
274.441101 -335.757111 7.41960001
274.943695 -339.133911 10.8598003
274.871399 -338.231415 10.9243002
275.289612 -339.187592 -0.202800006
277.770203 -321.915894 10.1749001
277.791809 -321.955688 13.6420002
277.718903 -320.669495 14.8091002
277.674011 -320.490814 13.9067001
277.724304 -320.436005 14.5811996
277.689606 -320.589203 14.8268003
277.766693 -320.320496 10.2437
277.79129 -320.249908 10.7489996
277.793488 -320.206207 11.6049004
277.74411 -320.348999 13.9165001
277.692902 -320.255493 14.323
277.711304 -320.279114 14.5778999
277.768402 -320.100281 11.1497498
277.7005 -320.18161 13.9716997
277.685699 -320.132507 14.1047001
277.647186 -320.093506 14.4692001
277.986298 -323.051605 13.7314997
277.998413 -323.141113 14.2911997
277.99231 -322.916199 13.8521996
277.988495 -322.702789 13.8827
277.89502 -322.513367 13.6640501
277.980347 -322.506653 13.90065
277.966614 -322.595215 14.0513
277.901093 -322.275208 12.8562002
277.95459 -322.373199 14.3865995
277.959198 -322.023285 9.72679996
277.991791 -322.147186 9.94180012
277.987396 -322.139313 10.5580997
277.974396 -322.038208 10.6583004
277.891602 -322.020508 13.6533003
277.835907 -322.105286 14.2531004
277.924011 -321.960602 9.96459961
277.944702 -321.804688 10.7257004
277.877686 -321.863892 10.8429003
277.923187 -321.889404 11.1103001
277.807312 -321.984192 12.6358995
277.968903 -321.915314 13.2096004
277.877899 -321.948212 13.7234001
277.930695 -321.855408 13.9230499
277.948608 -321.970001 14.5621996
277.977203 -321.700287 9.98289967
277.944458 -321.763367 10.3252001
277.982086 -321.743713 10.4337997
277.939911 -321.66449 13.6386003
277.939514 -321.6427 13.8410997
277.942413 -321.675598 14.2912998
277.923615 -321.762085 14.4327002
277.997101 -321.686798 14.8129997
277.920807 -321.54071 13.6582003
277.9776 -321.581909 13.8793001
277.891296 -321.5271 14.0122004
277.949585 -321.268188 10.2198
277.990112 -321.394409 12.1427002
277.968414 -321.315704 13.9441004
277.996307 -321.323914 14.7796001
277.952209 -321.153992 10.7193003
277.932587 -321.013794 10.9681997
277.980011 -321.160187 11.1004
277.897491 -321.121094 11.5518999
277.988312 -321.189392 11.7610998
277.951508 -321.03421 11.9035997
277.843292 -321.127686 14.0913
277.928589 -321.158203 14.5304003
277.99231 -320.960297 7.90439987
277.938599 -320.801788 10.6623001
277.922607 -320.815613 10.8491001
277.954193 -320.860413 11.1934004
277.978699 -320.831207 11.5123997
277.91861 -320.801208 13.3821001
277.853516 -320.845093 13.6993008
277.948486 -320.875092 13.9428501
277.94989 -320.969696 14.1289997
277.902496 -320.957489 14.2311001
277.806885 -320.827087 14.6106005
277.9711 -320.879395 15.2966003
277.962952 -320.679016 10.1252499
277.948792 -320.732788 10.5331001
277.943115 -320.707306 10.7823
277.894745 -320.67749 11.4936504
277.966095 -320.774902 11.6745005
277.941589 -320.657288 11.9541998
277.999603 -320.622803 13.2671003
277.950806 -320.78421 14.2179003
277.843292 -320.645905 14.5740004
277.912109 -320.456909 9.78100014
277.940308 -320.532654 10.5170498
277.875702 -320.474792 10.9124002
277.896301 -320.437714 11.1466999
277.939087 -320.514038 11.4442997
277.942108 -320.252411 7.61210012
277.920685 -320.297913 8.60280037
277.869904 -320.226807 10.8394003
277.912903 -320.01059 7.93529987
277.93866 -320.113037 8.10369968
277.859711 -320.073273 8.5007
277.815094 -320.041412 11.0225
278.179993 -323.510895 10.3287001
278.111389 -323.530212 12.8348999
278.156799 -323.568604 13.3242998
278.138611 -323.535797 13.5403996
278.059998 -323.570007 13.6708002
278.016205 -323.424194 13.9959002
278.117889 -323.438904 14.1938
278.173187 -323.328796 9.89229965
278.191498 -323.380798 10.1932001
278.184296 -323.20871 10.4896002
278.029907 -323.374207 13.8285999
278.1633 -323.178009 10.7461996
278.083954 -323.069397 14.1539001
278.075806 -323.149597 14.3771
278.118591 -323.077911 14.5565004
278.134949 -322.853333 10.1043997
278.090088 -322.918091 10.5492001
278.092102 -322.668304 10.4607
278.058685 -322.708099 13.9841995
278.063202 -322.400696 6.88079977
278.185394 -322.582489 7.90019989
278.118805 -322.484985 10.8438997
278.147003 -322.478607 11.3691998
278.001099 -322.453308 13.5092001
278.152496 -322.567993 14.8000002
278.19519 -322.386597 7.2335
278.194092 -322.293396 8.94110012
278.150146 -322.295654 9.14974976
278.010315 -322.332001 10.0081997
278.093384 -322.31958 10.52355
278.080292 -322.262695 10.6386003
278.000488 -322.220886 10.9413004
278.174713 -322.221893 11.3058004
278.173309 -322.057709 4.51100016
278.10321 -322.170013 7.37709999
278.088898 -322.039886 7.70219994
278.126495 -322.121796 10.7030001
278.065796 -322.133698 11.1702995
278.095795 -322.129303 11.2713003
278.140015 -322.080109 11.4184999
278.161591 -322.150513 11.7477999
278.087891 -322.076202 12.2545996
278.007111 -322.115112 13.0085001
278.187714 -321.873901 3.75810003
278.160492 -321.830597 5.97770023
278.063293 -321.939789 6.17210007
278.139801 -321.813995 6.36920023
278.061493 -321.934204 7.02320004
278.176514 -321.908813 7.37060022
278.126312 -321.805603 7.41830015
278.023407 -321.820892 9.01939964
278.175598 -321.969086 9.51099968
278.007996 -321.822388 10.1520004
278.0224 -321.899689 11.3688002
278.184692 -321.978302 12.1896
278.123108 -321.795807 3.60360003
278.135406 -321.675507 4.07980013
278.127686 -321.651093 4.34420013
278.167511 -321.711304 6.22300005
278.140106 -321.694092 6.5861001
278.121613 -321.700806 6.62330008
278.150024 -321.669312 6.88395023
278.140808 -321.631287 7.54640007
278.111511 -321.620209 8.21450043
278.155304 -321.689514 8.62479973
278.087708 -321.624908 10.0003996
278.068451 -321.656372 10.2763996
278.025909 -321.653992 10.5132999
278.005096 -321.608795 10.6545
278.152008 -321.608002 11.0967999
278.07901 -321.6828 11.4447002
278.091431 -321.787598 11.6935997
278.049988 -321.69809 13.4179001
278.068115 -321.672607 14.8781004
278.199707 -321.435913 4.13490009
278.189087 -321.572113 4.22240019
278.195068 -321.537109 6.15680027
278.14621 -321.581787 7.22679996
278.157898 -321.566193 7.87930012
278.191895 -321.591797 8.37769985
278.0914 -321.571106 8.47039986
278.079712 -321.515594 8.75990009
278.165314 -321.463409 8.80889988
278.117706 -321.545105 9.19939995
278.062958 -321.450409 10.1494999
278.120087 -321.4664 10.7777996
278.107605 -321.560699 10.8310003
278.105988 -321.522095 11.1758003
278.140991 -321.529297 11.4085999
278.009399 -321.53479 12.3570004
278.192902 -321.404602 12.4941998
278.0383 -321.484589 15.0732002
278.146301 -321.207001 7.47429991
278.153687 -321.376282 7.75045013
278.194214 -321.272003 7.85379982
278.155487 -321.210388 8.12150002
278.190094 -321.356598 8.21329975
278.073486 -321.387512 8.73460007
278.120605 -321.384491 8.97630024
278.091095 -321.296387 9.12779999
278.146851 -321.311523 9.25870037
278.137299 -321.304504 9.62450027
278.036102 -321.273987 9.9836998
278.152313 -321.299805 10.5857
278.081085 -321.317688 10.7474003
278.149811 -321.277893 10.8717003
278.055206 -321.366089 11.3975
278.148895 -321.072113 5.95370007
278.191101 -321.089294 7.55340004
278.166351 -321.122345 7.70254993
278.111908 -321.040894 7.94080019
278.1409 -321.07019 8.17199993
278.111084 -321.035553 8.29733372
278.101105 -321.178192 8.64610004
278.052795 -321.094788 8.81159973
278.048401 -321.093689 9.03129959
278.009247 -321.129883 11.0432501
278.021454 -321.087158 11.3601494
278.027893 -321.054108 12.9195995
278.026398 -321.164215 14.6096001
278.159912 -320.951294 5.84980011
278.166901 -320.827515 6.84740019
278.084991 -320.984009 7.09380007
278.099304 -320.851013 7.25055027
278.098907 -320.832642 7.49450016
278.196289 -320.834015 7.74389982
278.129486 -320.894287 7.88170004
278.144592 -320.979309 8.24250031
278.107544 -320.972595 8.49920082
278.09726 -320.892456 8.64984989
278.079193 -320.843109 8.83930016
278.099792 -320.907104 9.03180027
278.053162 -320.893707 11.0585995
278.009888 -320.845215 12.8642998
278.18689 -320.710205 4.82530022
278.190399 -320.656708 5.08069992
278.142487 -320.79129 5.23579979
278.125214 -320.691223 5.87113333
278.110992 -320.767487 6.0454998
278.178406 -320.730042 6.28600025
278.165955 -320.606354 7.1651001
278.160339 -320.718262 7.32655001
278.089478 -320.702698 7.74555016
278.09375 -320.731628 7.84235001
278.128296 -320.651001 8.11009979
278.07251 -320.712341 8.48773289
278.115814 -320.763702 8.86849976
278.095642 -320.73526 9.06340027
278.104889 -320.738098 9.25809956
278.119812 -320.6073 9.40789986
278.120941 -320.638245 9.71570015
278.149597 -320.614594 9.93169975
278.051605 -320.71048 10.2879667
278.019592 -320.640198 10.7407999
278.137299 -320.742493 13.3912001
278.120605 -320.467804 4.37979984
278.182709 -320.594513 4.4604001
278.182068 -320.49884 6.65325022
278.057892 -320.515015 6.93930006
278.12735 -320.563293 7.47405005
278.006012 -320.446899 7.64470005
278.096191 -320.470337 8.12909985
278.157593 -320.591797 8.2191
278.11908 -320.574768 8.49090004
278.059296 -320.554901 8.7329998
278.187012 -320.560211 8.88539982
278.162994 -320.458893 9.55090046
278.116211 -320.504791 10.1513004
278.048492 -320.593994 10.3916998
278.01709 -320.440704 10.5389004
278.008514 -320.515686 10.7964001
278.054688 -320.594604 12.9439001
278.175415 -320.450714 13.0862999
278.180695 -320.254089 4.64179993
278.149597 -320.374298 5.53079987
278.070557 -320.291595 5.73764992
278.063385 -320.343903 5.80140018
278.139801 -320.208496 6.12440014
278.193115 -320.349091 6.4204998
278.159302 -320.38559 6.75619984
278.180786 -320.350403 7.32340002
278.128693 -320.344391 7.54559994
278.02478 -320.249847 8.24205017
278.053192 -320.224396 8.52600002
278.093292 -320.220398 10.0481997
278.09021 -320.278595 12.9660997
278.149109 -320.354095 13.0327997
278.136993 -320.023987 1.07749999
278.102203 -320.03421 2.22819996
278.168304 -320.160889 3.22180009
278.116913 -320.018799 3.5309
278.148193 -320.148987 4.00960016
278.069305 -320.172791 4.80229998
278.022888 -320.050598 5.81710005
278.024109 -320.142914 6.02120018
278.002106 -320.018494 9.13230038
278.067261 -320.123901 9.55859947
278.145294 -320.02121 9.66300011
278.356293 -325.870697 13.2948999
278.35321 -324.729889 14.1327
278.392792 -324.581604 14.1117001
278.349609 -324.278412 14.1541996
278.347595 -324.253815 14.2683001
278.385315 -324.2435 14.7811003
278.365906 -324.188904 13.1819
278.289795 -324.019714 13.5495005
278.393097 -324.019287 13.6759996
278.359802 -324.060211 14.1772003
278.359985 -323.873505 13.0751991
278.359985 -323.900879 13.2500992
278.376495 -323.880096 13.7080002
278.394196 -323.892609 14.1230001
278.37381 -323.946991 14.5776997
278.374603 -323.669495 9.49400043
278.338806 -323.617889 9.85560036
278.31781 -323.757874 12.9333496
278.307709 -323.761688 13.0068998
278.256592 -323.798096 14.0525999
278.365662 -323.766205 14.9050007
278.327911 -323.471405 10.3127003
278.384491 -323.263 8.85130024
278.314514 -323.273407 9.20730019
278.270996 -323.390808 10.1141996
278.267792 -323.295807 11.1302004
278.289795 -323.217896 11.7594004
278.309998 -323.157013 6.30280018
278.328308 -323.025696 6.57620001
278.278992 -323.193787 6.87349987
278.373596 -323.128387 7.09779978
278.348389 -323.132385 7.25309992
278.397308 -323.053986 7.47279978
278.3909 -323.077606 7.62419987
278.350098 -323.192505 8.5387001
278.379089 -323.154205 9.00739956
278.212708 -323.170593 11.0377998
278.295898 -323.153595 11.5358496
278.257599 -323.1633 14.6035004
278.374908 -322.883392 3.52679992
278.395203 -322.98999 5.75409985
278.348907 -322.860504 6.14190006
278.247894 -322.879791 6.56619978
278.331512 -322.939301 7.33669996
278.312286 -322.975403 7.43879986
278.286713 -322.851288 7.76079988
278.390503 -322.899902 8.35949993
278.359589 -322.923889 8.72379971
278.266693 -322.928192 11.2746
278.268616 -322.886444 11.7409
278.364288 -322.656311 3.27839994
278.373535 -322.657898 3.67149997
278.391602 -322.6633 3.93460011
278.38559 -322.628204 5.4822998
278.368195 -322.692413 5.85459995
278.276184 -322.634155 6.49300003
278.213013 -322.650085 6.83400011
278.314911 -322.679901 7.01900005
278.220398 -322.611511 7.22650003
278.338806 -322.735901 8.01809978
278.370697 -322.716797 8.65470028
278.273102 -322.674591 8.83590031
278.298004 -322.613403 9.01910019
278.236298 -322.699585 9.27270031
278.203613 -322.777893 11.2579002
278.318207 -322.6745 11.4330997
278.226501 -322.61441 11.6035004
278.387787 -322.499695 3.04940009
278.346588 -322.537811 3.32270002
278.287994 -322.415192 3.44339991
278.315704 -322.417114 3.81019998
278.364502 -322.496094 4.06899977
278.380188 -322.476715 4.35129976
278.322205 -322.576691 6.05350018
278.227905 -322.560394 6.53359985
278.226044 -322.545868 7.11413336
278.296112 -322.41861 7.31780005
278.316589 -322.582001 7.43209982
278.267303 -322.470032 7.93029976
278.273712 -322.459412 8.34720039
278.323608 -322.513702 8.46170044
278.204102 -322.595093 9.00520039
278.291992 -322.48291 11.6583996
278.258301 -322.5383 12.0861998
278.2742 -322.568604 14.9912996
278.361115 -322.298706 3.0782001
278.337891 -322.342285 3.34089994
278.381805 -322.353302 3.96230006
278.348755 -322.217651 4.55165005
278.293121 -322.27066 6.34569979
278.2388 -322.217194 6.82550001
278.264038 -322.305756 7.90339994
278.301086 -322.258179 8.09885025
278.281006 -322.226349 8.89890003
278.248993 -322.212097 9.11219978
278.234894 -322.258209 9.35589981
278.308289 -322.105194 3.94300008
278.212402 -322.044586 4.25689983
278.399597 -322.102692 4.74800014
278.378815 -322.149902 5.10349989
278.253113 -322.049805 5.98269987
278.246704 -322.042786 6.86590004
278.266296 -322.161499 7.64160013
278.260864 -322.1185 8.09693336
278.259766 -322.136719 8.67500019
278.275299 -322.13269 8.83609962
278.27121 -322.125366 9.08979988
278.362213 -321.919708 -0.662500024
278.399994 -321.82959 -0.0242999997
278.359009 -321.915314 0.0513999984
278.369385 -321.919312 0.499000013
278.397308 -321.981293 2.7744
278.291504 -321.819305 2.91950011
278.289093 -321.832611 3.02180004
278.226807 -321.872314 3.86150002
278.3013 -321.885803 4.31879997
278.361908 -321.955902 4.79020023
278.378998 -321.885895 5.72200012
278.354614 -321.977997 5.82070017
278.209412 -321.919006 6.34399986
278.214142 -321.865356 7.15555
278.208099 -321.825012 7.80690002
278.283905 -321.911804 8.01644993
278.2052 -321.964905 8.71790028
278.28775 -321.943359 9.2340498
278.395813 -321.774506 -0.512499988
278.331299 -321.780487 -0.238399997
278.286194 -321.610596 0.708700001
278.342987 -321.637085 2.3506999
278.389099 -321.614502 2.48720002
278.373505 -321.719055 2.84920001
278.218903 -321.693207 3.34640002
278.280304 -321.600708 3.72860003
278.218597 -321.764191 3.93470001
278.273804 -321.689301 4.52023315
278.308594 -321.625336 4.70106649
278.397308 -321.609192 4.95769978
278.299194 -321.677887 5.19789982
278.211609 -321.662994 7.99209976
278.256653 -321.687653 8.13640022
278.224854 -321.697144 8.31139946
278.256897 -321.685791 8.55130005
278.204803 -321.632996 9.03310013
278.30661 -321.471985 -0.401300013
278.321991 -321.408386 0.60710001
278.303802 -321.566193 1.28410006
278.360992 -321.532898 2.33369994
278.388885 -321.470703 2.48099995
278.250885 -321.493896 3.05890012
278.209412 -321.410492 3.26360011
278.272308 -321.539398 3.5776999
278.338989 -321.414307 3.69860005
278.231812 -321.40329 3.91989994
278.383209 -321.463013 4.1802001
278.261414 -321.410492 4.47959995
278.284393 -321.554413 5.72429991
278.275208 -321.47644 5.921
278.321045 -321.461182 6.31445026
278.274811 -321.492096 6.63740015
278.358093 -321.468597 6.91300011
278.227448 -321.535339 7.03469992
278.258301 -321.507812 7.74560022
278.235229 -321.541687 8.06585026
278.247803 -321.581696 8.4708004
278.302246 -321.512634 9.55725002
278.380707 -321.489288 9.72809982
278.389801 -321.492493 9.94279957
278.352203 -321.443512 10.1445999
278.276489 -321.38031 0.276899993
278.316803 -321.282013 0.7227
278.3461 -321.301392 1.80770004
278.359314 -321.310242 2.46864986
278.305695 -321.315399 2.60089993
278.3927 -321.321686 3.29040003
278.226288 -321.250397 3.71399999
278.294708 -321.391205 3.98219991
278.279999 -321.262207 4.32289982
278.361115 -321.313995 4.66580009
278.313293 -321.285614 4.80259991
278.233643 -321.317993 5.09844971
278.238098 -321.202209 6.07789993
278.230865 -321.280426 7.54939985
278.2005 -321.355804 7.97730017
278.200409 -321.342804 8.34389973
278.220032 -321.333252 8.45759964
278.208099 -321.309296 8.73890018
278.314148 -321.308197 9.55439949
278.321503 -321.317291 9.65260029
278.352203 -321.30899 13.0886002
278.384399 -321.325897 13.3509007
278.373596 -321.0961 -1.18770003
278.357208 -321.174011 0.336199999
278.348907 -321.112488 1.67770004
278.308014 -321.063293 2.05749989
278.340607 -321.15509 2.52460003
278.3396 -321.197296 4.26350021
278.297791 -321.125793 4.83169985
278.339111 -321.120605 6.34660006
278.241394 -321.18869 6.91930008
278.326416 -321.103882 9.50284958
278.296204 -321.087891 10.2235003
278.293091 -321.184204 13.2145996
278.374329 -320.907654 -1.56715
278.366302 -320.829193 -0.65140003
278.3797 -320.858795 0.508300006
278.280396 -320.842194 1.69060004
278.270111 -320.990204 1.87950003
278.256897 -320.889313 2.01149988
278.326782 -320.911652 2.26285005
278.305206 -320.932251 3.47350001
278.249512 -320.900513 3.84139991
278.212097 -320.925781 4.27229977
278.239594 -320.899109 4.53420019
278.262909 -320.861389 6.06339979
278.206696 -320.997589 6.91540003
278.377502 -320.999695 9.35890007
278.377014 -320.914886 9.60669994
278.279144 -320.973145 12.9530497
278.296631 -320.965332 13.1156998
278.25061 -320.855804 13.3542995
278.361908 -320.666412 -1.80599999
278.366913 -320.701813 -1.4921
278.350189 -320.679291 -0.593400002
278.334595 -320.679596 0.26030001
278.321411 -320.631714 0.439399987
278.304993 -320.716492 0.913600028
278.248108 -320.770386 1.43169999
278.27179 -320.687927 2.2874999
278.225403 -320.704102 2.62210011
278.243011 -320.772614 2.99359989
278.254486 -320.76709 3.86109996
278.216003 -320.691895 4.00089979
278.228485 -320.627106 4.39820004
278.249359 -320.728516 4.66905022
278.203705 -320.621002 6.23409986
278.336609 -320.674133 6.50660038
278.32251 -320.654907 6.82019997
278.318604 -320.516907 -1.8793
278.367798 -320.593597 -1.65129995
278.365601 -320.592987 -1.4411
278.329193 -320.567108 0.311300009
278.256897 -320.401398 0.97390002
278.251801 -320.429291 1.08340001
278.244598 -320.545197 1.54400003
278.287415 -320.439606 1.93850005
278.235199 -320.460602 2.07369995
278.226593 -320.496948 2.31804991
278.2565 -320.525391 2.45359993
278.261749 -320.515228 3.75493336
278.286285 -320.439392 4.74690008
278.205994 -320.483307 5.78999996
278.283203 -320.499695 5.99970007
278.266907 -320.505859 6.14435005
278.252686 -320.417511 6.34280014
278.247192 -320.414215 6.4387002
278.296509 -320.430511 6.94950008
278.279694 -320.492004 7.40829992
278.216614 -320.528992 7.6645999
278.252014 -320.462097 8.08950043
278.24649 -320.431885 9.92000008
278.381775 -320.338928 -1.71650004
278.368805 -320.367401 -1.45739996
278.254303 -320.394012 -1.39269996
278.302887 -320.229614 -1.07630002
278.359009 -320.201904 -0.968200028
278.279907 -320.29657 0.281324983
278.275818 -320.292603 0.483899981
278.286011 -320.365509 0.73180002
278.325989 -320.2341 0.930599988
278.273987 -320.305695 1.28789997
278.356415 -320.295197 1.44669998
278.243988 -320.344513 1.90540004
278.269714 -320.30481 2.71230006
278.338287 -320.348999 3.31520009
278.287506 -320.358307 3.53830004
278.254608 -320.38739 5.77250004
278.257996 -320.31369 6.45300007
278.32489 -320.324707 9.72980022
278.359314 -320.30603 10.0365
278.268494 -320.054291 -1.33990002
278.34201 -320.09021 -0.780300021
278.23941 -320.091492 0.103500001
278.330597 -320.025299 3.22469997
278.239899 -320.170807 4.90719986
278.370789 -320.10199 6.34385014
278.399597 -320.073792 6.53849983
278.279297 -320.069214 9.66009998
278.266602 -320.171906 9.82260036
278.548492 -326.679199 13.4932003
278.562195 -326.223694 13.3836002
278.465088 -326.133087 13.2770996
278.559937 -326.068787 13.6660004
278.514099 -326.057709 14.0874996
278.593903 -326.120209 14.2349997
278.468689 -325.938995 13.5606003
278.596191 -325.890808 13.7912998
278.552002 -325.855591 14.2090998
278.592804 -325.735992 9.29129982
278.493896 -325.77359 13.1443996
278.593506 -325.75769 13.7252998
278.597198 -325.753113 13.8633003
278.446686 -325.535187 14.1161003
278.521088 -325.360687 13.2655001
278.564911 -325.346008 14.0948
278.577789 -325.058197 11.9846001
278.562408 -325.170197 13.1310997
278.565002 -325.045105 13.4477997
278.515503 -325.035095 14.3445997
278.544312 -324.82251 13.1464996
278.489899 -324.919708 13.2972002
278.578613 -324.89679 13.4885998
278.566406 -324.996704 14.1382999
278.457397 -324.928009 14.3324003
278.553101 -324.852905 14.6768999
278.528351 -324.735565 12.9348669
278.549896 -324.77359 13.2046003
278.542908 -324.655792 13.5756998
278.481689 -324.75647 13.9046335
278.42099 -324.766205 14.2567997
278.503296 -324.689911 14.5366001
278.597595 -324.568207 10.6571999
278.574188 -324.460602 11.1175003
278.416992 -324.426514 12.8788004
278.445099 -324.543152 13.4731998
278.479309 -324.509491 13.7229996
278.514496 -324.484314 14.0141001
278.495697 -324.4198 14.3276997
278.466705 -324.507812 14.7395
278.555298 -324.231689 9.35809994
278.574402 -324.261597 9.49264908
278.551605 -324.386414 10.9813995
278.490906 -324.225586 11.6075001
278.50296 -324.363953 12.9081993
278.442902 -324.333588 13.9179001
278.430695 -324.337311 14.2601004
278.425995 -324.306213 14.4238997
278.587402 -324.004791 8.8125
278.542511 -324.053558 10.5105495
278.566895 -324.026489 10.6449003
278.47879 -324.147888 10.8640003
278.555511 -324.08609 11.1329002
278.497101 -324.119812 11.5108004
278.535492 -324.178497 11.6413002
278.4021 -324.12561 13.0316
278.454102 -324.163208 13.9948997
278.568604 -323.855591 6.98379993
278.572296 -323.836304 7.66499996
278.594391 -323.95639 7.88290024
278.564606 -323.830261 8.51749992
278.574493 -323.897614 8.96539974
278.507294 -323.901489 9.46280003
278.560211 -323.928101 9.94629955
278.447601 -323.951385 10.1033001
278.572113 -323.971313 10.5228996
278.463715 -323.810791 11.1657
278.513397 -323.829102 11.3682003
278.426849 -323.919922 11.4481001
278.424011 -323.894287 13.0049
278.464386 -323.962006 13.5917997
278.473511 -323.865295 14.948
278.563904 -323.712891 6.83190012
278.560852 -323.718323 8.09250069
278.53009 -323.744995 8.54329967
278.561798 -323.793457 8.72640038
278.506989 -323.680786 8.9197998
278.561951 -323.714417 9.08024979
278.485809 -323.696289 9.3501997
278.49469 -323.791199 9.41469955
278.466309 -323.786499 11.2573004
278.473907 -323.725403 11.4218998
278.4151 -323.724487 14.8793001
278.576904 -323.434692 4.50360012
278.558685 -323.400787 5.46659994
278.543396 -323.40509 5.84439993
278.495941 -323.448853 6.12605
278.519806 -323.451294 6.3762002
278.577301 -323.471405 6.50589991
278.580688 -323.500092 6.72970009
278.462402 -323.458588 7.49289989
278.577606 -323.484802 7.73430014
278.485504 -323.447296 7.87729979
278.487396 -323.444061 8.27740002
278.529114 -323.459808 8.40699959
278.564636 -323.52655 8.68799973
278.567596 -323.552612 8.85919952
278.5112 -323.547913 9.72539997
278.464691 -323.515594 10.3467999
278.453064 -323.563171 10.7057495
278.411499 -323.526703 11.7224998
278.5242 -323.210114 2.81590009
278.462891 -323.365295 3.39779997
278.508514 -323.309692 3.73650002
278.539215 -323.3638 4.37750006
278.551392 -323.204315 4.52059984
278.562012 -323.359711 4.6711998
278.582794 -323.339386 6.66139984
278.490448 -323.296539 8.32544994
278.511688 -323.238007 8.46500015
278.491791 -323.012085 0.299800009
278.574097 -323.084412 2.7427001
278.515808 -323.126007 2.80049992
278.4151 -323.009399 3.68770003
278.46109 -323.018799 3.96269989
278.532898 -323.137207 4.01039982
278.523682 -323.167297 4.37275028
278.560791 -323.00531 4.7961998
278.424164 -323.123871 7.93463326
278.461792 -323.019592 8.11509991
278.466614 -323.124603 8.41329956
278.429291 -323.104187 8.79580021
278.530914 -322.834808 0.722500026
278.532288 -322.816315 1.4217
278.597595 -322.820801 2.43449998
278.419708 -322.906311 3.48970008
278.424194 -322.826904 3.71600008
278.424316 -322.839294 3.94790006
278.50589 -322.985809 4.08809996
278.562714 -322.911499 4.34329987
278.488098 -322.92511 4.41200018
278.530396 -322.872192 4.69210005
278.48764 -322.876282 4.96519995
278.558014 -322.886688 5.09800005
278.425415 -322.928711 8.12230015
278.404907 -322.88269 8.39159966
278.458099 -322.760895 -0.360500008
278.448486 -322.61499 0.171200007
278.444214 -322.695892 0.596599996
278.447998 -322.698212 0.712100029
278.446411 -322.616486 0.800100029
278.543091 -322.737488 1.20210004
278.589813 -322.696014 1.85360003
278.507202 -322.691589 2.51360011
278.491089 -322.793304 2.60689998
278.413513 -322.616394 2.91289997
278.458588 -322.705811 4.37349987
278.418488 -322.602692 4.45539999
278.486511 -322.649109 4.65269995
278.512146 -322.711243 4.9128499
278.518585 -322.746094 5.81780005
278.405304 -322.717102 6.51709986
278.408203 -322.742706 7.94140005
278.483398 -322.771912 8.30130005
278.401611 -322.520111 0.976000011
278.483307 -322.490601 1.16139996
278.565552 -322.504456 2.07089996
278.4711 -322.423798 2.46510005
278.406586 -322.412903 4.0158
278.442993 -322.479614 4.71799994
278.485992 -322.484314 5.0163002
278.555115 -322.230988 1.77610004
278.576294 -322.045013 -1.45469999
278.575012 -322.060089 -1.25489998
278.400696 -322.187195 -0.273000002
278.448914 -322.069611 1.42589998
278.529388 -322.063293 1.86310005
278.521179 -322.101807 2.06510019
278.431885 -322.115509 2.21620011
278.425995 -322.069611 4.77330017
278.416016 -322.078705 5.76090002
278.497101 -321.890015 1.66480005
278.459503 -321.936279 1.91639996
278.456909 -321.884094 2.63639998
278.541992 -321.65271 -1.94690001
278.556946 -321.753845 -1.71289992
278.498413 -321.724609 -1.24510002
278.439911 -321.735199 1.31400001
278.421814 -321.6698 1.97000003
278.457306 -321.414093 -1.6868
278.502594 -321.457306 3.52859998
278.568298 -321.403687 9.92560005
278.49469 -321.328308 -1.90849996
278.466003 -321.288574 -1.27889991
278.449097 -321.396088 -1.09210002
278.446533 -321.342804 -0.840849996
278.5513 -321.23941 6.21710014
278.413086 -321.361115 6.45289993
278.508728 -321.339111 9.71144962
278.403687 -321.056091 -1.81280005
278.428497 -321.1651 -1.33469999
278.586212 -321.037994 -0.698599994
278.514496 -321.040985 3.0164001
278.469177 -321.114594 6.30210018
278.536682 -321.12381 6.45076656
278.432007 -321.042786 9.91814995
278.464111 -320.975586 0.223399997
278.434509 -320.834595 2.96090007
278.520203 -320.821686 6.85790014
278.473114 -320.82962 9.88876629
278.466797 -320.9104 10.0374002
278.48761 -320.697571 2.68389988
278.489899 -320.758148 6.33224964
278.570496 -320.716492 6.57600021
278.452515 -320.1185 6.46260023
278.4823 -320.140106 6.77860022
278.734985 -327.284607 12.7178001
278.74939 -327.264404 13.1227999
278.662903 -327.241302 14.0012999
278.715698 -327.038208 13.2881002
278.663788 -327.18689 13.5862999
278.660614 -327.080414 13.8167
278.788696 -326.892212 9.54249954
278.747314 -326.841492 10.3303003
278.720398 -326.890289 13.5558004
278.755615 -326.860809 13.7353001
278.757111 -326.943115 14.0190001
278.766693 -326.98349 14.2538996
278.785889 -326.65799 10.3114996
278.696503 -326.737915 12.9102001
278.671387 -326.709198 13.5705996
278.652405 -326.737 14.0817003
278.727997 -326.596893 9.75259972
278.671112 -326.517487 10.4271002
278.780914 -326.564514 10.6485004
278.75531 -326.454498 10.9286003
278.687286 -326.507996 13.6306
278.654999 -326.558289 14.0944004
278.746887 -326.505005 14.4392996
278.734894 -326.2854 10.2797003
278.660095 -326.331604 12.6259003
278.6362 -326.360809 12.8353996
278.766998 -326.234192 14.5936003
278.635193 -326.040985 9.91320038
278.711212 -326.190308 10.7997999
278.792297 -326.191406 11.1622
278.769012 -326.039093 11.3564997
278.763885 -326.082001 11.8799
278.62149 -326.131104 13.9528999
278.772888 -325.907806 6.6427002
278.730286 -325.814606 7.06790018
278.74881 -325.955597 9.01179981
278.729187 -325.895203 9.51259995
278.624603 -325.968506 10.3148994
278.742493 -325.879608 10.4119997
278.792999 -325.834106 11.4580002
278.765503 -325.847687 12.5129004
278.774597 -325.836914 13.4389
278.696686 -325.824493 13.7449999
278.641602 -325.804504 14.3669996
278.751099 -325.80899 14.6676998
278.781494 -325.717987 3.21989989
278.763611 -325.641296 6.97289991
278.751404 -325.66391 7.0559001
278.754181 -325.702881 7.31066656
278.758209 -325.616913 7.53970003
278.795593 -325.756805 7.84819984
278.728394 -325.625732 9.03625011
278.707001 -325.699493 9.52856636
278.697754 -325.740143 9.67894936
278.67099 -325.717896 9.83839989
278.721191 -325.713379 10.0925007
278.681152 -325.751495 10.2702503
278.734711 -325.718811 11.0453997
278.774811 -325.684387 11.7273998
278.759796 -325.707275 12.0528498
278.688507 -325.74939 12.9301004
278.609985 -325.798889 14.3065004
278.744202 -325.755096 14.8971004
278.782288 -325.539001 6.52129984
278.780914 -325.545685 6.96029997
278.798706 -325.531799 7.61870003
278.764496 -325.403503 10.1543999
278.742188 -325.54129 10.6037998
278.752319 -325.493225 10.8822498
278.724304 -325.507812 11.1014004
278.729187 -325.527344 11.3607502
278.785797 -325.493591 11.4575996
278.689789 -325.530792 11.7192001
278.66037 -325.477295 13.1555996
278.676331 -325.559845 13.3171005
278.651611 -325.512695 13.4488001
278.682098 -325.454498 13.9449997
278.792694 -325.201111 7.1006999
278.731506 -325.264709 8.61859989
278.78479 -325.344086 9.57009983
278.752197 -325.279297 9.71520042
278.691803 -325.265594 9.88739967
278.770508 -325.384796 10.4137001
278.71521 -325.33609 11.0628004
278.7005 -325.204498 11.5536003
278.648712 -325.273712 11.6061001
278.626801 -325.365387 11.9048996
278.665802 -325.323303 13.9198999
278.605103 -325.309204 14.0704002
278.615906 -325.266388 14.6905003
278.776093 -325.038788 7.97849989
278.739288 -325.186615 8.35760021
278.792114 -325.06369 8.55949974
278.736786 -325.127289 9.05290031
278.704498 -325.059296 9.66250038
278.766907 -325.190704 9.87030029
278.798309 -325.168701 10.4884005
278.750397 -325.163696 10.6550999
278.713989 -325.186188 10.9120998
278.641113 -325.181702 11.0270004
278.617798 -325.134216 12.7668495
278.647888 -325.062103 12.8990002
278.763306 -324.992706 6.76719999
278.780701 -324.855286 6.9531002
278.795013 -324.883209 7.16580009
278.774506 -324.921661 8.33815002
278.755402 -324.901764 8.75460052
278.781006 -324.977203 9.30679989
278.684387 -324.889008 9.55389977
278.686707 -324.988007 10.0984001
278.689087 -324.883301 10.2172003
278.685699 -324.975891 10.4235001
278.64151 -324.86792 11.2524996
278.638397 -324.8927 11.4742002
278.602386 -324.919403 12.2356997
278.610291 -324.90271 12.7069998
278.665894 -324.874115 14.7937002
278.788605 -324.772888 5.10080004
278.776886 -324.74231 5.31309986
278.746002 -324.661499 6.71120024
278.71344 -324.668854 7.3197999
278.744904 -324.720947 7.50500011
278.791199 -324.792694 7.92740011
278.734497 -324.688416 8.12333298
278.721436 -324.736847 8.30694962
278.71405 -324.708008 8.97999954
278.654785 -324.662109 9.00660038
278.637787 -324.636688 9.60050011
278.602112 -324.785004 11.1934004
278.603485 -324.776886 11.7271004
278.62439 -324.754486 14.9884005
278.756104 -324.491394 5.88740015
278.758911 -324.472382 6.88896656
278.776001 -324.551086 7.10960007
278.764404 -324.49411 7.20389986
278.755096 -324.499207 7.42719984
278.703491 -324.51181 7.67059994
278.637695 -324.400299 8.17230034
278.720154 -324.434601 8.30655003
278.698608 -324.533691 8.99100018
278.62149 -324.564789 9.36450005
278.680115 -324.450592 10.1044998
278.647095 -324.512695 10.4876499
278.620209 -324.525299 10.9611998
278.607391 -324.584686 11.5058002
278.785797 -324.226501 3.64459991
278.771393 -324.324097 3.92309999
278.776886 -324.289307 4.01030016
278.798889 -324.383087 4.30950022
278.75119 -324.256012 5.63710022
278.713684 -324.357849 5.87750006
278.727112 -324.288605 6.14340019
278.759613 -324.361786 6.23999977
278.766388 -324.313599 6.51289988
278.721893 -324.290222 7.08179998
278.731873 -324.322144 7.26634979
278.697601 -324.356293 7.4204998
278.708038 -324.319061 7.61595011
278.749786 -324.349701 7.88140011
278.677063 -324.271301 8.26340008
278.610199 -324.212708 8.71730042
278.605713 -324.23999 8.91549969
278.662292 -324.387604 9.04699993
278.610596 -324.369812 9.64760017
278.616608 -324.321899 14.7981997
278.787811 -324.096802 2.60030007
278.768799 -324.024597 3.66470003
278.787994 -324.076996 3.8441
278.667389 -324.13559 4.44259977
278.767273 -324.113037 4.65485001
278.701202 -324.004486 5.76030016
278.688904 -324.143433 7.14974976
278.700897 -324.064697 7.55170012
278.668793 -324.075989 7.72919989
278.634888 -324.075989 7.87669992
278.665192 -324.194092 8.03779984
278.621185 -324.190796 8.86100006
278.609894 -324.199493 9.99120045
278.760986 -323.937592 3.23549986
278.770294 -323.857086 4.10230017
278.781311 -323.872803 4.47109985
278.739288 -323.91391 5.0250001
278.745605 -323.820892 5.72160006
278.760895 -323.985107 5.98570013
278.732849 -323.850647 6.15359974
278.668213 -323.964203 6.30359983
278.691467 -323.850098 6.53030014
278.65741 -323.939301 6.70870018
278.618195 -323.831696 7.08080006
278.639313 -323.838196 7.38910007
278.628815 -323.98999 7.54869986
278.632202 -323.877411 7.77139997
278.644287 -323.971893 8.7972002
278.787811 -323.652405 0.957700014
278.798187 -323.66861 1.53830004
278.697601 -323.601593 2.2493
278.742706 -323.646515 2.59369993
278.759888 -323.696503 2.65039992
278.749908 -323.766113 2.84139991
278.753815 -323.792786 3.01399994
278.753601 -323.726807 3.52480006
278.684998 -323.696899 4.12330008
278.720398 -323.692902 4.25909996
278.667969 -323.71109 5.74714994
278.733398 -323.7547 5.81220007
278.703888 -323.775391 6.01109982
278.665894 -323.678284 6.63035011
278.621307 -323.655334 7.13969994
278.611298 -323.68631 7.44610023
278.617889 -323.734802 7.72469997
278.639008 -323.799286 8.13199997
278.755402 -323.485413 0.596499979
278.775085 -323.455688 0.857200027
278.753693 -323.454193 1.06669998
278.752502 -323.527008 1.72930002
278.749359 -323.552856 2.11109996
278.665894 -323.467712 2.43179989
278.618195 -323.4104 2.82060003
278.692413 -323.451508 3.25250006
278.681335 -323.468506 3.48924994
278.699799 -323.421204 3.93790007
278.644989 -323.5354 4.23780012
278.710205 -323.487091 4.47289991
278.676819 -323.591949 4.70895004
278.673401 -323.569 5.98969984
278.659698 -323.476929 6.08304977
278.656097 -323.463989 6.34100008
278.650787 -323.492004 6.67959976
278.611206 -323.470795 6.88210011
278.70871 -323.209595 0.192000002
278.615204 -323.293091 0.966400027
278.764893 -323.34729 1.68879998
278.667999 -323.286896 4.27720022
278.670959 -323.280609 4.72327518
278.666107 -323.332611 5.03100014
278.651398 -323.362 6.29320002
278.668701 -323.136505 1.60049999
278.671692 -323.079407 1.83389997
278.609314 -322.86969 1.94369996
278.642303 -322.947388 4.98500013
278.642944 -322.773346 1.51034999
278.628113 -322.783997 1.62310004
278.631409 -322.75351 1.98370004
278.601105 -322.695099 2.00620008
278.634491 -322.476593 1.72449994
278.747986 -321.048096 3.18869996
278.639771 -321.091797 3.31344986
278.610107 -321.02829 6.59880018
278.612305 -321.138885 6.71390009
278.645813 -320.81369 -0.501399994
278.67749 -320.994385 -0.213699996
278.762695 -320.770508 -0.0885000005
278.664001 -320.773285 6.6718998
278.969696 -327.622101 12.4036999
278.979889 -327.630188 13.6318998
278.963989 -327.618713 13.8104
278.964691 -327.680511 14.4314003
278.903015 -327.41629 11.0284996
278.851105 -327.528992 13.7261
278.854095 -327.437012 13.9968996
278.910797 -327.291901 10.2945995
278.98291 -327.376312 10.4461002
278.994385 -327.227509 11.1185999
278.808594 -327.362793 13.4737997
278.883789 -327.273682 13.68295
278.909698 -327.286102 14.4463501
278.960876 -327.071655 6.8491497
278.950592 -327.125 9.62819958
278.910309 -327.196594 9.83670044
278.829987 -327.022705 10.3055
278.873199 -327.186798 10.4949999
278.809601 -327.031311 10.7304001
278.954712 -327.05249 11.5080004
278.992615 -327.060394 11.6826
278.919983 -327.102722 11.9235001
278.86969 -327.151489 14.3094997
278.942352 -327.152496 14.4611998
278.95401 -326.903809 7.12249994
278.815308 -326.863586 9.86909962
278.8125 -326.930389 10.3024998
278.881775 -326.89032 10.4698505
278.978912 -326.884796 11.1767998
278.993591 -326.806091 11.2318001
278.957214 -326.818695 11.6169996
278.960907 -326.992615 12.4707003
278.896088 -326.927307 14.7875004
278.94339 -326.645599 6.37290001
278.974487 -326.661102 6.51049995
278.940704 -326.602692 6.99139977
278.887085 -326.722412 7.3283
278.980499 -326.760437 7.4939003
278.990906 -326.701202 7.75260019
278.860901 -326.738312 9.73110008
278.854492 -326.776855 10.0994339
278.828613 -326.691986 10.7412004
278.866608 -326.790314 10.9420996
278.901917 -326.729797 11.2646503
278.932098 -326.601898 11.4031
278.966187 -326.732391 11.9489002
278.929504 -326.614594 12.1531
278.971588 -326.453796 4.13170004
278.898376 -326.432343 6.32415009
278.957886 -326.569794 7.41239977
278.997009 -326.580688 7.79029989
278.985809 -326.47699 8.36289978
278.99469 -326.44931 8.81970024
278.983002 -326.598389 9.1967001
278.918701 -326.575897 9.22119999
278.808594 -326.433197 10.9161997
278.898987 -326.448914 11.8336
278.93689 -326.544708 12.0579996
278.976105 -326.322113 3.38120008
278.973907 -326.230408 3.51839995
278.988098 -326.274506 3.88199997
278.982086 -326.215088 4.17740011
278.889252 -326.234711 6.31519985
278.880188 -326.300507 6.49550009
278.812408 -326.379395 6.75180006
278.868286 -326.3367 6.85820007
278.85791 -326.331787 7.06465006
278.91449 -326.388489 7.2887001
278.909851 -326.330933 7.55949974
278.885803 -326.23941 9.24540043
278.869904 -326.29541 11.2842999
278.867096 -326.377686 11.4003
278.862366 -326.275513 11.6416998
278.81955 -326.337799 14.6725502
278.907898 -326.328796 14.8984003
278.998291 -326.092285 3.35809994
278.954498 -326.048309 3.57319999
278.931091 -326.015503 3.81699991
278.950592 -326.087799 6.17000008
278.990112 -326.146301 6.20749998
278.938599 -326.037415 6.54890013
278.835785 -326.002899 6.84560013
278.882996 -326.189789 7.26000023
278.890381 -326.094055 7.80169964
278.961548 -326.080444 8.29604912
278.956787 -326.139618 8.44900036
278.934296 -326.14801 8.75940037
278.9021 -326.118286 11.0257998
278.854401 -326.030609 12.0416002
278.93811 -326.163788 12.2893
278.962708 -325.920013 3.02609992
278.849487 -325.806702 3.25559998
278.867798 -325.826996 3.55029988
278.992004 -325.837891 5.38899994
278.917786 -325.965607 6.23925018
278.827393 -325.813812 6.45170021
278.836487 -325.908508 7.10809994
278.815094 -325.934998 7.21099997
278.803589 -325.871887 7.73699999
278.898102 -325.922485 8.0539999
278.986511 -325.892792 8.26990032
278.912109 -325.893402 8.48729992
278.95459 -325.967987 8.73960018
278.906891 -325.946198 9.04819965
278.883514 -325.854004 9.20650005
278.851807 -325.885406 9.47350025
278.878601 -325.920105 11.5513
278.997589 -325.724915 0.844900012
278.936401 -325.75119 2.69819999
278.940338 -325.690338 2.90923333
278.948608 -325.6409 3
278.897614 -325.643585 3.34120011
278.822906 -325.745911 3.48720002
278.935852 -325.746155 3.70799994
278.940613 -325.688599 3.83859992
278.986908 -325.731506 5.35909986
278.989014 -325.72171 5.52449989
278.863495 -325.613098 5.95790005
278.896484 -325.687744 6.14629984
278.8284 -325.769592 7.56629992
278.863251 -325.670105 8.30704975
278.885345 -325.725952 8.6616745
278.835297 -325.664886 11.5611
278.975586 -325.502686 2.49830008
278.872894 -325.42627 3.1484499
278.808807 -325.480713 3.49679995
278.929413 -325.44809 3.64100003
278.957886 -325.420593 3.9691999
278.846985 -325.557892 4.1388998
278.958191 -325.417603 4.44320011
278.961914 -325.531586 4.81580019
278.929199 -325.430695 5.68769979
278.866302 -325.503235 5.94680023
278.905304 -325.442993 6.12663317
278.804504 -325.4935 6.41380024
278.810699 -325.49469 6.72249985
278.848511 -325.49823 6.8657999
278.855804 -325.431793 7.82399988
278.870789 -325.424408 8.14830017
278.835602 -325.588409 8.52530003
278.812714 -325.400604 8.87660027
278.953705 -325.2901 3.3585
278.980011 -325.222504 3.48230004
278.975464 -325.324005 3.8908
278.940094 -325.385406 4.00860023
278.993195 -325.360596 4.52909994
278.950195 -325.31546 6.03950024
278.93335 -325.331299 6.29949999
278.876404 -325.376495 6.50390005
278.850494 -325.361908 6.83869982
278.838989 -325.279602 7.2427001
278.82309 -325.353699 8.04529953
278.939209 -325.199707 3.11610007
278.981934 -325.106323 3.36824989
278.9328 -325.031586 3.47129989
278.970825 -325.108307 3.73160005
278.913513 -325.112457 4.92810011
278.914001 -325.154999 5.2665
278.9151 -325.12851 6.14470005
278.872894 -325.022186 6.35890007
278.892395 -325.080811 6.48606682
278.868195 -325.000885 6.63430023
278.839111 -325.066284 6.91930008
278.853302 -325.126648 8.26049995
278.824799 -325.049896 8.49279976
278.992096 -324.898285 0.919399977
278.943207 -324.818115 1.12269998
278.935303 -324.936707 2.71239996
278.951813 -324.955414 3.18729997
278.968689 -324.889404 3.62150002
278.881287 -324.802399 3.97210002
278.977386 -324.91861 4.28756666
278.947693 -324.960999 4.43260002
278.951294 -324.841492 4.71679974
278.894501 -324.921265 4.83430004
278.821167 -324.874084 5.4463501
278.881195 -324.9505 5.73859978
278.8479 -324.915588 5.96540022
278.902008 -324.810211 6.16750002
278.895294 -324.889923 6.24123335
278.839996 -324.956207 6.78319979
278.834656 -324.901489 7.05665016
278.847687 -324.940002 7.25400019
278.830688 -324.99939 7.5486002
278.9487 -324.668701 0.753499985
278.981415 -324.683899 1.27530003
278.888489 -324.657593 2.08240008
278.903015 -324.756104 2.22589993
278.878906 -324.641602 2.67700005
278.930206 -324.641602 3.10150003
278.968567 -324.734192 3.37660003
278.930695 -324.660522 3.49274993
278.943115 -324.669098 3.6480999
278.920593 -324.675598 3.9604001
278.904999 -324.710907 4.26079988
278.921204 -324.640411 4.63049984
278.836365 -324.724762 4.82849979
278.860229 -324.667358 5.03540039
278.827515 -324.656006 5.8519001
278.84375 -324.715881 6.25059986
278.825592 -324.674988 7.23190022
278.804596 -324.627289 7.78760004
278.836914 -324.703094 7.88320017
278.952301 -324.593414 -0.491100013
278.936005 -324.433014 -0.25999999
278.982208 -324.461792 -0.134800002
278.949097 -324.405304 1.56889999
278.878448 -324.523499 2.46456671
278.935211 -324.530792 2.91799998
278.885651 -324.50943 3.11923337
278.889099 -324.57489 3.31940007
278.869843 -324.50174 3.57975006
278.922089 -324.511505 3.7033999
278.907806 -324.545685 4.13250017
278.83847 -324.475983 4.45919991
278.867767 -324.43866 4.69416666
278.824188 -324.424713 5.83699989
278.845093 -324.420197 6.00869989
278.861786 -324.553009 6.34350014
278.835205 -324.522186 6.83220005
278.936188 -324.275787 -0.345099986
278.916687 -324.3638 1.62100005
278.840088 -324.310699 2.65910006
278.850708 -324.254395 2.88884997
278.890381 -324.30188 3.08014989
278.872589 -324.300201 3.3053
278.895294 -324.353912 3.40140009
278.866028 -324.314148 3.94926667
278.81839 -324.334198 4.0552001
278.849915 -324.321686 4.31400013
278.862396 -324.346985 4.75790024
278.876312 -324.202393 4.97200012
278.803192 -324.380798 5.69969988
278.829803 -324.290588 6.24440002
278.928894 -324.060394 0.1021
278.905792 -324.124603 0.308899999
278.94519 -324.144287 1.49759996
278.911804 -324.026001 2.22219992
278.803802 -324.070801 2.47900009
278.810303 -324.075195 3.34910011
278.87619 -324.082397 3.4762001
278.851013 -324.197906 3.79439998
278.84671 -324.176514 4.74230003
278.816986 -324.194611 4.88320017
278.907501 -323.859894 -0.255100012
278.883514 -323.883087 -0.0786999986
278.93161 -323.913788 0.863600016
278.851898 -323.980804 1.05879998
278.850098 -323.962708 2.34450006
278.898895 -323.954498 2.71099997
278.835144 -323.905609 4.05729961
278.815491 -323.626099 0.423299998
278.826385 -323.785797 0.648699999
278.830505 -323.6297 1.86889994
279.198792 -330.062988 13.1346998
279.1492 -330.00769 13.2610998
279.145599 -329.0177 14.2302999
279.177795 -328.672302 13.6759501
279.088806 -328.624207 14.1774998
279.151611 -328.673004 14.2877998
279.187286 -328.568909 11.7250004
279.172607 -328.40741 12.3275003
279.021515 -328.527313 13.8837004
279.120911 -328.428406 14.0997
279.153992 -328.500122 14.2898502
279.197601 -328.287994 10.9680004
279.116699 -328.3797 12.7565002
279.102509 -328.35379 13.7242002
279.072906 -328.291107 13.8965998
279.194305 -328.226898 14.5881004
279.154999 -328.019287 10.9132996
279.145905 -328.030914 11.7831001
279.10379 -328.179688 13.9806995
279.043793 -328.052704 14.3470001
279.068909 -328.176788 14.5312004
279.13855 -327.89566 11.2964993
279.062592 -327.83371 12.1898003
279.065613 -327.831787 12.4047003
279.049408 -327.866608 13.7532997
279.044891 -327.990692 14.5156002
279.085602 -327.91449 14.6482
279.093414 -327.974091 14.8452997
279.179291 -327.794189 10.3978004
279.088867 -327.691528 10.5595503
279.151489 -327.727051 10.9221001
279.060791 -327.701385 11.2909002
279.095398 -327.671326 11.4906502
279.194 -327.634796 11.9287004
279.062714 -327.700806 14.1927996
279.039307 -327.743286 14.6540003
279.170685 -327.441101 7.67749977
279.194397 -327.490112 8.32569981
279.050293 -327.459503 8.56760025
279.0401 -327.429901 9.9076004
279.104889 -327.583893 10.2976999
279.067291 -327.555603 11.9035997
279.122986 -327.3302 5.95230007
279.041107 -327.200195 6.26749992
279.0159 -327.213898 6.77650023
279.120697 -327.364899 7.00899982
279.183014 -327.366394 7.44589996
279.040009 -327.236908 7.6644001
279.168304 -327.363892 8.67259979
279.127014 -327.307495 9.2823
279.022614 -327.302887 10.9775
279.023193 -327.283508 12.5084
279.068298 -327.315613 14.8155003
279.125214 -327.053802 4.27540016
279.186707 -327.167206 5.88560009
279.163086 -327.054108 6.05109978
279.001831 -327.093903 6.65285015
279.078491 -327.008698 7.25449991
279.005188 -327.014313 7.58290005
279.089905 -327.178497 7.86219978
279.144745 -327.111847 8.2614994
279.151794 -327.197601 8.58030033
279.016907 -327.144806 8.9059
279.140106 -327.159393 9.08749962
279.137909 -326.973999 3.14689994
279.160095 -326.897308 3.39910007
279.131287 -326.942291 3.76600003
279.11261 -326.90451 3.80730009
279.149597 -326.995697 4.1170001
279.075317 -326.883484 5.96724987
279.088196 -326.954407 6.08349991
279.059509 -326.96051 7.95120001
279.069519 -326.926514 8.65514946
279.115509 -326.854492 8.96399975
279.108093 -326.942108 9.02250004
279.1073 -326.933014 9.24989986
279.015137 -326.856445 11.2868004
279.043701 -326.948303 11.4422998
279.115387 -326.667908 2.81739998
279.1297 -326.737213 3.56360006
279.117188 -326.718933 3.74410009
279.11438 -326.668396 3.94024992
279.096313 -326.793304 4.05730009
279.101105 -326.765198 4.33459997
279.049194 -326.681885 4.55149984
279.194702 -326.762604 4.8913002
279.136169 -326.747009 5.61964989
279.131195 -326.658112 5.81669998
279.014496 -326.602509 6.69799995
279.056396 -326.758392 7.66480017
279.116302 -326.722137 8.14856625
279.092804 -326.729401 8.20810032
279.057251 -326.732056 8.49905014
279.105804 -326.721893 8.67920017
279.00119 -326.609314 8.80070019
279.106689 -326.799591 9.06379986
279.194397 -326.505005 2.61240005
279.110901 -326.413086 2.92389989
279.125092 -326.462891 3.03710008
279.063049 -326.479645 3.28049994
279.080811 -326.521912 3.48990011
279.086548 -326.534607 4.07156658
279.160522 -326.588654 4.34280014
279.147217 -326.541748 4.46360016
279.166199 -326.471802 4.85510015
279.13559 -326.52179 5.58720016
279.163879 -326.500061 5.72770023
279.109589 -326.43689 5.83059978
279.042206 -326.462189 6.05963326
279.048828 -326.57251 8.09384918
279.098602 -326.420898 8.5170002
279.024689 -326.563904 8.68120003
279.043304 -326.575806 8.98530006
279.120148 -326.309937 1.05395007
279.175415 -326.23999 2.54349995
279.126404 -326.283112 2.90939999
279.060303 -326.377808 3.08319998
279.05899 -326.34201 3.27180004
279.028992 -326.315704 3.44280005
279.075714 -326.295807 3.81999993
279.070801 -326.314423 4.06203365
279.162415 -326.318909 4.55389977
279.156738 -326.301941 4.72729969
279.191498 -326.23761 4.88450003
279.104889 -326.354889 5.54979992
279.099396 -326.254608 5.76480007
279.146606 -326.285095 5.99350023
279.02771 -326.353088 8.46679974
279.040802 -326.245605 9.1552
279.174103 -326.078491 1.83430004
279.112915 -326.179199 2.40879989
279.041504 -326.072388 2.8211
279.051208 -326.146088 3.52509999
279.127869 -326.010864 4.75570011
279.151855 -326.118591 4.94770002
279.097443 -326.029358 5.16874981
279.113495 -326.088806 5.42460012
279.070892 -326.033691 5.64389992
279.192596 -325.846191 1.27880001
279.011505 -325.979614 3.38070011
279.016815 -325.998993 3.55159998
279.000702 -325.853607 3.85520005
279.101807 -325.923004 4.48759985
279.114655 -325.889343 4.72184992
279.040009 -325.902802 4.8144002
279.161713 -325.911896 5.05159998
279.035706 -325.978088 5.63369989
279.056885 -325.654999 0.630699992
279.071014 -325.665588 0.822700024
279.110413 -325.690887 1.10220003
279.100098 -325.722504 2.07470012
279.02359 -325.641998 4.55429983
279.0578 -325.692261 4.69009972
279.016296 -325.718994 5.89849997
279.106506 -325.460297 1.45949996
279.110413 -325.469086 1.96659994
279.079193 -325.48111 2.25550008
279.077789 -325.419312 2.66680002
279.014648 -325.493561 4.45459986
279.043701 -325.547485 4.64884996
279.080597 -325.480652 5.09889984
279.143311 -325.363708 -0.760900021
279.137695 -325.3414 0.300799996
279.082886 -325.380707 1.00399995
279.087463 -325.283844 1.44284999
279.077301 -325.379883 2.72245002
279.069885 -325.229797 3.26399994
279.035522 -325.335327 3.41214991
279.0065 -325.396698 3.89540005
279.029602 -325.247314 4.17369986
279.000305 -325.276001 4.55149984
279.032013 -325.161591 0.0296999998
279.112061 -325.18335 1.09940004
279.004608 -325.13269 2.56620002
279.040192 -325.124542 2.86100006
279.026398 -325.068298 3.17449999
279.091187 -324.950195 -0.920700014
279.06839 -324.881866 0.0666666627
279.037109 -324.980896 0.3486
279.008301 -324.946198 1.35810006
279.017212 -324.924194 2.09190011
279.006592 -324.872803 3.16050005
279.361115 -331.197815 9.26900005
279.365601 -331.017487 13.7686005
279.398285 -330.735504 12.6443005
279.204712 -330.657288 13.1375999
279.372742 -330.711426 13.5498505
279.393311 -330.421509 9.81429958
279.347992 -330.596588 13.5455999
279.361145 -330.525146 13.6391001
279.320404 -330.448486 14.1030006
279.276306 -330.242615 9.91559982
279.311401 -330.276245 13.5514336
279.345032 -330.066895 10.0872993
279.303101 -330.037506 10.6639004
279.321503 -330.055603 14.1786003
279.343689 -330.112091 14.2929001
279.340942 -329.941223 9.48810005
279.319336 -329.854065 10.1256008
279.22699 -329.928802 10.3269997
279.363495 -329.85141 10.9222002
279.20929 -329.927612 13.3477001
279.296295 -329.849915 13.4322004
279.22641 -329.813293 14.0262003
279.308411 -329.777405 10.7712002
279.356506 -329.6604 10.8522997
279.36441 -329.746887 12.6799002
279.35199 -329.469208 7.35400009
279.394592 -329.438904 9.27760029
279.391113 -329.498505 10.1090002
279.286682 -329.551025 10.3368502
279.361023 -329.567139 10.9345503
279.396912 -329.40921 11.7664003
279.388092 -329.526703 13.3577003
279.35379 -329.511688 14.283
279.373596 -329.298401 11.6103001
279.34671 -329.26239 11.8112001
279.393097 -329.326111 12.4216995
279.312897 -329.377411 13.5389996
279.320343 -329.303009 14.0866995
279.299377 -329.343689 14.2814503
279.359589 -329.029785 10.0702
279.336212 -329.124603 10.3511
279.396698 -329.049286 10.4186001
279.397491 -329.050415 11.2763996
279.35849 -329.036591 11.9712
279.245789 -329.000305 13.5382996
279.36615 -329.143311 13.7363491
279.299286 -329.121033 14.4372997
279.287689 -329.084595 14.7117004
279.368286 -328.861847 8.73270035
279.369995 -328.803589 10.5024004
279.345398 -328.996704 10.7818003
279.365753 -328.934448 10.9158001
279.305115 -328.809204 11.349
279.356689 -328.96701 12.2612
279.361115 -328.860107 12.4610996
279.2565 -328.919189 13.6385002
279.226715 -328.915588 14.6065998
279.388306 -328.636414 7.77479982
279.396606 -328.725403 8.14770031
279.320587 -328.654602 8.32089996
279.393188 -328.702393 9.06369972
279.340912 -328.654114 9.28170013
279.322754 -328.702026 10.1230001
279.348389 -328.621399 10.3332996
279.270844 -328.70929 10.6981001
279.337799 -328.604004 11.1395998
279.236511 -328.798798 13.9215002
279.308502 -328.727386 14.7376003
279.390015 -328.551605 7.68009996
279.387604 -328.440796 7.90700006
279.364258 -328.42926 8.53809929
279.333801 -328.475403 9.45750046
279.260406 -328.497253 10.4729996
279.267578 -328.514252 10.691433
279.272095 -328.558685 11.1412001
279.207306 -328.42569 11.8583002
279.274841 -328.525208 12.14645
279.248108 -328.496613 12.5667
279.2258 -328.429291 13.1604996
279.304413 -328.589111 14.6796999
279.380188 -328.22641 7.48120022
279.354645 -328.298553 7.94744968
279.289917 -328.25293 8.44745064
279.333191 -328.222198 8.65200043
279.321991 -328.313507 8.95569992
279.346802 -328.34314 9.12615013
279.3573 -328.399902 9.27579975
279.277588 -328.315094 10.2620001
279.216187 -328.279755 10.5507498
279.254791 -328.397705 11.1780005
279.248505 -328.391907 11.3592997
279.347992 -328.238098 12.7383003
279.327515 -328.085205 7.0862999
279.321594 -328.083099 7.30009985
279.324188 -328.138611 7.76189995
279.338409 -328.118286 7.96369982
279.214813 -328.003204 8.9073
279.321411 -328.163391 9.29409981
279.233185 -328.177399 10.3558998
279.2789 -328.073792 10.5464001
279.258789 -328.175598 10.8754997
279.255096 -328.155914 11.1661997
279.245056 -328.078613 11.3663998
279.224915 -328.021912 11.5130997
279.233002 -328.121704 12.4611998
279.3909 -327.966705 3.98670006
279.368591 -327.82309 4.29339981
279.3909 -327.955811 4.75199986
279.361603 -327.969086 5.55049992
279.329102 -327.922699 6.74679995
279.318207 -327.915283 6.9270668
279.346497 -327.927155 7.12465
279.333252 -327.866028 7.32225037
279.302032 -327.852264 7.4895668
279.27417 -327.930298 7.84980011
279.271088 -327.804504 8.66399956
279.312592 -327.960297 9.93669987
279.319214 -327.980499 10.3725996
279.207489 -327.881195 10.7735004
279.218689 -327.872986 11.9544001
279.240997 -327.964691 12.6358004
279.392242 -327.655334 4.72074986
279.397491 -327.635101 4.8822999
279.289886 -327.707611 5.50220013
279.371002 -327.760315 5.67749977
279.313507 -327.672485 5.93989992
279.352509 -327.681213 6.19500017
279.349609 -327.795105 6.22840023
279.329498 -327.685181 6.85825014
279.306213 -327.728485 7.14680004
279.29071 -327.764099 7.22830009
279.231201 -327.720795 7.94570017
279.274109 -327.709686 8.55070019
279.30011 -327.651886 8.68599987
279.219391 -327.716003 9.15789986
279.258118 -327.776703 9.32989979
279.27301 -327.673492 9.40740013
279.208588 -327.75351 10.4096003
279.395905 -327.645905 12.7798004
279.334106 -327.477509 3.36150002
279.392914 -327.454803 4.05880022
279.348907 -327.427399 4.27510023
279.32901 -327.429291 4.64410019
279.38269 -327.510406 4.82149982
279.295105 -327.551758 5.03540039
279.336365 -327.55304 5.71453333
279.342773 -327.477203 5.86829996
279.238586 -327.518097 6.92000008
279.274109 -327.507812 7.01520014
279.274689 -327.578796 7.5632
279.229706 -327.49115 7.77304983
279.259491 -327.423798 7.97119999
279.213898 -327.455414 8.56750011
279.397186 -327.3526 2.2895
279.2742 -327.226898 3.58064985
279.31369 -327.366211 3.71519995
279.334595 -327.239899 3.86339998
279.309906 -327.204987 4.23129988
279.341064 -327.269897 4.48995018
279.300476 -327.314575 4.65019989
279.26944 -327.242004 4.83440018
279.314789 -327.368103 5.56599998
279.31601 -327.308594 5.62599993
279.263153 -327.358643 5.82429981
279.221619 -327.273956 7.56389999
279.372589 -327.177002 0.824899971
279.345306 -327.041504 2.09030008
279.333313 -327.146698 3.52600002
279.217712 -327.012909 3.79509997
279.337463 -327.105225 4.66790009
279.273102 -327.001007 5.08139992
279.270294 -327.031708 5.30660009
279.251709 -327.190491 5.69430017
279.218903 -327.187714 5.98880005
279.382294 -326.843414 -0.375200003
279.359711 -326.89801 1.30970001
279.377991 -326.867188 1.99240005
279.220306 -326.849792 2.65510011
279.280853 -326.951202 4.7354002
279.23761 -326.969604 4.84759998
279.243195 -326.99939 5.1072998
279.213013 -326.962097 5.52769995
279.22699 -326.919098 5.75740004
279.240692 -326.97229 5.8441
279.34201 -326.784698 0.569599986
279.336914 -326.788208 0.772499979
279.303009 -326.609497 0.898400009
279.383911 -326.634888 1.38750005
279.3797 -326.615997 1.53550005
279.240967 -326.755341 4.53384972
279.24408 -326.733276 4.75750017
279.30545 -326.478302 1.46589994
279.246887 -326.498291 2.13240004
279.312988 -326.574005 2.29279995
279.258423 -326.463135 2.48790002
279.20459 -326.552094 4.64919996
279.201294 -326.411499 4.84250021
279.248291 -326.407806 5.0454998
279.297791 -326.20929 1.12650001
279.271515 -326.269287 1.23759997
279.219391 -326.351013 4.7185998
279.206726 -326.357971 4.88770008
279.258606 -326.017487 2.26329994
279.222412 -326.167297 4.72380018
279.372803 -325.819611 -0.276899993
279.212708 -325.993286 2.12680006
279.257599 -325.516113 -0.64319998
279.226898 -325.588409 0.69569999
279.234802 -325.392792 0.140499994
279.251801 -325.375885 0.442900002
279.536285 -331.400085 13.1128998
279.547241 -331.422852 13.5113001
279.593414 -331.415588 13.8256998
279.587891 -331.317993 10.4645996
279.529785 -331.308197 12.2055998
279.513702 -331.260712 12.7145996
279.460022 -331.262024 12.9219999
279.528015 -331.381805 14.0937004
279.452911 -331.008514 7.27180004
279.585297 -331.042908 9.37360001
279.529999 -331.01709 9.43659973
279.55719 -331.042908 11.3353996
279.524902 -331.032745 13.6919498
279.446503 -331.092499 14.1511002
279.535492 -331.189911 14.2565002
279.591705 -330.838013 6.84210014
279.513214 -330.859589 10.1218004
279.5961 -330.935913 10.4125004
279.408997 -330.883606 13.3872004
279.522095 -330.878906 14.2870502
279.533508 -330.874115 14.4154997
279.587585 -330.731903 9.02110004
279.498047 -330.61911 9.86880016
279.538849 -330.64801 10.86975
279.598114 -330.672302 12.3332005
279.514404 -330.648285 12.9151001
279.413513 -330.615509 14.2377996
279.595306 -330.531494 7.31139994
279.582306 -330.549286 7.62559986
279.505798 -330.530609 10.1646004
279.535004 -330.483704 11.2735996
279.546692 -330.207397 6.75269985
279.539612 -330.317596 7.26359987
279.576599 -330.333496 9.18389988
279.453888 -330.256805 9.4144001
279.473083 -330.315063 10.2647495
279.4552 -330.393005 10.5321999
279.493286 -330.375 10.7742996
279.577026 -330.301697 11.5257502
279.557495 -330.277496 11.7079
279.518402 -330.269104 11.8123999
279.421692 -330.381897 12.5178003
279.483704 -330.329498 14.2889996
279.453796 -330.305908 14.4484997
279.5336 -330.315704 14.6415005
279.530609 -330.093414 5.66450024
279.535309 -330.031097 6.26779985
279.532288 -330.117004 7.06549978
279.560699 -330.072693 7.48859978
279.59201 -330.144287 7.74580002
279.585114 -330.022186 8.89360046
279.513489 -330.14209 9.39109993
279.412689 -330.112 9.43789959
279.473206 -330.042511 10.5136995
279.485107 -330.108002 10.9143333
279.553986 -330.161011 11.5974998
279.537689 -330.056305 11.6676998
279.451691 -330.046997 12.3895998
279.447113 -330.194 13.8617001
279.576233 -329.809845 3.2579
279.570709 -329.810913 3.54710007
279.534668 -329.873138 6.91909981
279.56839 -329.857086 7.08529997
279.511597 -329.981201 7.2814002
279.510498 -329.937286 7.63980007
279.592194 -329.998596 8.20899963
279.530701 -329.866211 8.73385048
279.578094 -329.835114 8.99979973
279.445496 -329.921387 10.2615995
279.467102 -329.828094 11.1852999
279.445892 -329.838104 11.3940001
279.506012 -329.943237 11.5135002
279.450012 -329.824799 12.2264004
279.528503 -329.940186 14.7047997
279.487488 -329.911407 14.8775997
279.552704 -329.614502 4.07270002
279.530212 -329.694092 4.26130009
279.490295 -329.611542 7.54535007
279.578186 -329.789215 8.0532999
279.555908 -329.619385 8.96959972
279.55719 -329.686005 9.16040039
279.400787 -329.658112 10.2270002
279.451599 -329.653809 10.4785995
279.437012 -329.670197 10.9118996
279.537109 -329.628906 11.5290003
279.504608 -329.686615 12.7447004
279.427399 -329.661102 13.0010996
279.409698 -329.79071 13.9253998
279.596405 -329.505188 2.8736999
279.564209 -329.465149 3.12615013
279.597687 -329.586212 3.21420002
279.570953 -329.469849 3.4835
279.564636 -329.496155 3.67540002
279.556793 -329.560791 3.87980008
279.545593 -329.538208 6.15920019
279.43631 -329.502594 6.31599998
279.574097 -329.522614 6.47440004
279.59491 -329.4328 6.62319994
279.474304 -329.598297 7.4368
279.5177 -329.409912 8.88119984
279.537201 -329.562286 9.29730034
279.460114 -329.449493 9.44620037
279.42511 -329.422394 9.75689983
279.447601 -329.456085 11.2046003
279.469086 -329.513214 11.5278997
279.414215 -329.436798 12.4876003
279.450287 -329.405701 14.7547998
279.494904 -329.599792 14.8209
279.565887 -329.329895 2.57270002
279.560394 -329.24176 3.86500001
279.595215 -329.310394 4.28529978
279.573486 -329.264313 5.50040007
279.487091 -329.384796 5.77390003
279.454895 -329.346588 6.58419991
279.469299 -329.212708 6.98670006
279.54361 -329.363495 7.17609978
279.575592 -329.3349 7.28240013
279.5979 -329.36319 7.50710011
279.528809 -329.224091 7.67619991
279.5578 -329.367096 7.8979001
279.523346 -329.218933 8.03689957
279.446289 -329.223297 8.47780037
279.466492 -329.269897 8.64500046
279.546814 -329.366394 8.81569958
279.498535 -329.252258 9.10562515
279.457611 -329.361206 10.6583996
279.446808 -329.336395 11.1735001
279.456696 -329.231995 11.2210999
279.482086 -329.338715 11.6043997
279.400909 -329.203094 12.0042
279.461609 -329.392303 12.3690996
279.553802 -329.318909 12.5925999
279.561707 -329.073792 5.29335022
279.5784 -329.078613 6.87760019
279.504608 -329.105591 7.25169992
279.571991 -329.159607 7.73869991
279.510712 -329.130005 7.85169983
279.505493 -329.080444 8.07009983
279.504089 -329.166412 8.68080044
279.478699 -329.134491 8.99909973
279.434296 -329.016418 10.1240997
279.4888 -329.194702 10.6400995
279.403015 -329.1875 11.1477003
279.499298 -329.186401 11.7950001
279.542999 -329.158508 12.4990997
279.561615 -329.117096 12.7718
279.467407 -329.111603 13.2090998
279.531891 -328.853088 3.77020001
279.532196 -328.830688 4.51634979
279.542603 -328.868805 5.60440016
279.547424 -328.844452 5.86660004
279.4729 -328.85376 7.12169981
279.500702 -328.955505 7.42354965
279.453003 -328.885925 7.94935036
279.476593 -328.987488 8.60400009
279.519165 -328.934601 9.16860008
279.465912 -328.942291 9.36590004
279.54361 -328.821503 12.5974998
279.57019 -328.751007 5.76450014
279.550995 -328.70929 6.19680023
279.554596 -328.6521 7.09140015
279.413605 -328.766602 8.44789982
279.437408 -328.774689 8.64009953
279.416687 -328.697998 8.92920017
279.407104 -328.7659 9.27509975
279.407196 -328.656586 9.77029991
279.554291 -328.557892 3.49510002
279.58075 -328.48999 4.23950005
279.459015 -328.452393 4.58139992
279.491058 -328.458954 4.69024992
279.475006 -328.407501 5.19700003
279.505493 -328.520599 5.96269989
279.494293 -328.529602 7.90310001
279.431549 -328.422699 8.25200081
279.481415 -328.412903 9.49269962
279.505188 -328.31189 2.36689997
279.477905 -328.25 2.58759999
279.579193 -328.200409 2.90560007
279.533295 -328.366486 3.58410001
279.527161 -328.313293 3.86485004
279.514313 -328.264099 4.05039978
279.518585 -328.380707 4.23479986
279.514496 -328.383209 4.5170002
279.496307 -328.387207 4.73159981
279.502106 -328.249786 4.94049978
279.495789 -328.275787 6.16520023
279.411011 -328.299408 6.70949984
279.411591 -328.200592 6.91270018
279.40329 -328.316193 8.52760029
279.562103 -328.043793 -0.00289999996
279.589905 -328.039612 0.230199993
279.570496 -328.030304 1.27380002
279.50061 -328.005798 2.9052
279.52771 -328.107208 3.12549996
279.484711 -328.125702 3.50460005
279.478088 -328.066742 3.65390015
279.507019 -328.153503 4.1019001
279.49411 -328.179108 4.29110003
279.456604 -328.1008 4.40250015
279.500458 -328.059387 4.74466658
279.428589 -328.082306 5.06589985
279.407013 -328.060699 5.79759979
279.436798 -328.153992 6.32240009
279.414612 -328.084595 7.27470016
279.593811 -328.092194 9.3135004
279.453003 -328.197815 9.59679985
279.509552 -328.101654 12.9127502
279.565613 -327.805511 -0.574699998
279.590515 -327.919586 -0.210500002
279.552185 -327.930511 0.305400014
279.55481 -327.899506 0.476200014
279.592804 -327.861908 0.899800003
279.537598 -327.890686 1.01909995
279.561188 -327.945099 1.47749996
279.44751 -327.861206 1.99629998
279.523804 -327.902039 2.2874999
279.479401 -327.912903 2.94810009
279.543518 -327.94397 3.05722499
279.452789 -327.905151 3.51104999
279.469971 -327.891205 3.92347503
279.464233 -327.95343 4.08955002
279.4664 -327.827942 4.27733326
279.441498 -327.869202 4.71565008
279.489594 -327.924255 5.06980038
279.404114 -327.968292 5.4691
279.493896 -327.947388 6.0632
279.567902 -327.928314 9.72029972
279.400604 -327.962097 12.7630997
279.530396 -327.706696 -0.885500014
279.51181 -327.695099 -0.400999993
279.576202 -327.785309 -0.297899991
279.532867 -327.678406 -0.0686666667
279.558838 -327.668457 0.43384999
279.589691 -327.625214 1.56939995
279.560303 -327.770111 1.75030005
279.479401 -327.644501 1.824
279.518066 -327.771545 2.29233336
279.441223 -327.608215 3.50479984
279.479645 -327.652039 3.71950006
279.407288 -327.792694 3.86999989
279.475403 -327.774506 4.42920017
279.440857 -327.735046 4.64160013
279.421906 -327.790009 5.4689002
279.406006 -327.713196 5.76499987
279.486328 -327.713257 12.9755001
279.537598 -327.688904 13.0507002
279.527313 -327.480408 -1.28980005
279.504272 -327.537262 -0.476866663
279.513794 -327.451385 0.106399998
279.504486 -327.593994 1.204
279.501709 -327.547913 1.40339994
279.460602 -327.4422 2.23850012
279.551514 -327.514587 2.60339999
279.551697 -327.56839 2.88960004
279.440704 -327.46579 3.7191
279.423798 -327.469177 3.88433337
279.435211 -327.5896 4.39449978
279.56839 -327.452698 5.92579985
279.545502 -327.512268 9.47764969
279.568909 -327.588196 9.83619976
279.474609 -327.302704 0.471500009
279.434387 -327.206909 0.825500011
279.406738 -327.284912 2.04764986
279.48996 -327.294495 2.56110001
279.404785 -327.370605 4.0486002
279.587006 -327.259888 6.33419991
279.592499 -327.376801 9.54899979
279.595093 -327.312012 9.69890022
279.476868 -327.080109 -1.03524995
279.419403 -327.018188 -0.682600021
279.496948 -327.124512 -0.303900003
279.429688 -327.101593 1.17200005
279.400391 -327.196198 3.88840008
279.493896 -326.832397 -0.679799974
279.445801 -326.942993 0.328700006
279.401489 -326.995697 1.86010003
279.568787 -326.650299 -0.674199998
279.444794 -326.633698 -0.569400012
279.44519 -326.74649 0.168500006
279.589996 -326.564606 -0.522000015
279.411804 -326.2146 1.61240005
279.531311 -325.605896 -0.745100021
279.483002 -325.782104 0.463099986
279.462402 -325.422913 -0.737900019
279.492798 -325.461395 -0.545000017
279.794403 -334.005188 13.5265999
279.788605 -332.253448 13.2939491
279.764587 -332.219391 13.776
279.743408 -332.084961 13.3242998
279.740997 -332.065002 13.7068005
279.712494 -331.815186 12.5699997
279.785095 -331.839813 12.6071997
279.748993 -331.967896 14.2221003
279.793091 -331.799286 11.4684
279.644592 -331.644104 13.8418999
279.774597 -331.551086 8.53369999
279.765686 -331.463562 9.29854965
279.798096 -331.572113 12.5120001
279.796814 -331.530487 12.8863001
279.727844 -331.531067 13.0527992
279.620758 -331.452057 13.4882002
279.671814 -331.558807 14.3142004
279.694214 -331.224792 9.61520004
279.669647 -331.260406 10.3306503
279.735992 -331.366211 10.6641998
279.764709 -331.291809 11.0478001
279.6745 -331.310303 11.6615
279.697998 -331.394196 14.0277004
279.792114 -331.394012 14.6513004
279.738892 -331.085785 5.64669991
279.734985 -331.018585 6.93219995
279.637512 -331.139587 7.18970013
279.75647 -331.11795 7.29450035
279.669312 -331.070801 7.5314002
279.798615 -331.028412 8.10149956
279.600403 -331.118591 9.69299984
279.649109 -331.194489 10.4833002
279.661377 -331.126495 10.7267494
279.619202 -331.019806 10.9596996
279.718414 -331.152802 11.1541996
279.692505 -331.168915 11.5796003
279.773987 -330.852356 3.11315012
279.748688 -330.864197 3.59100008
279.788513 -330.954193 4.18760014
279.739594 -330.919891 5.98649979
279.6987 -330.932892 6.40299988
279.637207 -330.952606 6.7888999
279.725281 -330.930908 7.10890007
279.776001 -330.997101 7.57969999
279.776794 -330.913391 7.71239996
279.775909 -330.832214 7.89729977
279.656403 -330.992615 8.97719955
279.610199 -330.813385 9.38729954
279.619354 -330.905365 10.5230503
279.629303 -330.943695 10.9131002
279.633514 -330.993896 11.2217999
279.735809 -330.928101 11.8107004
279.671204 -330.940704 14.6457996
279.713593 -330.682312 3.09850001
279.757507 -330.684814 3.29554987
279.74765 -330.685455 3.42295003
279.675201 -330.641693 6.97879982
279.667114 -330.773499 7.31085014
279.667206 -330.775787 7.49739981
279.783508 -330.790497 7.76830006
279.724915 -330.634888 7.98530006
279.761505 -330.759277 8.31993294
279.729004 -330.713013 8.78719997
279.737091 -330.746307 8.88010025
279.672302 -330.748108 9.22850037
279.619904 -330.761414 11.1362
279.620392 -330.774689 11.4306002
279.618103 -330.666504 11.7947998
279.799805 -330.465393 2.54620004
279.687286 -330.571411 3.38569999
279.797485 -330.512695 5.73899984
279.677887 -330.419189 6.08620024
279.654602 -330.502197 6.2729001
279.683197 -330.460388 7.04069996
279.701691 -330.461914 7.72599983
279.741089 -330.415985 7.8137002
279.7547 -330.541504 8.12059975
279.680786 -330.483551 8.27464962
279.736267 -330.521149 8.55854988
279.69989 -330.550201 8.79810047
279.762085 -330.507019 8.84474945
279.612091 -330.557007 10.9982004
279.602203 -330.443207 11.1222
279.795197 -330.280914 2.76889992
279.713593 -330.209106 2.86450005
279.755249 -330.291321 3.09660006
279.770508 -330.328186 3.3124001
279.707336 -330.240448 3.48959994
279.715302 -330.348785 3.67910004
279.684601 -330.214417 3.88759995
279.704498 -330.259003 4.01590014
279.757385 -330.245544 4.43665028
279.699188 -330.2453 5.9066
279.735107 -330.3862 6.11359978
279.648499 -330.350891 7.04120016
279.69281 -330.323608 7.44229984
279.646515 -330.28949 7.70120001
279.720886 -330.356812 7.93410015
279.692688 -330.333496 8.03849983
279.758789 -330.285095 8.33460045
279.767212 -330.292114 8.47369957
279.668854 -330.238251 8.72364998
279.687897 -330.258789 9.11910057
279.618591 -330.273987 11.3971004
279.7117 -330.043304 0.649399996
279.750397 -330.062286 2.68650007
279.709595 -330.149902 3.33270001
279.663025 -330.112854 3.52679992
279.701416 -330.104034 3.72204995
279.70929 -330.005249 4.29465008
279.774902 -330.068695 4.69189978
279.713013 -330.041748 5.4849
279.795502 -330.160309 5.60020018
279.698303 -330.152191 6.04069996
279.671997 -330.137787 8.36240005
279.618591 -330.017303 8.79069996
279.665985 -330.115387 8.81060028
279.740601 -329.91571 0.171499997
279.728271 -329.853607 2.71093321
279.672363 -329.858246 3.15210009
279.71991 -329.925293 3.23309994
279.665802 -329.988495 3.5387001
279.682343 -329.966492 3.95704985
279.632385 -329.807007 4.29489994
279.675507 -329.935913 4.53809977
279.742889 -329.86319 4.64090014
279.639893 -329.971497 5.32200003
279.726105 -329.993103 5.54169989
279.674133 -329.860748 5.87755013
279.674286 -329.89151 7.97770023
279.612488 -329.925201 8.59449959
279.712799 -329.750702 2.7026999
279.72821 -329.787598 2.80809999
279.626709 -329.772797 3.05170012
279.600189 -329.684509 3.65400004
279.643097 -329.707031 4.36884975
279.742615 -329.766602 4.56010008
279.731506 -329.669098 5.24410009
279.648285 -329.787415 8.08440018
279.631287 -329.757385 8.6967001
279.653595 -329.555695 0.604200006
279.792999 -329.415497 2.17459989
279.708893 -329.444885 2.59780002
279.643341 -329.457275 2.68524981
279.62735 -329.531891 2.84476662
279.716797 -329.589294 5.04909992
279.716003 -329.562592 5.64120007
279.609009 -329.464813 6.01719999
279.633209 -329.475311 8.25769997
279.621185 -329.495605 9.4701004
279.60379 -329.423309 12.7695999
279.671509 -329.259491 0.359600008
279.798187 -329.391388 1.29410005
279.687897 -329.277496 1.9303
279.749908 -329.383698 2.08400011
279.776306 -329.276398 2.21370006
279.696716 -329.303802 2.64059997
279.638916 -329.357635 3.15766668
279.653442 -329.318909 3.27754998
279.646606 -329.275909 3.50189996
279.615601 -329.342285 3.70149994
279.630066 -329.287048 3.88719988
279.640503 -329.251587 4.28049994
279.624573 -329.226044 5.72675037
279.600189 -329.224487 6.00740004
279.729797 -329.356995 9.57219982
279.753693 -329.252808 9.68120003
279.720886 -329.029297 0.253699988
279.728088 -329.181488 0.918500006
279.745209 -329.09491 1.02610004
279.7836 -329.183014 1.21449995
279.739105 -329.099396 1.58659995
279.780304 -329.154907 1.85619998
279.656189 -329.150787 2.75740004
279.653595 -329.172699 3.67980003
279.654785 -329.004486 3.96799994
279.609589 -329.007294 4.14069986
279.671753 -329.107788 4.27845001
279.659302 -329.164001 4.4987998
279.662903 -329.012299 5.83300018
279.711212 -329.110596 9.26070023
279.670288 -329.126709 12.8900995
279.713593 -328.802795 0.0769999996
279.772095 -328.919891 0.415100008
279.747803 -328.835907 0.786800027
279.680511 -328.967499 1.05439997
279.766998 -328.975006 1.21589994
279.743195 -328.933807 1.54139996
279.763611 -328.98941 1.66100001
279.710785 -328.856598 2.18569994
279.701538 -328.947449 2.50199986
279.615387 -328.9505 2.66140008
279.689453 -328.962463 3.51305008
279.628204 -328.889801 3.75290012
279.628387 -328.946899 3.94330001
279.678711 -328.933289 4.35340023
279.635406 -328.879456 4.44344997
279.611298 -328.9104 5.45009995
279.790985 -328.82901 6.09380007
279.772491 -328.931305 6.69199991
279.798004 -328.809998 9.54640007
279.65271 -328.831207 9.93280029
279.617615 -328.918915 12.8901997
279.708069 -328.874817 13.0636501
279.629486 -328.752686 -0.444499999
279.731201 -328.796997 -0.296499997
279.705505 -328.742096 -0.0976999998
279.653503 -328.702301 0.258599997
279.769989 -328.757294 0.58160001
279.650696 -328.643402 1.04340005
279.692596 -328.696808 1.39339995
279.636993 -328.684204 1.727
279.622589 -328.663605 1.84060001
279.625 -328.737915 2.32590008
279.65741 -328.688904 2.41939998
279.64801 -328.7883 3.56369996
279.657715 -328.750092 4.03100014
279.600403 -328.793396 4.21820021
279.788788 -328.793213 5.97459984
279.775513 -328.761993 6.64820004
279.633087 -328.747589 9.78660011
279.71521 -328.748047 12.8757
279.78009 -328.762787 13.1309004
279.727905 -328.527893 -0.512199998
279.750793 -328.548798 0.0873000026
279.628113 -328.515686 2.6414001
279.618195 -328.407593 3.26690006
279.744873 -328.525024 9.64630032
279.71759 -328.336914 0.229599997
279.62616 -328.349701 1.89155006
279.642303 -328.152008 -0.581200004
279.650787 -328.197906 0.836199999
279.664001 -328.19989 1.39540005
279.623596 -328.118591 1.94210005
279.605286 -328.15451 6.28840017
279.785492 -328.099396 6.57560015
279.690887 -328.118896 9.83720016
279.610809 -327.871887 2.33039999
279.713593 -327.848206 3.00200009
279.717987 -327.845795 6.02190018
279.733521 -327.917969 6.20819998
279.797089 -327.990509 6.5783
279.659302 -327.734009 -1.65530002
279.696594 -327.704498 2.69689989
279.627289 -327.668488 3.37330008
279.624207 -327.685791 9.67459965
279.720459 -327.526184 3.2961998
279.705627 -327.514587 6.34450006
279.76474 -327.489227 6.43226671
279.61319 -327.492615 9.57820034
279.722992 -327.397491 2.70539999
279.766815 -327.367889 6.34250021
279.931 -334.089813 12.7601004
279.995605 -334.123108 13.915
279.949005 -333.820312 13.1771002
279.942505 -333.820709 13.5585003
279.984589 -333.973114 13.6048002
279.985199 -333.628113 9.75739956
279.991028 -333.753143 10.0932999
279.918091 -333.600006 12.7328997
279.925812 -333.684296 12.8941002
279.9021 -333.667786 14.0815001
279.867188 -333.405914 9.79979992
279.915497 -333.471802 9.99860001
279.917786 -333.553619 12.9195662
279.997894 -333.56189 13.9352999
279.947388 -333.571411 14.0698996
279.968109 -333.253296 12.7315998
279.983185 -333.0289 11.7361002
279.974213 -332.945404 10.1310997
279.929291 -332.959106 12.7552996
279.940094 -332.800995 13.1292
279.985992 -332.911011 13.4184999
279.95871 -332.884399 13.6569996
279.911072 -332.899719 14.1254501
279.967712 -332.64209 10.3493996
279.985992 -332.698303 11.0148001
279.963501 -332.743591 12.0228004
279.947388 -332.661011 12.9680004
279.933014 -332.772186 13.2965002
279.866211 -332.68512 13.7212505
279.895142 -332.723938 13.9488001
279.964111 -332.618591 14.6267996
279.988098 -332.409088 10.7163
279.889587 -332.474701 12.1124001
279.903625 -332.482361 12.7086506
279.94809 -332.512634 13.0940332
279.886597 -332.485809 13.2955332
279.921021 -332.478424 13.518733
279.881989 -332.519409 13.6454
279.880493 -332.542999 13.9004002
279.891907 -332.58139 14.0263996
279.870209 -332.507599 14.5459003
279.955902 -332.35141 9.1711998
279.942291 -332.200806 10.1090002
279.943207 -332.300903 10.4722996
279.931793 -332.290009 10.6719999
279.986206 -332.315308 10.8140001
279.914307 -332.262207 11.3327999
279.900513 -332.235809 12.5497999
279.977905 -332.01239 7.52110004
279.952606 -332.181702 8.33670044
279.923004 -332.112915 9.03969955
279.941803 -332.035522 9.34344959
279.843994 -332.195709 10.3172998
279.898804 -332.173492 11.1208
279.850586 -332.193207 11.6486502
279.867798 -332.065887 12.1244001
279.834595 -332.133545 12.5513
279.804291 -332.077789 12.7406998
279.833496 -332.174408 13.1382999
279.860229 -332.11319 13.2823505
279.839813 -332.013611 13.6415997
279.882111 -332.022095 13.8684998
279.818604 -332.149811 14.4473
279.960999 -332.017792 14.8263998
279.996094 -331.873199 5.57299995
279.994385 -331.957886 6.6954999
279.952606 -331.842987 7.45760012
279.931702 -331.933594 8.00360012
279.98349 -331.910614 8.45930004
279.981689 -331.909393 8.68200016
279.959412 -331.958984 9.09529972
279.895294 -331.92691 9.33129978
279.942596 -331.88031 10.4385004
279.830292 -331.82019 10.9837999
279.852997 -331.979095 11.3056002
279.863892 -331.820709 11.5250998
279.813507 -331.82901 12.7839003
279.803406 -331.88681 13.7550001
279.820007 -331.884613 14.3676004
279.956696 -331.639313 6.18830013
279.984009 -331.68399 6.64690018
279.974548 -331.691223 6.86299992
279.958191 -331.791595 7.25390005
279.940125 -331.764801 7.52955008
279.979004 -331.739105 7.69439983
279.970886 -331.618988 7.91940022
279.883301 -331.742615 8.57970047
279.976715 -331.735291 9.19079971
279.91156 -331.709412 9.29526711
279.905914 -331.760895 9.70580006
279.891998 -331.706055 10.4920502
279.814911 -331.681793 10.6527996
279.970398 -331.654388 11.0459995
279.826996 -331.758698 11.3404999
279.852997 -331.651703 11.6342001
279.852295 -331.638489 12.2442999
279.987091 -331.417999 4.31339979
279.9375 -331.414795 6.20959997
279.969696 -331.492798 6.67719984
279.891785 -331.479645 7.16514969
279.915009 -331.411987 7.34709978
279.912689 -331.52829 7.59119987
279.873413 -331.497314 8.4572506
279.903015 -331.427887 8.67910004
279.877808 -331.517517 9.04370022
279.872009 -331.542206 9.62170029
279.863586 -331.572601 9.90260029
279.805695 -331.568207 12.9295998
279.886597 -331.415192 14.7863998
279.952911 -331.262909 3.93510008
279.967194 -331.3815 4.11880016
279.941711 -331.295593 6.14820004
279.974091 -331.358398 6.64219999
279.976196 -331.391113 6.85410023
279.911987 -331.326202 7.63215017
279.805389 -331.278503 8.12380028
279.866638 -331.214294 8.2890501
279.911011 -331.395691 8.75409985
279.835907 -331.203186 8.96949959
279.831787 -331.392609 9.85099983
279.971802 -331.000305 0.95450002
279.971191 -331.188599 3.29270005
279.924286 -331.025909 3.41750002
279.925293 -331.088135 3.76259995
279.903595 -331.023499 4.01130009
279.898804 -331.025787 4.33160019
279.967194 -331.195099 4.59899998
279.964203 -331.087189 5.57469988
279.865692 -331.192902 5.72209978
279.82901 -331.030396 7.24440002
279.81311 -331.137207 7.54659986
279.836639 -331.092651 7.68245029
279.859589 -331.097412 7.90360022
279.808411 -331.057312 8.29920006
279.908112 -330.869293 2.92030001
279.867798 -330.975006 3.1796999
279.893585 -330.988495 3.40149999
279.882111 -330.927612 3.77349997
279.904602 -330.903198 3.86999989
279.882385 -330.916138 4.34019995
279.976715 -330.857788 4.64480019
279.96109 -330.892639 4.94204998
279.811798 -330.997894 8.28660011
279.805695 -330.873291 8.52560043
279.937103 -330.799408 -0.0666999966
279.883209 -330.707489 0.410400003
279.99231 -330.608398 2.04119992
279.827209 -330.666107 2.65770006
279.813904 -330.690002 3.79189992
279.820312 -330.673004 3.8375001
279.863007 -330.670105 4.30439997
279.847504 -330.685791 5.75180006
279.802887 -330.69751 6.07600021
279.822601 -330.70929 8.69219971
279.850342 -330.415466 0.274899989
279.971893 -330.545807 1.16849995
279.945801 -330.559387 1.25150001
279.956207 -330.476593 1.89250004
279.855896 -330.519897 2.6795001
279.843994 -330.516388 4.20440006
279.886414 -330.491699 4.53420019
279.817688 -330.411285 4.6157999
279.872986 -330.58371 4.95079994
279.830292 -330.595093 8.04179955
279.828491 -330.366089 0.173700005
279.991791 -330.270935 1.29294991
279.966949 -330.261414 1.41225004
279.843597 -330.254395 2.23475003
279.808502 -330.26181 2.7815001
279.831543 -330.082489 0.919950008
279.944244 -330.099243 1.29589999
279.966461 -330.172852 1.48559999
279.942932 -330.106842 1.69354999
279.926086 -330.196503 1.91390002
279.981415 -330.194885 2.14030004
279.894104 -330.166687 2.33829999
279.819702 -330.162598 2.79559994
279.822937 -330.055847 4.69075012
279.927094 -329.915497 1.16209996
279.917419 -329.904236 1.27160001
279.89386 -329.892242 1.70410001
279.896393 -329.867889 1.97130001
279.905609 -329.894501 2.09310007
279.877991 -329.788788 1.18840003
279.826111 -329.668396 1.32990003
279.884247 -329.723755 1.5169667
279.879486 -329.756409 1.64339995
279.860809 -329.770813 1.96270001
279.899811 -329.694885 2.05369997
279.838104 -329.542114 1.16190004
279.863586 -329.51535 1.52489996
279.888397 -329.585602 1.65279996
279.81723 -329.350006 1.68213332
279.811584 -329.302551 1.89715004
279.820801 -329.109589 -0.247099996
279.85379 -329.021912 2.89490008
279.866913 -329.114105 6.03599977
279.903076 -329.029419 6.32835007
279.846497 -328.9198 0.401199996
279.969086 -328.869293 2.60599995
279.938995 -328.902588 3.46000004
279.853088 -328.920197 6.3276
279.802094 -328.793793 0.323100001
279.940002 -328.734192 2.66689992
279.950897 -328.4328 2.70630002
279.970703 -328.533691 2.8046
279.875092 -328.544312 3.31229997
279.91391 -328.337097 2.74000001
279.965912 -328.304291 3.18530011
279.928406 -328.030701 2.95770001
279.830109 -327.490997 3.08119988
279.803894 -327.139587 2.99559999
279.80249 -327.071411 3.15890002
