# .PCD v0.7 - Point Cloud Data file format
VERSION 0.7
FIELDS x y z
SIZE 4 4 4
TYPE F F F
COUNT 1 1 1
WIDTH 80
HEIGHT 1
VIEWPOINT 0 0 0 1 0 0 0
POINTS 80
DATA ascii
100.1856 -42.9016991 7.50269985
100.278801 -56.8227997 10.6422997
100.267899 -56.4992981 15.3083
100.375603 -42.8246994 10.3140001
100.384003 -42.6363983 10.0867004
100.307701 -42.7794991 10.5285997
100.479103 -42.8260002 10.0053997
100.6996 -43.3055 7.49100018
100.893997 -43.4672012 11.2154999
100.941498 -43.0089989 9.86800003
100.870903 -42.9598999 10.0374002
101.056 -56.5575981 15.3081999
101.337997 -56.9224014 7.15240002
101.899696 -57.1673012 8.32470036
101.988899 -57.111599 13.6759005
102.0158 -57.2141991 13.5233002
102.290298 -57.5173988 8.44939995
102.327202 -56.6506004 15.2622004
102.655899 -56.8922005 7.89289999
102.691902 -43.6269989 11.2608995
102.733498 -43.1815987 11.3081999
102.941803 -57.0209007 7.23969984
102.951103 -56.5728989 12.5383997
102.823997 -43.6758995 6.52979994
102.820297 -43.6645012 8.12880039
102.835403 -43.7891998 9.24629974
102.805702 -43.5597 6.2125001
102.876602 -43.4440994 8.82269955
102.942497 -43.5149994 10.8862
102.919296 -43.2568016 6.20539999
102.9021 -43.262001 8.45370007
102.992599 -43.3097 11.4273005
102.847801 -43.3358002 11.9095001
102.968048 -43.1075516 8.84189987
102.974297 -43.1717987 11.1732998
103.076103 -56.8171005 12.2279997
103.017601 -56.5648003 12.3600998
103.031303 -43.2579002 7.31309986
103.0056 -43.2345009 11.2901001
103.144798 -43.1505013 10.0137997
103.054199 -43.0209999 14.0103998
103.101097 -42.9276009 13.3345003
103.061401 -42.9936981 13.7018995
103.4646 -57.3555984 11.1398001
103.7006 -43.0042 7.37799978
103.834 -42.9323997 9.77760029
103.917297 -42.7873993 9.8156004
106.365402 -43.4099007 13.7669001
106.284599 -43.2006989 9.01650047
106.377502 -43.0852013 11.1232996
106.569099 -42.8162003 7.6546998
107.022301 -43.5154991 14.3191996
107.675598 -56.9057999 11.3906002
108.094803 -56.7865982 13.3628998
109.323097 -42.6132011 12.3083
110.7901 -56.478199 10.8142004
110.780502 -56.4752998 13.4062996
110.716003 -56.3476982 13.7433004
110.600601 -55.6525993 13.0256004
110.993599 -56.9510002 10.5110998
110.893051 -56.6344986 9.25699997
110.861603 -56.6203003 10.0049
110.958397 -56.7484016 12.5094995
110.859299 -56.4287987 11.9077997
110.9394 -56.5331993 12.3192997
110.9105 -56.5979996 13.3035002
110.948898 -56.3143997 9.38630009
110.848297 -55.8768005 9.60410023
110.869797 -55.8708992 12.6751003
110.903503 -55.8525009 15.2953997
111.026497 -57.0099983 8.82699966
111.130096 -56.8855019 9.10459995
112.322098 -43.2589989 8.6711998
112.425499 -43.5447006 8.17350006
112.532997 -43.030899 8.38580036
112.627403 -43.0303993 13.5717001
113.178101 -42.9193993 10.0937996
115.853203 -56.4323006 9.35410023
115.825996 -43.6119995 8.47889996
119.361603 -43.1599998 13.0928001
