# .PCD v0.7 - Point Cloud Data file format
VERSION 0.7
FIELDS x y z
SIZE 4 4 4
TYPE F F F
COUNT 1 1 1
WIDTH 30
HEIGHT 1
VIEWPOINT 0 0 0 1 0 0 0
POINTS 30
DATA ascii
180.067093 -79.5457001 17.9006996
180.025101 -78.8339005 6.29349995
180.365601 -79.9364014 7.50530005
180.964706 -79.365097 5.2171998
181.630997 -75.4936981 9.8366003
181.937698 -79.4540024 17.1462002
182.190201 -79.532402 5.5921998
183.399796 -79.5264969 5.78970003
183.688797 -79.9869995 5.14109993
184.980392 -79.7731018 3.8900001
187.177795 -79.4385986 13.2505999
189.5354 -79.8557968 16.3780003
191.303894 -77.4742966 2.49359989
191.376999 -76.8337021 8.08979988
191.356598 -76.6046982 2.727
191.374207 -76.7162018 3.97329998
191.522507 -78.2769012 2.24679995
191.573196 -78.3727036 10.6604004
191.524399 -77.8284988 2.74970007
191.454407 -77.7671967 3.0079
191.584702 -77.5286026 7.20949984
191.51326 -77.2670288 3.50076652
191.425705 -77.2516022 3.63610005
191.583496 -77.3742981 6.73040009
191.415405 -77.0393982 2.89560008
191.497894 -77.0817032 3.83049989
191.418106 -76.9410019 3.08060002
191.716995 -78.6607971 7.3045001
191.658203 -78.1141968 6.39480019
191.664795 -77.7517548 6.1315999
