# .PCD v0.7 - Point Cloud Data file format
VERSION 0.7
FIELDS x y z
SIZE 4 4 4
TYPE F F F
COUNT 1 1 1
WIDTH 98
HEIGHT 1
VIEWPOINT 0 0 0 1 0 0 0
POINTS 98
DATA ascii
180.016144 -159.948151 2.71869993
180.116196 -159.8638 3.02550006
180.072845 -159.640854 2.67075014
180.022003 -159.683701 2.91944981
180.048248 -159.653854 3.03100014
180.001801 -159.579407 0.604099989
180.027405 -159.441498 2.95900011
180.052643 -159.260696 2.73294997
180.115601 -159.308456 2.90304995
180.049454 -159.117203 2.75699997
180.045807 -159.031998 2.9920001
180.051605 -159.103699 3.03629994
180.008896 -158.998093 2.75999999
180.036499 -158.905899 2.88319993
180.052505 -158.959702 3.06719995
180.045807 -158.680695 2.58039999
180.015259 -158.678345 2.7121501
180.012497 -158.647797 2.8973999
180.087265 -158.68309 3.06089997
180.058807 -158.544693 2.796
180.045593 -158.400604 2.87610006
180.173904 -158.445694 3.00200009
180.032303 -158.365494 2.74769998
180.0159 -158.148895 1.09080005
180.0056 -158.196304 2.72210002
180.0159 -157.901901 2.72230005
180.069305 -157.910797 3.10349989
180.052094 -157.694061 2.8970499
180.006607 -157.645203 3.02349997
180.018799 -157.416595 2.77489996
180.069595 -157.264694 2.95020008
180.043304 -156.877151 3.03320003
180.014496 -156.790497 2.77769995
180.014297 -156.570099 2.6881001
180.131104 -156.413406 2.89720011
180.051651 -156.2547 2.89359999
180.005005 -156.047607 2.65109992
180.0746 -155.901794 2.8757
180.014893 -155.844193 3.03500009
180.052567 -155.696762 2.74006677
180.088135 -155.753769 2.91253328
180.038605 -155.511902 2.74924994
180.011505 -155.259094 2.72865009
180.046906 -155.114349 2.77790022
180.133804 -155.123505 2.83719993
180.037796 -154.854507 2.75650001
180.132797 -154.837296 2.82119989
180.040695 -154.759796 1.82930005
180.12384 -154.748047 2.8973
180.059204 -154.552048 2.71595001
180.072296 -154.568604 2.84360003
180.099503 -154.238007 2.92420006
180.028595 -154.150604 2.71959996
180.059143 -153.943649 2.70589995
180.016296 -153.654297 2.73729992
180.061798 -153.748505 2.94490004
180.072205 -153.505005 2.78369999
180.056107 -153.535156 2.91122484
180.066803 -153.384888 2.92595005
180.11499 -153.101746 2.88490009
180.103607 -153.031006 3.01270008
180.0867 -152.938904 2.8348999
180.100296 -152.722595 2.79320002
180.091904 -152.761093 2.93239999
180.059692 -152.508499 2.6874001
180.1073 -152.52066 2.85483336
180.036407 -152.327698 2.97749996
180.026901 -152.062347 2.70595002
180.06955 -152.130157 2.88940001
180.057297 -151.454193 2.83789992
180.028595 -151.023499 2.62739992
180.083603 -150.329895 2.88770008
180.05249 -150.119202 2.67054987
180.047455 -150.056549 2.87685013
180.076004 -149.818405 2.8448
180.038406 -149.493607 2.71020007
180.061493 -149.5009 3.08170009
180.112 -149.330597 2.73720002
180.050293 -149.239197 2.8203001
180.027405 -148.921204 2.74419999
180.015305 -148.791107 2.7750001
180.040497 -148.4254 2.8592999
180.020493 -147.581696 2.84660006
180.031799 -146.018402 2.70849991
180.029099 -145.651505 2.85540009
180.028702 -145.432495 2.76009989
180.017197 -144.928101 2.78299999
180.000107 -144.766205 2.64409995
180.0336 -144.207794 2.74239993
180.024002 -144.1595 2.82610011
180.026306 -143.156906 2.58270001
180.057098 -142.429398 1.11989999
180.016006 -142.1548 2.56360006
180.071503 -141.837097 1.53750002
180.016693 -141.693802 2.76900005
180.013901 -141.321106 2.79594994
180.001297 -140.004395 2.60509992
180.240906 -159.702698 2.90980005
