# .PCD v0.7 - Point Cloud Data file format
VERSION 0.7
FIELDS x y z
SIZE 4 4 4
TYPE F F F
COUNT 1 1 1
WIDTH 465
HEIGHT 1
VIEWPOINT 0 0 0 1 0 0 0
POINTS 465
DATA ascii
160.097992 -53.5043488 8.83449936
160.064804 -53.5545006 9.53079987
160.043793 -53.4816017 9.98859978
160.026703 -53.4779015 10.2206001
160.082794 -53.4085007 10.9822998
160.187302 -53.4735985 11.0593004
160.180206 -53.4169006 12.4470997
160.062302 -53.411499 14.2252998
160.199997 -53.4566994 15.6490002
160.074005 -53.3848991 11.3422003
160.014999 -53.3174019 11.5761995
160.150208 -53.3445015 14.6350002
160.188705 -53.3539009 14.8864002
160.311203 -53.5051994 7.97410011
160.378098 -53.5024986 8.2748003
160.252106 -53.4231987 8.40820026
160.307205 -53.4497986 10.9219999
160.369705 -53.4631996 11.8224001
160.2892 -53.4188004 13.1378002
160.290161 -53.4664993 15.6800499
160.279099 -53.3759003 11.0904999
160.226303 -53.3727989 11.8254995
160.238998 -53.3256989 12.5707998
160.330307 -53.3440018 13.2257004
160.315796 -53.3987999 13.6697998
160.274796 -53.3027 14.1225996
160.496506 -59.8619003 5.38399982
160.516403 -59.615799 4.38840008
160.460693 -53.5026016 7.42759991
160.493195 -53.4732018 9.17590046
160.565308 -53.4453011 12.3725004
160.477402 -53.3160019 7.56120014
160.438507 -53.3658981 12.0775003
160.478806 -53.385601 13.2498999
160.461807 -53.3651009 15.4589996
160.644608 -59.8746986 4.7895999
160.767303 -59.2840996 5.64239979
160.602203 -53.528801 7.37839985
160.604095 -53.4882011 8.99820042
160.759705 -53.4407005 9.75699997
160.728699 -53.424099 11.6063004
160.628799 -53.4525986 15.5803003
160.784393 -53.3418007 7.51719999
160.775299 -53.2481003 7.90749979
160.713196 -53.3592987 8.63669968
160.742798 -53.2804985 14.2347002
160.6754 -53.3291016 14.6959
160.644196 -53.3558998 14.9066
160.621597 -53.3054008 15.0655003
160.751007 -53.1945992 8.39929962
160.730804 -53.1944008 13.9315004
160.857101 -53.4171982 12.0677004
160.995193 -53.4124985 14.8402004
160.913696 -53.4382019 15.5853004
160.807495 -53.489399 15.7539997
160.996094 -53.3726997 7.34849977
160.943802 -53.3508987 8.04240036
160.865997 -53.3028984 8.49709988
160.858093 -53.3973999 10.0735998
160.895203 -53.3931007 11.3053999
160.970306 -53.3540001 11.4881001
160.922104 -53.289299 13.6897001
160.873795 -53.264801 13.9993
160.957397 -53.2775002 14.3613005
160.960098 -53.1898003 15.5213003
161.074097 -59.8625984 5.37629986
161.067795 -53.4351997 8.83440018
161.1633 -53.4169998 9.05879974
161.175003 -53.4860992 9.31260014
161.184204 -53.4322014 13.1780005
161.030502 -53.297699 7.91190004
161.033707 -53.3251991 10.2762003
161.076401 -53.2412987 10.6826
161.019104 -53.2877007 11.1223001
161.149704 -53.3600998 11.4326
161.134399 -53.2486 12.8331003
161.158951 -53.2618484 13.7598495
161.048492 -53.3005981 14.4334002
161.067307 -53.3129997 15.4201002
161.103104 -53.3944016 15.8358002
161.005798 -53.1809998 13.3835001
161.166901 -48.4347 15.0737
161.2388 -53.4630013 9.73789978
161.323196 -53.4002991 10.0087996
161.260345 -53.3404999 8.08349991
161.244293 -53.2490997 12.5936003
161.320496 -53.2773018 14.1567001
161.248306 -53.2398987 14.8964005
161.331696 -53.237999 15.0094995
161.203201 -53.1209984 13.7969999
161.454803 -53.4519005 8.24720001
161.586594 -53.4810982 8.43060017
161.536407 -53.4357986 8.99559975
161.477997 -53.4564018 10.2470999
161.443497 -53.4189987 10.6461
161.49411 -53.4949493 10.8778
161.512604 -53.4407997 11.3142996
161.432999 -53.3539009 9.28219986
161.440399 -53.2887993 11.7852001
161.433701 -53.351799 12.4435997
161.753998 -53.4001999 6.80770016
161.759003 -53.3667984 8.14150047
161.768005 -53.3757019 10.2902002
161.681091 -53.3050652 13.7078667
161.608795 -53.2547989 13.8294001
161.747498 -53.3418007 14.1512003
161.780502 -53.2613983 14.6356001
161.668396 -53.2635994 15.0139999
161.992294 -54.3012009 7.81010008
161.994995 -54.3443985 8.21609974
161.853104 -53.3956985 9.44789982
161.854004 -53.2973022 10.2988501
161.918503 -53.2855988 11.2781
161.874496 -53.3020668 12.482933
162.181503 -54.3054008 10.3069
162.002808 -54.2770004 13.4165001
162.048798 -54.0399017 7.69129992
162.089203 -53.452301 7.31559992
162.180695 -53.4014015 9.3203001
162.056793 -53.5009003 10.9837999
162.078796 -53.4926987 15.7735996
162.035004 -53.3732986 8.65569973
162.09314 -53.3290024 11.6883507
162.024094 -53.3191986 11.9867001
162.028503 -53.3468018 12.0562
162.126404 -53.3647003 12.7625999
162.115601 -53.344799 14.3709002
162.158096 -53.3700981 14.4720001
162.272293 -54.6123009 7.87559986
162.211304 -54.5316467 7.38539982
162.203003 -54.5602989 7.59709978
162.334503 -54.5259018 7.88110018
162.218597 -54.5429001 8.17500019
162.273804 -54.4382019 8.78660011
162.355194 -54.4906998 8.8725996
162.242004 -54.4858017 10.2535
162.237793 -54.3702011 15.4136
162.223007 -53.4766006 8.54419994
162.262802 -53.4782982 12.4775
162.534805 -54.6076012 8.04349995
162.569199 -54.5656013 5.5934
162.465698 -54.5466003 7.52080011
162.403107 -54.5060005 7.74569988
162.550598 -54.547699 8.0461998
162.492203 -54.4119987 9.14599991
162.464996 -54.4644012 9.59710026
162.405396 -54.385601 14.0832005
162.580505 -54.2112999 14.7294998
162.427002 -54.3681984 15.3653002
162.662094 -54.4334984 12.6183996
162.611298 -54.3146019 9.20479965
162.6315 -54.3303986 9.51949978
162.627899 -54.3353004 12.3880997
162.7509 -54.3709984 13.0597
162.631805 -54.3176994 15.1022997
162.865402 -54.5760994 7.96199989
162.879501 -54.4748001 13.7895002
162.837708 -54.2308006 15.1807003
163.196594 -54.5430984 8.19789982
163.190094 -54.4422989 10.7094002
163.137894 -54.3767014 13.0958004
163.358704 -54.4580002 7.35860014
163.257599 -54.5624008 7.53760004
163.376495 -54.4934998 8.49400043
163.2677 -54.4626999 9.95240021
163.247299 -54.4888992 10.0123997
163.298996 -54.4976997 10.2129002
163.347702 -54.5094986 10.6206999
163.553802 -54.4578018 6.83150005
163.417496 -54.4888992 10.2741003
163.574097 -54.4780006 12.9125004
163.683853 -54.4718018 7.09004974
163.746307 -54.5029984 7.48260021
163.716003 -54.4999466 7.70235014
163.632706 -54.4309006 8.39820004
163.707306 -54.4245987 8.40159988
163.785904 -54.3196983 15.1934004
163.806305 -54.3451996 9.32559967
163.985703 -54.158699 13.9503002
163.964798 -54.1717987 15.1742001
164.141098 -54.4771996 4.31540012
164.198807 -54.4281006 9.03909969
164.017502 -54.4110985 9.56499958
164.205795 -54.3560982 8.4204998
164.297195 -54.3816986 15.5719995
164.345093 -54.1283989 8.46609974
164.549698 -54.0957985 14.5918999
164.648499 -54.1687012 8.64089966
164.942902 -54.2433014 9.34000015
164.906799 -54.1172981 14.7493
165.132401 -54.1655998 15.1738005
165.389999 -54.2807999 8.69649982
165.230896 -54.1133995 14.1809998
165.570007 -54.2779007 8.78320026
165.576797 -54.2145004 14.7484999
165.512497 -54.1355019 14.2409
165.779694 -54.0819016 15.2368002
165.849701 -54.8613014 5.46470022
165.995193 -54.8264008 10.8390999
165.920197 -54.2122002 15.2205
166.037994 -54.1212006 9.16489983
166.082901 -54.1557007 15.1681995
166.378494 -54.7532005 8.14089966
166.375504 -54.2401009 6.82350016
166.328796 -54.2767982 8.73900032
166.380005 -54.301899 9.06509972
166.259903 -54.1498985 9.36839962
166.265106 -54.0069008 9.77369976
166.282806 -54.0884018 15.2136002
166.772598 -54.8624001 7.90869999
166.871902 -54.042099 11.5445004
166.890198 -53.9031982 12.2886
167.038803 -54.8651009 7.94350004
167.193604 -54.8177986 8.04339981
167.160706 -54.4454994 7.18930006
167.171494 -54.2523994 15.2957001
167.199799 -54.1404991 6.53539991
167.270599 -54.4308014 5.84049988
167.3479 -54.4446983 6.16849995
167.247192 -54.394001 7.4197998
167.205505 -54.1691017 13.9431
167.502594 -54.2260017 13.5402002
167.5466 -54.2321014 14.5716
167.452194 -54.0326996 14.5033998
167.511307 -53.9341011 13.9519997
167.632996 -54.1968002 7.16580009
167.834396 -54.7668991 5.16879988
168.299606 -54.1052017 5.9698
168.328598 -54.1548004 6.3987999
168.565094 -54.0499001 11.3223
168.730301 -54.082901 14.2833004
168.747101 -53.892601 14.4499998
168.828598 -54.0517006 12.1232004
169.097702 -54.2611008 6.59609985
169.155701 -54.0727005 12.4186001
169.017593 -54.0475998 15.1011
169.254105 -54.1531982 6.88549995
169.532593 -54.080101 15.2461996
169.691895 -53.9712982 14.8543997
169.846207 -54.1197014 15.1046
170.031906 -54.0886993 15.0325003
170.475403 -54.0901985 15.0368996
170.464294 -53.9614983 12.6793003
170.727402 -54.2547989 5.13859987
170.708755 -54.2332535 8.12179947
170.666 -54.1483994 5.8210001
170.7435 -54.1509018 7.39470005
170.703995 -54.1269989 7.63719988
170.657806 -54.0446014 14.8999004
170.682907 -53.8839989 11.5626001
170.762299 -52.9407997 12.1230001
170.916107 -54.2882004 5.49609995
170.830902 -54.2498016 5.88579988
170.846298 -54.0098 10.6161003
170.811707 -53.9943008 7.21500015
171.160202 -54.2601013 4.72910023
171.1418 -54.3012009 4.99580002
171.082108 -54.218399 7.47520018
171.189102 -54.2076988 15.2622995
171.091599 -54.0895996 6.00930023
171.014297 -54.1791 10.4361
171.092896 -54.0660019 15.3267002
171.141006 -53.9275017 13.9632998
171.283493 -54.2234001 4.46689987
171.342896 -54.2242012 5.47489977
171.381104 -54.2071991 7.07350016
171.272507 -54.2057991 8.34430027
171.2435 -54.1949997 5.68370008
171.279907 -54.1720009 10.5068998
171.206894 -54.0696983 13.1222
171.292999 -54.1682014 13.3924999
171.398499 -53.8796005 11.3697996
171.488602 -54.2761002 4.4467001
171.531494 -54.2289009 5.02540016
171.430496 -54.2729988 5.30649996
171.5504 -54.214901 8.42959976
171.419098 -54.1635017 10.4947004
171.461105 -54.0983009 13.1410999
171.518005 -54.0474014 13.5887003
171.555801 -54.0251999 14.6485996
171.725204 -54.221199 4.94519997
171.794495 -54.3091011 5.19119978
171.6716 -54.2287521 5.26709986
171.882904 -54.276001 4.12130022
171.817093 -54.2532005 5.39620018
171.861603 -54.2683983 5.81239986
171.916 -54.1867981 4.94390011
171.9319 -54.0061989 6.68480015
171.894897 -54.1752014 7.54465008
171.941803 -54.1249008 8.19820023
171.919296 -54.1034012 10.7138004
171.951599 -54.1198006 13.2944002
172.06575 -54.2736511 4.69264984
172.051895 -54.2647018 5.04750013
172.096207 -54.2086983 7.42689991
172.187805 -54.2005997 10.4049997
172.004303 -54.1805992 4.22469997
172.123001 -54.1385002 7.06290007
172.171005 -54.1848984 7.25220013
172.136703 -54.1328011 10.0506001
172.080307 -54.0848999 12.9258003
172.029694 -54.1893005 13.0827999
172.340897 -54.3585014 4.46080017
172.217499 -54.2556 4.93450022
172.3172 -54.2733002 5.3611002
172.288254 -54.2496033 5.89589977
172.311401 -54.1665993 5.78509998
172.278107 -54.0990982 6.59689999
172.212204 -54.0452995 6.62860012
172.3647 -54.1804008 10.3734999
172.317398 -53.9798012 6.98509979
172.239807 -53.9253006 11.7446003
172.388596 -53.9171982 14.9751997
172.402496 -53.9690018 15.0510998
172.711304 -52.9998016 5.74870014
172.644608 -52.9374008 9.70149994
172.951706 -53.0530014 3.75889993
172.989807 -53.1236992 3.80780005
172.889206 -52.8611984 9.46109962
172.9758 -52.8674011 13.0312996
172.846802 -52.9076004 15.3685999
172.925003 -52.6932983 8.49269962
173.0784 -53.0451012 3.36310005
173.199402 -53.0513992 3.87739992
173.099594 -53.0998001 4.68359995
173.156601 -53.080101 5.92019987
173.1884 -53.0429993 7.29290009
173.022293 -53.0135994 7.65819979
173.047302 -53.0303993 8.35319996
173.030899 -53.0304985 8.6718998
173.089294 -53.0135994 10.6647997
173.165802 -53.0143013 14.9091997
173.078201 -52.844799 14.1890001
173.078156 -52.833252 14.6154499
173.113403 -52.7097015 14.8688002
173.175903 -52.7989998 15.4104004
173.336807 -53.0811005 4.21260023
173.296906 -53.0019989 6.11079979
173.223297 -53.0447006 6.9689002
173.340805 -52.9341011 5.99980021
173.238098 -52.8280983 7.21089983
173.320099 -52.9179993 9.22970009
173.339096 -52.9499016 9.6335001
173.445694 -53.0643005 3.88879991
173.477493 -53.0672989 5.90350008
173.520798 -53.0211983 6.1868
173.590607 -52.9874992 3.7335
173.584198 -52.8736992 5.28170013
173.693497 -53.0013008 3.8743999
173.782104 -53.050499 4.08650017
173.610703 -53.0140991 9.00389957
173.759293 -52.9317017 5.13660002
173.767593 -52.9035988 5.2349
173.799606 -52.8685989 5.4527998
173.656693 -52.8451996 8.49050045
173.699753 -52.9041519 9.07184982
173.798203 -52.8513985 9.65620041
173.792206 -52.9640007 11.4420996
173.693695 -52.9589996 12.5635996
173.7771 -52.7144012 9.06739998
173.766205 -52.7447014 14.1934004
173.944397 -52.8849983 2.90370011
173.966507 -52.8600998 5.15500021
173.928101 -52.9187012 5.43060017
173.807999 -52.9516983 8.53030014
173.857803 -52.9499016 8.64869976
173.992004 -52.9416008 9.32610035
173.909393 -52.8639984 9.54959965
173.850601 -52.9124985 12.2783003
173.950302 -52.8428993 12.4656
173.895798 -52.8260002 14.2402
173.999496 -52.8442993 14.5229998
173.903397 -52.7512016 7.95130014
173.923096 -52.7571983 8.5156002
173.825607 -52.7025986 10.6192999
173.946701 -52.6786995 14.7526999
173.967606 -52.6534004 14.9317999
174.187393 -53.1818008 3.00430012
174.040207 -52.9188995 5.00950003
174.056198 -52.9920998 5.625
174.141098 -52.9393997 6.91639996
174.0905 -52.8493996 14.2075005
174.023697 -52.6781006 10.7037001
174.228302 -53.0387993 3.86879992
174.233398 -53.0508995 5.78539991
174.235596 -52.9846992 3.19499993
174.211899 -52.9007988 6.05350018
174.2621 -52.8609009 7.33620024
174.232803 -52.8207016 8.52639961
174.346893 -52.9154015 8.83920002
174.276001 -52.8848 15.4453001
174.2724 -52.7961006 11.7472
174.211105 -52.7392998 15.3455
174.489197 -53.0037003 4.40189981
174.523407 -53.0251007 4.86049986
174.421707 -52.9609985 3.46339989
174.590897 -52.9963989 4.48990011
174.594406 -52.9557991 5.40080023
174.522003 -52.9267998 7.43480015
174.447845 -52.8788986 7.70409966
174.416901 -52.9093018 8.17850018
174.573105 -52.9665985 8.83100033
174.453995 -52.8655014 9.33460045
174.589005 -52.8428993 9.9222002
174.510101 -52.8530998 10.8963003
174.592499 -52.8788986 11.5354004
174.558701 -52.8566017 13.7199001
174.474792 -52.8350983 15.0003004
174.612 -53.0121002 3.16820002
174.668396 -53.010601 8.23330021
174.711304 -52.9651985 3.9145999
174.611694 -52.9328003 6.33620024
174.789597 -52.9079018 7.74779987
174.750305 -52.9670982 9.08390045
174.994507 -53.8213997 10.4507999
174.838593 -53.4855003 4.83419991
174.972794 -53.0353012 3.5237999
174.951797 -53.036499 3.89479995
174.967194 -53.0201988 4.47779989
174.885498 -52.8521004 9.11600018
174.886292 -52.9735489 10.6826
174.959595 -52.8599014 13.7048998
174.840805 -52.8274994 13.9998999
175.078293 -54.1158981 4.89610004
175.062393 -53.9934998 10.2693005
175.045502 -53.9427986 13.4535999
175.051605 -53.080101 3.21670008
175.098099 -53.1321983 3.88680005
175.000595 -53.0197983 8.30790043
175.156311 -52.9514008 11.7355995
175.115402 -52.9566002 13.1071997
175.162003 -52.8848 14.7559996
175.028397 -52.7935982 14.4526997
175.290894 -54.0220985 7.48519993
175.315903 -54.0726013 7.60010004
175.300095 -53.9617996 3.97049999
175.298401 -53.9575005 9.80510044
175.208099 -53.9636002 10.3011999
175.393204 -53.9826012 10.4490995
175.235504 -53.9221992 12.6367998
175.233002 -53.9665985 13.1393995
175.295502 -53.5908012 12.6420002
175.469193 -54.094799 5.17140007
175.432907 -54.0335999 10.6191998
175.518799 -54.0612984 13.1032
175.576706 -53.9757004 10.0854998
175.626801 -54.1817017 5.31110001
175.7603 -54.0409012 7.32130003
176.196594 -54.1453018 4.76490021
176.094498 -53.9620018 7.49259996
176.142105 -53.8852997 12.9938002
176.3638 -54.1007004 5.06820011
176.343094 -53.9396019 3.81139994
176.295807 -53.9776993 8.19019985
176.294907 -53.9682007 10.6329002
176.509857 -54.0752487 4.45090008
176.562698 -54.0050011 4.60410023
176.512405 -53.9964981 10.4287004
176.657303 -54.0666008 5.17500019
176.624695 -53.963501 8.13080025
176.8405 -53.7913017 14.9990997
177.092102 -53.7425003 14.8304996
178.187195 -53.7512016 3.68179989
178.344604 -53.9177017 3.75939989
178.525497 -53.8713989 3.7874999
