# .PCD v0.7 - Point Cloud Data file format
VERSION 0.7
FIELDS x y z
SIZE 4 4 4
TYPE F F F
COUNT 1 1 1
WIDTH 74
HEIGHT 1
VIEWPOINT 0 0 0 1 0 0 0
POINTS 74
DATA ascii
141.631393 -223.656998 2.20580006
147.162704 -223.329697 1.86839998
150.784607 -222.079895 2.89229989
150.690399 -222.005402 4.71309996
150.927307 -222.305496 3.0453999
150.836395 -222.176697 2.12030005
150.951004 -222.112793 3.2737
150.820007 -222.127304 4.90019989
151.164505 -223.816299 4.86780024
151.158707 -222.517593 0.32159999
151.083496 -222.592804 1.54110003
151.1203 -222.482544 1.74484992
151.130096 -222.401093 2.34850001
151.112198 -222.556198 2.65450001
151.080597 -222.480698 2.98230004
151.013306 -222.261795 1.90840006
151.087097 -222.343094 2.94280005
151.368103 -224.417801 4.70030022
151.214203 -222.375198 1.10899997
151.554504 -225.556503 4.9843998
151.567307 -225.200607 4.70839977
151.541794 -225.368698 4.94140005
151.428802 -224.339996 4.77839994
151.412598 -223.847198 4.63290024
151.550598 -222.742905 0.78609997
151.561005 -222.702805 1.51719999
151.673492 -226.973099 4.98810005
151.701508 -226.439499 4.49310017
152.126999 -228.997894 4.79139996
152.011597 -228.675903 4.92439985
152.287003 -229.712006 4.81549978
152.287994 -222.714706 1.59379995
153.097 -222.524597 1.61989999
153.708099 -222.557205 1.64020002
153.638596 -222.462402 2.3829
153.927994 -222.501907 2.2658999
154.691101 -222.441406 0.969200015
154.7155 -222.348007 0.863600016
155.172501 -222.286102 1.64629996
155.442093 -222.027695 2.44860005
155.858902 -222.316895 1.20560002
156.021103 -222.281998 0.702799976
156.050705 -222.176697 1.75129998
156.347504 -222.248993 0.850499988
156.346603 -222.256699 1.45239997
156.203705 -222.2061 1.7141
156.320999 -222.189499 2.23629999
156.576904 -222.121597 2.29719996
156.792404 -222.131302 1.69620001
157.002808 -232.753204 5.20599985
157.139008 -222.042892 1.04900002
157.357101 -222.036606 1.49870002
157.779205 -222.017303 0.846499979
157.895798 -221.722198 2.68059993
158.128403 -223.582199 4.09980011
158.197403 -223.123199 3.4224
158.395096 -223.649994 4.06360006
158.335297 -223.760895 4.50649977
158.257996 -223.696198 4.88390017
158.37381 -223.354858 3.90775013
158.407196 -224.286697 3.92919993
158.4543 -224.055603 4.69850016
158.452301 -223.987305 4.21220016
158.409103 -223.796799 4.04020023
158.672607 -221.880402 0.761099994
159.173203 -221.733704 1.62119997
159.227097 -231.761597 5.68389988
159.458298 -231.803406 5.27890015
159.508499 -221.807404 0.769400001
159.740295 -221.837402 1.29330003
159.630493 -221.711304 1.6645
159.807999 -221.738602 0.770399988
159.884995 -221.750595 1.23520005
159.969406 -221.672607 1.84259999
