# .PCD v0.7 - Point Cloud Data file format
VERSION 0.7
FIELDS x y z
SIZE 4 4 4
TYPE F F F
COUNT 1 1 1
WIDTH 603
HEIGHT 1
VIEWPOINT 0 0 0 1 0 0 0
POINTS 603
DATA ascii
140.132706 -138.7827 2.00929999
146.742294 -120.751099 0.563799977
146.941345 -120.546204 0.332650006
146.841095 -120.055702 0.406300008
147.158005 -121.123596 0.340799987
147.141006 -120.810303 0.441700011
147.116302 -120.713501 0.503600001
147.212402 -120.615196 0.382800013
147.506104 -121.448097 0.61680001
147.499695 -121.328751 0.445349991
147.487 -121.016296 0.545700014
147.568802 -121.059402 0.613200009
147.494095 -120.810699 0.163699999
147.494797 -120.8685 0.363900006
147.517395 -120.973099 0.658999979
147.779205 -121.829102 0.503899992
147.659302 -121.403297 0.1241
147.624695 -121.434845 0.432300001
147.986496 -121.481102 0.577799976
147.882401 -121.193001 0.456
148.196503 -121.6604 0.581700027
148.120499 -121.667 0.753499985
148.283401 -122.007301 0.331099987
148.289398 -122.058998 0.58160001
148.307999 -121.415054 0.323899984
148.368896 -121.286499 0.427100003
148.530594 -122.749199 0.58859998
148.499695 -122.3825 0.325349987
148.610199 -126.077698 0.508300006
148.748596 -122.887299 0.581799984
148.794495 -122.732101 0.574800014
148.764694 -122.448547 0.332100004
148.737305 -122.525398 0.561699986
148.638702 -122.317398 0.497700006
148.875198 -123.0159 0.574400008
148.900604 -122.970596 0.62559998
148.975601 -122.562103 0.457199991
148.824707 -121.692398 0.381300002
149.123093 -124.171402 0.520699978
149.112198 -124.102402 0.717599988
149.031799 -124.155701 0.845300019
149.083405 -122.613602 0.364199996
149.138153 -122.729599 0.484899998
149.076248 -122.516052 0.502699971
149.179901 -122.537903 0.609300017
149.286301 -124.401299 0.818899989
149.268295 -124.318001 0.584299982
149.344696 -123.374496 0.558200002
149.360107 -123.050003 0.252400011
149.339798 -122.882301 0.305400014
149.385406 -122.397301 0.315800011
149.503098 -127.1166 0.766099989
149.517807 -127.0317 0.85799998
149.466156 -126.983398 0.641000032
149.4832 -124.48735 0.672699988
149.620895 -124.675797 0.725000024
149.763626 -123.651436 0.319033325
149.706055 -123.612999 0.464749992
149.683899 -123.562302 0.323399991
149.752808 -123.367203 0.345299989
149.738159 -123.266647 0.504299998
149.672501 -123.076401 0.483799994
149.732056 -122.932297 0.422049999
149.899002 -124.9105 0.45629999
149.952057 -124.243698 0.376599997
149.86911 -124.280098 0.468300015
149.987198 -124.126297 0.136800006
149.888062 -123.609604 0.361149997
149.8564 -123.644745 0.444750011
149.987595 -123.653198 0.611599982
149.977905 -123.019997 0.233500004
149.965302 -120.173798 0.333299994
150.093597 -124.734398 0.468349993
150.030106 -124.460297 0.282400012
150.109695 -124.245102 0.287800014
150.000504 -123.310699 0.374300003
150.182693 -122.500702 0.341399997
150.273605 -125.672401 0.573899984
150.344696 -125.726997 0.623899996
150.292999 -125.015701 0.606599987
150.386795 -124.812897 0.369899988
150.305099 -124.960144 0.450399995
150.264862 -124.690155 0.429899991
150.254105 -120.710999 0.262600005
150.334702 -120.067902 0.3222
150.555206 -126.512199 0.637899995
150.555145 -124.893349 0.347149998
150.474701 -124.689003 0.577300012
150.669907 -124.751701 0.386599988
150.813507 -126.580498 0.644900024
150.927704 -125.686401 0.663100004
150.999405 -124.881599 0.336299986
150.940506 -120.887604 0.343499988
151.021805 -125.987 0.498100013
151.179398 -125.1241 0.143199995
151.029602 -125.090797 0.424199998
151.166351 -124.899948 0.410400003
151.1436 -124.704803 0.33860001
151.177505 -124.782204 0.418500006
151.160004 -121.321198 0.356000006
151.378693 -136.217697 0.509500027
151.229004 -129.272903 0.676400006
151.234497 -125.561501 0.633099973
151.202499 -125.313698 0.360199988
151.2332 -124.694397 0.261099994
151.594193 -128.380005 0.611299992
151.521973 -125.837769 0.478199989
151.437103 -125.780403 0.620500028
151.4375 -125.516098 0.471899986
151.569 -125.237701 0.393700004
151.476196 -125.303001 0.455300003
151.570908 -125.091202 0.371300012
151.486359 -124.911453 0.293249995
151.538696 -123.810898 0.314200014
151.759705 -126.038605 0.493099988
151.666107 -126.073402 0.635599971
151.677002 -125.916222 0.480925024
151.762299 -125.744598 0.333700001
151.644699 -125.483398 0.267500013
151.711349 -125.365402 0.523200035
151.714005 -125.119133 0.342900008
151.728806 -121.517502 0.301400006
151.870697 -136.334198 0.0667999983
151.913193 -136.154999 0.318699986
151.934402 -126.26535 0.527999997
151.968994 -126.123901 0.196500003
151.974304 -126.085297 0.292699993
151.925995 -126.013298 0.441199988
151.840729 -125.885567 0.279566675
151.886703 -125.188202 0.352699995
151.805496 -120.163399 0.288399994
152.178101 -126.693604 0.608399987
152.078201 -126.341499 0.266200006
152.061996 -126.213402 0.483599991
152.118439 -126.124451 0.360700011
152.246994 -128.429596 0.566399992
152.367294 -127.422897 0.589100003
152.374893 -127.358398 0.546800017
152.313705 -126.8983 0.399500012
152.365906 -126.836403 0.441900015
152.249603 -126.985901 0.620100021
152.3396 -126.677803 0.3759
152.346695 -126.433197 0.279000014
152.259293 -126.235367 0.345633328
152.340698 -126.391701 0.442799985
152.202103 -122.669701 0.277999997
152.416794 -127.372101 0.49059999
152.475601 -127.070099 0.400599986
152.414856 -126.828552 0.296400011
152.550507 -126.743797 0.375499994
152.473892 -126.719475 0.49652499
152.415497 -126.4907 0.239800006
152.536606 -126.435097 0.406599998
152.764496 -135.622299 0.663399994
152.675095 -127.102203 0.1206
152.757706 -127.114601 0.521499991
152.651794 -126.877403 0.154100001
152.677094 -126.755501 0.31279999
152.884094 -135.693893 0.482199997
152.947495 -127.598503 0.368099988
152.891602 -127.255997 0.432599992
152.851807 -126.9851 0.276149988
152.899902 -126.677498 0.372299999
152.800903 -123.051697 0.243599996
152.887299 -122.797501 0.308099985
153.057098 -135.597397 0.255499989
153.032806 -127.639603 0.343600005
153.155228 -127.493736 0.325966656
153.140198 -127.227699 0.213200003
153.071442 -127.270676 0.463874996
153.142395 -127.104401 0.45875001
153.098007 -123.775299 0.342099994
153.298492 -128.041199 0.547299981
153.350601 -127.881104 0.489499986
153.240601 -127.652702 0.313300014
153.3526 -127.632896 0.515900016
153.328705 -127.236397 0.463200003
153.256699 -127.198402 0.346300006
153.203094 -127.175797 0.495700002
153.365295 -121.430099 0.296099991
153.589203 -129.741898 0.607500017
153.409607 -128.326294 0.488999993
153.4095 -128.060593 0.488200009
153.502701 -128.199493 0.637199998
153.482544 -127.905396 0.523949981
153.544098 -127.728104 0.167400002
153.559402 -127.648453 0.329149991
153.531006 -127.711601 0.47665
153.657593 -129.887695 0.510299981
153.652695 -128.308594 0.431800008
153.601898 -128.162003 0.313199997
153.703796 -128.126297 0.421099991
153.707397 -128.196198 0.608099997
153.715897 -127.987 0.314099997
153.707108 -127.728302 0.26153332
153.797394 -127.580299 0.320100009
153.678406 -125.730301 0.243699998
153.7341 -122.579803 0.2456
153.701599 -122.215897 0.201199993
153.776596 -120.546402 0.306899995
153.730896 -120.1008 0.271899998
153.912842 -129.955551 0.676499963
153.998199 -129.638306 0.233700007
153.995895 -128.537094 0.442999989
153.916901 -128.339905 0.510299981
153.958893 -128.164703 0.321399987
153.865707 -128.184906 0.632399976
153.838104 -127.961403 0.0768999979
153.887695 -124.912003 0.256199986
153.813797 -124.532997 0.389400005
153.849304 -122.867897 0.229100004
153.965897 -121.032097 0.209800005
154.008194 -135.310303 0.162
154.095703 -130.097198 0.674300015
154.147202 -129.552399 0.413500011
154.072495 -129.314896 0.542699993
154.140198 -129.040436 0.572999954
154.138535 -129.15123 0.688899994
154.158096 -128.431396 0.666800022
154.160706 -128.325577 0.340124995
154.039871 -128.256027 0.482366681
154.172302 -128.259003 0.661899984
154.066605 -128.150299 0.302100003
154.1521 -127.905197 0.331400007
154.040604 -122.521347 0.232300013
154.048294 -121.5522 0.248500004
154.295303 -130.073502 0.674399972
154.2715 -129.556 0.523400009
154.270996 -129.383606 0.360000014
154.291306 -129.279099 0.685000002
154.246155 -128.661438 0.468699992
154.237793 -128.507202 -0.00680000009
154.388504 -128.577103 0.106700003
154.320633 -128.46347 0.325800002
154.325958 -128.485992 0.445299983
154.237747 -128.281754 0.042650003
154.281403 -128.296402 0.290600002
154.220795 -128.0233 0.272300005
154.239395 -124.602097 0.341100007
154.349594 -123.127602 0.281699985
154.216599 -122.934303 0.305900007
154.343597 -121.192398 0.180099994
154.499207 -134.824005 0.415399998
154.513397 -129.635895 0.545099974
154.445908 -129.351196 0.141000003
154.406494 -129.352493 0.343600005
154.570496 -129.059402 0.360000014
154.594696 -128.9496 0.448000014
154.418304 -128.633408 0.218899995
154.474899 -128.478607 0.158199996
154.581894 -121.573997 0.255499989
154.749893 -135.003006 0.3477
154.766495 -128.730606 0.353300005
154.7892 -124.513702 0.289799988
154.785202 -122.9263 0.242200002
154.696106 -122.282799 0.237899989
154.774002 -121.294296 0.225400001
154.822495 -136.598206 0.157199994
154.926498 -134.950439 0.240549996
154.919693 -130.028198 0.680299997
154.999603 -129.849304 0.65170002
154.970993 -129.652603 0.495900005
154.885895 -129.460495 0.421499997
154.894104 -129.090088 0.316200018
154.842651 -128.68811 0.332300007
154.917801 -128.773193 0.527999997
154.936096 -126.359001 0.275299996
155.010193 -136.409607 0.0931999981
155.094406 -136.411606 0.397500008
155.026703 -134.602493 0.32949999
155.036606 -134.541901 0.233400002
155.144699 -129.826706 0.621900022
155.037201 -129.637695 0.629899979
155.0896 -129.4505 0.00669999979
155.191803 -129.594193 0.357499987
155.014496 -129.500504 0.525699973
155.105453 -129.288147 0.370299995
155.111343 -129.25116 0.419550002
155.134857 -129.0961 0.344249994
155.050354 -129.094101 0.442200005
155.053604 -128.724197 0.0883999988
155.029007 -128.619797 0.226699993
155.008499 -128.696396 0.4384
155.156204 -123.794601 0.284200013
155.0784 -122.848 0.209000006
155.204895 -129.625305 0.33919999
155.279404 -129.537537 0.299833328
155.327301 -129.510696 0.533800006
155.243195 -129.266602 0.192000002
155.216675 -129.300705 0.333099991
155.266403 -123.225304 0.256700009
155.387695 -122.921402 0.223000005
155.535492 -134.079895 0.425499976
155.599396 -133.976807 0.429199994
155.580994 -130.039505 0.486600012
155.512695 -130.025497 0.620100021
155.406097 -129.298492 0.122299999
155.573898 -128.390305 0.184100002
155.499695 -127.792999 0.312900007
155.500198 -126.531303 0.262199998
155.537796 -124.405502 0.269699991
155.533997 -120.796799 0.256399989
155.737793 -131.352798 0.583000004
155.627808 -129.815094 0.0313999988
155.67514 -129.959534 0.464766651
155.623398 -129.656799 0.136999995
155.662903 -129.1698 0.246999994
155.683701 -128.526703 0.297800004
155.618195 -125.744797 0.301800013
155.614395 -122.985298 0.249300003
155.628906 -121.925797 0.261700004
155.723602 -120.255096 0.245100006
155.9254 -134.2034 0.2104
155.803696 -134.0065 0.340700001
155.9263 -130.787094 0.424299985
155.980194 -130.379395 0.382600009
155.894394 -130.281998 0.697600007
155.987793 -130.043396 0.213100001
155.900696 -129.8367 0.168699995
155.828903 -129.963593 0.570900023
155.817703 -129.641296 0.0966000035
155.905807 -129.128601 0.147
155.919495 -127.793098 0.298799992
155.876099 -127.0214 0.274899989
155.890503 -126.480202 0.227300003
155.812393 -123.5438 0.198899999
155.853302 -123.595299 0.220300004
155.913803 -120.8871 0.144999996
155.995804 -120.995697 0.202800006
156.179092 -131.533798 0.733900011
156.032501 -130.620697 0.192399994
156.114395 -130.775406 0.336499989
156.114746 -130.43631 0.483700007
156.057693 -130.224106 0.137999997
156.115036 -130.290939 0.280699998
156.084 -130.343796 0.477625012
156.072006 -130.137802 0.119400002
156.033295 -130.190994 0.348500013
156.004501 -130.087997 0.578199983
156.076599 -125.651299 0.218600005
156.067795 -123.830597 0.163000003
156.099792 -123.750099 0.223199993
156.013504 -122.184402 0.187600002
156.1875 -121.430099 0.224399999
156.030197 -120.403297 0.227400005
156.056305 -120.234497 0.191499993
156.077362 -120.091499 0.218400002
156.260406 -132.464203 0.514900029
156.328293 -132.046097 0.492799997
156.384644 -131.562256 0.46904999
156.282135 -131.284744 0.499499977
156.287399 -131.161499 0.365099996
156.301498 -131.059097 0.440999985
156.222107 -130.7883 0.192499995
156.279358 -130.627838 0.221450001
156.373001 -130.482697 0.212699994
156.311401 -125.752502 0.269499987
156.386902 -120.305702 0.192699999
156.297806 -120.0261 0.110200003
156.571594 -132.628403 0.534600019
156.453796 -132.198395 0.605300009
156.522095 -131.668594 0.393400013
156.498596 -131.639801 0.527999997
156.534943 -131.683655 0.61590004
156.539001 -131.593704 0.444999993
156.530945 -131.544556 0.652799964
156.568695 -131.144806 0.447100013
156.513199 -130.936905 0.457899988
156.479599 -130.777496 0.329450011
156.574203 -129.110794 0.235200003
156.480896 -126.313103 0.193900004
156.423004 -120.968399 0.177900001
156.776596 -133.488602 0.559800029
156.718002 -133.361496 0.332399994
156.616104 -133.293793 0.467900008
156.708405 -132.564499 0.409700006
156.736298 -131.649597 0.223700002
156.639297 -131.725494 0.513999999
156.6427 -131.763306 0.721499979
156.676193 -131.045898 0.291200012
156.718109 -130.730103 0.156599998
156.677094 -130.688095 0.233700007
156.789993 -127.804497 0.273799986
156.653107 -126.064201 0.31099999
156.650696 -124.355598 0.227400005
156.734802 -121.774399 0.0819000006
156.737701 -121.264801 0.246800005
156.795593 -120.630798 0.101400003
156.645905 -120.3871 0.161200002
156.8302 -131.936096 0.345699996
156.930206 -131.696304 0.229900002
156.911148 -131.067108 0.335799992
156.872696 -130.855896 0.115099996
156.869904 -127.149597 0.300099999
156.947601 -125.269699 0.168400005
156.922195 -121.598198 0.284999996
156.865799 -121.363701 0.181199998
156.978195 -120.272003 0.1008
157.114899 -136.454605 0.195500001
157.077805 -133.698502 0.289900005
157.073196 -132.856705 0.487300009
157.110001 -132.021301 0.305500001
157.194504 -131.022705 0.377299994
157.012695 -130.957001 0.153699994
157.089905 -130.940598 0.246900007
157.024094 -128.695694 0.325100005
157.046494 -126.880302 0.212200001
157.031906 -122.859703 0.249699995
157.038101 -122.309097 0.386999995
157.094147 -121.43795 0.224000007
157.117706 -121.2677 0.128999993
157.130096 -121.073898 0.158099994
157.326508 -133.603104 0.168699995
157.276993 -133.544601 0.145300001
157.359695 -133.517593 0.345200002
157.363403 -133.292007 0.344599992
157.276703 -132.75061 0.523749948
157.360855 -132.355698 0.358950019
157.296356 -132.078552 0.150150001
157.335907 -132.110397 0.331999987
157.2267 -131.885895 0.236200005
157.383194 -131.325394 0.214300007
157.33165 -131.072754 0.297800004
157.3564 -130.987305 0.0388000011
157.384705 -130.908707 0.34920001
157.311096 -128.692596 0.298999995
157.354706 -128.573807 0.179199994
157.335602 -128.505707 0.295100003
157.216003 -127.221703 0.152400002
157.203003 -125.300102 0.245499998
157.253006 -121.637604 0.142800003
157.442001 -136.966507 0.182099998
157.543396 -136.018906 0.1347
157.489197 -132.923706 0.59859997
157.435898 -132.775696 0.488700002
157.576706 -132.239502 0.0891999975
157.520706 -132.362305 0.252299994
157.434601 -132.295807 0.439799994
157.435898 -132.188004 0.177200004
157.425842 -131.272202 0.173999995
157.500717 -131.308807 0.297239989
157.456406 -130.929504 0.306100011
157.594498 -130.4496 0.243300006
157.551208 -128.874207 0.313849986
157.577805 -128.671295 0.179000005
157.509506 -128.752197 0.505599976
157.579407 -128.5914 0.0478000008
157.468994 -128.442993 0.249899998
157.589294 -126.940002 0.170900002
157.503296 -122.559601 9.99999975e-05
157.454803 -122.581497 0.203899994
157.7388 -134.451599 0.319700003
157.630096 -132.9207 0.396100014
157.682602 -132.700806 0.387600005
157.748398 -132.405304 0.265500009
157.707794 -132.295502 0.220850006
157.630493 -132.185593 0.0126999998
157.71492 -131.486404 0.146899998
157.759506 -130.543793 0.230900005
157.629501 -123.9086 0.301299989
157.718094 -123.779099 0.202399999
157.629395 -123.060204 0.184499994
157.781097 -122.281303 0.38409999
157.632004 -121.333397 0.0524999984
157.829407 -132.600403 0.175899997
157.959747 -132.763702 0.318599999
157.816193 -132.742004 0.580200016
157.862793 -132.520096 -0.121100001
157.826157 -132.518097 0.0973000005
157.938461 -132.569138 0.328733325
157.8797 -129.319397 0.326400012
157.846802 -127.8022 0.228400007
157.817795 -125.968498 0.25029999
157.950302 -122.995697 0.210700005
157.974396 -121.134399 0.201900005
157.972794 -120.118797 0.131200001
158.0336 -132.761902 0.199499995
158.039658 -132.746735 0.315066665
158.026596 -132.604401 0.467700005
158.064102 -127.426903 0.232999995
158.198303 -123.433502 0.228400007
158.084503 -122.8881 0.265199989
158.1371 -122.677299 0.229699999
158.099792 -122.455597 0.196799994
158.024734 -122.460434 0.238866657
158.173294 -122.253799 -0.0252
158.195496 -122.214699 0.200000003
158.112701 -122.098 0.171800002
158.139801 -121.728897 0.195099995
158.1297 -121.575897 0.137400001
158.065552 -121.129745 0.158399999
158.181107 -120.692497 0.142199993
158.147095 -120.368202 0.161799997
158.389893 -139.156097 0.231000006
158.264206 -133.417801 0.328799993
158.217194 -128.196396 0.231900007
158.389603 -124.362396 0.199599996
158.213898 -122.8815 0.205750003
158.285507 -122.117798 0.182300001
158.464706 -127.5868 0.229699999
158.547195 -124.892998 0.308200002
158.558395 -124.403702 0.187900007
158.469299 -124.2575 0.254799992
158.483307 -123.740997 0.252200007
158.578598 -122.971199 0.135499999
158.526093 -121.196404 0.143299997
158.617996 -139.289001 0.240400001
158.604401 -124.371399 0.158800006
158.786896 -123.318901 0.174500003
158.703094 -123.288902 0.211700007
158.803894 -139.693695 0.240099996
158.959 -133.051193 0.291799992
158.886795 -127.875298 0.240500003
158.884003 -125.464897 0.1928
158.905396 -123.9254 0.101199999
158.850494 -123.567299 0.173899993
158.865402 -122.851501 0.209700003
158.9711 -122.022301 0.164399996
159.005493 -127.512199 0.200299993
159.195694 -126.923798 0.192000002
159.142197 -126.677002 0.175999999
159.095642 -126.466652 0.235700011
159.149994 -126.2239 0.225400001
159.022598 -123.860397 0.113399997
159.024597 -123.590599 0.185699999
159.048492 -123.222397 0.147750005
159.157257 -122.551102 0.152500004
159.1026 -122.113152 0.116850004
159.013397 -120.891403 0.104000002
159.366592 -132.312393 0.217600003
159.36554 -131.744659 0.267749995
159.385696 -130.260193 0.1655
159.354706 -129.874695 0.192900002
159.394897 -127.792198 0.237399995
159.226105 -127.145203 0.197799996
159.267502 -127.053497 0.256300002
159.22464 -126.848404 0.160750002
159.343002 -124.256104 0.418099999
159.250595 -123.267601 0.128049999
159.205002 -122.830299 0.172900006
159.261154 -120.087547 0.152249992
159.567307 -136.876495 0.254500002
159.567703 -136.093506 0.204699993
159.548706 -135.174896 0.1919
159.578003 -134.654999 0.178499997
159.5009 -134.706696 0.207000002
159.540497 -134.285797 0.136299998
159.420303 -134.350906 0.239600003
159.483307 -134.096207 0.101400003
159.451508 -133.933197 0.107900001
159.5047 -133.605804 0.280600011
159.412506 -133.418304 0.194499999
159.45459 -133.306213 0.27700001
159.486603 -133.088196 0.176799998
159.500305 -132.622192 0.172800004
159.515305 -132.655701 0.290100008
159.550293 -131.353195 0.255100012
159.411896 -131.177902 0.180399999
159.487503 -130.683899 0.251399994
159.430695 -130.296906 0.216000006
159.442307 -129.689194 0.254900008
159.524704 -129.104904 0.2095
159.566498 -128.452301 0.249599993
159.4711 -126.273804 0.192900002
159.516205 -125.669403 0.213300005
159.584702 -124.433502 0.1294
159.476593 -124.250198 0.0764999986
159.475494 -124.218903 0.226999998
159.53479 -123.289597 0.184049994
159.591507 -120.653801 0.135499999
159.574402 -120.340401 0.148100004
159.773804 -138.423004 0.134900004
159.7565 -137.564194 0.259299994
159.701401 -137.290298 0.243499994
159.644608 -136.787704 0.117299996
159.609406 -136.444901 0.428799987
159.607605 -135.771194 0.266799986
159.655807 -134.433197 0.234400004
159.662506 -133.2388 0.289600015
159.605103 -132.850296 0.243100002
159.641495 -132.792099 0.238999993
159.604599 -131.742599 0.186700001
159.656296 -130.131195 0.209299996
159.780106 -127.615196 0.207100004
159.603302 -127.480003 0.166199997
159.723602 -125.297203 0.162799999
159.644394 -124.8629 0.184200004
159.787003 -123.602798 0.165600002
159.663101 -123.365097 0.0969000012
159.603394 -122.836998 0.122500002
159.7556 -122.7089 0.145999998
159.685394 -120.881401 0.184699997
159.627594 -120.225098 0.26879999
159.873398 -138.589798 0.317799985
159.816895 -137.102798 0.287
159.826401 -133.529495 0.214000002
159.805801 -126.135399 0.185299993
159.9897 -124.890297 0.0688999966
159.882797 -124.681602 0.0850000009
159.976807 -122.390198 0.223800004
159.858704 -120.800102 0.113300003
159.869598 -120.264503 0.140900001
159.862503 -120.101097 0.160500005
