# .PCD v0.7 - Point Cloud Data file format
VERSION 0.7
FIELDS x y z
SIZE 4 4 4
TYPE F F F
COUNT 1 1 1
WIDTH 648
HEIGHT 1
VIEWPOINT 0 0 0 1 0 0 0
POINTS 648
DATA ascii
-9.3451004 -33.6351013 13.5007
-9.37979984 -33.0792999 13.2884998
-9.28820038 -31.0800991 13.0970001
-9.08139992 -33.2569008 13.1596003
-9.07590008 -33.2958984 13.5583
-9.00080013 -31.2178001 13.1066999
-9.02639961 -31.0702 13.3852997
-8.89550018 -33.5284004 13.4516001
-8.86260033 -32.7765007 13.5312004
-8.97659969 -32.5495987 13.4303999
-8.71969986 -32.4682999 13.3037004
-8.52729988 -32.3768997 5.4289999
-8.59090042 -32.2937012 6.24819994
-8.44929981 -32.2650986 8.23079967
-8.40380001 -32.3727989 13.4715996
-8.40260029 -32.0037003 12.6857996
-8.52670002 -31.8015003 13.2096004
-8.49750042 -31.1047001 13.3739004
-8.49419975 -30.8873997 13.4828997
-8.30039978 -32.1362 9.09850025
-8.21000004 -32.0932007 12.0307999
-8.34469986 -32.0377998 12.4783001
-8.23659992 -32.1090012 12.6406002
-8.33365059 -32.0557022 12.8947001
-8.27429962 -31.9631004 13.1159
-8.1164999 -32.3628998 4.63310003
-8.19320011 -32.1181984 11.3458004
-8.15530014 -32.0251999 12.2650003
-8.13589954 -32.0615997 12.4233999
-8.03470039 -32.0317993 12.8542995
-8.19089985 -31.9906006 12.3199997
-8.13329983 -30.9421997 13.3509998
-7.85354996 -32.3609467 5.36814976
-7.91569996 -32.3203011 5.46920013
-7.85559988 -32.3307991 5.67860031
-7.82390022 -32.3302002 6.29680014
-7.95639992 -32.2515984 11.3397999
-7.91270018 -32.2312012 12.0468998
-7.98579979 -32.1828003 9.99199963
-7.96710014 -32.1313019 11.9056997
-7.82019997 -32.1058006 12.4243002
-7.9763999 -32.1227989 12.7389002
-7.93170023 -32.1660995 12.9273996
-7.86964989 -32.1043015 13.1167498
-7.82660007 -30.7957993 13.5285997
-7.76749992 -32.4080009 5.51259995
-7.7343998 -32.4420013 7.82390022
-7.78310013 -32.3699989 4.94680023
-7.75635004 -32.34095 5.37085009
-7.78660011 -32.3207016 5.69339991
-7.76449966 -32.3722534 5.92205
-7.77260017 -32.3255005 6.01450014
-7.70249987 -32.3681984 6.33360004
-7.69910002 -32.3768005 8.06110001
-7.68919992 -32.2300987 11.9333
-7.64839983 -32.1623001 13.5326004
-7.76020002 -31.9953995 13.5423002
-7.72300005 -31.5788002 13.4224005
-7.76179981 -31.3181 13.3535995
-7.46019983 -32.1489983 12.2559004
-7.41739988 -31.2240009 13.1168003
-7.28539991 -32.2313995 11.6403999
-7.27990007 -32.2075996 12.2156
-7.25670004 -32.0746994 12.5481997
-7.32310009 -31.0764008 13.3290997
-7.36850023 -30.9330006 13.4069004
-7.0921998 -32.2038002 13.2933998
-7.1954999 -32.1525002 12.3042002
-7.13730001 -32.1867981 13.1334
-7.1868 -32.0780983 13.3213997
-6.97219992 -32.4028015 13.0073004
-6.80049992 -32.2419014 13.0003004
-6.99399996 -32.027401 13.4563999
-6.91359997 -31.1849003 13.3209
-6.77909994 -32.2715988 13.2386999
-6.5941 -32.0043983 13.2848997
-6.57250023 -30.5976009 13.3479004
-6.4066 -30.0018997 12.9885998
-6.53789997 -29.6506004 13.0277996
-6.59730005 -29.6854992 13.3565998
-6.51879978 -28.7530003 13.2636995
-6.44820023 -28.3603001 13.0429001
-6.47730017 -26.5776997 13.2390003
-6.38079977 -29.5739994 13.3218002
-6.32450008 -29.1396008 13.0749998
-6.2361002 -28.8771992 13.1674004
-6.21680021 -28.8183002 13.2266998
-6.32840014 -25.9237003 12.8818998
-6.10620022 -29.4050007 13.2658997
-6.13009977 -28.8526993 13.1742001
-6.15380001 -28.9293995 13.2603998
-6.08260012 -27.9648991 13.2226
-6.13710022 -27.2917004 13.0604
-5.80240011 -28.3493996 13.1603003
-5.97189999 -26.0473995 13.1134996
-5.69700003 -26.8577003 7.61810017
-5.63829994 -26.9195995 10.5857
-5.61990023 -26.7581005 9.3302002
-5.50640011 -26.9895992 9.46570015
-5.48999977 -26.8652992 9.76154995
-5.43639994 -26.8379993 10.1382999
-5.48655033 -26.8759499 10.3765507
-5.55140018 -26.9326 11.1590004
-5.46509981 -26.9603996 11.7594995
-5.43779993 -26.8297501 12.0146999
-5.45839977 -26.8208008 12.4173002
-5.47790003 -26.7894993 9.65270042
-5.52990007 -26.7887993 10.9137001
-5.49739981 -26.6697998 11.7676001
-5.41300011 -26.7833004 12.3305998
-5.40439987 -25.6926994 12.9826002
-5.37989998 -31.4862995 7.48530006
-5.23659992 -26.8153992 6.73120022
-5.20569992 -26.8789005 7.07250023
-5.36350012 -26.8111 11.1609001
-5.38749981 -26.7873993 8.55519962
-5.34779978 -26.7112999 9.65929985
-5.28660011 -26.7492008 10.5095997
-5.24060011 -26.7639999 10.7687998
-5.38469982 -26.7215004 10.8763504
-5.28499985 -26.6616993 11.0976
-5.31599998 -26.7129993 11.2122002
-5.27220011 -26.6145992 12.5549002
-5.20100021 -26.5671997 12.4827995
-5.3302002 -26.530899 12.8367996
-5.22599983 -26.3689003 5.5855999
-5.28189993 -26.3792 5.91970015
-5.05859995 -26.8693008 6.62960005
-5.14949989 -26.8519001 6.80429983
-5.07700014 -26.7040501 10.3081493
-5.09860039 -26.72295 10.5602493
-5.0637002 -26.7282009 10.7090998
-5.13164997 -26.7139015 11.0571499
-5.08699989 -26.7213001 11.3596497
-5.05679989 -26.6990509 11.5247002
-5.1932497 -26.6649513 11.8872004
-5.02824974 -26.6627502 12.1184998
-5.16539955 -26.6956997 12.2896996
-5.1093998 -26.6422997 12.4884996
-5.07980013 -26.2299995 9.30220032
-5.14020014 -26.2031994 9.67469978
-4.90850019 -26.9370995 5.41790009
-4.93149996 -26.8973999 6.99919987
-4.95410013 -26.8409004 7.72139978
-4.86569977 -26.8124008 10.2468004
-4.96929979 -26.7989998 10.3395996
-4.92214966 -26.7315998 10.6702003
-4.87643337 -26.7145329 10.9164
-4.91619968 -26.7051506 11.1268997
-4.87330008 -26.7246666 11.3435001
-4.83170033 -26.6883507 11.5469503
-4.93970013 -26.6905003 11.8081999
-4.87020016 -26.6304512 12.1719503
-4.81400013 -26.6541996 12.6989002
-4.8920002 -26.3540001 5.74289989
-4.8513999 -26.3483009 8.99890041
-4.85160017 -26.2749996 9.02019978
-4.80649996 -26.2101994 9.71399975
-4.84210014 -25.7469006 13.0958004
-4.66760015 -26.9494991 6.40840006
-4.73050022 -26.8432999 6.62510014
-4.71729994 -26.8083 7.2177
-4.70469999 -26.7579994 10.1973
-4.72119999 -26.7481003 10.2210999
-4.63234997 -26.7196503 10.5093002
-4.67640018 -26.7271004 10.6330004
-4.70864964 -26.7411499 10.8868504
-4.68315029 -26.7216988 11.1428003
-4.64779997 -26.6753998 11.3381996
-4.69049978 -26.7143993 11.4936666
-4.63670015 -26.6839008 12.1960001
-4.7255497 -26.671051 12.3491497
-4.79110003 -26.6714993 12.4625998
-4.77370024 -26.7182007 12.6462002
-4.64680004 -26.6042004 12.8027
-4.76410007 -26.3526001 6.01539993
-4.68540001 -26.2891998 8.95839977
-4.77990007 -26.2772007 9.09980011
-4.76870012 -26.2658997 9.34689999
-4.68209982 -26.2518997 9.47879982
-4.74669981 -26.2446003 9.6171999
-4.76300001 -26.3808002 12.9160004
-4.65460014 -25.7203007 13.0837002
-4.42369986 -26.9381008 5.18380022
-4.50495005 -26.8316002 7.58164978
-4.58580017 -26.8612003 10.0272999
-4.58939981 -26.7826004 8.72000027
-4.57800007 -26.7486 8.83110046
-4.53830004 -26.7999001 10.2370005
-4.47109985 -26.6124992 10.5106001
-4.5381999 -26.7350998 10.6344995
-4.51690006 -26.7479992 10.9997997
-4.56899977 -26.7595005 11.2053003
-4.57310009 -26.6949997 11.5015001
-4.49380016 -26.6680489 11.7129498
-4.48449993 -26.7231503 11.88235
-4.50939989 -26.6504993 12.0181999
-4.53079987 -26.6768341 12.2505999
-4.59989977 -26.6959 12.4487
-4.55194998 -26.6364002 12.7292004
-4.52780008 -26.5990009 11.3055
-4.55709982 -26.4018002 12.9806004
-4.5999999 -26.3831997 9.02980042
-4.53319979 -26.2108994 9.34759998
-4.50470018 -26.2565002 9.45650005
-4.52010012 -26.3358002 12.9377003
-4.5795002 -26.1928005 9.51799965
-4.54199982 -25.9419003 12.8383999
-4.59140015 -25.6700993 13.0347996
-4.57420015 -25.2269001 3.80960011
-4.26779985 -27.3237 6.58850002
-4.20489979 -27.3013 6.84549999
-4.30760002 -27.0014992 5.10389996
-4.25479984 -27.0121994 5.72980022
-4.27600002 -27.0210991 6.13749981
-4.21360016 -27.0298004 6.7038002
-4.31599998 -26.9580994 5.34369993
-4.23929977 -26.9605999 5.44379997
-4.26499987 -26.9659996 7.47069979
-4.3441 -26.8341999 8.33740044
-4.37419987 -26.8304005 10.1388998
-4.21019983 -26.8246002 10.323
-4.36749983 -26.8150997 10.6702003
-4.35179996 -26.7838993 5.92679977
-4.22329998 -26.7765007 9.96609974
-4.30700016 -26.7904243 10.0949249
-4.28410006 -26.7376003 10.2163
-4.26780033 -26.7687759 10.5634251
-4.21820021 -26.7240009 10.6836004
-4.28995037 -26.7381516 10.9642
-4.29545021 -26.7238007 11.1177998
-4.32502508 -26.6731739 11.2840996
-4.25364971 -26.72855 11.4997501
-4.33230019 -26.6768341 11.8739328
-4.2737751 -26.6823235 12.533
-4.27449989 -26.6571999 12.7711
-4.32480001 -26.5860004 5.55049992
-4.26809978 -26.4521008 12.0916996
-4.38509989 -26.5741005 12.9153996
-4.27150011 -26.3365993 9.00990009
-4.26270008 -26.2541008 9.51589966
-4.3920002 -26.0000992 13.0705004
-4.31879997 -25.7283001 12.8944998
-4.05459976 -27.0594006 6.95359993
-4.17619991 -26.9442997 5.67320013
-4.05003309 -26.8296661 9.47959995
-4.03070021 -26.9174004 10.1576004
-4.08909988 -26.8521004 10.3582001
-4.06704998 -26.9217987 10.4028997
-4.0848999 -26.8954506 10.7072001
-4.00769997 -26.9209995 11.0263996
-4.13929987 -26.8054008 11.3079004
-4.01450014 -26.8722992 11.4159002
-4.09819984 -26.7634335 10.095767
-4.07749987 -26.7915993 10.2086
-4.17719984 -26.7549 10.9118996
-4.17780018 -26.7460003 11.3036003
-4.10916662 -26.7046013 11.4799995
-4.12540007 -26.7754993 11.8128004
-4.02129984 -26.6485004 12.1274996
-4.10459995 -26.6608009 12.3133001
-4.16730022 -26.7136993 12.5573997
-4.18050003 -26.4272995 8.89770031
-4.10150003 -26.4874992 9.29780006
-4.0776 -26.3362007 9.13519955
-4.15645027 -26.2711506 9.47865009
-4.15969992 -25.6194 13.0777998
-3.93120003 -27.2092991 10.5672998
-3.84369993 -27.1068001 6.21360016
-3.9460001 -27.0069008 11.0865002
-3.98850012 -26.9818993 5.55280018
-3.95230007 -26.9848003 6.01469994
-3.8743 -26.8418007 8.96730042
-3.83369994 -26.8022995 9.08549976
-3.89849997 -26.8132992 9.34829998
-3.85489988 -26.8544006 9.8203001
-3.9691 -26.9067001 10.3458996
-3.8838501 -26.9382 10.4482994
-3.95140004 -26.9318008 10.6563997
-3.95830011 -26.8614006 10.9568996
-3.83214998 -26.8950005 11.0815001
-3.99830008 -26.8222008 11.3754997
-3.87639999 -26.8022995 11.4101
-3.84559989 -26.8521996 11.6894999
-3.97539997 -26.8169994 11.9328003
-3.94379997 -26.7579994 9.04740047
-3.87820005 -26.7929993 9.48449993
-3.94740009 -26.7569008 9.67949963
-3.90210009 -26.7401752 11.9367247
-3.91619992 -26.7311001 12.1623001
-3.89949989 -26.5358009 12.8705006
-3.88490009 -25.0480003 4.44850016
-3.72819996 -27.0000992 5.3664999
-3.64470005 -27.0172997 6.16029978
-3.78069997 -27.1198997 6.76849985
-3.65074992 -26.8687 9.32145023
-3.68659997 -26.83675 9.68860054
-3.6789999 -26.8607006 9.97640038
-3.70685005 -26.8509502 10.2235003
-3.72189999 -26.8262997 11.8036003
-3.68379998 -26.7714005 9.77280045
-3.6263001 -26.6963997 12.1864996
-3.74399996 -26.7227001 12.2088003
-3.72510004 -25.0450993 4.25339985
-3.5065999 -27.0084991 11.6259003
-3.46869993 -26.9638996 5.54209995
-3.51040006 -26.9002991 7.76200008
-3.53719997 -26.8479004 8.4343996
-3.48440003 -26.8267002 9.32754993
-3.50246668 -26.825367 9.52780056
-3.51749992 -26.8465996 9.72649956
-3.59960008 -26.8181992 9.90330029
-3.50094986 -26.8314514 11.3285503
-3.51160002 -26.8516998 11.7061005
-3.49839997 -26.7970009 8.39379978
-3.48219991 -26.7201004 9.24139977
-3.48749995 -26.7861996 9.89109993
-3.54590011 -26.7646008 11.3933001
-3.51530004 -26.7737007 11.816
-3.41599989 -26.7348995 12.5213003
-3.41240001 -26.6879005 12.6033001
-3.56839991 -26.4374008 13.0318003
-3.21930003 -27.0072002 5.45590019
-3.33809996 -27.0223007 5.83720016
-3.37059999 -26.9682007 5.29020023
-3.30509996 -26.8437004 9.52810001
-3.28309989 -26.8579006 9.6260004
-3.26300001 -26.9036007 9.93889999
-3.2263 -26.9563999 10.2039003
-3.26830006 -26.9207993 10.6939507
-3.21169996 -26.8691006 10.9596996
-3.39400005 -26.9493008 11.0340004
-3.37045002 -26.844799 11.2924004
-3.28859997 -26.9216995 11.4617996
-3.27769995 -26.8952999 11.6696997
-3.39299989 -26.7751007 9.71809959
-3.3599999 -26.7968006 9.83399963
-3.31859994 -26.7399006 12.0063
-3.36689997 -26.7285004 12.3037996
-3.24690008 -26.4801006 12.9319
-3.25430012 -26.3111 12.9176998
-3.06649995 -26.9825993 5.44719982
-3.14260006 -26.906601 5.65269995
-3.0467999 -26.8731003 9.43770027
-3.16359997 -26.8169498 9.69505024
-3.07480001 -26.8111 9.83930016
-3.16494989 -26.9227486 10.6823006
-3.13564992 -26.8800011 10.9284992
-3.09789991 -26.8659992 11.8362999
-3.0381999 -26.7628994 9.06980038
-3.00530005 -26.7730007 9.58100033
-3.08380008 -26.7798004 11.3926001
-3.07969999 -26.7780495 11.9181995
-3.12170005 -26.6408005 12.2255001
-3.07999992 -26.731966 12.4809999
-3.07389998 -26.6630001 12.7924004
-3.04819989 -26.6217003 12.8725004
-3.15750003 -26.1947002 12.8849001
-3.05419993 -25.8083992 12.9680004
-3.19390011 -25.5291996 13.0637999
-3.00690007 -25.0606003 4.30170012
-2.85360003 -27.1399002 3.4690001
-2.80550003 -27.0314999 5.83699989
-2.86409998 -27.0330009 10.9696999
-2.91750002 -26.9533997 5.4756999
-2.86275005 -26.8439484 9.31830025
-2.9756999 -26.8479996 9.42169952
-2.81110001 -26.8304005 9.71490002
-2.81349993 -26.8430996 9.82830048
-2.98379993 -26.9150009 11.1760998
-2.87330008 -26.6924 12.0143003
-2.88719988 -26.7236004 12.2598495
-2.87919998 -26.6292 12.6745996
-2.84899998 -26.6292992 13.0077
-2.88590002 -26.1653996 13.0042
-2.81809998 -25.1935005 4.1729002
-2.71204996 -27.0698509 6.07509995
-2.71390009 -27.0093994 6.43860006
-2.66144991 -26.8483505 9.55279922
-2.77780008 -26.8778992 10.1483002
-2.7098999 -26.9039993 11.1816998
-2.60800004 -26.8223 11.7420998
-2.77329993 -26.7409 10.1417999
-2.75219989 -26.7891998 11.8950996
-2.6947999 -26.7150002 12.3539
-2.63249993 -26.6560993 12.5916996
-2.71690011 -26.6394005 12.8696003
-2.79990005 -26.5835991 13.0493002
-2.66269994 -25.9932995 13.0178003
-2.64429998 -25.1693001 3.56839991
-2.40879989 -27.0146008 6.21500015
-2.51169991 -26.9551506 6.48210001
-2.4598999 -26.8938007 9.18190002
-2.53760004 -26.855175 9.52407455
-2.44953322 -26.849966 9.67253304
-2.50969982 -26.851799 9.85765076
-2.47449994 -26.8910007 10.1368999
-2.50339985 -26.9059486 10.2878504
-2.55819988 -26.9218998 10.5404997
-2.53900003 -26.8656006 11.0112
-2.54509997 -26.8280506 11.8472004
-2.44980001 -26.7598 12.1497002
-2.53839993 -26.6874008 12.3814001
-2.5711 -26.7427006 12.4210997
-2.50325012 -26.7257996 12.6423492
-2.4605999 -26.0895004 12.8455
-2.27830005 -27.2233009 2.7822001
-2.39770007 -26.9209003 6.86499977
-2.33330011 -26.8969002 9.37020016
-2.32360005 -26.8549995 9.44519997
-2.31299996 -26.9144993 10.1588001
-2.35906672 -26.862299 10.9107666
-2.33870006 -26.8546009 11.6051998
-2.32470012 -26.7908993 10.8488998
-2.2809 -26.7381001 12.2328997
-2.34369993 -26.7311001 12.4668999
-2.23620009 -26.6329994 12.8445997
-2.31030011 -26.4554005 13.1293001
-2.2980001 -25.9741993 12.8978004
-2.28449988 -25.7551003 13.1278
-2.27760005 -25.2639008 3.45370007
-2.29990005 -25.2583008 3.61069989
-2.27870011 -25.2425995 3.90989995
-2.38249993 -25.0442009 4.56580019
-2.0158 -26.9731998 6.32019997
-2.17289996 -26.9337997 6.53569984
-2.10619998 -26.8475494 9.49124908
-2.18569994 -26.8045998 9.76589966
-2.04110003 -26.8409004 9.82800007
-2.10153341 -26.851099 10.536067
-2.05844998 -26.7918015 9.71845055
-2.10249996 -26.7919998 10.1760998
-2.13150001 -26.7640991 10.8590002
-2.12579989 -26.7042999 11.0276003
-2.11566663 -26.7689991 11.7411327
-2.06920004 -26.7388 11.9411001
-2.07324982 -26.6977501 12.4218998
-2.19149995 -26.6942997 12.8669996
-2.06419992 -25.2280006 3.49480009
-2.01699996 -25.1121998 4.18100023
-2.04979992 -25.0769997 4.42659998
-1.93879998 -27.0100002 6.03809977
-1.90670002 -26.9675007 6.09250021
-1.93239999 -26.9470005 6.29199982
-1.94860005 -26.9309006 8.20540047
-1.94509995 -26.8661003 8.67080021
-1.96889997 -26.8432007 9.39389992
-1.96300006 -26.8607998 9.53520012
-1.9145 -26.8183002 10.1521997
-1.91339993 -26.8747501 10.3783503
-1.85220003 -26.8458996 10.8687992
-1.80159998 -26.8029003 11.2564001
-1.95369995 -26.7721996 11.1561003
-1.87399995 -26.7961998 11.7406998
-1.92770004 -26.7214012 12.0641994
-1.92774999 -26.7767487 12.4946003
-1.97090006 -26.7315502 12.7075996
-1.9346 -26.2497005 12.8905001
-1.90805006 -25.9418488 12.9078503
-1.80270004 -25.2847004 3.47399998
-1.83019996 -25.3034515 4.7329998
-1.82539999 -25.2376995 4.86660004
-1.92190003 -25.1686001 3.95659995
-1.94889998 -25.0209007 4.48780012
-1.72449994 -27.0356007 5.98899984
-1.64820004 -26.9018002 7.58519983
-1.64629996 -26.8687 8.47319984
-1.74989998 -26.9043007 9.09549999
-1.77569997 -26.8649006 9.90950012
-1.61440003 -26.8708 10.4489002
-1.69585001 -26.846199 10.7332001
-1.60479999 -26.8281994 11.0466003
-1.74720001 -26.8036003 11.5094004
-1.69869995 -26.7823009 10.7472
-1.66864991 -26.7327003 12.2723007
-1.69537497 -26.7391739 12.5248499
-1.66840005 -26.7651005 12.698
-1.68359995 -26.5496006 12.8508997
-1.65859997 -25.7019997 13.2971001
-1.76849997 -25.2922001 3.73140001
-1.67079997 -25.1909008 4.67040014
-1.5747 -26.9902992 6.14849997
-1.55250001 -26.9550991 6.59719992
-1.41009998 -26.9057999 9.37310028
-1.54729998 -26.8955994 9.61159992
-1.51760006 -26.8206997 9.94610023
-1.44379997 -26.8432007 10.0906
-1.58060002 -26.7835007 11.2357998
-1.41680002 -26.7553005 12.5139999
-1.54340005 -26.7338505 12.6482
-1.46689999 -25.6410007 5.4612999
-1.49890006 -25.7910995 13.0525999
-1.47420001 -25.5597992 5.29764986
-1.46290004 -25.2866001 3.52270007
-1.4454 -25.2660999 3.9230001
-1.5467 -25.2463989 4.0447998
-1.40219998 -25.1450996 4.68540001
-1.28289998 -27.0062008 6.25059986
-1.21159995 -26.8419991 9.53899956
-1.39999998 -26.8248997 9.86550045
-1.21440005 -26.8462009 10.1850004
-1.37090003 -26.8878002 10.5419998
-1.29425001 -26.8635998 10.7077999
-1.24660003 -26.8120995 12.4161997
-1.23769999 -26.7528 10.3956003
-1.24170005 -26.7749004 11.9118004
-1.39090002 -26.7418003 12.5531998
-1.24520004 -25.6004009 5.34019995
-1.25730002 -25.7549 5.62970018
-1.29330003 -25.4944 5.10750008
-1.34080005 -25.2814007 2.67330003
-1.33010006 -25.2605 3.45050001
-1.35839999 -25.2748508 3.85715008
-1.39719999 -25.218399 4.77740002
-1.26979995 -25.1907997 2.97210002
-1.26849997 -25.1235008 4.52920008
-1.35119998 -25.1193008 4.81790018
-1.14320004 -27.1399002 3.05410004
-1.1688 -27.0375004 5.99090004
-1.12479997 -27.0314999 6.23619986
-1.09574997 -26.9795494 6.2576499
-1.0733 -26.9955006 7.29220009
-1.16299999 -26.8213997 10.9146996
-1.12549996 -26.4720001 12.8720999
-1.12080002 -26.094101 12.9485998
-1.05980003 -25.7397995 5.36329985
-1.17260003 -25.3237991 3.33220005
-1.18159997 -25.2772007 3.58030009
-1.15630007 -25.2987995 3.74399996
-1.00510001 -25.1870995 3.84649992
-1.09309995 -25.1991005 4.0788002
-0.910600007 -27.2094994 2.39840007
-0.912800014 -27.1511993 3.0158999
-0.848699987 -27.0934505 5.88325024
-0.973100007 -26.9712009 7.25019979
-0.936800003 -26.8906994 7.99280024
-0.958999991 -26.9277992 8.01080036
-0.898400009 -26.9363003 8.24629974
-0.849399984 -26.8012009 10.9511995
-0.997600019 -26.9216003 11.4905005
-0.860700011 -26.8630009 11.8338003
-0.988099992 -26.7894993 11.3964005
-0.966400027 -26.7201996 12.3304996
-0.819299996 -25.6758003 5.42589998
-0.860300004 -25.4396 5.07063341
-0.892199993 -25.2238998 2.48769999
-0.932900012 -25.2381992 3.6631999
-0.896700025 -25.2047005 3.92479992
-0.910300016 -25.3005009 4.71449995
-0.890799999 -25.1429005 3.58640003
-0.960600019 -25.1774998 3.92280006
-0.963100016 -25.1446991 4.12340021
-0.899633348 -25.1161003 4.31146669
-0.625500023 -27.1303997 2.88940001
-0.704100013 -27.0533009 3.77460003
-0.6778 -27.0379009 6.32070017
-0.736400008 -27.0522995 6.79419994
-0.677600026 -27.0168991 9.67549992
-0.752399981 -26.9859009 7.26490021
-0.664600015 -26.8204002 9.89719963
-0.75999999 -26.8337002 10.0690002
-0.608299971 -26.8430004 10.3901997
-0.647199988 -26.8885994 11.0658998
-0.601499975 -26.8514996 11.9211998
-0.739899993 -26.7973995 10.3046999
-0.795599997 -26.7894993 10.4459
-0.728699982 -26.7637005 10.8652
-0.608799994 -26.7588005 11.0122004
-0.671899974 -26.7273998 11.9496002
-0.68629998 -26.6730995 12.3459997
-0.772400022 -26.7378006 12.5712996
-0.695299983 -25.7210007 5.50899982
-0.761699975 -25.4733009 4.9204998
-0.727299988 -25.2110004 3.01300001
-0.635299981 -25.2345009 3.9763999
-0.727800012 -25.2602005 4.02349997
-0.651899993 -25.2388 4.62419987
-0.585399985 -27.2108994 2.64450002
-0.421700001 -27.1466007 6.2578001
-0.514100015 -27.0361004 6.67810011
-0.514199972 -27.0538998 10.2341003
-0.417299986 -26.9507999 7.8105998
-0.518100023 -26.8425999 8.29419994
-0.570800006 -26.9634991 9.15690041
-0.489899993 -26.9123001 9.34879971
-0.522300005 -26.9081993 9.68564987
-0.513800025 -26.8973999 9.84640026
-0.490199983 -26.9064503 10.1201496
-0.441300005 -26.9771996 10.2931995
-0.483099997 -26.9610996 10.6190996
-0.439099997 -26.9901009 10.8788004
-0.490466654 -26.8831997 11.0948668
-0.481299996 -26.8435001 11.3563004
-0.455049992 -26.8598499 11.5177498
-0.520299971 -26.7763996 10.4534998
-0.451499999 -26.6907997 11.5733995
-0.453200012 -26.7462997 12.1086998
-0.562399983 -26.6641006 12.6591997
-0.432900012 -25.9498005 12.9551001
-0.404399991 -25.7227993 5.15479994
-0.420100003 -25.4015999 3.3282001
-0.41870001 -25.4321995 4.99849987
-0.597000003 -25.3889999 3.39499998
-0.466100007 -25.3610992 3.49090004
-0.414999992 -25.3348999 3.6631
-0.43720001 -25.2724991 4.00339985
-0.483999997 -25.2248993 4.73674965
-0.503899992 -25.1895008 3.14219999
-0.448400021 -25.1450996 4.3055501
-0.430299997 -25.0953007 4.45160007
-0.209800005 -27.2238998 2.96539998
-0.326099992 -27.1665001 3.09500003
-0.362899989 -26.9351997 9.20370007
-0.35315001 -26.9102497 9.6963501
-0.236099988 -26.9393997 9.91779995
-0.28442499 -26.9684505 10.9595251
-0.300199986 -26.8570995 11.7708998
-0.288199991 -26.8101006 12.3802996
-0.273699999 -26.7891006 12.1143999
-0.289499998 -26.6425991 12.8086004
-0.283349991 -26.3333015 12.9507999
-0.388700008 -25.7574997 5.51160002
-0.224000007 -25.4178009 3.33410001
-0.332399994 -25.5293007 4.84040022
-0.246700004 -25.3491993 3.74009991
-0.273999989 -25.3192005 3.85949993
-0.309599996 -25.3344994 4.00610018
-0.384499997 -25.3973999 4.75990009
-0.271400005 -25.1947002 3.16880012
-0.0692000017 -27.1494999 3.40050006
-0.0851999968 -27.0079994 11.0332003
-0.00480000023 -27.1156006 11.6629
-0.133100003 -26.8855991 9.5934
-0.111850001 -26.9267006 10.2042503
-0.0656000003 -26.9674988 11.1037502
-0.111199997 -26.9703007 11.3149996
-0.0364000015 -26.9169998 11.4172001
-0.153899997 -26.8103008 11.9268999
-0.0571000017 -26.7448006 12.2824001
-0.101199999 -26.7903004 12.4039001
-0.0845666677 -26.7796993 12.7012329
-0.188899994 -26.3082008 12.6531
-0.0265999995 -25.8838997 12.8008003
-0.0702999979 -25.6903 13.0236998
-0.00510000018 -25.2105007 3.05830002
-0.0285999998 -25.3631992 3.81100011
-0.0417999998 -25.2744007 4.82250023
-0.0439000018 -25.1872005 4.10589981
