# .PCD v0.7 - Point Cloud Data file format
VERSION 0.7
FIELDS x y z
SIZE 4 4 4
TYPE F F F
COUNT 1 1 1
WIDTH 20
HEIGHT 1
VIEWPOINT 0 0 0 1 0 0 0
POINTS 20
DATA ascii
83.3354034 -106.819801 1.28579998
88.2468033 -108.822701 1.47290003
89.308197 -108.776497 1.495
90.3279037 -102.455498 1.15339994
90.9048996 -106.480797 1.34809995
90.986702 -106.145699 1.28789997
91.0734024 -100.275597 0.99089998
92.2823029 -105.944199 1.24950004
92.9017029 -108.973503 1.36140001
93.3046036 -108.683197 1.29550004
93.6473999 -108.867104 1.30569994
93.7341995 -105.944 1.23670006
93.9756012 -100.633003 1.00610006
94.0537033 -108.719902 1.32609999
94.2202988 -108.748901 1.17079997
94.4330978 -108.776398 1.30239999
94.6110001 -108.648598 1.21399999
97.1636963 -108.694397 1.18889999
97.8848038 -101.097504 0.976000011
98.3815002 -100.2285 0.916899979
