# .PCD v0.7 - Point Cloud Data file format
VERSION 0.7
FIELDS x y z
SIZE 4 4 4
TYPE F F F
COUNT 1 1 1
WIDTH 13
HEIGHT 1
VIEWPOINT 0 0 0 1 0 0 0
POINTS 13
DATA ascii
266.738312 -160.052597 18.8698997
267.999908 -160.047394 16.3673
267.899506 -160.117996 18.2472992
278.670197 -173.637604 10.2664003
279.174408 -175.216293 12.2250996
279.366791 -172.576904 11.5782003
279.430695 -175.885193 12.8357
279.475311 -175.058502 11.6563997
279.522095 -174.995697 11.2796001
279.571808 -172.697205 11.3605003
279.5625 -170.799606 12.1461
279.7258 -172.858902 11.1891003
279.859985 -175.627258 12.2917995
