# .PCD v0.7 - Point Cloud Data file format
VERSION 0.7
FIELDS x y z
SIZE 4 4 4
TYPE F F F
COUNT 1 1 1
WIDTH 16
HEIGHT 1
VIEWPOINT 0 0 0 1 0 0 0
POINTS 16
DATA ascii
62.2270012 41.1464005 0.328700006
66.5602036 51.8437004 0.810000002
66.4008026 51.8465004 1.01180005
67.3242035 52.151001 1.43630004
67.8041992 50.9984016 -1.55320001
68.7265015 45.6262016 -2.04299998
69.7742996 51.0587006 1.7723
69.8338013 52.1931992 -0.158800006
70.7176971 52.8311005 0.4208
70.9970016 52.6828995 0.399699986
71.0603027 43.2224998 -1.50049996
71.3179016 43.3479004 -1.82079995
72.9952011 41.1604004 -3.58920002
73.1567001 41.0610008 -4.18730021
73.1588974 41.0409012 -3.23869991
73.0671997 41.0217018 -2.51360011
