# .PCD v0.7 - Point Cloud Data file format
VERSION 0.7
FIELDS x y z
SIZE 4 4 4
TYPE F F F
COUNT 1 1 1
WIDTH 1656
HEIGHT 1
VIEWPOINT 0 0 0 1 0 0 0
POINTS 1656
DATA ascii
260.003906 -249.665497 3.25390005
260.066711 -245.437805 8.13589954
260.136902 -245.472107 11.9825001
260.176514 -245.388199 9.7446003
260.283295 -249.906296 2.49830008
260.356903 -249.461197 1.53180003
260.384491 -249.235703 1.77049994
260.38501 -248.835602 4.24599981
260.333496 -248.787994 3.3197
260.352905 -248.532806 3.82850003
260.360596 -245.599899 1.88960004
260.24881 -245.459106 8.25650024
260.230896 -245.439697 9.39929962
260.260315 -245.412994 12.6238003
260.256897 -245.480103 13.0254002
260.297302 -245.231201 7.73479986
260.309998 -245.272705 7.95690012
260.30069 -245.3013 8.3657999
260.308105 -245.371307 8.58360004
260.293304 -245.262802 9.29380035
260.262787 -245.211502 9.44489956
260.243988 -245.326599 12.1722002
260.234802 -245.330399 12.6684999
260.232788 -245.380493 12.9349003
260.250885 -245.279007 13.0417004
260.321106 -245.022507 9.04030037
260.350403 -245.194199 9.56669998
260.275604 -245.1922 12.5073996
260.508911 -249.551804 2.87709999
260.414886 -248.822205 3.75079989
260.443298 -248.951996 4.2729001
260.408813 -245.444504 13.1251001
260.444489 -245.189804 5.84170008
260.797302 -252.938004 1.34179997
260.768585 -252.859299 2.3750999
260.78949 -252.830505 3.6644001
260.779785 -252.892807 3.83240008
260.791412 -252.653 1.17110002
260.756012 -252.693893 2.93050003
260.799805 -252.744705 3.04209995
260.729889 -252.653107 3.99370003
260.763672 -252.68425 4.09455013
260.765198 -252.443146 0.476449996
260.762604 -252.430695 0.6523
260.729492 -252.421204 3.43589997
260.751404 -252.585205 3.74690008
260.700287 -252.278702 0.846099973
260.716705 -252.281494 1.00619996
260.737091 -252.283295 1.41340005
260.697388 -252.2341 2.58010006
260.688904 -252.319946 3.32159996
260.718597 -252.3302 3.70169997
260.715851 -252.309555 3.87610006
260.740509 -252.195908 0.157900006
260.684906 -252.114899 0.27759999
260.657593 -252.105301 0.616100013
260.685699 -252.117798 1.09420002
260.674408 -252.196793 1.39189994
260.710999 -252.157745 2.28875017
260.64679 -252.125946 3.15059996
260.612 -250.100403 2.35719991
260.631409 -249.552505 2.33130002
260.649811 -245.428802 10.6793003
260.697693 -245.082397 9.05830002
260.99649 -254.291702 2.37190008
260.985107 -254.327606 3.32249999
260.958588 -254.222504 3.57640004
260.980896 -254.269302 3.93160009
260.99469 -254.043106 2.13879991
260.988586 -254.194107 3.01469994
260.997803 -254.171295 3.33389997
260.937012 -254.078094 3.93630004
260.996887 -253.914597 0.733299971
260.97699 -253.874496 1.1099
260.951813 -253.923706 2.80480003
260.92865 -253.943649 3.03145003
260.965942 -253.969452 3.30175018
260.981812 -253.896698 3.49429989
260.971588 -253.928101 3.91629982
260.953705 -253.632095 0.431800008
260.971802 -253.744995 0.746200025
260.984985 -253.732101 0.871900022
260.963898 -253.662506 1.0086
260.934814 -253.661301 1.56529999
260.937988 -253.757904 1.74020004
260.975403 -253.605103 1.87279999
260.924591 -253.6091 2.54579997
260.872101 -253.651093 2.82019997
260.906311 -253.700302 3.04270005
260.959198 -253.6362 3.78670001
260.900299 -253.647903 3.97930002
260.932007 -253.661499 4.10400009
260.986786 -253.468307 -0.377600014
260.948608 -253.546997 0.56190002
260.930115 -253.537796 1.29980004
260.935486 -253.538498 1.81149995
260.881287 -253.576508 3.09579992
260.884308 -253.517654 3.35514998
260.896637 -253.541443 3.95354986
260.866791 -253.527893 4.34509993
260.954895 -253.3647 0.377200007
260.908112 -253.269196 0.704200029
260.925812 -253.365204 0.943799973
260.870605 -253.277191 1.40945005
260.910767 -253.259537 1.74196672
260.894592 -253.335205 1.80669999
260.880188 -253.210693 2.08800006
260.90686 -253.274597 2.42540002
260.866913 -253.328598 2.62310004
260.865845 -253.348846 3.1086998
260.871948 -253.352844 3.31799984
260.872986 -253.350098 3.43199992
260.86969 -253.301605 3.76270008
260.859619 -253.289093 3.90015006
260.957001 -253.245102 4.0467
260.94101 -253.047806 -0.575500011
260.874786 -253.145905 0.131699994
260.943115 -253.126602 0.458900005
260.842651 -253.044708 1.08249998
260.868195 -253.113998 1.32809997
260.852997 -253.186798 1.57029998
260.843994 -253.141006 2.1184001
260.86377 -253.100311 2.30535007
260.820007 -253.171097 2.7585001
260.838684 -253.0504 3.31244993
260.815308 -253.001099 4.1402998
260.865723 -253.119553 4.26615
260.936768 -252.930801 -0.0313000008
260.886353 -252.916656 0.319400012
260.88501 -252.881897 0.4208
260.84729 -252.934006 0.772899985
260.858582 -252.980713 0.856549978
260.8508 -252.928452 1.15864992
260.837036 -252.910553 1.27845001
260.804993 -252.949295 1.73749995
260.846497 -252.9254 1.89110005
260.860687 -252.9832 2.03489995
260.809387 -252.865707 2.47230005
260.860901 -252.954498 2.7341001
260.912201 -252.994995 4.18610001
260.884705 -252.848007 4.42630005
260.906494 -252.775604 0.0533999987
260.811859 -252.695801 0.568549991
260.818909 -252.610992 0.787500024
260.82959 -252.711304 0.904799998
260.802704 -252.781296 1.09280002
260.844604 -252.769608 3.15420008
260.965515 -252.515701 0.335500002
260.821503 -252.564896 0.800899982
260.952515 -252.431793 4.48250008
260.929291 -252.043396 4.59880018
260.871002 -251.894897 4.72179985
260.884186 -249.230392 2.5395999
260.86969 -249.174805 2.49320006
260.933807 -245.282501 10.8339996
260.885712 -245.309906 12.8957005
260.964996 -245.102203 4.03630018
260.874512 -245.112595 5.89249992
260.819611 -244.947296 8.49300003
261.1922 -255.666306 3.37989998
261.190399 -255.460999 1.66700006
261.180664 -255.437851 3.88590002
261.182892 -255.289902 2.07060003
261.190308 -255.317703 2.93160009
261.144287 -255.395004 3.31049991
261.171539 -255.307495 3.44164991
261.193298 -255.291107 3.71339989
261.177307 -255.232193 3.93959999
261.198608 -255.396301 4.19640017
261.174896 -255.0336 1.07850003
261.185913 -255.076096 1.34669995
261.186615 -255.173294 1.41530001
261.189606 -255.195206 1.73500001
261.188904 -255.114304 1.80060005
261.198914 -255.020798 2.38400006
261.176636 -255.117355 2.48434997
261.137512 -255.116898 2.72020006
261.153992 -255.183701 3.69320011
261.156311 -255.145493 3.99600005
261.196198 -254.970398 -0.063500002
261.191803 -254.965195 0.338499993
261.143188 -254.891998 0.601000011
261.147705 -254.867493 1.07120001
261.158997 -254.912506 1.39820004
261.139893 -254.927307 1.47449994
261.151093 -254.826508 1.7177
261.176514 -254.947403 2.08739996
261.121094 -254.911194 2.69950008
261.139557 -254.936905 3.08435011
261.146271 -254.978897 3.49416661
261.107208 -254.928299 3.91120005
261.168915 -254.978897 4.38369989
261.151703 -254.667801 0.172700003
261.112366 -254.672928 0.279933333
261.121094 -254.6064 1.33560002
261.136108 -254.763397 1.59440005
261.092712 -254.790207 2.477
261.100647 -254.719086 2.62919998
261.091095 -254.697495 2.9525001
261.052704 -254.649994 3.19619989
261.10849 -254.757996 3.36450005
261.105896 -254.674805 3.45589995
261.053894 -254.720596 3.89669991
261.083435 -254.698151 4.10725021
261.128418 -254.7155 4.33309984
261.127686 -254.569397 0.703800023
261.09314 -254.453003 0.850199997
261.115356 -254.472931 1.34396672
261.081512 -254.592499 1.41509998
261.118805 -254.597397 2.66980004
261.11441 -254.589203 3.04390001
261.07489 -254.480042 3.28350019
261.042603 -254.488647 3.45945001
261.049652 -254.540558 3.64989996
261.045959 -254.489899 3.85885
261.064789 -254.524902 4.05319977
261.113586 -254.463501 4.26219988
261.125305 -254.296906 0.721400023
261.060486 -254.211899 0.984200001
261.088501 -254.320908 1.02520001
261.101013 -254.343994 1.21679997
261.069397 -254.301193 1.48109996
261.08252 -254.271545 1.699
261.074799 -254.330002 1.81770003
261.047607 -254.353104 2.0474999
261.085052 -254.322006 2.321275
261.052185 -254.318802 3.2572
261.005096 -254.285507 3.46609998
261.074951 -254.319641 4.09465027
261.037689 -254.285095 4.2816
261.066803 -254.176895 0.307500005
261.013306 -254.056 0.728500009
261.054413 -254.179993 0.861000001
261.059875 -254.092651 1.15485001
261.052124 -254.1035 1.21615005
261.066589 -254.1651 1.67990005
261.01001 -254.005905 2.24559999
261.03479 -254.116592 2.94219995
261.000702 -254.183899 3.54780006
261.042389 -254.053604 3.69099998
261.081787 -254.194199 4.13780022
261.040588 -253.976807 0.510100007
261.034302 -253.928207 1.22969997
261.015137 -253.961044 1.56839991
261.025696 -253.842651 1.72109997
261.002808 -253.928894 3.07529998
261.046997 -253.979202 4.36959982
261.012085 -253.795502 1.11670005
261.004791 -253.606094 1.56369996
261 -253.470093 1.21819997
261.13269 -253.476303 4.46850014
261.156311 -253.593307 4.76109982
261.023926 -253.325195 0.301699996
261.028107 -253.143295 4.22800016
261.105286 -253.185806 4.64599991
261.027588 -252.935898 4.50209999
261.071411 -252.632996 4.75
261.043304 -252.446304 4.64629984
261.013794 -245.327393 10.3955002
261.387207 -256.636902 2.13639998
261.397614 -256.670593 3.02749991
261.398804 -256.615112 3.59130001
261.389404 -256.706909 3.73189998
261.358093 -256.659302 3.8111999
261.395599 -256.537506 0.381000012
261.383301 -256.489807 0.510299981
261.380646 -256.46463 2.27826667
261.388092 -256.50061 2.5309999
261.368469 -256.4823 2.67980003
261.337097 -256.526215 3.78929996
261.364288 -256.368195 0.544399977
261.390015 -256.243713 1.58399999
261.365662 -256.31543 1.93655002
261.364105 -256.326294 2.25570011
261.365997 -256.276123 2.55634999
261.352997 -256.2146 2.71370006
261.364868 -256.335083 2.89905
261.307007 -256.276794 3.09549999
261.376801 -256.287994 3.37700009
261.281097 -256.30011 3.59080005
261.359009 -256.312286 3.78520012
261.37381 -256.268311 4.02059984
261.333099 -256.091309 -0.111299999
261.357086 -256.104401 0.4102
261.349304 -256.073242 0.890600026
261.365906 -256.071594 1.19190001
261.358307 -256.13681 1.3197
261.338593 -256.012909 1.41939998
261.34433 -256.065796 1.67513335
261.334808 -256.106812 1.87189996
261.363007 -256.075714 2.00979996
261.36911 -256.179993 2.34770012
261.332611 -256.111938 2.88546658
261.302643 -256.078735 3.15106678
261.240448 -256.029724 3.56215
261.337097 -256.157593 3.71639991
261.317993 -256.106293 3.91339993
261.352112 -256.151184 4.06710005
261.352814 -255.887802 -0.108999997
261.358551 -255.92865 0.0625500008
261.354797 -255.910294 1.29369998
261.33667 -255.855347 1.59494996
261.345306 -255.977203 1.61070001
261.324005 -255.968399 1.85599995
261.331207 -255.904999 2.0717001
261.290344 -255.918198 2.73383331
261.354492 -255.999603 2.99060011
261.309509 -255.907394 3.07540011
261.302856 -255.953461 3.92246652
261.252502 -255.993607 4.1262002
261.341888 -255.646698 -0.490399987
261.372589 -255.788605 -0.3116
261.282898 -255.741699 0.163900003
261.314301 -255.772293 0.202199996
261.350403 -255.792404 0.64380002
261.301605 -255.734573 0.843500018
261.260193 -255.796204 1.06060004
261.2659 -255.642593 1.36059999
261.290192 -255.765701 1.77559996
261.306091 -255.7285 1.86220002
261.278809 -255.692505 2.29223347
261.268799 -255.757996 2.63790011
261.241608 -255.679703 2.81080008
261.375397 -255.671005 4.06619978
261.309998 -255.412598 -0.452699989
261.319214 -255.4841 -0.252499998
261.256714 -255.405106 -0.0542000011
261.309937 -255.496765 0.13045001
261.263489 -255.495499 0.289999992
261.3172 -255.430695 0.476399988
261.294189 -255.499695 0.711899996
261.25589 -255.466599 0.869400024
261.204803 -255.579605 1.58000004
261.252991 -255.502396 1.72944999
261.252594 -255.527802 2.01430011
261.24527 -255.564087 2.48347497
261.234589 -255.464005 2.6789999
261.254883 -255.498993 2.86759996
261.271606 -255.530502 3.08459997
261.220398 -255.556503 3.64310002
261.315399 -255.504105 4.17320013
261.318481 -255.308044 -0.161049992
261.212799 -255.295303 0.375800014
261.29541 -255.385605 0.935400009
261.272186 -255.338104 1.34259999
261.207306 -255.347504 2.6164
261.220795 -255.307602 3.63490009
261.256409 -255.092102 0.307999998
261.237793 -255.192993 0.867699981
261.219482 -255.067505 1.70319998
261.352509 -255.159103 4.21190023
261.334412 -255.022598 4.49450016
261.388397 -255.044998 4.83269978
261.214813 -254.999207 1.19690001
261.275085 -254.4021 4.29610014
261.346649 -254.493195 4.56330013
261.260101 -254.009705 4.74450016
261.569702 -259.201599 1.31350005
261.570709 -259.218201 1.59360003
261.58609 -259.136993 1.31389999
261.582489 -258.909698 1.09350002
261.524902 -258.909241 1.34459996
261.575806 -258.820404 1.7155
261.595703 -258.72229 1.48549998
261.513397 -258.252502 1.54610002
261.552185 -258.162415 1.47019994
261.595306 -258.084015 3.21199989
261.599792 -258.10199 3.45280004
261.556793 -258.020111 3.9849999
261.5242 -257.881622 1.08516669
261.447296 -257.938385 1.48979998
261.550537 -257.851624 1.60790002
261.557098 -257.872986 1.86269999
261.57016 -257.851654 2.75399995
261.491302 -257.807007 3.08139992
261.593109 -257.808899 3.58360004
261.550903 -257.697357 1.15505004
261.510315 -257.730713 1.36979997
261.581299 -257.6362 2.45020008
261.570801 -257.685699 2.66230011
261.54361 -257.610107 3.03060007
261.531799 -257.648102 3.59660006
261.556488 -257.73291 3.6874001
261.556793 -257.634308 4.1079998
261.579803 -257.723114 4.32390022
261.557892 -257.473755 0.14986667
261.584015 -257.466003 0.390300006
261.579041 -257.425659 0.498650014
261.597504 -257.553497 0.923900008
261.562195 -257.409088 1.28799999
261.564331 -257.483337 1.51596665
261.51709 -257.495026 2.08366656
261.552795 -257.566162 2.26690006
261.564087 -257.595398 2.55029988
261.509888 -257.475189 2.67689991
261.508514 -257.40921 2.84120011
261.546204 -257.470398 3.52024984
261.504395 -257.468506 3.95860004
261.574707 -257.393311 0.676400006
261.560608 -257.22522 1.11205006
261.57019 -257.356903 1.22860003
261.530701 -257.315002 1.75179994
261.503296 -257.319153 1.93595004
261.531769 -257.283875 2.07857513
261.532501 -257.377106 2.32969999
261.519897 -257.335052 2.70776653
261.567688 -257.329895 2.94199991
261.531433 -257.3237 3.11854982
261.495392 -257.317108 3.55480003
261.511841 -257.277008 3.92216659
261.475189 -257.27179 4.07679987
261.576508 -257.177307 -0.0549999997
261.525604 -257.08139 0.166800007
261.549103 -257.082092 0.271600008
261.56601 -257.15451 0.442299992
261.518188 -257.058197 0.698499978
261.531982 -257.057007 0.897099972
261.546906 -257.093597 1.00469995
261.526306 -257.100891 1.46329999
261.516296 -257.074249 1.72303331
261.510712 -257.069611 2.04480004
261.518311 -257.135803 2.2974
261.474304 -257.007202 2.47070003
261.479248 -257.15271 2.93186665
261.548798 -257.174286 3.05259991
261.466461 -257.131836 3.52664995
261.461395 -257.123413 3.71440005
261.486328 -257.180664 3.90289998
261.513062 -257.112854 4.15625
261.512299 -257.104797 4.24910021
261.497498 -256.800293 -0.0606999993
261.442688 -256.848633 0.100749999
261.508179 -256.86377 0.291766673
261.551392 -256.945709 0.620999992
261.498413 -256.976013 1.17130005
261.5 -256.922302 1.45469999
261.451477 -256.865723 1.70499992
261.47937 -256.896851 1.89755011
261.408905 -256.877594 2.43930006
261.463348 -256.911652 2.69764996
261.465088 -256.815308 2.90639997
261.463287 -256.967896 3.079
261.465576 -256.914429 3.46369982
261.442993 -256.808411 3.69120002
261.411407 -256.840393 3.84229994
261.573212 -256.910095 4.22629976
261.544403 -256.606293 -0.165399998
261.412415 -256.675903 1.02030003
261.435059 -256.668152 1.66050005
261.421814 -256.617889 1.85319996
261.433105 -256.792694 2.11929989
261.47113 -256.708099 2.29129982
261.456787 -256.706909 2.48210001
261.437195 -256.674377 2.74037504
261.416412 -256.637512 2.93000007
261.466614 -256.622498 3.36194992
261.437103 -256.709015 3.7407999
261.448303 -256.739288 3.99769998
261.451813 -256.605713 4.31899977
261.533508 -256.487 -0.43900001
261.48291 -256.441711 -0.148300007
261.470398 -256.462097 0.126699999
261.46228 -256.50061 0.278999984
261.437714 -256.551514 0.488400012
261.447113 -256.559906 0.761500001
261.444702 -256.49881 0.877200007
261.41449 -256.541321 1.71615005
261.440002 -256.542999 2.03449988
261.423706 -256.43399 2.9763
261.419891 -256.568604 3.0947001
261.441589 -256.55661 3.32089996
261.429138 -256.483459 4.3283
261.599213 -256.567688 4.51100016
261.421143 -256.370209 0.741549969
261.401398 -256.385895 1.09560001
261.408508 -256.275787 1.32260001
261.415192 -256.247589 4.14400005
261.592712 -256.2883 4.27419996
261.593903 -256.201111 4.56379986
261.581696 -256.297607 4.60500002
261.439514 -256.132996 0.198899999
261.439209 -256.053314 3.95350003
261.404602 -255.827698 -0.216499999
261.404785 -255.8461 -0.0700000003
261.480804 -255.978302 4.13609982
261.472595 -255.898407 4.52750015
261.52121 -255.8013 4.70870018
261.497589 -255.632294 4.70060015
261.403992 -255.016998 4.39620018
261.411285 -255.155106 4.58330011
261.537201 -245.687607 13.6416998
261.583099 -245.517807 13.4145002
261.410187 -245.175201 8.56649971
261.58371 -245.106003 9.87469959
261.7117 -259.403687 1.50779998
261.785095 -259.418304 2.93899989
261.682587 -259.332703 1.18529999
261.70517 -259.268097 1.24477506
261.763885 -259.234497 1.67999995
261.749146 -259.25705 2.53104997
261.784851 -259.296356 3.41769981
261.675537 -259.144501 1.07255006
261.642303 -259.197601 1.36329997
261.794647 -259.034241 2.08099985
261.739288 -259.000702 3.1954
261.781708 -259.099701 3.42309999
261.66449 -258.850189 1.54999995
261.797302 -258.839905 1.87399995
261.7854 -258.946899 2.33249998
261.763611 -258.817688 2.99569988
261.728607 -258.887238 3.14053321
261.760498 -258.833649 3.74940014
261.722992 -258.879211 4.01329994
261.77655 -258.745422 0.659950018
261.665955 -258.70224 0.90776664
261.617157 -258.646851 1.31244993
261.681 -258.6922 1.8743
261.744568 -258.718689 2.26285005
261.791901 -258.763 2.43479991
261.731842 -258.730499 2.66210008
261.665192 -258.66275 3.12234998
261.705902 -258.664642 3.33766675
261.720551 -258.743652 3.48040009
261.762299 -258.763611 3.71869993
261.766602 -258.738312 3.98379993
261.768646 -258.4711 0.314249992
261.757294 -258.484619 0.550549984
261.765808 -258.519989 0.65109998
261.673004 -258.537109 0.990199983
261.674713 -258.500488 1.16390002
261.623993 -258.541809 1.27760005
261.610809 -258.533508 1.58580005
261.605286 -258.406311 1.75600004
261.735352 -258.479553 2.04866672
261.70639 -258.523651 2.2107501
261.72171 -258.402496 2.50530005
261.680695 -258.596802 3.07220006
261.63681 -258.553894 3.25880003
261.720306 -258.571014 3.56060004
261.731812 -258.520813 3.79559994
261.72229 -258.4664 3.94009995
261.686462 -258.495209 4.06834984
261.737396 -258.213013 -0.438199997
261.756012 -258.253784 -0.0646499991
261.713989 -258.316803 0.123599999
261.757599 -258.335999 0.304800004
261.729614 -258.36261 0.496499985
261.682373 -258.333099 0.963500023
261.604797 -258.375092 1.05620003
261.714386 -258.360596 1.60450006
261.706207 -258.276306 2.26399994
261.664825 -258.282104 2.71000004
261.669312 -258.205414 2.8592
261.664734 -258.281738 3.05779982
261.653107 -258.236298 3.88485003
261.639801 -258.336212 4.02089977
261.779602 -258.058014 -0.277200013
261.749207 -258.087036 -0.0989999995
261.697998 -258.083557 0.310433328
261.707306 -258.151093 0.6505
261.64975 -258.133301 2.28594995
261.663788 -258.177185 2.53990006
261.653198 -258.047607 2.87520003
261.65741 -258.118591 3.59949994
261.620544 -258.096497 3.65735006
261.632202 -258.08551 3.92569995
261.656799 -258.154205 4.06799984
261.735992 -258.027649 4.22774982
261.669312 -258.019501 4.52689981
261.726593 -257.874908 -0.479250014
261.694885 -257.831909 0.0760999992
261.653107 -257.838013 0.218899995
261.651794 -257.89859 0.524500012
261.681488 -257.889191 0.652999997
261.618286 -257.868011 1.03569996
261.647705 -257.949707 2.02010012
261.632202 -257.813812 2.38170004
261.6716 -257.921906 2.59549999
261.617004 -257.931702 3.65619993
261.623505 -257.982208 3.81559992
261.622894 -257.861786 4.09560013
261.779205 -257.859985 4.3671999
261.661865 -257.727661 -0.269549996
261.693207 -257.703857 -0.105700001
261.610504 -257.750092 0.00410000002
261.63855 -257.702911 0.320439994
261.63739 -257.745697 0.77640003
261.607697 -257.694092 0.873199999
261.648254 -257.677704 1.05480003
261.609497 -257.764893 1.23580003
261.622314 -257.636108 2.11630011
261.607391 -257.786896 2.23370004
261.613495 -257.619507 2.44050002
261.615387 -257.724304 2.76550007
261.633301 -257.60611 3.7256999
261.725342 -257.692932 4.27935028
261.792786 -257.673096 4.47340012
261.612244 -257.585846 0.890450001
261.738495 -257.522888 4.12900019
261.721405 -257.246307 4.19700003
261.743896 -257.227386 4.46950006
261.730591 -257.2034 4.81920004
261.730408 -256.894897 4.64239979
261.671692 -256.735901 4.54949999
261.683014 -256.647186 4.65959978
261.649109 -256.506805 4.61289978
261.620911 -256.266113 4.5163002
261.96701 -259.998413 0.0291000009
261.979401 -259.943054 0.393750012
261.959015 -259.837708 0.628000021
261.972687 -259.903107 1.18920004
261.943909 -259.848755 1.30303335
261.969238 -259.904785 1.65444994
261.941193 -259.83905 2.11975002
261.935791 -259.919403 2.30065012
261.943787 -259.876282 2.89980006
261.934143 -259.948639 3.16540003
261.947388 -259.936584 3.49249983
261.834503 -259.937195 3.68729997
261.99881 -259.910797 3.91339993
261.952789 -259.647705 -0.0439999998
261.954254 -259.687897 0.627449989
261.934509 -259.675751 0.874199986
261.956512 -259.793915 1.14960003
261.936005 -259.732086 1.36220002
261.924683 -259.647034 1.47224998
261.933105 -259.765198 1.96099997
261.960205 -259.762024 2.09319997
261.882294 -259.705414 2.90040016
261.903015 -259.718262 3.22494984
261.927094 -259.653107 3.53130007
261.910889 -259.701904 3.76939988
261.985809 -259.669098 3.90149999
261.868896 -259.614105 4.11280012
261.945435 -259.448975 -0.136099994
261.963684 -259.517609 0.38835001
261.953491 -259.454803 0.501900017
261.911255 -259.455841 0.71222502
261.920685 -259.56311 1.1487
261.90271 -259.571289 1.2256
261.910889 -259.539398 1.79639995
261.889648 -259.494293 1.94933331
261.919586 -259.596893 2.11500001
261.863098 -259.479919 2.48799992
261.895599 -259.574585 3.24539995
261.854401 -259.471008 3.70483327
261.862305 -259.44809 3.82229996
261.825287 -259.599213 4.14839983
261.973785 -259.596802 4.54440022
261.980438 -259.317505 -0.28035
261.963348 -259.303955 0.0976999998
261.840393 -259.21579 0.398699999
261.888641 -259.256897 0.474799991
261.901398 -259.276886 0.965900004
261.901886 -259.389099 1.19599998
261.849701 -259.369598 2.15540004
261.871094 -259.329895 2.31150007
261.866333 -259.269714 2.52130008
261.835846 -259.30246 2.72753334
261.851501 -259.276093 2.95560002
261.818176 -259.303833 3.69589996
261.891296 -259.333313 3.91580009
261.875397 -259.103607 -0.316100001
261.860992 -259.168091 0.104599997
261.85791 -259.116943 0.329166651
261.88681 -259.136169 0.489100009
261.873657 -259.128693 0.754700005
261.859985 -259.132599 1.18610001
261.80719 -259.124756 2.34490013
261.935089 -259.130402 4.17589998
261.894104 -259.19931 4.24300003
261.921509 -258.920288 -0.404399991
261.861328 -258.846893 -0.262266666
261.94931 -258.932312 -0.137500003
261.834564 -258.921936 0.498033345
261.832092 -258.919098 0.890200019
261.815491 -258.854187 1.74360001
261.813904 -258.941559 2.36450005
261.848053 -258.936005 3.90665007
261.848297 -258.738007 0.0722000003
261.808105 -258.692688 0.604499996
261.809814 -258.696686 2.06620002
261.819489 -258.753693 2.30699992
261.820496 -258.623413 2.81080008
261.803589 -258.706696 3.91420007
261.888184 -258.650024 4.34109974
261.933167 -258.647949 4.52985001
261.878296 -258.576294 -0.437599987
261.872192 -258.447296 -0.272399992
261.9552 -258.575012 4.55730009
261.836792 -258.296997 4.06729984
261.819702 -258.253998 4.34089994
261.88031 -258.307404 4.4822998
261.875092 -258.101715 4.34229994
261.856506 -258.160889 4.51350021
261.892487 -258.069702 4.61210012
261.85495 -257.853821 4.51214981
261.8237 -245.424805 13.4443998
261.953796 -245.203003 10.4415998
261.938507 -245.183304 10.9077997
261.806305 -244.934006 6.98050022
262.065887 -259.837189 -0.621800005
262.053833 -259.892792 -0.484366655
262.063507 -259.806213 0.0142000001
262.035706 -259.931885 0.232899994
262.0289 -259.89621 0.742200017
262.045105 -259.770294 -0.198100001
262.122101 -259.632812 4.6782999
262.013611 -259.585388 -0.638499975
262.069794 -259.5065 4.06360006
262.049408 -259.51181 4.26709986
262.005402 -259.380005 4.02489996
262.090393 -259.389709 4.23509979
262.077698 -259.148987 4.56969976
262.002289 -258.725403 4.55319977
262.146912 -245.242096 10.2580004
262.051514 -245.251099 10.9521999
262.599304 -253.555695 0.109399997
262.564209 -253.309906 -0.104099996
262.579498 -253.357498 0.157100007
262.504303 -245.016602 8.27320004
262.405792 -244.994797 6.94540024
262.736908 -254.411896 0.425799996
262.693695 -254.394501 -0.0697000027
262.704803 -254.352493 0.131200001
262.701233 -254.050797 0.0625333339
262.703796 -254.018097 0.420100003
262.674988 -253.957397 -0.0697999969
262.653809 -253.861099 0.283199996
262.649506 -253.717102 0.0703999996
262.715088 -253.530701 0.00190000003
262.623505 -245.410202 11.3552999
262.617401 -245.5905 11.5625
262.649811 -245.247894 13.5661001
262.649414 -245.175201 8.96920013
262.653687 -245.008408 9.04930019
262.615295 -245.016006 9.80480003
262.759003 -244.8116 4.63009977
262.906097 -254.2202 -0.163299993
262.914703 -254.1091 0.0105999997
262.962006 -253.8685 -0.0359000005
262.945801 -253.735703 -0.152500004
262.812988 -253.604797 0.281300008
262.828796 -253.470901 0.00499999989
262.901398 -245.370804 11.7133999
262.945801 -244.896606 5.62669992
262.938904 -244.955902 6.61129999
262.941711 -244.884094 7.23769999
262.931 -244.973404 10.5556002
262.868195 -244.996201 10.9633999
263.180115 -254.641998 -0.261000007
263.034302 -254.339203 -0.224199995
263.119385 -253.968994 -0.361799985
263.137512 -253.436798 -0.382699996
263.097412 -253.416107 -0.154899999
263.087494 -253.276993 -0.217399999
263.177612 -246.040497 1.04410005
263.084686 -244.940308 10.6421003
263.240997 -254.242844 -0.485400021
263.275299 -246.282196 0.203700006
263.287109 -246.158707 0.713
263.381409 -244.808197 7.15829992
263.299103 -244.913895 7.67780018
263.311188 -244.907394 8.21749973
263.216309 -244.905106 9.10529995
263.411285 -246.433701 0.659500003
263.499298 -246.287903 0.197400004
263.415894 -245.358795 11.6393995
263.498596 -245.198502 11.1836996
263.440491 -244.855804 8.02639961
263.486603 -244.898453 9.92070007
263.428986 -244.783997 5.92659998
263.600098 -245.344498 11.4603996
263.784607 -245.030197 12.4582996
263.675201 -244.870804 8.55930042
263.757599 -244.921295 10.0284004
263.887085 -245.180893 13.6610003
263.974091 -244.939102 10.5811996
263.970795 -244.936493 12.4112997
263.808105 -244.692093 6.63040018
264.015594 -249.057495 1.47379994
264.012787 -245.216095 13.5931997
264.047913 -245.199203 11.6005001
264.116608 -244.9655 10.3669004
264.027802 -244.999893 11.4055996
264.002991 -244.953293 11.6255999
264.0979 -244.979004 11.9414997
264.026398 -244.920593 12.0180998
264.032654 -244.90506 12.5262003
264.1745 -244.872192 12.6982002
264.095306 -244.809296 13.0763998
264.181488 -244.685501 5.90180016
264.158813 -244.76416 8.49180031
264.139709 -244.756195 8.75150013
264.152008 -244.652603 8.94019985
264.164703 -244.720001 9.29629993
264.171814 -244.715103 9.53929996
264.047913 -244.699402 11.5256004
264.084503 -244.718704 12.0741997
264.103912 -244.7854 12.4834003
264.16449 -244.439194 8.62959957
264.191193 -244.512405 9.14080048
264.168213 -244.549393 9.68500042
264.0513 -244.598694 11.5841999
264.003113 -244.462296 11.9446001
264.107391 -244.581802 12.2564001
264.346985 -249.404404 2.55209994
264.205505 -249.500305 2.91650009
264.36911 -245.019806 13.4596004
264.296509 -244.845795 12.7840996
264.2742 -244.789703 3.09459996
264.320801 -244.767502 10.4455004
264.253815 -244.582993 2.7651
264.331696 -244.599701 9.23490047
264.247711 -244.365997 8.46450043
264.556274 -249.258942 2.73024988
264.567413 -248.859497 2.27550006
264.463501 -244.863495 13.2374001
264.582092 -244.492706 6.74179983
264.52359 -244.547699 9.6310997
264.623688 -249.050598 2.6723001
264.657501 -248.589905 2.55900002
264.724792 -248 1.04910004
264.644012 -245.1772 13.6084003
264.727295 -244.646393 6.78690004
264.681091 -244.554001 8.96500015
264.902496 -249.133698 2.13439989
264.881104 -248.139801 1.32889998
264.968506 -248.135803 1.40020001
264.8974 -244.785995 10.0367002
264.912903 -244.591507 7.14099979
264.943604 -244.446503 9.18350029
264.89801 -244.511307 9.30379963
264.9328 -244.479706 12.7966995
265.181213 -245.053497 13.7461996
265.003387 -244.934296 12.9668999
265.161407 -244.645706 7.37949991
265.086487 -244.723099 10.8977003
265.045898 -244.794296 13.3851004
265.061005 -244.427307 9.19180012
265.120087 -244.418396 9.89519978
265.223114 -246.826004 1.21229994
265.394592 -244.920197 7.39669991
265.274414 -244.6642 12.3923998
265.401489 -246.907501 0.8028
265.592896 -245.889404 1.58019996
265.564911 -245.013794 13.5588999
265.502594 -245.148407 13.6747999
265.515198 -244.835602 13.3311996
265.623505 -247.121201 1.47660005
265.683594 -244.875305 13.2709999
265.771606 -244.540604 6.7342
265.868164 -244.672745 7.61225033
265.993195 -244.429794 6.67299986
265.90921 -244.587799 11.9119997
266.196503 -244.404999 7.38059998
266.055695 -244.421097 7.80709982
266.159912 -244.475403 8.01869965
266.080292 -244.592896 11.4905005
266.139496 -244.395706 8.13399982
266.2901 -244.465195 6.11399984
266.388092 -244.428604 6.97069979
266.3974 -244.458298 8.04259968
266.307007 -244.431107 8.34200001
266.556 -245.056107 13.7348003
266.414886 -244.598602 10.5193005
266.448608 -244.481705 11.3516998
266.453888 -244.382004 6.50369978
266.609894 -244.455795 9.59430027
266.602692 -244.362198 6.90310001
266.87561 -244.440903 7.89429998
266.903015 -244.405304 10.6660995
266.880707 -244.583603 12.5258999
266.881012 -244.228607 5.88140011
266.971497 -244.255646 6.28874969
266.916504 -244.346802 7.61199999
266.988403 -244.313904 7.88059998
267.092499 -244.731995 13.7335997
267.11441 -244.430298 10.0545998
267.19281 -244.2733 6.54839993
267.01001 -244.3349 9.0951004
267.177704 -244.356506 9.22049999
267.306396 -244.380096 9.46700001
267.35791 -244.331406 11.3725996
267.495392 -244.790695 11.9050999
267.454712 -244.508194 8.13099957
267.458191 -244.428497 8.91390038
267.419312 -244.343903 8.06239986
267.484741 -244.285858 9.08030033
267.542603 -244.278702 9.98309994
267.794403 -244.883606 13.7094002
267.725159 -244.757843 11.7047501
267.665314 -244.455994 1.53569996
267.782288 -244.556503 8.16149998
267.702301 -244.5354 8.33704948
267.770111 -244.252594 10.0207996
267.657196 -244.342102 10.6627998
267.691589 -244.3759 12.9841995
267.799988 -244.185699 8.28590012
267.810089 -244.642197 8.21469975
267.962311 -244.562698 1.80190003
267.929382 -244.466599 8.56614971
267.902496 -244.520538 11.8789663
267.900909 -244.462296 12.6798
267.967194 -244.357407 1.46309996
267.891205 -244.217102 8.37539959
267.931 -244.225006 8.41749954
267.920197 -244.317841 11.9675503
267.866852 -244.371552 12.0809002
267.928589 -244.239899 12.3088999
267.918701 -244.166199 1.38399994
267.964813 -244.083603 1.95229995
267.997803 -244.164795 8.73340034
267.952393 -244.171906 8.95829964
267.988007 -244.048401 9.00899982
267.931885 -244.076797 11.9497004
268.072601 -244.604095 13.6918001
268.002197 -244.428101 1.66509998
268.036652 -244.498901 1.93585002
268.061005 -244.25351 9.91399956
268.028809 -244.250198 12.4541998
268.163788 -244.331802 13.3639002
268.087402 -244.008102 2.03060007
268.133606 -244.093201 6.74599981
268.128998 -244.1259 7.40889978
268.025696 -244.026001 8.49940014
268.023254 -244.140808 9.25829983
268.096497 -244.091309 9.91320038
268.055298 -244.193802 10.5290003
268.161591 -244.146606 12.7853003
268.16629 -243.884705 6.06969976
268.036194 -243.865402 8.38980007
268.047394 -243.980606 8.83300018
268.218201 -244.556213 13.71805
268.37851 -244.333694 13.5851002
268.205811 -244.176193 9.94900036
268.20459 -243.8302 8.60540009
268.4552 -244.582901 13.7636995
268.512573 -244.074203 7.31075001
268.45639 -244.171204 10.0305004
268.534912 -244.166794 10.4884996
268.444092 -244.044006 12.1224003
268.536285 -243.818695 9.54780006
268.664215 -244.458099 13.6918001
268.789703 -244.002701 9.26039982
268.68689 -243.894196 6.55849981
268.716003 -243.951706 12.5382004
268.896088 -244.077896 8.01280022
268.802002 -244.134293 10.0272999
269.15451 -243.979202 7.94869995
269.154785 -243.819397 8.95740032
269.072906 -243.955795 9.79119968
269.003204 -243.957993 11.7259998
269.13031 -243.763199 8.69649982
269.300995 -244.072906 10.7643003
269.300415 -244.038803 12.7023001
269.243408 -244.165802 13.3034
269.261414 -243.991898 7.29969978
269.201996 -243.877899 8.58450031
269.252502 -243.9263 8.76280022
269.307312 -243.853806 9.36410046
269.480103 -244.228897 13.3823004
269.617706 -244.018494 10.2722998
269.679596 -243.842102 7.18200016
269.65741 -243.9617 7.53340006
269.852386 -244.042496 12.5333996
269.910614 -244.054703 13.4174995
269.9664 -243.9319 8.82489967
269.904907 -243.951401 9.95440006
269.894501 -243.994202 11.4716997
269.910706 -243.990707 13.1896
270.074005 -244.0065 12.0143995
270.154205 -243.827606 8.29150009
270.148193 -243.852997 8.43309975
270.1138 -243.994202 10.5827999
270.220001 -243.814407 8.95489979
270.294342 -243.893738 9.85449982
270.314087 -243.956406 11.0908003
270.213196 -243.976105 11.8084002
270.367096 -243.6996 7.79020023
270.567688 -244.053802 12.1039
270.503296 -243.820694 7.44299984
270.501709 -243.882996 8.54500008
270.483887 -243.858795 8.60099983
270.429504 -243.785797 7.73750019
270.479095 -243.769394 8.11159992
270.735596 -244.029007 5.34140015
270.606689 -243.824402 9.20149994
270.784088 -243.849503 10.3058004
270.736511 -243.981506 11.1316004
270.678406 -243.885498 13.4475002
270.6651 -243.780304 8.8732996
270.609406 -243.774994 9.13780022
270.751709 -243.757599 9.73820019
270.945709 -247.084305 1.36099994
270.879303 -246.785294 1.18410003
270.855713 -244.156799 13.8156004
270.882904 -243.860794 9.62530041
270.993713 -243.8629 12.9792995
270.94989 -243.681396 6.13719988
270.843689 -243.737396 7.23920012
270.936798 -243.707108 8.0571003
270.992615 -243.774506 9.29020023
271.099487 -248.720795 2.54329991
271.024597 -244.021103 12.1655998
271.104889 -244.178604 13.8029003
271.1875 -243.853806 12.316
271.019714 -243.900604 12.4216003
271.003906 -243.685104 7.79909992
271.178986 -243.654404 8.0323
271.026794 -243.7948 8.71549988
271.095306 -243.724701 9.93739986
271.252991 -248.413803 2.66540003
271.354889 -248.373505 2.71690011
271.329193 -248.254395 2.92190003
271.212799 -246.876297 5.02570009
271.255493 -246.521805 0.0379000008
271.249603 -244.864304 1.73650002
271.366699 -243.838593 12.2575998
271.261993 -243.807205 13.2323999
271.304993 -243.967896 13.8830996
271.260895 -243.651398 8.09399986
271.346802 -243.756104 9.12129974
271.264709 -243.684296 9.26410007
271.203888 -243.759094 9.67140007
271.469696 -246.577393 0.201100007
271.423309 -245.238907 1.81620002
271.452911 -244.036804 13.7404003
271.428711 -243.638397 8.26860046
271.527588 -243.678207 9.27040005
271.599609 -243.703293 9.69830036
271.622314 -247.621307 4.31599998
271.688202 -245.450394 0.257999986
271.713898 -245.430298 0.51880002
271.752594 -245.555603 0.896200001
271.674988 -245.344299 0.382499993
271.793793 -243.807098 10.2016001
271.709503 -243.895401 12.2777996
271.638306 -243.985199 12.7163
271.777191 -243.825699 13.0710001
271.631592 -243.614502 7.85200024
271.769592 -243.612106 8.8366003
271.78717 -243.75975 11.5271997
271.614685 -243.711395 12.9261999
271.935303 -248.113998 3.94519997
271.874695 -247.950897 3.74320006
271.929993 -247.111404 0.218500003
271.977997 -246.650696 0.442299992
271.924805 -244.090393 13.7065001
271.815308 -243.865204 13.5632
271.852692 -243.602905 8.84370041
271.846191 -243.720352 12.7109003
271.806 -243.518097 7.53849983
271.841309 -243.5159 8.03349972
271.909363 -243.468658 8.27775002
271.880798 -243.577103 9.34119987
271.869202 -243.409698 9.41629982
271.840912 -243.462494 9.74289989
271.889587 -243.529999 9.86929989
271.923401 -243.553894 10.0219002
271.828308 -243.587906 12.8067999
271.928894 -243.4897 13.3758001
271.958313 -243.371704 3.3210001
272.108185 -248.8237 2.04099989
272.13681 -248.685501 1.8283
272.116638 -248.6091 2.09805012
272.168213 -248.515503 3.5775001
272.195801 -248.363205 2.98519993
272.100891 -247.927002 3.2802999
272.064301 -247.960907 3.41950011
272.173492 -246.107803 1.3987
272.078094 -246.171097 3.73230004
272.018005 -244.320297 13.8548002
272.059937 -243.6315 10.2663002
272.019104 -243.644104 10.6541996
272.103699 -243.552994 7.23280001
272.027496 -243.450607 9.5284996
272.203491 -249.016006 2.07369995
272.371002 -248.677704 1.46720004
272.274994 -248.712708 2.07060003
272.283813 -248.468292 1.19760001
272.343872 -248.555405 1.49119997
272.313507 -248.475601 3.15050006
272.313965 -248.354492 3.1644001
272.368408 -248.342606 3.25430012
272.367188 -247.912994 1.45490003
272.232605 -247.616196 2.97490001
272.369202 -246.923203 3.74390006
272.332092 -246.7202 4.12249994
272.313385 -246.6203 4.3119998
272.298492 -245.986603 4.13240004
272.305298 -243.657501 11.0756998
272.396606 -243.614502 13.3104
272.375702 -243.336807 8.75080013
272.425598 -248.897797 1.8427
272.403412 -248.7621 1.98819995
272.494812 -248.695801 2.29225016
272.484985 -248.421707 2.36350012
272.552185 -248.318695 2.5316999
272.551788 -248.132797 1.21759999
272.424408 -247.278397 4.17659998
272.492401 -246.860199 4.45940018
272.437988 -246.022507 4.5092001
272.441498 -245.365204 1.89209998
272.571228 -243.610397 10.3305502
272.444611 -243.403503 9.63239956
272.525085 -243.494705 13.2080002
272.45871 -243.317093 9.45330048
272.758514 -248.259293 3.3763001
272.729095 -248.023804 2.60419989
272.708435 -247.883636 1.30404997
272.626892 -247.779999 1.17659998
272.744812 -247.641495 3.11969995
272.771393 -247.225296 3.89280009
272.706696 -247.192505 3.94560003
272.661896 -247.039902 4.07819986
272.686615 -247.003693 4.32889986
272.69751 -246.816299 4.03679991
272.758698 -246.873795 4.6809001
272.609406 -246.771606 3.61549997
272.730713 -243.877701 14.0588999
272.855255 -248.084351 3.28530002
272.816803 -247.852097 1.34119999
272.872894 -247.6772 3.32940006
272.997009 -247.7742 3.53769994
272.80011 -247.572006 3.2809999
272.856506 -247.323303 4.4531002
272.840515 -246.846298 4.85720015
272.845001 -243.8535 10.908
272.8573 -243.7164 13.6674995
272.952301 -243.695694 13.8093996
272.845612 -243.412796 7.29990005
272.849304 -243.466507 10.1283998
272.836212 -243.485596 10.6132002
272.936005 -243.458496 12.3028002
272.882385 -243.585007 12.6422005
272.993896 -243.373398 8.80270004
272.824707 -243.369095 9.30519962
273.085022 -247.916504 3.51954985
273.027588 -247.607101 3.51950002
273.108887 -247.642899 3.63170004
273.072998 -247.400894 1.02129996
273.038635 -247.496094 3.49849987
273.185211 -247.504105 3.6724
273.023712 -246.083603 3.48300004
273.069794 -245.560303 1.73880005
273.13089 -243.895706 11.1279001
273.123901 -243.785797 7.80740023
273.147614 -243.669098 13.7629004
273.035187 -243.729706 13.9172001
273.069794 -243.506302 10.0523996
273.129211 -243.526794 10.4612503
273.162903 -243.518295 13.2914
273.071991 -243.204498 9.05080032
273.307007 -247.873306 2.36509991
273.335785 -247.679398 2.35109997
273.224915 -247.722504 3.63800001
273.211609 -247.423706 1.09510005
273.326508 -247.582108 1.32729995
273.315186 -247.5952 1.9533
273.214203 -247.516602 3.79530001
273.371307 -245.8228 2.16429996
273.230011 -244.065796 11.0705996
273.312897 -244.028503 13.7831001
273.335693 -243.994095 10.9087
273.398987 -243.933304 14.0061998
273.320801 -243.761398 8.11690044
273.355103 -243.754105 10.9436998
273.314697 -243.779602 13.7929001
273.282898 -243.503906 13.5084
273.222595 -243.350998 7.23740005
273.296295 -243.374695 7.50080013
273.515625 -248.078201 2.0875001
273.510193 -247.897003 2.41009998
273.5242 -247.706497 1.59230006
273.480011 -247.514008 1.1049
273.55899 -247.533493 1.31130004
273.540985 -247.411896 2.05749989
273.547699 -247.289597 3.35479999
273.55069 -247.066498 3.31929994
273.549896 -246.957703 3.35319996
273.594788 -246.746506 2.35409999
273.563293 -243.838287 11.1221504
273.471588 -243.911606 11.2631998
273.491211 -243.730301 10.8011999
273.552368 -243.716827 11.059267
273.672455 -247.84407 1.74366665
273.650879 -247.7565 1.87004995
273.759613 -247.471603 1.17120004
273.790405 -247.473099 2.37859988
273.722107 -247.366394 1.61300004
273.709015 -247.338898 2.80940008
273.779114 -247.127594 1.58780003
273.682312 -247.054901 3.41330004
273.648499 -246.230698 1.10420001
273.703705 -243.8582 11.3165998
273.645813 -243.884293 13.7825003
273.611389 -243.626694 11.191
273.646698 -243.547607 7.91190004
273.6875 -243.540146 8.15674973
273.670807 -243.479294 8.21829987
273.622986 -243.584198 11.2958002
273.643494 -243.593704 13.7514
273.667389 -243.583496 13.8862
273.775085 -243.270798 10.2547998
273.885345 -247.886597 2.72460008
273.841705 -247.624405 2.57620001
273.852386 -247.503693 2.6400001
273.970001 -246.347198 3.50320005
273.945312 -243.928604 13.7221003
273.902588 -243.409302 12.1101999
273.95401 -243.435303 13.5769997
273.969513 -243.300797 7.96729994
273.940704 -243.350494 8.39159966
273.982086 -243.319 9.40320015
274.020996 -248.075699 2.9920001
274.081696 -247.942703 3.12299991
274.143799 -246.963196 2.70070004
274.168396 -246.686707 1.88020003
274.186493 -246.588898 3.42790008
274.058594 -243.938797 13.8439999
274.020203 -243.428406 11.5284004
274.197601 -243.4189 12.0053997
274.078705 -243.522202 13.8185997
274.056885 -243.240707 1.77429998
274.089813 -243.214905 6.65509987
274.085907 -243.302094 9.07870007
274.125702 -243.317398 9.27159977
274.07019 -243.175201 7.14330006
274.371796 -247.339905 3.06620002
274.284302 -247.069504 3.01270008
274.273987 -243.606506 13.7081003
274.36731 -243.618301 13.8813
274.278412 -243.294296 9.52050018
274.346893 -243.393204 9.96380043
274.21759 -243.296005 10.3212004
274.239807 -243.366699 10.9733
274.23941 -243.259598 11.2804003
274.418396 -246.7397 3.3520999
274.404694 -243.703201 13.7522001
274.510406 -243.414398 2.2960999
274.48941 -243.487396 13.7185001
274.575989 -243.260498 8.70119953
274.598907 -243.329895 9.91600037
274.5242 -243.304245 10.1352501
274.550293 -243.238998 10.3969002
274.457489 -243.323593 11.1906004
274.506897 -243.281906 11.5798998
274.560699 -243.353607 12.0929003
274.417786 -243.274597 12.7914
274.453705 -243.327499 13.4680004
274.4133 -243.150101 1.70930004
274.538391 -243.121201 1.93309999
274.465088 -243.175201 7.73729992
274.433105 -243.174698 10.0597
274.437897 -241.158493 13.1070004
274.7677 -243.648804 13.8732004
274.600311 -243.587402 2.45619988
274.754913 -243.420395 13.8593998
274.624939 -243.255493 2.07240009
274.747803 -243.275894 8.69839954
274.617401 -243.268204 10.5960999
274.618286 -243.243195 11.1278
274.690002 -243.307098 11.6020002
274.665894 -243.262207 12.2860003
274.914001 -243.222702 10.4777002
274.80069 -243.319 12.9926996
274.801392 -243.345093 13.7515001
274.914612 -243.137543 8.95070076
274.996094 -243.076508 9.29969978
274.959991 -242.860397 2.46259999
275.179901 -243.108704 7.82630014
275.018585 -243.121002 8.1406002
275.143188 -243.071945 8.28310013
275.048492 -243.133896 8.99059963
275.188904 -243.190796 10.0124998
275.333008 -243.507996 13.8495998
275.208191 -243.121201 8.58059978
275.352295 -243.173203 11.5181999
275.265594 -242.846497 0.712400019
275.311096 -242.820007 1.43009996
275.585999 -243.458603 13.9280996
275.423187 -243.591202 14.0263996
275.5802 -243.281006 9.46479988
275.553894 -243.242599 12.0506001
275.431885 -243.220505 12.4307003
275.43631 -243.235001 12.7042999
275.527496 -243.230194 12.9469995
275.585114 -243.271805 13.2413998
275.553497 -243.253098 13.7042999
275.589111 -243.047302 1.09580004
275.5961 -243.021301 8.49979973
275.434998 -243.084595 8.92949963
275.544098 -243.123703 9.9510994
275.561554 -243.151489 11.7020493
275.520111 -242.957306 1.08340001
275.458801 -242.844604 1.30809999
275.63031 -243.427094 13.8994999
275.726196 -243.533295 14.0614004
275.639404 -243.210907 13.2451
275.788696 -243.018295 7.59740019
275.7276 -243.105103 9.05319977
275.681793 -243.114807 9.86999989
275.724701 -243.044006 10.1184998
275.784912 -243.0298 10.7005997
275.662201 -243.168396 11.9476995
275.724609 -243.0336 12.5172005
275.635254 -243.107697 12.74895
275.751495 -243.040405 12.8206997
275.781708 -242.819504 3.40370011
275.789612 -242.820297 5.6953001
275.685089 -242.888901 8.8906002
275.6987 -242.974701 9.67140007
275.700104 -242.859406 9.87720013
275.685089 -242.883301 12.0978003
275.71051 -242.952103 12.9173508
275.791107 -242.957901 13.3704996
275.69101 -242.762299 8.75710011
275.973694 -243.211395 13.6904001
275.80249 -243.013199 3.28660011
275.855896 -243.007507 8.38389969
275.924408 -243.136703 10.6918001
275.964996 -243.090805 11.1082001
275.854492 -243.080704 13.0199003
275.805511 -242.846802 2.39190006
275.82431 -242.906799 5.35370016
275.914001 -242.948395 7.21350002
275.994598 -242.954407 8.25119972
275.883972 -242.885452 9.96175003
275.801605 -242.998093 12.0142002
275.847412 -242.924393 12.7017002
275.903992 -242.873993 13.3347998
275.920898 -242.988693 13.4914999
275.834167 -242.774246 2.16335011
275.816986 -242.733505 2.3900001
275.886414 -242.7836 9.89169979
275.891113 -242.502106 2.24230003
276.037689 -243.456299 13.9847002
276.165314 -243.447296 14.0437002
276.139343 -243.33844 13.9258995
276.190002 -243.131302 10.3694
276.126709 -243.098404 11.0416002
276.189087 -243.043106 11.2986002
276.192505 -243.1465 13.4046001
276.09259 -242.742599 8.8579998
276.232513 -243.430206 13.9967003
276.273193 -243.053452 10.5242996
276.27301 -243.083099 10.8597002
276.370087 -243.029495 11.0183001
276.23819 -243.143997 13.6386003
276.207611 -242.800995 9.76640034
276.270905 -242.842499 12.3095999
276.203705 -242.941803 13.3254004
276.286713 -242.720306 1.204
276.506714 -243.516205 13.8843994
276.458496 -243.458298 14.0563002
276.428314 -243.059998 11.4533005
276.557495 -243.133301 13.8186502
276.562286 -242.9944 8.19830036
276.585785 -242.964798 10.9555998
276.541687 -242.980499 11.6716003
276.482391 -242.954803 13.0811996
276.402191 -242.669998 0.859300017
276.585388 -242.713593 1.44379997
276.566345 -242.728088 10.0266495
276.594391 -242.707794 12.9815998
276.731995 -243.386002 14.0431995
276.715942 -243.031754 13.4746494
276.694244 -243.100555 13.7203503
276.601715 -243.118195 13.8802004
276.709808 -242.904144 8.16629982
276.768311 -242.881805 8.22039986
276.725891 -242.907593 10.5319996
276.665344 -242.964096 10.7761497
276.674927 -242.93869 11.1346493
276.799988 -242.997894 11.5583
276.749207 -242.941742 13.4701996
276.643097 -242.734802 9.66940022
276.961609 -243.206299 13.9778996
276.803711 -243.009506 7.99499989
276.801086 -243.186401 13.9535999
276.988708 -242.863403 10.2521
276.882202 -242.876999 10.5998001
276.838806 -242.954895 13.4433002
276.941406 -242.623306 1.37249994
276.914215 -242.636093 1.62290001
276.974396 -242.796494 7.44379997
276.937408 -242.717606 9.95390034
276.952698 -242.749802 10.1455002
277.103912 -243.039093 13.8109999
277.135712 -242.824005 8.17640018
277.102112 -242.810104 10.3950005
277.140106 -242.850601 10.9005003
277.020599 -242.851196 11.1978998
277.099091 -242.710602 10.1230001
277.308289 -243.292297 14.0142002
277.287903 -242.816162 8.06099987
277.381195 -242.812698 8.20100021
277.26651 -242.955307 13.4182997
277.3396 -242.742996 7.95590019
277.392395 -242.797699 11.4020996
277.205811 -242.728394 12.6309004
277.588715 -243.0121 13.4069004
277.456665 -243.035751 13.8843994
277.519196 -243.087296 14.1437998
277.569092 -242.842194 11.4101505
277.537689 -242.878296 11.9996004
277.483734 -242.89917 12.4823332
277.518799 -242.860703 12.8934002
277.525696 -242.853394 13.4792995
277.468292 -242.956696 13.8837004
277.449799 -242.730103 7.53240013
277.463104 -242.750198 8.05910015
277.595215 -242.758698 8.36400032
277.587189 -242.786499 9.52070045
277.558502 -242.774704 10.5193996
277.664886 -243.118301 14.1208
277.620605 -242.874298 7.89624977
277.730103 -242.831604 11.0695
277.789703 -242.871307 11.3200998
277.664886 -242.824905 12.8352003
277.611694 -242.852997 13.0347996
277.799286 -242.941498 13.3922005
277.749695 -242.926102 13.7665005
277.643494 -242.7146 7.70739985
277.637512 -242.731094 8.31389999
277.716095 -242.752396 8.48509979
277.789307 -242.727753 8.70400047
277.746704 -242.742905 9.2130003
277.757996 -242.785599 12.2856998
277.867004 -243.242798 14.1311998
277.832214 -243.128906 13.9231997
277.957092 -243.009796 14.0676003
277.829498 -242.890198 8.13249969
277.825287 -242.875 9.85280037
277.875305 -242.826904 10.4743996
277.922089 -242.863693 11.3825998
277.809906 -242.830399 11.9882002
277.904114 -242.941605 12.9595003
277.907043 -242.823303 13.1128998
277.82901 -242.968399 13.3916998
277.884613 -242.961502 13.9292002
277.988007 -242.735107 8.05080032
277.880615 -242.769806 8.6644001
277.919098 -242.763046 11.6689997
277.943298 -242.458206 1.10259998
278.044098 -243.255798 13.8920002
278.160614 -243.230804 14.0412998
278.176941 -243.052856 13.9955006
278.157806 -242.819397 11.3594999
278.101746 -242.886246 13.2509499
278.02179 -242.896698 13.7074003
278.038605 -242.987793 13.9576998
278.086792 -242.679947 8.71914959
278.084015 -242.7043 9.55739975
278.179108 -242.685699 10.1806002
278.082458 -242.658447 10.6761494
278.153503 -242.773407 11.0944996
278.090302 -242.779495 11.5396004
278.198792 -242.736694 12.4077997
278.129303 -242.72879 12.9573002
278.118011 -242.514999 2.2263999
278.324585 -242.830093 13.4415998
278.358307 -242.656494 9.13449955
278.333801 -242.643097 9.70300007
278.259308 -242.627106 10.0964003
278.284302 -242.667496 10.2946501
278.329102 -242.725601 10.5539999
278.276886 -242.686401 10.7816
278.30481 -242.6698 11.3450003
278.25 -242.723907 11.6964998
278.272186 -242.731094 11.8972998
278.272766 -242.737167 12.132
278.343903 -242.755096 13.2349005
278.269836 -242.772003 13.6425495
278.32489 -242.506607 1.68789995
278.353485 -242.566406 2.602
278.374512 -241.132095 13.1175003
278.544586 -243.007202 13.9459
278.427795 -242.839096 10.5192003
278.458405 -242.824707 13.7882996
278.404785 -242.613098 7.36590004
278.542694 -242.698105 7.78950024
278.524689 -242.633392 9.74875069
278.542389 -242.610703 10.2437
278.4776 -242.763199 10.6984997
278.436798 -242.694199 11.1532001
278.425903 -242.768295 12.5747004
278.519012 -242.751801 12.6625004
278.517914 -242.753403 12.8498001
278.544586 -242.712402 13.3570995
278.552307 -242.420807 1.41949999
278.504211 -242.5914 7.78070021
278.593811 -242.598297 9.82789993
278.418701 -241.197296 12.8992004
278.791412 -242.635605 9.56550026
278.7341 -242.657806 10.3577003
278.762604 -242.683304 10.4298
278.718201 -242.688995 11.9823999
278.636414 -242.753006 12.5142002
278.720612 -242.6315 13.1090002
278.784088 -242.791199 13.8143997
278.765503 -242.794907 14.1601
278.634308 -242.587601 7.07019997
278.688812 -242.4944 7.32329988
278.671509 -242.524597 7.93330002
278.60141 -242.548004 8.98670006
278.725708 -242.520294 9.0994997
278.622589 -242.596603 9.34220028
278.799805 -242.515396 9.42570019
278.615204 -242.565308 9.61410046
278.688812 -242.357193 1.82140005
278.801605 -243.128403 14.1651001
278.957611 -242.878998 13.9918003
278.927887 -242.605606 11.2216997
278.822693 -242.689194 11.8361998
278.84729 -242.677307 12.1801004
278.885101 -242.601593 12.9925003
278.916107 -242.655396 13.4042997
278.853088 -242.782501 13.7582998
278.940796 -242.753494 14.0447998
278.901001 -242.514999 6.57350016
278.959595 -242.433502 6.80380011
278.989807 -242.519104 8.98060036
278.901703 -242.534195 9.49790001
278.907288 -242.516907 9.80109978
278.908508 -242.589905 10.5472002
278.83429 -242.576599 10.7038002
278.933594 -242.537201 11.2105999
278.912598 -242.350693 2.03480005
279.078613 -242.974503 14.0587997
279.047943 -242.636597 11.0648499
279.049805 -242.620605 11.4553003
279.038086 -242.645096 11.6891003
279.058594 -242.636841 12.2805996
279.033508 -242.686203 12.7840996
279.075714 -242.666 12.8635998
279.133545 -242.6754 13.4916
279.128967 -242.738098 13.8831005
279.157501 -242.418304 6.66790009
279.170288 -242.429199 7.00250006
279.013214 -242.520996 7.33570004
279.10379 -242.504303 7.70809984
279.062012 -242.497894 8.29069996
279.196106 -242.437698 8.74890041
279.141388 -242.562607 8.8458004
279.166351 -242.533997 9.30410004
279.009705 -242.557007 9.99470043
279.189301 -242.552399 10.4198999
279.066895 -242.592194 12.4553003
279.173706 -242.343796 1.42680001
279.239197 -243.004898 13.9872999
279.30661 -242.839005 13.993
279.368805 -242.899994 14.0761995
279.283813 -242.988602 14.2379999
279.381287 -242.638306 12.6447001
279.306305 -242.624496 12.8898001
279.309204 -242.649307 13.3260002
279.326508 -242.648407 13.5187998
279.343842 -242.677856 13.6439495
279.325409 -242.4664 6.91200018
279.243713 -242.416306 7.12109995
279.336609 -242.474197 7.53809977
279.364807 -242.407394 7.71220016
279.371094 -242.595001 7.92280006
279.308014 -242.508408 9.71269989
279.366699 -242.524506 10.0355997
279.307251 -242.514343 10.5033493
279.209198 -242.572998 10.8140001
279.298798 -242.535553 11.0986004
279.378296 -242.555496 11.2951002
279.393585 -242.542206 11.6653004
279.212494 -242.516907 11.8819504
279.233398 -242.525406 12.1983995
279.339996 -242.298203 2.03530002
279.218506 -242.393799 6.48950005
279.315308 -242.388199 6.60629988
279.439514 -243.037704 14.0688
279.499298 -242.692902 11.0591002
279.480591 -242.659103 12.1021004
279.567993 -242.624893 12.6736002
279.435913 -242.629395 13.3523998
279.480499 -242.690796 13.5043507
279.561188 -242.419296 7.14169979
279.517212 -242.440094 8.30809975
279.596191 -242.409607 8.52680016
279.437195 -242.468796 9.53909969
279.5849 -242.433899 9.69649982
279.53299 -242.434601 10.0851002
279.480804 -242.489899 10.3178997
279.594086 -242.462997 10.4252996
279.528503 -242.565094 10.7199001
279.553406 -242.507996 10.9765997
279.540527 -242.517212 11.1424999
279.556152 -242.463348 11.2667007
279.479401 -242.512238 11.5094004
279.410889 -242.544205 11.7610998
279.516785 -242.493958 12.0725498
279.557068 -242.440292 12.4771996
279.563995 -242.410004 12.6743002
279.554443 -242.494247 13.0882492
279.497345 -242.526093 13.3320503
279.502289 -242.581604 13.4387999
279.558807 -242.576401 13.7018003
279.55069 -242.246902 1.33589995
279.501495 -242.390594 7.61180019
279.49231 -242.391205 8.01340008
279.572998 -242.346695 8.54660034
279.572113 -242.387497 9.80360031
279.566711 -242.367706 12.4828997
279.558197 -242.199402 9.85210037
279.768707 -242.819199 13.9975996
279.786896 -242.943253 14.0608006
279.610504 -242.643494 13.7461004
279.705505 -242.759903 13.9284
279.629395 -242.408707 7.42840004
279.667114 -242.409103 7.77820015
279.781006 -242.418793 7.91050005
279.759308 -242.508499 10.6590996
279.702209 -242.489899 10.8275995
279.71051 -242.515503 11.3449001
279.686493 -242.530197 13.4343996
279.776306 -242.457504 13.625
279.7229 -242.206802 1.57130003
279.616791 -242.279007 1.80579996
279.689911 -242.307495 2.02690005
279.680786 -242.254593 2.8527
279.641907 -242.287506 3.20799994
279.68811 -242.2043 5.96500015
279.644592 -242.229095 6.65850019
279.7677 -242.265305 7.01590014
279.601288 -242.341003 8.73139954
279.635498 -242.304901 9.03709984
279.624908 -242.362305 9.53849983
279.608093 -242.316406 9.76509953
279.728302 -242.263199 12.1268997
279.764709 -242.340805 12.5614004
279.733002 -242.194397 1.36310005
279.66449 -242.123199 2.07999992
279.684387 -242.162094 2.26419997
279.83371 -245.654999 0.273499995
279.900818 -242.698502 13.9228497
279.972595 -242.656204 14.2285004
279.90329 -242.411301 8.07929993
279.8573 -242.473297 10.5412998
279.898743 -242.494598 11.0467501
279.856506 -242.499405 11.4359999
279.950989 -242.333801 8.03050041
279.842407 -242.222504 9.72809982
279.974304 -242.268997 9.81449986
279.926392 -242.294098 12.5096998
279.934296 -242.27536 12.6907997
279.937805 -242.381195 12.8198996
279.982788 -242.380905 13.3880997
279.878815 -242.153397 1.50209999
279.830902 -242.074295 3.02850008
