# .PCD v0.7 - Point Cloud Data file format
VERSION 0.7
FIELDS x y z
SIZE 4 4 4
TYPE F F F
COUNT 1 1 1
WIDTH 131
HEIGHT 1
VIEWPOINT 0 0 0 1 0 0 0
POINTS 131
DATA ascii
80.1804962 0.127399996 0.491299987
80.0094986 0.172199994 0.693599999
80.082901 0.0485000014 0.874499977
80.0930023 0.162100002 1.19889998
81.8991013 0.743099988 0.626999974
88.1654968 7.87729979 1.72210002
88.1107025 8.02589989 1.87230003
88.0422974 8.45909977 1.56429994
88.172699 8.57380009 1.95319998
88.0542984 8.78740025 1.82840002
88.1069946 8.82290077 1.55330002
88.0192032 8.83209991 1.93910003
88.1787033 9.12580013 1.38170004
88.0280991 9.02229977 1.7615
88.098999 9.44190025 1.44640005
88.1023026 9.49565029 1.95860004
88.3107986 7.56850004 0.0538000017
88.3157501 8.08769989 1.71735001
88.268898 8.4399004 0.3653
88.2789993 8.50119972 0.50150001
88.3700027 8.49349976 1.72780001
88.2523956 8.74654961 1.34130001
88.290802 8.89570045 0.224900007
88.2174988 8.99300003 1.61989999
88.2229004 9.22399998 1.06210005
88.2976532 9.25289917 1.28314996
88.3627014 9.44050026 1.21130002
88.2393036 9.61940002 1.05449998
88.3488007 9.76099968 1.90209997
88.3995972 9.95030022 1.7105
88.3961029 9.93529987 1.99409997
88.2797012 10.0993004 0.854799986
88.5057983 9.01379967 1.26189995
88.4003983 9.02320004 1.42279994
88.4309006 9.34010029 1.13110006
88.4970551 9.53014946 0.489350021
88.5432968 9.72019958 2.7184
88.5610962 9.98620033 2.17869997
88.5338974 10.0964003 1.48870003
88.5466003 10.0268002 1.92009997
88.5916977 10.0825996 2.79760003
88.4533997 10.0544004 3.23399997
88.4938965 10.5838003 1.93889999
88.5644531 10.6110001 2.08099985
88.4660034 10.9877005 1.57980001
88.4106979 10.8348999 1.88110006
88.5823975 11.3408003 1.47140002
88.4765015 11.2254 1.60220003
88.7807999 7.88129997 1.43620002
88.7139969 9.05589962 2.89770007
88.7127533 10.0343494 2.53604984
88.6542969 10.2776003 1.78939998
88.7301941 10.3133001 2.29890013
88.7780991 10.4755001 2.1723001
88.6135025 10.5108995 2.55879998
88.7736969 10.5777998 2.70630002
88.8710022 8.77359962 2.09739995
88.9069977 8.82509995 2.33019996
88.9625015 9.44180012 2.53579998
88.8401031 10.4280996 0.938499987
88.8071976 10.5372 1.64600003
88.9982986 10.6590004 2.37120008
89.0086975 7.68330002 1.77110004
89.0403976 8.34819984 2.38470006
89.0628967 8.35540009 2.48239994
89.0878983 8.6196003 2.19950008
89.1296005 8.80020046 1.91359997
89.0529022 8.97290039 2.08929992
89.1986008 8.84539986 3.27530003
89.0738983 9.52700043 2.49620008
89.1424026 9.52110004 3.02570009
89.0818024 10.9211998 2.39709997
89.2734985 8.06519985 2.0395999
89.2553024 8.90750027 3.21760011
89.3300018 8.82110023 3.56450009
89.2347031 9.60550022 2.56459999
89.3444977 9.66329956 3.09380007
89.5485992 6.95970011 2.37030005
89.4191971 8.83850002 3.30990005
89.4451981 9.02530003 3.08369994
89.4378967 9.0770998 3.39700007
89.5193024 9.13710022 3.4374001
89.5854034 9.36620045 3.16650009
89.5867996 9.55510044 3.4835999
89.4403534 9.4822998 3.68449998
89.544899 9.71819973 3.36299992
89.4778976 9.74779987 3.68309999
89.6796036 7.53499985 2.34389997
89.6144028 7.68230009 2.81699991
89.7906036 8.02799988 3.48119998
89.6325989 8.30879974 2.4598
89.7347031 8.22159958 2.90229988
89.6632004 9.17080021 4.03649998
89.634697 9.26799965 3.2737999
89.6816025 9.42399979 3.59319997
89.6771011 9.69859982 3.52950001
89.969101 6.83099985 2.48740005
89.8939972 6.9776001 2.62949991
89.8643036 8.38140011 3.66899991
89.8796997 8.41989994 2.96140003
89.9203033 8.45259953 3.24620008
89.8768463 9.50600052 3.51250005
89.8707962 9.97480011 3.07949996
89.9199982 10.349 2.96620011
89.9832993 10.3633003 3.20190001
90.0820999 7.36219978 3.22149992
90.3630981 6.48559999 2.61369991
90.2707977 6.72730017 2.98839998
90.2736969 7.01569986 3.02719998
90.3572998 7.71610022 3.72009993
90.324501 8.4921999 4.49380016
90.4219971 7.57060003 3.7263999
90.4457016 8.18299961 3.57859993
90.5689011 8.18200016 3.94630003
90.4341965 8.13249969 4.54209995
90.5706024 8.38980007 3.93160009
90.417099 8.70709991 3.85669994
90.5409012 10.9160995 3.52830005
90.6837006 8.38529968 3.56049991
90.7304993 8.6864996 4.05959988
90.6798019 10.6387997 3.43370008
90.9299011 6.75710011 2.84660006
90.9244003 6.7118001 3.41350007
90.927002 6.86439991 3.17009997
90.8003998 10.5719004 3.71449995
91.1473999 6.78989983 3.76060009
91.0177994 7.02440023 2.09610009
91.229599 6.9368 2.04040003
91.4736023 7.78859997 2.3908999
91.5217972 7.88409996 2.30430007
91.797699 7.46299982 3.94659996
