# .PCD v0.7 - Point Cloud Data file format
VERSION 0.7
FIELDS x y z
SIZE 4 4 4
TYPE F F F
COUNT 1 1 1
WIDTH 1585
HEIGHT 1
VIEWPOINT 0 0 0 1 0 0 0
POINTS 1585
DATA ascii
49.6099014 -76.0823975 0.364499986
51.1127014 -71.050499 0.226799995
52.6110001 -70.3824005 0.122599997
52.9866982 -67.1255035 0.0802000016
52.9603004 -60.9132996 -0.1109
53.0775986 -66.0128021 0.0938000008
53.2327003 -70.3564987 0.1479
53.2806015 -65.6144028 -0.00159999996
53.5245018 -74.7354965 0.286300004
53.5606995 -73.1537018 0.181500003
53.4476013 -72.6980972 0.200100005
53.4496002 -71.2757034 0.157900006
53.4309006 -64.8808975 0.0790000036
53.5323982 -60.6721992 -0.0803000033
53.7560997 -77.8775024 0.3565
53.6235008 -72.4152985 0.206400007
53.6320992 -66.7060013 0.0577000007
53.7813988 -65.7064972 0.0872000009
53.7713013 -60.4828987 -0.159700006
53.8156013 -77.3318024 0.257499993
54.0760002 -73.7882996 0.233400002
54.1478996 -68.0906982 0.0566000007
54.3632011 -78.4057999 0.32949999
54.3003006 -77.9654007 0.334699988
54.2285995 -71.0503006 0.0436999984
54.2447014 -69.3153 0.114399999
54.2895012 -67.5772018 0.0658000037
54.3074989 -60.4710999 -0.213499993
54.5714989 -70.7929001 0.175400004
54.4342995 -70.4692993 0.056400001
54.7582016 -72.172699 0.138899997
54.6323013 -68.1355972 0.0291000009
54.7710991 -65.7434998 -0.00170000002
54.709301 -61.2472 -0.0509000011
54.7010002 -61.0730019 -0.137799993
54.8384018 -77.8710022 0.360700011
54.8750992 -73.5046997 0.179800004
54.8488007 -73.0242004 0.121299997
54.9012985 -72.7353973 0.222399995
54.9417 -70.9941025 0.157399997
54.9790001 -65.4904022 0.00970000029
54.8526001 -62.8867989 -0.0434000008
55.0652008 -79.8524017 0.424299985
55.1561012 -78.9526978 0.34740001
55.0294991 -77.5170975 0.263599992
55.0674019 -68.3988037 -0.00139999995
55.1038017 -65.5037994 -0.0100999996
55.1627998 -63.0395012 -0.0916000009
55.2813988 -76.5495987 0.277099997
55.2924995 -70.7713013 0.0623000003
55.2630005 -68.6789551 0.0771000013
55.3518982 -62.6274986 -0.135000005
55.375 -61.2496986 -0.149800003
55.4574013 -79.0299988 0.326999992
55.5219994 -78.6921997 0.385500014
55.5728989 -73.0410004 0.166700006
55.4585991 -69.969902 -0.0104
55.5527 -69.3162994 0.153600007
55.4371986 -64.6784973 -0.0671999976
55.4165001 -63.3638 -0.070100002
55.5688019 -62.8876991 -0.108199999
55.7953987 -79.9729004 0.32159999
55.7794991 -77.4953995 0.305799991
55.6562004 -77.3972015 0.292100012
55.7825012 -73.7301025 0.203199998
55.7448997 -69.9253998 0.1391
55.7004013 -66.7869034 -0.116499998
55.702301 -66.2746964 -0.0419999994
55.7798996 -63.7728004 -0.0566999987
55.8876991 -74.8592987 0.269600004
55.9108009 -74.7032013 0.200000003
55.8008995 -73.0883026 0.153200001
55.9903984 -72.8538971 0.191
55.9338989 -72.3686981 0.165099993
55.9234009 -69.6455994 0.0353000015
55.8251991 -67.4609985 -0.130400002
55.8809013 -60.9412994 -0.116599999
56.0121002 -78.530899 0.251199991
56.1713982 -77.4877014 0.295100003
56.0607986 -75.2220001 0.222000003
56.0918999 -72.910202 0.169200003
56.0206985 -72.7249985 0.0790999979
56.0705986 -72.0093002 0.123099998
56.1697006 -67.6763 0.0252
56.0593987 -66.4604034 -0.102399997
56.1806984 -66.0824966 -0.00310000009
56.0345001 -65.1752014 -0.0163000003
56.0614014 -61.7515984 -0.126399994
56.1613998 -60.5597 -0.224999994
56.2151985 -79.5246964 0.36500001
56.2737999 -78.4645004 0.294699997
56.2429008 -77.0748978 0.251899987
56.2420006 -73.2016983 0.138600007
56.3608017 -71.9744034 0.135299996
56.3677521 -71.2456055 0.141449988
56.2605019 -71.1978989 0.181600004
56.2767982 -69.5274963 0.0966000035
56.2630997 -68.4477997 0.069600001
56.2686996 -66.1737976 -0.0930000022
56.2857018 -64.3841019 -0.100199997
56.3109016 -64.0636978 -0.126300007
56.2238007 -60.0229988 -0.133200005
56.5912018 -77.4123001 0.246700004
56.5764999 -74.1620026 0.157499999
56.4169006 -73.1629028 0.175600007
56.4119987 -72.4348984 0.0973000005
56.4351006 -69.2790985 0.0474000014
56.5294991 -67.7153015 2.79200006
56.5385017 -67.6420975 2.98160005
56.4800987 -67.5902023 2.91090012
56.5761986 -67.4713974 3.23639989
56.4704018 -64.4522018 -0.0964000002
56.5544357 -63.0765991 2.59023333
56.4989319 -63.0447006 2.65263319
56.5175514 -62.8731995 2.52425003
56.498848 -62.859848 2.7574501
56.4538002 -62.8101006 2.83439994
56.6594009 -79.0307007 0.324299991
56.7439995 -78.8472977 0.323799998
56.6823006 -75.1765976 0.235799998
56.7172012 -73.7966003 0.193800002
56.6007004 -73.1374969 0.120099999
56.6713982 -70.0335999 0.0683000013
56.6996002 -68.3201981 0.0118000004
56.7925491 -68.2363434 2.75099993
56.7273026 -68.3059998 2.91654992
56.757 -67.8152008 2.53449988
56.6857605 -67.6558228 2.72510004
56.7168503 -67.6711502 2.86950016
56.7098999 -67.639801 3.78040004
56.7266006 -67.5644989 2.83640003
56.6561012 -67.5847015 3.1092
56.7336006 -67.2575989 0.0240000002
56.7332001 -66.3917999 -0.0273000002
56.6363487 -63.0455475 2.67035007
56.6785011 -62.9560013 2.69420004
56.8055992 -77.8587036 0.280299991
56.8771019 -73.8935013 0.193299994
56.8740005 -71.9349976 0.0974999964
56.9213982 -70.8770981 0.0666000023
56.8848991 -70.5345001 0.0403999984
56.8883018 -70.0932999 0.113499999
56.8655472 -68.3034515 2.84590006
56.8842659 -68.0848846 2.7211833
56.8320007 -68.1773987 2.8598001
56.9570007 -67.9440994 2.79480004
56.8456001 -67.9497986 2.82739997
56.9202995 -67.4784012 2.78609991
56.8100014 -67.5886993 3.05949998
56.9625015 -67.2585983 2.67490005
56.8790016 -67.0653992 3.68429995
56.9221001 -66.6059036 3.26559997
56.8572998 -66.4237976 3.34050012
56.9668999 -66.3360977 3.48639989
56.9365501 -63.8581009 2.73049998
56.9538994 -63.8084984 2.89229989
56.8844986 -63.9044991 3.58139992
56.8813019 -63.8608017 3.66770005
56.9429588 -63.6832161 2.69311428
56.9908981 -63.7729988 2.9612
56.9326019 -63.7234001 3.52804995
56.9370689 -63.6758995 3.69303322
56.8532982 -63.4417 2.49880004
56.9696007 -63.5483017 2.72895002
56.8763008 -63.521801 3.59089994
56.860199 -63.4233017 3.61660004
56.9481735 -63.3093491 2.70917511
56.9221649 -63.3264313 3.69980001
56.9266014 -63.0205002 2.76390004
56.9076996 -63.1111526 2.87065005
56.8894272 -63.1141014 3.08470011
56.8594017 -63.040699 3.22119999
56.8795013 -63.0318985 3.72744989
56.8664017 -62.8753014 2.4842999
56.9003487 -62.9388847 2.69583344
56.9170341 -62.8535652 2.86170006
56.8806 -62.8805008 3.17135
56.9080505 -62.9005508 3.2579999
56.9574013 -62.8494987 3.7651999
56.8787003 -62.797699 -0.0954999998
56.9499969 -62.7333488 2.72287512
56.9363213 -62.6944199 2.84721994
56.8672981 -62.7020683 3.10540009
56.9033508 -62.7164993 3.26355004
56.9054985 -62.7085991 3.66050005
56.9450989 -62.5288506 2.66930008
56.8973007 -62.5784988 3.10520005
56.8921013 -62.5014 3.6559
56.9115982 -62.2703018 2.56730008
56.9620018 -62.3207016 2.76183343
56.8916016 -62.3354988 3.6250999
56.966465 -62.1188354 2.68099999
56.9598999 -62.0303993 2.92919993
56.9487991 -62.0444984 3.07089996
56.8816986 -62.0713005 3.24555016
56.8931007 -62.0895996 3.5855999
56.9049988 -62.1716652 3.71429992
56.9822998 -61.9154015 2.9993
56.9915009 -60.2649002 -0.200900003
57.1104012 -79.7011032 0.312999994
57.0616989 -79.1561966 0.317400008
57.1106987 -77.6296997 0.284999996
57.0265999 -75.6514969 0.2685
57.0565987 -73.0440979 0.151500002
57.0121002 -71.6119003 0.133499995
57.0555 -68.248497 2.852
57.0954018 -68.2381973 3.69219995
57.096199 -68.1064453 2.87370014
57.1969986 -67.6224976 2.71029997
57.1053009 -67.5544968 2.63540006
57.1664009 -66.9291 -0.0197000001
57.0784988 -66.604599 -0.0100999996
57.0647011 -66.6070023 3.25
57.1324005 -66.5917969 3.30369997
57.1111984 -65.9057007 -0.0372000001
57.1758995 -65.9089966 3.6085
57.0115013 -65.5572968 -0.0399999991
57.1441002 -64.5195999 -0.0753000006
57.1361008 -63.8398018 2.85450006
57.0452995 -63.733799 2.68770003
57.1576004 -63.4959984 2.796
57.0597 -63.3504982 -0.117200002
57.0555992 -62.8404007 2.70359993
57.1021004 -62.8176003 2.81949997
57.0387001 -62.6172981 -0.169499993
57.0017014 -62.3167496 2.69544983
57.0284004 -62.0231018 3.05550003
57.1892014 -62.1777992 3.3598001
57.0737 -62.0252991 3.47860003
57.3546982 -79.3280029 0.319999993
57.2312012 -77.0062027 0.308899999
57.2789001 -72.8981018 0.145699993
57.3067017 -72.2711029 0.126499996
57.3849983 -68.5382996 3.74740005
57.2280006 -68.3003998 2.87759995
57.3197021 -68.0822983 2.83544993
57.2639999 -67.8255005 2.73210001
57.2983017 -67.8194504 2.82854986
57.3116989 -67.6820984 -0.00680000009
57.2466011 -67.6951981 2.7901001
57.3744011 -67.5487976 2.71149993
57.2193985 -67.3034973 2.50510001
57.3833008 -67.0484009 3.25279999
57.3288002 -66.271698 3.26149988
57.2997017 -66.1631012 3.58319998
57.2837982 -66.0891037 3.61420012
57.2885971 -65.7254486 3.72924995
57.3730011 -65.4441986 -0.0138999997
57.3675003 -65.5783005 3.75999999
57.2619019 -65.5402985 3.87949991
57.3270988 -63.7305984 -0.0764999986
57.2484322 -62.8875313 2.76200008
57.2751007 -62.2524986 2.77710009
57.3022003 -62.2057991 3.1802001
57.3837013 -60.6208992 -0.188999996
57.4754982 -79.4047012 0.248799995
57.4510994 -78.6505966 0.332599998
57.4584007 -78.4669037 0.293900013
57.5331993 -77.9279022 0.263399988
57.4320984 -76.4190979 0.253100008
57.4659996 -74.5529022 0.1954
57.5405006 -73.7472 0.143800005
57.5022011 -71.435997 0.0793000013
57.550499 -70.1221008 0.0952999964
57.5617981 -69.2950974 0.0187999997
57.5113983 -68.8359985 0.0445999987
57.4931984 -68.9702988 3.85310006
57.5513992 -68.248497 2.74780011
57.5676994 -68.1100006 -0.0816000029
57.4510002 -67.6103973 2.75950003
57.5249481 -67.6833954 2.82824993
57.4980011 -67.5775986 0.0296
57.5423012 -67.461998 2.48639989
57.4735336 -67.4701004 2.6977334
57.4389 -67.3862 2.53250003
57.4138985 -66.9718018 3.33789992
57.4628983 -66.677597 3.37179995
57.448101 -66.2320023 3.66400003
57.5611 -66.0101013 3.81200004
57.4860992 -65.7336731 3.69780016
57.5786018 -64.2813034 -0.0834999979
57.5357018 -62.9422989 2.76430011
57.5048981 -62.4968987 2.73426676
57.5955009 -62.5475006 3.08990002
57.5427017 -62.4257011 3.27150011
57.463501 -62.3769989 2.80909991
57.4580002 -62.2826004 3.35560012
57.5245018 -61.786499 -0.135299996
57.5430984 -61.1048012 -0.153600007
57.7554016 -78.4321976 0.292199999
57.7333984 -78.2212982 0.3204
57.7343979 -77.2687531 0.284150004
57.7494011 -76.8767471 0.268649995
57.6753006 -76.036499 0.227149993
57.6817017 -75.8749008 0.228699997
57.6700516 -74.930748 0.136700004
57.6945992 -74.3627014 0.165900007
57.7672005 -73.578598 0.153300002
57.7173004 -72.6267014 0.142499998
57.6875 -71.1872025 0.0326999985
57.7345009 -70.1339035 -0.0317000002
57.7225494 -68.0676498 2.7267499
57.7858009 -67.9694977 2.68510008
57.7585983 -67.7095032 2.81529999
57.6707993 -67.4586029 2.69309998
57.6930008 -67.5951996 2.83870006
57.6745987 -67.2437973 2.50640011
57.7912521 -67.3413544 2.70959997
57.6528015 -67.1745987 0.0228000004
57.6012001 -67.014801 2.37129998
57.6698532 -67.0074997 2.58339977
57.7944984 -67.0421982 3.32660007
57.6897011 -66.9517975 2.38599992
57.708149 -66.9087067 2.56430006
57.6566505 -66.9206543 3.34044981
57.7947006 -66.754303 -0.0241999999
57.7795982 -66.7062988 3.37129998
57.6701012 -66.7919998 3.4145
57.7975006 -66.4628983 3.23959994
57.6194992 -66.5108032 4.54759979
57.7262001 -66.5651016 4.65549994
57.6824989 -66.2615967 0.00680000009
57.6511002 -66.1062012 3.70370007
57.6086502 -65.875351 3.72300005
57.6773987 -65.7485962 3.84610009
57.7960014 -65.3753967 3.5165
57.7641983 -63.0620003 2.73049998
57.7226982 -63.1827011 2.89890003
57.7374001 -63.1030998 3.0079
57.648201 -62.8608017 2.7341001
57.7998009 -62.6889992 2.98740005
57.7886009 -61.8110008 -0.167600006
57.6595993 -60.4640999 -0.210600004
57.9796982 -79.7533035 0.361600012
57.8919983 -78.2876968 0.254000008
57.9407005 -78.1386032 0.315200001
57.8403015 -77.1576004 0.258399993
57.8404999 -76.9549026 0.242200002
57.9209518 -76.4530029 0.245000005
57.9497986 -76.0953979 0.272799999
57.9211998 -75.3074036 0.194100007
57.9880981 -75.1348038 0.2095
57.8619003 -74.4199982 0.185100004
57.9594002 -74.1463013 0.1743
57.9499016 -72.5496979 0.112000003
57.9776001 -72.2242966 0.108800001
57.8311996 -72.0192032 0.145999998
57.9637985 -71.6463013 0.119499996
57.9991989 -70.8945999 0.0445999987
57.8124008 -68.6316986 0.0110999998
57.9487991 -68.049202 2.67269993
57.8700981 -67.9660339 2.71350002
57.8317986 -67.6415024 2.75519991
57.8162994 -67.6511993 2.84039998
57.8648987 -67.4770508 2.51419997
57.9348984 -67.492897 3.33179998
57.8773842 -67.3336487 2.55935001
57.9104996 -67.2934494 2.64015007
57.968399 -67.3215027 3.29809999
57.8525009 -67.0739212 2.67501998
57.9430008 -67.0037003 2.90400004
57.8931656 -67.0947342 3.26096678
57.8829994 -66.9131317 2.67299986
57.9846992 -66.9054031 2.83319998
57.8627014 -66.9213028 3.40890002
57.9034996 -66.6172028 2.38409996
57.8744278 -66.6974792 2.51507497
57.9446335 -66.6925354 2.65073347
57.8654327 -66.6462326 3.35286665
57.9427986 -66.4325027 2.33859992
57.9231987 -66.5360641 2.46539998
57.8990479 -66.5346527 3.33899999
57.8717003 -66.4078979 3.45950007
57.9575005 -65.8280029 3.04789996
57.9076004 -65.8108978 3.61199999
57.9276009 -65.8319016 3.93510008
57.8022995 -65.8202972 4.00019979
57.9421463 -65.6922455 -0.103
57.9446983 -65.6680984 3.18169999
57.8163986 -65.7293015 3.59509993
57.8387985 -65.7360535 3.71164989
57.993 -65.5675964 3.26780009
57.9622002 -65.3519974 -0.0758000016
57.972599 -65.323349 3.14409995
57.9176598 -65.3395157 3.29144001
57.9519005 -65.0588989 -0.104000002
57.9351006 -64.0245972 -0.109700002
57.8218002 -63.0503998 2.98049998
57.8961678 -62.9119987 2.68959999
57.9106979 -62.91745 2.85860014
57.8196983 -62.6565018 2.77780008
57.9080009 -62.6727982 2.90890002
57.9956017 -60.842701 -0.166999996
57.8568001 -60.1113014 -0.239600003
58.0668983 -79.2157974 0.293000013
58.094101 -79.0363998 0.30430001
58.1069984 -78.9384003 0.370799989
58.0000992 -78.7682037 0.339700013
58.1445999 -78.5002441 0.262499988
58.0200005 -77.4308014 0.248799995
58.1253014 -76.0695038 0.220200002
58.1790009 -75.8720016 0.220200002
58.0944519 -74.7284012 0.158500001
58.1315002 -73.0568008 0.1162
58.0239983 -70.4265976 0.0340000018
58.0955009 -70.0672989 0.023
58.1691017 -69.8319016 0.0104999999
58.1237984 -69.7437973 0.0152000003
58.1693993 -69.3491974 0.0229000002
58.0950012 -68.6817932 2.69019985
58.1884003 -68.625 3.97749996
58.1649017 -68.5660019 0.00230000005
58.1020508 -68.5259476 2.67919993
58.0461998 -68.4157028 3.90190005
58.1438522 -68.2971039 2.69330001
58.1721497 -67.4351959 2.71659994
58.0824013 -67.4227982 3.1013
58.0083008 -67.4414978 3.46029997
58.0425987 -67.5672989 3.77789998
58.0812988 -67.2814331 2.68949986
58.1139984 -67.3358994 2.92630005
58.1585007 -67.2343979 3.44079995
58.0549011 -67.103653 2.69860005
58.0276985 -67.0764999 3.37249994
58.0866013 -66.8860016 2.70889997
58.0651474 -66.9633484 3.47994995
58.0074997 -66.783699 2.58529997
58.096035 -66.6191635 2.6620667
58.0443001 -66.569603 -0.0626000017
58.0738678 -66.4933014 2.52559996
58.1000671 -66.5045013 2.67136669
58.1498985 -66.4877014 2.82019997
58.0147018 -66.256897 2.32809997
58.0396004 -66.2900009 2.54830003
58.1134796 -66.2904434 2.67182016
58.0426025 -66.3713531 3.30420017
58.0886002 -66.0962982 2.54870009
58.123333 -66.1240997 2.65846658
58.0982513 -66.0581055 2.8434
58.1722984 -66.0447998 3.11059999
58.0536995 -65.9325027 -0.0894000009
58.0802994 -65.9468002 2.4152
58.0651016 -65.8424988 3.63140011
58.0649986 -65.8442993 4.11990023
58.0783348 -65.7143707 2.94173336
58.1819992 -65.7198029 3.53800011
58.0959015 -65.7284012 3.92370009
58.0251503 -65.5460052 3.07494998
58.0860176 -65.4579697 3.29944992
58.1329994 -65.5046539 3.51119995
58.0295029 -65.3466034 3.51349998
58.144001 -65.3711014 4.23250008
58.0910988 -64.4216003 -0.060800001
58.0881004 -63.5583 -0.134399995
58.0898514 -62.8829002 2.72839999
58.0546341 -62.9376335 2.83413339
58.1679001 -62.7981987 2.76340008
58.0428009 -61.5889015 -0.152199998
58.362999 -78.6780014 0.273499995
58.2406006 -76.9632034 0.237399995
58.2975006 -76.7586975 0.227200001
58.2256012 -76.1246033 0.206799999
58.2664986 -75.8134995 0.201399997
58.2247009 -75.0248032 0.251100004
58.33255 -74.8567963 0.149049997
58.2574005 -74.0195007 0.114100002
58.2130013 -73.938797 0.163699999
58.2783012 -73.7041016 0.142100006
58.3648987 -73.5987015 0.129700005
58.3041992 -73.1272964 0.114100002
58.2815018 -72.9187012 0.131400004
58.3928986 -72.7658997 0.119000003
58.2463989 -72.4621964 0.118799999
58.2501984 -72.0912018 0.0625
58.2736015 -71.8153 0.115099996
58.3223495 -70.6653976 0.069600001
58.2042999 -70.0674973 0.0864000022
58.3655014 -69.4785004 4.12750006
58.2625999 -68.2219009 2.55220008
58.3520508 -68.2236023 3.87100005
58.2902985 -68.135849 2.61815
58.3754005 -68.0531998 3.82270002
58.3652992 -68.0427017 4.08179998
58.3241005 -67.8933029 2.55096674
58.3292007 -67.854248 2.73005009
58.3218994 -67.718399 2.55800009
58.3925018 -67.652298 2.6098001
58.2402992 -67.677597 2.80929995
58.3791008 -67.7061005 3.84249997
58.3083992 -67.4904022 2.70409989
58.2868996 -67.3026505 2.77530003
58.3774986 -67.3933029 2.82279992
58.2832985 -67.2382965 3.06019998
58.2607307 -67.137764 2.74433327
58.3772011 -66.903801 -0.0307999998
58.2024002 -66.8725967 2.66339993
58.3507004 -66.4488983 3.12179995
58.3973999 -66.3402023 3.12459993
58.2723503 -66.2987518 3.22305012
58.2919006 -66.1806488 2.94344997
58.2389984 -65.9700012 -0.0557000004
58.2447014 -65.8038025 2.97009993
58.3264999 -65.8503036 3.51729989
58.2086029 -65.808403 3.69910002
58.3646011 -65.9013977 3.85879993
58.2898788 -65.6796188 2.90336013
58.2632484 -65.6370544 3.47090006
58.3069763 -65.5516281 2.87234998
58.3788986 -65.5301971 3.13409996
58.2540512 -65.4673996 3.51725006
58.3087006 -65.4656982 4.02759981
58.3019981 -65.2332993 -0.0379999988
58.2378998 -65.3893967 3.21790004
58.2630997 -65.384697 4.13990021
58.256649 -65.3833008 4.22869968
58.2356987 -64.351799 -0.134800002
58.3648682 -62.8629341 2.73196673
58.3835983 -62.9031982 2.84750009
58.2526016 -62.7406998 2.8657999
58.2827988 -60.4387016 -0.150399998
58.4043007 -79.1513977 0.294
58.4595985 -77.2798004 0.278100014
58.5741005 -77.0779037 0.243599996
58.5577011 -76.0248032 0.162400007
58.5615997 -76.1860962 0.208399996
58.5764008 -75.933403 0.197500005
58.5231018 -73.9235992 0.162499994
58.5547981 -73.6713028 0.153999999
58.4213982 -72.4233017 0.112400003
58.5028496 -72.3096008 0.0948999971
58.5735016 -72.0193024 0.0790000036
58.5472984 -71.8776016 0.114399999
58.5788002 -70.9035034 0.1039
58.4533005 -70.5502014 0.0392999984
58.5181999 -69.0868988 -0.0147000002
58.5449486 -68.6895447 2.59779978
58.5326004 -68.4705963 2.53884983
58.5764008 -68.5541 2.6020999
58.5858994 -68.5217972 2.87549996
58.4973984 -68.3741989 3.8987
58.4626007 -68.1162033 2.8671
58.5307999 -67.8625031 2.31200004
58.4389496 -67.8285522 2.52244997
58.4771004 -67.9269028 2.75399995
58.4426994 -67.8807526 3.9394002
58.4424019 -67.668602 -0.119800001
58.4881973 -67.7154007 2.70149994
58.514801 -67.7642975 2.81690001
58.4472008 -67.7539978 3.95589995
58.5063019 -67.6187973 4.03030014
58.4309006 -67.2515564 2.77024984
58.5566483 -67.2938004 2.85459995
58.5304985 -67.0935669 2.63666677
58.4752007 -67.1763992 2.97880006
58.4295006 -67.1286011 3.89389992
58.4863014 -66.6436005 -0.0337999985
58.5186996 -66.6179962 3.3506999
58.5654984 -66.5698013 2.48950005
58.5400009 -66.5828018 2.76069999
58.4547005 -66.4529037 3.17779994
58.5904999 -66.4838028 3.32439995
58.4536514 -66.5903473 3.4621501
58.4587021 -66.2949066 2.94759989
58.482399 -66.3529968 3.23670006
58.4177475 -66.0563965 3.75869989
58.4007988 -66.0751038 3.83410001
58.4831505 -65.8972015 3.5711
58.5946007 -65.8823013 3.62899995
58.4173012 -65.8389969 3.83400011
58.5181999 -65.6499481 -0.112149999
58.550499 -65.7274323 2.84293318
58.5013351 -65.7258377 3.45336676
58.4525986 -65.7097473 3.7107501
58.4211998 -65.5065994 -0.0876000002
58.5970001 -65.5839996 2.72919989
58.5359993 -65.5011978 2.9934001
58.5265999 -65.5530472 3.01844978
58.4939499 -65.5195999 3.26384997
58.4241982 -65.433403 4.14720011
58.4812012 -65.350502 3.83380008
58.5011978 -65.1071014 4.35365009
58.5490494 -64.909256 4.35974979
58.5545998 -64.6505966 -0.121799998
58.4910011 -62.9457016 2.35159993
58.4896355 -62.8420677 2.56163335
58.4477997 -62.8749237 2.64697504
58.550724 -62.3276749 -0.106875002
58.5769501 -62.1876488 -0.123750001
58.5363007 -61.8148994 -0.135100007
58.4830017 -61.2374992 -0.159099996
58.4842987 -61.1501007 -0.2007
58.4441986 -61.1801987 -0.127100006
58.5716515 -60.5326004 -0.169599995
58.5425987 -60.2961006 -0.182400003
58.6901016 -79.1766968 0.256900012
58.645401 -78.6727982 0.300300002
58.7358017 -77.754303 0.253600001
58.7541008 -77.5254974 0.237599999
58.6604996 -77.0298996 0.187000006
58.7762985 -77.1752014 0.2403
58.7877502 -76.871994 0.181199998
58.7366486 -76.433197 0.214699998
58.6262016 -76.3724976 0.189999998
58.7401009 -76.0678024 0.194900006
58.6683998 -75.4568024 0.234799996
58.7038994 -75.1922989 0.177699998
58.7839012 -75.1343002 0.204600006
58.6353989 -74.9152985 0.148100004
58.7672997 -74.5754013 0.181099996
58.7738991 -73.6875 0.156299993
58.7745018 -73.4773026 0.109499998
58.6933517 -73.0329514 0.115350001
58.6334 -72.8518982 0.0974000022
58.7364006 -72.7043991 0.0810000002
58.6875534 -72.3221436 0.0814500004
58.7234001 -72.0723648 0.0591333322
58.7919006 -71.8475037 0.0419000015
58.7952995 -71.7300034 0.0370999984
58.7848015 -71.4265976 0.0196000002
58.77005 -71.2528992 0.0614
58.7872009 -71.0884018 0.0384000018
58.7893982 -70.8003998 0.0744000003
58.7507019 -70.1109009 2.54920006
58.794899 -69.8113022 -0.00400000019
58.7363014 -69.8630981 0.0835999995
58.7641983 -69.553299 0.0104
58.7170982 -69.030899 0.0412999988
58.6949997 -68.5150452 2.57354999
58.6464005 -68.5616989 2.6861999
58.7943001 -68.2723007 2.71749997
58.6489983 -68.1204987 2.68070006
58.6491508 -67.8445435 2.38940001
58.664566 -67.9225006 2.49003339
58.6819611 -67.8742218 2.69107985
58.6483994 -67.884697 2.85439992
58.7537994 -67.6053009 -0.0152000003
58.6171989 -67.7957993 2.29949999
58.7591019 -67.7786026 2.52729988
58.7047997 -67.5460968 -0.0474000014
58.6930313 -67.2908707 2.89946675
58.7124023 -67.3150482 3.02960014
58.7695007 -67.1371002 -0.102799997
58.6629982 -67.0531998 2.72939992
58.7335014 -67.088295 2.86586666
58.6890984 -66.8691025 -0.0851999968
58.7712479 -66.930954 2.73075008
58.718399 -66.9064026 2.95120001
58.7298203 -66.6821976 -0.0795800015
58.7702675 -66.6877365 2.49393344
58.7597008 -66.6651001 2.68180013
58.6194992 -66.5983505 2.33395004
58.6586647 -66.5496292 2.5198667
58.7100983 -66.4965515 2.71729994
58.7897987 -66.5089035 2.86590004
58.7733002 -66.4701004 3.30410004
58.6871986 -66.3952026 2.84060001
58.7212982 -66.0878983 -0.0908000022
58.7314682 -66.1148987 2.84286666
58.7159004 -66.0317993 3.39910007
58.7528343 -65.9149704 -0.108733334
58.7871017 -65.9021988 3.0690999
58.7207985 -65.827301 4.1086998
58.6674995 -65.6592026 -0.0935000032
58.65942 -65.6658783 2.91325998
58.7137642 -65.6893616 3.0954833
58.6403999 -65.6703033 3.44740009
58.6453018 -65.7498474 3.61980009
58.7743988 -65.4570999 -0.118299998
58.6725998 -65.5663986 2.98280001
58.6305008 -65.5433502 3.06904984
58.7501526 -65.3238983 -0.123750001
58.780201 -65.382103 3.66840005
58.7554016 -65.3673019 3.94309998
58.7684479 -65.1380005 4.33059978
58.6827011 -64.9274979 -0.1294
58.7362328 -64.9735718 4.3107667
58.7127495 -64.9830017 4.44890022
58.6837006 -64.6230011 -0.144500002
58.7057991 -64.509201 -0.103
58.6708527 -64.3745499 -0.124500006
58.6954994 -63.7296982 -0.123999998
58.7363014 -63.3138008 0.0315000005
58.785099 -63.0339012 0.182500005
58.764576 -63.1172752 0.272500008
58.7298012 -63.0029984 1.65670002
58.7708511 -62.8879013 0.0799499974
58.7687492 -62.9212494 0.312025011
58.7405205 -62.8685417 0.492020011
58.720768 -62.8690681 0.689866662
58.7516022 -62.8944016 0.915149987
58.7513733 -62.8484497 1.11564994
58.7430687 -62.8832664 1.33813334
58.7836494 -62.9588509 1.52664995
58.7541656 -62.8834343 1.69558334
58.7792015 -62.9017334 1.89680004
58.6987801 -62.8690605 2.32780004
58.6380997 -62.8237 2.5223
58.7827988 -62.6769981 -0.0046000001
58.7584 -62.7560501 0.234149992
58.7046013 -62.7891998 1.85439992
58.792099 -62.782299 2.27749991
58.7750015 -62.5499992 -0.0125000002
58.7393494 -62.5243988 0.10345
58.6870003 -62.3403244 -0.113425002
58.7566986 -62.384201 0.110100001
58.7094994 -62.1943016 -0.212799996
58.6172981 -62.0695992 -0.180399999
58.6678467 -61.8618011 -0.154799998
58.6972008 -61.6228981 -0.226199999
58.6776505 -61.4880524 -0.218400002
58.6637001 -61.5872002 -0.122100003
58.6959 -60.6124992 4.05100012
58.7052002 -60.5624504 -0.221200004
58.7669983 -60.5886002 4.32859993
58.7611008 -60.5894012 4.43510008
58.6372986 -60.2434006 -0.253899992
58.9491348 -79.9082031 0.334633321
58.9067993 -79.7187042 0.321049988
58.9261017 -79.2918549 0.280600011
58.9825974 -78.9104462 0.264500022
58.8138008 -78.6606979 0.285100013
58.9020004 -78.4604034 0.257200003
58.9903984 -78.2621994 0.262400001
58.9757004 -78.0037003 0.213
58.8252983 -77.9520035 0.283199996
58.9043999 -77.4787979 0.211400002
58.8492012 -77.1436996 0.144199997
58.9417992 -77.0195007 0.232199997
58.8228493 -76.9856491 0.167850003
58.9724998 -76.4729004 0.1822
58.8568001 -76.1044998 0.153899997
58.9045982 -75.8580017 0.204999998
58.904068 -75.5586014 0.158600003
58.8326988 -75.1287994 0.160099998
58.8908997 -74.1029053 0.127999991
58.9218521 -73.8269958 0.121000007
58.90345 -73.6186981 0.120399997
58.859066 -73.472435 0.100500003
58.8381996 -73.3376007 0.112399995
58.8800011 -73.1712036 0.057
58.9581985 -72.8394012 0.057500001
58.8298988 -72.6720963 0.0573000014
58.835701 -72.4020996 0.0361000001
58.9343987 -72.2190018 0.0509000011
58.857399 -72.0921021 -0.0272000004
58.9059525 -72.087204 0.0734499991
58.8680992 -71.5487976 0.103799999
58.9706001 -71.3498001 0.0120000001
58.8005981 -71.0791016 0.070600003
58.8396988 -70.9583511 0.0399000011
58.9576988 -70.1623993 -0.00150000001
58.9678001 -70.0211029 2.37980008
58.8098984 -70.0046997 2.49900007
58.9481506 -70.0567474 3.18065
58.9698029 -70.1537476 3.29060006
58.9188995 -69.8492966 2.46749997
58.9961014 -69.6402969 2.3197
58.8228989 -69.3964996 0.0733999982
58.9926987 -68.8973007 2.99189997
58.9905014 -68.6685028 2.9454
58.9830017 -68.4557037 2.40630007
58.8289986 -68.5112 2.88179994
58.8680992 -68.3725967 2.54500008
58.8795319 -68.2781982 2.68729997
58.9314995 -68.2920303 2.83430004
58.9463005 -68.0827026 2.76699996
58.8903008 -68.1607971 2.90409994
58.8466988 -68.1728973 3.94729996
58.8577499 -67.8849487 2.57585001
58.915699 -67.8529968 2.72189999
58.8156013 -67.7594986 2.54390001
58.9666672 -67.6933365 2.72543335
58.8886986 -67.7115021 3.04760003
58.8882484 -67.4636536 2.74315
58.8905487 -67.4773483 2.89257503
58.8659668 -67.3096695 2.84996676
58.8560486 -67.3383942 3.91464996
58.8210983 -67.0251999 -0.106799997
58.800499 -67.0770035 2.7033
58.9197998 -67.1945038 3.54570007
58.9095001 -66.9105988 -0.0791999996
58.8972664 -66.922699 2.49086666
58.9075394 -66.8685379 2.68219995
58.9243011 -66.8443985 2.80640006
58.8833008 -66.822197 3.73729992
58.8263474 -66.7222443 2.36530018
58.8837204 -66.7350998 2.5260601
58.8624649 -66.7546692 2.64339995
58.8014984 -66.6363983 2.86680007
58.9160995 -66.7289963 4.15829992
58.8731003 -66.4979019 -0.0463999994
58.8807678 -66.4732666 2.91359997
58.8438988 -66.3249969 -0.0537
58.918766 -66.31427 2.89549994
58.8181 -66.0445023 2.76139998
58.9872513 -66.030899 2.80515003
58.8311005 -66.0472031 3.16589999
58.956501 -66.0435028 3.55500007
58.8871002 -65.802803 -0.144099995
58.9241753 -65.9311523 2.88037491
58.8729019 -65.9013748 3.11947489
58.8297005 -65.8069992 3.23099995
58.8434982 -65.6477966 -0.1149
58.8554001 -65.6277008 3.2953999
58.8619003 -65.3757019 3.66890001
58.8837013 -65.2929993 3.96070004
58.8655014 -65.2509995 4.24420023
58.9073486 -65.0144958 4.29679966
58.9836998 -65.0112 4.41179991
58.8151016 -64.9702988 -0.159899995
58.8656006 -64.9768982 4.36590004
58.8800011 -64.9934006 4.43050003
58.9207993 -64.373497 -0.151099995
58.8055 -63.7971992 -0.234599993
58.8529015 -63.2326012 0.0991000012
58.8073502 -62.8672028 0.868399978
58.8028488 -62.9114532 1.24150002
58.8147011 -62.9763985 1.45159996
58.9019012 -62.8748245 2.13770008
58.9002991 -62.8470688 2.29369998
58.8658981 -62.7845993 2.13809991
58.9029465 -62.7164001 2.25979996
58.9508018 -62.7863007 2.62299991
58.9191322 -62.4622002 -0.070100002
58.8047981 -61.3404007 -0.194000006
58.9535522 -60.4970474 3.65625
58.8823509 -60.5657005 3.90210009
58.9119492 -60.4955978 4.07140017
58.84515 -60.4817505 4.52629995
58.9417 -60.280201 3.37280011
58.9793015 -60.3334999 3.84610009
58.9499016 -60.3869019 4.13019991
58.9079514 -60.1084976 -0.268750012
58.9664001 -60.1386986 3.30559993
58.9053993 -60.1249008 4.06650019
59.0875015 -79.7561035 0.216000006
59.0494995 -79.5720978 0.209600002
59.0405998 -79.2656021 0.337500006
59.0970001 -79.0098038 0.227599993
59.0656013 -78.852951 0.256700009
59.0099983 -77.8663025 0.196799994
59.1011009 -77.5333557 0.1928
59.0699997 -77.0969009 0.171200007
59.1189995 -77.0986023 0.216199994
59.0802002 -76.4150009 0.162100002
59.0082016 -76.3914032 0.198799998
59.0489006 -75.9789963 0.184300005
59.0359993 -75.6615982 0.134100005
59.0225983 -75.5830002 0.158500001
59.0834999 -74.5465012 0.143399999
59.1469002 -74.0868988 0.101599999
59.1450005 -72.7917023 0.0445000008
59.0413017 -71.453598 0.0654999986
59.0438004 -70.7693024 -0.0918999985
59.0914993 -70.7450027 0.0208999999
59.08675 -70.497757 2.47679996
59.1819992 -70.4617996 3.3671999
59.1939011 -70.4497986 3.5467
59.1584015 -70.2794037 2.43865013
59.1182022 -70.2770996 3.53544998
59.0386009 -70.0559998 2.37680006
59.0977325 -70.0832291 3.26539993
59.1609497 -70.166748 3.43279982
59.1850014 -70.1856003 3.60689998
59.0471992 -69.9882965 2.3513999
59.0924988 -69.8803329 2.46846676
59.0531654 -69.6779022 2.31389999
59.1348991 -69.6838989 2.43099999
59.1176338 -69.5296021 2.3415668
59.050499 -69.3037033 0.0197999999
59.0764008 -69.3803024 2.39669991
59.1896019 -69.2129974 4.29110003
59.1618996 -69.0587006 2.44759989
59.050499 -69.0986023 2.78189993
59.0736008 -68.8467026 2.36509991
59.1552505 -68.9160461 2.46409988
59.0056992 -68.9364014 2.86400008
59.0904655 -68.7064362 2.37043333
59.171299 -68.7554016 2.51670003
59.0140991 -68.6584015 2.83859992
59.0695992 -68.5613022 2.36870003
59.1583519 -68.5285263 2.445225
59.1623001 -68.3097992 2.36919999
59.1925011 -68.2480011 2.40989995
59.1234016 -68.1750031 2.6717999
59.1069984 -68.1278992 2.86520004
59.0981522 -68.0550995 3.85529995
59.0955505 -67.8698502 2.74765015
59.1119003 -67.8856964 2.86380005
59.1781006 -67.9241028 3.77080011
59.1288986 -67.6788025 2.50990009
59.1154327 -67.6158371 2.79223323
59.1318245 -67.7312469 2.86952496
59.0592346 -67.522934 2.74970007
59.1725998 -67.5280991 2.88829994
59.1669998 -67.4061966 4.17379999
59.0252991 -67.3139038 3.39899993
59.1082001 -66.8275986 2.76859999
59.1166992 -66.9163971 3.3736999
59.1679497 -66.6809998 -0.089850001
59.0774002 -66.7608032 5.0795002
59.1633987 -66.4564972 -0.102049999
59.0999985 -66.4841003 2.74160004
59.1472511 -66.4788971 2.84925008
59.0457993 -66.4518967 3.3433001
59.1026993 -66.3093491 2.90390015
59.1355019 -66.2993011 3.15939999
59.1379013 -66.1013489 2.78609991
59.1484985 -66.0707626 2.87336659
59.1417007 -65.8350983 -0.140900001
59.0626526 -65.9442444 2.79489994
59.0220985 -65.8672028 2.84559989
59.0855484 -65.8569489 3.04204988
59.1164474 -65.6916962 3.56535006
59.0385017 -65.5855026 3.58299994
59.1198006 -65.2349014 -0.107000001
59.1728973 -65.2740479 3.12130022
59.1848984 -65.2863007 3.21210003
59.0279999 -65.1447983 -0.160899997
59.1010017 -65.1193008 3.59570003
59.0496521 -65.1046524 4.47970009
59.1109009 -64.8825989 -0.177399993
59.1390991 -64.9610977 3.39350009
59.1559982 -64.9744034 3.90619993
59.1346016 -64.9609985 4.25680017
59.1001015 -64.7204971 -0.170100003
59.1721497 -64.7277527 3.97105002
59.1268005 -64.6654968 4.12470007
59.1996994 -64.7811966 4.23689985
59.0698509 -64.0834045 -0.151150003
59.0323486 -62.895649 2.06839991
59.0739975 -62.8769989 2.23525
59.1199989 -62.6018982 -0.173800007
59.1119003 -62.5331001 -0.158399999
59.1731987 -62.2896004 -0.193000004
59.0453491 -60.4381027 3.58239985
59.0470009 -60.5298691 3.6573
59.0727997 -60.2881012 3.5159502
59.0674324 -60.3096313 3.69473338
59.0693016 -60.287899 3.8599999
59.0725021 -60.1498489 3.34354997
59.0959015 -60.1355324 3.50430012
59.0822525 -60.1781006 3.67595005
59.0359001 -60.1216011 3.84879994
59.2233009 -79.767601 0.305200011
59.3240013 -79.5606003 0.30430001
59.2276993 -78.0332031 0.249850005
59.2639999 -77.7223969 0.257300019
59.3488998 -77.0784988 0.214599997
59.2490997 -76.3356018 0.167099997
59.2832489 -75.3265533 0.10695
59.3068657 -74.2769318 0.119433329
59.2652016 -73.9328995 0.128099993
59.2280006 -73.5774994 0.0935000032
59.3759003 -73.1600037 0.0546999983
59.2961006 -71.1610031 0.00240000011
59.3153534 -70.7344971 2.55749989
59.2136993 -70.6164017 3.33430004
59.2246017 -70.6393967 3.52670002
59.2428017 -70.5246964 0.0215000007
59.2666397 -70.5115967 2.53571987
59.3548012 -70.5236053 2.61880016
59.2252998 -70.5255966 3.38969994
59.3092003 -70.2312012 0.103100002
59.3065987 -70.2815323 2.56680012
59.2234001 -70.282402 3.39630008
59.2783585 -70.0775375 2.48192
59.3482018 -70.0347977 3.17319989
59.2394981 -70.1779022 3.24880004
59.2988014 -69.8393021 -0.0013
59.2799339 -69.8665695 2.51136661
59.3706017 -69.8513031 2.62299991
59.3642006 -69.9244995 3.15610003
59.2890625 -69.7089767 2.50004005
59.2010002 -69.5271988 2.38960004
59.3048477 -69.4811478 2.50690007
59.3795013 -69.5671005 3.30990005
59.2980003 -69.3591995 -0.00769999996
59.2855988 -69.3320999 0.0794999972
59.2775002 -69.3879013 2.36199999
59.3194618 -69.3296585 2.45255995
59.2522011 -69.2843475 4.4524498
59.3021011 -69.0989227 2.50707507
59.2412987 -69.1975021 4.49399996
59.2736778 -68.9012604 2.52977991
59.3633003 -68.9067993 2.61209989
59.248703 -68.7400513 2.51235008
59.3346329 -68.6915359 2.66736674
59.3107986 -68.7219009 3.03620005
59.3385506 -68.4962234 2.5322001
59.2818985 -68.5459976 2.80170012
59.2436981 -68.2067032 2.38899994
59.2425003 -68.322998 2.50340009
59.3013992 -68.3096313 2.7263
59.2705002 -68.2958527 2.88604999
59.2120018 -68.1335983 2.42630005
59.3721008 -68.1908035 2.8684001
59.2691002 -68.0880356 3.04966664
59.2845001 -67.8825989 2.72749996
59.2784004 -67.9355011 3.00259995
59.3793983 -67.6416016 -0.0527000017
59.2901001 -67.6619034 2.69919991
59.2428017 -67.7171021 2.93236661
59.2584 -67.6661987 3.05290008
59.3552017 -67.7715988 3.72860003
59.3013 -67.7845993 3.84190011
59.362999 -67.5607986 2.78530002
59.3092995 -67.596199 2.98799992
59.206501 -67.490799 3.1559
59.342701 -67.3592987 2.75620008
59.3455658 -67.2914658 3.04189992
59.3446007 -67.3302994 3.24569988
59.2103996 -67.3496017 4.31869984
59.3904991 -67.0363007 3.1888001
59.2377014 -67.1790009 3.73749995
59.321701 -66.9237976 -0.0932999998
59.3706017 -66.719902 -0.0822999999
59.2755508 -66.6100006 3.17785001
59.2716751 -66.658371 3.28732491
59.2538986 -66.4984512 -0.0995500013
59.2804985 -66.4859161 2.93456006
59.3047981 -66.4737015 3.02530003
59.3237991 -66.2042007 -0.237499997
59.2842865 -66.3232727 2.91072869
59.3890991 -66.3212967 3.03130007
59.3381004 -66.2591019 4.04330015
59.3336487 -66.105896 2.78404999
59.3404694 -66.0351639 2.90136671
59.2723007 -66.1774979 4.06990004
59.3190002 -65.9384003 2.71390009
59.374649 -65.869751 2.87164998
59.3137512 -65.7340012 2.95315003
59.3264656 -65.4839172 2.91321659
59.3644981 -65.4392014 3.67490005
59.2526016 -65.3227005 2.76839995
59.3327675 -65.3421631 2.86924982
59.3762016 -65.2696991 4.16580009
59.2681999 -65.1434479 -0.139149994
59.3292999 -64.8132019 -0.167899996
59.3439484 -64.8206482 3.4914
59.218399 -64.8615036 3.89590001
59.3294487 -64.8316498 4.10650015
59.3740005 -64.7518005 3.49600005
59.3293991 -64.7606506 3.93580008
59.2602234 -64.7333984 4.05977488
59.2581024 -64.6269989 4.3376503
59.2650986 -64.5964966 4.13759995
59.2265015 -64.2437973 -0.177000001
59.3928986 -63.0656013 1.70850003
59.330101 -62.9873009 1.79419994
59.3335342 -62.8829002 1.88196659
59.2174988 -62.8716011 2.06419992
59.2919998 -62.8153 2.25880003
59.3359985 -62.6106987 -0.124600001
59.3707008 -62.6921997 1.87590003
59.2131004 -62.7654991 2.04839993
59.2137985 -62.7663002 2.24749994
59.2680016 -62.5750999 -0.252600014
59.2659988 -62.4212494 -0.145549998
59.2742004 -62.2871513 -0.218699992
59.3656006 -62.0686989 -0.201900005
59.3678017 -61.2994995 -0.232299998
59.3487015 -61.0513 -0.247400001
59.3431015 -60.7123985 -0.252900004
59.3796997 -60.4118004 -0.238499999
59.2172012 -60.2390518 -0.300700009
59.225399 -60.2612 3.39369988
59.2965317 -60.0907021 3.45066667
59.2620316 -60.1234016 3.7317667
59.2280006 -60.0484009 4.21929979
59.2557487 -60.0924988 4.44184971
59.290699 -60.1661987 4.70900011
59.4417992 -79.7822037 0.279599994
59.5292015 -79.4425964 0.239399999
59.5153008 -77.9953995 0.194000006
59.5480003 -77.7352982 0.199000001
59.4099007 -77.6788025 0.219099998
59.4308014 -77.5687027 0.189899996
59.5082474 -77.5338974 0.208749995
59.4976997 -76.4125977 0.1884
59.5802994 -76.2526016 0.172499999
59.4580002 -75.8956451 0.142399997
59.5344009 -75.623497 0.141100004
59.510601 -75.5044022 0.129500002
59.4804001 -75.3274002 0.140499994
59.5189018 -75.0454025 0.113499999
59.4771004 -73.5531006 0.0939999968
59.5326996 -72.9736023 0.0441999994
59.5649986 -72.7858963 0.0419000015
59.4915009 -71.7115021 0.0454999991
59.5919991 -71.4000015 0.0135000004
59.4928017 -71.1334 0.00200000009
59.5390015 -70.8865967 -0.0819000006
59.5765991 -70.8692017 0.0434000008
59.5251999 -70.8252029 2.59290004
59.5096245 -70.8583221 2.65985012
59.5910988 -70.7257996 0.0144999996
59.4528236 -70.7236252 2.50337505
59.5006828 -70.7041779 2.70779991
59.4194984 -70.5690002 -0.00449999981
59.5205231 -70.495903 2.66742492
59.4389 -70.2670975 0.00109999999
59.4881516 -70.3568497 2.57605004
59.4541016 -70.3098526 2.66287494
59.4938507 -70.3093567 3.71259999
59.4231987 -70.1325989 -0.0399000011
59.5158501 -70.1065979 0.0285500009
59.4949989 -70.0882721 2.538975
59.5495987 -70.1857986 2.62829995
59.4249001 -69.841301 2.56629992
59.4499016 -69.9770966 3.1092999
59.523201 -69.9564972 3.24860001
59.4744492 -69.6810989 0.0260999985
59.4287682 -69.6837006 2.55079985
59.4967995 -69.6817322 2.64553332
59.4258003 -69.7845993 3.16869998
59.4490013 -69.5908966 -0.00730000017
59.4458771 -69.4662247 2.51677513
59.4605484 -69.4844513 2.6717
59.4123993 -69.4352036 3.29279995
59.5270996 -69.2844009 2.56910014
59.5826988 -69.2149963 2.61459994
59.5503998 -69.3396988 4.26000023
59.4040489 -69.1548462 2.51695013
59.5646515 -69.1052017 2.64184999
59.5853996 -69.1361008 3.31789994
59.4188004 -68.8554993 2.54180002
59.4485016 -68.8276978 2.63319993
59.5931015 -68.919899 3.18099999
59.5973015 -68.9646988 3.23189998
59.499649 -68.6967468 3.11844993
59.5327492 -68.7045441 3.33655
59.5227013 -68.4470978 2.5624001
59.5113983 -68.4995499 2.66209984
59.5354996 -68.4662018 3.33139992
59.4580002 -68.3985977 2.50110006
59.5840492 -68.2545013 2.71899986
59.5056992 -68.3602982 4.92269993
59.5028 -67.8294983 -0.0241
59.5191994 -67.8470306 0.269199997
59.5629997 -67.8337555 0.48969999
59.4406013 -67.8275986 0.622799993
59.4859009 -67.8047028 3.13969994
59.5345001 -67.9667969 3.29940009
59.5657997 -67.7753983 0.663399994
59.4968987 -67.793602 0.914200008
59.5413017 -67.6595993 2.18630004
59.5716019 -67.6557007 2.43994999
59.4743996 -67.7482986 2.7723
59.5769501 -67.7517014 3.23290014
59.5784988 -67.4442978 -0.0971999988
59.5629005 -67.5476532 2.48639989
59.5238838 -67.5000687 2.71099997
59.5165787 -67.4985199 2.90996003
59.5654984 -67.4536972 3.06780005
59.5074005 -67.257103 -0.139899999
59.468132 -67.3182678 2.93966675
59.5188332 -67.357132 3.0250001
59.5844002 -67.2083969 3.32940006
59.4366989 -67.3115005 3.62879992
59.5951996 -67.1911011 3.14759994
59.4645004 -66.8865967 -0.113399997
59.5730019 -66.8414993 2.90739989
59.5700493 -66.8475494 3.02255011
59.4091988 -66.8630524 3.27585006
59.5998001 -66.6835022 -0.068599999
59.5088997 -66.7770004 3.0401001
59.4784012 -66.5774002 2.97919989
59.5430984 -66.2804031 -0.1061
59.4417 -66.2670975 2.9142499
59.4258003 -66.0768967 -0.116800003
59.4446487 -66.0547943 2.86625004
59.4341507 -66.1318512 3.96640015
59.5463028 -65.9621506 2.74814987
59.5144615 -65.9043961 2.83416009
59.4674988 -65.969902 3.01460004
59.4527969 -65.741745 2.90485001
59.5289001 -65.6885986 3.88199997
59.5969009 -65.643898 4.67430019
59.5451012 -65.5440979 4.32910013
59.4412498 -65.3507004 3.68400002
59.4826012 -65.3046036 4.2658
59.4784012 -65.2479019 4.44759989
59.457901 -65.1204987 2.88849998
59.4454994 -65.058197 3.26600003
59.5195999 -65.0339966 3.54299998
59.5051003 -65.1270981 3.79500008
59.4709015 -65.0185013 3.81609988
59.5205002 -64.8917999 3.39289999
59.5023651 -64.8834686 3.54746675
59.5156021 -64.9308014 3.76730013
59.4674988 -64.8695984 3.90364981
59.491581 -64.9044037 4.07087994
59.4544983 -64.8884964 4.20419979
59.5761986 -64.6429977 2.92409992
59.4510002 -64.6585007 3.38490009
59.4956856 -64.6770554 3.50727153
59.4894981 -64.625 3.64540005
59.4785004 -64.610199 3.87249994
59.4299011 -64.6976013 4.24440002
59.5527992 -64.5512009 2.9855001
59.4824982 -64.5737 3.05789995
59.5044518 -64.5154648 3.53321671
59.5051727 -64.4973221 3.69072485
59.4556007 -64.4629974 3.90330005
59.5746994 -64.3443985 3.67477989
59.5432014 -64.3481979 3.85389996
59.5976982 -63.0099983 1.35650003
59.5820007 -62.9441986 1.16929996
59.5554008 -62.9111023 1.28145003
59.4862671 -62.9094658 1.48446667
59.4244232 -62.924099 1.69159997
59.4403 -62.8130989 1.84319997
59.5919991 -62.7985001 1.08200002
59.4076996 -62.7865982 1.63399994
59.5017014 -62.4930992 -0.247899994
59.4627991 -61.8689003 -0.225950003
59.5231018 -61.4430008 -0.240899995
59.4328003 -61.5569992 -0.176599994
59.4813995 -61.1099472 -0.171550006
59.4684982 -60.2075996 -0.306199998
59.5456009 -60.2305984 4.59210014
59.4126015 -60.1122017 3.09820008
59.5646019 -60.0153008 3.37779999
59.4433517 -60.1361504 3.71229982
59.4714317 -60.0623665 3.90816665
59.5983009 -60.0550003 4.23890018
59.5542526 -60.1128998 4.54395008
59.4929008 -60.0964012 4.70686674
59.645401 -79.9106979 0.272300005
59.7071533 -79.6430511 0.267350018
59.7613983 -79.1572037 0.276499987
59.7434006 -78.467598 0.215800002
59.7429008 -78.2695999 0.231299996
59.7019005 -78.0758514 0.170000002
59.7233009 -77.9602966 0.197999999
59.7863998 -77.6757965 0.165000007
59.6472015 -77.5270996 0.192900002
59.7742004 -77.3062973 0.111100003
59.7537994 -77.055603 0.128000006
59.6016006 -77.194397 0.213799998
59.6865005 -76.7230988 0.150900006
59.6310005 -76.6026001 0.221599996
59.6428986 -76.4350967 0.163900003
59.7466011 -75.8655014 0.125400007
59.6790009 -74.7968979 0.132799998
59.6828995 -74.5655975 0.136500001
59.6057014 -74.3564987 0.103200004
59.6190987 -73.9116974 0.112400003
59.6306992 -73.604599 0.0851000026
59.6939011 -73.5798492 0.123799995
59.6892014 -73.3254547 0.0576499999
59.7378998 -72.8851013 0.0184000004
59.7839012 -72.5290985 0.0502000004
59.6591339 -72.0804672 0.0501333326
59.6666985 -71.7266006 0.00829999987
59.6622009 -71.3973007 0.0625
59.7171021 -71.0574036 0.0709999949
59.6629982 -70.5824966 -0.0245999992
59.6775017 -70.3643036 -0.0461000018
59.7112007 -70.3222351 2.67729998
59.736351 -70.0552521 2.61412501
59.7897987 -70.1679993 3.24009991
59.7115479 -69.8355484 -0.026949998
59.6707993 -69.9440002 2.59210014
59.780201 -69.9666977 2.77200007
59.6506004 -69.9722977 3.14339995
59.7332993 -69.8519974 3.27419996
59.6491013 -69.7095032 2.65960002
59.7719002 -69.722702 3.29180002
59.6622009 -69.6043015 4.5230999
59.6100998 -69.5481033 -0.101199999
59.7484016 -69.4882965 3.34500003
59.6955986 -69.4287643 4.28609991
59.7595749 -69.4893723 4.45877504
59.6362 -69.2423019 2.59039998
59.7150993 -69.3000031 3.30660009
59.6324997 -69.2761536 4.12654972
59.7244034 -69.3083496 4.2663002
59.7849007 -69.0775986 0.0339000002
59.769001 -69.0488968 2.83870006
59.7799988 -69.0577011 3.24650002
59.7406998 -69.1341019 4.19350004
59.7312012 -68.8986969 2.57590008
59.7410507 -68.8600006 2.69394994
59.6968193 -68.8929977 3.33646011
59.6926994 -68.8933029 3.41810012
59.7392197 -68.6885986 2.67217994
59.6347008 -68.7624969 3.26959991
59.6568985 -68.4983978 0.00529999984
59.7194672 -68.5040665 2.67560005
59.6963005 -68.5749969 3.27419996
59.6118011 -68.213501 0.680999994
59.7069016 -68.3037567 2.7273221
59.6623001 -68.3395996 2.84209991
59.6236992 -68.2626038 3.30979991
59.7169991 -68.0145035 -0.0126999998
59.6076012 -68.1195984 0.162699997
59.6703339 -68.0615387 0.32706666
59.7017975 -68.0786972 0.458700001
59.7549973 -68.1304932 0.68599999
59.6772995 -68.1122971 2.7609334
59.6921501 -68.1840057 2.87814999
59.6986008 -68.1765976 3.29520011
59.7596016 -67.9615021 0.159700006
59.7101517 -67.9226532 0.305774987
59.6929626 -67.8555603 0.516099989
59.7194176 -67.892601 0.687049985
59.6466331 -67.8841705 0.87286669
59.7812996 -67.9815979 1.17110002
59.7840004 -67.9021988 1.35399997
59.7643509 -67.9590988 1.48014998
59.7905006 -67.9833984 1.67649996
59.7955017 -67.8695984 1.87779999
59.7602005 -67.8479996 2.08885002
59.6172981 -67.9319 2.71609998
59.6501999 -67.7727966 0.359800011
59.7504005 -67.7147827 2.31241989
59.6816864 -67.666069 2.50247145
59.6606979 -67.7089996 2.76469994
59.6692009 -67.7624969 3.10354996
59.6278 -67.4729996 2.5072
59.6743317 -67.5421295 2.72176671
59.789299 -67.5171967 2.95965004
59.7636986 -67.5227966 3.04220009
59.7136002 -67.2638016 3.61989999
59.7234993 -67.1807022 -0.101000004
59.6749496 -67.0888214 3.28467488
59.6580009 -67.1314011 3.53329992
59.6647987 -67.1062012 3.61360002
59.6046982 -66.851799 -0.115400001
59.6582985 -66.8236008 4.10109997
59.7238998 -66.721199 -0.101599999
59.6152496 -66.6732483 2.95774984
59.6741486 -66.6442566 3.04925013
59.6167984 -66.4792023 -0.123899996
59.6903 -66.414299 2.75029993
59.741024 -66.4944763 2.94882488
59.676651 -66.2947998 -0.114399999
59.7560997 -66.3294983 2.92869997
59.773201 -66.3620987 3.00600004
59.696701 -66.3311005 4.01490021
59.7450981 -66.1484985 -0.167199999
59.7004204 -66.0920029 2.91574001
59.7669983 -65.8339005 -0.129600003
59.7742996 -65.949501 2.86910009
59.6781998 -65.792099 2.8894999
59.7119331 -65.6490021 3.84549999
59.7021484 -65.4878006 3.66454983
59.7089005 -65.5662003 3.81850004
59.7411003 -65.2661972 -0.127100006
59.7607994 -65.2742004 2.78449988
59.7933998 -65.2698975 3.76760006
59.6803017 -65.2155991 3.81349993
59.7072525 -65.0979004 2.83729982
59.6979523 -65.0426941 3.75880003
59.6872978 -65.0857697 3.87940001
59.6503525 -65.0346527 4.04695034
59.7157745 -65.0445023 4.2425251
59.7846985 -64.846344 2.74429989
59.759201 -64.8899994 2.80985022
59.7134247 -64.8869019 3.51097488
59.7235985 -64.930336 3.68330002
59.7274017 -64.8877029 3.8204999
59.7673988 -64.9449997 4.08650017
59.6313477 -64.7339935 2.74324989
59.7450981 -64.6110992 2.92810011
59.7137337 -64.6815643 3.05500007
59.7458992 -64.7921982 3.58039999
59.7157974 -64.7311554 3.73309994
59.6244011 -64.5143967 -0.144700006
59.6383018 -64.5372009 3.5775001
59.6398506 -64.5400467 3.73207498
59.7943993 -64.2667007 -0.1391
59.7331505 -63.8821487 -0.15990001
59.6305008 -63.6599007 -0.213699996
59.7890015 -63.7164993 -0.192699999
59.7484512 -63.1369514 0.724099994
59.7336998 -63.1334991 0.901000023
59.7724991 -62.9031525 0.711699963
59.6419983 -62.9294662 1.1262666
59.6068001 -62.8942986 1.24549997
59.7876015 -62.6728668 0.621533334
59.6975327 -62.7198334 0.915499985
59.6469994 -62.7219009 1.00300002
59.6778488 -62.4589005 -0.217950001
59.668499 -62.425499 -0.0688000023
59.7551003 -62.5335999 0.590699971
59.7248001 -62.5611 0.743250012
59.7383003 -62.3961983 -0.0653000027
59.6935997 -61.9222984 -0.267933339
59.6935005 -61.0373001 -0.252299994
59.6926003 -60.4440994 -0.298200011
59.7905006 -60.3446999 -0.319999993
59.6688995 -60.2691002 3.67919993
59.6255989 -60.2256012 4.55009985
59.7459755 -60.0872993 3.48632503
59.7342987 -60.1422691 3.62636662
59.6756668 -60.068367 4.26880026
59.618 -60.0219994 4.77339983
59.6866989 -60.0241013 4.88329983
59.9658012 -79.9834976 0.289700001
59.9464989 -79.6667023 0.218999997
59.8899002 -79.2874985 0.237200007
59.8753014 -78.9159012 0.253199995
59.8883972 -78.65625 0.22784999
59.8833008 -78.5225983 0.243599996
59.9063492 -78.0410461 0.236000001
59.9420013 -77.9182968 0.204799995
59.9206009 -77.797699 0.166099995
59.8746986 -77.3851013 0.177900001
59.8876991 -77.3993988 0.220799997
59.8838997 -77.1461945 0.179699987
59.9673004 -77.1132965 0.201199993
59.8577995 -75.8391037 0.116300002
59.9213028 -75.7306061 0.105499998
59.9491005 -75.3160019 0.116400003
59.8987999 -75.0338974 0.103799999
59.8534012 -74.5411987 0.126100004
59.9701996 -74.2394028 0.0904000029
59.8944016 -74.1126022 0.101800002
59.8513985 -73.8049011 0.0841000006
59.9324493 -73.2967529 0.0923999995
59.8280983 -73.0009995 0.0854000002
59.8263016 -72.8831024 0.0443000011
59.9915009 -72.3360977 0.0423999988
59.8959999 -71.2129974 0.00800000038
59.8899994 -71.0383987 0.00659999996
59.8236008 -70.8492966 -0.0754000023
59.8584671 -70.4877701 3.33066654
59.8628006 -70.5822449 3.42705011
59.9389992 -70.2242966 2.72270012
59.8868675 -70.2985382 3.3700335
59.9216003 -70.1166 -0.0454000011
59.9106979 -70.0837708 2.66237497
59.8552818 -70.0488205 3.30306005
59.8689995 -70.1869965 3.52559996
59.9912987 -70.0718994 3.66619992
59.8888664 -69.9087677 2.6462667
59.9752007 -69.9197006 3.3138001
59.8339996 -69.6435013 -0.0269000009
59.9916992 -69.7884979 2.58039999
59.930748 -69.6788025 2.66589999
59.9095001 -69.6972504 3.34245014
59.9230003 -69.6848984 3.62210011
59.8933983 -69.4285965 2.56800008
59.8642998 -69.4994736 3.27084994
59.9305992 -69.4679031 3.72860003
59.8153 -69.4201965 4.44404984
59.9496002 -69.2072983 2.57470012
59.9230003 -69.2738037 2.76079988
59.8908997 -69.2096024 2.95040011
59.8735008 -69.2340012 3.37069988
59.8683014 -69.2706985 4.28630018
59.9169006 -69.0839996 -0.00340000005
59.9478798 -69.0698395 2.5208199
59.8792992 -69.0827026 2.6335001
59.8876991 -68.9449005 0.0144999996
59.920002 -68.8575821 2.54853988
59.9433327 -68.9384995 2.65400004
59.8543015 -68.9002991 3.36680007
59.9780006 -68.8330994 3.49779987
59.9182014 -68.9161682 4.33243322
59.8834 -68.8303986 4.49240017
59.9001007 -68.7478027 2.44959998
59.8496208 -68.7001419 2.72912002
59.9453659 -68.7338333 4.30913353
59.9133987 -68.7384033 4.46420002
59.9733009 -68.6259003 4.7901001
59.8826256 -68.5188522 2.7256
59.9318008 -68.502594 2.83885002
59.9393997 -68.4720993 3.28670001
59.9077988 -68.5253983 3.45539999
59.8699989 -68.4389038 4.64580011
59.9589005 -68.2011032 -0.0013
59.9610977 -68.3128052 0.0803499967
59.9720535 -68.2652512 0.349399984
59.9298019 -68.303978 0.553350031
59.9280472 -68.2349472 0.744300008
59.9742012 -68.2384033 1.27279997
59.9137001 -68.2110977 1.5273
59.9352989 -68.2220001 1.83759999
59.8796501 -68.3360519 2.69184995
59.8547516 -68.3153 2.85349989
59.8972015 -68.342598 3.34590006
59.8959007 -68.0328979 -0.181899995
59.9059563 -68.0893707 0.134328574
59.8974495 -68.1400681 0.301499993
59.8891182 -68.0635605 0.550599992
59.9280014 -68.1053009 0.718919992
59.936367 -68.1229324 0.87559998
59.9592209 -68.0963593 1.09280002
59.9575386 -68.0716019 1.30211997
59.9576645 -68.0993652 1.54533327
59.940815 -68.0913162 1.6975143
59.9291 -68.0300446 1.91935992
59.9344482 -68.0495453 2.03730011
59.8880005 -68.0005035 2.22510004
59.9569016 -67.821701 -0.0107000005
59.9243011 -67.9655991 0.915000021
59.9023514 -67.9713516 1.04084992
59.8956642 -67.9466705 1.33583343
59.9062996 -67.9399033 1.52069998
59.9090652 -67.9549332 1.72426665
59.8567734 -67.9363022 1.89129996
59.8860893 -67.889801 2.09426665
59.8753014 -67.9021301 2.28643322
59.8097992 -67.8401031 2.47515011
59.9317741 -67.646347 -0.0560499988
59.8748665 -67.7101364 0.047633335
59.9140015 -67.7919998 2.12879992
59.8435516 -67.7628479 2.30079985
59.9398994 -67.7503967 2.47025013
59.8861008 -67.6841431 2.74674988
59.9496002 -67.7957993 3.28279996
59.8667488 -67.5502014 -0.0688499957
59.8950005 -67.5496979 2.56550002
59.8328018 -67.5213013 2.66400003
59.8959007 -67.5660019 2.84240007
59.8378983 -67.5938034 4.88339996
59.9606018 -67.3583984 2.56369996
59.8370018 -67.0177002 3.26009989
59.8411331 -66.7392349 -0.11733333
59.9091759 -66.6811752 3.26760006
59.9888 -66.5674973 3.27679992
59.9034805 -66.3078232 2.94099998
59.9157486 -66.0787048 2.88355017
59.8953476 -66.1415482 3.02565002
59.9468002 -66.1933975 3.45840001
59.8839493 -65.9107971 2.90307498
59.9996986 -65.8001022 3.67860007
59.9928017 -65.9533997 4.57259989
59.892601 -65.7416 -0.140100002
59.8935013 -65.740097 2.8822
59.9341011 -65.5852966 -0.115000002
59.915451 -65.4572525 2.81274986
59.8634987 -65.414299 3.13960004
59.9306259 -65.5391235 3.33249998
59.8741989 -65.5 3.4598999
59.8507996 -65.4674988 3.72865009
59.9273491 -65.4705811 3.88211679
59.8552017 -65.5770035 4.13360023
59.9841995 -65.4448013 4.3421998
59.8671989 -65.2490005 -0.155000001
59.8778992 -65.3417969 2.69720006
59.8920517 -65.2301025 2.89744997
59.9188995 -65.3518524 3.65614986
59.8744011 -65.3725967 3.80859995
59.9030991 -65.1517487 2.92129993
59.9996986 -65.1988983 3.73399997
59.8860016 -65.0450974 3.87995005
59.8891487 -64.8995972 2.84619999
59.8675499 -64.8947983 3.53875017
59.9096642 -64.8908005 3.68643332
59.8909798 -64.9416962 3.86716008
59.8190002 -64.8453979 4.02799988
59.8658981 -64.611702 2.69919991
59.8708 -64.7090454 2.85195017
59.9296989 -64.6099014 3.03010011
59.9504013 -64.5563965 2.74729991
59.9394188 -64.5187988 2.90569997
59.9258347 -64.4979324 3.05906653
59.8009987 -64.4487991 3.20059991
59.9196014 -64.2963028 -0.178449988
59.8847504 -64.3496017 2.90684986
59.8964996 -64.364624 3.07164001
59.8889465 -63.3455505 0.319549978
59.8323975 -63.2912254 0.534449995
59.8258972 -62.7890015 0.551349998
59.8568001 -62.7169991 0.634800017
59.9326668 -62.5009346 -0.153766662
59.8823471 -62.4299507 0.04005
59.8564491 -62.5242004 0.54914999
59.9860001 -62.3247986 0.0474999994
59.9836998 -62.3834 0.280000001
59.9529991 -62.3881989 0.451799989
59.8009987 -62.0259018 -0.187199995
59.8736496 -61.6935997 -0.252799988
59.8493004 -61.4384003 -0.237299994
59.8984985 -61.1380997 -0.26789999
59.8218002 -60.8390007 -0.251899987
59.8504982 -60.7140999 -0.273099989
59.8711014 -60.5565491 -0.263199985
59.8372993 -60.0651016 3.50900006
59.8386002 -60.1565514 3.67355013
