# .PCD v0.7 - Point Cloud Data file format
VERSION 0.7
FIELDS x y z
SIZE 4 4 4
TYPE F F F
COUNT 1 1 1
WIDTH 251
HEIGHT 1
VIEWPOINT 0 0 0 1 0 0 0
POINTS 251
DATA ascii
49.9347992 24.8978996 -2.18479991
51.1866989 24.9298992 -2.65779996
51.0253983 24.9804001 -2
53.5894012 37.7956009 -1.37940001
53.858799 32.3432999 -0.602199972
53.8893013 37.7233009 -1.44809997
53.9337997 37.8541985 -1.51660001
53.9844017 38.0383987 -1.24829996
54.0726013 27.3220997 -0.320899993
54.1268005 28.4190006 -0.438699991
54.1395988 29.4990997 1.34549999
54.0517006 32.1194992 -0.609399974
54.1477013 32.3246002 -0.657100022
54.0693016 32.3053017 -0.575600028
54.0124016 32.4589996 -1.31939995
54.0503998 32.5674019 1.76639998
54.3518982 27.5233994 -0.136600003
54.3359985 28.3924007 -0.976700008
54.2723007 28.2740002 -0.562300026
54.2555008 28.4113007 -0.0220999997
54.2450981 32.353199 -2.88770008
54.3182983 32.3069 -1.82930005
54.2751999 32.5512009 0.394600004
54.217701 32.5667992 2.71099997
54.3576012 32.6964989 8.09920025
54.3760986 37.5102005 -1.3714
54.257 37.7176018 -1.23380005
54.2989998 37.6950989 -0.518000007
54.2598 37.9133987 -1.023
54.5639992 27.1532001 -1.47479999
54.5442009 27.1334991 -1.13450003
54.4684334 27.2698002 -0.877633333
54.5046005 29.3327999 1.15869999
54.4586983 29.9664001 -0.970499992
54.4140015 32.4878006 -1.32169998
54.6208 27.1828003 -1.12940001
54.6610985 27.4046993 -0.586499989
54.6367989 28.0809994 -0.832000017
54.7673988 28.2063999 -1.74609995
54.6879997 29.9783001 -1.25329995
54.7910995 36.5579987 -0.771300018
54.7382011 36.8451996 -0.412
54.7293015 38.0811005 -0.0935000032
54.8651009 28.2126007 -2.07470012
54.8914986 28.2348003 0.60799998
54.8964996 28.7336006 -1.29939997
54.9625015 29.8005009 -0.122299999
54.9878998 30.0676994 -0.641200006
54.894001 36.3787003 -0.685599983
54.8796997 38.402401 -0.523999989
55.0508003 26.2409 -1.15190005
55.0484009 28.2203007 2.67680001
55.0741005 28.7702007 -1.18589997
55.1419983 29.2308006 0.290399998
55.1939011 29.2910004 0.475300014
55.3902016 26.0955009 -0.87620002
55.3045998 26.2343006 -0.9102
55.3256989 27.6940002 -0.219500005
55.2829018 27.8591003 -0.564599991
55.2122993 28.0447998 -0.470200002
55.3060989 28.1730003 -0.0754999965
55.3568001 28.3959007 -0.73089999
55.3704987 28.8442993 -0.838400006
55.2613983 37.1869011 -1.03069997
55.2825012 37.239399 -1.35210001
55.3502007 37.770401 -0.0810000002
55.4608994 25.7357006 -0.6972
55.5045013 26.1930008 -0.886799991
55.4696007 26.2250996 -1.11415005
55.5195007 27.5620995 -0.730300009
55.4668999 28.2115002 -0.0129000004
55.4821014 28.7884998 -0.930299997
55.5830002 28.9958 0.103799999
55.4272995 28.8770008 0.549899995
55.4544983 31.6774006 -1.50539994
55.4496994 37.6796989 -0.0851999968
55.649601 21.0342999 -2.81430006
55.6172981 26.1317997 -0.93720001
55.6661987 26.0228004 -0.782599986
55.6973 26.6177998 0.254000008
55.6375999 27.4754009 -0.625199974
55.6549988 27.5953999 -0.432099998
55.6717529 27.5627499 -0.362399995
55.6890488 28.1612511 -0.46360001
55.7117004 28.9141006 -0.992399991
55.7349014 29.0969009 -1.23609996
55.7827988 29.0373993 -0.905300021
55.6565018 29.3892002 -1.49520004
55.6763992 36.6996002 -0.197600007
55.8139 26.0932007 -1.30850005
55.8813019 26.0118008 -1.02180004
55.9762001 27.427 -0.544499993
55.8003006 27.6385994 -0.438499987
55.9636993 28.3978004 -0.547999978
55.9541016 28.9491005 -0.912
56.1128998 26.4088993 -1.02049994
56.1990013 27.3243008 -0.522499979
56.1366005 27.4874992 -0.779399991
56.093399 28.7362995 -0.0469000004
56.3875999 23.382 -0.618600011
56.3372002 23.3901997 -0.594500005
56.3782997 25.8967991 -0.730499983
56.2784004 26.0072002 -0.863099992
56.2681007 26.7553997 -0.43779999
56.3773003 26.9237003 -0.548600018
56.3415527 27.1231003 -1.67495
56.3585014 27.3022003 -1.89349997
56.3395004 27.3208504 -1.22239995
56.3866005 27.3871002 -1.17560005
56.206501 27.4148006 1.63380003
56.3181 28.7481003 1.89909995
56.2789001 28.9037991 -1.03209996
56.3241997 29.0746994 -1.39779997
56.5788994 26.4783001 -0.971199989
56.4761505 27.1446495 -1.55430007
56.5096016 27.3955994 -1.74580002
56.5219002 27.3553009 -1.27129996
56.5460014 28.2495003 -1.26040006
56.4693985 28.6776009 -0.838800013
56.4397011 39.6946983 0.639100015
56.7098999 22.8934002 -0.764999986
56.7703018 23.7427998 -0.484800011
56.6361008 23.8043995 -1.07519996
56.668499 23.9822998 -0.570599973
56.7561989 24.3598003 -0.817600012
56.7008018 26.0683002 -0.62440002
56.7154007 26.6907005 2.05900002
56.7003479 27.3227501 -1.55605006
56.7398987 28.4512005 1.34510005
56.9163017 22.4421005 -0.206699997
56.8671989 22.7574005 -0.256500006
56.8354988 22.6937008 -0.116599999
56.8693008 23.7763996 -1.43369997
56.9059982 23.6758995 -1.17279994
56.9880981 23.6285992 -0.599399984
56.9788971 23.8331985 -1.36629999
56.9491997 24.2917004 -1.0474
56.8037987 24.2558994 -0.966600001
56.8330994 26.6478996 -0.0269000009
56.8356018 27.1443996 1.77129996
56.8806 27.2965012 -1.41190004
56.9911995 28.4069004 0.586700022
56.9164009 35.9968987 -0.41080001
56.8330994 39.0387993 0.619400024
57.1222992 23.9477005 -1.32379997
57.0914993 24.7303009 -1.57519996
57.0102005 29.4944992 1.86389995
57.3628998 22.3498001 -0.0262000002
57.3496017 24.7304001 -1.5158
57.2680511 24.6860504 -1.32165003
57.2274017 24.8810997 -0.58950001
57.2696991 26.0167999 -0.797900021
57.3521004 27.5510006 0.926699996
57.3193016 27.7413998 2.22169995
57.3008003 28.0881996 0.474900007
57.2036018 39.9603996 1.53540003
57.4006996 20.0384998 -1.21570003
57.5622025 20.0654507 -1.16000009
57.4048004 24.7215996 -1.32060003
57.4826012 25.8598995 -1.23169994
57.5516014 26.3066998 -0.755999982
57.6573982 20.0673008 -1.43400002
57.6557007 21.7660007 2.74670005
57.6332016 24.9281006 -1.31040001
57.6076012 26.8367996 2.32080007
57.6814003 28.1539993 -0.468100011
57.6749001 29.0324993 -1.09510005
57.7839012 29.5261002 -1.52740002
57.8059998 20.0307999 -1.13680005
57.895134 20.4589996 -1.51806664
57.8857002 21.7738991 2.91599989
57.9091988 22.6991997 -0.673500001
57.9944992 24.8348999 1.73520005
57.9389992 28.0970001 -0.538600028
57.8913994 28.8883991 -1.56869996
58.0004997 20.4053993 -1.43710005
58.1799011 23.1737995 3.91840005
58.1227989 25.2446003 1.43630004
58.1431999 28.7971992 -1.60549998
58.3755989 21.4662991 3.1710999
58.3302994 26.0610008 0.435000002
58.2445984 28.5393009 -1.50569999
58.3103981 28.7884998 -1.95130002
58.2492981 28.7810001 -1.59070003
58.4147987 21.5035 3.20309997
58.5367012 22.7054005 3.86969995
58.4880981 27.7726002 -1.52830005
58.4286003 27.8724003 -1.39540005
58.593399 28.4076996 -1.29719996
58.5763016 28.7348003 -1.69570005
58.6395988 20.7437 -1.18359995
58.6932983 23.8185997 4.20959997
58.6890984 27.6051998 -1.40250003
58.7789993 28.5112 -1.46099997
58.6085014 28.9759007 -1.72899997
58.7140999 29.0435009 -1.52429998
58.6713982 37.2771988 -1.90649998
58.7155991 37.2391014 -1.69079995
58.8586502 20.4605999 -1.06990004
58.8535995 22.4370995 3.66000009
58.9211998 22.6394005 2.87190008
58.8610992 22.7873001 3.2644999
58.8321991 22.6040993 3.97510004
59.167099 22.2682991 3.70239997
59.0817986 22.5326004 4.34819984
59.1626015 23.2915001 -2.37459993
59.0568008 23.3153992 -2.04040003
59.1931992 23.2581997 -1.70270002
59.1445503 23.3652 -1.35170007
59.1567993 23.3572998 -0.852100015
59.1959 27.5109005 -1.42030001
59.1721992 28.5181007 -1.97979999
59.1577988 28.6611996 -3.23839998
59.1094017 28.7098007 -2.78970003
59.3945007 22.4575005 4.34420013
59.3189011 22.6508999 3.94770002
59.2939987 22.8973503 3.69219995
59.212101 23.1537991 -3.06940007
59.2798004 23.1543007 -2.55150008
59.3307991 23.3488998 -1.24119997
59.2556992 23.4009991 -1.03939998
59.2675018 28.8476009 -1.84469998
59.4532013 21.5960007 1.27079999
59.414299 22.5636005 3.72959995
59.5663986 22.4568005 4.1335001
59.4382019 22.6044998 3
59.5700989 22.8391991 3.61809993
59.4318008 23.2019997 -1.82700002
59.4715004 23.2488995 -1.75929999
59.4193001 23.3519993 -1.25849998
59.7999001 21.1224003 -1.41219997
59.7188988 22.507 3.23600006
59.6337013 23.1459007 3.33509994
59.694252 23.1694984 3.55165005
59.7724991 26.1068001 -0.423700005
59.9054985 20.6618996 -1.52950001
59.8016014 20.7994995 0.944100022
59.9019012 22.6749001 3.9461
59.9944 22.6520996 4.15450001
59.8948669 22.921566 3.71793342
59.9929008 23.1921005 4.46759987
59.9305992 23.2572994 4.61159992
59.9693985 23.6156998 4.16029978
59.8294983 25.2628994 2.35500002
59.9611015 26.1499004 -0.584900022
59.9196014 26.5035 -2.7177
59.9828987 26.573 -1.78600001
59.9884987 26.6480999 -2.13680005
59.9068985 26.6485996 -1.97520006
59.8097992 26.6492996 -1.64180005
59.8502007 26.6944008 -1.31850004
