# .PCD v0.7 - Point Cloud Data file format
VERSION 0.7
FIELDS x y z
SIZE 4 4 4
TYPE F F F
COUNT 1 1 1
WIDTH 28
HEIGHT 1
VIEWPOINT 0 0 0 1 0 0 0
POINTS 28
DATA ascii
62.6763992 -101.209999 2.2177999
62.8974991 -101.276001 2.2974999
63.08815 -101.241302 2.24954987
66.8128967 -106.737999 1.3671
66.9936981 -106.7603 1.78929996
66.9380035 -106.774803 1.92540002
67.0258026 -106.815598 1.74510002
67.138298 -106.847298 1.83519995
67.2742996 -106.834999 1.72300005
70.2049026 -109.159897 1.0273
70.5871964 -102.032097 1.24520004
70.7181015 -109.099899 1.4059
71.0152969 -101.765297 1.12460005
71.4725037 -102.112396 1.08829999
72.1869965 -109.104897 1.51909995
72.7057037 -109.135201 1.38510001
75.6281967 -101.600998 1.72650003
75.7875977 -101.121803 1.42739999
75.7414017 -101.082703 1.96239996
75.9138031 -101.133003 1.44000006
75.9313965 -101.083298 1.78139997
75.8837509 -101.057556 1.90530002
76.1885986 -101.138901 1.38300002
76.0624008 -101.104446 1.50510001
76.0567932 -101.123749 1.72420001
76.0982971 -101.085899 2.02119994
76.3873978 -101.070503 1.3585
76.2753448 -101.064102 1.46070004
