# .PCD v0.7 - Point Cloud Data file format
VERSION 0.7
FIELDS x y z
SIZE 4 4 4
TYPE F F F
COUNT 1 1 1
WIDTH 264
HEIGHT 1
VIEWPOINT 0 0 0 1 0 0 0
POINTS 264
DATA ascii
221.1035 -224.483597 9.59360027
221.224304 -223.073898 6.69710016
221.384598 -222.930603 7.20079994
222.106598 -223.479401 9.54969978
222.165894 -220.123596 11.6722002
222.087708 -220.044907 11.8119001
222.014297 -220.003204 12.1232004
222.344803 -220.867798 11.5737
222.319901 -220.857193 11.8739004
222.221603 -220.727203 11.7571001
222.271255 -220.581604 11.6812
222.367493 -220.261093 11.2159004
222.306305 -220.310593 11.4317999
222.310486 -220.0168 10.5353498
222.311493 -220.003403 10.7860003
222.287994 -220.118896 11.5386505
222.363037 -220.059769 11.7079334
222.463959 -223.643341 13.2688503
222.513672 -223.37088 13.0878248
222.563004 -221.4216 11.9292002
222.565308 -221.399902 12.1766996
222.502441 -220.481506 11.5796499
222.468597 -220.494507 12.0646496
222.558304 -220.325806 10.8549995
222.414795 -220.338501 11.1219997
222.445602 -220.324402 11.3708
222.433105 -220.245651 11.4833002
222.484802 -220.169495 10.7606001
222.501999 -220.104202 10.9172497
222.469025 -220.065262 11.3490334
222.486801 -220.047699 11.4425001
222.5298 -220.115204 11.6421003
222.564606 -220.023605 13.1905003
222.714203 -223.30954 12.93925
222.612305 -223.3228 13.0530996
222.792206 -223.287994 13.2200003
222.636597 -221.282898 11.9925003
222.743301 -220.654099 13.5453997
222.71875 -220.549805 11.1172009
222.793793 -220.4272 11.2814999
222.749695 -220.436798 11.9668999
222.686401 -220.308411 11.4834499
222.667206 -220.313004 11.9661999
222.636093 -220.289505 12.5721998
222.759399 -220.215393 12.7776003
222.684402 -220.138397 11.5452995
222.773895 -220.103104 11.6478996
222.906204 -223.388901 12.9141998
222.854706 -223.339096 13.3592997
222.877899 -223.199005 13.0642004
222.973907 -220.803207 11.3450003
222.811707 -220.880005 13.1398001
222.86795 -220.667847 11.3013496
222.9664 -220.630203 11.4640999
222.983597 -220.405197 11.1118002
222.828705 -220.473206 12.0964003
222.806595 -220.371796 11.1744003
222.938141 -220.369202 11.2994499
222.947098 -220.345596 11.5574999
222.914307 -220.351303 11.7862997
222.801407 -220.376205 12.0953999
222.881195 -220.306305 12.2158003
222.933502 -220.214401 12.5021
222.838409 -220.087601 11.5063496
222.846497 -220.1315 12.2810001
222.897507 -220.019608 12.4893999
222.993607 -220.036194 12.6106005
223.007507 -222.097397 13.7336998
223.185699 -221.607605 13.2528
223.1436 -221.525497 11.3795996
223.029907 -221.434494 13.1913996
223.036102 -221.356293 13.4336996
223.011505 -220.890396 12.9132004
223.079895 -220.725906 11.3106003
223.102402 -220.6642 12.2397003
223.175003 -220.440704 11.1486998
223.025406 -220.501907 12.2349997
223.070404 -220.466293 12.5149002
223.030899 -220.442307 13.2118998
223.028442 -220.270508 11.3280506
223.071503 -220.290894 11.5001001
223.1436 -220.206207 12.5375996
223.030304 -220.177307 12.4533005
223.376007 -223.214005 13.0776997
223.314606 -223.186401 13.1864996
223.253693 -221.722595 13.3009005
223.268997 -220.629807 11.6710997
223.254593 -220.643707 12.4605999
223.243607 -220.585907 11.4997997
223.386505 -220.579498 11.6365995
223.253799 -220.571396 12.1554003
223.258408 -220.445999 12.3203001
223.282104 -220.47345 12.4060993
223.330597 -220.348099 11.7758999
223.365204 -220.328705 12.2053003
223.357697 -220.266693 13.2702999
223.260895 -220.139603 12.7219
223.598404 -223.257599 12.8657999
223.566406 -221.983597 13.5015001
223.599701 -221.785095 11.5553999
223.545197 -221.002502 11.6969995
223.537994 -220.751404 12.6877003
223.4673 -220.405701 11.5320997
223.472794 -220.425705 11.6849003
223.473495 -220.583298 12.6248999
223.588806 -220.0047 10.9095001
223.453705 -220.116104 11.1300001
223.760696 -223.537994 13.8021002
223.6604 -222.217102 12.9420004
223.677994 -221.639206 12.9814997
223.798904 -220.850998 11.5572996
223.763596 -220.843994 14.1185999
223.617294 -220.267395 11.1489
223.638596 -220.110504 10.9745998
223.902695 -223.759705 13.8278999
223.917999 -223.496094 13.8781004
223.873199 -222.793503 12.7882996
223.970901 -222.169296 11.3323002
223.996506 -220.215393 11.3099003
224.007401 -220.446793 11.1000996
224.048904 -220.377197 11.0809002
224.107697 -220.230103 11.2146997
224.173538 -220.086761 11.3555002
224.099396 -220.162399 11.5011997
224.244202 -220.452698 11.2588997
224.308701 -220.437607 12.3558998
224.330795 -220.339706 11.0291996
224.217194 -220.089005 11.0558004
224.304199 -220.011902 11.2391005
224.271103 -220.014801 11.4301004
224.470901 -221.076904 12.1630001
224.591995 -220.931107 11.5094995
224.578293 -220.881699 11.6134005
224.513901 -220.845398 12.5579996
224.527603 -220.647095 12.5970001
224.509003 -220.469803 11.1640997
224.409393 -220.565002 11.2929001
224.509399 -220.303741 11.1236
224.534805 -220.310333 11.2745667
224.430801 -220.052399 11.0581999
224.429001 -220.091705 11.2896996
224.515305 -220.124405 12.8369999
224.71991 -220.65155 11.5843506
224.656998 -220.738602 12.6212997
224.696793 -220.473999 12.8234997
224.708496 -220.230347 11.3331499
224.719406 -220.286499 12.1377001
224.662399 -220.056702 11.3873997
224.751907 -220.022003 12.1052999
224.740814 -220.075134 12.8463001
224.851898 -221.0952 11.7948999
224.8237 -221.075195 11.8484001
224.824707 -220.978394 11.6691999
224.962601 -220.4077 11.2384005
224.85791 -220.303528 11.3452005
224.873703 -220.228897 12.9335003
224.855194 -220.031204 11.3655996
224.837006 -220.132797 12.4392996
224.955307 -220.036102 12.8404999
225.142502 -220.513306 11.1815004
225.114197 -220.182907 11.4219999
225.028198 -220.147095 12.8600998
225.371201 -224.772507 12.6255999
225.338806 -221.016205 10.0827999
225.360596 -221.083405 12.2175999
225.246506 -220.908005 13.9490004
225.288391 -220.108612 12.901
225.513596 -222.552902 13.0207005
225.460999 -220.880798 13.9743004
225.478302 -220.881897 14.0131998
225.500198 -220.019699 10.1896
225.507599 -220.179199 12.7119999
225.606796 -224.594696 13.3141003
225.709595 -221.261002 13.0958004
225.792099 -220.137894 11.9796
225.723602 -220.114594 12.7235003
225.787506 -220.074005 13.3882999
225.872696 -224.171097 13.5937996
225.977203 -220.896652 13.2236004
225.964203 -220.970993 13.5546999
225.967194 -220.451202 12.4581003
225.981796 -220.189301 12.6822004
225.843903 -220.156494 13.1281004
225.817795 -220.141006 13.3808002
225.907196 -220.064194 13.5353003
226.1922 -221.807602 13.2551003
226.110718 -221.081528 13.3201599
226.039902 -220.957306 13.2880001
226.046051 -220.964386 13.4282494
226.086548 -220.748413 13.5506001
226.193207 -220.516907 12.5355997
226.176804 -220.233902 12.2617998
226.154999 -220.244904 12.5742998
226.070801 -220.3479 12.69695
226.007507 -220.064804 13.3119001
226.178604 -220.002304 13.5351
226.2444 -224.902496 12.9572001
226.223007 -221.634705 13.4414997
226.347397 -221.266495 13.3274002
226.395599 -220.480804 12.2839003
226.317566 -220.468903 12.5196333
226.346603 -220.208099 11.9231997
226.309204 -220.249603 12.8357
226.208099 -220.087906 12.8878002
226.247406 -220.043106 13.5487003
226.556595 -221.191803 11.9483995
226.459366 -221.168869 13.3109665
226.457138 -221.089569 13.5197001
226.596497 -220.767502 12.1246996
226.490555 -220.700439 12.3313503
226.500488 -220.500458 12.2868004
226.4552 -220.283096 11.6220999
226.480042 -220.273346 12.7364502
226.49231 -220.277802 12.8868504
226.496094 -220.137207 11.5648003
226.441299 -220.159897 12.7862997
226.685303 -221.371704 13.2280998
226.632706 -221.084106 13.5228996
226.795807 -220.908096 11.9196997
226.695435 -220.834763 12.1367664
226.696594 -220.915558 12.2357998
226.702896 -220.639404 12.415
226.674698 -220.537994 12.4504004
226.645203 -220.015106 11.7987003
226.748093 -220.126801 11.8734999
226.994507 -222.133499 12.4761
226.863403 -221.922195 12.3022003
226.923401 -221.227356 12.5317993
226.920898 -221.152405 12.2966995
226.985107 -221.018204 12.4749002
226.863602 -220.837006 12.125
226.909637 -220.877701 12.3089504
226.916 -220.887695 12.4349003
226.801498 -220.617798 12.4136
226.810303 -220.482193 11.5806999
226.8936 -220.504303 12.6936998
226.910263 -220.210526 11.4823999
226.858002 -220.035995 11.2870998
226.848495 -220.147995 11.8153
227.057602 -224.877304 13.0604
227.1082 -224.721893 12.9986
227.022705 -224.046799 13.2552004
227.037506 -221.410706 12.6183996
227.126297 -221.214905 12.4039001
227.057999 -221.182999 12.0401001
227.005249 -221.160553 12.5933495
227.031906 -221.141495 12.7820997
227.159836 -220.828827 11.8959665
227.009506 -220.881302 12.1323996
227.177505 -220.710403 11.6847
227.020203 -220.266296 11.5309
227.167496 -220.073898 11.1538
227.014099 -220.188202 11.5009003
227.299606 -220.929993 12.1690998
227.209106 -220.941498 12.2572002
227.353104 -220.553101 11.5636997
227.5755 -221.238007 11.2515001
227.5448 -220.775848 11.7364998
227.701294 -222.167496 12.0361996
227.976303 -221.6409 11.6382999
227.844604 -221.378693 11.8465996
227.974106 -221.151199 10.5318003
228.054001 -221.532394 11.5410995
235.165207 -239.788803 7.18450022
