# .PCD v0.7 - Point Cloud Data file format
VERSION 0.7
FIELDS x y z
SIZE 4 4 4
TYPE F F F
COUNT 1 1 1
WIDTH 1912
HEIGHT 1
VIEWPOINT 0 0 0 1 0 0 0
POINTS 1912
DATA ascii
180.139603 -99.4890976 2.95120001
180.138794 -99.3463974 3.03419995
180.118103 -83.2222977 11.8741999
180.0681 -82.361702 13.3278999
180.186096 -81.6345978 9.04069996
180.007401 -81.3874969 10.3298998
180.079697 -81.0311966 20.5230999
180.182404 -80.9308014 20.4489002
180.005997 -80.7011032 20.3757
180.287903 -99.6573029 2.59649992
180.381104 -99.623703 2.76810002
180.313705 -99.428299 2.07809997
180.242493 -99.4509506 2.4776001
180.272339 -99.4716034 2.71414995
180.240097 -99.5157013 3.12573338
180.28299 -99.5173492 3.26314998
180.2789 -99.3779984 2.34770012
180.273697 -99.3867035 2.41149998
180.220352 -99.3009491 2.65245008
180.258301 -81.9525528 10.5027504
180.387695 -80.8047028 9.12549973
180.269699 -80.9194031 21.9603004
180.294693 -80.6716003 22.1462002
180.326508 -80.1729965 22.2649994
180.45105 -99.6614532 2.36275005
180.446304 -99.6533966 2.53130007
180.404495 -99.6651001 2.86290002
180.554993 -99.5465012 3.3512001
180.454895 -99.5213013 3.40910006
180.507996 -85.0767059 13.1199999
180.598694 -83.9798965 10.1861
180.531006 -82.9757004 10.0625
180.408096 -82.939003 13.0128002
180.553604 -81.9961014 8.07619953
180.400497 -81.0158005 19.7745991
180.701706 -99.6445007 3.17799997
180.651596 -85.1139984 12.0410995
180.758804 -84.5299988 10.2305002
180.601105 -84.023201 10.3641996
180.706406 -84.1632004 11.3444004
180.718903 -83.0983963 10.6042004
180.774506 -82.2388992 7.80700016
180.651596 -80.6231003 6.57410002
180.856003 -84.8040009 11.4337997
180.915802 -84.7746964 10.0958996
180.803894 -83.9285965 10.8231001
180.9366 -83.2835007 11.8921003
180.883804 -82.8414993 8.37590027
180.974792 -82.8921967 10.0658998
180.888306 -81.2639008 6.19089985
181.036804 -85.0491028 10.5007
181.017395 -84.2090988 11.0629997
181.042603 -84.0681992 10.6617002
181.016907 -83.8727036 12.2672997
181.0336 -83.0254974 9.91919994
181.227005 -85.3674011 10.6478004
181.268402 -82.365303 13.8228998
181.295898 -81.0542984 20.8736992
181.300095 -80.7746964 6.48589993
181.287399 -80.4632034 6.0092001
181.369598 -80.5886002 6.35150003
181.355896 -80.5129013 7.60449982
181.324005 -80.2600021 4.59969997
181.535706 -86.5807037 14.0640001
181.548904 -86.2110977 13.9742002
181.446793 -86.0921021 13.6231003
181.595505 -85.9701004 13.5586004
181.591797 -85.1523972 13.8126001
181.442093 -82.5162964 12.6218996
181.460098 -81.7901993 21.3360004
181.584702 -81.2696991 6.41730022
181.5578 -81.1412964 6.40649986
181.485001 -80.7182007 6.0374999
181.409195 -80.5763016 6.15430021
181.750702 -86.4097977 13.8572998
181.717499 -86.5295486 14.3316002
181.716507 -86.5661011 14.4681997
181.700729 -86.2809677 13.9205332
181.789001 -86.3695984 14.2946997
181.601105 -86.1010971 13.9487
181.641296 -86.1930008 14.8556995
181.705795 -85.9123993 13.8079996
181.775208 -85.6401978 13.2643995
181.700897 -85.6380005 14.2348003
181.734207 -85.5375977 13.4013996
181.683105 -85.4151993 14.5698996
181.744293 -85.3326035 13.0948
181.664993 -85.2136993 14.3778
181.642395 -85.1903 13.7861996
181.798401 -84.7072983 12.8957005
181.698196 -82.4301987 6.82110023
181.672195 -81.8412018 5.45300007
181.782501 -81.876297 18.1959
181.772995 -81.7694016 4.99319983
181.623901 -81.7527008 5.41645002
181.787598 -81.5197983 6.07340002
181.657806 -80.8479996 5.81040001
181.701691 -80.471756 15.0976009
181.737793 -80.0631027 13.0799999
181.655396 -80.1539993 22.0216007
181.952896 -93.5287018 3.73709989
181.983795 -93.4996033 4.04920006
181.921204 -93.3564987 4.06799984
181.8172 -86.7286987 13.8894005
181.878952 -86.7264481 14.3019505
181.931503 -86.6298981 14.4850998
181.812698 -86.2444992 13.3483
181.841156 -86.3003998 13.7484999
181.870499 -86.0351028 13.0971003
181.998596 -86.1751022 13.2196999
181.818695 -86.1800003 14.4559002
181.900406 -85.9940033 13.6695995
181.909195 -85.4830017 13.9582005
181.911697 -85.4475021 14.7658005
181.964493 -85.3832016 13.5747004
181.852402 -85.0776978 12.2726002
181.906296 -85.0180969 12.7622004
181.886002 -82.768898 16.5426998
181.814896 -82.1872025 6.58799982
181.925598 -81.7876968 5.97020006
181.94101 -81.4840012 15.3099499
182.1633 -93.6242981 4.12010002
182.081696 -88.2018967 5.56220007
182.084793 -88.1798019 5.72860003
182.170197 -86.8425446 14.4994497
182.089951 -86.7546005 13.6749496
182.162506 -86.7162018 13.9408998
182.008301 -86.5255966 13.5945997
182.024994 -86.4133987 13.6157999
182.0495 -86.2061996 13.2381001
182.165497 -86.3632965 13.5507002
182.160507 -85.8049011 12.7173996
182.188797 -85.7013016 12.5185003
182.044006 -85.7686996 12.9695997
182.008499 -83.3831024 14.5883999
182.127594 -82.3259964 6.31459999
182.009995 -82.2686005 15.4834995
182.035797 -82.0362015 5.5156002
182.089294 -81.9448013 13.9198999
182.0448 -81.7740021 6.38870001
182.076904 -81.1397018 15.2587996
182.348907 -93.8009033 3.82019997
182.299698 -93.9697037 4.171
182.372604 -93.9466019 4.25579977
182.384705 -93.623497 3.21810007
182.369995 -89.2025986 5.88199997
182.339401 -88.2853012 6.48210001
182.371597 -86.7741013 14.1211996
182.231995 -86.7003021 14.3044004
182.372406 -86.0631027 12.8584995
182.362595 -85.6443024 12.3318996
182.334503 -85.6643982 12.6349001
182.298599 -85.5226974 12.6084995
182.205002 -84.4162979 4.69859982
182.317902 -84.5021973 11.3649998
182.210693 -84.1400986 14.5087996
182.322601 -83.0221024 16.1767006
182.351898 -82.9329987 14.5620003
182.324402 -82.9949036 16.3300991
182.544205 -94.7105026 3.40310001
182.452301 -94.5981979 3.23639989
182.568298 -93.7309036 3.21630001
182.501602 -93.6025009 3.61240005
182.510696 -92.6006012 4.77559996
182.573303 -92.5217972 4.8375001
182.558899 -87.3612976 6.81479979
182.408707 -86.0398026 13.3626003
182.477005 -85.9192963 13.0060997
182.512299 -83.9982986 15.1764002
182.418396 -83.1593018 16.4584007
182.427505 -82.7120972 15.7799997
182.497803 -82.7755966 15.9878998
182.412704 -82.7511978 19.7810001
182.587494 -82.710701 20.8290005
182.516907 -82.4288025 19.8391991
182.5336 -81.9380035 15.4392996
182.502701 -81.6113968 14.8354998
182.510895 -81.3263016 12.5853004
182.480896 -80.6875 5.80170012
182.739105 -95.3242035 2.7328999
182.638397 -94.4567032 3.71499991
182.691299 -94.084198 3.94619989
182.731705 -93.8590012 3.86030006
182.639206 -93.7015991 3.47720003
182.776001 -93.6277008 3.72810006
182.667099 -93.7086487 3.92645001
182.667801 -93.6399002 4.40530014
182.697006 -93.2453995 3.72580004
182.610397 -92.4832993 4.8842001
182.755203 -92.5803986 5.02229977
182.761307 -90.1106033 5.97410011
182.608307 -88.742897 5.29729986
182.725204 -87.0317993 3.5532999
182.776199 -87.1628036 3.66330004
182.715607 -85.6662979 13.5707998
182.687103 -85.5824966 13.6178999
182.764999 -84.0143967 11.0573997
182.653305 -83.3604965 5.22599983
182.760101 -82.9352036 4.1487999
182.633194 -82.8153992 5.71829987
182.748398 -82.9309998 18.3269997
182.704269 -82.7048645 5.27473307
182.742004 -82.558403 15.8332996
182.670502 -82.463501 20.4733009
182.623505 -82.3475037 14.3043003
182.721893 -82.0401993 15.1413002
182.729507 -81.365097 17.7973995
182.852097 -95.6649475 2.7109499
182.897293 -95.5614014 2.62220001
182.949005 -94.6678009 3.10689998
182.856995 -94.6873016 4.00790024
182.847504 -94.5429001 3.66840005
182.953003 -94.2991028 3.77049994
182.887695 -94.3040009 3.91869998
182.953201 -94.0938034 3.91420007
182.835098 -93.7757034 3.55040002
182.974792 -92.9746017 4.69360018
182.859299 -92.5920029 4.75509977
182.862106 -92.3319016 4.52680016
182.835007 -87.6485977 2.71589994
182.991394 -87.3407974 3.66960001
182.825104 -87.2277985 3.83369994
182.8517 -87.1361008 7.28420019
182.821701 -86.9134979 5.84079981
182.818604 -86.2546005 13.9568996
182.923004 -85.8338013 4.16720009
182.900848 -85.9465027 13.6887999
182.896103 -83.8858032 4.50379992
182.914307 -83.7562027 4.51970005
182.906006 -83.243103 3.29390001
182.854294 -83.0271988 4.07590008
182.966797 -82.6792984 15.9415998
182.840897 -81.9682999 4.81669998
182.868195 -80.3878021 16.8847008
183.113495 -95.7959976 2.62949991
183.172394 -95.6837006 2.9447999
183.040894 -95.517601 2.86089993
183.050995 -94.6008987 3.09899998
183.099396 -94.4950027 3.49760008
183.086548 -94.4918289 3.72694993
183.149902 -93.6277008 3.24309993
183.183304 -93.6710968 3.43860006
183.100464 -93.5322495 3.33949995
183.065399 -93.4681015 3.44639993
183.105896 -93.5914001 3.60349989
183.163406 -92.6855011 4.53399992
183.166702 -89.6755981 3.37179995
183.1548 -89.3218994 5.49300003
183.158707 -88.762001 5.3671999
183.145905 -88.3603973 6.27120018
183.181 -88.086998 3.56690001
183.009399 -87.8145981 2.74000001
183.015701 -87.4161987 3.4295001
183.162201 -87.4561996 3.92659998
183.047104 -87.2518005 3.84739995
183.0009 -87.342598 6.39750004
183.070602 -86.9837036 5.59159994
183.172302 -86.5054016 4.78529978
183.038895 -86.5759964 4.8368001
183.114807 -86.2730026 4.33029985
183.009293 -86.086998 13.6759005
183.029205 -86.196701 13.9024
183.050003 -85.8089981 4.0539999
183.123703 -85.8566971 13.3875999
183.145706 -83.1976013 4.09619999
183.076294 -83.0334015 4.27050018
183.149704 -82.9589005 20.5639
183.084396 -80.6261978 5.34660006
183.353806 -95.9798965 2.98090005
183.357407 -95.6427002 2.86299992
183.276199 -94.8060989 3.19510007
183.272247 -94.7344055 3.33190012
183.2883 -94.7263031 3.41330004
183.227402 -94.4190979 3.40359998
183.247406 -93.7433014 3.21659994
183.376907 -93.6289978 3.52649999
183.304306 -92.468399 4.00409985
183.3815 -90.7698975 4.18349981
183.255707 -89.3001022 3.2263
183.207901 -89.0401993 2.89199996
183.380005 -89.1138 5.38219976
183.218506 -88.9652023 6.46470022
183.317993 -88.2161026 3.63439989
183.368607 -88.0370026 3.00270009
183.327896 -88.1798019 4.80719995
183.323105 -87.9866028 2.92479992
183.218597 -87.8743973 3.2349999
183.316696 -87.6035995 4.94969988
183.297104 -87.4664001 4.35580015
183.3349 -87.5535965 4.63740015
183.357407 -86.936203 5.54449987
183.326401 -86.4621964 4.59140015
183.271393 -86.4596024 4.76070023
183.2733 -85.6501999 3.95600009
183.266998 -85.6780014 4.11149979
183.266296 -84.6094971 4.75710011
183.355804 -84.7304993 4.97949982
183.392807 -84.5784988 12.8873997
183.242096 -83.8865967 4.25229979
183.240402 -83.3796005 16.0025997
183.387802 -82.6307983 16.9608994
183.274994 -82.5059967 20.4829006
183.388504 -81.8318024 17.9015999
183.319901 -81.1387024 5.07870007
183.470627 -95.7312317 3.31776667
183.518005 -94.2639008 4.15840006
183.462891 -93.9540482 3.42624998
183.421997 -93.5784988 3.41199994
183.447601 -92.7366028 4.05380011
183.525146 -90.7062073 4.17434978
183.559097 -89.751297 3.11730003
183.593094 -89.2465973 2.43980002
183.429993 -89.3384018 3.10220003
183.568604 -89.1949005 2.48909998
183.566696 -89.1546021 3.01259995
183.4935 -88.4327011 6.2743001
183.596695 -88.0118027 3.3203001
183.522202 -88.1507034 3.53530002
183.592606 -88.0106964 3.7039001
183.477905 -88.0695038 3.8046
183.4767 -87.7546997 3.85089993
183.519608 -87.7771988 4.22319984
183.545395 -87.6555023 4.64455032
183.496902 -87.6650009 5.0394001
183.581604 -87.7742996 5.27890015
183.464005 -86.6817017 5.13469982
183.544403 -86.4422989 4.54139996
183.514099 -86.2734985 4.55310011
183.5392 -86.0999985 4.19010019
183.400101 -86.1100998 4.4520998
183.406799 -86.0493011 14.4794998
183.583099 -83.8059998 4.03380013
183.542603 -83.528801 7.20069981
183.434906 -82.7537994 15.8460999
183.503494 -82.7861023 17.1093006
183.406403 -82.4754028 3.81130004
183.529297 -82.2981033 19.5221996
183.501205 -82.129097 18.1483994
183.566299 -81.4421997 18.2511997
183.638199 -95.8440018 2.94930005
183.754105 -95.8356018 3.10235
183.641998 -95.6561508 2.55859995
183.628693 -95.7406006 2.60459995
183.649307 -95.7434998 3.6802001
183.646103 -95.7779007 6.94829988
183.780594 -95.5572968 2.34120011
183.709106 -95.5824966 3.2335999
183.752502 -95.2120972 2.91860008
183.743896 -95.0846024 2.55245018
183.792892 -94.9477005 3.36199999
183.770096 -94.5251999 3.7119
183.700394 -94.2997971 3.44229984
183.720093 -94.385849 3.71895003
183.740906 -94.3046494 3.87139988
183.719604 -94.3375015 4.20170021
183.610306 -94.1013031 3.26329994
183.7435 -94.1470032 3.52209997
183.689804 -94.1032028 3.80990005
183.676895 -94.1351013 4.17869997
183.721741 -93.6800995 3.4286499
183.688995 -93.4826965 3.17799997
183.757507 -93.5006027 3.24799991
183.761093 -93.5159988 6.20590019
183.644394 -90.6405029 4.14629984
183.729797 -90.5927963 3.45440006
183.756805 -90.3380966 5.22179985
183.798294 -89.6925964 3.0302
183.768402 -89.5344009 3.02579999
183.608704 -89.5455017 10.6567001
183.647339 -89.270401 3.02340007
183.781403 -89.3090973 3.25049996
183.755402 -89.1857986 2.96620011
183.741898 -88.6738968 2.97650003
183.797607 -88.7752991 3.16580009
183.662598 -88.7718964 4.50969982
183.666306 -88.7077026 6.07969999
183.630798 -88.7440033 7.11059999
183.699142 -88.5014725 2.72463346
183.726593 -88.5197983 2.88520002
183.760895 -88.4122009 3.0625
183.664948 -88.2375031 3.26274991
183.754501 -88.3258514 3.55599999
183.766495 -88.1930008 3.23020005
183.738007 -87.8945999 4.84439993
183.781296 -87.7817993 4.16610003
183.775604 -87.7246017 4.4289999
183.647202 -87.6838989 4.87389994
183.692444 -87.5897522 4.35050011
183.757202 -86.6682968 3.19700003
183.784393 -86.6473007 4.83549976
183.750595 -86.7188034 5.08039999
183.602097 -86.3519974 3.40300012
183.630203 -86.2226028 4.49350023
183.685806 -84.9309998 3.78679991
183.672699 -84.9713974 11.5888996
183.759644 -83.7189026 3.97135019
183.779907 -83.7089005 4.12869978
183.707794 -83.5677032 3.53900003
183.704041 -83.4676514 3.65679979
183.726395 -83.4100037 17.2367001
183.624207 -83.2045975 3.97259998
183.743393 -83.1109009 17.2327995
183.6884 -82.885498 19.6751995
183.766006 -82.7727966 19.1872997
183.608002 -82.6606979 19.6441994
183.88945 -96.7019043 2.90845013
183.910294 -96.7406998 3.07789993
183.9216 -96.5233994 2.81019998
183.919907 -95.9150009 2.31789994
183.877548 -95.8952026 2.74240017
183.932449 -95.8639984 2.88590002
183.878693 -95.8507004 3.05800009
183.864197 -95.8361969 3.44300008
183.937195 -95.7650986 3.08780003
183.925598 -95.5446014 6.52089977
183.813995 -95.2073975 2.35520005
183.899704 -95.3544006 2.52559996
183.937302 -95.1412964 3.39319992
183.898407 -95.0391998 3.5309999
183.916397 -95.0701981 3.62120008
183.842606 -94.9842987 3.55480003
183.882202 -94.7846985 3.78979993
183.986603 -94.2030029 2.50180006
183.955704 -94.0319977 2.7177
183.840607 -94.177002 3.88470006
183.800598 -94.1884003 4.10379982
183.986603 -93.9030991 2.97650003
183.887497 -93.5036469 3.24125004
183.862793 -93.5942001 3.48219991
183.907394 -93.3386993 2.95539999
183.919693 -93.3585968 3.10089993
183.872696 -93.3175964 6.01550007
183.972397 -92.9949036 4.7881999
183.801804 -92.1593018 3.95239997
183.837402 -92.1808014 4.74020004
183.869797 -91.8742981 5.38800001
183.907104 -91.5409012 3.54299998
183.958496 -91.2076035 3.95889997
183.847305 -91.0659027 9.77750015
183.837738 -90.9165497 4.28725004
183.902496 -90.6703033 3.49539995
183.956802 -90.6179962 3.74569988
183.912003 -90.7630997 4.20870018
183.803207 -90.5460968 3.67529988
183.938202 -90.0487518 3.06640005
183.905243 -89.7633362 2.88279986
183.805893 -89.7287979 5.10680008
183.962601 -89.161499 5.32609987
183.846497 -88.9351044 2.76629996
183.801193 -88.8292999 4.33150005
183.911407 -88.7454987 4.60109997
183.865906 -88.5635986 3.18490005
183.814301 -88.2509995 3.38709998
183.803802 -88.2100983 3.53570008
183.826004 -88.2481995 3.63429999
183.856293 -88.0950012 3.66970015
183.91983 -88.0744019 4.0899334
183.906891 -87.9028015 4.25005007
183.833496 -86.8607025 2.27990007
183.919601 -86.9828033 2.53710008
183.944901 -86.8042984 3.35829997
183.925003 -86.7771988 3.23799992
183.942902 -86.7106018 4.91069984
183.912399 -86.6130981 5.57229996
183.997101 -86.4747009 5.77850008
183.957199 -84.8100967 3.41919994
183.966751 -84.4502487 2.90794992
183.929794 -84.4197998 3.07730007
183.913605 -84.3290024 3.09450006
183.835007 -83.6166 3.36240005
183.84465 -83.6109467 3.49160004
183.904404 -83.6535034 3.97420001
183.851593 -83.324501 3.78990006
183.998993 -82.9487 16.7821999
183.802002 -82.6088028 19.6019001
183.863007 -82.3121033 4.67990017
183.974701 -82.0009995 17.1646996
183.942902 -82.1044006 17.7728996
183.810806 -82.0400009 19.2793007
183.962799 -81.8825989 17.4172001
183.972397 -80.4057999 4.49790001
184.152557 -96.895752 2.92554998
184.139099 -96.7064972 3.09660006
184.150497 -96.7076035 3.2190001
184.025604 -96.4144974 2.75379992
184.084503 -96.3702011 2.8276999
184.154007 -96.1267014 3.00830007
184.107498 -95.8753738 2.68232489
184.085205 -95.8992996 2.81139994
184.094299 -95.7706985 2.5394001
184.160095 -95.7745972 2.73979998
184.059204 -95.4196014 3.81089997
184.099899 -95.3853989 2.38389993
184.087799 -95.3721008 3.65899992
184.079498 -95.0231018 3.09920001
184.037399 -95.1617966 3.74370003
184.129089 -94.2357941 2.67855
184.022797 -94.2600021 3.3914001
184.032196 -94.0205002 2.77749991
184.018005 -94.0763016 2.9059
184.031296 -93.8643036 2.70079994
184.061707 -93.6400986 2.62030005
184.122162 -93.6233063 2.91974998
184.093506 -93.7473984 3.70689988
184.080505 -93.6797028 4.20639992
184.129898 -93.572998 2.53719997
184.077194 -93.4601974 2.75399995
184.083603 -93.2524033 3.09780002
184.151993 -93.2958984 5.68209982
184.108398 -93.1309967 2.81159997
184.019104 -93.0760498 4.67455006
184.045105 -93.0849991 5.86129999
184.018799 -92.9901962 4.7638998
184.147095 -92.039299 5.28299999
184.167404 -91.7387009 5.26140022
184.175003 -90.888298 3.39439988
184.094696 -90.060997 3.55710006
184.108505 -89.843399 2.73779988
184.038895 -89.9236984 3.12779999
184.0578 -89.7436981 2.47410011
184.109406 -89.7564011 4.67460012
184.011093 -89.7182999 10.1891003
184.084198 -89.0362015 2.8519001
184.091202 -88.8720016 3.91490006
184.1064 -88.7782974 3.73850012
184.1436 -88.6716995 4.1637001
184.184509 -88.7435989 4.45935011
184.172897 -88.7862015 6.15189981
184.141098 -88.5574951 4.48874998
184.171494 -88.0820007 2.49499989
184.066696 -87.952301 2.69309998
184.089005 -87.6264038 2.5007
184.024704 -86.9975967 2.25149989
184.122498 -84.922699 3.52640009
184.151199 -84.7436981 3.0480001
184.160095 -84.5551987 2.72129989
184.086197 -83.6815491 3.52255011
184.173996 -82.9924011 18.2282009
184.184799 -82.7500992 2.96020007
184.152893 -82.737999 3.98270011
184.129807 -82.2652969 19.0419998
184.135406 -81.9689026 18.9209995
184.026993 -80.5534973 4.52390003
184.180405 -80.2246017 4.88450003
184.335297 -97.009903 2.88890004
184.257599 -96.7861023 3.13770008
184.205399 -96.6927032 3.2249999
184.391006 -96.6446991 5.17659998
184.2202 -96.4577026 3.02349997
184.315598 -96.3280029 2.58069992
184.342499 -96.3050003 2.86520004
184.231094 -96.214798 3.49609995
184.389801 -95.7329025 6.88679981
184.347198 -95.2734985 3.31480002
184.279099 -95.0451965 6.32060003
184.201904 -94.9079971 5.83830023
184.269562 -94.3516541 2.44904995
184.244904 -94.2089996 2.91610003
184.304092 -94.3391037 6.1315999
184.228394 -94.1881027 2.80809999
184.342804 -93.3450012 5.39230013
184.363907 -93.3710022 5.76429987
184.282303 -93.1840973 2.6019001
184.348602 -93.0625992 4.50899982
184.379303 -92.9667969 2.74780011
184.248306 -92.8929977 2.88153338
184.3638 -92.7621994 3.20689988
184.333893 -92.6471024 5.33010006
184.347794 -92.5910034 2.73920012
184.327194 -92.4837036 5.42309999
184.307602 -91.1825027 4.0479002
184.278503 -91.0438004 9.08230019
184.339798 -90.8665009 8.74230003
184.310593 -90.5306015 4.04780006
184.216705 -90.3458023 6.69990015
184.286255 -90.1456985 3.09710002
184.255707 -89.5369034 9.70740032
184.344604 -89.024498 3.64569998
184.371597 -89.1013031 7.07490015
184.312698 -88.8457031 4.17530012
184.327545 -88.8861008 4.91190004
184.212296 -88.7983017 4.13689995
184.327606 -88.6810989 6.24840021
184.252304 -88.2089005 4.1099
184.380005 -88.0893021 3.75119996
184.335007 -87.6567993 2.8506999
184.273102 -86.0604019 4.39319992
184.232193 -84.8722992 3.18370008
184.336807 -84.9144974 3.27870011
184.207794 -84.9674988 3.57809997
184.260193 -84.6696014 2.80979991
184.348999 -83.8384018 6.22550011
184.385193 -83.1162033 3.0855
184.307205 -82.8277969 2.95099998
184.241592 -82.9296036 3.29879999
184.309601 -82.9445038 5.64489985
184.237305 -82.9585037 18.4102993
184.237 -82.7546997 18.0298996
184.274796 -82.4564972 19.4799995
184.396301 -82.0481033 2.77789998
184.559006 -97.0822983 5.09859991
184.597504 -96.6896973 5.10559988
184.423798 -96.572998 2.8664
184.518097 -96.285202 2.76695013
184.553802 -96.1436005 5.27269983
184.588303 -95.9921036 5.29160023
184.560104 -95.6871033 5.10330009
184.531601 -94.8656006 4.17840004
184.400208 -94.9373016 5.66419983
184.541 -94.8578033 6.23839998
184.515594 -94.919899 7.86889982
184.475998 -94.7145004 6.26779985
184.509201 -93.0147018 2.40159988
184.420898 -93.1430969 4.76809978
184.563995 -93.1757965 4.97349977
184.532196 -92.4103012 5.76879978
184.440002 -92.1411972 3.48329997
184.552994 -90.9266968 5.2954998
184.406204 -90.8411026 9.25440025
184.539246 -90.6741028 3.91155005
184.584503 -90.6542969 4.7743001
184.402496 -90.2232971 4.09709978
184.507706 -90.0373001 6.92749977
184.526199 -88.9654007 3.83249998
184.503693 -88.8091965 4.00019979
184.507401 -88.9070969 6.1722002
184.586594 -88.2594986 3.65890002
184.488129 -88.152298 3.76522493
184.499893 -88.142601 3.85759997
184.439499 -87.9627991 3.83270001
184.509399 -87.6287994 2.66989994
184.536102 -84.9623032 3.21160007
184.502502 -84.6104965 3.4625001
184.471497 -84.0231018 5.94579983
184.437103 -83.6036987 3.72849989
184.501404 -83.7144012 3.8979001
184.569901 -83.4026031 2.87709999
184.426102 -83.0317993 5.57910013
184.516495 -83.049202 18.1128998
184.485291 -82.8385468 2.50134993
184.421494 -82.9660034 4.72359991
184.569199 -82.8753967 18.0279007
184.431396 -82.7901993 17.9151993
184.474396 -82.408699 4.2191
184.502594 -82.5189972 20.3430996
184.561905 -82.0170975 2.68840003
184.503204 -82.0951004 18.5541
184.564407 -81.8572998 2.57669997
184.588394 -81.8135986 7.33339977
184.405502 -81.264801 5.04710007
184.669495 -97.1811981 5.0697999
184.713898 -96.6911011 4.98909998
184.612595 -96.5178986 4.97970009
184.795593 -96.2757034 4.7809
184.793701 -96.2005005 4.82299995
184.770493 -96.0605011 4.49170017
184.791504 -96.0533981 5.77869987
184.694595 -95.9420013 4.03970003
184.628098 -95.8728027 4.21929979
184.673904 -95.5597992 4.59919977
184.755798 -95.2053986 4.16599989
184.71315 -95.2530518 4.33119965
184.624496 -95.0130005 3.86439991
184.708405 -95.1296997 4.03319979
184.713196 -94.8679962 5.66769981
184.768906 -94.8411026 7.59630013
184.717407 -94.3324966 3.42529988
184.700699 -93.8991013 4.76020002
184.749298 -93.8723984 4.84490013
184.682449 -93.5275574 2.65464997
184.755905 -93.5363007 5.05959988
184.753906 -93.3096008 5.76130009
184.612793 -92.2829971 5.39239979
184.781097 -92.3598022 5.40549994
184.792603 -92.0056992 3.13639998
184.725357 -91.8969498 3.3197999
184.657104 -89.9483032 6.09959984
184.643707 -89.7942963 3.04500008
184.755096 -89.1260986 3.75340009
184.696899 -89.1729965 4.00320005
184.790894 -89.180603 4.31309986
184.753006 -88.8852005 4.2874999
184.687439 -88.7410507 3.67575002
184.7771 -88.5039978 3.73239994
184.779205 -86.8078995 3.98650002
184.668503 -83.2481003 5.16009998
184.774002 -83.256897 5.44859982
184.600494 -83.214798 5.6177001
184.717499 -83.0485992 2.4914
184.676697 -82.6083984 8.49240017
184.781601 -82.6452026 18.9694996
184.753693 -82.2313995 7.42080021
184.707504 -82.3602982 19.1334991
184.625397 -82.0842972 2.65429997
184.780197 -81.993103 7.22660017
184.753906 -81.7040024 3.08909988
184.715302 -80.3051987 4.26800013
184.825897 -97.1597977 4.85080004
184.974197 -96.915802 4.66309977
184.803894 -96.7554016 4.69780016
184.979004 -96.2345963 3.7119
184.829803 -96.2378998 4.61280012
184.95755 -96.1579437 3.71965003
184.965393 -96.0903015 4.3119998
184.969803 -96.0335999 4.43709993
184.9245 -95.8774033 3.82550001
184.975494 -95.6873016 4.08519983
184.810806 -95.6267014 4.22550011
184.8358 -95.5924988 4.46470022
184.810104 -95.3933029 4.5795002
184.916107 -95.1119003 3.38689995
184.949295 -94.8464966 7.57270002
184.912994 -94.6298981 7.39970016
184.820999 -94.3574982 7.39260006
184.988007 -93.7229004 7.01300001
184.824707 -92.2024002 5.02869987
184.948502 -91.9701004 2.76390004
184.826706 -91.7382965 3.05929995
184.889297 -91.6712036 5.08690023
184.9655 -90.8202972 8.47640038
184.928696 -89.9677963 6.0065999
184.812103 -89.9125977 6.20529985
184.964203 -89.1638031 6.52680016
184.821793 -88.9757996 3.44709992
184.973495 -86.5535965 10.9705
184.812805 -84.7306976 3.35640001
184.841095 -84.3016968 5.94729996
184.929001 -83.796402 3.58890009
184.860107 -83.6163025 5.23129988
184.845093 -83.5205994 5.58970022
184.984299 -81.969902 3.33419991
184.939301 -80.4824982 3.91630006
184.957108 -80.4123993 4.38119984
185.132095 -96.8963013 4.54120016
185.195801 -96.5911026 4.67560005
185.126205 -96.2527008 2.78460002
185.062805 -96.2124023 3.3440001
185.145218 -96.282547 3.85952497
185.069901 -96.1981964 3.89129996
185.004303 -96.1269989 4.15049982
185.183701 -96.0399017 4.33479977
185.153397 -95.8892975 4.12699986
185.174301 -95.4318008 4.22160006
185.087494 -95.3277969 3.89529991
185.143799 -94.5290985 4.45709991
185.139496 -94.2872009 4.22910023
185.029907 -92.4365005 4.83339977
185.025696 -92.5157013 5.10690022
185.012894 -92.0376968 2.93160009
185.105804 -91.9725037 2.9927001
185.119202 -91.1548004 3.91170001
185.129303 -90.9933014 8.50290012
185.136703 -90.8388977 10.1216002
185.073807 -90.6949005 9.35529995
185.058105 -90.5434036 9.65699959
185.180695 -89.6781998 2.76950002
185.137695 -89.6183014 2.8512001
185.157898 -89.7446976 3.10840011
185.1707 -89.7997971 3.48729992
185.132996 -89.7921982 12.1889
185.193695 -89.5358963 2.73399997
185.123795 -89.1620026 4.37830019
185.038498 -89.0541 4.42880011
185.040802 -88.6647034 3.20350003
185.035995 -88.4294968 4.34600019
185.021805 -88.3239975 4.28259993
185.135406 -86.6503983 9.63339996
185.091507 -84.2549973 2.66689992
185.148605 -84.382103 2.88010001
185.102997 -83.6223984 3.15459991
185.155594 -83.7410965 3.24230003
185.068497 -82.2350006 2.37520003
185.143402 -81.7799988 6.95909977
185.180298 -81.0779037 4.11730003
185.087006 -80.468399 3.13809991
185.155197 -80.5475998 3.83839989
185.127396 -80.3559494 3.92600012
185.091202 -80.1623001 3.11310005
185.394608 -96.8878021 4.22249985
185.224503 -96.7807007 4.3119998
185.287003 -96.7894974 4.44589996
185.206696 -96.4139023 2.48670006
185.354797 -96.2404022 2.66420007
185.240799 -96.2567978 3.99979997
185.294006 -95.6984024 2.42389989
185.385895 -95.4389038 3.8276
185.241501 -95.2189026 4.18389988
185.223297 -95.1985016 5.3137002
185.344498 -94.9017029 3.46255016
185.264694 -94.8830032 7.73839998
185.3461 -94.6228027 4.93230009
185.251694 -94.4273987 4.22830009
185.383606 -93.8550034 4.60330009
185.224503 -93.5296021 8.92679977
185.361603 -93.3375015 5.42649984
185.295395 -92.7664032 5.25209999
185.355499 -92.2658997 3.4526999
185.201904 -89.9410019 6.81619978
185.288605 -89.7562027 3.46289992
185.223404 -89.4029999 11.1623001
185.337296 -89.3915024 11.0803003
185.2724 -88.9933014 10.2629995
185.290298 -88.2656021 2.85560012
185.397507 -84.2636032 2.65429997
185.295105 -84.1436996 2.66919994
185.375198 -84.1790009 3.28970003
185.355103 -83.9235992 2.95760012
185.320297 -82.6140976 2.56340003
185.253799 -82.626503 2.69930005
185.2444 -82.5873032 2.77699995
185.578094 -96.9159012 4.54820013
185.518204 -96.7372971 4.73759985
185.495407 -95.8906021 4.70919991
185.489395 -95.4848022 3.32389998
185.466553 -95.5312042 3.74889994
185.592407 -95.5892029 4.02190018
185.493195 -95.4394989 5.15180016
185.491837 -95.2718658 3.67373323
185.576706 -94.9013977 4.02040005
185.593903 -94.8364029 5.68079996
185.465393 -94.7767029 3.55559993
185.494278 -94.7080154 3.74435997
185.500504 -94.7118988 4.08949995
185.411896 -94.6138992 7.34600019
185.438293 -94.3951035 3.58270001
185.590393 -94.3815994 3.82579994
185.528107 -94.3841019 5.17509985
185.408096 -94.1669006 3.7499001
185.498993 -94.0759964 4.70539999
185.481003 -93.8118973 9.09150028
185.494705 -93.6094971 5.15040016
185.558502 -93.6371002 5.69150019
185.592499 -93.7623978 9.37199974
185.554001 -93.4758987 5.07679987
185.463501 -92.4516983 2.23760009
185.498001 -92.4209976 5.17539978
185.416794 -92.075798 2.91729999
185.517502 -90.441803 2.43219995
185.529099 -90.3843002 2.62649989
185.545502 -90.3107986 2.91930008
185.590103 -90.259201 3.38000011
185.424194 -90.0943985 2.54110003
185.475601 -90.1728973 2.79239988
185.523193 -90.1325989 3.2019999
185.460205 -89.9768982 6.54829979
185.471802 -89.6147995 3.45490003
185.421707 -89.7790985 11.6548996
185.419601 -89.2870026 10.9913998
185.407593 -88.9806976 3.86389995
185.4832 -88.6841965 2.55080009
185.580093 -88.0689011 2.58439994
185.585693 -84.9164963 2.72720003
185.464996 -84.719902 2.94589996
185.542892 -84.4228973 2.64849997
185.428207 -83.4070969 2.579
185.502502 -83.5926971 2.66179991
185.526703 -83.3529968 2.5704
185.433304 -83.3235016 2.66619992
185.420807 -83.1477966 2.48219991
185.425507 -81.0313034 2.59549999
185.462799 -81.1745987 7.14179993
185.585007 -80.8998032 3.41759992
185.489594 -80.6165009 3.06369996
185.753387 -96.9642487 4.34399986
185.6129 -96.2274017 4.06290007
185.686401 -96.3104019 4.32240009
185.7173 -95.9583969 5.73789978
185.775803 -95.8988037 5.82289982
185.628296 -95.6694031 3.32319999
185.654297 -95.6421967 3.648
185.693405 -95.5127029 3.6092999
185.789001 -95.302597 6.58220005
185.608505 -94.8212967 3.5948
185.612305 -94.873703 7.33139992
185.713898 -94.6927032 3.7256
185.619095 -94.7461014 5.03249979
185.763504 -94.0199966 4.95839977
185.705902 -93.8526001 5.51000023
185.634796 -93.8356018 8.74419975
185.617996 -93.5625 9.38990021
185.7099 -92.6932983 9.28219986
185.716202 -92.0719986 2.69659996
185.626801 -90.581398 2.32439995
185.654297 -90.5049362 2.49986672
185.709595 -90.5208969 2.7434001
185.6521 -90.4381027 2.86789989
185.701904 -90.4923019 3.19980001
185.786499 -90.4191971 3.22049999
185.706299 -90.5233994 3.41400003
185.679001 -90.4962997 3.92030001
185.761002 -90.3293991 3.16190004
185.728394 -90.2042999 3.20090008
185.6436 -90.151001 3.4777
185.75737 -89.4888 3.06643343
185.750153 -89.4559479 3.31820011
185.729507 -89.4893036 3.40389991
185.78035 -89.342453 2.5322001
185.680176 -88.6678009 2.47339988
185.759796 -88.2582016 2.30920005
185.631805 -87.4240036 2.00040007
185.772903 -84.4654007 2.19180012
185.712494 -84.5245972 2.35249996
185.610794 -84.3865967 2.50690007
185.755997 -84.2969971 2.66540003
185.620804 -81.5255966 2.31469989
185.783905 -80.8162994 2.64980006
185.741104 -80.6997986 2.73329997
185.635895 -80.7390976 3.16969991
185.8853 -96.2767029 4.25419998
185.997803 -96.1740036 5.93100023
185.879395 -95.6119995 5.68260002
185.820602 -95.7779007 5.97830009
185.953293 -95.5130997 4.07690001
185.9776 -95.5278015 5.71820021
185.913101 -93.4453964 5.97049999
185.930801 -93.3658981 4.59100008
185.999695 -93.0307007 9.17539978
185.9189 -90.6722031 3.29419994
185.826401 -90.7036972 3.52620006
185.920532 -90.5102997 3.12643337
185.980301 -90.4052963 3.56890011
185.856293 -89.4897995 3.72420001
185.964203 -89.1053009 2.54139996
185.844193 -88.2777023 2.82949996
185.920807 -88.3783035 3.08990002
185.915497 -87.8563995 11.3157997
185.994003 -87.2981033 11.8171997
185.846405 -80.6569977 3.09240007
185.914505 -80.1464996 3.29979992
186.146896 -96.2968979 6.01319981
186.122101 -95.2889023 6.19750023
186.192993 -94.822197 7.72550011
186.146606 -93.4350967 2.2277
186.116898 -93.4059982 2.87639999
186.161041 -93.4817047 4.30525017
186.167999 -93.3826981 2.52979994
186.173401 -92.6950989 4.68650007
186.064606 -92.7218018 4.90819979
186.149704 -91.2533035 2.37409997
186.156143 -91.3275299 2.54606676
186.080399 -91.0595016 2.68249989
186.015594 -90.4705963 3.20440006
186.111603 -90.5036011 11.0302
186.057693 -90.3668976 2.72049999
186.064804 -89.7156982 3.55279994
186.042007 -89.7330017 3.67020011
186.039993 -89.0077972 5.36800003
186.377396 -95.827301 2.99699998
186.377197 -95.9609985 3.07800007
186.376602 -95.8088989 3.28069997
186.375397 -95.995697 3.85240006
186.264893 -95.6573029 3.05550003
186.370392 -95.6702499 3.36444998
186.380096 -95.7710037 3.55089998
186.359711 -95.7522507 5.62785006
186.211304 -95.4152985 2.95140004
186.268799 -95.3461456 3.55349994
186.235504 -93.8741989 4.34105015
186.307648 -93.9001999 8.42715073
186.276199 -92.3180008 8.28079987
186.315094 -91.8255997 2.41770005
186.203506 -91.3077011 2.36680007
186.213196 -90.7785034 2.90680003
186.273895 -90.7014008 3.10310006
186.2715 -90.4429016 2.57909989
186.327499 -90.4213028 2.83229995
186.231796 -90.3643036 2.71679997
186.257706 -90.2686996 3.19720006
186.270493 -90.3667984 11.1630001
186.269394 -90.1518021 9.89920044
186.239594 -90.1509018 10.4075003
186.382996 -89.1521988 3.72420001
186.320099 -83.9126968 2.48760009
186.207397 -82.3089981 2.11450005
186.398102 -82.1560974 2.39689994
186.324402 -81.9041977 2.19300008
186.577194 -96.4173965 3.2809
186.520203 -96.4776993 4.38870001
186.563995 -96.3266983 3.63709998
186.483398 -96.1604004 3.27399993
186.501862 -96.1503677 3.44050002
186.419189 -95.9194946 3.29395008
186.484604 -95.9925995 3.52880001
186.534897 -95.9746017 3.73180008
186.401001 -95.7276001 3.44720006
186.432159 -95.7237015 3.73880005
186.406403 -95.5960007 3.35319996
186.435089 -95.5752487 3.50020003
186.404999 -95.5762024 3.79439998
186.586105 -95.393898 2.99559999
186.509003 -95.3147964 4.72200012
186.445297 -93.0472031 10.0379
186.425995 -92.8100967 4.09549999
186.410706 -92.9065018 4.39190006
186.542252 -92.8661499 4.40585041
186.516998 -92.4990005 4.40439987
186.507095 -92.4322968 10.4674997
186.476303 -91.915802 2.25250006
186.432297 -91.7210007 9.94890022
186.403107 -90.9354019 2.97519994
186.560394 -90.2556992 9.9399004
186.428802 -90.2846985 11.2820997
186.588699 -89.6331024 12.6677999
186.456207 -89.2356033 2.87820005
186.483246 -89.3063507 3.04715014
186.404099 -89.1578979 3.48580003
186.567902 -88.9190979 12.6567001
186.546951 -88.710495 12.2712002
186.774902 -96.8337021 3.10290003
186.733994 -96.7889023 3.05710006
186.781296 -96.6715012 5.61660004
186.693604 -96.5419006 2.91869998
186.664703 -96.4572983 3.34559989
186.691925 -96.5143661 3.46746659
186.632446 -96.3475952 3.5000999
186.657196 -96.2575989 4.67789984
186.702393 -96.3005981 5.71239996
186.623993 -96.1875992 3.55209994
186.700607 -95.9156036 4.78539991
186.773697 -95.9940033 5.13789988
186.692596 -94.7017975 7.51100016
186.631805 -94.5926971 6.65579987
186.714203 -93.5267029 7.86530018
186.686996 -93.1233978 8.09249973
186.751404 -92.9399033 9.96500015
186.7146 -90.5394974 10.1622
186.602997 -89.5065002 3.1802001
186.713394 -88.9217987 12.3578997
186.697205 -83.5550003 5.98869991
186.882599 -94.8060989 7.66200018
186.866806 -92.6060028 2.31270003
186.851807 -92.6760025 4.25820017
186.812195 -92.2471008 11.2194996
186.866898 -89.7651978 12.2849998
186.893997 -89.5437012 11.9876003
186.824493 -89.2514038 11.7811003
186.884903 -83.9628983 9.70720005
187.082504 -95.9819031 8.00759983
187.085999 -95.7229996 7.84859991
187.136093 -95.4860992 2.92989993
187.127045 -92.5074005 11.0560999
187.130203 -92.2960968 10.6961002
187.189301 -92.1725998 11.3668003
187.043503 -88.1087036 12.1900997
187.054306 -84.8267975 2.65089989
187.304703 -96.0708008 3.7887001
187.235596 -95.6420975 3.1256001
187.291306 -95.5849991 7.58519983
187.309204 -95.0915985 4.33109999
187.273407 -93.4325027 8.72719955
187.338501 -93.5095978 8.90340042
187.246307 -92.6222992 10.8456001
187.252594 -92.5365982 10.3415003
187.233704 -92.5493011 11.6584997
187.235794 -92.0136032 10.2695999
187.314697 -89.4159012 8.66689968
187.348907 -88.7894974 3.05360007
187.461594 -96.2335968 3.79239988
187.509598 -96.1353989 2.97359991
187.446594 -96.0481033 3.76769996
187.488205 -96.0628967 3.86879992
187.506104 -96.047699 4.16520023
187.443207 -95.8519974 2.87680006
187.479095 -95.8421021 3.90050006
187.480499 -95.5430298 4.46343327
187.541595 -95.3957977 4.17579985
187.506195 -93.4179993 7.92519999
187.522293 -92.9912033 8.46259975
187.755203 -96.2587967 2.98029995
187.776794 -96.3013 3.36849999
187.751404 -96.0084 3.98009992
187.613007 -95.8556976 3.69880009
187.714798 -95.7413025 3.57999992
187.71814 -95.7180939 4.24690008
187.688644 -95.6650543 4.76714993
187.695602 -95.4473038 3.99110007
187.785797 -95.405899 5.40980005
187.688904 -93.4641037 8.19250011
187.617294 -92.6764984 9.13759995
187.708801 -90.3346024 3.7586
187.679092 -88.4459991 12.0532999
187.993607 -96.5892029 3.09540009
187.886902 -96.2176971 3.02130008
187.867798 -96.3238983 3.64639997
187.859039 -96.0899048 4.82649994
187.919998 -95.887001 5.09929991
187.838303 -95.6867981 4.1802001
187.941803 -95.569603 5.20679998
188.061295 -96.4861984 3.25250006
188.009506 -96.0522995 3.92449999
188.017105 -96.1886978 4.82070017
188.121399 -95.8475037 4.10979986
188.104904 -95.8572998 5.21089983
188.029999 -95.771698 5.1243
188.126556 -95.7602005 5.29234982
188.051498 -95.656601 5.48789978
188.171997 -95.6220016 5.63509989
188.036896 -95.1055984 4.10790014
188.141907 -94.8283005 4.14090014
188.079041 -94.6829987 4.10930014
188.075806 -94.4934998 4.27390003
188.128296 -93.6194992 9.0916996
188.334106 -96.7189026 3.00690007
188.382401 -96.0549011 3.74850011
188.233597 -94.8692017 4.60239983
188.343307 -94.5669022 4.03669977
188.317596 -94.4045029 6.41309977
188.309357 -94.1343536 8.56970024
188.345001 -93.9934006 3.94989991
188.309601 -92.4601974 9.86149979
188.457596 -95.4506989 3.64400005
188.470596 -94.8351974 5.94379997
188.457001 -94.6400986 6.27339983
188.545807 -94.4596024 8.51469994
188.768494 -92.527298 7.46780014
188.898102 -96.2501984 5.33930016
188.8013 -95.2042007 6.95800018
188.809601 -95.112999 6.75139999
188.834 -94.9337997 6.22469997
188.847198 -93.8469009 6.11679983
189.223801 -95.2340012 6.63290024
189.384705 -94.6445999 4.35470009
189.255203 -94.2929993 4.83879995
189.336395 -83.572998 16.8122005
189.268707 -83.3985977 17.7749996
189.260193 -83.3356018 18.1555004
189.339798 -82.8147964 16.2420006
189.386703 -82.8261032 16.8579998
189.399704 -82.163002 15.6469002
189.3853 -81.7018967 16.5119991
189.338898 -81.0429001 16.7915001
189.235992 -80.0734024 11.3968
189.390594 -80.1148987 16.4116001
189.529099 -95.6878967 3.05719995
189.481598 -95.2363968 6.60349989
189.523804 -94.9646988 4.09630013
189.539597 -94.8603973 4.38649988
189.590698 -94.814003 4.41709995
189.555695 -87.2095032 16.9836998
189.574493 -85.9348984 14.7629995
189.552338 -85.8513947 15.6168003
189.572403 -85.384697 2.24640012
189.555298 -85.0083008 16.7947006
189.450195 -84.8404007 2.60619998
189.467499 -84.8291016 15.6334
189.520004 -84.8874969 16.2696991
189.534805 -84.7032013 17.3871002
189.493103 -84.5544968 2.47059989
189.522095 -84.4089966 14.8470001
189.5923 -84.4072037 16.0835991
189.4375 -84.1953964 2.45499992
189.417206 -84.0815964 14.4148998
189.526505 -83.8277969 15.7097998
189.571396 -83.8119965 16.1590996
189.497742 -83.9169998 16.5507011
189.485107 -83.9972992 18.2801991
189.516251 -83.5498505 17.8737488
189.541306 -83.3594971 16.7241001
189.415405 -83.080101 5.61460018
189.511993 -83.0223007 11.3290997
189.54126 -83.1463013 16.6977997
189.507996 -82.9725037 13.3851004
189.522598 -82.9268036 15.2313995
189.513702 -82.7370987 13.0452995
189.520294 -82.751503 16.8125992
189.504898 -82.4382019 12.1497002
189.561295 -82.5859985 12.7442999
189.474396 -82.5518036 13.8832998
189.536896 -82.5560989 14.9404001
189.4505 -82.4187012 15.9582005
189.486298 -82.5447998 16.4330997
189.590897 -82.4293976 16.6301003
189.485199 -82.2673035 14.5977001
189.490204 -82.251503 17.0846004
189.451904 -82.1855011 15.3373003
189.538696 -82.1527023 16.0410004
189.5755 -82.0129013 16.2250004
189.480896 -82.1794968 16.469101
189.439407 -82.1324997 16.8612995
189.485046 -82.0679016 17.0713005
189.416504 -81.867897 14.8493004
189.511398 -81.9628983 15.9095001
189.403793 -81.2382965 10.8493996
189.412506 -81.2502975 11.2671003
189.422195 -81.3956985 16.3470993
189.439499 -81.1184006 16.9393997
189.768906 -94.8839035 4.5474
189.754105 -88.8590012 12.4735003
189.758499 -88.4561996 13.9533005
189.722107 -88.0034027 13.9259005
189.689606 -87.7463989 15.3336
189.798798 -87.5768967 14.0521002
189.661301 -87.4615021 16.9577999
189.750198 -87.3948975 14.3961
189.747406 -87.2646027 14.9986
189.752304 -87.2046967 16.8789997
189.666 -86.842598 14.5195999
189.7612 -86.9417038 15.5421
189.647797 -86.8290024 16.8370991
189.694199 -86.7818985 16.9234009
189.741196 -86.4195023 16.4452991
189.779999 -86.2844009 14.4456997
189.794693 -86.2166977 17.0217991
189.743103 -86.0053024 14.3028002
189.7612 -86.052803 14.8788996
189.711105 -86.050499 16.2033997
189.771896 -85.9998016 15.8584995
189.643005 -85.7583008 2.12520003
189.657593 -85.6417999 14.0530996
189.704102 -85.7289963 15.8952999
189.765198 -85.7454987 17.5293007
189.630798 -85.4725952 2.26100016
189.700394 -85.5338974 14.4098997
189.623703 -85.2526016 16.5011997
189.709793 -85.2040024 17.0284004
189.794205 -85.3514023 17.2446995
189.642807 -85.112999 2.05229998
189.624405 -85.0440979 15.3507996
189.781296 -85.0361023 16.5202999
189.788803 -85.1277008 17.3850994
189.740356 -84.9328461 14.8693504
189.752106 -84.9283981 15.6402998
189.661499 -84.9589005 16.4400997
189.714798 -84.694397 15.8580999
189.701904 -84.7733002 16.0284996
189.783401 -84.6200027 16.2367992
189.718399 -84.7561035 16.7259007
189.708801 -84.4926987 14.9658003
189.696548 -84.4463501 16.8624992
189.667389 -84.4924011 17.5064507
189.687256 -84.2186508 16.0858994
189.713593 -84.3886032 16.5293999
189.792892 -84.3361969 16.6774998
189.706299 -84.2723999 17.2854004
189.746002 -84.0624008 12.6496
189.649597 -84.0691986 13.5980997
189.678207 -84.1959 14.4717999
189.611099 -84.071701 17.2980003
189.666504 -83.9439011 14.6791
189.703003 -83.8685989 16.0657997
189.679794 -83.8769989 17.6877003
189.699295 -83.6199036 16.4044991
189.645798 -83.6097031 17.5258007
189.635193 -83.3522034 15.6652002
189.644699 -83.2470016 16.0568008
189.601196 -83.3300018 16.6079998
189.670654 -83.3000488 17.1490002
189.638 -83.1317978 17.5130005
189.641602 -82.9300003 14.1577997
189.612 -82.8591995 16.7980995
189.669693 -82.7525024 15.6774998
189.677399 -82.5625 16.2161007
189.643906 -82.1956024 16.632
189.623901 -81.9529037 16.7903004
189.839539 -94.8714447 4.45935011
189.839798 -94.001503 5.55789995
189.919601 -90.9492035 17.1541996
189.982498 -90.2363968 16.9473
189.994202 -90.1462021 12.4905996
189.886002 -89.6123962 12.4300003
189.998596 -89.1603012 14.9664001
189.917603 -88.995903 14.0600996
189.980606 -88.9212036 16.6303997
189.943497 -88.5661011 10.4750996
189.975204 -88.5362015 12.6071997
189.990494 -88.506897 14.1131001
189.992401 -88.5636978 16.6506996
189.909393 -88.3271027 16.8472004
189.999695 -88.1509018 15.4663
189.8927 -87.9448547 13.5531998
189.882599 -87.8050995 14.7021999
189.990295 -87.9132004 15.0305996
189.954803 -87.9026031 15.9509001
189.929901 -87.6872025 13.5607004
189.878296 -87.6501007 14.4186001
189.953094 -87.7656021 15.3256998
189.926147 -87.6322937 16.3243504
189.9561 -87.5939026 13.1808004
189.974899 -87.4496002 14.7735004
189.885193 -87.4353027 14.8355999
189.919296 -87.256897 14.3597002
189.977798 -87.3578033 15.1531
189.8526 -87.2817001 15.7061005
189.973999 -87.3382034 15.9644003
189.931503 -87.0054016 13.7727003
189.814301 -87.1228027 14.9496002
189.914749 -87.1197052 15.2851505
189.896912 -87.1865997 15.7469997
189.838394 -87.1776962 16.3502007
189.998596 -86.9413986 15.2040997
189.907104 -86.9826965 15.8114996
189.8013 -86.998497 16.8369007
189.867905 -86.7306976 14.6148005
189.885895 -86.6492004 15.8284998
189.923798 -86.5501022 12.7334003
189.982498 -86.4627991 15.3203001
189.881012 -86.5110016 15.5261497
189.900101 -86.4402008 15.6337996
189.884995 -86.4347 16.3572998
189.884064 -86.4449463 16.4631004
189.899796 -86.5920029 16.9437008
189.877502 -86.4349976 17.1690998
189.881195 -86.3115997 15.3827
189.897369 -86.335701 15.9283333
189.839294 -86.2767029 16.2271004
189.885605 -86.2022018 16.4473991
189.814407 -86.3074036 16.6331005
189.868607 -86.2245026 17.2122993
189.821899 -86.1773987 14.1838999
189.963699 -86.0530014 14.3109999
189.874298 -86.1379013 15.1855001
189.846298 -86.164299 15.9441996
189.876404 -86.0896988 16.0342007
189.921097 -86.0409012 16.7089005
189.893494 -85.9979019 13.9052
189.923401 -85.9330978 17.0559006
189.880096 -85.7770996 15.1882
189.848999 -85.6785965 15.9984999
189.878998 -85.6516037 16.1294003
189.950699 -85.782402 16.2192993
189.815903 -85.6900024 17.0998001
189.811996 -85.7860031 17.2735004
189.836395 -85.5037003 15.7943001
189.834595 -85.2489014 16.4687004
189.827194 -85.0689011 15.4498997
189.843002 -85.1196976 15.8941002
189.807297 -85.1731033 17.3551998
189.818207 -84.9477005 15.9350004
189.848007 -84.9257965 17.2861996
189.809204 -84.607399 14.4429998
189.813507 -84.6067963 17.3876991
189.804504 -84.4643021 15.9041996
189.809906 -84.430397 16.2849998
189.8423 -84.4794006 17.0646992
189.828705 -84.5102997 17.3689003
189.837708 -84.0091019 16.0417004
190.095901 -94.4235992 5.10379982
190.076599 -94.2708969 5.51380014
190.079407 -91.6651993 15.2721996
190.139099 -91.4914017 16.2371998
190.160797 -91.3354034 8.64389992
190.132004 -91.3108978 14.8016996
190.163696 -91.3951035 16.7029991
190.135696 -91.3256989 16.8953991
190.123703 -91.0546036 16.2439003
190.080597 -91.1549988 16.4106998
190.175003 -90.9233017 12.3395004
190.1203 -90.9404984 16.7632008
190.166245 -90.6902466 13.49335
190.174606 -90.7851028 14.3842001
190.182205 -90.7573013 16.0069008
190.145004 -90.5817032 16.6653004
190.151596 -90.2040024 12.8064003
190.100098 -90.2736969 13.9849005
190.161346 -90.3005981 16.5331993
190.179504 -90.3427963 16.6751995
190.101501 -90.0466995 12.7813997
190.157104 -90.0727997 13.6147003
190.149796 -90.0633011 13.9287996
190.125198 -90.0876999 14.6205997
190.1754 -90.1162033 15.4202003
190.137497 -89.9562988 13.1015997
190.056702 -89.8967972 13.7803001
190.137207 -89.8472977 14.3240995
190.150696 -89.8803024 16.0042
190.140503 -89.8298035 16.2786999
190.095398 -89.8882446 16.5609512
190.071503 -89.6740036 13.5513
190.158997 -89.6484985 14.1550999
190.103302 -89.6954956 14.5293007
190.1633 -89.6090012 15.0723
190.065002 -89.5021973 13.6632004
190.004395 -89.5781021 14.9568996
190.137894 -89.4478989 16.3370991
190.033203 -89.4460983 16.7747993
190.080994 -89.2125015 10.8706999
190.104797 -89.3933029 12.9139996
190.105896 -89.2433014 14.6485004
190.1017 -89.2934036 16.3554001
190.111893 -89.1875 10.6027002
190.112396 -89.1668015 14.3140001
190.171402 -89.1287994 15.3491001
190.198196 -89.1547012 15.8797998
190.134293 -89.1911011 16.5193996
190.117096 -88.8523026 11.3927002
190.133102 -88.8423004 13.0599003
190.070999 -88.9539032 14.0972996
190.153702 -88.9223022 14.3705997
190.161499 -88.8908997 15.8915997
190.119293 -88.8855515 16.0970001
190.029907 -88.6828003 12.5170002
190.141907 -88.603302 13.9251003
190.114807 -88.7031021 15.1437998
190.152603 -88.7797012 15.5502996
190.1492 -88.7856979 15.8786001
190.093597 -88.6572037 16.0342999
190.12439 -88.7602997 16.3160515
190.096603 -88.6408005 16.5179005
190.076263 -88.5550995 12.1624002
190.050751 -88.5810013 13.9017
190.132797 -88.4288025 14.0100002
190.032806 -88.5357513 14.4866505
190.115997 -88.4405975 14.7026997
190.080902 -88.4451981 15.4222002
190.180603 -88.5524979 15.9509001
190.149994 -88.4017029 16.0835991
190.138062 -88.5070496 16.5284004
190.1306 -88.2922974 14.2391005
190.032593 -88.2680969 14.6850996
190.04184 -88.2834473 15.1647501
190.022202 -88.3177032 15.4408998
190.033005 -88.2870026 15.6731005
190.093704 -88.3651962 15.9329996
190.1745 -88.3396988 16.3729
190.021194 -88.3410034 16.7399998
190.047806 -88.085701 14.1129999
190.143295 -88.1379013 15.6046
190.080994 -88.074501 15.9463997
190.022507 -88.1845016 16.3346996
190.139496 -88.0255966 16.5326004
190.003601 -87.9652023 14.1653996
190.057602 -87.9897995 15.5256996
190.0103 -87.981102 16.6259995
190.097397 -87.7778015 13.3945999
190.057205 -87.6222992 14.7207003
190.041794 -87.707901 15.5257998
190.074707 -87.7921982 15.6751003
190.073303 -87.6554031 16.3005009
190.019302 -87.4589005 16.3360996
190.012299 -86.975502 14.3374004
190.007706 -86.6054001 16.8640003
190.065903 -86.4238968 15.7591
190.051605 -86.5074997 16.6424999
190.365295 -94.5702972 5.32530022
190.3358 -91.9184494 8.40880013
190.382401 -91.927597 9.76490021
190.391403 -91.9144974 11.1643
190.374405 -91.9598999 12.1205997
190.383408 -91.9451981 13.8168001
190.358307 -91.8187027 14.2493
190.328094 -91.792099 7.34229994
190.370804 -91.7779007 11.6183004
190.297455 -91.6912994 12.6947002
190.265106 -91.6102982 13.0139999
190.367905 -91.7341995 13.7845001
190.290207 -91.7238007 13.9747
190.344193 -91.7349014 15.6436996
190.362396 -91.6333008 16.3005009
190.290894 -91.5700989 8.01130009
190.291504 -91.4760971 12.7296
190.339905 -91.4822998 12.9215002
190.339264 -91.470665 13.0793667
190.345993 -91.5543976 16.0646
190.350098 -91.4856033 16.3780994
190.296097 -91.5098038 16.4570999
190.297501 -91.3007965 10.6680002
190.343948 -91.276947 12.1173496
190.299301 -91.2749023 13.2818003
190.357697 -91.3727036 13.4582996
190.276199 -91.2865448 13.7061996
190.246506 -91.3904037 14.7327995
190.284103 -91.3136978 16.2798996
190.2397 -91.0906982 12.5381002
190.267395 -91.0223007 12.7686996
190.391998 -91.0682983 13.0396996
190.341507 -91.0124969 13.7360001
190.276398 -91.0251007 13.9055996
190.360794 -91.1555023 14.3472004
190.325806 -91.0709991 14.5983
190.334106 -91.1766968 16.0888996
190.349152 -91.1509018 16.3677502
190.347397 -90.8479004 7.49090004
190.327896 -90.9701004 11.2452002
190.360992 -90.8934021 12.7620001
190.265503 -90.885498 13.5740995
190.224304 -90.9344025 13.9916
190.381958 -90.9537506 16.2875996
190.235199 -90.740303 11.4081001
190.294693 -90.7238998 12.8325005
190.264404 -90.6032028 13.4615002
190.275101 -90.7694016 14.1202002
190.298996 -90.600502 14.3943996
190.302704 -90.6799011 16.4036007
190.207596 -90.4441986 12.8921003
190.245605 -90.5279007 13.4253998
190.318695 -90.5944977 13.7112999
190.2444 -90.5221024 14.4829998
190.277496 -90.4746017 14.7453003
190.239807 -90.248703 11.7630997
190.243195 -90.2429962 12.0125999
190.243698 -90.2100983 12.4867001
190.225052 -90.2949982 14.1370001
190.212906 -90.3630981 14.2021999
190.361206 -90.2397995 15.7969999
190.343994 -90.2693024 15.8927002
190.216202 -90.1748962 13.7370996
190.388199 -90.1893005 15.0023003
190.29425 -90.128006 15.4687996
190.224792 -90.1092987 15.8924999
190.21875 -90.1527481 16.4595985
190.221497 -89.9768982 11.4783001
190.251602 -89.9160004 14.5663004
190.291702 -89.9621964 15.3290005
190.272797 -89.8534012 15.8505001
190.239304 -89.9477997 16.3995991
190.210007 -89.6512985 13.7976999
190.273544 -89.6605072 15.87255
190.254196 -89.5084991 15.3638
190.282806 -89.3256989 16.1860008
190.318405 -89.084198 15.3719997
190.289749 -89.1023483 15.7132492
190.237198 -89.1339035 16.2068996
190.291595 -88.8761978 14.0822001
190.328598 -88.8742981 14.9134998
190.487595 -92.0005035 12.0829
190.5923 -92.0149994 15.5711002
190.460205 -91.9354019 10.3789997
190.560501 -91.9337006 12.2769003
190.499496 -91.9486008 12.8227997
190.595703 -91.8936996 13.5209999
190.5448 -91.9313965 14.0806999
190.442993 -91.6695023 11.5675001
190.412506 -91.7406998 14.0909996
190.535294 -91.6274033 14.5704002
190.501007 -91.683403 14.9368
190.496094 -91.7860031 16.2199993
190.4487 -91.5802002 16.0991993
190.421097 -91.2173996 14.1237001
190.440598 -91.282402 16.2290993
190.423996 -91.0600967 14.3687
190.444595 -91.1418991 14.5148001
190.529694 -91.1591034 15.7486
190.471207 -90.8699036 14.6246004
190.508698 -90.8520966 14.8872995
190.490601 -90.8485031 15.1154003
190.458603 -90.8989029 15.8796997
190.447998 -90.7209015 14.9843998
190.585999 -90.6923981 15.1743002
190.528793 -90.7680969 15.4524002
190.437195 -90.7779007 15.9677
190.519897 -90.4160995 15.0073004
190.501495 -90.3271027 14.9745998
190.418106 -90.3291016 16.3379002
190.430496 -90.1222992 15.5225
190.499405 -90.0667038 15.6071997
190.414093 -89.5784988 15.1097002
190.732895 -91.9598999 8.63669968
190.669098 -91.9615021 14.8206997
190.645203 -91.9002991 15.1431999
190.628799 -91.7835007 16.0125999
190.600204 -91.7956009 16.3731003
190.639893 -91.6808014 16.5522995
190.667099 -90.8351974 15.7889004
190.733002 -90.7359009 14.6784
190.626495 -90.7651978 15.2219
190.806793 -92.2460022 15.1843996
190.918396 -92.0292969 8.86310005
190.999405 -91.9558029 8.12790012
190.948105 -91.9686966 8.6260004
190.999802 -91.8937988 11.5233002
190.880905 -91.8770981 12.0681
190.844101 -91.9300995 13.8260002
190.896454 -91.8912506 14.3165998
190.985794 -91.870903 14.7263002
191.192993 -91.9703979 5.57270002
191.163498 -91.9439011 8.13710022
191.074203 -91.9168015 8.5316
191.382401 -92.0121994 9.31610012
191.336304 -91.972702 8.2038002
191.388 -91.9862976 8.70730019
191.283401 -91.9374008 11.4103003
191.238693 -91.8057022 14.3522997
191.5625 -92.2561035 7.9527998
191.434799 -92.0488968 5.7178998
191.490204 -91.9901962 6.56309986
191.420898 -91.8208008 14.5997
191.452301 -91.6632004 16.4314003
191.6353 -92.4880981 7.88210011
191.711197 -91.9020004 8.85219955
191.6194 -91.9602966 11.4334002
191.643097 -91.8487015 14.3647003
191.971207 -91.8001022 10.6315002
191.9048 -91.8259964 14.1113005
191.938797 -91.847702 14.4976997
191.870605 -91.8015976 14.6420002
191.825195 -91.7444992 14.6155996
192.183807 -91.7132034 13.5555
192.137405 -91.7614975 13.9631996
192.095993 -91.7548981 14.4716997
192.367096 -92.3164978 5.62879992
192.377701 -91.6468964 13.5611
192.3022 -91.7761993 14.5469999
192.517105 -92.3405991 5.57550001
192.494995 -92.0056992 8.52880001
192.520096 -91.7463989 14.5459995
192.783707 -92.2956009 8.22710037
192.6465 -91.9458008 9.2191
192.6651 -91.7985001 5.21820021
192.781006 -91.796402 8.61660004
192.694794 -91.7817001 8.91870022
192.747406 -91.6172028 12.9187002
192.661804 -91.5938034 9.61380005
192.992294 -91.8663025 4.4552002
192.985901 -91.8454971 5.98409986
192.937195 -91.8320007 9.30959988
192.935806 -91.7829971 6.59399986
192.873199 -91.7204971 7.48320007
193.058701 -91.8760986 4.27710009
193.189407 -91.8030014 9.32759953
193.184799 -91.8497009 10.0914001
193.1082 -91.7794037 6.07770014
193.122894 -91.7895966 6.8039999
193.037094 -91.7664032 9.10459995
193.078506 -91.5710983 13.7342997
193.3927 -96.0794983 4.82289982
193.314102 -95.092598 3.63779998
193.319107 -94.9117966 3.7579
193.382706 -92.0585022 6.16450024
193.217194 -92.1240997 11.9469004
193.332199 -91.9143982 5.44610023
193.374496 -91.8333969 6.3684001
193.288498 -91.8074036 13.1823997
193.362 -91.7966003 5.01849985
193.326996 -91.7361984 7.74779987
193.305298 -91.7396011 9.74240017
193.448593 -96.5985031 4.91900015
193.407104 -96.0614014 4.61229992
193.468399 -95.9821014 4.1329999
193.520905 -95.9514999 4.65679979
193.471497 -92.876503 5.8204999
193.502197 -92.7247009 3.9921
193.552307 -92.6427994 5.2736001
193.4814 -92.6848984 6.04799986
193.533997 -92.7735977 6.27670002
193.522995 -92.6193008 11.6096001
193.589996 -92.7533035 14.0235004
193.515503 -92.4526978 5.24720001
193.505203 -92.489502 9.35459995
193.516205 -92.5319977 9.60169983
193.529694 -92.384903 4.61899996
193.584793 -92.2225037 8.54249954
193.457703 -92.3000031 9.46039963
193.528107 -92.3552017 11.1322002
193.482803 -92.226799 11.3042002
193.558701 -92.2240982 13.6287003
193.575897 -92.0361023 5.28779984
193.5298 -92.1639023 5.8599
193.532303 -92.0550995 9.53649998
193.566803 -92.0459976 10.5930004
193.535706 -92.1448975 13.6842003
193.427704 -91.8783035 5.1315999
193.479401 -91.9291 7.94560003
193.463898 -91.9115982 9.33170033
193.450546 -91.8386536 10.9183998
193.511749 -91.7198944 14.02985
193.546997 -91.4582977 15.7754002
193.709595 -96.4293976 4.27040005
193.641296 -96.4695969 5.45809984
193.712341 -96.2413483 3.71199989
193.642593 -95.8757019 4.1408
193.713898 -95.7674026 3.7098999
193.682205 -95.7587967 3.9454999
193.727707 -92.9007034 4.59380007
193.645294 -92.9745026 5.03259993
193.610306 -92.8815002 6.35109997
193.696106 -92.8592987 9.87749958
193.634995 -92.8125992 10.1658001
193.616196 -92.8996964 13.8266001
193.628296 -92.7615967 4.07620001
193.600494 -92.7583008 4.96029997
193.616501 -92.7491989 9.13570023
193.759293 -92.7546005 9.24660015
193.6035 -92.7031021 11.1491003
193.756607 -92.7947998 11.8100996
193.6427 -92.2384033 8.2027998
193.6651 -92.3116989 9.66160011
193.632706 -92.3826981 14.3156996
193.625397 -92.0458984 14.0461998
193.601593 -90.086998 16.0571003
193.938599 -96.3079987 3.70180011
193.995407 -95.0820999 3.88210011
193.8871 -92.9936981 5.56309986
193.880005 -92.9748993 6.37099981
193.880005 -92.856102 8.38010025
193.9534 -92.8436966 8.9076004
193.8862 -92.9132996 9.48110008
193.875793 -91.2381973 16.1480007
194.193695 -95.1957016 4.14279985
194.077103 -95.1641998 4.71759987
194.092194 -92.8035965 5.9071002
194.100204 -92.9812012 8.84000015
194.275208 -95.2192993 3.87269998
194.261093 -95.3872986 4.24039984
194.236298 -92.8715973 5.3572998
194.307297 -92.8358994 8.24909973
194.274704 -92.9124985 8.92660046
194.267197 -92.9153976 9.0472002
194.270096 -92.9076996 10.4857998
194.405807 -96.4251022 3.31870008
194.416504 -95.0752029 4.9362998
194.506805 -92.8380966 5.23999977
194.451508 -92.9744034 8.91119957
194.437698 -92.6408997 10.4830999
194.405197 -92.4235001 9.08689976
194.638504 -92.9626007 5.55779982
194.748306 -92.9147034 6.11920023
194.658493 -92.8744965 9.1406002
194.606003 -92.8262024 11.1639004
194.652405 -92.7182007 10.1845999
194.874496 -92.9059982 6.09380007
194.812103 -92.8082962 6.30299997
194.847397 -92.8968964 11.0866003
195.035904 -92.8327026 5.95539999
195.068604 -92.7811966 11.4385996
195.207108 -92.8282013 6.4531002
195.303406 -92.8879013 8.24199963
195.284607 -92.8180008 8.41580009
195.215698 -92.7536011 8.33850002
195.362595 -92.6738968 10.6414003
195.323898 -92.7060013 13.4706001
195.382401 -91.4597015 15.9904003
195.253693 -91.4695969 16.1660995
195.256104 -91.325798 15.2142
195.420303 -92.8151016 4.34210014
195.525894 -92.856102 5.41039991
195.570694 -92.8360977 8.89439964
195.541595 -92.8476028 9.11380005
195.587402 -92.7666016 6.31759977
195.497803 -92.7863007 9.74440002
195.655701 -92.6905975 8.82719994
197.497192 -90.2146988 10.4376001
197.5811 -90.1287003 8.27369976
197.761307 -96.8778 6.16279984
197.622101 -96.5450974 6.1157999
197.613647 -96.3096008 5.89459991
197.615494 -96.2848969 6.09049988
197.757599 -91.6136017 8.49380016
197.727402 -91.2294998 5.31230021
197.668396 -91.0289993 5.16790009
197.753494 -91.1007004 8.7276001
197.757996 -91.0755005 9.37580013
197.794693 -90.8153 5.86940002
197.692093 -90.8090973 9.77340031
197.7453 -90.8254013 10.4328003
197.604294 -90.8292007 11.0304003
197.707596 -90.6437988 9.74339962
197.679596 -90.4397964 10.1148996
197.623093 -90.2043991 10.6254997
197.897003 -97.0233994 5.92259979
197.957901 -96.8564987 8.24979973
197.900604 -96.7932968 5.89109993
197.956406 -96.3498001 7.00519991
197.9552 -92.3220978 6.20429993
197.974304 -92.2319031 8.15909958
197.934692 -92.2699966 11.1813002
197.986801 -92.2837982 11.7905998
197.979202 -92.1900024 6.07929993
197.996201 -92.1232986 9.34759998
197.999893 -92.1757965 14.0577002
197.867401 -91.928299 5.49599981
197.940308 -91.9266968 5.65140009
197.850403 -91.947403 5.83199978
197.858704 -91.966301 6.16940022
197.882004 -91.7248001 5.66230011
197.822098 -91.7161026 10.8989
197.959396 -91.4339981 5.12370014
197.811096 -91.430397 11.0380001
197.832397 -91.4337997 11.6990995
197.890701 -91.3713989 5.84829998
197.879501 -91.356102 8.02980042
197.919601 -91.3172989 9.50469971
197.951797 -91.3398972 10.7536001
197.929504 -91.3240967 14.0813999
197.843399 -91.1417999 11.7318001
197.978195 -90.9597015 14.3427
197.825607 -90.697998 10.2990999
197.866501 -90.6362 10.9226999
197.9431 -90.4292984 7.27080011
198.132095 -98.4024963 6.79729986
198.162399 -97.9272995 7.30870008
198.058899 -97.5802994 6.01800013
198.063995 -97.4112015 8.39070034
198.069794 -97.398201 6.01340008
198.078903 -97.0709991 5.7519002
198.058899 -96.8505554 5.47765017
198.071701 -96.9972992 7.81529999
198.187805 -96.6847 7.66190004
198.105499 -96.3422012 6.77139997
198.064301 -96.2510986 6.94640017
198.094193 -95.4492035 5.93760014
198.149094 -92.5463028 5.0532999
198.119904 -92.4707031 8.41909981
198.121994 -92.4561996 11.4045
198.069397 -92.5394974 13.6492996
198.085098 -92.3011017 8.58129978
198.1064 -92.354599 9.93540001
198.158005 -92.3883972 10.3408003
198.158707 -92.2106018 10.4735003
198.082306 -92.3719025 10.7413998
198.160904 -92.0098038 4.90619993
198.108002 -92.108902 5.0454998
198.133698 -91.9966965 10.4081001
198.110992 -91.9703979 14.0082998
198.182999 -91.7022018 13.2252998
198.078003 -91.4989014 12.8136997
198.059799 -91.4499969 14.3072004
198.067307 -91.3214035 9.62559986
198.357193 -98.3167038 6.58769989
198.301407 -98.2762985 6.9994998
198.242599 -97.8507004 6.14820004
198.262894 -97.1092987 8.17230034
198.291702 -96.8398972 5.43340015
198.340897 -96.9402008 7.49429989
198.297897 -96.9896545 8.07205009
198.317001 -96.7939987 5.65810013
198.326294 -96.3740005 5.36499977
198.236298 -95.6044998 4.08349991
198.251205 -95.0115967 4.73920012
198.287796 -92.868103 13.6541996
198.291946 -92.5564499 9.13700008
198.286102 -92.4082031 9.21459961
198.270798 -92.5356979 11.5448999
198.478302 -98.3591003 6.65829992
198.543106 -97.9588013 5.90749979
198.555603 -97.6173019 5.83279991
198.499893 -97.6660004 6.21850014
198.532501 -97.5783005 7.54500008
198.441803 -97.0451965 7.24319983
198.500793 -95.4656982 4.83319998
198.404907 -92.5847015 6.35029984
198.526703 -92.4364014 9.50720024
198.469452 -92.4615021 11.1198997
198.472504 -92.4020996 11.8039999
198.645798 -98.6582031 7.66809988
198.747803 -98.4290009 6.07159996
198.766495 -98.5326996 7.00220013
198.678696 -97.8713989 6.20270014
198.673096 -97.8777008 7.54400015
198.774094 -97.9963989 8.02519989
198.632706 -97.677803 5.87769985
198.696396 -97.6063995 7.76270008
198.670502 -97.6676025 7.81169987
198.712448 -97.6800995 8.49144936
198.757004 -97.3253021 5.27979994
198.781204 -97.1712036 4.81190014
198.633499 -97.0430984 6.97109985
198.789505 -93.9163971 5.85449982
198.686295 -92.4079971 5.48099995
198.688202 -92.5911026 8.30200005
198.734695 -92.5427017 9.57349968
198.748901 -92.4520035 10.4611998
198.735001 -92.4083023 10.8249998
198.688705 -92.4141998 11.3257999
198.786301 -92.4406967 11.4710999
198.7565 -92.5981979 11.7094002
198.823593 -99.1417999 7.16239977
198.805405 -98.8158035 5.35309982
198.881607 -98.6344986 5.24179983
198.969894 -98.6378021 6.19829988
198.916794 -98.4763031 7.97289991
198.870636 -97.8553009 5.30799961
198.928894 -97.7223969 4.9678998
198.816803 -97.6998978 5.26609993
198.807297 -97.7321014 5.54099989
198.813293 -97.7631989 8.34210014
198.910095 -97.5217972 8.47700024
198.814194 -97.1387024 5.0223999
198.912399 -96.3160019 4.89330006
198.972305 -96.3389969 5.0387001
198.850098 -96.1258011 5.25400019
198.984406 -93.9891968 6.05670023
198.886902 -92.6016998 8.97430038
198.875198 -92.4794006 9.16259956
199.085602 -98.7349014 5.61560011
199.185898 -98.3339996 4.90409994
199.064148 -97.9641037 5.25839996
199.175705 -97.7410965 5.77269983
199.122604 -95.9542999 3.84240007
199.140305 -95.2109985 8.1267004
199.0383 -94.1334991 6.82700014
199.070801 -93.6381989 6.9533
199.015503 -92.4991989 8.33520031
199.046295 -92.4389038 8.56639957
199.156601 -92.3294983 8.33619976
199.395599 -98.2914963 8.6559
199.379807 -92.3683014 8.58619976
199.569595 -98.3050995 8.78880024
199.498093 -97.9511032 4.47980022
199.501602 -97.6156006 4.05910015
199.575699 -96.729599 3.90569997
199.429504 -92.8170013 11.9809999
199.535995 -92.7257004 11.9752998
199.481598 -92.6650009 13.4792995
199.484695 -92.4126968 9.40550041
199.473999 -92.3570023 10.8458996
199.592194 -92.3612976 11.1871004
199.658997 -98.1518021 4.05620003
199.643097 -97.6099014 5.5163002
199.747406 -97.5149002 4.58920002
199.720505 -96.4486008 4.48950005
199.610703 -96.1091995 4.08890009
199.673996 -92.6473999 13.5407
199.652603 -92.4368973 9.06949997
199.722748 -92.3183517 8.33435059
199.759598 -92.2844009 8.90629959
199.787094 -92.3206024 11.6177998
199.817902 -98.9020004 8.43449974
199.936493 -97.1055984 8.84179974
199.844193 -96.8907013 8.55780029
199.878799 -92.365799 8.32289982
199.813797 -92.3832016 9.42669964
199.947495 -92.2235031 11.2233
