# .PCD v0.7 - Point Cloud Data file format
VERSION 0.7
FIELDS x y z
SIZE 4 4 4
TYPE F F F
COUNT 1 1 1
WIDTH 118
HEIGHT 1
VIEWPOINT 0 0 0 1 0 0 0
POINTS 118
DATA ascii
100.032799 -21.6165009 13.4173002
100.440598 -22.1590996 8.43190002
100.795303 -21.9813004 4.87610006
100.654701 -21.9375 6.98290014
101.378601 -21.9044991 7.34450006
101.245697 -21.8118 7.6099
101.3368 -21.5860996 13.5319004
101.565399 -22.3878994 9.37689972
101.402298 -22.2507992 9.47970009
101.478897 -22.1166992 9.21109962
101.673798 -22.3871994 9.03619957
101.658302 -21.8048 13.6539001
101.901199 -22.4179993 9.20499992
101.908699 -22.4864998 9.55010033
101.816597 -22.4848003 9.63829994
101.891197 -22.3855 8.93379974
101.842102 -22.3358994 9.2098999
101.911301 -22.3945999 9.42910004
102.155701 -21.9519997 7.82280016
102.563301 -22.2155991 12.0016003
102.6688 -22.4969006 6.90339994
102.859802 -22.1523991 5.46409988
102.865303 -21.8209 5.09959984
102.9263 -21.9636002 5.49030018
102.949203 -21.8808994 10.6524
102.9786 -21.7075996 10.2925997
102.940002 -21.7577991 10.5558004
103.005501 -22.1968002 5.61950016
103.044296 -21.8756008 5.25820017
103.120697 -21.9416008 7.77629995
103.088394 -21.9390488 10.2722492
103.034698 -21.7963009 10.9476995
103.064796 -21.6002007 13.1260004
103.096298 -21.6625996 13.2487001
103.363701 -22.2542992 6.35200024
103.246101 -21.7847996 13.0593996
103.495903 -22.5301991 9.3927002
103.412697 -21.6893005 13.7643995
103.665749 -22.4537506 9.49469948
103.850403 -22.4456005 9.0145998
104.245903 -21.8731003 10.0516005
104.564201 -21.5107002 13.6163998
104.784698 -21.7481003 13.4497004
104.8172 -21.8108997 10.3724003
106.353104 -21.8258991 10.4048004
106.283897 -21.7845993 13.4205999
106.487396 -21.8483009 9.49680042
106.6194 -22.4013004 7.74490023
106.648903 -22.0585003 6.76030016
106.634804 -21.9911003 6.28970003
106.7062 -21.8125 11.6330004
106.822601 -22.1163006 6.24539995
106.962799 -22.0280991 8.91870022
106.8507 -21.8938007 9.05360031
106.877098 -21.9657993 11.5500002
106.8489 -21.7630005 11.0878
107.046501 -22.0482998 12.6501999
107.152298 -21.9552002 11.3508997
107.098251 -21.8345509 11.4864502
107.560699 -21.9887009 9.13980007
107.523499 -21.8327999 9.36460018
107.441704 -21.8397007 11.0819998
107.492401 -21.6289005 11.2316999
107.738197 -21.9827003 9.25689983
107.739502 -21.8255997 12.0482998
107.891602 -21.8225994 11.1351004
107.832001 -21.7800999 11.8104
108.214401 -21.8689995 11.6667995
110.319397 -20.6742001 10.3399
110.481003 -20.6499996 10.0721998
110.554398 -20.6244011 10.3078003
110.440804 -20.5732994 11.0534
110.533302 -20.4179001 11.6835003
110.706596 -22.0020008 6.32870007
110.790451 -21.8778992 8.93000031
110.747597 -21.7185993 8.40310001
110.672401 -21.7810001 9.18780041
110.782898 -21.7949009 9.3125
110.742447 -21.5073509 8.91160011
110.722801 -21.5487003 9.15359974
110.709297 -21.2325993 11.4796
110.651703 -20.8271008 9.54810047
110.789398 -20.8381996 11.4890003
110.7659 -20.7176514 10.2473001
110.759796 -20.6317997 10.9398003
110.759003 -20.6604996 13.0381002
110.766899 -20.5634995 10.1922998
110.615303 -20.5970993 10.5068998
110.750198 -20.5256996 10.8348999
110.808899 -22.0286007 8.50059986
110.8284 -22.0016003 8.62240028
110.823997 -21.8404999 8.32279968
110.881897 -21.9514999 8.57219982
110.8834 -21.8132992 11.4073
110.816803 -21.7770996 8.1232996
110.827148 -21.7548485 11.3605499
110.979897 -21.6867008 12.6763
110.886101 -21.5538006 11.6007996
110.926697 -21.5422993 12.5165005
110.800697 -21.3036995 11.1598997
110.953499 -21.2523003 12.6402998
110.874199 -21.2127991 13.4771004
110.908699 -20.9496002 13.5263996
110.875298 -20.7185001 9.90139961
110.972702 -20.7833004 10.1311998
110.9748 -20.6858997 13.3717003
110.832298 -20.4361992 13.0080996
111.070198 -21.8241997 11.9202003
111.055496 -21.7663994 11.7560997
111.004601 -21.1597004 10.0992002
111.080498 -20.7280998 10.7852001
111.2285 -21.5858994 13.276
111.674599 -22.0403004 8.77900028
112.0121 -21.9857006 8.44239998
112.419502 -21.7548008 10.7298002
115.9636 -21.8383007 9.86839962
115.923401 -21.8295994 10.0274
116.002502 -21.8493996 9.54419994
