# .PCD v0.7 - Point Cloud Data file format
VERSION 0.7
FIELDS x y z
SIZE 4 4 4
TYPE F F F
COUNT 1 1 1
WIDTH 570
HEIGHT 1
VIEWPOINT 0 0 0 1 0 0 0
POINTS 570
DATA ascii
80.0655975 23.6219997 6.02750015
80.1993027 23.8962994 4.38619995
80.0348969 23.9771004 6.54710007
80.3672028 23.5601997 2.71620011
80.2724991 23.5900993 4.5092001
80.2331009 23.7695999 3.21499991
80.3337021 23.7616997 3.64650011
80.2835007 23.6581001 4.35340023
80.3932037 23.6863995 5.87529993
80.2705002 23.7565002 6.3993001
80.2965012 23.7546005 6.8915
80.358902 23.7747002 12.6042995
80.2277985 23.8987999 3.49830008
80.2911987 23.8125 6.46780014
80.3210983 23.9036999 10.2306995
80.3529968 23.8948994 12.6049004
80.5802002 23.4419994 2.17470002
80.4369965 23.4430008 2.3677001
80.5808029 23.5331993 3.02530003
80.553299 23.5659008 3.29320002
80.5440979 23.6569996 6.06269979
80.5263977 23.6776009 7.56209993
80.5130997 23.7810001 12.3806
80.5154037 23.8278008 9.90559959
80.5795975 23.8019009 10.2411003
80.5228729 23.9249001 12.3028755
80.5431519 23.8885994 12.5517502
80.4587021 24.1725006 9.18160057
80.5225983 24.0023994 9.26589966
80.4408035 24.1028996 9.58699989
80.7865982 23.4508991 2.22740006
80.759697 23.4160995 2.4124999
80.669899 23.5013008 2.66529989
80.6709976 23.5153008 4.76840019
80.644455 23.567749 5.13829994
80.7185974 23.5252991 5.40059996
80.6401978 23.6516991 4.34859991
80.7684021 23.6576996 7.42939997
80.6856003 23.7108002 7.90585041
80.7018967 23.7894001 10.7981997
80.7016983 23.7091999 12.4439001
80.7221527 23.7377014 12.724
80.6746979 23.9169006 11.9758997
80.7586975 23.9649506 12.0305004
80.6917038 23.9034996 12.3072996
80.6065979 23.8297997 12.5019999
80.7380981 24.2250996 8.86060047
80.9020004 23.3952999 1.78550005
80.8488007 23.4307003 2.5237999
80.9169998 23.5699005 5.41639996
80.8880997 23.6142006 1.43139994
80.8376007 23.6488991 3.12380004
80.9962006 23.7220001 8.04209995
80.844101 23.7024994 10.1869001
80.9492035 23.7450008 10.6756001
80.9234009 23.6322994 10.9518003
80.8683014 23.7038994 11.0381002
80.8779984 23.7579994 12.4369001
80.9600983 23.8115005 9.60340023
80.814003 23.8201008 10.3851995
81.064003 23.3747005 1.7888
81.0456009 23.5408993 2.87700009
81.0758972 23.5767002 4.73320007
81.0781021 23.5569 4.81879997
81.0953979 23.5958004 5.68240023
81.1044998 23.7045002 4.0019002
81.1621017 23.6639004 7.21519995
81.0449982 23.719101 7.53830004
81.0634995 23.6238995 7.69729996
81.1254501 23.6685486 7.9621501
81.0739975 23.7978001 9.68260002
81.0258026 23.7553005 10.2251997
81.1920013 23.7838001 10.8972998
81.0727005 23.6944008 11.2048998
81.1564026 23.7539997 12.7159996
81.0522995 23.8006001 10.2147999
81.1176987 23.9008007 11.9951
81.2878494 23.4704514 2.26175022
81.2629013 23.5074005 4.57439995
81.2024002 23.4894009 4.76039982
81.325798 23.4454002 5.32159996
81.2250977 23.5606995 7.82390022
81.2997971 23.6322002 3.06489992
81.2696991 23.6578007 6.9927001
81.2350006 23.6448994 8.08440018
81.2434006 23.6315002 8.26620007
81.3270035 23.691 9.83769989
81.3143005 23.7031994 10.2516003
81.2033997 23.8211002 4.1230998
81.3832016 23.8237991 10.1698999
81.2671967 23.8324013 12.52845
81.4657974 23.5076008 5.11689997
81.5400009 23.5422993 5.22249985
81.4840012 23.5207996 5.45879984
81.4176025 23.5487995 12.8913002
81.5498962 23.6753998 5.14319992
81.4368973 23.6746006 6.92500019
81.512001 23.7604008 7.19519997
81.5382004 23.7616997 8.27420044
81.5025482 23.6800995 9.83390045
81.408699 23.7001991 10.6047001
81.4040985 23.9864006 12.1850004
81.4636993 23.9071007 12.4789
81.5907974 24.1240005 11.1513004
81.6819 23.4698009 2.96670008
81.7357025 23.573 4.50409985
81.7725983 23.4512005 4.75390005
81.6159973 23.4923 5.40749979
81.7489014 23.594101 10.3912001
81.6927032 23.7940006 3.37709999
81.7332993 23.6089001 5.69610023
81.799202 23.6653004 6.56230021
81.6691971 23.6832008 6.77169991
81.780899 23.6455994 6.87510014
81.6238022 23.7324009 7.66900015
81.6724014 23.6081009 8.32320023
81.7780991 23.7667007 10.1969004
81.6046982 23.7341995 10.3929005
81.6839523 23.6875 10.5315495
81.7554016 23.7054996 10.6676998
81.6363983 23.7805004 12.6428003
81.6093979 23.9426003 11.2797003
81.7197037 24.0904007 12.2063999
81.663002 24.8768997 6.91109991
81.864502 23.5823994 1.57449996
81.8864975 23.5042 1.85290003
81.9484024 23.4484997 2.08879995
81.9197998 23.5099487 4.85319996
81.9796982 23.5142002 5.86159992
81.9973984 23.5760994 7.04629993
81.9653015 23.5179005 10.5872002
81.8823013 23.7189007 3.55769992
81.941597 23.6667995 7.2972002
81.8223038 23.6856995 7.79390001
81.8384018 23.7987995 9.75699997
81.8679962 23.6501999 10.4635
81.9506989 23.7183495 10.8356495
81.8911972 23.7966995 12.4327002
81.887001 23.7630005 12.6677999
81.964798 24.8730011 6.35564995
82.1448975 23.4013996 2.71550012
82.135498 23.5405006 3.01469994
82.111702 23.5466995 3.99499989
82.1314011 23.6299992 3.1421001
82.042099 23.6327991 3.92210007
82.1826019 23.6630001 5.62370014
82.1075974 23.6177998 6.22779989
82.052002 23.6110992 8.1885004
82.0127029 23.7744007 9.84860039
82.1479034 23.6751003 10.2779999
82.0134964 24.1107006 11.3711996
82.0734024 24.1553001 12.0486002
82.191803 24.0452003 12.2194996
82.3733978 23.3934994 2.23670006
82.3429031 23.4571991 2.5927999
82.2630005 23.5380993 8.25269985
82.3323975 23.7922001 9.74009991
82.3834991 23.7003994 10.0757999
82.3103027 23.7164993 10.7849998
82.2882004 23.9752998 11.5172005
82.2324982 23.9909 11.7302999
82.2189026 23.8852997 12.2958002
82.5227966 23.7224007 10.2728996
82.4878006 23.8724995 12.1321001
82.5647964 23.8050995 12.2931995
82.6651993 23.9153996 12.2402
83.1684036 24.5540009 3.68429995
83.1531982 24.6697998 3.8118
83.1472015 24.7688007 4.23379993
83.3604965 24.7050991 2.97219992
83.2520981 24.6825008 3.34689999
83.270401 24.70895 3.69994998
83.2801971 24.6828003 3.85479999
83.2659988 24.6506996 4.22590017
83.3794022 24.7383003 5.9467001
83.2598038 24.7210007 7.2262001
83.3712006 24.8451996 2.85279989
83.2510986 24.8257999 9.00959969
83.3729019 24.9209003 9.22939968
83.3190002 24.9491005 9.51690006
83.3082962 24.8931999 12.6464005
83.3003998 24.8682003 12.9140997
83.3218994 25.0049992 12.4231005
83.4531021 24.7865009 5.70230007
83.5458984 24.8605003 5.28989983
83.5982971 24.8544998 6.20979977
83.4748001 24.8146992 9.10579967
83.4862976 24.948 11.3999996
83.4393997 24.9743004 11.8580999
83.4840012 24.9566994 12.3802996
83.5951004 24.8868999 12.6353998
83.5233994 25.0006008 10.9924002
83.5867004 25.1130009 12.2733002
83.6503983 24.5983009 4.22510004
83.7091522 24.6387997 3.88604999
83.6048965 24.7770996 5.57749987
83.6865997 24.7567005 6.03340006
83.6477966 24.7660999 6.67810011
83.6737976 24.7597008 7.13670015
83.7955017 24.8512993 4.58150005
83.7307434 24.9487 4.70924997
83.6363983 24.9927998 5.07690001
83.7631989 24.8684006 5.5468998
83.7216034 24.8185997 8.57400036
83.6479034 24.8386993 8.72550011
83.6344986 24.9519997 11.9041996
83.7046967 24.8052998 12.6995001
83.6433029 25.0237007 7.82849979
83.7408981 25.1555004 10.0373001
83.713501 25.0123997 12.0300999
83.8916016 24.5977993 12.5932999
83.9179001 24.7259998 1.72150004
83.830101 24.7742004 1.81060004
83.9945984 24.698 4.20550013
83.8473969 24.7686501 5.73925018
83.8923035 24.6518993 6.15290022
83.9605026 24.6443996 6.20499992
83.9916992 24.7639008 6.48180008
83.9167023 24.6086998 9.31719971
83.9964981 24.7229004 12.9727001
83.8983994 24.6823997 13.0676003
83.9881973 24.8684006 1.95780003
83.8929977 24.9325008 2.5460999
83.9047012 24.9666996 4.63609982
83.8806992 24.9228992 5.23589993
83.9481964 24.8411007 6.70590019
83.8042984 24.8467999 8.85639954
83.8650513 24.9493999 9.03935051
83.8067017 24.9836006 9.75940037
83.8679962 24.8073997 9.96020031
83.8761978 24.9740009 11.1619997
83.9157028 24.9706993 11.217
83.979599 24.9920998 11.9770002
83.9841003 25.0688992 5.52880001
83.9596024 25.0105991 11.7475004
83.8128967 25.0002995 12.2198
84.1529999 24.6816998 2.33739996
84.1624985 24.6921005 4.1342001
84.1540985 24.7824993 5.15089989
84.1330566 24.7758999 5.54050016
84.075798 24.7402992 6.00540018
84.1519012 24.7481995 6.78919983
84.1080017 24.7612 7.22830009
84.0501022 24.8521996 4.82959986
84.0875015 24.8370991 5.24039984
84.1723022 24.8484001 5.42140007
84.0093002 24.9106007 8.54969978
84.1135025 24.8983994 9.19460011
84.1880035 24.8209 9.6626997
84.0563965 24.9561501 11.5152502
84.1811981 24.8367996 12.1349001
84.1734009 25.0326004 7.68720007
84.0615005 25.0608006 10.9914999
84.0901031 25.2096004 10.2718
84.177002 25.3024998 10.7088003
84.2241974 24.5986004 3.53060007
84.3631973 24.7751007 3.37109995
84.2572021 24.6222 3.93889999
84.2667007 24.6081009 4.18219995
84.3658981 24.7714005 4.63460016
84.2365036 24.7364006 6.2888999
84.384697 24.7208004 6.64830017
84.370903 24.7887993 11.6167002
84.2312012 24.7971001 12.9934998
84.2281036 24.8227997 5.77920008
84.2096024 24.8649006 6.99639988
84.3318024 24.8728008 7.5697999
84.2738037 24.8738003 7.70389986
84.2985992 24.8721008 8.10659981
84.2015991 24.8540001 9.83609962
84.376503 24.9461994 10.0004997
84.3431015 24.9729996 10.7482996
84.3023987 24.9650002 11.1611996
84.2315979 24.9106007 11.2459002
84.3768463 24.9583511 12.4542007
84.3126984 25.1184006 9.91069984
84.2764969 25.1658001 10.3774996
84.2454987 25.0237999 10.7205
84.3355026 25.0613003 11.0608997
84.2048035 25.2010002 10.6019001
84.5346985 24.5534 10.2452002
84.4886017 24.7441998 3.20090008
84.5550003 24.6954994 4.96210003
84.5363007 24.6453991 5.54330015
84.5404968 24.7987003 6.99490023
84.4723969 24.7653008 7.03859997
84.4848022 24.7476006 7.42689991
84.4869003 24.7679996 8.14260006
84.4460983 24.7647991 8.48569965
84.4244995 24.7861004 9.26469994
84.4488983 24.6121006 12.7125998
84.4241028 24.9137993 7.31190014
84.4473038 24.8792 7.98589993
84.4403 24.8206997 8.11060047
84.4288025 24.9508991 10.3268995
84.4502029 24.9400997 11.8301001
84.4560547 24.9220505 12.4625492
84.5342026 24.8652 12.6777
84.5577011 25.0266991 11.9432001
84.4088974 25.0359001 12.1977997
84.539299 26.7861996 5.32410002
84.7314987 23.9913006 2.43140006
84.7705994 23.9207001 7.27979994
84.6681976 23.8962002 8.49559975
84.6846008 24.3675995 1.65540004
84.7699966 24.219101 4.92199993
84.7901001 24.7721004 6.13290024
84.6523972 24.7439995 6.62720013
84.6753998 24.7961006 7.69280005
84.7332993 24.6681995 11.5250998
84.7300034 24.8057995 7.15689993
84.7291031 24.8019009 7.53709984
84.7186966 24.8402004 7.94780016
84.719101 24.8495007 8.77050018
84.6567001 24.9172993 9.16119957
84.6353989 24.9561996 9.47200012
84.9804993 23.6226006 4.67749977
84.9552002 23.6622009 5.15439987
84.993103 23.6713009 5.26350021
84.9041977 23.7768002 6.11350012
84.947998 23.7653503 7.03049994
84.9804001 23.7273006 7.82670021
84.9645004 23.7327003 9.8828001
84.9261017 23.9564991 7.61810017
84.8343964 23.9782009 8.45040035
84.9371033 23.8780994 10.5404997
84.885498 24.0323009 4.79659986
84.9600983 24.0587006 7.33720016
84.8839035 24.0021992 9.17980003
84.9075012 24.0221996 10.7735004
84.9769974 24.0761986 12.4874001
84.9004974 24.2954006 3.0875001
84.9319992 24.3442993 5.1578002
84.8252029 24.2418003 7.21969986
84.8815002 24.3428993 7.73290014
84.9338989 24.3192997 10.8303003
84.9866028 24.2917004 11.0361004
84.8638992 24.4780998 4.73629999
84.8300018 24.5618992 7.06379986
84.8592987 24.5909996 7.99639988
84.8460007 24.4487991 10.3297997
84.9517975 24.4591007 10.6901999
84.9205017 24.7338009 3.70190001
84.8159027 24.6832008 4.63469982
84.8315964 24.7049999 5.55009985
84.8588028 24.7563992 5.74160004
84.892601 24.6704998 6.0309
84.9813995 24.7840004 7.40339994
84.9377518 24.6628494 7.9300499
84.9080963 24.6786995 9.95880032
84.8964005 24.6853008 10.2679996
84.8195038 24.8405991 6.62909985
84.983902 24.8976002 8.61120033
84.9896011 24.9055004 9.8192997
84.9383011 24.9116001 10.2827997
84.8123016 24.9181004 10.8650999
84.9576035 24.9048004 11.1906996
84.8208008 25.0027008 8.4375
85.0186996 23.5200996 3.3987999
85.1324997 23.4803009 3.81130004
85.115097 23.4603996 4.22590017
85.0056 23.4412003 4.69339991
85.1160965 23.5214996 4.94189978
85.1977997 23.5359001 5.17110014
85.1893997 23.5468006 9.8093996
85.1098022 23.6555996 5.61759996
85.1798019 23.7884998 6.90269995
85.1539993 23.7108994 7.18260002
85.1516037 23.6203003 7.48010015
85.0947037 23.6812 7.72749996
85.1359024 23.6287994 12.8280001
85.039299 23.8330994 6.82289982
85.1476974 24.1937008 6.78219986
85.0838013 24.0724506 7.14445019
85.0863037 24.0153999 9.52110004
85.0257034 24.3430996 7.16090012
85.0558014 24.3381004 10.1864996
85.0159988 24.5695992 6.8901
85.1562042 24.4737015 10.5394001
85.0369034 24.7649994 6.20870018
85.1799011 24.7082996 6.57270002
85.0422974 24.6011009 7.36289978
85.0406036 24.7485008 9.95960045
85.0430984 24.8304005 5.94040012
85.049202 24.9218006 8.22430038
85.1127014 24.8957005 9.04259968
85.0958023 24.8369007 9.31610012
85.1205978 24.8880005 9.52770042
85.0802002 24.8479004 9.63199997
85.3747025 23.4281998 2.5775001
85.341301 23.5202007 4.9993
85.3597031 23.5629997 7.38579988
85.2036972 23.7189999 6.3119998
85.3775482 23.6415997 7.53849983
85.3544006 23.6231995 7.79349995
85.3767014 23.6671009 8.21199989
85.2014008 23.7394009 8.9218998
85.2996521 23.8279991 10.4608498
85.3874969 23.9531002 12.7175999
85.2113037 24.5774994 9.03520012
85.4763947 23.52635 4.4826498
85.5297012 23.6333008 5.02799988
85.5081024 23.6082993 8.16609955
85.5709 23.6450996 10.0437002
85.4561996 23.6903992 10.6091995
85.566597 23.8209 6.52320004
85.5720978 24.7241001 6.73869991
85.7248001 23.5300007 3.62700009
85.7083969 23.5445995 5.03760004
85.6621017 23.5545998 5.46750021
85.664299 23.6541996 10.0304003
85.6337967 23.8316002 12.5944996
85.9813004 23.5809994 3.85590005
85.8279037 23.4699993 4.39090014
85.9945984 23.4748001 5.07369995
85.8451004 23.5405998 5.38469982
85.8012009 23.5743008 7.61630011
85.8826981 23.6170006 4.7177
85.9630966 23.7308006 7.1546998
85.989502 23.8360996 12.1367998
86.1249008 23.5729008 4.8769002
86.0887985 23.4566994 5.1157999
86.1846008 23.7975998 9.8494997
86.1351013 23.658699 10.6399498
86.0261993 23.7544003 12.4181004
86.2911987 23.5960999 10.0944996
86.2698975 23.7073002 5.68690014
86.2286987 23.6756992 6.8973999
86.3378983 23.7486 8.17619991
86.546402 23.5328007 3.76329994
86.4266968 23.5389996 5.02939987
86.5497971 23.5853996 7.04120016
86.427597 23.7593994 8.1189003
86.543602 23.7119007 10.0387001
86.4712982 23.7367992 12.2637997
86.6715012 23.5869007 3.61109996
86.768898 23.7436008 6.62209988
86.6218033 23.6541996 12.4464998
86.9039001 23.4834995 3.84980011
86.947403 23.7185993 3.7486999
86.882103 23.7108002 3.92470002
86.8628998 23.6723003 6.01919985
86.8510971 23.8103008 6.28499985
86.8079987 23.8395996 8.9552002
87.0185013 23.7310009 8.25450039
87.0814972 23.8232994 7.60979986
87.7432022 23.8386993 6.32000017
87.7293015 23.8850002 6.42600012
87.7269974 23.8770008 9.16889954
87.8128967 23.7854996 8.78369999
88.058197 23.6965008 5.40089989
88.3153 23.5184002 3.57570004
88.3150024 23.5641994 3.61570001
88.3405991 23.4925995 5.01090002
88.2204971 23.9549007 5.71299982
88.7498016 23.5328007 3.62089992
88.6119995 23.5562992 3.98180008
88.7275009 23.7313004 5.83080006
88.8983002 22.9972992 5.22919989
88.9268036 23.0489006 5.01259995
88.9151001 23.5135994 3.67790008
88.9365005 23.5554008 4.17700005
88.9355011 23.7886009 5.6882
88.9083023 23.7196007 6.72809982
89.0795975 22.9864006 5.12459993
89.082901 23.6636009 7.00040007
89.0253983 23.8127003 9.54959965
89.2729034 22.9934998 5.01550007
89.3403015 23.1919994 10.7265997
89.3089981 23.2488995 10.8257999
89.9766006 23.5578003 3.9604001
89.9371033 23.5741997 5.72259998
89.9586029 23.6711998 6.8355999
89.9673004 23.9109001 8.72159958
89.9550018 23.9738998 8.98569965
90.0419006 23.7653008 5.69960022
90.0697021 23.7073002 5.86149979
90.063797 23.7486 8.14150047
90.1917038 23.6903992 8.73219967
90.0775986 24.1620998 4.00089979
90.3037033 23.3701 4.63320017
90.3258972 23.4570999 4.93879986
90.2089996 23.5834999 6.91559982
90.2872009 23.5561008 10.2601995
90.7991028 23.6154995 4.06239986
90.8970032 23.9211006 9.70790005
91.0505981 23.6296005 3.47930002
91.0497971 23.8155994 12.1380997
91.2305984 23.8418999 9.14299965
91.9160461 23.516449 3.48255014
91.9039001 23.9398994 11.9183998
92.3246994 23.7607002 12.1337004
92.4116974 23.3785992 7.5309
92.5313034 23.4792995 3.43959999
92.5819016 23.8211002 11.3483
92.6364975 23.1616001 7.38399982
92.7034988 23.6973 11.7236996
92.8535004 23.7133999 12.2444
92.841301 24.0503006 6.5177002
93.0431976 23.9136009 12.0094004
93.3136978 23.3575993 10.3917999
93.501503 23.3276005 9.87870026
93.5871964 23.2616005 10.2110004
93.4509964 23.9937992 11.9687996
93.7321014 23.3017998 10.1358004
93.6498566 23.3072014 10.2511997
93.7917023 23.4761009 5.02080011
93.6453018 23.6588001 9.11270046
93.9455032 23.7075005 6.99289989
93.8283997 23.6494999 9.88469982
94.1560974 23.5118999 4.56190014
94.197197 23.5158997 4.94610023
94.0220032 23.6462994 7.09100008
94.3432007 23.4916 7.72380018
94.344101 23.9020996 12.0581999
94.5597 23.8532009 9.60770035
94.6654968 23.4671001 4.36639977
94.6156006 23.5027008 7.28389978
94.7015991 23.7383003 10.1380997
94.8728027 23.5993004 7.81169987
94.8019028 23.8479996 12.1476002
95.1977005 23.3600998 4.24300003
95.0783997 23.4022007 5.19619989
95.0134964 23.5212002 9.88749981
95.0017014 23.6896 7.92000008
95.1585999 23.6945992 10.3611002
96.939003 24.9787998 11.5426998
96.8146973 25.3181 9.95639992
97.0049973 24.6714993 8.83080006
97.1462021 24.7467003 10.8277998
97.0030975 24.8013992 6.1573
97.1386032 24.8714008 7.02269983
97.1624985 24.8225994 7.90089989
97.0560989 24.9883995 11.7770996
97.2813034 24.6236992 6.00390005
97.2083969 24.8337002 5.25899982
97.2807007 24.9120007 8.85109997
97.3933029 24.8607998 10.3787003
97.5850983 23.8337002 5.75379992
97.4674988 24.6040001 12.2413998
97.4917984 24.8222008 11.0492001
97.4545975 25.0384998 11.6905003
97.7393036 23.5484009 4.7585001
97.7797012 23.7763996 4.45889997
97.6746979 23.7007008 4.82259989
97.7966995 24.0042992 3.94460011
97.6794968 24.1597996 4.02250004
97.7013016 24.2306499 5.09105015
97.7847977 24.5811996 10.4695997
97.657402 24.6797009 4.76399994
97.7450027 24.7754002 9.51809978
97.7797012 24.8768997 3.56469989
97.803299 23.9652004 7.29040003
97.8518982 23.9592991 10.6933002
97.8179016 24.1231995 5.04930019
97.8522034 24.1019993 7.25689983
97.9598007 24.1224003 7.83799982
97.8893967 24.0340996 8.56519985
97.8259964 24.2168999 6.88490009
97.9981995 24.4638004 9.61030006
97.8416977 24.4442997 10.0436001
97.9297028 24.7299995 9.00119972
97.8598022 24.7094002 10.4752998
98.0633011 23.5191002 4.01170015
98.0225983 24.0582008 9.29899979
98.4459991 23.7138004 9.80370045
98.9514999 23.5702991 4.82350016
99.047699 23.6042995 9.3774004
99.3264008 23.7740002 10.0242996
99.3878021 23.7528 10.4685001
