# .PCD v0.7 - Point Cloud Data file format
VERSION 0.7
FIELDS x y z
SIZE 4 4 4
TYPE F F F
COUNT 1 1 1
WIDTH 381
HEIGHT 1
VIEWPOINT 0 0 0 1 0 0 0
POINTS 381
DATA ascii
101.198799 -100.893898 0.923699975
102.022301 -108.485001 1.07319999
103.298401 -108.474602 1.23520005
103.575996 -108.417702 1.09420002
103.587402 -108.486504 1.20050001
103.700203 -108.464401 1.09860003
104.206802 -105.2882 1.07420003
104.845001 -108.498199 1.23234999
105.121994 -108.451355 1.12619996
105.117203 -108.388298 1.00320005
105.283699 -103.815697 0.903400004
105.316597 -102.387299 0.954400003
105.417702 -105.680397 1.03639996
105.754898 -105.938004 0.989199996
106.247101 -112.893204 1.29200006
106.320198 -112.815201 1.48570001
106.34375 -103.91925 1.08434999
106.346878 -100.0784 0.905200005
106.2854 -100.073502 1.14164996
106.405403 -100.086899 1.01919997
106.8899 -112.524498 1.37769997
106.965302 -101.124001 1.19869995
106.953796 -101.074898 1.2464
107.150398 -104.2379 1.36590004
107.133797 -104.219803 1.56589997
107.0961 -104.096603 1.58589995
107.126602 -101.205803 1.35290003
107.093048 -101.0485 1.1329
107.112503 -101.107101 1.23405004
107.178802 -100.079803 0.90259999
107.201202 -103.979698 1.34200001
107.207199 -103.893501 1.45959997
107.387802 -103.686203 1.20490003
107.303001 -103.782402 1.44309998
107.323097 -101.464699 1.61080003
107.315598 -101.261703 1.26989996
107.38475 -101.013351 1.15265
107.317047 -101.075203 1.27425003
107.257599 -101.128601 1.44299996
107.202797 -100.945396 1.13429999
107.236504 -100.990303 1.34879994
107.599098 -108.474197 1.14619994
107.458397 -104.625298 1.56239998
107.444252 -103.641403 1.3391
107.465401 -103.646103 1.44509995
107.575104 -103.592499 1.55130005
107.565697 -101.87925 1.37004995
107.507103 -101.539597 1.13859999
107.559196 -101.499397 1.26839995
107.465897 -101.556099 1.4483
107.470398 -101.243103 1.39049995
107.465897 -101.326698 1.70829999
107.504723 -101.091461 1.32819998
107.486954 -101.117752 1.53299999
107.697403 -103.5457 1.37269998
107.692047 -103.5504 1.56830001
107.674103 -103.150597 1.05760002
107.767998 -102.844299 1.36810005
107.725502 -101.354202 1.80490005
107.713631 -101.070129 1.07403338
107.721367 -101.036667 1.27929997
107.682999 -101.088142 1.54320002
107.694504 -101.087952 1.70564997
107.714104 -100.990196 1.41840005
107.910355 -103.508553 1.28195
107.935799 -103.5681 1.57650006
107.972099 -103.505699 1.81509995
107.809502 -102.993599 1.29489994
107.921997 -102.697998 1.59029996
107.927696 -102.634903 1.60450006
107.967102 -101.2332 1.93295002
107.847702 -101.011597 1.18579996
107.936996 -101.069595 1.69193327
107.945755 -100.948753 0.989600003
107.934799 -100.960197 1.27263331
107.931419 -100.970497 1.50800002
107.898102 -100.9963 1.76139998
107.839798 -100.2043 0.949500024
108.068199 -103.510597 1.42110002
108.011703 -102.615303 1.53299999
108.060097 -102.459602 1.30159998
108.150299 -102.491402 1.55180001
108.098701 -101.030602 1.7967
108.0261 -100.918503 1.12349999
108.048698 -100.950302 1.20560002
108.189201 -100.8964 1.49849999
108.123901 -100.948936 1.66573334
108.102997 -100.101501 0.890200019
108.3713 -104.662804 1.62950003
108.327751 -104.1222 1.85890007
108.384003 -103.954697 1.83319998
108.232101 -103.778702 1.53030002
108.257004 -101.293602 1.96420002
108.244797 -101.106003 1.83844995
108.31575 -100.944252 1.0862
108.298103 -100.949532 1.28929996
108.3078 -100.950241 1.52481997
108.331902 -100.944099 1.68130004
108.260498 -100.965698 1.81459999
108.371353 -100.059555 0.90139997
108.535004 -104.360855 2.13960004
108.514999 -104.273903 2.29155016
108.574501 -104.348602 2.43580008
108.555801 -104.011398 1.46389997
108.5868 -104.149803 2.56870008
108.530998 -103.857903 1.42379999
108.4692 -103.843697 1.76289999
108.473503 -103.828903 1.83770001
108.5709 -103.937195 2.24344993
108.4758 -103.698799 1.82270002
108.555099 -103.656898 2.00489998
108.4496 -101.206398 1.77330005
108.533669 -101.251938 1.83819997
108.486801 -101.295303 2.03425002
108.432602 -101.025002 1.09200001
108.577103 -101.1147 1.24890006
108.486298 -101.050652 1.56774998
108.516335 -101.059967 1.71920002
108.562202 -100.971703 1.44319999
108.462402 -100.998497 1.63979995
108.435799 -100.059799 0.886799991
108.436996 -100.068054 1.05465007
108.662247 -104.304306 2.30100012
108.6427 -104.2976 2.47930002
108.604897 -104.109299 2.37800002
108.615303 -104.043602 2.42470002
108.648598 -104.029503 2.6236999
108.613197 -103.941002 1.92219996
108.624054 -103.895905 2.06890011
108.616898 -103.8302 2.36150002
108.670097 -103.888298 2.65869999
108.721901 -103.648102 1.93130004
108.779999 -103.673897 2.18779993
108.731331 -103.726166 2.28693342
108.680397 -103.789597 2.67759991
108.670303 -103.1483 1.80050004
108.782501 -101.580597 1.99319994
108.672302 -101.549896 2.05710006
108.677002 -101.204803 1.45529997
108.736847 -101.3423 1.88249993
108.639099 -101.193001 1.34119999
108.688927 -101.073448 1.53610003
108.683655 -101.0495 1.69035006
108.7967 -100.947403 0.91079998
108.749199 -100.938698 1.12890005
108.733704 -100.967903 1.23969996
108.67765 -100.942001 1.50134993
108.733597 -100.936554 1.63080001
108.888451 -103.613503 2.3427
108.921532 -103.627731 2.51973343
108.950897 -103.721954 2.67785001
108.8787 -103.541 2.09074998
108.865906 -103.56675 2.33265018
108.9814 -101.706703 1.95560002
108.952057 -100.857803 1.10899997
108.81485 -100.899002 1.32725
108.839272 -100.863998 1.49253333
108.891136 -100.887566 1.72169995
108.856903 -100.916603 1.82350004
108.907303 -100.7715 1.13440001
108.862549 -100.789848 1.62699997
109.010399 -103.606003 1.82560003
109.112999 -103.654602 2.69140005
109.1343 -103.530701 1.99880004
109.070251 -103.497604 2.37599993
109.1138 -103.506302 2.47839999
109.189903 -103.516998 2.61199999
109.106247 -100.829376 1.729725
109.180901 -100.9161 1.83270001
109.108864 -100.751602 1.11356664
109.1036 -100.775299 1.36023331
109.115601 -100.731033 1.52933335
109.167603 -100.773399 1.67130005
109.285797 -103.474655 2.14289999
109.286133 -103.499901 2.32316661
109.286903 -103.476601 2.45519996
109.397003 -101.664803 1.92780006
109.305 -101.622902 2.01239991
109.28447 -100.834732 1.75100005
109.331802 -100.927498 1.86810005
109.375198 -100.760498 0.986699998
109.30275 -100.759453 1.12720001
109.338158 -100.725937 1.27655995
109.257401 -100.605698 1.50829995
109.333199 -100.776245 1.62335002
109.336502 -100.795998 1.82190001
109.327499 -100.447601 1.71599996
109.584801 -103.598701 2.06719995
109.517403 -103.538902 2.3678
109.540398 -103.581299 2.42420006
109.599602 -102.807999 2.20499992
109.516296 -101.638252 1.85224998
109.5494 -100.809799 1.09140003
109.5243 -100.821503 1.29340005
109.461929 -100.762848 1.11555004
109.516632 -100.784698 1.28326666
109.514099 -100.763397 1.56099999
109.476196 -100.752899 1.64075005
109.425697 -100.263496 1.14769995
109.4459 -100.253265 1.31003332
109.419998 -100.355103 1.52129996
109.545799 -100.283203 1.64174998
109.6278 -103.6539 2.18569994
109.621353 -103.741653 2.42540002
109.624001 -103.747398 2.63210011
109.661499 -103.527702 2.48280001
109.7995 -103.1073 2.3032999
109.793701 -102.952599 2.36310005
109.783997 -102.674896 2.2335
109.7145 -102.7173 2.51040006
109.783699 -102.661102 2.62109995
109.7314 -101.796501 2.28780007
109.795303 -101.772202 2.40409994
109.7855 -101.537102 2.23720002
109.673599 -101.239899 1.74430001
109.692802 -101.124298 1.76660001
109.665497 -100.889 1.15094995
109.696899 -100.833504 1.38940001
109.621696 -100.780502 1.24779999
109.639 -100.327751 1.87730002
109.628502 -100.1828 1.47790003
109.955399 -103.688301 2.12919998
109.933266 -103.713432 2.34669995
109.8862 -103.728798 2.59759998
109.882202 -103.688499 2.7953999
109.8573 -102.891403 2.34959984
109.838852 -102.680901 2.36539984
109.808701 -102.686401 2.68149996
109.9319 -102.445801 1.74109995
109.892502 -102.497299 2.09599996
109.882401 -102.488144 2.27269983
109.878098 -102.515297 2.50309992
109.961899 -102.308296 1.62489998
109.961563 -102.357101 2.11820006
109.933052 -102.327049 2.36290002
109.999603 -102.385902 2.50679994
109.980904 -102.352203 2.70440006
109.8871 -101.809601 2.12069988
109.959297 -101.655296 2.28789997
109.998299 -101.746399 2.6164999
109.881805 -101.492798 1.98659992
109.841904 -101.530998 2.15210009
109.904068 -101.511971 2.28866673
109.919754 -101.3097 2.05104995
109.948395 -101.323868 2.28460002
109.954803 -101.317467 2.45203328
109.898537 -101.165665 1.13296664
109.982597 -101.075699 1.57809997
109.965103 -101.199799 1.85950005
109.9701 -100.295403 1.14779997
109.965797 -100.230904 1.32720006
109.935402 -100.326897 1.87670004
109.830902 -100.302696 2.01440001
109.994904 -100.112503 1.50100005
109.904404 -100.000397 1.72379994
109.909805 -100.151749 1.89859998
109.989502 -100.07 2.15059996
110.094902 -103.823799 2.74519992
110.021698 -103.687302 2.74460006
110.057602 -103.491852 2.4835
110.077049 -102.278748 2.10492492
110.056946 -102.29995 2.27285004
110.151703 -102.179298 2.47919989
110.099197 -101.952103 2.28270006
110.089798 -101.666298 2.02830005
110.108803 -101.636398 2.72530007
110.003448 -101.454697 2.47954988
110.008102 -101.213997 2.32570004
110.02285 -101.296097 2.4925499
110.056152 -101.059128 1.12880003
110.004402 -101.0327 1.34790003
110.063278 -101.066422 1.68770003
110.172302 -101.005699 1.81239998
110.055252 -101.085098 2.05019999
110.075546 -101.111954 2.33395004
110.060799 -101.122421 2.5225749
110.139503 -101.038803 2.6012001
110.135254 -100.931847 1.05730009
110.1147 -100.950188 1.32424283
110.08345 -100.96125 1.4365499
110.139633 -100.905968 1.87466669
110.081001 -100.982903 2.22679996
110.187599 -100.991699 2.49049997
110.147598 -100.774902 1.58290005
110.020599 -100.512299 1.39970005
110.1903 -100.447899 2.45420003
110.031898 -100.323799 0.99000001
110.039398 -100.28215 1.1263001
110.055901 -100.251503 1.29700005
110.101097 -100.279099 1.59290004
110.116043 -100.360397 1.71585
110.039253 -100.283699 1.86979997
110.067497 -100.334602 2.04559994
110.09565 -100.329201 2.2579999
110.105652 -100.296547 2.49744987
110.055779 -100.036652 1.14992499
110.0532 -100.084 1.32050002
110.073799 -100.074333 1.49829996
110.071098 -100.031197 1.65789998
110.055328 -100.055023 1.87494993
110.083076 -100.064346 2.09899998
110.102974 -100.091774 2.29767489
110.113899 -100.147202 2.41729999
110.211098 -103.462051 2.45580006
110.2491 -102.073898 2.28719997
110.234703 -102.186096 2.51320004
110.231201 -101.891998 2.47659993
110.303398 -101.543198 2.60279989
110.317001 -101.098198 2.65775013
110.212997 -100.979698 0.941600025
110.246002 -100.880898 1.0359
110.258102 -100.862038 1.27433336
110.237602 -100.902298 1.55949998
110.319305 -100.909302 1.72354996
110.200897 -100.917 1.95449996
110.218002 -100.929398 2.0453999
110.233101 -100.977798 2.33179998
110.263664 -100.9002 2.47103333
110.268501 -100.692451 2.05294991
110.244797 -100.763802 2.2177
110.222198 -100.599403 1.37800002
110.350998 -100.558098 1.7931
110.261902 -100.5634 2.20749998
110.457497 -100.642601 2.57220006
111.277603 -101.309402 2.58960009
111.2342 -100.510201 2.69280005
111.216698 -100.0634 1.57560003
111.388199 -100.075302 2.18120003
111.445099 -100.029999 2.09990001
111.562805 -100.1455 2.44155002
111.607399 -100.266998 2.39989996
111.695496 -100.029755 2.45305014
111.603897 -100.0177 2.68120003
111.857498 -101.050201 2.78629994
111.8937 -100.8871 2.58010006
111.824303 -100.890404 2.71029997
112.742996 -100.365402 1.50839996
112.616096 -100.0298 1.53900003
113.752098 -100.014702 2.5868001
113.755096 -100.1175 2.75629997
114.765999 -100.4888 2.55679989
115.041199 -100.661102 2.60339999
117.106697 -102.014198 2.76340008
117.185097 -101.6418 2.50410008
117.381401 -103.616699 1.78639996
117.376602 -103.2966 2.09960008
117.285698 -103.305 2.40149999
117.349197 -103.198799 2.19819999
117.283203 -102.941147 2.36030006
117.288597 -102.852203 2.48990011
117.306099 -102.793198 2.33870006
117.399002 -102.556099 2.03279996
117.256401 -102.504402 2.3671
117.205399 -102.3909 2.41770005
117.209198 -102.097099 2.53489995
117.371696 -101.953102 1.55850005
117.239098 -101.749001 2.33520007
117.384399 -100.449097 1.75730002
117.311897 -100.531303 2.39470005
117.33625 -100.390297 2.14319992
117.373299 -100.203598 2.51699996
117.433296 -103.620499 1.45449996
117.450401 -102.339104 1.62709999
117.593803 -102.141197 0.870199978
117.542 -102.063499 1.40079999
117.416801 -102.111397 1.81640005
117.508598 -100.822998 1.68840003
117.565903 -100.816902 1.89219999
117.457001 -100.746399 0.973699987
117.407402 -100.738297 1.2421
117.476547 -100.772499 1.51954997
117.512955 -100.6763 1.90265
117.519547 -100.701096 2.1017499
117.480698 -100.595497 1.77079999
117.408699 -100.522202 2.30480003
117.956497 -101.787697 0.64410001
118.128799 -104.2118 0.906199992
118.561996 -108.047699 0.674600005
119.108101 -107.975403 0.823800027
119.799797 -108.150803 0.887199998
119.686302 -102.133102 0.621999979
