# .PCD v0.7 - Point Cloud Data file format
VERSION 0.7
FIELDS x y z
SIZE 4 4 4
TYPE F F F
COUNT 1 1 1
WIDTH 1845
HEIGHT 1
VIEWPOINT 0 0 0 1 0 0 0
POINTS 1845
DATA ascii
280.069702 -347.283905 2.51189995
280.084808 -341.553802 5.19859982
280.210785 -347.180206 12.5186005
280.282013 -341.031189 1.97350001
280.68869 -347.085999 12.7812996
280.7724 -346.990387 9.23239994
280.728912 -346.73761 6.19360018
280.696411 -341.368103 1.51689994
280.989105 -347.475098 12.6651001
280.937897 -347.5289 13.7255001
280.983887 -347.44519 14.3362999
280.922699 -347.39801 12.2137003
280.945587 -347.16391 9.3579998
281.17691 -347.633392 9.20049953
281.145599 -347.51709 6.92880011
281.173706 -347.519714 9.09020042
281.115906 -347.443115 9.92010021
281.194305 -347.273987 5.62559986
281.165314 -347.259613 7.29320002
281.170502 -347.228485 9.51550007
281.006104 -347.330292 10.2931004
281.065399 -347.331207 10.6730003
281.130707 -347.053894 3.3283
281.101593 -346.772705 -0.918500006
281.352386 -347.665192 9.74650002
281.227295 -347.490997 10.4986
281.336121 -347.312439 2.83505011
281.276398 -347.393585 4.08269978
281.233307 -347.303406 5.81239986
281.205994 -347.362213 6.04629993
281.347595 -347.384003 6.61899996
281.242188 -347.135193 2.92194986
281.240509 -347.157196 3.05960011
281.266205 -347.11731 3.2888
281.223999 -347.020508 3.4618001
281.219147 -347.091003 3.90930009
281.395508 -340.629486 14.5049
281.376312 -340.417908 11.7476997
281.301392 -340.536011 12.4352999
281.330505 -340.425201 13.2299004
281.248901 -340.501099 14.4528999
281.395203 -340.306793 11.3556004
281.319885 -340.222992 12.0677004
281.32901 -340.258301 12.5346003
281.320801 -340.295105 13.0131998
281.26651 -340.259796 13.8688002
281.334106 -340.021912 9.59370041
281.378387 -340.0737 9.99470043
281.371185 -340.094391 10.6000996
281.379089 -340.125092 10.8636999
281.269592 -340.119507 11.0257998
281.267212 -340.161591 11.4359999
281.31189 -340.099091 11.9428997
281.339539 -340.063049 12.7691994
281.23407 -340.065796 13.3867998
281.233185 -340.110107 14.1612997
281.22641 -340.113586 14.2882996
281.413513 -347.513702 3.07809997
281.415802 -347.589294 6.40240002
281.416412 -347.191498 3.62199998
281.555603 -341.760986 7.44449997
281.5401 -341.560486 7.3671999
281.589996 -341.326508 7.70900011
281.529694 -341.030487 7.5921998
281.533813 -340.900391 7.69430017
281.595612 -340.828094 8.09829998
281.544891 -340.750305 4.07999992
281.536804 -340.728088 7.69390011
281.578491 -340.306702 4.38170004
281.59079 -340.376404 5.75860023
281.442596 -340.343903 7.66569996
281.516113 -340.2612 8.07909966
281.578491 -340.34021 8.25500011
281.591705 -340.057709 2.83179998
281.556396 -340.006897 4.61980009
281.564301 -340.112915 5.54430008
281.506592 -340.026093 6.08960009
281.497711 -340.068512 6.39249992
281.571198 -340.108307 6.41239977
281.514252 -340.018982 6.95055008
281.453064 -340.041351 7.50635004
281.473389 -340.098694 8.09280014
281.508301 -340.050201 8.41390038
281.546112 -340.10199 8.96420002
281.414093 -340.041687 9.21380043
281.482513 -340.021606 10.1506996
281.770996 -342.285309 7.70629978
281.769897 -342.117401 7.52050018
281.680237 -342.076965 7.61100006
281.654114 -341.645203 7.53669977
281.756805 -341.529388 4.34110022
281.729492 -341.51181 7.83659983
281.739502 -341.257812 4.46449995
281.654663 -341.31134 7.75334978
281.727112 -340.961609 0.761399984
281.627106 -340.894592 4.10830021
281.684296 -340.807007 7.93310022
281.786102 -340.793793 1.13429999
281.722656 -340.729614 1.31745005
281.741608 -340.711212 4.65600014
281.728699 -340.40271 1.22660005
281.796509 -340.522095 1.52769995
281.60141 -340.593597 4.27260017
281.608185 -340.463196 4.58710003
281.6745 -340.584686 8.09899998
281.658295 -340.226288 0.986699998
281.675201 -340.2789 1.70220006
281.654602 -340.225494 3.47519994
281.770294 -340.028992 -0.862800002
281.669495 -340.158386 1.13209999
281.736694 -340.133301 1.45910001
281.688599 -340.149292 1.77429998
281.671997 -340.105804 2.0934
281.707306 -340.054413 2.68790007
281.694214 -340.105103 3.09260011
281.690308 -340.164703 3.48149991
281.600708 -340.025299 4.24650002
281.615692 -340.117004 4.74480009
281.635712 -340.162506 4.94439983
281.644714 -340.032196 5.16480017
281.61441 -340.189911 5.29390001
281.609619 -340.033203 6.07310009
281.802399 -342.314514 7.61250019
281.932587 -341.956909 0.782999992
281.824005 -341.869202 4.30310011
281.942902 -341.937286 4.75909996
281.867889 -341.97644 7.85560036
281.96579 -341.64151 1.4691
281.898315 -341.524475 1.0654
281.939301 -341.478699 1.44430006
281.807587 -341.422394 4.60699987
281.865112 -341.212006 1.24720001
281.825745 -341.299042 4.58104992
281.822815 -341.185608 0.866699994
281.869385 -341.039001 1.01139998
281.822906 -341.012604 1.22249997
281.977783 -340.962708 -1.92910004
281.933502 -340.88208 -0.746250033
281.918884 -340.681885 -1.71029997
281.929596 -340.644592 -1.40859997
281.972473 -340.734375 -1.24695003
281.927612 -340.460907 -2.45440006
281.920837 -340.553467 -2.23899984
281.845215 -340.484619 -1.90180004
281.846588 -340.407806 -1.72839999
281.918915 -340.571594 -1.12220001
281.894714 -340.459198 -0.930800021
281.840698 -340.550415 -0.750899971
281.821289 -340.582001 1.43480003
281.872711 -340.272705 -1.38110006
281.845886 -340.226013 -1.12
281.848297 -340.299713 -0.816900015
281.810913 -340.384399 -0.699800014
281.838013 -340.114197 -1.82340002
282.02951 -342.0625 0.871200025
282.004395 -341.95929 4.24289989
282.035889 -341.792694 4.51420021
282.003296 -340.885193 -1.43420005
282.067383 -340.515076 -2.36695004
282.226593 -347.343903 13.5577002
282.441711 -346.799011 14.4433002
282.710602 -347.063995 14.4466
283.015015 -347.0065 14.4426003
283.478912 -346.8909 14.4715996
284.022186 -346.63089 14.6400003
284.392212 -343.207214 -0.186299995
284.538208 -346.844299 14.5475998
284.784393 -346.692291 12.6592999
284.970093 -347.022614 9.03320026
284.999512 -346.94751 10.1405001
284.875702 -346.941986 12.8441
284.938202 -346.849091 13.6919003
284.991089 -346.716187 9.14459991
284.824402 -346.686798 9.57590008
284.988586 -346.697601 9.78520012
284.96051 -346.706512 9.95569992
284.800995 -346.682312 10.4306002
284.960114 -346.565887 5.94350004
285.1586 -347.082001 9.35509968
285.111908 -346.848694 6.24370003
285.184601 -346.985291 7.46309996
285.097198 -346.884308 9.4204998
285.003387 -346.987488 9.82069969
285.025208 -346.923492 13.5120001
285.127045 -346.666443 6.10165024
285.130402 -346.712891 6.92110014
285.13031 -346.664307 7.22550011
285.002502 -346.630005 10.1671
285.071106 -346.458557 2.7665
285.048706 -346.463013 2.9756
285.193207 -346.59491 3.25049996
285.026886 -346.565887 6.54409981
285.005798 -346.5177 7.0939002
285.174988 -346.318207 -0.768700004
285.105194 -346.386597 3.01430011
285.229309 -346.80069 2.75929999
285.278992 -346.610291 0.795400023
285.333984 -346.647217 2.6645
285.257202 -346.672089 3.20689988
285.325287 -346.715393 3.93460011
285.2547 -346.706085 10.8400002
285.218109 -346.598602 3.95749998
285.221985 -346.353088 -0.679899991
285.301697 -346.334015 4.43389988
285.498688 -344.286407 -1.54059994
285.663788 -345.445496 -1.32249999
285.621002 -345.283905 -1.76639998
285.647003 -345.114594 -1.84539998
286.3992 -343.129089 1.19149995
286.246307 -342.311798 0.303000003
286.688507 -345.848602 12.8986998
286.771393 -342.662903 0.328500003
286.743103 -342.761597 0.431100011
286.75531 -342.419708 0.591899991
286.986298 -346.2005 12.7165003
286.880798 -346.093567 12.6632004
286.823395 -345.926697 9.38799953
286.885712 -345.868805 9.53069973
286.822906 -345.976501 12.8203001
286.940704 -345.783997 13.0949001
286.962006 -345.508789 2.83209991
286.910614 -345.374298 -1.68519998
286.888092 -343.487213 0.941100001
286.898895 -342.542694 0.159799993
286.856903 -341.641113 -1.68449998
287.069885 -346.105011 6.19089985
287.18869 -346.033295 6.52150011
287.045013 -346.123291 9.34619999
287.110291 -345.811401 12.8787003
287.097992 -345.623901 2.75869989
287.094391 -345.603607 10.0017996
287.165009 -343.317505 0.899999976
287.392212 -346.115295 7.74819994
287.397614 -346.098114 12.6532001
287.3591 -346.068512 13.1240997
287.25769 -345.908997 6.08389997
287.337585 -345.930786 9.26949978
287.293396 -345.975464 12.91185
287.286285 -345.870392 13.1321001
287.377594 -345.755615 2.52460003
287.296814 -345.742706 9.81900024
287.38501 -345.4711 3.16869998
287.343811 -345.558411 6.66279984
287.241302 -343.649811 1.17939997
287.286102 -343.083893 0.786499977
287.273285 -342.802399 -0.267199993
287.336609 -342.885193 0.0441000015
287.222198 -342.739594 0.643700004
287.59491 -346.282501 13.5930996
287.494202 -346.213806 13.6086998
287.535095 -346.065613 13.1499004
287.441895 -345.838013 9.53680038
287.56311 -345.867889 13.7658005
287.430603 -345.627014 2.97539997
287.446411 -345.715607 6.16879988
287.465088 -345.699402 6.53730011
287.5513 -345.779999 6.60150003
287.443909 -345.644806 10.6732998
287.483398 -344.644409 0.627600014
287.441986 -343.533112 0.588199973
287.547089 -343.122192 0.466600001
287.468811 -342.674011 -0.067900002
287.658386 -346.283997 8.68540001
287.696594 -346.310547 13.9619999
287.785187 -346.066406 6.26350021
287.747406 -346.036499 7.6631999
287.786407 -346.088501 8.09840012
287.791901 -346.159393 8.38570023
287.785004 -346.048798 9.16284943
287.644409 -346.185791 11.6550999
287.741791 -346.116699 13.0025997
287.774506 -345.865814 2.77399993
287.729797 -345.883698 5.97849989
287.719299 -345.956909 6.37190008
287.670013 -345.911407 8.86190033
287.643799 -345.960602 10.0888996
287.600494 -345.983307 10.3427
287.670502 -345.962311 10.5485001
287.683411 -345.984802 10.8453999
287.604401 -345.987701 13.8802004
287.62381 -345.724915 2.80870008
287.790894 -345.778687 5.35720015
287.778595 -345.757812 6.72270012
287.747314 -345.721893 7.24230003
287.669098 -345.565613 -0.524200022
287.78299 -345.511688 -0.335000008
287.740814 -344.363098 0.729499996
287.775513 -344.102692 0.845799983
287.887085 -346.215088 8.96520042
287.985291 -346.258514 14.3466997
287.944305 -346.092285 5.18599987
287.916107 -346.08609 5.50719976
287.820801 -346.160187 8.19999981
287.842102 -346.079712 8.32069969
287.891541 -346.112946 8.89570045
287.987091 -346.076385 10.5298004
287.906311 -346.113586 10.7641001
287.823608 -346.140198 13.5939999
287.954803 -346.079712 14.3107004
287.91629 -345.9198 1.21449995
287.998291 -345.976501 5.2434001
287.970398 -345.936005 5.45499992
287.862152 -345.882263 5.73810005
287.830292 -345.9422 6.98710012
287.800598 -345.938995 7.5243001
287.946686 -345.988007 7.78399992
287.878998 -345.879913 14.6492996
287.990509 -345.638885 -0.799499989
287.987793 -345.790894 5.54250002
287.891693 -343.758789 0.754999995
287.843292 -343.142303 -0.303299993
287.877991 -342.550507 -0.130799994
288.00351 -346.038605 5.20190001
288.126495 -346.085999 5.8375001
288.093903 -345.885895 1.73660004
288.120087 -345.859589 2.35809994
288.199005 -345.927612 4.36800003
288.029205 -345.829803 5.80660009
288.075195 -345.650696 -0.81309998
288.180908 -345.341492 3.14120007
288.013794 -343.333313 -0.567600012
288.167297 -340.059814 -2.52270007
288.156189 -340.024292 -2.1888001
288.133392 -340.078094 -1.94700003
288.203705 -346.223389 14.6690998
288.382904 -345.945892 9.11279964
288.329895 -345.859314 12.3713999
288.223511 -345.770508 2.66009998
288.353394 -345.600708 3.8513
288.398804 -345.338898 3.06690001
288.349304 -341.900391 -1.94439995
288.24881 -340.854797 -2.12849998
288.259338 -340.938171 -1.92266667
288.237793 -340.474609 -1.79340005
288.210114 -340.144806 -2.10669994
288.509796 -346.050293 12.8712997
288.580292 -346.062103 13.1589003
288.519501 -346.061096 14.0453997
288.539001 -345.837311 8.24349976
288.433594 -345.990692 12.9453001
288.535248 -345.350159 3.09310007
288.544495 -340.735504 -2.04299998
288.492188 -340.464691 -2.08969998
288.746796 -346.210205 9.20930004
288.763306 -346.300354 12.8636999
288.705688 -346.290497 13.4707003
288.675598 -346.327393 13.7638998
288.775208 -346.100891 7.06799984
288.792511 -346.111511 10.1155005
288.795898 -346.017792 12.5481997
288.729309 -346.196594 13.1970997
288.741608 -346.022095 13.8100004
288.650391 -345.908997 1.16579998
288.764801 -345.893494 6.19939995
288.770294 -345.808197 6.81020021
288.763702 -345.9841 9.17720032
288.708313 -345.983398 9.78460026
288.757996 -345.967285 10.3915997
288.700012 -345.811096 10.5626001
288.654205 -345.990997 12.7284002
288.672791 -345.999207 12.8387003
288.754211 -345.68161 2.62639999
288.666504 -345.646301 3.36800003
288.61969 -345.643402 4.07110023
288.681 -340.30011 -2.273
288.831696 -346.405609 13.3169003
288.972504 -346.22049 6.48719978
288.870483 -346.299316 9.91502571
288.803314 -346.207489 13.7125998
288.941589 -346.019409 5.83739996
288.972107 -346.081604 6.26789999
288.903503 -346.00531 6.54699993
288.906097 -346.116211 6.68429995
288.851257 -346.082336 10.3281498
288.831299 -346.016998 10.4972
288.886505 -346.100708 10.8656998
288.844086 -346.097504 14.5240002
288.976501 -345.849213 3.26349998
288.987396 -345.905792 3.58990002
288.933899 -345.872406 4.18709993
288.889709 -345.964691 4.58500004
288.855103 -345.858887 6.10389996
288.85199 -345.950897 7.65959978
288.843811 -345.651215 0.555299997
288.978699 -345.739502 3.2276001
288.861298 -345.650208 3.58759999
288.880707 -345.7453 6.26959991
288.877197 -345.756805 14.6725998
289.031097 -346.142914 3.83220005
289.062103 -346.033112 6.39099979
289.026917 -346.073364 7.08870029
289.134308 -345.871948 -0.885200024
289.053192 -345.936401 2.46519995
289.029358 -345.858887 2.71514988
289.016113 -345.920288 4.14209986
289.056396 -345.963196 4.30350018
289.041504 -345.926788 6.62109995
289 -345.937988 10.9729004
289.102386 -345.955505 11.0542002
289.167694 -345.787506 -0.874199986
289.084503 -345.707489 -0.611800015
289.014496 -345.778687 3.0150001
289.223907 -346.02301 0.851300001
289.234894 -346.031799 3.50460005
289.212189 -345.98349 -0.375800014
289.2836 -345.8909 10.8564997
289.264496 -345.887909 12.0305996
289.29599 -345.790314 14.7934999
289.383514 -342.449402 -1.47329998
289.511292 -346.127502 7.54920006
289.545288 -341.8414 -1.75810003
289.535004 -341.72699 -1.898
289.476013 -341.349396 -1.95179999
289.453094 -340.791199 -2.05100012
289.720398 -345.816803 14.5542002
289.689697 -345.789001 10.8365002
289.769592 -345.539886 1.3757
289.62149 -342.471497 -1.75890005
289.683807 -342.383087 -1.62600005
289.688843 -342.308716 -0.119599998
289.650208 -342.111694 -1.68149996
289.60141 -342.109802 -0.132400006
289.670593 -342.142395 0.0472999997
289.764404 -342.110413 0.255400002
289.793701 -341.986298 -1.92920005
289.806793 -345.889587 11.3235998
289.880615 -345.740814 5.35909986
289.949005 -345.780609 14.6865997
289.971008 -342.466888 -0.050999999
289.927979 -342.328613 0.460766673
289.896912 -342.140808 -1.94124997
290.106995 -345.719543 3.1392498
290.126892 -345.444885 1.12059999
290.018707 -345.525604 1.44060004
290.184692 -345.520905 4.43989992
290.0112 -345.500885 5.34100008
290.070099 -345.598389 14.9867001
290.084106 -343.526886 -0.680999994
290.097992 -343.245789 -1.20009995
290.168091 -342.330902 -0.64139998
290.059692 -342.339294 -0.415499985
290.076904 -342.379913 0.325399995
290.292908 -345.475098 5.21659994
290.395203 -343.533997 -0.411199987
290.290497 -343.274811 -1.35984993
290.2948 -343.242798 -0.984600008
290.3927 -342.867615 -1.33599997
290.296692 -342.803009 -0.488200009
290.315399 -342.696198 -1.02129996
290.224487 -342.644592 -0.878199995
290.283691 -342.661011 -0.382200003
290.319702 -342.638885 -0.179499999
290.246002 -342.468292 -2.12969995
290.216187 -342.549713 0.391900003
290.426086 -345.625885 12.1634998
290.528198 -345.632812 14.7089996
290.404785 -345.529602 2.17009997
290.419189 -345.479187 15.2685003
290.595795 -345.329987 14.8785
290.546509 -343.468506 -1.43900001
290.411194 -343.530914 -0.601999998
290.542511 -343.259094 -0.705600023
290.503235 -342.857971 -2.08025002
290.46759 -342.954407 -0.739700019
290.503998 -342.845795 -0.189799994
290.519989 -342.716309 -0.466800004
290.410004 -342.600708 -0.336400002
290.44989 -342.746399 -0.130899996
290.457214 -342.481598 -0.0256999992
290.44519 -342.549896 0.054299999
290.798615 -345.418396 14.7718
290.76709 -345.313293 5.81990004
290.797211 -345.338409 9.42440033
290.759491 -345.173492 8.97350025
290.701385 -345.020203 9.6498003
290.748688 -345.156403 13.1583004
290.745789 -343.780212 -0.630299985
290.666992 -342.605988 0.0939999968
290.986206 -345.426086 1.41149998
290.963898 -345.417297 1.96309996
290.848694 -345.475006 2.21860003
290.935791 -345.533112 8.52639961
290.827393 -345.258057 6.09605026
290.847504 -345.38269 9.30189991
290.8078 -345.352692 9.46700001
290.955292 -345.201691 12.9338999
290.895203 -345.048706 6.38369989
290.856293 -345.077698 13.2778997
291.017303 -345.6138 14.5906
291.108795 -345.621704 14.7574997
291.045197 -345.471313 6.19570017
291.078094 -345.540009 7.8757
291.091095 -345.462097 8.52120018
291.01059 -345.546204 12.7166996
291.133301 -345.540802 14.3943996
291.153595 -345.29599 0.845000029
291.049896 -345.201813 1.88110006
291.087585 -345.398804 12.7091999
291.144104 -345.083191 6.54090023
291.145294 -345.093506 9.74409962
291.090912 -345.021912 9.86489964
291.128296 -345.040741 10.0632496
291.062805 -345.1763 13.3220997
291.057587 -344.97229 6.08549976
291.30661 -345.654205 9.18500042
291.273712 -345.6185 9.37759972
291.299805 -345.474915 10.6378002
291.36731 -345.43869 12.1988001
291.312897 -345.560791 12.4938002
291.3461 -345.282806 6.09250021
291.279785 -345.374207 7.37139988
291.302002 -345.2276 9.91909981
291.351105 -345.054199 6.75010014
291.271698 -345.144287 9.74440002
291.261597 -345.162048 9.90584946
291.305115 -345.101807 10.0218
291.21109 -345.156708 13.3186998
291.475098 -345.406891 1.28869998
291.452515 -345.438904 4.27169991
291.436554 -345.484131 9.52855015
291.406097 -345.416199 11.4021997
291.544586 -345.284698 2.48460007
291.587799 -345.371185 3.99959993
291.4776 -345.374298 4.86609983
291.435089 -345.281097 6.14190006
291.574493 -345.303894 6.21710014
291.425507 -345.060303 6.5316
291.734589 -345.468597 6.01879978
291.686493 -345.256592 1.04779994
291.668213 -345.229401 1.61930001
291.763306 -345.316193 4.78569984
291.651306 -345.243286 6.22849989
291.664124 -345.347961 9.08314991
291.793091 -345.305206 12.5728998
291.751312 -345.081604 12.8969002
291.80899 -345.357086 5.82550001
291.990692 -345.398499 10.4219999
291.808289 -345.257507 12.8014002
291.946991 -345.082397 2.19869995
291.989899 -345.000793 2.89960003
291.991486 -345.13681 5.60900021
291.999786 -345.183807 6.13600016
291.927399 -345.170105 6.35179996
291.864899 -345.098602 12.6906996
292.087006 -345.467896 14.7131004
292.13559 -345.212585 1.52999997
292.026398 -345.26001 2.52889991
292.199097 -345.201813 2.82909989
292.094299 -345.282104 5.37440014
292.096008 -345.381989 5.61250019
292.052185 -345.39389 9.0078001
292.1073 -345.29361 14.0879498
292.062286 -345.104309 0.830900013
292.072113 -345.117798 6.13679981
292.095795 -345.191498 7.14680004
292.187592 -345.087189 13.0459995
292.191193 -344.80661 6.47809982
292.036194 -344.916687 9.59809971
292.070007 -344.885895 9.75269985
292.140411 -344.872986 9.90180016
292.086548 -344.891144 12.9185333
292.113892 -344.684204 3.24440002
292.149689 -344.752991 6.51140022
292.071411 -344.588196 9.72319984
292.351807 -345.204987 2.76850009
292.338013 -345.231812 6.17140007
292.218109 -345.239502 7.89989996
292.394989 -345.242493 8.58320045
292.342194 -345.313904 9.1576004
292.367798 -345.2453 9.44089985
292.304688 -345.205902 10.5211
292.378998 -345.348114 11.1475
292.317108 -345.295685 12.7461996
292.298645 -345.323761 12.8868504
292.343994 -345.352997 13.7886
292.395996 -345.304993 14.1815996
292.283813 -345.248505 14.8971004
292.337311 -345.13559 2.78590012
292.378204 -345.190491 2.90969992
292.352692 -345.051208 4.73880005
292.321503 -345.036713 5.37779999
292.236908 -345.150085 7.09579992
292.391815 -345.144714 7.34749985
292.348938 -345.111603 9.52754974
292.255402 -345.007904 9.72799969
292.286713 -345.072815 12.8860998
292.215607 -344.819214 6.58500004
292.376404 -344.841187 6.72240019
292.22699 -344.974213 9.83040047
292.289703 -344.924896 13.3549995
292.358795 -344.750793 6.48460007
292.202698 -340.080505 -2.14759994
292.286407 -340.074585 -1.99969995
292.556702 -345.742889 13.1611004
292.501007 -345.752991 13.8437996
292.413208 -345.516388 12.3844004
292.559113 -345.5 12.9597998
292.549103 -345.4151 13.4605999
292.511444 -345.487671 13.9631996
292.402496 -345.420685 14.0365
292.484985 -345.207214 2.54200006
292.488098 -345.210907 9.4218998
292.589294 -345.296204 9.83829975
292.515015 -345.224091 10.5201998
292.52356 -345.300995 10.6676664
292.583099 -345.359009 12.8834
292.491302 -345.369202 13.1306
292.427002 -345.25119 13.2995996
292.489288 -345.342987 13.5895004
292.531799 -345.251709 13.7510004
292.594208 -345.382111 14.3162003
292.421112 -345.157898 1.57550001
292.592407 -345.130188 4.19350004
292.598999 -345.124298 5.86479998
292.495392 -345.120789 7.01840019
292.546814 -345.165009 9.03310013
292.42981 -345.086792 10.8930998
292.536285 -345.149811 11.3067999
292.462311 -345.178802 12.9870005
292.544617 -344.943604 2.89639997
292.467896 -344.874512 7.1736002
292.4422 -344.687408 -0.200200006
292.538391 -344.759705 2.96989989
292.596191 -344.797211 3.09980011
292.632996 -345.628296 10.7987003
292.727203 -345.76181 12.8744001
292.786194 -345.577209 6.27899981
292.748108 -345.543213 9.35340023
292.691162 -345.433044 9.67920017
292.631897 -345.428802 10.0868998
292.723572 -345.4617 10.3344994
292.722595 -345.455292 12.7068996
292.613586 -345.512787 13.8620996
292.628906 -345.44519 14.3175001
292.614594 -345.241699 6.02489996
292.738647 -345.304047 6.28644991
292.739319 -345.297577 7.08866644
292.705444 -345.272308 7.49300003
292.693695 -345.391998 9.4133997
292.667694 -345.260498 9.88840008
292.732513 -345.30481 10.1025
292.670013 -345.27951 10.3240995
292.749695 -345.349304 10.8421001
292.665497 -345.304199 11.1918001
292.633392 -345.267212 11.7763996
292.759003 -345.232513 11.8134003
292.617493 -345.343597 13.0886002
292.755707 -345.222412 14.9651003
292.757202 -345.033508 0.583800018
292.64389 -345.107788 4.04890013
292.656006 -345.163605 6.03149986
292.722198 -345.199799 6.22749996
292.640411 -345.078796 6.4138999
292.697113 -345.132385 6.69560003
292.69809 -345.153412 14.5665998
292.669983 -344.853882 -0.519699991
292.739807 -344.959503 0.637300014
292.711609 -344.859497 2.8828001
292.727203 -344.896912 3.16980004
292.681702 -340.109314 -2.13050008
292.978699 -345.441406 3.62680006
292.909607 -345.41861 4.17089987
292.846191 -345.50531 7.07859993
292.809509 -345.557007 7.54920006
292.898407 -345.589813 9.45359993
292.911987 -345.490295 10.1004
292.948212 -345.207611 3.1329999
292.929108 -345.382812 3.5711
292.855988 -345.322815 3.72589993
292.866211 -345.234314 3.90849996
292.863495 -345.308929 4.11430025
292.839691 -345.212006 4.34660006
292.813599 -345.399506 6.10400009
292.971008 -345.262512 7.19840002
292.827911 -345.371613 7.65010023
292.837189 -345.259186 14.7686996
292.979889 -345.077789 0.894299984
292.96579 -345.022614 1.64639997
292.932312 -345.038086 1.98800004
292.973785 -345.102692 2.21210003
292.888885 -345.121796 2.75449991
292.816986 -345.032196 3.1020999
292.869812 -345.121613 3.9303
292.933197 -345.065887 5.48859978
292.866791 -345.188904 6.52080011
292.804596 -345.029114 14.8512001
292.868408 -345.033112 15.1561003
293.177795 -345.405304 7.40080023
293.045685 -345.468903 10.4333
293.044678 -345.492371 14.2720003
293.105499 -345.326691 0.798099995
293.014404 -345.239105 3.8204999
293.046814 -345.228088 4.47959995
293.075409 -345.253204 10.6715002
293.019104 -345.234894 11.1884003
293.103394 -345.223206 13.5805998
293.173187 -345.358795 14.3816996
293.142609 -345.369293 14.5003996
293.036804 -345.177094 0.347600013
293.096954 -345.1651 3.91400003
293.099487 -345.0979 5.30289984
293.086792 -345.075012 5.50670004
293.013794 -345.112213 5.80620003
293.177887 -345.032196 7.30579996
293.033508 -345.176697 7.76170015
293.106293 -345.003906 11.0843
293.006714 -345.184906 11.9104004
293.129486 -344.979004 1.98670006
293.192413 -344.834106 2.91409993
293.159302 -344.862091 11.2544003
293.070892 -341.477997 -1.95140004
293.13681 -341.323914 -1.97179997
293.178711 -341.170288 -2.33109999
293.069794 -340.829102 -2.27349997
293.147797 -340.601288 -2.16790009
293.021606 -340.64151 -1.99940002
293.056488 -340.560089 -1.99119997
293.1633 -340.315796 -2.21930003
293.399414 -345.203796 4.39890003
293.275391 -345.260498 13.7077999
293.205627 -345.264954 14.4876499
293.376495 -345.026794 5.64890003
293.389191 -345.118591 5.93909979
293.37619 -345.147308 6.97959995
293.322693 -345.062988 8.83479977
293.252899 -345.134399 10.8732996
293.207703 -345.1698 14.8188
293.343109 -344.935913 1.38680005
293.372589 -344.954407 4.9467001
293.343414 -344.940796 5.82000017
293.437988 -345.399109 10.9885998
293.534485 -345.224792 11.0822001
293.558655 -345.262299 14.4759502
293.479614 -345.263489 14.8535995
293.513702 -345.075287 3.99519992
293.43869 -345.031799 4.76989985
293.420197 -345.077515 11.2882996
293.417694 -345.170105 14.2252998
293.474487 -345.10321 14.8137999
293.503693 -344.888885 2.70230007
293.507385 -344.963501 5.78679991
293.431793 -344.743103 14.8980999
293.723999 -345.284088 10.3670998
293.71759 -345.23999 13.2551003
293.718109 -345.297485 13.7533998
293.675293 -345.233185 14.4495001
293.685211 -345.062012 -0.596000016
293.690002 -345.004486 4.8435998
293.726715 -345.194702 5.63530016
293.668915 -345.094788 6.93650007
293.702087 -345.028992 8.27490044
293.758698 -345.034485 11.3858004
293.727814 -345.018494 14.6365995
293.698395 -344.9711 0.470800012
293.660004 -344.923889 2.18479991
293.611786 -344.906494 5.12150002
293.708191 -344.979614 7.88070011
293.776703 -344.953186 8.80659962
293.644501 -344.884399 11.2521
293.672913 -342.47641 -0.690100014
293.681213 -342.379395 -0.0138999997
293.788391 -342.085785 -0.960200012
293.738495 -342.015015 0.376700014
293.750305 -341.935608 -0.654699981
293.804199 -345.264191 10.1781998
293.833588 -345.282715 11.1105003
293.806305 -345.009399 -0.576200008
293.88031 -345.05899 0.98299998
293.956696 -345.03479 3.62590003
293.893707 -345.019806 4.63590002
293.897095 -345.02179 5.71600008
293.967285 -345.136902 6.37599993
293.907288 -345.088654 6.63525009
293.874298 -345.159302 12.9174004
293.879486 -345.19519 14.5770998
293.815704 -345.1539 14.7895002
293.840912 -344.82431 0.691399992
293.831512 -344.9198 2.69280005
293.877502 -344.979614 3.95619988
293.892395 -344.867706 4.51999998
293.809509 -344.902405 5.84469986
293.894806 -344.903015 7.83220005
293.941986 -344.887695 8.23009968
293.888214 -344.832306 8.4932003
293.92569 -344.964508 9.00769997
293.873993 -344.966309 12.0050001
293.865204 -344.770691 15.0963001
293.886292 -343.035095 -1.12580001
293.88916 -342.099152 0.107700005
293.874115 -342.088989 0.447899997
293.952911 -341.838898 -0.124799997
293.894501 -341.727814 -0.456800014
293.908386 -341.611511 -0.212500006
293.94519 -341.72879 -0.0557000004
294.000793 -345.083893 3.2499001
294.066315 -345.038086 3.5065999
294.087311 -345.021698 5.43179989
294.012299 -345.192902 11.0365
294.004089 -345.037598 12.2035999
294.017395 -345.174286 14.7390003
294.144409 -344.983887 1.11450005
294.02829 -344.82251 2.59540009
294.076691 -344.992493 3.43449998
294.145294 -344.971893 4.48859978
294.133698 -344.851715 4.92180014
294.197693 -344.923889 11.9813995
294.129211 -344.869385 14.8739004
294.179993 -344.740692 2.19880009
294.192688 -342.939514 -1.85909998
294.041992 -342.771698 -1.29589999
294.170898 -342.797089 -0.403800011
294.07901 -342.657196 0.0357000008
294.094208 -342.449799 -0.460799992
294.140503 -342.551605 -0.371399999
294.183014 -342.22641 -0.231800005
294.093414 -342.026215 -1.7773
294.084808 -342.090698 -0.0175999999
294.062866 -342.110535 0.0749500021
294.19101 -341.884796 -0.304199994
294.058594 -341.819611 -0.179499999
294.023346 -341.787048 -0.258300006
294.286804 -345.069611 10.9587002
294.34021 -345.045013 11.0798998
294.275513 -344.810791 5.31809998
294.261108 -344.933197 8.31980038
294.346436 -344.952118 8.83396626
294.222412 -344.821014 12.1794996
294.371399 -344.951996 14.5980997
294.285309 -344.779785 5.67199993
294.29599 -342.621094 -1.1681
294.222198 -342.665314 0.244599998
294.301758 -342.297119 -1.30715001
294.243805 -342.246185 -1.02170002
294.347992 -342.375214 0.174999997
294.212708 -341.910706 -1.88859999
294.271942 -341.875763 -0.539049983
294.257385 -341.99939 -0.281199992
294.397614 -341.482697 -1.898
294.493896 -345.026306 14.2983999
294.545898 -344.831787 4.63700008
294.577606 -344.849091 9.21560001
294.558289 -344.805389 12.9186001
294.599701 -344.855103 13.1877003
294.529602 -344.954834 13.5360003
294.580505 -344.957397 14.2806997
294.418915 -344.890991 14.9652004
294.577515 -344.648407 4.48659992
294.568512 -344.750885 4.76300001
294.48999 -344.738007 5.6868
294.517487 -344.714905 11.6072998
294.564209 -344.571686 15.2125998
294.624512 -344.810913 1.31739998
294.694092 -344.92041 5.73029995
294.754395 -344.881592 5.85690022
294.712494 -344.873108 6.24030018
294.7742 -344.811096 10.1105003
294.720703 -344.889709 10.4998493
294.718689 -344.810608 11.8233995
294.7612 -344.9758 12.5489998
294.688019 -344.961212 12.8754005
294.761505 -344.992096 15.0853996
294.740295 -344.755005 2.40490007
294.709595 -344.733398 3.08200002
294.642914 -344.776215 4.64760017
294.700043 -344.744873 5.35325003
294.639587 -344.702087 5.70480013
294.73822 -344.718933 14.9127007
294.761597 -344.562897 1.31500006
294.714996 -341.334167 -2.04150009
294.9599 -344.824402 8.21020031
294.916687 -344.868896 8.56299973
294.993805 -344.838501 11.3511
294.920685 -344.868591 11.4519997
294.901306 -344.816193 11.8123999
294.890411 -344.791809 3.5237999
294.928497 -344.616791 3.85240006
294.936798 -344.74762 4.51675034
294.918915 -344.635986 5.67990017
294.887604 -344.692993 6.11149979
294.822815 -344.753998 7.67390013
294.975006 -344.744202 7.85500002
294.977997 -344.738495 10.6821003
294.944 -344.70401 11.1375999
294.810089 -344.768585 11.9252005
294.993896 -344.569611 0.787800014
294.966492 -342.201202 -1.60810006
294.958313 -342.150391 -1.8053
294.938904 -342.051788 -1.75179994
294.911896 -342.164795 -1.44260001
294.941803 -342.186615 -1.27639997
294.903015 -342.064209 -1.04760003
295.014709 -345.009186 13.717
295.004608 -344.9133 5.32320023
295.161407 -344.861298 6.96169996
295.184113 -344.836395 7.45639992
295.083557 -344.807068 8.52950001
295.133087 -344.880188 8.96479988
295.015991 -344.865204 12.2587996
295.022003 -344.632202 0.305999994
295.038696 -344.651703 3.25440001
295.17569 -344.731689 4.15719986
295.083588 -344.673615 4.55770016
295.145996 -344.715302 4.72580004
295.091614 -344.603699 5.61100006
295.106201 -344.673309 5.84280014
295.016388 -344.711914 6.02979994
295.077148 -344.699036 6.31439972
295.132904 -344.76239 7.99989986
295.166199 -344.730011 8.7347002
295.144196 -344.756104 11.1348
295.063293 -344.744812 11.3129501
295.169006 -344.756104 11.4854002
295.151794 -344.761597 12.2842999
295.093597 -344.743896 13.8514996
295.010193 -344.523407 -0.0359000005
295.120697 -344.552887 0.301600009
295.032013 -342.699585 -0.987100005
295.132507 -342.226807 -1.85529995
295.065002 -342.087708 -1.88189995
295.114197 -341.524811 -2.02110004
295.20459 -344.803192 10.9120998
295.212708 -344.832001 11.3493004
295.386902 -344.905609 12.3674002
295.317902 -344.618011 3.84209991
295.275024 -344.672394 4.94693327
295.203186 -344.6633 5.34619999
295.365204 -344.631104 5.43989992
295.261993 -344.765991 5.69309998
295.307495 -344.634399 7.48390007
295.256805 -344.764191 8.72169971
295.306305 -344.667114 9.03499985
295.382599 -344.696808 9.8441
295.239807 -344.759003 10.3597002
295.278992 -344.787201 10.6487999
295.266815 -344.660187 10.9052
295.335114 -344.671204 12.2671003
295.371704 -344.663208 12.7407999
295.267517 -344.695984 13.7289
295.200287 -344.538208 -0.0461000018
295.365906 -344.567108 2.20919991
295.333496 -344.579987 2.83879995
295.332001 -344.582886 10.2075996
295.200409 -344.596405 10.6733999
295.374298 -342.078613 -2.21399999
295.449005 -344.83429 15.0333996
295.595306 -344.644104 4.29400015
295.533813 -344.600586 4.76170015
295.472687 -344.661713 4.98640013
295.491791 -344.683105 5.1395998
295.585144 -344.641052 7.50990009
295.570679 -344.663757 7.69269991
295.555206 -344.650085 8.30449963
295.513092 -344.762238 8.71136665
295.561615 -344.69989 9.18389988
295.502502 -344.688995 9.85849953
295.565796 -344.683807 10.8206997
295.498047 -344.76825 12.2276001
295.415497 -344.768799 12.5461998
295.462189 -344.744904 12.8115997
295.59079 -344.762604 14.3086996
295.58551 -344.670685 14.7432003
295.506104 -344.614197 15.0650997
295.501678 -344.518494 2.69113326
295.490906 -344.568115 3.20180011
295.510162 -344.582336 4.04769993
295.590302 -344.551788 4.22980022
295.472992 -344.589691 5.64870024
295.479309 -344.590912 11.3317003
295.47879 -344.2388 15.1531
295.544006 -343.00769 1.77100003
295.566895 -342.474396 -0.953599989
295.456787 -342.224213 -1.77939999
295.590302 -342.22171 -1.48459995
295.503815 -342.0242 -1.48749995
295.418213 -341.734406 -2.13000011
295.519287 -341.772614 -1.99679995
295.783112 -344.810089 9.40450001
295.665314 -344.616211 2.97609997
295.692902 -344.600006 3.27349997
295.606903 -344.709991 5.56699991
295.697205 -344.629883 6.85559988
295.699707 -344.703094 7.68709993
295.725891 -344.640503 8.51869965
295.705566 -344.634766 8.98810005
295.669403 -344.690399 9.02420044
295.668488 -344.663696 9.73740005
295.631042 -344.659454 9.88985062
295.650208 -344.684601 10.0916004
295.605591 -344.700592 10.4984999
295.75 -344.677795 10.6110001
295.780212 -344.627594 11.4425001
295.684387 -344.684692 12.1282997
295.617493 -344.779205 13.0840998
295.638092 -344.622711 13.3393002
295.650085 -344.786499 14.0832996
295.728607 -344.657593 15.0187998
295.75647 -344.532196 3.51335001
295.7164 -344.510406 5.64970016
295.731903 -344.543915 8.44900036
295.728699 -344.569489 8.95820045
295.713593 -344.553986 13.2152996
295.672089 -344.336212 14.9246998
295.665314 -343.734894 1.60249996
295.734009 -342.962006 -0.830600023
295.748199 -342.959106 -0.78640002
295.686798 -342.623993 -1.05739999
295.620697 -342.098114 -1.72449994
295.830811 -346.154907 7.64919996
295.896088 -344.6297 5.3281002
295.92981 -344.620789 7.01289988
295.81311 -344.625 7.61990023
295.851593 -344.735291 8.44680023
295.906097 -344.637146 8.89324951
295.977295 -344.660095 9.39369965
295.846497 -344.733398 11.6213999
295.9617 -344.638702 12.7776003
295.895905 -344.799988 12.9356003
295.928497 -344.661896 13.8104
295.841797 -344.623108 14.0580997
295.916412 -344.607391 14.6562004
295.949097 -344.710693 14.8740997
295.893005 -344.586212 2.90179992
295.920288 -344.574493 3.18959999
295.830505 -344.546204 3.25270009
295.891815 -344.529694 4.35039997
295.885712 -344.471893 4.50209999
295.837158 -344.568359 6.29850006
295.976288 -344.501007 7.04199982
295.962097 -344.582397 10.6349001
295.901886 -344.510986 10.9569998
295.937408 -344.477112 11.6820002
295.804199 -344.537415 13.7133999
295.819 -343.279694 -0.777100027
296.086426 -344.621002 9.28585052
296.057312 -344.620697 11.2947998
296.134796 -344.695587 12.7680998
296.115997 -344.622711 13.3572998
296.160706 -344.625793 14.0276003
296.085297 -344.68689 14.5213003
296.148499 -344.662903 14.8056002
296.089691 -344.484985 4.22079992
296.099792 -344.499298 5.33529997
296.059692 -344.580414 5.52589989
296.186005 -344.50119 5.75479984
296.127808 -344.561005 6.15189981
296.127411 -344.547607 6.32350016
296.181091 -344.545593 6.68690014
296.023712 -344.503693 9.70090008
296.192993 -344.488403 12.5050001
296.010193 -344.539093 12.6190004
296.149689 -344.578888 12.8259001
296.176208 -344.390198 3.78530002
296.132507 -342.868591 1.69500005
296.191803 -342.365601 -1.52680004
296.294006 -344.927612 13.5716
296.386292 -344.993896 13.6737003
296.383606 -344.865387 14.0344
296.283813 -344.896912 14.2256508
296.295013 -344.644592 11.6528997
296.230591 -344.631897 12.8390999
296.316345 -344.678467 13.0753002
296.332825 -344.653961 13.7543669
296.312592 -344.684082 13.8916664
296.31604 -344.679199 14.0685005
296.270111 -344.751709 14.2902002
296.246002 -344.604187 14.4702997
296.284485 -344.618591 14.6447001
296.201508 -344.478394 4.90150023
296.389404 -344.490814 5.10739994
296.290344 -344.489716 5.31752491
296.345612 -344.467804 6.54949999
296.210114 -344.495605 6.76370001
296.382111 -344.480499 6.99910021
296.389893 -344.423492 7.14900017
296.334198 -344.469299 7.93440008
296.276093 -344.511902 8.53079987
296.299896 -344.560211 9.20660019
296.356293 -344.510498 9.52210045
296.361298 -344.504486 9.71630001
296.315308 -344.586487 9.91530037
296.271118 -344.518799 10.1634502
296.35791 -344.544586 10.5970001
296.239807 -344.537903 10.6171999
296.263794 -344.546814 11.0455999
296.263702 -344.595795 11.5530996
296.226105 -344.577789 11.7367001
296.268005 -344.527405 12.2951002
296.339691 -344.428802 12.4778996
296.354614 -344.536285 12.7226
296.229797 -344.556885 13.1191998
296.258789 -344.593201 13.5284004
296.317291 -344.571686 13.6365995
296.269592 -344.57724 14.3512497
296.34079 -344.545013 14.6084003
296.214203 -344.445892 15.033
296.333801 -344.345886 4.47980022
296.378204 -344.327087 10.2068005
296.360596 -343.463806 -0.853600025
296.399902 -342.811707 1.73870003
296.22699 -342.893585 1.80190003
296.263 -342.506897 -1.15880001
296.43161 -345.039612 13.0958996
296.501587 -344.855286 10.0473003
296.508301 -344.909485 13.2757998
296.4758 -344.94519 14.3696003
296.48291 -344.749207 9.87749958
296.47879 -344.711212 10.4552002
296.50589 -344.609589 10.7598
296.449707 -344.719513 10.8013
296.45871 -344.658813 12.1702995
296.450897 -344.694641 13.0363007
296.550201 -344.776886 13.3744001
296.434906 -344.620605 14.1052999
296.459991 -344.458191 1.55050004
296.421906 -344.460999 3.01250005
296.546112 -344.538788 5.33799982
296.596497 -344.403412 5.6624999
296.556 -344.494202 6.23190022
296.404114 -344.434296 6.43410015
296.503662 -344.503357 6.66206694
296.535095 -344.524689 7.09027481
296.488007 -344.408508 7.36159992
296.467957 -344.513 7.86814976
296.517792 -344.512909 8.2322998
296.4664 -344.444305 8.89999962
296.490204 -344.589386 9.48110008
296.447998 -344.550659 10.0480499
296.421295 -344.400391 10.3424997
296.529785 -344.573792 10.5598001
296.571503 -344.475708 11.2524004
296.521149 -344.462708 12.1016006
296.513153 -344.5242 12.2688503
296.596588 -344.515289 12.5092001
296.420898 -344.592804 13.7159004
296.527588 -344.589203 14.0594997
296.484741 -344.549927 14.5493994
296.458405 -344.4888 14.7181997
296.533112 -344.555298 14.8788996
296.4776 -344.349487 3.24650002
296.567902 -344.334991 3.47359991
296.468597 -344.373108 6.25220013
296.493591 -344.398804 7.18550014
296.526001 -344.339813 7.88840008
296.593811 -344.388702 8.96500015
296.536804 -343.605408 0.52640003
296.442596 -343.523285 -1.05929995
296.581085 -343.577911 -0.892700016
296.561188 -343.572296 -0.75120002
296.622101 -344.928986 9.58600044
296.682312 -344.893402 9.86849976
296.775757 -344.666504 3.56330013
296.7341 -344.746002 4.37069988
296.698395 -344.785889 6.69540024
296.60849 -344.640106 7.38070011
296.627991 -344.630707 7.51140022
296.749115 -344.694489 9.78789997
296.753815 -344.795197 9.93060017
296.729401 -344.727692 10.3879004
296.63855 -344.716949 11.0658493
296.765808 -344.652008 11.2736998
296.678101 -344.762604 13.5778999
296.602509 -344.407501 2.70160007
296.78421 -344.568115 2.99180007
296.692596 -344.435608 3.1487999
296.645599 -344.402405 3.25580001
296.638702 -344.446411 3.79900002
296.645905 -344.434906 4.13509989
296.655365 -344.467224 4.31833315
296.638397 -344.433899 4.43039989
296.755798 -344.444336 5.11104965
296.600494 -344.426788 5.32259989
296.6474 -344.447845 5.4939003
296.665588 -344.428497 5.64099979
296.688202 -344.499786 6.91219997
296.632996 -344.57309 7.70529985
296.618805 -344.401215 7.86280012
296.617706 -344.484802 8.55169964
296.704712 -344.445404 8.61690044
296.79599 -344.406189 8.95170021
296.639313 -344.499603 10.0717001
296.613098 -344.424805 11.4761
296.669495 -344.526794 11.9850998
296.600006 -344.564789 12.4407997
296.741394 -344.404297 15.0255003
296.639404 -344.26709 2.38509989
296.747589 -344.364288 8.12090015
296.6026 -344.256287 15.0949001
296.790894 -343.839813 -0.895200014
296.651703 -343.644409 -1.005
296.604492 -343.670502 -0.855499983
296.770203 -343.796814 -0.755299985
296.63089 -343.707886 0.338
296.61319 -343.576904 -0.83160001
296.861298 -344.700989 3.30905008
296.836304 -344.637054 4.11794996
296.805298 -344.73819 4.29290009
296.995087 -344.624207 7.1882
296.9263 -344.622101 7.84140015
296.817688 -344.698914 11.1271
296.942139 -344.678345 14.1252003
296.886993 -344.589996 3.1335001
296.938507 -344.545197 7.30679989
296.890198 -344.453705 8.31900024
296.823212 -344.4617 9.06869984
296.923492 -344.497101 11.0763998
296.986694 -344.40329 11.2403002
296.967773 -344.453003 11.5781002
296.83551 -344.517303 11.7888002
296.885071 -344.515961 12.2428493
296.919403 -344.546692 13.7685003
296.937195 -344.545685 14.6007004
296.854797 -344.498413 14.9029999
296.981476 -344.492249 15.0281
296.991913 -344.374115 4.92959976
296.93631 -344.334412 5.17199993
296.974304 -344.338715 8.81620026
296.969208 -344.348389 14.9895
296.80719 -344.290497 15.1723003
296.842194 -343.899109 -0.788600028
296.92691 -343.990295 -0.372099996
297.093811 -344.681 3.01780009
297.008514 -344.6427 10.5777998
297.158813 -344.648895 11.0206003
297.028015 -344.7276 13.9245005
297.196808 -344.644806 14.5869999
297.110504 -344.411896 -0.946699977
297.051605 -344.475006 3.89470005
297.149902 -344.457611 4.54750013
297.093689 -344.403015 5.51840019
297.155396 -344.577209 7.15840006
297.183014 -344.564514 7.3046999
297.138855 -344.437927 7.88609982
297.160706 -344.414612 8.06210041
297.037292 -344.414398 8.40530014
297.035492 -344.590607 10.6049995
297.075806 -344.480713 11.2995005
297.134491 -344.552704 14.5625
297.032898 -344.597809 14.6348
297.070496 -344.36911 -0.30430001
297.164886 -344.363312 5.16960001
297.116394 -344.320007 5.53550005
297.044922 -344.31189 8.24715042
297.009705 -344.396912 8.88770008
297.135315 -344.358704 9.16009998
297.173187 -344.344299 14.8431997
297.195099 -344.357605 15.0839005
297.115692 -344.166687 14.9684
297.35379 -344.407806 6.45790005
297.324493 -344.423706 8.96650028
297.34549 -344.518585 11.0887003
297.30542 -344.437439 11.6790504
297.2547 -344.463806 12.1482
297.265625 -344.498962 14.0448494
297.250214 -344.531403 14.5071001
297.385986 -344.536987 14.6405001
297.325195 -344.492554 14.8973999
297.357056 -344.258118 4.93645
297.257751 -344.268646 5.30490017
297.207489 -344.270905 5.47209978
297.320129 -344.361298 7.27209997
297.227203 -344.313904 8.88249969
297.378601 -344.304504 14.7011003
297.215515 -344.161285 5.51739979
297.335388 -344.167297 8.87650013
297.386993 -344.156189 9.40740013
297.342285 -344.163086 11.8371
297.231415 -343.962799 15.1213999
297.394501 -342.710205 1.62460005
297.529388 -344.619293 13.2657003
297.41391 -344.422913 3.79380012
297.570892 -344.507385 4.28380013
297.463013 -344.487213 6.37360001
297.562286 -344.446686 7.34030008
297.584808 -344.423492 7.90880013
297.474609 -344.417786 8.0323
297.59259 -344.468109 9.86180019
297.599915 -344.491089 11.2081003
297.51651 -344.501404 13.3570004
297.533997 -344.564392 13.7451
297.55069 -344.541412 13.9296999
297.526489 -344.232605 2.63564992
297.479401 -344.2948 4.13730001
297.563812 -344.243195 4.81190014
297.468597 -344.3013 5.56020021
297.446198 -344.2453 5.7184
297.424896 -344.340698 8.70470047
297.51944 -344.322266 8.90093327
297.478607 -344.361908 9.18869972
297.592285 -344.339386 9.28250027
297.508667 -344.353302 11.3056507
297.474915 -344.2854 11.4526997
297.560699 -344.32959 11.6992502
297.436249 -344.382935 12.2856503
297.472504 -344.328888 12.7042503
297.538391 -344.384888 14.7742996
297.431519 -344.314209 14.9221334
297.47229 -344.177307 15.0527
297.482513 -342.719086 1.81570005
297.527588 -342.650696 2.19720006
297.643707 -344.467407 7.38969994
297.734192 -344.441589 7.83830023
297.685944 -344.490051 9.73624992
297.678101 -344.48941 9.91580009
297.729889 -344.433502 11.1760998
297.678162 -344.522339 11.3039494
297.703308 -344.408295 12.2172003
297.650391 -344.471893 14.3956003
297.78421 -344.420593 14.5485001
297.739685 -344.347504 3.97110009
297.733032 -344.28244 4.75766659
297.693298 -344.219208 5.02650023
297.750397 -344.20929 5.94740009
297.660706 -344.237 6.1493001
297.643005 -344.2883 8.29279995
297.776001 -344.242706 8.44680023
297.672607 -344.314606 11.5172997
297.7612 -344.271912 11.6752996
297.7229 -344.348297 11.9701004
297.670807 -344.380615 12.2392998
297.712708 -344.300812 12.5103998
297.747314 -344.215912 12.8107996
297.739502 -344.183685 9.08230019
297.743011 -344.196014 14.8518
297.723206 -342.620209 1.83319998
297.958405 -344.42511 2.97090006
297.875702 -344.4599 14.7792997
297.888702 -344.337708 4.19619989
297.910095 -344.291687 4.40159988
297.874786 -344.235901 5.57959986
297.90329 -344.234497 6.00559998
297.869812 -344.392212 7.28669977
297.862213 -344.240601 7.54640007
297.992096 -344.268005 8.06779957
297.888245 -344.30365 8.30224991
297.916046 -344.286346 8.51860046
297.999115 -344.227692 8.64210033
297.921356 -344.304749 9.34434986
297.995087 -344.203705 9.45549965
297.876495 -344.332306 10.3387003
297.954895 -344.283203 11.1683998
297.940918 -344.388489 11.2121
297.888885 -344.218689 11.5306997
297.920105 -344.309113 11.7812996
297.906494 -344.35611 11.8247995
297.979706 -344.21579 12.0517998
297.86084 -344.30542 12.4768257
297.930603 -344.304504 14.8395004
297.930115 -344.22171 15.0010004
297.832092 -344.216309 15.4900999
297.884491 -344.17749 2.41630006
297.865509 -344.190887 4.80959988
297.912994 -344.178589 5.16209984
297.8479 -344.171906 5.80249977
297.894012 -344.133911 6.06120014
297.973694 -344.177185 7.54589987
297.932495 -344.197815 8.12909985
297.990204 -344.13031 8.59379959
297.950592 -344.17749 11.6461
297.903015 -344.099304 15.257
297.972992 -343.980194 5.7026
297.911591 -342.608612 1.97739995
298.1651 -344.426514 11.1461
298.043091 -344.213013 5.96700001
298.094513 -344.353088 7.9822998
298.010315 -344.249298 8.05420017
298.176697 -344.217285 8.61670017
298.109009 -344.280701 11.4906998
298.166992 -344.261688 11.8008003
298.165894 -344.319305 14.4294004
298.019989 -344.345215 14.7138004
298.105957 -344.077301 2.76114988
298.014191 -344.146606 2.85249996
298.048096 -344.127411 4.58479977
298.027191 -344.172211 5.18419981
298.043793 -344.13269 5.39169979
298.096008 -344.125092 5.76429987
298.013 -344.173401 8.28610039
298.139496 -344.194336 8.78064919
298.045807 -344.163391 8.9048996
298.140503 -344.192108 11.6899004
298.168396 -344.182007 14.2544003
298.080811 -344.02179 15.3733997
298.013 -343.881195 15.2278004
298.117493 -343.799103 13.1524
298.147797 -343.489685 13.5401001
298.2771 -344.207306 8
298.32431 -344.232788 9.09589958
298.290894 -344.243408 11.3339996
298.256287 -344.268097 11.4152002
298.364594 -344.274109 11.8580999
298.282013 -344.255249 12.6748505
298.344604 -344.230499 13.0879002
298.29129 -344.259399 14.2912998
298.249207 -344.255493 14.6455002
298.219391 -344.003998 1.55270004
298.283997 -344.135193 2.39520001
298.302612 -344.040009 2.50810003
298.345703 -344.17691 4.34910011
298.389191 -344.115692 4.50010014
298.262299 -344.105835 4.75899982
298.226807 -344.056 4.86019993
298.351715 -344.099915 5.30240011
298.321503 -344.016602 5.51879978
298.256744 -344.133057 6.08995008
298.271606 -344.167999 7.93790007
298.225586 -344.114014 8.55630016
298.291809 -344.126587 8.64729977
298.353607 -344.172699 9.52569962
298.372101 -344.016388 9.69299984
298.376495 -344.123413 10.7139997
298.265991 -344.118591 11.6938
298.294037 -344.176117 11.9417
298.390594 -344.067596 12.2019997
298.268402 -344.173187 14.5602999
298.32019 -344.116394 14.6658001
298.326324 -344.091797 15.0677328
298.323608 -343.841492 9.72109985
298.382111 -343.985901 13.1145
298.378296 -343.68631 -1.07029998
298.372498 -343.65387 -0.731750011
298.30899 -343.7995 -0.375999987
298.299988 -343.705414 13.3802004
298.360809 -343.734039 13.5436993
298.268005 -343.649506 13.7334995
298.316406 -343.516602 -1.02499998
298.269806 -343.428589 -0.895299971
298.3349 -343.495392 -0.789600015
298.276794 -342.712708 1.6207
298.389404 -342.549805 1.71650004
298.333344 -342.518951 1.88514996
298.468689 -344.215088 9.72459984
298.470398 -344.24881 11.6574001
298.499298 -344.257904 13.0935001
298.488098 -344.250946 14.6893005
298.476898 -344.301697 14.8376999
298.523895 -344.061188 -1.03900003
298.471405 -344.027802 -0.957199991
298.439301 -344.120697 4.00489998
298.594696 -344.075287 4.61910009
298.459991 -344.109894 5.22669983
298.486023 -344.059906 5.4605999
298.502686 -344.091492 5.6729002
298.516449 -344.050293 5.89645004
298.52359 -344.1203 6.17570019
298.438385 -344.183899 7.61910009
298.455994 -344.129913 8.02130032
298.576385 -344.147614 8.23929977
298.567291 -344.131805 8.58059978
298.479401 -344.161591 8.60000038
298.54599 -344.193909 8.82900047
298.558411 -344.113403 9.34060001
298.510712 -344.19281 9.46920013
298.545105 -344.107605 9.62469959
298.486511 -344.172913 10.5003996
298.459106 -344.155701 10.9027004
298.443115 -344.161407 12.5253
298.527527 -344.1651 13.10355
298.411987 -343.933289 -1.00109994
298.599213 -343.915588 13.0676003
298.557495 -343.974396 14.4858999
298.406311 -343.70871 -1.00569999
298.567413 -343.772888 9.90320015
298.521362 -343.68457 10.1089993
298.530304 -343.776703 13.2344999
298.546112 -343.748901 13.5375004
298.437714 -343.716187 13.6948004
298.5578 -343.729889 15.4088001
298.499695 -342.616394 2.02279997
298.645386 -344.219299 11.9589005
298.642609 -344.203186 12.8943996
298.686798 -344.263885 14.3823996
298.762085 -344.220612 14.4975996
298.751709 -344.002289 2.35080004
298.715912 -344.049805 4.77099991
298.772186 -344.028412 4.98799992
298.693604 -344.078491 5.10710001
298.621094 -344.129211 5.53599977
298.66925 -344.087311 5.8682003
298.782196 -344.073486 7.78389978
298.746887 -344.122009 8.12129974
298.6604 -344.022705 8.96749973
298.703491 -344.024414 9.12839985
298.64679 -344.169373 9.31353378
298.728333 -344.15506 9.47014999
298.739685 -344.065002 9.73890018
298.716705 -344.003204 9.85289955
298.656403 -344.098602 10.9397001
298.678589 -344.175812 11.5424004
298.753906 -344.112549 11.9039001
298.715332 -344.155609 12.0566998
298.75769 -344.118042 12.2856998
298.646515 -344.194305 13.0614996
298.772186 -344.009796 13.3992004
298.744293 -344.129486 14.2824001
298.623291 -344.196594 14.5427999
298.708313 -344.126007 14.8945999
298.609589 -343.947906 -0.556900024
298.690308 -343.965912 1.55200005
298.625305 -343.943604 4.08290005
298.775085 -343.803986 9.78789997
298.653687 -343.84259 9.95030022
298.728821 -343.883728 13.1348495
298.724976 -343.974304 15.1635494
298.661591 -343.713257 3.12960005
298.612793 -343.691193 3.21230006
298.679016 -343.657043 6.49685001
298.657501 -343.675415 6.72294998
298.749908 -343.651001 9.81820011
298.783295 -343.767792 10.0464001
298.638397 -343.686188 13.3786001
298.699951 -343.694519 13.5579996
298.604797 -343.572388 3.71090007
298.771088 -341.670685 -1.26549995
298.773987 -341.669403 -1.14090002
298.898895 -344.233002 14.9193001
298.82019 -344.070709 4.66970015
298.871704 -344.08371 5.1013999
298.984802 -344.065186 6.0781002
298.837799 -344.099396 7.85659981
298.947296 -344.053192 8.05580044
298.821198 -344.021606 8.22669983
298.971313 -344.149597 8.51650047
298.917389 -344.128204 8.70189953
298.805389 -344.106689 8.95699978
298.995209 -344.019196 9.10680008
298.979797 -344.113495 9.37150002
298.918701 -344.026489 9.63910007
298.930115 -344.17691 10.3573999
298.936707 -344.066589 10.5358
298.852112 -344.05011 10.8855
298.954773 -344.165802 12.0576
298.909302 -344.194489 12.4961996
298.819092 -344.184387 12.7004004
298.834961 -344.086121 13.1197004
298.952423 -344.096375 14.5147333
298.90329 -344.082397 14.7298002
298.922913 -344.156891 14.8105001
298.940887 -344.019165 15.0480995
298.900085 -343.921112 -0.646000028
298.977386 -343.976013 3.98979998
298.985413 -343.952209 4.24139977
298.962189 -343.869904 4.59789991
298.941193 -343.964478 4.87960005
298.991486 -343.979797 7.33169985
298.964508 -343.914093 9.96940041
298.967712 -343.92984 10.1205502
298.986206 -343.936615 10.5675001
298.870514 -343.996704 11.7042999
298.984406 -343.960785 12.6771002
298.885986 -343.926086 13.1887999
298.888397 -343.983704 13.4130001
298.907501 -343.872589 13.6676998
298.928192 -343.971313 14.9188995
298.918274 -343.911499 15.0597496
298.966095 -343.611603 3.45099998
298.940399 -343.758209 10.1054001
298.921722 -343.701599 10.3167
298.9151 -343.799194 13.2391005
298.850708 -343.768585 13.7182999
298.838104 -343.764008 15.3057003
298.87439 -343.591888 3.41750002
298.888214 -343.462311 3.61929989
298.840302 -343.547211 7.19169998
298.933685 -342.442993 -1.37399995
298.955994 -342.410797 1.7148
298.9552 -342.260498 -1.62979996
298.958313 -342.390198 -1.14839995
298.898804 -342.016907 -1.65460002
298.921356 -342.107788 -1.51557505
298.893097 -342.012909 -1.36790001
298.88559 -342.102509 -1.18920004
298.834686 -341.97699 -1.0237
299.012604 -344.044006 5.15479994
299.148102 -344.051788 7.15040016
299.032196 -344.100098 7.29780006
299.161011 -344.057587 7.4756999
299.08609 -344.039886 7.63560009
299.061005 -344.067291 7.9854002
299.141907 -344.044067 8.28841972
299.15921 -344.050598 8.58399963
299.088501 -344.049713 8.81200027
299.165863 -344.115173 9.6831665
299.002106 -344.098785 9.84759998
299.017792 -344.041412 10.1393003
299.048401 -344.119385 10.3818998
299.186493 -344.01001 10.8130999
299.098389 -344.049896 11.1120005
299.030396 -344.044098 11.4902
299.081299 -344.104401 11.6051998
299.187012 -344.010315 12.1581001
299.057678 -344.027893 12.2319498
299.053406 -344.086548 12.8952503
299.114288 -344.024445 13.1110497
299.015106 -344.0625 14.1792002
299.046753 -344.087006 14.3411007
299.154694 -344.120697 14.5682001
299.030396 -344.115692 14.6779003
299.104553 -344.092438 14.8646336
299.063507 -344.083893 15.1141996
299.140594 -343.801697 -1.14349997
299.101196 -343.904846 2.18524981
299.111786 -343.923706 2.72819996
299.069305 -343.937897 5.47149992
299.167389 -343.869385 6.60960007
299.115112 -343.994202 6.98269987
299.116852 -343.952759 7.4744997
299.091309 -343.977997 7.67959976
299.103088 -343.812592 8.27670002
299.115692 -343.999786 8.62819958
299.024506 -343.997711 9.7184
299.00061 -343.955994 9.87639999
299.042908 -343.931885 10.0081997
299.0914 -343.843903 10.8740997
299.089691 -343.938202 11.1450005
299.142792 -343.980896 11.2994003
299.106903 -343.987488 11.5072002
299.151215 -343.856201 14.8344002
299.178711 -343.970398 15.2632999
299.063385 -343.798401 6.8757
299.134888 -343.455505 -1.47029996
299.153564 -343.520569 -1.25880003
299.074524 -343.533264 3.31694984
299.008301 -343.541809 3.5078001
299.118713 -343.254395 -1.55620003
299.074097 -343.381012 -1.24399996
299.10611 -342.853912 -1.48000002
299.078613 -342.931702 -1.22080004
299.029114 -342.912415 -1.18649995
299.129791 -342.687408 -1.37170005
299.004486 -342.650787 -1.06840003
299.11319 -342.39679 1.75699997
299.084412 -342.389893 1.96720004
299.052002 -341.753693 -1.69649994
299.309814 -344.002106 5.01809978
299.362793 -344.023102 6.28539991
299.293793 -344.074402 8.01130009
299.314209 -344.016907 8.94535065
299.269104 -344.047729 9.11184978
299.349213 -344.017303 9.47999954
299.306793 -344.054413 11.1913004
299.205292 -344.048401 11.5080004
299.2948 -344.086548 11.6322002
299.231201 -344.099396 12.1735001
299.352386 -344.076691 12.4617004
299.266144 -344.088074 12.6866665
299.228485 -344.099915 12.8655005
299.354095 -344.055756 13.1269493
299.296814 -344.017548 14.5102005
299.313385 -344.102997 14.6667004
299.299805 -344.084106 14.8098001
299.208801 -344.073608 15.0057001
299.333496 -343.874603 2.92510009
299.301849 -343.884796 3.08139992
299.284698 -343.971313 3.90199995
299.28595 -343.917755 4.31274986
299.325806 -343.864594 4.7361002
299.364502 -343.953308 5.19770002
299.2565 -343.934387 6.2894001
299.330261 -343.986877 6.48285007
299.2341 -343.968994 6.74020004
299.392792 -343.98941 7.73939991
299.281006 -343.949097 8.04459953
299.384796 -343.926788 8.29930019
299.384796 -343.924713 9.45689964
299.330902 -343.84549 10.5452003
299.366913 -343.994293 10.8042002
299.377991 -343.992706 11.1403999
299.323914 -343.929291 11.3839998
299.214386 -343.933411 12.4509001
299.248749 -343.904053 13.0547504
299.294586 -343.935211 13.2145004
299.254303 -343.950409 15.1903
299.350311 -343.764008 -1.44930005
299.274261 -343.698853 -1.11629999
299.21579 -343.710693 3.21519995
299.290039 -343.696716 13.1049995
299.241486 -343.798096 15.2566996
299.232697 -343.454987 -1.55789995
299.263794 -343.523193 13.2178001
299.250916 -343.488403 13.5478001
299.292694 -343.031891 -1.56630003
299.252197 -342.807709 -1.54560006
299.310364 -342.566345 -1.51115
299.345795 -342.378296 1.86899996
299.411896 -344.017303 4.09579992
299.517792 -344.008392 7.87529993
299.47821 -344.048706 8.26900005
299.546509 -344.025513 11.3285999
299.519196 -344.062897 12.7087002
299.548615 -344.069702 13.9722004
299.451294 -344.04361 14.2889996
299.427094 -343.838287 2.87120008
299.597687 -343.84729 4.07579994
299.521912 -343.880859 4.32359982
299.526215 -343.813995 4.58129978
299.56839 -343.915894 5.58109999
299.587097 -343.895996 6.09189987
299.529999 -343.940094 6.49980021
299.480804 -343.859497 6.86229992
299.534088 -343.871185 7.19980001
299.527557 -343.933228 7.70009995
299.589905 -343.986511 8.21630001
299.592285 -343.980103 8.78279972
299.436707 -343.954102 9.05389977
299.447601 -343.958313 9.27569962
299.478607 -343.935211 9.82689953
299.575287 -343.979187 10.243
299.494385 -343.938812 10.4497004
299.490997 -343.974396 10.7044001
299.507904 -343.960602 10.8000002
299.597595 -343.921387 11.7396002
299.520691 -343.908813 11.8830996
299.513397 -343.997406 12.2687998
299.505646 -343.940552 12.5263004
299.454102 -343.91629 14.573
299.42981 -343.987213 14.8614998
299.486603 -343.990387 15.0485001
299.531097 -343.819702 15.2054996
299.415802 -343.783203 -1.3312
299.47406 -343.758087 -0.873250008
299.429596 -343.769104 4.21589994
299.577301 -343.790985 4.89499998
299.498688 -343.767914 6.25869989
299.508423 -343.667847 13.3283005
299.474213 -343.627594 13.6241999
299.599792 -343.497192 1.98150003
299.402008 -343.573608 13.3619003
299.48819 -343.509003 13.4533997
299.536102 -342.807892 1.92480004
299.537415 -342.630005 -1.69799995
299.438385 -342.615295 -1.55999994
299.508392 -342.689209 1.68789995
299.442902 -342.598694 2.16939998
299.790009 -346.124298 11.0016003
299.613892 -344.005005 7.94649982
299.769104 -344.054413 8.5866003
299.746002 -344.022186 14.3139
299.797485 -344.021301 14.8309002
299.682251 -344.097656 15.0618
299.689301 -343.822296 -1.02240002
299.695648 -343.869324 3.06060004
299.628693 -343.843414 3.85349989
299.696503 -343.9263 5.02909994
299.685699 -343.90271 5.20510006
299.77121 -343.893402 5.45569992
299.608093 -343.828491 5.7354002
299.795593 -343.924286 6.49760008
299.612213 -343.924194 6.7178998
299.731415 -343.8685 7.1796999
299.769287 -343.913788 7.23699999
299.644196 -343.927887 7.4467001
299.786102 -343.865295 7.65899992
299.6362 -343.938507 7.81589985
299.776703 -343.858612 8.13389969
299.666504 -343.893311 9.00469971
299.739014 -343.926788 9.27260017
299.714844 -343.915253 9.45802498
299.68576 -343.965302 9.87240028
299.713348 -343.937408 10.8804493
299.720703 -343.990112 11.1178999
299.664093 -343.912994 11.2445002
299.628998 -343.847687 11.4031
299.665405 -343.950104 11.8593998
299.733185 -343.94751 12.5690002
299.702576 -343.976135 12.6592007
299.754639 -343.911743 12.8976498
299.682098 -343.844696 13.0719004
299.711792 -343.844696 13.2816505
299.690369 -343.953613 14.2737999
299.746582 -343.962799 14.6631508
299.684906 -343.922607 14.9551334
299.698914 -343.931519 15.1476498
299.742401 -343.698792 -0.820800006
299.7677 -343.697601 -0.516600013
299.713898 -343.794006 2.89420009
299.721588 -343.776703 3.22129989
299.767914 -343.695587 4.40630007
299.738007 -343.7724 14.1176004
299.680725 -343.720825 15.1661997
299.731506 -343.541931 13.4753332
299.725464 -343.515503 13.7277002
299.7789 -343.275208 -1.71780002
299.788208 -343.045593 -1.90789998
299.756195 -342.742493 -1.78960001
299.631104 -342.46701 -1.67260003
299.723755 -340.069275 0.43629998
299.766846 -340.039734 0.681900024
299.800201 -346.12561 7.84600019
299.868286 -344.009705 12.0883999
299.803497 -344.082214 12.4484997
299.897491 -344.010712 13.7924995
299.952606 -343.86261 3.26679993
299.881409 -343.826385 3.93889999
299.866699 -343.885803 4.75019979
299.8573 -343.845215 5.1954999
299.880707 -343.881348 5.25045013
299.884308 -343.863403 5.59649992
299.899689 -343.814209 5.82119989
299.887695 -343.982086 6.07630014
299.803009 -343.90509 6.39940023
299.909393 -343.847778 6.94604969
299.956635 -343.841827 7.05719995
299.80899 -343.804108 7.22130013
299.862976 -343.928955 8.13470078
299.992798 -343.850098 8.23379993
299.866241 -343.881012 8.88083363
299.929199 -343.946503 9.12269974
299.881195 -343.98819 9.33839989
299.911407 -343.873505 9.45674992
299.982239 -343.860352 9.73355007
299.910583 -343.935089 9.8584671
299.912292 -343.898102 10.3113003
299.926514 -343.887939 10.5361996
299.926208 -343.887207 11.1550999
299.889374 -343.905792 11.3557663
299.921295 -343.95459 11.4935999
299.832397 -343.961395 11.8955002
299.979614 -343.829102 12.1915998
299.85791 -343.894501 12.5389996
299.889587 -343.955505 12.7355003
299.908051 -343.936218 12.9012251
299.943176 -343.932068 13.1379499
299.931061 -343.9021 13.2959671
299.976288 -343.898987 13.8178997
299.891296 -343.868011 14.073
299.94342 -343.868744 14.3336
299.970886 -343.986786 14.4811001
299.87381 -343.903625 14.6673498
299.998505 -343.991211 14.9184999
299.99469 -343.801208 15.1176004
299.84549 -343.696899 -0.674899995
299.811707 -343.771606 3.5078001
299.802094 -343.789001 5.0381999
299.97821 -343.787109 6.68179989
299.899292 -343.796509 6.89359999
299.906097 -343.775696 12.0186996
299.899902 -343.706909 13.1296997
299.897247 -343.680389 13.2855997
299.89093 -343.684204 13.4879494
299.839813 -343.444794 -1.63600004
299.841492 -343.521729 13.6741667
299.845306 -343.2211 -1.74689996
299.885193 -340.547699 -1.85350001
299.851501 -340.270294 0.880400002
299.828613 -340.193512 0.228699997
