# .PCD v0.7 - Point Cloud Data file format
VERSION 0.7
FIELDS x y z
SIZE 4 4 4
TYPE F F F
COUNT 1 1 1
WIDTH 536
HEIGHT 1
VIEWPOINT 0 0 0 1 0 0 0
POINTS 536
DATA ascii
80.1645966 -22.1021996 3.32850003
80.3985977 -22.1639004 2.34800005
80.2830963 -22.0422001 3.19050002
80.2690964 -22.094101 3.37050009
80.2331009 -21.7397995 14.4667997
80.5647964 -22.2609997 1.64619994
80.4961014 -22.2451992 1.82539999
80.5784988 -22.2019005 2.68199992
80.4825974 -22.1660995 2.19370008
80.4592972 -22.1224003 2.77339983
80.5376968 -22.1093006 3.53369999
80.402298 -21.9750996 2.70830011
80.4552002 -21.8069 14.3633003
80.5329971 -21.6264 13.7842999
80.4730988 -21.5352993 13.9498997
80.7136002 -22.2255993 1.75610006
80.611702 -22.2406998 2.52160001
80.7061996 -22.1721001 1.36800003
80.776001 -22.1847 1.49979997
80.6184998 -22.132 1.8678
80.7453995 -22.1385002 3.44799995
80.696701 -21.7542992 13.8916998
80.8574982 -22.3267994 1.3901
80.9289017 -22.2786999 1.87600005
80.9318008 -22.1772003 2.53920007
80.9223022 -22.1334 3.4145
80.930397 -22.0536003 10.1099997
80.9175034 -21.6702995 13.8521004
80.9496994 -21.4027004 2.54159999
81.1819 -22.2348003 1.5539
81.0863037 -22.2019005 2.74359989
81.1427994 -22.2033997 2.94749999
81.0523987 -22.1142006 2.51329994
81.1097336 -22.1397667 2.85719991
81.0574036 -22.1737995 3.83909988
81.1956024 -22.1973991 4.05070019
81.1840973 -21.8377991 12.3956003
81.1675034 -21.6483994 14.0123997
81.1176987 -20.5725994 14.1065998
81.2934036 -22.3040009 1.29069996
81.3479004 -22.3040009 1.60969996
81.3207016 -22.1354008 3.10800004
81.2556458 -22.1298504 4.50325012
81.2235031 -21.8122997 14.4098997
81.2087021 -21.7768002 11.7044001
81.5568008 -22.3234997 1.77419996
81.5124512 -22.2471008 1.92790008
81.5988007 -22.2063999 3.99640012
81.5033035 -22.1583004 1.96430004
81.4945984 -22.1882 3.21799994
81.4616013 -22.1758003 3.4282999
81.5634003 -22.1790009 3.98609996
81.4257965 -21.9186993 12.651
81.441803 -21.7292004 11.2744999
81.4169006 -21.6749001 14.1381998
81.6648026 -22.2168999 1.52999997
81.783699 -22.2609005 3.89610004
81.6975021 -22.0792999 2.87669992
81.6989975 -22.1921005 3.47390008
81.6920013 -21.8651009 11.9970999
81.7405014 -21.8302002 12.2725
81.7378998 -21.8631001 12.5825996
81.8817978 -22.2465992 1.65869999
81.8744507 -22.2243996 3.96169996
81.9906006 -22.0900002 3.4849999
81.8976974 -22.1870003 4.3119998
81.9582977 -21.8237 14.5507002
81.9634018 -21.6571999 14.2396002
81.9018478 -20.84235 2.89585018
82.1718979 -22.2388992 1.90030003
82.1167984 -22.2420006 2.56220007
82.1416016 -22.2089005 3.71609998
82.0270996 -22.2138004 4.3421998
82.0287018 -22.2150002 4.41200018
82.1279984 -22.0800991 2.32739997
82.1816025 -22.0865002 2.62030005
82.0586014 -22.1021004 2.90070009
82.0277023 -22.1891003 3.60459995
82.1783981 -22.0970001 4.31409979
82.1376038 -21.9463005 2.79040003
82.1880035 -21.8236008 12.8944998
82.1850967 -21.6998005 2.96490002
82.1796036 -21.7919998 3.01180005
82.180603 -21.7001991 3.37719989
82.1369476 -21.7059498 14.2384491
82.0641022 -20.9370995 2.93989992
82.0879974 -20.9181004 3.0625999
82.2143021 -22.2021999 2.26670003
82.3475037 -22.2194004 3.53500009
82.2761993 -22.2336006 3.96409988
82.3302002 -22.2157001 4.38850021
82.245697 -22.1858997 3.16400003
82.2814026 -22.1088009 4.06540012
82.2408981 -21.8010006 10.7390003
82.280899 -21.8096008 12.0458002
82.2277069 -21.7543507 2.93645
82.3201981 -21.7945995 12.4019003
82.2426987 -21.7765007 12.6396999
82.2261963 -21.5317993 2.75300002
82.4957962 -21.8551998 11.6131001
82.4530029 -21.8808002 11.9243002
82.4927979 -21.7241001 12.3358002
82.9726028 -20.7213993 11.3774004
83.5990982 -20.7567997 11.1831999
83.5245972 -20.6720505 13.0290499
83.5215988 -20.6595001 14.5319996
83.5615005 -20.5809002 14.3867998
83.6880035 -20.8673992 14.6057997
83.7942963 -20.7735004 11.1775999
83.6889038 -20.6613998 12.8546
83.6613007 -20.6121998 14.3142996
83.6889038 -20.4454994 12.7025003
83.6053009 -20.5370998 13.7271996
83.9921036 -20.9869003 5.49720001
83.963501 -20.7817993 11.5944996
83.9383011 -20.6578484 13.4967003
83.8218994 -20.6433487 14.2640991
83.9667969 -20.5280991 13.5995998
84.0356979 -20.6963997 13.4259996
84.0411987 -20.7998009 14.4728003
84.1839981 -20.5226002 14.3268003
84.2029037 -21.0077991 3.51390004
84.3992996 -20.9501991 5.2645998
84.3806 -20.6973 11.9617004
84.2761993 -20.6695995 14.2544336
84.3572998 -20.5786991 13.2930002
84.2176971 -20.3742008 12.533
84.5242004 -21.0051994 4.22310019
84.4307022 -21.0396996 4.42430019
84.5861511 -20.8176003 14.5159502
84.4574966 -20.6201992 12.2277002
84.5292969 -20.5702991 13.7620001
84.7946014 -22.1172504 3.48855019
84.7518005 -22.1345997 3.94429994
84.771698 -21.8458004 4.01219988
84.78125 -21.7033005 3.68930006
84.7782974 -21.3274498 3.5309
84.7238007 -21.0438995 2.83074999
84.7733994 -21.1152 3.23569989
84.7256012 -21.0422001 3.68829989
84.7316971 -21.0587997 10.2835999
84.7506027 -20.9899006 4.08179998
84.6371994 -20.8516998 4.69999981
84.7238998 -20.9638004 4.90770006
84.6215973 -20.8752995 14.6452999
84.7257996 -20.6756992 12.9223003
84.6425018 -20.6501007 13.4384003
84.9181976 -22.0890007 2.06150007
84.8851471 -22.0922012 2.26765013
84.9658966 -22.1329002 2.4756
84.9126968 -22.1065998 2.75500011
84.9687042 -22.0718002 3.09924984
84.9936981 -22.1270008 3.28859997
84.8082962 -22.1604004 3.43219995
84.8181992 -22.0123005 3.70180011
84.8809967 -22.1352501 4.30924988
84.8712997 -22.0578995 4.42329979
84.8844986 -21.905201 2.09990001
84.9117966 -21.9801006 2.30360007
84.9131012 -21.9503002 2.93179989
84.9101028 -21.9305992 3.02679992
84.853302 -21.9265003 3.56410003
84.834549 -21.8729515 3.70459986
84.832901 -21.9974995 3.91910005
84.8693008 -21.9573002 4.08389997
84.9095993 -21.8024006 4.59240007
84.987999 -21.8575001 4.71829987
84.9283981 -21.6874008 1.99790001
84.9754944 -21.6258011 2.25890017
84.947052 -21.6687508 2.76865005
84.9641037 -21.6529999 3.3368001
84.8708954 -21.7395 3.50994992
84.84935 -21.7188988 3.7025001
84.8548965 -21.6770992 4.13059998
84.8370972 -21.6065998 4.91909981
84.9405975 -21.4480991 2.37179995
84.9367981 -21.5764999 2.5940001
84.928299 -21.4790993 2.75110006
84.9057007 -21.4188995 3.04570007
84.8752975 -21.4601002 3.68239999
84.8291016 -21.4255009 4.48880005
84.9140015 -21.3122005 2.95370007
84.8002014 -21.25 4.30950022
84.9761963 -21.3971004 12.4820995
84.9681015 -21.1662006 2.08200002
84.8500977 -21.0568008 3.40179992
84.8587036 -21.1403008 4.00750017
84.8562012 -21.125 4.55670023
84.9119034 -20.9738998 4.94280005
84.9406967 -20.8481007 14.4527998
84.8219986 -20.6165009 12.2011003
84.9162979 -20.7082996 12.717
84.8386002 -20.6905003 13.9071999
84.9750977 -20.6215992 14.3565998
84.9713974 -20.5921001 13.1280003
85.0839996 -22.1198997 2.58459997
85.0590973 -22.1623993 2.90440011
85.1130981 -22.0158997 4.85059977
85.0434036 -21.4300003 2.84240007
85.0437012 -21.4500999 3.18429995
85.0962982 -21.5386009 5.79160023
85.052597 -21.4227009 11.5824003
85.1176987 -21.5802002 14.0686998
85.0848007 -21.3871994 3.2262001
85.1931 -21.3153 11.1660004
85.1952972 -21.0993996 2.33130002
85.1710968 -21.0911007 2.55270004
85.118103 -21.1446991 2.64420009
85.1390991 -21.0652008 4.95599985
85.1386032 -21.0258007 5.13219976
85.1725006 -21.0678997 13.7982998
85.1195984 -20.9356995 2.1953001
85.0344009 -20.9715004 5.34919977
85.2583008 -22.2290001 3.4776001
85.3674011 -22.1602993 3.68099999
85.2907028 -22.1560993 4.18079996
85.3989029 -21.9372005 9.09160042
85.2117996 -20.9638004 5.44430017
85.2192001 -20.6049004 13.0288
85.2037964 -20.7413998 14.1559
85.4281464 -22.2225494 4.09964991
85.4432983 -22.1459007 3.43309999
85.4863968 -21.8255005 11.4991999
85.4533997 -21.7630005 12.2023001
85.4848022 -21.7733002 12.4383001
85.4085007 -21.7691002 13.2149
85.5393982 -21.6942997 14.1646004
85.774498 -22.2553005 3.76419997
85.7662964 -22.1959991 4.26480007
85.7977982 -22.1564007 6.50089979
85.7837982 -22.1497993 6.64690018
85.6705017 -21.9349003 2.87210011
85.6684036 -21.9321003 11.8604002
85.645401 -21.8647003 12.1167002
85.9514999 -22.2173996 3.62010002
85.9672012 -21.9645004 2.37069988
85.8367004 -21.8990002 12.7201004
85.9157028 -20.9655991 3.34209991
86.0506973 -22.0925007 2.54239988
86.0935974 -22.1609001 2.82690001
86.0558014 -22.1021004 3.24040008
86.0365982 -22.1919003 3.73300004
86.1914978 -22.1284008 3.80699992
86.0259018 -21.8593998 12.1224003
86.0282974 -21.8647995 12.6513996
86.0261002 -21.6560001 12.8697004
86.3312988 -22.2198009 2.54769993
86.2955017 -22.2231998 2.85520005
86.2259979 -22.2259007 3.39260006
86.2144012 -22.2325001 4.29180002
86.3264999 -22.0505009 3.93510008
86.2980957 -22.1683998 4.14789963
86.2313004 -21.6306 13.5270996
86.2205963 -21.6665993 13.9140997
86.3671036 -20.4790001 2.93510008
86.5258026 -22.2702007 3.96160007
86.5892029 -22.0240993 2.63860011
86.4875031 -22.1966 3.97210002
86.5036011 -21.7446003 11.4895
86.7187042 -22.2062988 2.35255003
86.7285004 -22.2201996 3.34019995
86.7304993 -22.2233505 4.09275007
86.7931976 -22.1506996 2.27769995
86.656601 -22.1175003 2.4921
86.6580505 -22.0978012 2.65229988
86.7060013 -22.1891003 2.8592999
86.6572495 -22.1018505 3.12094998
86.754303 -22.1954994 4.41340017
86.6606979 -21.9909992 2.89299989
86.7699966 -21.8197002 5.18120003
86.7740021 -21.9015007 5.55165005
86.6801987 -21.9727993 6.92269993
86.7246017 -21.7602005 4.83300018
86.8671036 -22.2145004 2.57570004
86.9366989 -22.0471992 6.02489996
86.9411011 -21.9568996 5.43249989
87.1528015 -22.1683998 2.78760004
87.1648026 -22.1189003 2.94230008
87.0253983 -22.1611004 3.01049995
87.0028992 -21.9999008 5.12979984
87.2730026 -22.2390995 2.92269993
87.2343979 -22.1494007 2.73959994
87.2052002 -22.1236992 3.23920012
87.7289963 -22.0701008 3.4677999
87.6949997 -21.1128998 2.59579992
87.8338013 -22.0837994 3.32389998
87.8972015 -21.9141006 3.33769989
88.1725998 -22.0727005 2.94770002
88.3553467 -22.1608505 2.73360014
88.2452011 -22.0953503 3.15509987
88.396698 -22.0396996 3.27340007
88.4451981 -21.8558006 8.17450047
88.7855988 -21.6611004 5.1578002
88.9666977 -22.2033997 6.56580019
88.8231964 -22.1214008 3.07690001
88.957901 -22.1854 6.50080013
89.1964035 -22.4514008 3.6559
89.0891571 -22.5504494 3.94124985
89.0422974 -22.2124004 3.82920003
89.0814972 -22.0851002 6.62220001
89.106102 -21.7747993 4.94490004
89.1746979 -21.7611008 5.06689978
89.1858978 -21.7987995 5.31090021
89.2941971 -22.5482998 3.59759998
89.303299 -22.5548992 6.97060013
89.2574005 -22.1618996 3.18959999
89.3923035 -21.9629002 5.95959997
89.3209 -21.7968006 5.56110001
89.5301971 -22.7105999 3.78830004
89.5939026 -22.5489006 3.63509989
89.4899979 -21.8421993 4.96999979
89.6042023 -22.6952991 4.36660004
89.6695023 -22.5958996 3.89709997
89.7916031 -22.2357006 3.59559989
89.7060013 -22.3143997 3.65440011
89.6433029 -22.1445999 3.1394999
89.6376038 -22.1058006 3.48950005
89.9657974 -22.1732998 2.70099998
89.9611053 -22.1279488 2.98510003
89.9453964 -22.1219673 3.09563327
89.9789963 -21.9654007 5.05830002
89.9746017 -21.8637009 5.2414999
89.9922028 -21.9397507 5.48094988
90.0070038 -22.3537006 2.98230004
90.1090546 -22.2955494 3.07119989
90.0863037 -22.2929993 3.30780005
90.157547 -22.2511005 4.64225006
90.126297 -22.2420006 4.94019985
90.0564957 -22.1276665 4.6461668
90.0309372 -22.0598679 4.95323324
90.0807037 -22.1510506 5.28775024
90.1355972 -22.1769009 5.47329998
90.1695023 -22.1781006 5.64340019
90.1818008 -22.1530991 7.56349993
90.1041031 -22.052 7.60580015
90.0299988 -21.9370995 4.75260019
90.0000992 -21.9556007 5.34630013
90.0912018 -21.8938999 5.44129992
90.0400009 -21.9507008 6.23110008
90.0285034 -21.6849995 6.16450024
90.8006973 -22.3782005 6.49450016
90.9953995 -22.1727009 3.76959991
90.803299 -21.9090004 5.92749977
91.0500031 -22.6567993 6.72559977
91.1685028 -22.1393013 5.70285034
91.191597 -21.9827995 5.04559994
91.1848984 -21.9771004 5.24060011
91.0823975 -21.9197998 5.45214987
91.3956985 -22.7210007 3.92330003
91.3034973 -22.5872993 4.18660021
91.3499985 -22.4964008 4.89960003
91.3214035 -22.3167 3.73469996
91.3230515 -22.3077507 4.47395039
91.3231964 -22.2945995 4.87440014
91.3230515 -22.2462006 5.53999996
91.331955 -22.1553497 3.70510006
91.2380981 -22.0540009 4.94649982
91.4667969 -22.7245998 3.80929995
91.498497 -22.6721001 4.97870016
91.5467987 -22.4591999 3.56539989
91.5644989 -22.3831005 3.8987999
91.4592972 -22.1627007 4.37900019
91.7377014 -22.7602005 3.602
91.6976013 -22.6370678 3.97963333
91.7232971 -22.6768494 4.09640026
91.7468033 -22.3013 3.62360001
91.9674988 -22.3075008 9.44079971
91.8003006 -21.9192009 5.31799984
92.0571976 -22.5713997 4.80439997
92.0923996 -22.4519997 5.37729979
92.0569 -22.3848 4.55530024
92.9395981 -21.9920998 5.73899984
93.101799 -21.8770008 5.91149998
93.280098 -22.0153008 4.79080009
93.4496002 -22.0695 4.90205002
93.5546036 -21.9834003 7.86899996
93.5923996 -21.9542999 8.24030018
93.7236023 -22.1427002 4.21330023
93.6472015 -22.1714001 4.45860004
93.6889038 -22.1439991 6.65259981
93.712204 -21.9625015 5.9295001
93.9236984 -22.2287006 4.26130009
93.9349976 -22.1420994 4.11600018
93.9943008 -22.0991001 4.21600008
93.8348999 -22.0548 5.82240009
93.9255981 -22.1480007 6.74679995
94.0558014 -22.1415005 6.28000021
94.134903 -22.1417007 7.03999996
94.0916977 -21.8462009 11.0913
94.2250977 -22.2635994 4.05539989
94.2797012 -22.1219006 3.93549991
94.3964996 -22.1263008 4.43050003
94.3883972 -22.0265999 5.64919996
94.391098 -22.1474991 6.15579987
94.3200989 -22.1453991 6.28800011
94.3422012 -21.9640999 4.91680002
94.3169022 -21.9729996 11.5327997
94.5157013 -22.0372009 5.98559999
94.4721985 -22.1788006 6.12480021
94.5241013 -22.0321999 9.3671999
94.5831985 -21.8458996 11.1483002
94.6246033 -22.4039993 5.18510008
94.6875992 -22.3472004 4.6697998
94.6280975 -22.1299 6.46449995
94.7742004 -22.0165005 6.83360004
94.7957993 -21.9771004 5.91090012
94.6274033 -21.9176998 9.40209961
94.6352005 -21.9463997 11.3400002
94.9432983 -22.0974998 5.07679987
94.9406967 -22.1595993 5.87239981
94.9111023 -22.0855007 8.73200035
94.8906021 -21.9256992 4.96390009
94.9396973 -21.9389 5.14709997
94.8349991 -21.7397003 5.88600016
95.0895004 -22.2150993 6.47980022
95.0669022 -22.0119991 4.55480003
95.0824966 -22.1214008 4.75260019
95.0962982 -22.1623993 5.97440004
95.1580963 -22.0294991 6.19560003
95.1337967 -22.0990009 6.74370003
95.1307983 -21.7432003 11.8866997
95.248497 -22.1970005 4.2256999
95.3324966 -22.1485004 6.39340019
95.2838974 -22.1299 6.78299999
95.2152023 -22.0377007 9.15470028
95.3116989 -22.0417995 9.78489971
95.3145981 -21.9125004 9.3757
95.2317963 -21.8243999 11.4660997
95.3068008 -21.8388004 11.6597996
96.9564972 -20.6912994 13.4053001
97.1360016 -20.6329002 8.5717001
97.3253021 -20.9668999 5.83120012
97.2266998 -20.7903996 9.02649975
97.2844009 -20.7742004 9.58619976
97.2631989 -20.698 9.94729996
97.2778015 -20.6105003 11.8516998
97.5434036 -20.7870998 8.05249977
97.4589996 -20.7324009 9.42580032
97.7930984 -21.9881992 6.0163002
97.7770996 -21.9316998 10.0302
97.7518997 -21.6373997 6.05380011
97.7078018 -21.7670002 6.72090006
97.7629013 -21.7040005 6.85750008
97.7855988 -21.5065994 6.1711998
97.7611008 -21.5902004 6.80149984
97.7845993 -21.2532997 6.78030014
97.7399979 -21.3603992 6.92500019
97.745697 -21.2462997 7.64729977
97.7833023 -21.2056999 9.22609997
97.7401962 -20.8712997 7.23649979
97.7786026 -20.7542992 11.8072996
97.9503021 -22.0025997 4.56829977
97.9704971 -22.0247002 5.07870007
97.8751984 -22.1014004 6.08710003
97.8226013 -22.1516991 6.3526001
97.917099 -22.0056 6.56050014
97.8934021 -22.0077 6.76270008
97.9723969 -21.9813995 4.80679989
97.9694977 -21.9472008 5.38570023
97.9847031 -21.9113007 5.46670008
97.9348984 -21.9715996 5.65460014
97.8123016 -21.8495998 6.70190001
97.9988022 -21.8453007 7.5946002
97.8238983 -21.9200993 9.48429966
97.8807983 -21.8703003 9.67730045
97.9033508 -21.7276993 5.10545015
97.8367996 -21.6299 6.23519993
97.8897018 -21.7103004 8.96720028
97.844902 -21.7872009 9.67380047
97.9111023 -21.6026993 11.5181999
97.8266983 -21.4242992 5.95459986
97.8631973 -21.4535999 8.52499962
97.8833008 -21.5785999 8.64900017
97.8471985 -21.5179005 9.52070045
97.9112015 -21.4864998 11.3060999
97.9894028 -21.4531994 11.7974005
97.8986969 -21.3467484 4.69044971
97.9216003 -21.2070999 6.87779999
97.8421478 -21.3555489 8.67749977
97.9821014 -21.2507 11.9194002
97.9419022 -21.0303993 4.79890013
97.9357986 -21.1147995 5.41190004
97.9319 -21.1686993 5.63640022
97.8040009 -21.0727997 6.68529987
97.9822998 -21.1086006 7.94239998
97.8872986 -20.8850994 7.32329988
97.905098 -20.9222488 7.97039986
97.846199 -20.886034 9.2806673
97.8435974 -20.6509991 11.9540997
97.831398 -20.6114006 13.2035999
98.0206985 -22.1672993 4.54080009
98.0565948 -22.1125488 4.68805027
98.1815033 -22.1158009 5.31559992
98.1001968 -22.0732002 5.88040018
98.1606979 -22.0592995 7.72559977
98.0166016 -21.9276009 7.55119991
98.1585007 -21.9452991 7.78770018
98.1155014 -21.9027996 11.3523998
98.0522995 -21.6669998 4.93470001
98.013298 -21.7985001 8.13080025
98.0522995 -21.7042007 12.2226
98.1688004 -21.6021004 12.4237003
98.1876984 -21.7182007 13.0382996
98.0645981 -21.4913006 10.9572001
98.0249023 -21.2859001 7.79099989
98.0238037 -21.3962002 13.4440002
98.0142975 -20.8995991 7.51109982
98.0836029 -20.9577007 7.72660017
98.1540985 -20.8425999 10.9103003
98.1056976 -20.8561001 13.5768995
98.1119995 -20.9023991 13.8505001
98.0080032 -20.7462006 7.23019981
98.2603989 -22.0832996 5.46000004
98.2733994 -21.9727993 7.94630003
98.3747025 -21.8880005 9.29769993
98.3886032 -21.8649998 11.9031
98.2204971 -21.7224007 12.2797003
98.3013992 -21.6762009 13.1029997
98.5948029 -21.9074001 11.7459002
98.6843033 -21.9808006 12.2019997
98.8732986 -22.0389996 5.66989994
98.8871002 -22.1714001 6.22009993
98.8981018 -21.8617992 11.5600004
98.9059982 -21.8215008 12.0972004
99.1650009 -22.0275002 9.0468998
99.0098038 -21.9440994 11.2486
99.3735962 -21.7136993 13.4827003
99.7009964 -22.1742992 4.96920013
99.6008987 -21.8110008 4.76730013
99.7537003 -21.8803997 7.84490013
99.7050018 -21.9183998 8.10070038
99.6187973 -21.9309006 11.6992998
99.7595978 -21.5081005 13.3315001
99.8354034 -22.0557995 5.50180006
99.8254013 -21.8654003 4.81839991
99.9737015 -21.7779999 12.8120003
