# .PCD v0.7 - Point Cloud Data file format
VERSION 0.7
FIELDS x y z
SIZE 4 4 4
TYPE F F F
COUNT 1 1 1
WIDTH 1148
HEIGHT 1
VIEWPOINT 0 0 0 1 0 0 0
POINTS 1148
DATA ascii
80.1725006 -78.3318024 5.92959976
80.0802002 -77.8526993 5.87115002
80.0699005 -71.014801 10.9862003
80.0698013 -70.822197 10.4836998
80.1594009 -70.7354965 8.43360043
80.1036987 -70.718399 10.7047997
80.0245972 -70.7769012 10.9934998
80.091301 -70.3114014 8.28750038
80.1527023 -70.3258972 8.50399971
80.2826996 -78.8042984 5.90670013
80.3119965 -78.1297989 5.85440016
80.3031006 -77.5009003 5.87615013
80.379097 -72.058403 4.46320009
80.3367004 -71.2251968 11.0446997
80.2736969 -71.1391983 10.9483004
80.331398 -71.0334015 13.1372004
80.2778015 -70.8522034 3.74099994
80.2216034 -70.9067993 5.2038002
80.282402 -70.9512024 8.02509975
80.365303 -70.8758011 10.7080002
80.3855972 -70.8824997 10.9420996
80.3943024 -70.8712006 12.7940998
80.3610992 -70.8104019 13.5384998
80.3103943 -70.6455002 6.57695007
80.2282028 -70.6710968 6.65929985
80.276001 -70.7232971 8.36420059
80.3033981 -70.7605972 13.5994997
80.2817993 -70.7659988 13.6869001
80.2237015 -70.5226974 6.55919981
80.3889008 -70.5723038 6.61429977
80.5591507 -79.7266006 5.86884975
80.4913025 -79.532402 5.91330004
80.4126968 -79.1961975 5.95639992
80.4890976 -77.2303009 5.9770999
80.5409012 -77.0856018 5.75759983
80.5679016 -76.8480988 5.66340017
80.5858994 -71.4080963 10.1625996
80.5914993 -71.4072037 10.2468996
80.5210571 -71.4485016 10.6291504
80.5655975 -71.4993973 11.0593004
80.5519028 -71.2204971 4.72060013
80.4993973 -71.2819977 4.95639992
80.5959015 -71.3752975 10.0985003
80.4893036 -71.2724991 10.9511995
80.5318985 -71.1952972 4.81890011
80.558197 -71.0919037 5.03310013
80.4988022 -71.0155029 5.4520998
80.538147 -71.1125488 9.72464943
80.5622025 -71.1211014 10.6657
80.4725037 -71.042099 12.6266003
80.4238968 -71.100502 16.4976997
80.5381012 -71.0687027 16.6431007
80.4941559 -70.8604507 3.34404993
80.4781036 -70.9085999 3.69630003
80.4623032 -70.9777985 4.17649984
80.5002518 -70.8834 4.50629997
80.4928665 -70.8962021 4.67869997
80.460907 -70.927948 4.84195042
80.4857025 -70.9207001 5.11357498
80.4870987 -70.9191437 5.23260021
80.5008011 -70.9039001 5.44140005
80.5382004 -70.8125992 5.68849993
80.5491028 -70.8320999 8.21109962
80.5128021 -70.9346008 9.96370029
80.5639038 -70.8822021 10.1458998
80.541153 -70.9524002 10.3760996
80.5156021 -70.9049988 10.5298996
80.5482483 -70.8956985 10.7137003
80.4720001 -70.8807983 10.8949003
80.5017014 -70.8544006 12.2125998
80.4789658 -70.9382324 12.6667004
80.4981537 -70.9114532 12.8610497
80.5005035 -70.9469299 13.104167
80.5705032 -70.7762985 4.38600016
80.5353012 -70.7661972 4.58589983
80.5768967 -70.7304993 4.7434001
80.5912018 -70.7520981 4.81360006
80.5962982 -70.7048035 5.01520014
80.555603 -70.7773972 5.3743
80.5645981 -70.6947021 5.51420021
80.563652 -70.7331009 5.72237492
80.5833969 -70.7661438 5.91539955
80.5820999 -70.7909012 6.08459997
80.5412979 -70.7049713 6.53113317
80.4653015 -70.7386017 6.69729996
80.5346985 -70.7335968 7.59280014
80.5503998 -70.7740021 8.16959953
80.544899 -70.7813034 8.33670044
80.5565033 -70.780098 9.94939995
80.5842972 -70.6205978 10.0776997
80.5385971 -70.7127991 10.3865995
80.5869446 -70.7636032 10.4746494
80.5731506 -70.668396 10.8200493
80.4508514 -70.7290497 11.0823498
80.5253983 -70.6024017 11.2770996
80.5625992 -70.7718964 12.3452997
80.5549469 -70.7044525 12.5532494
80.5879517 -70.7405472 12.9111996
80.5301971 -70.6761017 13.1040001
80.5416641 -70.7290649 13.5101004
80.5709 -70.5837021 8.03269958
80.5780029 -70.5939026 10.4394999
80.5922012 -70.5938034 10.6132002
80.4382019 -70.5708008 13.7496004
80.4412994 -70.3478012 6.56040001
80.4728012 -70.2779007 8.38389969
80.4798965 -70.3115005 8.43229961
80.597702 -70.1773987 7.72819996
80.7185974 -71.6367035 10.8252001
80.6371002 -71.4628983 10.4912996
80.7350998 -71.4794006 16.4815998
80.6949005 -71.300499 10.0978003
80.6137009 -71.3303986 10.5797997
80.6098022 -71.2844009 13.6142998
80.6882019 -71.1242981 16.6949005
80.6203003 -70.8177032 5.29260015
80.6423035 -70.8035965 9.80500031
80.6199493 -70.8092957 10.1074505
80.7105026 -70.8770981 10.4181004
80.6091995 -70.7871017 3.33780003
80.6860352 -70.7002029 3.5532999
80.6474991 -70.7012024 3.83200002
80.6225967 -70.7870026 4.20749998
80.6016998 -70.6948013 5.05299997
80.6473007 -70.6603012 5.41529989
80.6340027 -70.743103 5.92679977
80.638298 -70.6835022 6.35389996
80.6175995 -70.6436996 6.5316
80.600502 -70.6856995 7.19899988
80.6455002 -70.7049026 7.32259989
80.6630478 -70.6884003 7.69414997
80.7388 -70.6112976 8.62310028
80.706955 -70.6491547 9.30655003
80.6741028 -70.6681976 9.78380013
80.6892548 -70.6665955 9.86155033
80.6883545 -70.65905 10.2765999
80.6783447 -70.624649 10.4734497
80.6457672 -70.667099 10.7635336
80.6166 -70.6207962 10.8987999
80.6770706 -70.6201019 11.0889997
80.6645966 -70.6222 11.3447495
80.6662521 -70.6820984 12.1802006
80.6517029 -70.6474991 12.3410997
80.6707001 -70.6537018 12.5115995
80.6715469 -70.6422501 12.7603502
80.6880035 -70.683197 12.8958492
80.6149979 -70.6018982 13.0972996
80.6251984 -70.6591034 13.261467
80.6013031 -70.7325974 13.5945997
80.7518005 -70.5877991 5.9678998
80.6791 -70.5770035 6.53179979
80.6391983 -70.4778976 7.11549997
80.6883011 -70.577301 9.62800026
80.6496964 -70.5621033 9.92889977
80.7049026 -70.506546 10.0914497
80.6389008 -70.5343018 10.5931997
80.6418991 -70.5439987 10.7040005
80.7077026 -70.5914993 10.9454002
80.7419968 -70.5358963 11.1239004
80.7292328 -70.5074997 11.3086004
80.7660522 -70.5217514 11.48915
80.7530975 -70.4376984 12.3694
80.660675 -70.5580215 12.486475
80.6895981 -70.5343018 12.6234999
80.7146301 -70.5534744 12.8550501
80.6364975 -70.5552979 13.0393
80.6408005 -70.530899 13.5977001
80.6026001 -70.1772995 8.44799995
80.8725967 -71.2678986 16.6005993
80.9785995 -70.6300964 6.29190016
80.9076004 -70.6350021 10.8682003
80.802803 -70.6184998 13.4453001
80.9433975 -70.5146027 3.5638001
80.9807968 -70.5764008 3.71589994
80.8973999 -70.5886002 3.83920002
80.9557037 -70.5343475 6.42430019
80.9076996 -70.5222015 10.9481001
80.8048019 -70.524498 11.1365995
80.913147 -70.5300446 11.2934494
80.828598 -70.5644531 11.5042
80.9625626 -70.4937973 11.6516333
80.8643951 -70.5240479 12.6396503
80.8335037 -70.4886017 13.0073004
80.9991989 -70.3741989 3.74160004
80.9680023 -70.2795029 8.89459991
80.9553986 -70.3115997 9.18589973
80.9747009 -70.3279037 11.7026997
81.1661987 -71.1283035 16.7099991
81.1115036 -70.6880035 3.34969997
81.1279984 -70.6594009 3.5244
81.0235977 -70.6417999 3.87089992
81.1929016 -70.7481995 5.63609982
81.0361023 -70.6855011 5.95170021
81.0142975 -70.6816025 6.19579983
81.1858978 -70.7931976 7.87529993
81.0870972 -70.7136993 10.5106001
81.0907974 -70.7583008 10.9383001
81.1564026 -70.6177979 11.3074999
81.1498032 -70.4129028 3.44980001
81.0843964 -70.4597015 3.66925001
81.1350021 -70.4412994 8.83530045
81.030098 -70.5815964 9.1619997
81.0507965 -70.4139023 9.34430027
81.0587006 -70.5125351 11.3378668
81.0391006 -70.5071487 11.4605503
81.1519012 -70.5274963 13.2849998
81.1166992 -70.3769531 3.51425004
81.1694031 -70.2502975 3.75430012
81.169899 -70.3143997 6.31260014
81.1199341 -70.2281342 6.48533344
81.0299988 -70.3673019 6.70930004
81.0094452 -70.2763062 8.89865017
81.0279007 -70.2998962 9.36880016
81.1492996 -70.3160019 11.3957996
81.0824509 -70.2176514 11.5035496
81.0131989 -70.3544006 11.6341
81.0478973 -70.2173004 11.8219004
81.120697 -70.1828995 6.30019999
81.1448975 -70.0992966 9.13809967
81.0904007 -70.1308975 9.28299999
81.0058975 -70.1200027 11.9055996
81.3373489 -71.5409546 16.4875984
81.2097015 -71.2061996 16.5531998
81.3141479 -71.1080475 16.6040497
81.3018036 -70.9483032 4.94299984
81.2134018 -70.8296967 10.4115
81.387001 -70.9338989 10.8182001
81.2584991 -70.7372971 5.93580008
81.3451996 -70.7555008 10.5768995
81.3306351 -70.7551651 10.8984671
81.3009033 -70.7370987 13.1154995
81.3127975 -70.6479034 13.5769501
81.233551 -70.486351 11.4278498
81.3324966 -70.2932968 3.8979001
81.2338028 -70.2575989 6.14820004
81.2149963 -70.2008972 9.2031002
81.2330017 -70.2397995 11.5452995
81.3834 -70.1735992 6.45930004
81.2492981 -70.1964035 9.09720039
81.2445526 -70.1423035 11.3846998
81.205101 -70.1738968 11.5798998
81.3352966 -70.1475983 11.6211004
81.5835037 -71.5239029 16.5020008
81.519455 -71.2640991 16.52985
81.5423965 -71.1167984 13.5157003
81.5652008 -70.9542999 4.88514996
81.5632019 -70.8852005 10.2024002
81.485199 -70.8752975 13.1150503
81.5645981 -70.671402 6.02619982
81.5195465 -70.7485046 10.5479002
81.4391022 -70.7752991 10.9045
81.5780029 -70.6260986 11.5236998
81.4039001 -70.6987 13.6112003
81.5865021 -70.5266037 8.8046999
81.4023972 -70.4925995 13.6329002
81.5496979 -70.3623962 6.20050001
81.5645981 -70.3234024 8.7730999
81.5112991 -70.1780548 8.76950073
81.4036026 -70.1340027 8.92230034
81.4588013 -70.0880966 11.7995005
81.5766983 -70.1314011 11.8113003
81.7161484 -71.3554001 16.4713001
81.6062012 -71.0526962 3.89269996
81.7149963 -71.0177002 13.5694008
81.7453995 -71.191597 16.5636005
81.6053009 -70.9785995 3.95449996
81.6587982 -70.8382492 4.2663002
81.6104965 -70.9307022 4.54150009
81.6455002 -70.8760986 4.62960005
81.6633987 -70.8784027 4.83109999
81.6505966 -70.9227982 5.03100014
81.7617035 -70.8662033 7.31939983
81.663002 -70.9092484 9.92634964
81.6634979 -70.9234009 10.1197996
81.688797 -70.8035965 10.2454004
81.7453995 -70.9421005 11.0664997
81.6809998 -70.8119965 12.5858002
81.7453003 -70.8144989 12.7632999
81.6996994 -70.8594971 12.9763002
81.7266006 -70.777298 5.0230999
81.7828979 -70.6809006 5.85669994
81.7827988 -70.7268982 7.05929995
81.7686005 -70.7350006 7.35279989
81.7748032 -70.7901001 7.81050014
81.7209015 -70.7707977 10.1673002
81.6799469 -70.7252045 10.4946003
81.6268997 -70.7809982 10.8678999
81.7707977 -70.6691971 12.7666998
81.6934967 -70.7600021 12.8023005
81.685379 -70.7232437 13.1100197
81.7405014 -70.7277527 13.5431995
81.7544479 -70.5212479 11.2842999
81.6977005 -70.4639969 11.4195995
81.6829987 -70.2636032 3.78010011
81.6079025 -70.2962036 5.99100018
81.6115036 -70.2399979 6.1269002
81.7383957 -70.2584991 11.3289671
81.6138992 -70.0683975 6.24429989
81.7099991 -70.1222992 8.84980011
81.6919556 -70.1380005 11.4890499
81.7776031 -70.1473999 11.6631002
81.6724548 -70.0986938 11.8833504
81.8243027 -71.5363007 16.4220009
81.9885025 -71.2087021 14.3218002
81.960701 -71.3458023 16.4733009
81.8274994 -71.0042038 8.24199963
81.9513016 -70.8130035 5.16809988
81.8750534 -70.872757 13.5552006
81.822998 -70.7758026 5.59730005
81.9964981 -70.6661987 10.9944
81.8367996 -70.7376022 12.3121004
81.8904572 -70.7198486 12.9227505
81.930603 -70.6292038 13.5278997
81.9167023 -70.606102 13.6482
81.8378983 -70.3308029 11.2524004
81.9154968 -70.1341019 11.5012999
81.884552 -70.0823059 11.6301498
82.0674973 -71.7878036 10.9708996
82.0559006 -71.6324997 16.2931004
82.1203995 -71.5317001 16.5426006
82.0285034 -71.1746979 16.5237999
82.1684036 -70.9701004 3.91750002
82.0467987 -70.8749008 4.67600012
82.0968018 -70.9039993 5.64559984
82.1785965 -70.905899 7.80730009
82.1998978 -70.8030014 8.00549984
82.117897 -70.8699036 10.1765003
82.1744003 -70.8295975 10.2791996
82.1853027 -70.8274994 10.4278002
82.0542984 -70.8511963 10.9597998
82.1771011 -70.978302 13.5053997
82.0978012 -70.7781982 10.5535002
82.1633987 -70.7548981 13.3699999
82.0274963 -70.656601 13.6652002
82.082901 -70.542099 11.1443996
82.1271973 -70.5799026 13.4974003
82.267601 -71.7391968 16.2338009
82.221199 -71.4689026 13.63445
82.2081985 -71.2167969 16.5828991
82.3975983 -71.0374985 10.7404003
82.3746033 -71.0507965 13.5804005
82.2457962 -71.189003 16.3848
82.2078018 -70.8576965 4.31389999
82.293251 -70.9093933 4.71285009
82.3392029 -70.8136978 4.82079983
82.2036972 -70.8806 5.31790018
82.3988037 -70.8001022 6.9394002
82.3209991 -70.8252029 7.10624981
82.2710037 -70.8471985 8.12549973
82.2137985 -70.850502 10.4743996
82.3539429 -70.8602524 10.8413
82.3460999 -70.8815002 13.2877998
82.2518005 -70.7382965 5.32550001
82.2189026 -70.7735977 5.66879988
82.3206024 -70.760498 7.63990021
82.2792511 -70.780304 8.31925011
82.3285065 -70.6973495 10.3415499
82.3345032 -70.7008057 10.4958
82.2960968 -70.674202 10.7595997
82.2687988 -70.7776031 10.9247999
82.3348007 -70.7204971 12.6504002
82.3205032 -70.7331009 12.9260998
82.2745361 -70.7471313 13.0960331
82.3183517 -70.7485504 13.4300003
82.3812027 -70.5210037 13.0135002
82.4461975 -71.8275986 13.5422001
82.5981979 -71.8852997 16.2103996
82.476799 -71.2715988 10.8729
82.5709 -71.3290024 16.4153996
82.4918976 -71.2021027 16.6620007
82.4866028 -71.0042038 4.98920012
82.558197 -71.134903 16.5342503
82.4175034 -70.8591003 4.25699997
82.5968018 -70.7490997 5.69589996
82.4116974 -70.6605988 8.02490044
82.5130463 -70.7016449 8.29999924
82.4680023 -70.7641983 10.0299997
82.473999 -70.7083969 10.9478998
82.4310989 -70.7154999 11.0335999
82.4912491 -70.6425018 12.5930004
82.4117966 -70.7173004 12.6942997
82.4494019 -70.6745529 12.89925
82.4878006 -70.706749 13.3190994
82.4339981 -70.5991974 11.1914997
82.5651016 -70.5917969 13.4492998
82.6781006 -72.2195969 5.26039982
82.7297974 -71.8616028 15.3348999
82.7049026 -71.555397 16.0179996
82.7725983 -71.4841003 16.3598003
82.6984024 -71.3774033 16.5657997
82.6704025 -71.1512985 16.5618992
82.7251968 -71.0950012 16.6210003
82.7010498 -70.9550476 3.92285013
82.6266022 -70.8219986 11.0143003
82.6496964 -70.7654037 5.58669996
82.7042542 -70.7321014 10.5393
82.7081985 -70.7499008 10.9034996
82.6753006 -70.6689987 12.6054001
82.7601013 -70.6839447 13.0973501
82.7061005 -70.7902527 13.5054502
82.8099976 -71.9505005 10.6550999
82.9858017 -71.6082993 15.6961002
82.9287033 -70.8003006 3.94350004
82.8780975 -70.838501 4.38500023
82.836998 -70.8050995 5.03000021
82.9093018 -70.8852997 12.1421003
82.9299011 -70.7725983 5.50619984
82.8585968 -70.7856979 7.42990017
82.9163513 -70.7639008 8.23595047
82.9789963 -70.685997 8.44089985
82.8582993 -70.6844025 10.0314999
82.9010468 -70.7154999 11.0520496
82.9231033 -70.6781006 12.4982004
82.8724976 -70.7076035 12.6592999
82.8499985 -70.6657028 12.9951
82.9971008 -70.6827011 13.1773996
82.8238983 -70.6725998 13.5247002
82.901001 -70.4997025 13.7334995
83.1165466 -71.6826477 14.7505503
83.1776962 -71.6689987 15.9225998
83.1809006 -71.4759979 16.6508999
83.1115494 -71.2510986 16.517601
83.1660995 -70.808197 5.54939985
83.0102997 -70.9105988 5.7737999
83.0158005 -70.8078003 8.35070038
83.0870972 -70.9804001 10.8606997
83.1858978 -70.7490997 5.12260008
83.1195984 -70.7671967 10.9821997
83.024498 -70.7329025 11.0757999
83.0779953 -70.6977692 12.9121666
83.0363998 -70.7084961 13.5055332
83.1521988 -70.5634003 13.5702
83.0156021 -70.4494019 13.8000002
83.0516968 -70.3610001 13.6724005
83.2705002 -71.6587982 15.5627003
83.2438965 -71.694603 15.6103001
83.2228012 -71.7024002 15.8983002
83.3134003 -71.5980988 16.1450005
83.3304977 -71.1784973 16.5611
83.3639984 -71.0618973 16.6746006
83.2254028 -71.0815964 16.9722004
83.3759995 -70.8029022 12.9357996
83.3366013 -70.8548431 13.5136003
83.3451996 -70.7665024 5.52099991
83.3305969 -70.6568985 8.31540012
83.2926025 -70.7425003 10.9118004
83.2861023 -70.7826996 12.9461002
83.3082962 -70.6567993 13.2275
83.3404541 -70.6916962 13.4537001
83.2891006 -70.5270996 8.41530037
83.2612991 -70.3248978 13.4335003
83.4487 -71.6824951 15.1640501
83.4537964 -71.6680984 15.3079004
83.5093002 -71.7478027 15.4054003
83.4846954 -71.6515503 15.6974001
83.5684967 -71.6271973 15.8430996
83.4979019 -71.5967026 15.3415003
83.5780029 -71.5082016 15.9222002
83.4963989 -71.4907532 16.3726006
83.5084534 -71.4737549 16.4897499
83.5512009 -70.8436966 4.06949997
83.4598007 -70.8192978 5.09030008
83.4352036 -70.9933014 7.53009987
83.539299 -70.9047012 13.4748001
83.550499 -70.7052002 5.47800016
83.453598 -70.7782974 8.29609966
83.4653015 -70.7990036 10.5625
83.4480972 -70.7141037 13.4649
83.4496002 -70.6361008 13.6091995
83.7925034 -71.688797 14.6752996
83.6102982 -71.6340027 15.3546
83.6130981 -71.6484985 15.5042
83.643898 -71.6326981 16.0379009
83.6224976 -71.592598 15.5817003
83.6949005 -71.5279007 15.6309004
83.7341003 -71.4217987 16.0293999
83.7289963 -71.5832977 16.2595005
83.7777023 -71.2099991 12.9708004
83.77845 -71.2946472 16.4480495
83.6476974 -71.0610962 10.7841997
83.7580032 -71.1608963 12.9184999
83.7016983 -71.0139999 13.4077997
83.6638641 -71.1157684 16.5510998
83.7576523 -70.8546448 4.30669975
83.7654037 -70.9372025 4.61560011
83.7502975 -70.8888016 4.8593998
83.7696991 -70.828598 5.28919983
83.7055054 -70.8730011 5.47564983
83.6900024 -70.8516006 7.97380018
83.6162033 -70.7578964 5.5776
83.6094971 -70.6389999 10.9574003
83.7099991 -70.6671982 12.9019003
83.6100998 -70.7426987 13.4413996
83.719696 -70.6672974 13.6629
83.7360992 -70.5935974 10.9048996
83.8491974 -71.7265015 15.1375504
83.8974304 -71.690239 15.9375668
83.8365021 -71.6900024 16.2429008
83.8294983 -71.4460983 16.1369991
83.9917984 -71.1781006 16.4174004
83.8599014 -70.8253021 4.85220003
83.8740997 -70.8768005 5.31489992
83.8759995 -70.8967972 5.41680002
83.8469009 -70.8187027 7.08699989
83.8572998 -70.8262024 7.53690004
83.8514023 -70.8282013 7.67259979
83.802803 -70.9409027 8.33689976
83.8342972 -70.8948975 9.9677
83.8758011 -70.8342972 12.2909002
83.9962006 -70.9735031 12.8205996
83.8183975 -70.9263992 13.0755997
83.9051971 -70.9371033 13.4905996
83.8160019 -70.7503967 4.29279995
83.8304977 -70.7419968 4.80179977
83.8897018 -70.7794037 5.30299997
83.8731003 -70.700798 5.41580009
83.8526993 -70.7333984 7.12039995
83.9365997 -70.7247009 8.15509987
83.8673019 -70.7668991 8.23359966
83.9571991 -70.7236023 10.4315004
83.9898987 -70.6606979 12.2407999
83.944603 -70.6064987 12.6470003
83.9224548 -70.7546539 13.4475498
83.9465027 -70.5350037 11.3338003
83.9688034 -70.4861984 11.6496
83.9433975 -70.5531006 13.4441996
83.884201 -70.4389038 13.6233997
83.8582001 -70.2006989 11.7161999
83.9567032 -70.044899 11.3408003
83.9652023 -70.1130981 11.4561005
83.8840027 -70.1533966 11.6110001
83.8510971 -70.0793991 11.8237
84.1390991 -71.6662979 15.1969004
84.0523987 -71.6951981 15.4649
84.0596008 -71.6349945 15.6471004
84.0339966 -71.6064987 16.2761993
84.1210022 -71.5372467 15.1081505
84.0768967 -71.5022964 16.1546001
84.1172028 -71.2695999 13.6841002
84.1007996 -71.2701035 16.3707008
84.0744019 -71.3486023 16.4290009
84 -71.1138 12.6707001
84.0610962 -71.1529999 13.0054998
84.0592957 -71.0919495 16.6863995
84.1324005 -70.9508972 12.8561001
84.0866013 -70.7278976 10.7343998
84.0154037 -70.6807022 10.9266996
84.1480026 -70.6188965 12.3044004
84.0213013 -70.6112976 12.9823999
84.0412979 -70.7085037 13.1577997
84.1110992 -70.6019974 13.2572002
84.1260986 -70.6593018 13.5939503
84.1427994 -70.4428024 11.0288
84.120697 -70.3058014 11.1981001
84.0756989 -70.368103 11.2838001
84.0594025 -70.194397 11.3235998
84.001503 -70.0852966 11.4502001
84.0661011 -69.9707031 11.8575001
84.2015991 -71.6787033 16.1690998
84.299202 -71.6244965 16.3057003
84.2286987 -71.4095001 15.6201
84.3815994 -71.4492035 16.3428001
84.2353973 -71.5363007 16.4510498
84.2222977 -71.2490997 16.4181995
84.2679977 -71.0835037 16.6867008
84.3436966 -70.9927979 16.6595993
84.3459015 -70.7572021 12.9090004
84.3233032 -70.6815033 13.5380001
84.3744965 -70.5981979 12.9261999
84.3342972 -70.3195038 11.1292
84.5042038 -71.6312027 16.3560009
84.5379028 -71.591301 16.0690002
84.5628967 -71.5164032 16.4386005
84.5807037 -71.2539978 16.3567009
84.4152985 -71.2388992 16.4514999
84.5119019 -71.1570969 16.4431992
84.551651 -71.1199951 16.6514015
84.4094009 -70.8648987 5.45809984
84.4945984 -70.9147034 8.31999969
84.5836029 -70.8749008 10.5390997
84.424202 -70.8339996 10.9495001
84.5339966 -70.7613983 7.80480003
84.4104004 -70.7442017 8.13790035
84.5655975 -70.4974976 11.2920494
84.5951996 -70.5282974 13.5530005
84.4737015 -70.5877991 13.6835003
84.4520035 -70.3440018 11.1001997
84.4583969 -70.1517029 11.6541004
84.7537994 -71.9138031 16.1063995
84.7538986 -71.8225021 16.4127998
84.7544022 -71.7856979 16.1264992
84.7601013 -71.6996689 16.2373333
84.6958008 -71.5169525 16.4318504
84.6132965 -71.2786026 16.2903004
84.6791992 -71.0727997 13.0867004
84.7584991 -70.9562988 4.45819998
84.6200027 -70.8620987 5.5229001
84.6847992 -70.8498993 11.1484003
84.7578964 -70.7171021 5.4467001
84.7556 -70.7922974 8.32800007
84.7101974 -70.7715988 10.3822002
84.6700974 -70.589798 13.5174999
84.6358032 -70.3527985 11.1275997
84.8777008 -71.9393997 16.1616001
84.9266968 -71.7207031 16.0501003
84.8679962 -71.5670013 16.2805004
84.8422012 -71.385498 16.3880005
84.9713974 -71.2773972 16.4263992
84.8190994 -70.9039993 4.42070007
84.8964539 -70.7321472 4.28489971
84.8475037 -70.7639999 4.52440023
84.8213501 -70.7650452 5.52864981
84.8225021 -70.646698 7.34590006
84.8685989 -70.7170029 9.7215004
84.8495026 -70.6397018 9.93179989
84.9608994 -70.6735001 12.5493002
84.9161987 -70.726265 12.6772003
84.856102 -70.5227966 13.1605997
84.8136978 -70.593399 13.4055004
84.9561996 -70.5207977 13.6974001
85.158699 -72.0835037 7.97380018
85.1433029 -71.8058014 16.0986996
85.0660324 -71.5419693 16.312233
85.0959015 -71.2937469 16.3690987
85.1381989 -71.1736984 16.3761005
85.0177002 -71.1371002 16.5769005
85.0843964 -71.1408005 16.6114998
85.1212006 -70.8174973 4.63910007
85.1595001 -70.9658966 10.7571001
85.1118011 -70.6861496 13.3448
85.185997 -70.5811996 13.7230997
85.3426971 -71.6097031 16.3283005
85.2388 -71.5222015 16.343399
85.3347321 -71.3512039 16.3434334
85.3662033 -71.0823975 10.7624998
85.3397064 -71.1650543 16.3380508
85.2651978 -70.8299026 7.2263999
85.3553009 -70.8320999 7.88630009
85.3023987 -70.8510971 8.05389977
85.3495026 -70.8091965 10.1611004
85.3640976 -70.8631973 13.4750004
85.3625031 -70.7434006 12.5502005
85.3519974 -70.6940002 13.0296001
85.3355026 -70.6078033 13.2058001
85.4199982 -72.0294037 8.08259964
85.4041977 -72.0259018 15.9768
85.5430984 -71.9046021 15.9966002
85.4982986 -71.8753357 16.0548325
85.4449005 -71.7301025 16.0761986
85.5353699 -71.4664001 16.3377323
85.5419998 -71.2337036 16.4639511
85.456398 -70.8026962 9.72889996
85.5534973 -70.6544037 5.88609982
85.4449997 -70.7185974 7.2828002
85.5074997 -70.6705017 7.67670012
85.5419998 -70.674202 10.1707001
85.4384995 -70.6814499 12.5562992
85.5621948 -70.6884995 12.6307497
85.4671478 -70.7380524 12.8617992
85.4365997 -70.6343994 13.1709995
85.475502 -70.7375946 13.2882996
85.501503 -70.5791016 10.1267004
85.5289993 -70.5701981 13.4076004
85.7052994 -71.8630981 15.1527004
85.7798996 -71.6443024 13.6028996
85.7453995 -71.5701981 16.1422005
85.6931458 -71.5241547 16.3292503
85.7789993 -71.4580994 16.5373993
85.728302 -71.3889008 13.4842997
85.6665497 -71.3579559 16.3701496
85.7433014 -71.2032013 16.4204998
85.7455978 -71.1078033 16.5137005
85.6521988 -71.030899 16.6544991
85.7253036 -70.6220016 10.4933996
85.6135025 -70.7418976 10.6948004
85.677002 -70.643898 10.9221001
85.6395493 -70.6335526 13.0971498
85.6909027 -70.6906967 13.2772999
85.7298965 -70.4159012 6.26060009
85.6765976 -70.5509033 13.4222002
85.7154007 -70.2706985 6.13700008
85.6580963 -70.3346024 6.30870008
85.7409973 -70.1789017 6.20599985
85.7501984 -70.098999 6.51219988
85.8625946 -71.6934052 16.1743011
85.9217987 -71.623703 16.2217007
85.8642502 -71.4437027 16.4040985
85.9244995 -71.2832031 16.3512993
85.9337006 -70.7839966 4.61119986
85.9393005 -70.7901001 7.8572998
85.8955994 -70.6343002 13.3393002
85.8010025 -70.540802 13.3715
85.8295975 -70.3824005 5.9362998
86.1762009 -71.8750992 15.2257004
86.1810989 -71.8408966 15.4118004
86.1360474 -71.9117508 15.9205999
86.0066986 -71.8090973 16.3425999
86.0009995 -71.6144028 14.6718998
86.196701 -71.7491989 14.9865999
86.163002 -71.7399979 15.6304998
86.0878677 -71.514267 16.2656994
86.1373978 -71.3837967 17.2691002
86.0862503 -71.1557465 16.3836498
86.1327515 -71.128952 16.4865494
86.2154007 -71.8292007 15.0361996
86.2707977 -71.8699036 15.7084999
86.2397003 -71.8407974 15.8250999
86.2399979 -71.7416992 14.5490999
86.3675537 -71.6744537 14.9090996
86.2904968 -71.6016998 15.2256002
86.3258972 -71.6193008 15.4460001
86.2686005 -71.5142975 16.0846996
86.3414993 -71.4294968 16.2830009
86.3018951 -71.2164001 16.3368492
86.3915024 -70.6225967 8.23659992
86.3766022 -70.6432037 13.0128002
86.2739029 -70.6616974 13.3500996
86.3712006 -70.4764023 5.94259977
86.3492966 -70.4289017 6.02790022
86.2077026 -70.5010986 13.3395996
86.2124023 -70.1213989 6.51060009
86.5081024 -71.7507019 14.9559002
86.4188004 -71.6821976 15.8407001
86.5847015 -71.6474991 16.1338005
86.5205002 -71.5905991 15.2653999
86.4414978 -71.5442963 16.2873001
86.4484024 -71.376297 16.3146
86.4884644 -71.0991364 16.4775162
86.4167023 -70.8202972 7.91860008
86.5923004 -70.8387985 13.5450001
86.4188004 -70.9814987 16.6229992
86.4018021 -70.6119995 5.70760012
86.688797 -73.2572021 16.7395
86.6358032 -73.3944016 16.8185005
86.7043457 -73.1495972 16.7141495
86.6876984 -72.7819977 16.8474998
86.653801 -71.6417007 14.6382999
86.6294022 -71.6336975 15.1653004
86.7517014 -71.6779022 15.4785995
86.7667007 -71.5854034 14.7149
86.6858978 -71.467598 14.9558001
86.7266998 -71.5494995 15.2838001
86.7705002 -71.5123978 15.5333996
86.7095032 -71.5617981 15.8190002
86.6748962 -71.5988007 16.1889
86.6858978 -71.4972 16.2700996
86.6421967 -71.2534027 16.4083004
86.6302032 -71.0671997 13.4217997
86.7462997 -71.0759964 16.4351006
86.7313004 -70.8877029 16.6746998
86.6998978 -70.7714005 7.9071002
86.615097 -70.777298 10.6794996
86.6998978 -70.6666031 13.5775003
86.8916016 -73.2649994 16.5674992
86.8207016 -73.1965027 16.6588001
86.8631973 -71.6909027 15.0137997
86.8602982 -71.6585007 15.2334003
86.8283997 -71.6080017 15.4042997
86.8859024 -71.509201 15.3494997
86.9240036 -71.5775986 15.4822998
86.8127975 -71.580101 15.9736996
86.9599991 -71.5914993 16.0431004
86.8880005 -71.5149994 16.4599991
86.8242035 -71.221199 7.85370016
86.8688507 -71.291153 16.2678986
86.9122009 -71.0258026 16.3423996
86.8654633 -71.0867996 16.4910336
86.9108505 -70.8551025 5.30404997
86.9431992 -70.9493027 7.5152998
86.9842987 -70.6843033 7.19180012
86.8145981 -70.7689972 10.4832001
86.8303986 -70.7276001 10.8340998
86.9759979 -70.721199 12.8573999
86.8944016 -70.731102 13.0242996
87.0870972 -71.8171005 14.3996
87.0102005 -71.7078018 15.4935999
87.1753006 -71.6097031 16.2709999
87.0147018 -71.5716019 15.4389
87.0443497 -71.5084 16.3439999
87.0089035 -71.5618973 16.5153999
87.1793976 -71.4393997 16.6702003
87.0039978 -71.3393021 16.3953991
87.0319977 -71.3528976 16.5037003
87.0212021 -70.8102036 9.74660015
87.0955963 -70.7835999 4.6624999
87.0214005 -70.6797028 7.13800001
87.0634003 -70.7269974 9.63809967
87.0513992 -70.7567978 10.4048004
87.1535034 -70.7405014 12.3059998
87.0926971 -70.6016006 12.9146004
87.0354004 -70.5596008 8.18350029
87.3796997 -71.6134033 15.7700005
87.2389984 -71.6100998 16.1119995
87.3778992 -71.5177002 15.8100996
87.3988037 -71.5572968 16.1310997
87.2001038 -71.3757019 16.3096008
87.376297 -71.2236023 16.4403992
87.2045975 -70.9785004 16.5365009
87.3562012 -70.5382996 12.8183002
87.2797012 -70.5670013 13.4900999
87.5372009 -71.6335983 14.9720001
87.5746002 -71.6060028 15.2147999
87.5026016 -71.4941025 14.7418003
87.5031509 -71.5381012 15.4765997
87.4537964 -71.4300003 15.6033001
87.4617004 -71.5332031 15.9391003
87.4935989 -71.5158997 16.0652008
87.4419022 -71.3901978 16.4508991
87.5667038 -71.1576004 16.3973999
87.4970627 -71.1422577 16.5016994
87.4856033 -70.8649979 10.7532997
87.5987015 -70.9617004 16.4356003
87.7687988 -71.6253967 16.0202999
87.6998978 -71.4740982 15.8885498
87.7042999 -71.4813538 16.3250504
87.6869507 -71.2588959 16.3197002
87.6508026 -71.3608017 16.4633007
87.7488022 -70.8210983 8.0237999
87.7063446 -70.6955566 5.4835
87.6491013 -70.7185974 13.4785995
87.8606033 -71.1146011 16.1825008
87.9685974 -71.1390991 16.4916
87.9560013 -70.8964996 10.1785002
87.9758987 -70.9045029 16.4862995
87.9272995 -70.6810989 13.2823
88.1251984 -72.0549011 15.7637997
88.1921997 -71.4991989 14.8421001
88.0146027 -71.4803009 16.1968002
88.0400009 -71.4793015 16.2535992
88.039299 -71.2422028 16.4302006
88.1166 -71.0287018 16.5312996
88.0388489 -70.8977051 7.49880028
88.1344986 -70.8091965 8.56820011
88.0262985 -70.6889038 7.78450012
88.0976028 -70.7229004 9.92704964
88.0516968 -70.6316986 10.4502001
88.0234985 -70.6950989 12.8011999
88.1380997 -70.5391006 10.2137003
88.0302963 -70.5848999 12.6991997
88.1993027 -70.4536972 13.3631001
88.2776031 -71.5019989 16.4580002
88.3563004 -71.3158035 16.5652008
88.2265015 -70.6716995 10.8715
88.2529984 -70.763298 13.2974997
88.4828033 -71.6109009 16.1420994
88.555397 -71.0858002 16.3316994
88.4662018 -70.8770981 5.22650003
88.5667038 -70.8716965 7.52869987
88.4079971 -70.7444 4.66909981
88.5957031 -70.7534027 7.16060019
88.5700989 -70.6221008 13.2791004
88.5830002 -70.4178009 6.3599
88.5807037 -70.3072968 6.64610004
88.5382996 -70.2401962 9.47879982
88.6838989 -71.8527985 15.908
88.7298965 -71.6597977 15.9358997
88.637001 -71.4627991 16.1991005
88.7770004 -71.3546982 16.3490009
88.7154541 -71.0940018 16.5410004
88.6427994 -70.884697 10.5481005
88.7128983 -70.8206024 12.5276003
88.7754974 -70.7692032 7.78609991
88.6018982 -70.793602 7.91130018
88.7301025 -70.6593018 10.2460003
88.669899 -70.6351013 10.8659
88.7274017 -70.6259995 12.9568996
88.6958008 -70.6244965 13.4639997
88.7562027 -70.5997009 10.4520998
88.7435989 -70.3370972 8.76710033
88.633255 -70.0390472 6.63879967
88.7805023 -70.0835037 8.93900013
88.7829971 -70.0643997 9.06779957
88.8354034 -71.8557968 15.8232002
88.8939972 -71.7101974 16.0319996
88.8485031 -71.5927963 14.5268002
88.9972992 -71.4215012 16.4253006
88.9667969 -71.3199005 16.5217991
88.9029007 -71.0486526 16.459549
88.9236984 -70.9718018 16.3530006
88.8181 -70.6284027 7.69680023
88.914299 -70.6268005 8.37209988
88.8871002 -70.7173004 9.7361002
88.8995972 -70.7083435 13.0851002
88.9906998 -70.4112015 8.8696003
88.9935989 -70.365097 8.54520035
88.8609009 -70.2696991 8.62880039
88.9035034 -70.0847015 8.84090042
89.0118027 -71.5810013 16.2278996
89.0065002 -71.257103 16.2259998
89.0731964 -71.1207962 16.1809006
89.0812988 -71.1204987 16.2047005
89.0278015 -71.0427017 16.7721004
89.1007996 -70.6367035 13.5847998
89.089798 -70.3956985 8.49820042
89.134903 -70.1464005 8.48460007
89.1676941 -70.021347 8.84844971
89.2768021 -71.8360977 15.2215004
89.3423996 -71.6988983 16.0667992
89.2351532 -71.47995 16.1154003
89.3444977 -71.2348022 16.3342991
89.3246994 -71.2414017 16.4421005
89.3880997 -71.0557022 16.3910007
89.2733002 -71.0511017 16.4351006
89.2891006 -69.930603 8.82089996
89.5001984 -71.8915024 16.0359001
89.5518036 -71.7968979 15.3327999
89.5066986 -71.6372986 16.0660992
89.4862976 -71.5173035 16.0837002
89.4352036 -71.3918991 16.1403999
89.4213028 -71.3858032 16.3544006
89.4298019 -71.0959015 16.3689995
89.5031967 -71.0301971 16.5834007
89.4321976 -70.6285019 10.8353004
89.4779968 -70.6738968 13.1262999
89.5282974 -70.6174011 13.2594004
89.446701 -70.4792023 8.72360039
89.4778976 -70.5794983 10.9525995
89.5367966 -70.3310013 8.58339977
89.5679016 -70.3928986 11.118
89.4716034 -70.3535004 11.3695002
89.4063034 -70.0130005 8.69079971
89.5753021 -70.1996002 11.1695004
89.4595032 -69.9975967 11.6716003
89.7313004 -71.5039978 15.5474005
89.774498 -71.5064011 15.6241999
89.6412506 -71.4928436 16.1413002
89.7365036 -71.5587997 16.2175007
89.7817001 -71.3317032 16.3523006
89.6056976 -71.2958984 16.4762001
89.6745987 -71.0699005 16.2968998
89.6140976 -70.7442017 7.68489981
89.6873016 -70.2201996 11.1890001
89.6417007 -69.8263016 11.3936996
89.836998 -71.6690979 15.8888998
89.9847031 -71.592598 14.448
89.917099 -71.4961014 14.7257004
89.873703 -71.5289001 14.9561996
89.8219986 -71.591301 15.0717001
89.8853989 -71.4701004 15.3936005
89.9381027 -71.5394974 16.1739998
89.8264999 -71.3395996 16.0858002
89.8040009 -71.2362976 16.3868999
89.9813538 -71.0381012 16.5047493
89.9906998 -70.9918976 16.3052006
89.9707031 -70.9076996 16.5869007
89.8973999 -70.7594986 8.25269985
90.1672974 -72.5889969 16.3652
90.0512009 -71.5467987 15.1801996
90.1429977 -71.5105972 15.6414003
90.0531464 -71.4788055 15.9664497
90.0145035 -71.4822998 16.0930996
90.0573502 -71.2425995 14.7490005
90.1901016 -71.2384033 16.1501007
90.1835022 -71.3948975 16.3029995
90.1874008 -71.1660004 16.4044991
90.1688004 -70.9817963 4.86749983
90.1671448 -70.8964996 7.09824991
90.1759033 -70.8328018 7.65320015
90.1920013 -70.8735504 10.5160503
90.1419983 -70.8470993 15.0818996
90.1741486 -70.6846008 5.50465012
90.1190491 -70.7126465 5.97930002
90.1288986 -70.6928024 7.09719992
90.1768036 -70.6074982 7.28070021
90.1768036 -70.6016998 10.1323004
90.1743011 -70.7416992 10.6493998
90.091301 -70.456398 5.94399977
90.0428009 -70.4145966 8.40550041
90.0627975 -70.4925003 10.4991999
90.1940002 -70.2903976 12.5930004
90.2542038 -73.2873001 15.7269001
90.211998 -71.4763031 15.4347
90.2582016 -71.4698029 15.9659004
90.2972031 -71.2468033 10.2820997
90.3946991 -71.1509018 16.2903004
90.2293015 -70.6604996 8.24100018
90.2136993 -70.6950989 10.0634003
90.3467026 -70.5261002 9.20409966
90.3309479 -70.4781494 9.74399948
90.3555984 -70.5374985 10.3570995
90.2639008 -70.4565964 11.0328999
90.3394012 -70.4133987 11.2016001
90.3731003 -70.4220963 12.4924002
90.2584991 -70.4259033 12.6334
90.2519989 -70.396698 5.88250017
90.2433014 -70.3936996 7.96290016
90.3135986 -70.3516998 10.4700003
90.2729034 -70.2108994 11.0576
90.3945007 -70.3236008 13.0803003
90.5055008 -71.5579987 15.3079004
90.5109024 -71.5344009 15.7403002
90.4343033 -71.0245972 14.7531004
90.6146011 -71.4999008 14.3576002
90.6925507 -70.1401978 11.3255997
90.662796 -70.1101532 11.5081997
90.6322021 -69.9726028 11.5289001
90.9840012 -71.4877014 16.0725002
90.8563004 -71.0843964 16.1324997
90.9329987 -69.9487991 11.5707998
91.1373978 -71.4964981 16.0070992
91.1585007 -71.3607025 16.0718994
91.0402985 -71.0233994 16.8651009
91.1603012 -70.6679993 7.50820017
91.1717987 -70.2636032 11.2256002
91.2242966 -71.5348969 14.5923996
91.245903 -70.9199982 7.8888998
91.2628021 -70.7736969 7.45060015
91.3619003 -70.6847992 7.64989996
91.2413025 -70.7151031 9.98270035
91.3915024 -70.7268982 10.0685997
91.2951965 -70.3871002 10.9547005
91.5632019 -71.3183975 16.2534008
91.5957031 -71.1712036 16.2033005
91.6481018 -71.6270981 15.7665005
91.6043015 -71.5034027 16.0599003
91.75 -71.1027527 16.2392006
91.689003 -71.1088028 16.4638004
91.8038025 -71.7496033 16.3323002
91.9960022 -71.2127991 16.2875996
91.9719009 -70.6576996 7.15770006
91.9801025 -70.5982971 8.08990002
92.1203995 -70.4860001 6.58650017
92.350502 -71.1163025 16.2085991
92.5710983 -71.1919022 16.3010998
92.4848022 -71.1752014 16.4074001
92.5220032 -70.9570999 16.4349003
92.518898 -70.5289001 8.87139988
92.552597 -70.3475037 8.88729954
92.5893021 -70.1744003 8.63650036
92.5522995 -70.1308975 8.84350014
92.5383987 -70.1526031 9.13459969
92.6489029 -70.6488037 7.46479988
92.6179962 -70.6047974 10.0549002
92.6796036 -70.4717026 8.73390007
92.7333984 -70.4455032 10.8340998
92.7809982 -70.3464966 8.51690006
92.6024017 -70.2985992 8.96710014
92.6548004 -70.0370026 8.50500011
92.6436005 -70.027298 8.84599972
92.7165985 -69.8419037 8.78450012
92.6446991 -69.899498 8.81849957
92.8386993 -71.2333984 16.2091999
92.9138031 -70.0080032 8.52939987
92.9027023 -69.9085007 8.65120029
93.0294037 -71.7057037 15.6652002
93.1035004 -70.9992981 16.4409008
93.259903 -71.4188995 14.8104
93.2170029 -70.466301 8.28310013
93.3200989 -70.4160004 8.64939976
93.3429031 -70.1371994 8.39780045
93.5725021 -71.596199 14.8427
93.5976028 -71.3079987 15.7133999
93.4469986 -71.3631973 15.8582001
93.5119019 -71.1781006 10.2751999
93.5430984 -71.1978989 10.4424
93.5441971 -71.0661011 16.1425991
93.4355011 -71.1651001 16.4384995
93.5057983 -70.9369965 7.86959982
93.5493011 -70.839798 16.3185005
93.5328979 -70.6241989 5.47459984
93.4017029 -70.6673965 5.94850016
93.427803 -70.7894974 7.99720001
93.523201 -70.6066971 8.08870029
93.4151001 -70.6595993 10.9158001
93.4060974 -70.4831009 6.13859987
93.4974976 -70.4410019 7.30109978
93.4132996 -70.4363022 7.4861002
93.5804977 -70.5038452 9.46949959
93.5334015 -70.4924011 10.3199997
93.5929031 -70.5109024 13.3761997
93.5894012 -70.4135971 13.6611004
93.5570984 -70.3218994 7.62190008
93.5185547 -70.3498993 9.86730003
93.5672989 -70.3012009 10.2180996
93.5752029 -70.3457031 10.4927998
93.5807037 -70.2444 10.6943998
93.5896988 -70.2797012 11.1553001
93.4881973 -70.2152023 13.3720999
93.5896988 -70.191597 9.76270008
93.5606003 -70.1895981 12.1443005
93.5404968 -70.1604004 12.3914003
93.7546997 -71.3580017 15.7432003
93.7096024 -71.2265015 15.8834
93.6458969 -71.0453033 10.3010998
93.7077026 -71.114502 14.0066004
93.6753998 -70.9646988 16.3174992
93.611702 -70.5641022 13.1913004
93.7537003 -70.3570023 6.28929996
93.6244965 -70.3579025 7.60129976
93.6083984 -70.1828003 8.32330036
93.7393036 -70.1751022 9.69929981
93.7748032 -70.1260986 12.4748001
94.012001 -71.2342987 15.9731998
94.1940002 -70.2192993 11.3392
94.0751038 -70.1332016 6.09490013
94.1014023 -69.9664993 11.6267996
94.3197021 -71.5313034 15.7334003
94.2423019 -71.5234985 15.8596001
94.2173996 -71.1649017 14.1429005
94.3677979 -70.7154007 9.71459961
94.2606964 -70.0944977 11.1231003
94.2902985 -70.0354004 11.2143002
94.5679016 -71.5213013 16.1604996
94.4950027 -71.1809006 14.0766001
94.4225006 -71.0342026 14.3113003
94.4421005 -70.6281967 7.94439983
94.4248962 -70.5157013 9.57359982
94.5427017 -70.2440033 8.40970039
94.4031982 -70.0118027 8.87930012
94.5243988 -69.8879013 11.5038004
94.7631989 -71.7230988 15.6782999
94.6984024 -71.3022003 16.2150993
94.7665024 -71.1428986 16.1588001
94.6863022 -70.3506012 5.98850012
94.7698975 -69.7940979 11.4181004
95.0131989 -70.4757996 12.4146004
95.3264999 -71.2743988 16.0279007
95.2412033 -71.3358002 16.4123001
95.4748993 -71.0631027 16.4160004
95.7507019 -71.7453003 15.5651999
95.8097992 -71.5038986 15.3712997
95.884903 -70.3583984 13.3481998
96.1207962 -71.5723038 14.4526997
96.1737976 -71.1024017 16.4389992
96.0231018 -70.9320984 16.4146996
96.3675537 -71.3023529 16.21245
96.5477982 -71.5077972 15.8402996
96.757103 -70.7217026 6.68580008
96.7141037 -70.6337967 7.61129999
96.6544037 -70.6780014 13.5818005
96.7746964 -70.3479004 12.8956003
96.9335022 -70.6065979 12.5009003
96.819603 -70.4026031 12.2357998
97.0616989 -71.167099 16.1900005
97.5315018 -71.0171967 16.1504993
97.4302979 -70.6893997 9.49919987
97.6158981 -71.0817032 15.8992004
97.6160965 -70.7651978 16.4747009
97.9598999 -71.7153015 15.6007004
97.9593964 -71.3899002 16.0272999
97.8912964 -70.635498 7.34779978
97.844902 -70.4642029 6.9835
98.6305008 -71.8707962 15.2349005
98.7436523 -71.2874451 16.1203995
99.1113968 -71.8108978 15.1817999
99.2151031 -71.2679977 15.6943998
99.5009995 -71.4007034 15.6132002
99.8256989 -70.5838013 9.68480015
