# .PCD v0.7 - Point Cloud Data file format
VERSION 0.7
FIELDS x y z
SIZE 4 4 4
TYPE F F F
COUNT 1 1 1
WIDTH 794
HEIGHT 1
VIEWPOINT 0 0 0 1 0 0 0
POINTS 794
DATA ascii
160.266098 -221.520706 1.7967
160.4077 -221.707199 2.09960008
160.634903 -221.606094 1.59360003
160.895493 -221.621399 0.877600014
161.124802 -221.558395 0.805599988
161.100403 -221.574005 1.20360005
161.072403 -221.578094 2.26250005
161.274902 -221.482605 1.88629997
161.229401 -221.552597 2.34680009
161.800797 -221.600098 1.15929997
161.805206 -221.451797 1.5668
161.917999 -221.489395 1.98339999
162.253204 -221.311996 1.55250001
162.290802 -221.346207 2.30839992
162.338501 -221.290604 3.17079997
162.420303 -221.539597 0.616599977
162.626907 -221.441605 2.37700009
162.659103 -221.231003 3.22280002
162.91449 -221.357651 0.863749981
162.884399 -221.334106 1.90610003
163.061005 -221.3927 1.28460002
163.177505 -221.335007 1.76119995
163.195908 -221.342194 2.5460999
163.045685 -221.355255 2.77749991
163.384995 -221.246994 1.21879995
163.247101 -221.323502 1.66509998
163.394302 -221.263 1.89209998
163.274597 -221.328094 2.1967001
163.368607 -221.296295 2.38059998
163.237106 -221.374496 2.70630002
163.460205 -221.287003 0.597199976
163.468201 -221.230301 1.32290006
163.497192 -221.295807 2.12680006
163.609207 -221.268097 1.47669995
163.641296 -221.218597 1.90110004
163.723602 -221.28006 2.10914993
163.746094 -221.233398 2.33590007
163.658997 -221.141403 1.33399999
163.686707 -221.186295 3.15890002
163.983902 -221.400406 0.694700003
163.877808 -221.374207 0.597599983
163.906097 -221.150208 2.71460009
164.064606 -232.813202 4.51280022
164.115494 -221.266296 1.04779994
164.065399 -221.046707 2.62859988
164.171097 -221.060394 3.01379991
164.038101 -220.970795 2.82599998
164.356705 -233.7621 5.54850006
164.367294 -221.192703 1.32729995
164.240494 -221.165207 2.50149989
164.319504 -221.086899 2.72204995
164.248505 -220.962708 0.421700001
164.524399 -221.202393 2.14700007
164.459503 -221.179306 2.39330006
164.4142 -221.193497 2.53209996
164.532394 -221.053497 2.71280003
164.444305 -221.175797 3.04959989
164.645493 -232.3965 5.68590021
164.622299 -221.158997 0.902899981
164.606293 -221.196304 2.13700008
164.749451 -221.141693 2.4907999
164.916107 -232.612701 6.21350002
164.903198 -232.346893 5.70079994
164.886703 -221.103394 1.2536
164.884399 -221.155151 1.64160001
164.868195 -221.173904 2.46510005
164.807907 -221.053299 3.15980005
165.145706 -221.126205 1.17770004
165.121307 -221.060699 1.29900002
165.135498 -221.095306 1.57389998
165.146194 -221.057602 1.9066
165.072205 -221.086395 2.30739999
165.212006 -232.871994 6.56640005
165.365005 -221.117493 0.672100008
165.262299 -221.07785 0.944700003
165.219894 -221.128693 1.16059995
165.392593 -221.106705 1.39909995
165.229706 -221.096802 1.98500001
165.346695 -221.105103 2.05599999
165.248398 -221.090805 2.23149991
165.514297 -221.138107 0.862699986
165.562653 -221.049545 2.34315014
165.526703 -221.037292 2.72009993
165.533798 -221.069901 2.83410001
165.5746 -221.090897 3.07189989
165.741302 -231.912704 6.26919985
165.655197 -231.783707 5.16620016
165.618103 -231.683701 5.4236002
165.7164 -231.568405 5.58659983
165.612198 -221.008301 1.69949996
165.644394 -221.007904 2.33229995
165.732605 -221.068802 2.85229993
165.653442 -220.877655 3.28275013
165.8694 -231.875702 6.32329988
165.819199 -221.024796 2.11269999
165.937393 -221.031738 2.51025009
165.836899 -220.999405 1.57579994
165.983505 -220.948898 3.1099
165.9151 -220.899704 3.26189995
166.166107 -232.028198 6.43419981
166.150696 -231.874802 5.48140001
166.073105 -231.888199 5.74910021
166.179901 -231.910797 6.09369993
166.102707 -231.544006 5.18849993
166.123795 -221.003403 2.51690006
166.100861 -221.011902 2.65460014
166.187103 -220.918793 2.3289001
166.131607 -220.908096 2.77180004
166.070801 -220.989304 2.87280011
166.340805 -232.451004 5.5177002
166.261703 -231.7892 5.6026001
166.215195 -221.0728 2.78530002
166.283798 -220.975204 0.426099986
166.213699 -220.966995 1.48660004
166.350403 -220.986099 1.7256
166.235703 -220.987793 1.99170005
166.347748 -220.9832 2.09644985
166.491699 -231.821106 6.18540001
166.548294 -231.796997 5.29519987
166.450394 -231.626907 5.45749998
166.425705 -221.030899 0.529699981
166.436005 -220.975403 0.851899981
166.427994 -220.883102 1.0029
166.425003 -220.9599 1.6645
166.417801 -220.987305 1.87010002
166.505493 -220.905197 2.26999998
166.593109 -220.89151 2.48764992
166.485596 -220.827805 3.37479997
166.657303 -232.290894 5.89665031
166.698502 -220.951294 1.12730002
166.765747 -220.946152 1.4368
166.656998 -220.973297 1.98140001
166.658997 -220.870193 2.64310002
166.646896 -220.857498 2.98250008
166.773605 -220.878494 3.31690001
166.965805 -220.942902 0.664300025
166.827896 -220.931503 1.08519995
166.893906 -220.879303 1.72140002
166.935593 -220.917099 2.71930003
167.034698 -220.915207 0.825299978
167.156906 -220.918198 1.35409999
167.125397 -220.8349 1.70940006
167.033493 -220.852097 2.77970004
167.083206 -220.847504 2.86279988
167.037506 -220.833603 3.19519997
167.081696 -220.799606 2.73460007
167.321106 -220.803406 0.505200028
167.399796 -220.859497 1.16610003
167.271545 -220.861755 1.50084996
167.307602 -220.843002 1.85179996
167.261002 -220.861298 2.1796999
167.355606 -220.874496 2.51419997
167.236801 -220.752197 0.789300025
167.395599 -220.789093 2.50099993
167.322601 -220.786697 2.71650004
167.423798 -220.857193 0.976300001
167.456604 -220.831207 1.26740003
167.408203 -220.858307 1.93379998
167.481995 -220.845306 2.11570001
167.414093 -220.855194 3.06220007
167.583603 -220.790894 1.11969995
167.595596 -220.793198 2.21329999
167.559494 -220.783905 2.7888
167.689651 -230.352142 6.08419991
167.657501 -220.841705 0.540600002
167.681702 -220.813095 0.744000018
167.679352 -220.819794 1.50244999
167.618698 -220.853897 2.2098
167.698303 -220.805405 2.87829995
167.757004 -220.726105 0.551500022
167.6017 -220.780807 2.35150003
167.717255 -220.777252 2.52314997
167.682297 -220.715103 2.72600007
167.936905 -229.986603 5.9066
167.925903 -220.815598 1.09829998
167.884796 -220.818359 1.30065
167.846802 -220.773102 0.500699997
167.956696 -220.775803 1.00109994
167.845596 -220.777802 1.77240002
167.948502 -220.755798 2.23020005
167.912369 -220.716171 2.58746672
167.968704 -220.765594 3.16100001
167.956497 -220.661606 3.4289
168.124405 -230.061295 6.10820007
168.063004 -230.117401 6.3204999
168.114105 -229.712006 5.5092001
168.060104 -229.694 5.71159983
168.194504 -229.748199 5.98869991
168.1828 -229.019897 4.79449987
168.113098 -228.918335 5.12060022
168.164398 -220.806305 0.685400009
168.063995 -220.818405 1.59200001
168.179504 -220.7892 0.954999983
168.080399 -220.779602 1.3865
168.103058 -220.734344 2.47695017
168.150696 -220.740005 2.88459992
168.178406 -220.763794 3.44970012
168.1353 -220.589493 3.14330006
168.309204 -230.319199 6.14769983
168.218704 -230.003601 5.76109982
168.393997 -229.742096 5.61709976
168.337601 -220.779099 0.756399989
168.355606 -220.764694 1.43060005
168.289398 -220.746506 1.66849995
168.386002 -220.733398 1.88800001
168.339294 -220.707062 2.49313331
168.243347 -220.727844 2.72364998
168.2957 -220.719498 2.92919993
168.242294 -220.645401 3.52679992
168.585693 -230.282806 5.84380007
168.555695 -230.273697 6.21199989
168.572098 -229.017807 5.32340002
168.4254 -228.957993 5.06629992
168.415604 -228.860397 5.5145998
168.524994 -220.821396 0.957199991
168.527496 -220.621307 0.592999995
168.524704 -220.799606 0.867799997
168.540604 -220.717407 1.16499996
168.472794 -220.727097 1.48070002
168.482758 -220.699554 2.13945007
168.474792 -220.760605 2.30769992
168.550903 -220.672104 2.43510008
168.573593 -220.690201 2.87100005
168.514603 -220.618607 3.36319995
168.507004 -220.609894 3.4295001
168.786499 -230.665207 6.3448
168.771805 -230.463303 6.15869999
168.717896 -230.525696 6.27159977
168.786301 -230.293396 5.90129995
168.694107 -230.076401 6.54879999
168.692307 -220.732101 0.684899986
168.755096 -220.696396 0.9375
168.712097 -220.693695 1.37129998
168.616302 -220.653198 1.43920004
168.612198 -220.696198 1.94710004
168.650208 -220.685806 2.02990007
168.680801 -220.630295 2.42790008
168.683807 -220.679092 2.7960999
168.612106 -220.586304 2.62089992
168.856705 -230.277802 5.95340014
168.811401 -230.217606 6.17259979
168.894714 -229.140289 5.14279985
168.858002 -229.051895 5.2111001
168.903595 -220.6931 0.7403
168.839294 -220.7388 0.896300018
168.886902 -220.66626 1.05095005
168.908401 -220.6595 1.2651
168.912003 -220.684906 1.59099996
168.861603 -220.67099 1.69779992
168.870605 -220.615906 2.24550009
168.925598 -220.668198 2.98799992
168.920807 -220.586426 2.08940005
168.956894 -220.592194 2.55900002
168.850006 -220.539597 2.68210006
168.931595 -220.531403 3.32205009
169.128906 -230.405106 6.17600012
169.147202 -230.432205 6.36969995
169.120804 -230.492905 6.43240023
169.033752 -230.275299 5.7656002
169.090393 -230.351105 5.94869995
169.160202 -229.764801 4.69710016
169.198807 -229.355301 5.41279984
169.095901 -220.644501 1.72590005
169.130905 -220.628403 2.96930003
169.143494 -220.578094 2.19770002
169.078094 -220.585052 2.28714991
169.188599 -220.5979 2.5546
169.196899 -220.5186 2.94840002
169.056259 -220.566605 3.12596655
169.042999 -220.545303 3.27530003
169.198395 -220.389603 2.96320009
169.278 -230.234894 5.90019989
169.325806 -230.290604 6.33890009
169.237503 -230.171402 5.19689989
169.323303 -230.122192 5.74240017
169.295395 -229.834793 4.67409992
169.308838 -229.941803 4.93155003
169.301804 -229.989105 5.73619986
169.220398 -229.748795 4.83960009
169.374496 -229.498505 4.96710014
169.268906 -229.431793 5.10090017
169.29805 -220.650543 0.695850015
169.295898 -220.662292 1.04419994
169.397293 -220.601807 1.74510002
169.258804 -220.5793 1.75590003
169.308105 -220.555695 2.13470006
169.332596 -220.582794 2.55890012
169.259003 -220.564301 3.27959991
169.562393 -230.441605 6.7736001
169.555542 -230.301697 6.09959984
169.476303 -230.321701 6.20569992
169.556 -230.076706 5.0788002
169.4198 -230.146103 6.38210011
169.524796 -220.656097 1.10319996
169.423706 -220.663101 1.33130002
169.507599 -220.621597 1.75989997
169.477005 -220.650101 1.88049996
169.458893 -220.618393 3.19659996
169.519699 -220.576797 1.24779999
169.472702 -220.547043 2.30214977
169.593201 -220.469696 2.5086
169.524139 -220.531754 2.88479996
169.535995 -220.509293 3.16890001
169.516403 -220.458099 3.38800001
169.493896 -220.3927 2.86450005
169.706802 -230.521301 5.50449991
169.725098 -230.4086 5.69259977
169.734192 -230.476044 5.91555023
169.756256 -230.593292 6.72679996
169.630005 -230.348801 5.62729979
169.782593 -230.229507 5.95039988
169.702301 -230.142303 5.8118
169.771896 -229.595993 4.92089987
169.676605 -220.610001 0.569700003
169.627396 -220.619797 0.809700012
169.728302 -220.469696 0.518999994
169.6875 -220.598907 1.23539996
169.708801 -220.546707 1.79639995
169.747498 -220.507996 2.13739991
169.68335 -220.546967 2.30187511
169.661194 -220.51236 2.52095008
169.729706 -220.515808 2.70595002
169.694199 -220.433105 2.97609997
169.717545 -220.514694 3.09632492
169.664597 -220.476593 3.37730002
169.931396 -231.494202 6.0388999
169.931793 -231.306137 6.07683325
169.810593 -230.809494 6.02810001
169.937302 -230.725098 6.40280008
169.955704 -230.594193 6.2585001
169.846603 -230.253601 6.04390001
169.809799 -230.121902 5.25220013
169.9207 -230.160995 6.25909996
169.802795 -220.602997 1.01040006
169.880798 -220.621994 1.32379997
169.951294 -220.584351 0.700749993
169.859406 -220.5746 1.17149997
169.934113 -220.542755 1.53610003
169.966095 -220.537796 1.95829999
169.990204 -220.4505 2.12065005
169.961304 -220.488495 2.31209993
169.936569 -220.460205 2.47886658
169.855698 -220.527405 2.78579998
169.861694 -220.426498 2.89770007
169.892395 -220.490402 3.10430002
169.875504 -220.493896 3.89479995
170.096497 -231.215302 6.37080002
170.166199 -230.972198 6.79430008
170.053101 -230.601395 6.62060022
170.053696 -230.656097 6.84310007
170.135696 -230.596298 7.17869997
170.034698 -220.549103 0.585200012
170.082504 -220.527603 0.978399992
170.138031 -220.526703 1.1329
170.048492 -220.512497 1.58560002
170.152603 -220.483505 1.86090004
170.001602 -220.453796 2.18199992
170.097504 -220.47406 2.33305001
170.102295 -220.499298 2.45600009
170.114532 -220.473892 2.66583323
170.040192 -220.454346 2.8503499
170.097504 -220.471893 3.01060009
170.285904 -232.414001 6.24039984
170.266205 -230.826599 6.31050014
170.2603 -230.867004 6.85059977
170.218597 -230.765594 6.55700016
170.202301 -229.829895 4.81780005
170.324203 -220.496902 0.604900002
170.214798 -220.539398 0.808799982
170.349396 -220.434692 2.12940001
170.283798 -220.462601 2.329
170.293304 -220.450409 2.46379995
170.328598 -220.487305 2.75699997
170.35675 -220.449753 2.89564991
170.296005 -220.385803 2.37529993
170.356293 -220.388107 2.65089989
170.388199 -220.376602 3.43989992
170.560501 -220.4841 0.566699982
170.445908 -220.453598 1.34449995
170.449799 -220.416901 2.0165
170.499893 -220.403595 2.4210999
170.417007 -220.492401 2.7256
170.432693 -220.458603 3.23370004
170.546204 -220.394196 2.05089998
170.495804 -220.393799 2.2493
170.763397 -220.481796 0.795300007
170.625198 -220.4133 1.94579995
170.65892 -220.432007 2.55082512
170.749802 -220.418396 2.92659998
170.634094 -220.414597 3.12089992
170.794006 -220.386703 1.82260001
170.729645 -220.358505 2.08214998
170.704803 -220.355301 2.45184994
170.627502 -220.247101 2.91479993
170.668594 -220.320404 3.01859999
170.761398 -220.307693 3.22099996
170.924805 -228.587296 5.22200012
170.849594 -228.534195 5.4217
170.837708 -220.404999 2.08694983
170.9104 -220.357086 2.023
170.912033 -220.358627 2.29566669
170.896912 -220.370911 2.4971199
170.998596 -220.359802 2.82450008
170.971207 -220.288101 3.58820009
171.145599 -228.770096 4.85500002
171.089005 -228.602997 5.0303998
171.141006 -228.518494 5.13195038
171.103394 -228.436096 5.73509979
171.102203 -220.454803 2.88000011
171.179504 -220.392197 0.823000014
171.194305 -220.380905 1.29579997
171.025101 -220.373199 1.551
171.082794 -220.3927 1.66470003
171.151306 -220.299103 2.07189989
171.108597 -220.3423 2.22280002
171.06633 -220.333633 2.50079989
171.124969 -220.325455 2.69245005
171.123505 -220.328354 3.1342001
171.003601 -220.310501 3.2407999
171.0121 -220.389008 3.55349994
171.384506 -228.652695 5.51450014
171.235397 -228.4879 5.30709982
171.351395 -228.406097 5.40380001
171.276505 -228.448303 5.67500019
171.363693 -228.348297 5.30380011
171.299698 -220.319305 1.39540005
171.312286 -220.325592 1.95550001
171.247559 -220.323456 2.11789989
171.296097 -220.302704 2.20799994
171.254425 -220.315277 2.49434996
171.332993 -220.250595 2.60809994
171.277832 -220.352798 2.87260008
171.269562 -220.337646 3.13310003
171.322601 -220.260803 3.26069999
171.408203 -228.902802 5.89020014
171.587708 -228.933197 6.14279985
171.407501 -228.653595 4.80060005
171.474197 -228.7117 6.15360022
171.571304 -228.425903 4.79169989
171.401505 -228.500397 5.20109987
171.589493 -228.575897 5.67460012
171.476501 -228.3069 5.08440018
171.415802 -220.377197 0.635100007
171.429794 -220.309494 1.59290004
171.487305 -220.303894 1.648
171.470596 -220.302505 2.16400003
171.468292 -220.298248 2.36619997
171.568405 -220.269104 2.43799996
171.47818 -220.283875 2.67617512
171.537003 -220.254059 2.84964991
171.48761 -220.345551 3.19264984
171.592804 -220.233307 3.37010002
171.544495 -220.186203 2.76110005
171.682007 -228.6875 5.43839979
171.708405 -228.644608 6.09980011
171.765396 -228.454803 5.02869987
171.602203 -228.403397 5.23330021
171.733002 -228.415894 5.53609991
171.703705 -228.485794 5.79230022
171.626099 -228.376801 4.90259981
171.713806 -228.380905 5.10509968
171.701294 -220.290802 0.582899988
171.741898 -220.305893 1.41260004
171.6819 -220.288208 1.91549993
171.707397 -220.259247 2.07454991
171.668488 -220.261993 2.32054996
171.742645 -220.213257 2.56404996
171.727295 -220.261047 2.69829988
171.686798 -220.270142 2.898875
171.748291 -220.322357 3.11505008
171.790405 -220.174896 2.97300005
171.615295 -220.166901 3.3822
171.739807 -220.13765 3.43394995
171.942703 -229.117493 5.08599997
171.855896 -228.669693 4.90320015
171.843048 -228.553558 5.68534994
171.955795 -228.489899 5.86740017
171.813004 -228.398895 5.204
171.802399 -228.309097 5.42439985
171.943802 -228.378204 5.61980009
171.805801 -220.354095 0.684499979
171.85965 -220.320099 0.921599984
171.875504 -220.277405 1.0862
171.921799 -220.255707 1.46519995
171.893707 -220.253296 1.95659995
171.820572 -220.270432 2.13783336
171.830292 -220.250305 2.28929996
171.985199 -220.233795 2.89669991
171.881653 -220.133301 0.536599994
171.885498 -220.196106 2.22460008
171.865738 -220.173706 3.29676676
172.097137 -228.72229 4.73850012
172.08429 -228.414795 5.06750011
172.021103 -228.4384 5.70480013
172.118103 -228.435898 5.98159981
172.082306 -228.328491 5.12255001
172.158203 -228.363998 5.33690023
172.125 -228.266006 5.53879976
172.069305 -228.311707 5.68209982
172.160202 -228.258804 6.3295002
172.153198 -220.252899 0.627799988
172.146606 -220.237305 1.57239997
172.0056 -220.264404 1.61230004
172.060394 -220.241699 1.8168
172.083649 -220.223114 2.08104992
172.083847 -220.234558 2.28894997
172.044403 -220.247498 2.4612999
172.028595 -220.219543 2.62989998
172.127808 -220.248993 2.81830001
172.081512 -220.25824 3.25404978
172.058838 -220.163147 2.30315018
172.011597 -220.092804 2.47280002
172.042099 -220.067398 3.32850003
172.2948 -228.751007 4.41870022
172.220505 -228.742401 4.88170004
172.231705 -228.498505 4.8283
172.293152 -228.460388 5.7727499
172.328796 -228.412094 5.97380018
172.234497 -228.439194 6.00719976
172.297974 -228.370071 5.2585001
172.399796 -228.283798 6.36100006
172.280807 -220.203003 0.519400001
172.202805 -220.297501 0.663100004
172.266403 -220.281403 0.885299981
172.382095 -220.219604 1.16059995
172.313293 -220.215607 1.74890006
172.321732 -220.2146 2.24846673
172.300705 -220.217499 2.41560006
172.2966 -220.216095 2.95040011
172.234497 -220.220596 3.21700001
172.3405 -220.076996 0.574199975
172.381897 -220.195297 1.44099998
172.296295 -220.169693 2.14380002
172.345047 -220.129791 2.29734993
172.24234 -220.152145 2.7430501
172.255402 -220.158905 2.96300006
172.344696 -220.108002 3.04970002
172.267273 -220.146545 3.24574995
172.43161 -228.698914 4.90245008
172.582596 -228.501404 4.63170004
172.503799 -228.476898 4.93769979
172.491791 -228.548004 5.0864501
172.511093 -228.470306 5.32324982
172.466904 -228.418793 6.09229994
172.596695 -228.393097 5.3144002
172.526901 -228.299805 5.49919987
172.562897 -228.342346 5.74259996
172.560501 -228.290039 6.29979992
172.579193 -220.231796 0.800400019
172.561798 -220.2099 1.10189998
172.456802 -220.216858 1.44834995
172.438461 -220.21936 1.88866663
172.411606 -220.200607 2.23900008
172.485596 -220.201004 2.42729998
172.488403 -220.208206 2.72830009
172.446304 -220.207306 3.26909995
172.436096 -220.189407 1.59899998
172.490799 -220.174805 1.89639997
172.468048 -220.177856 2.13964987
172.473419 -220.149658 2.27512002
172.557587 -220.166107 2.45589995
172.478943 -220.193466 2.64650011
172.5867 -220.172501 2.83189988
172.563599 -220.065903 3.10109997
172.483307 -220.168396 3.23399997
172.588196 -220.149094 3.54590011
172.723297 -228.720001 5.51639986
172.729797 -228.451294 5.09520006
172.663055 -228.478485 5.25430012
172.667892 -228.374802 5.70489979
172.664307 -228.301056 5.8973999
172.706604 -228.230499 6.10480022
172.700195 -228.172394 6.30840015
172.672195 -220.205002 1.36010003
172.604599 -220.203003 1.41579998
172.621506 -220.287399 2.94729996
172.752945 -220.172348 1.35049999
172.709549 -220.180206 1.5086
172.746399 -220.1689 1.90799999
172.636795 -220.141693 2.10605001
172.794403 -220.169006 2.20040011
172.742538 -220.126907 2.71613336
172.763199 -220.102905 2.92406654
172.705002 -220.163651 3.14755011
172.667252 -220.038406 3.32054996
172.87619 -228.871857 5.34724998
172.949707 -228.933105 5.47070026
172.958603 -228.649506 5.57420015
172.921112 -228.478455 5.69140005
172.975998 -228.511597 5.85529995
172.954193 -228.3974 4.79610014
172.848907 -228.357605 4.88345003
172.991196 -228.339401 5.07959986
172.876907 -228.320007 5.70779991
172.934906 -220.213593 0.858500004
172.88237 -220.1763 0.684066653
172.907501 -220.1875 1.18245006
172.902802 -220.178696 1.26180005
172.906906 -220.172302 1.6652
172.900604 -220.153595 1.83440006
172.903839 -220.121506 2.09346676
172.907394 -220.080948 2.28282499
172.919968 -220.100891 2.49206662
172.905563 -220.119843 2.73426652
172.878723 -220.106506 2.90876007
172.920197 -220.156403 3.14969993
173.143295 -231.408096 5.57200003
173.001205 -228.438797 5.24109983
173.093002 -228.450394 6.11030006
173.012299 -220.158997 0.933899999
173.06366 -220.154907 1.05239999
173.106445 -220.136292 1.44405007
173.090698 -220.123199 1.92206669
173.150391 -220.078857 2.06559992
173.12619 -220.067047 2.35925007
173.117554 -220.076797 2.48600006
173.082535 -220.106064 2.69503331
173.132294 -220.078827 2.92519999
173.096893 -220.085541 3.16295004
173.156906 -220.086105 3.21930003
173.0121 -220.117798 3.40709996
173.225601 -229.178207 5.61539984
173.210007 -228.411407 5.45809984
173.269699 -220.165039 0.632449985
173.332901 -220.134201 0.91109997
173.347336 -220.120728 1.10333335
173.250275 -220.117752 1.479725
173.239502 -220.127197 1.71060002
173.276077 -220.093918 1.89820004
173.316864 -220.080093 2.10953331
173.32132 -220.051605 2.28367996
173.286301 -220.06015 2.53752494
173.275436 -220.091568 2.87823343
173.242096 -220.106705 3.10380006
173.309265 -220.040863 3.29206657
173.539597 -220.049194 0.573800027
173.563293 -220.112701 0.704300046
173.476807 -220.083801 1.11849999
173.435196 -220.104004 1.26189995
173.46759 -220.095612 1.44550002
173.545105 -220.034897 1.97220004
173.506577 -220.050919 2.06069994
173.591599 -220.034088 2.34609985
173.482605 -220.076797 2.72219992
173.509735 -220.053238 2.97329998
173.521194 -220.026398 3.07780004
173.728195 -228.703049 4.69865036
173.736206 -228.575394 5.11180019
173.718994 -220.091095 0.597899973
173.606506 -220.106796 0.689899981
173.719604 -220.123505 0.856150031
173.688431 -220.066299 1.1619333
173.700455 -220.074005 1.35719991
173.724792 -220.05426 1.45464993
173.675751 -220.054138 1.69389999
173.715225 -220.045441 1.91130006
173.762207 -220.011993 2.12789989
173.716049 -220.013245 2.55290008
173.694794 -220.033005 2.71670008
173.728165 -220.048035 2.9041667
173.722382 -220.038437 3.08071995
173.627106 -220.022003 3.3296001
173.881851 -220.069305 0.718100011
173.9758 -220.061996 1.14610004
173.849106 -220.062805 1.27059996
173.998199 -220.036499 1.58720005
173.841797 -220.027496 1.71369994
173.942398 -220.014099 1.89810002
173.856003 -220.006195 2.12010002
173.87767 -220.023605 2.27393341
173.848007 -220.013107 2.47460008
173.994904 -220.003799 2.60509992
173.924255 -220.035706 3.1408
174.080093 -220.056793 0.657299995
174.087402 -220.043198 0.840699971
174.048706 -220.025299 1.03760004
174.128815 -220.023254 1.23169994
174.155853 -220.011993 1.43869996
174.022995 -220.033203 1.77260005
174.089005 -220.038239 1.89864993
174.099396 -220.02179 2.08384991
174.015594 -220.009796 2.3434999
174.115494 -220.005493 2.58179998
174.005707 -220.045898 2.99620008
174.263306 -228.663513 5.59539986
174.326599 -228.597397 5.14069986
174.215897 -220.055496 0.573499978
174.307205 -220.001999 0.784600019
174.33194 -220.022202 0.846500039
174.312012 -220.015839 1.32194996
174.312805 -220.004898 1.54610002
174.277893 -220.007706 1.65369999
174.3703 -220.003998 2.96869993
174.467407 -228.613297 5.4066
174.542664 -228.051834 5.48776674
174.595306 -227.994003 5.54629993
174.546097 -227.988297 5.63829994
174.545105 -221.643707 4.62970018
174.447098 -220.007706 0.787500024
174.706604 -228.509857 5.13815022
174.6651 -228.432205 5.57119989
174.712006 -228.161606 5.35620022
174.671097 -228.076294 5.76219988
174.765396 -221.8479 4.40229988
174.781494 -221.725494 4.18319988
174.696594 -221.754593 4.54500008
174.747635 -221.652069 4.87669992
174.939301 -227.665802 4.97319984
174.933228 -227.489899 5.47373343
174.991699 -221.854095 4.06930017
174.890793 -221.798294 3.90210009
174.959702 -221.761398 4.1473999
174.946274 -221.756577 4.31550026
174.84845 -221.703857 4.50075006
174.877899 -221.725403 4.65304995
174.834793 -221.683502 4.8039999
174.867599 -221.640594 5.08830023
175.179092 -228.909103 5.12010002
175.195801 -228.643997 4.92490005
175.085693 -228.496399 5.11479998
175.017593 -228.408401 5.23859978
175.093307 -228.192596 5.23950005
175.091705 -227.838898 5.16260004
175.083603 -227.628204 5.39260006
175.120407 -227.584106 5.39449978
175.010895 -227.558304 5.44089985
175.121506 -227.467102 5.64400005
175.043304 -227.448303 5.8421998
175.057205 -221.851898 3.92155004
175.083344 -221.829071 4.0722332
175.124512 -221.828049 4.29380035
175.079498 -221.822693 4.4060998
175.015106 -221.668304 4.95690012
175.326141 -228.059509 5.23810005
175.309006 -227.835297 5.57840014
175.2771 -227.758499 5.57539988
175.36084 -227.689667 5.73743343
175.284698 -227.546097 5.69099998
175.290298 -221.850693 3.77780008
175.276855 -221.830658 3.95659995
175.305496 -221.866287 4.09963989
175.385406 -221.866806 4.22849989
175.220306 -221.883499 4.53149986
175.268204 -221.794601 4.1704998
175.4991 -229.151794 4.85419989
175.561798 -228.501007 5.3105998
175.477905 -228.353699 5.89519978
175.539597 -228.0923 5.71929979
175.422104 -227.9561 5.49720001
175.526749 -227.881256 5.67245007
175.534393 -227.759598 5.49790001
175.580093 -227.711807 5.9387002
175.599701 -222.036407 4.31449986
175.451599 -221.841507 4.00479984
175.685547 -228.683258 5.31190014
175.604996 -228.493896 4.76959991
175.785294 -228.188507 5.17729998
175.666733 -228.056427 5.54330015
175.642303 -228.0672 5.63100004
175.628601 -227.966797 5.6085
175.7258 -227.860306 5.89519978
175.630096 -227.761505 5.71409988
175.619598 -227.727707 5.94089985
175.993698 -228.071793 5.29879999
175.944794 -228.130203 5.42880011
175.904694 -228.054947 5.72060013
176.117401 -228.799103 5.71710014
176.011902 -228.27774 5.12584972
176.128601 -228.022293 5.47230005
176.027206 -227.988998 5.28620005
176.099396 -227.809296 5.66580009
176.309494 -228.648102 4.65549994
176.232193 -228.664597 4.95749998
176.366394 -228.599396 5.10059977
176.369904 -228.508499 5.26000023
176.380493 -228.334793 4.92630005
176.243103 -227.890701 5.19430017
176.208801 -227.9431 5.64499998
176.428207 -228.408707 5.00790024
176.684799 -228.165298 4.97209978
176.623505 -228.154205 5.1104002
176.755005 -228.085907 5.61219978
176.945496 -228.602493 5.54169989
176.946396 -228.497299 5.11429977
176.979507 -228.591705 5.33900023
176.887604 -228.098404 5.4440999
177.1185 -230.922806 5.40670013
177.133499 -230.780304 5.25349998
177.090942 -228.565598 5.44390011
177.293198 -230.809097 5.54269981
177.357697 -228.636398 5.75890017
179.695297 -229.744293 4.9218998
179.654099 -229.468399 5.5781002
179.902496 -229.493195 5.05550003
