# .PCD v0.7 - Point Cloud Data file format
VERSION 0.7
FIELDS x y z
SIZE 4 4 4
TYPE F F F
COUNT 1 1 1
WIDTH 236
HEIGHT 1
VIEWPOINT 0 0 0 1 0 0 0
POINTS 236
DATA ascii
180.163406 -229.124405 5.09040022
180.149399 -229.054504 5.39230013
180.259201 -229.013596 5.56899977
180.543594 -229.250397 5.12589979
180.507507 -229.159302 4.89349985
180.419907 -229.127106 5.02629995
180.425003 -229.033401 5.32620001
180.543594 -228.992996 5.21509981
180.750153 -229.629898 4.88140011
180.648193 -229.660507 5.04780006
183.983994 -228.556396 6.41529989
184.163406 -228.468307 6.38980007
184.031097 -227.817001 6.6322999
184.286591 -228.423492 5.70370007
184.316193 -228.440094 6.19469976
184.365005 -227.874695 5.73010015
184.348801 -227.889603 6.55340004
184.554596 -228.718796 6.90500021
184.596207 -228.670303 7.11569977
184.4431 -228.780106 7.32110023
184.567902 -228.647995 7.4763999
184.581802 -228.389297 5.34719992
184.536499 -228.213593 6.39870024
184.540207 -228.002594 6.13530016
184.460907 -227.970306 6.37639999
184.458801 -227.896103 6.44796658
184.538406 -227.833496 6.64309978
184.519897 -227.780502 6.46150017
184.667099 -228.778107 5.88530016
184.715103 -228.522507 7.15969992
184.681503 -228.096313 6.09290028
184.740204 -227.993805 5.98059988
184.705093 -227.945999 6.14799976
184.633942 -227.906006 6.25209999
184.685699 -227.778702 6.2665
184.7258 -227.798294 6.48500013
184.749695 -227.718094 6.65439987
184.643707 -227.687607 7.19810009
184.857803 -228.341919 6.87792492
184.933197 -228.112793 5.68580008
184.981506 -228.031906 6.73589993
184.932495 -228.146698 6.94329977
184.863342 -228.135406 7.08265018
184.814209 -228.118744 7.29139996
184.835403 -228.104202 7.8762002
184.812805 -227.934204 5.93709993
184.901428 -227.885361 6.11023331
184.970398 -227.980804 6.43100023
184.892303 -227.297394 6.53779984
184.856293 -227.248505 6.68219995
185.005096 -228.470093 7.21700001
185.112396 -228.208893 6.73159981
185.007996 -228.182098 7.13770008
185.048706 -228.077606 7.33190012
185.050201 -227.905701 7.38920021
185.085907 -227.935944 7.48554993
185.142593 -227.737595 5.93790007
185.173157 -227.753952 7.55509996
185.150208 -227.451401 6.30009985
185.052704 -227.448456 6.49464989
185.140198 -227.348297 5.97109985
185.185593 -227.256104 6.06850004
185.080658 -227.358307 6.34375
185.0466 -227.269852 6.47130013
185.022797 -227.273407 6.66620016
185.122604 -227.187302 6.25320005
185.327194 -229.587296 5.95039988
185.302002 -228.292496 7.07905006
185.232407 -228.153 5.91790009
185.306107 -227.852295 6.99870014
185.220306 -227.834503 7.30679989
185.317001 -227.703201 7.41669989
185.28685 -227.712097 7.71004963
185.341156 -227.288849 5.87304974
185.220306 -227.203293 6.56549978
185.237961 -227.111862 6.12536669
185.375504 -227.036606 6.28270006
185.412704 -229.005798 5.79239988
185.481903 -228.276993 6.96549988
185.571503 -228.031693 6.90220022
185.441895 -227.967896 6.90850019
185.446503 -227.934494 7.02790022
185.505096 -227.814804 7.29589987
185.471405 -227.673096 5.03709984
185.566711 -227.783295 7.10490036
185.556305 -227.687103 7.41149998
185.581604 -227.439407 5.34130001
185.488403 -227.523697 5.79150009
185.4888 -227.330597 5.954
185.516907 -227.205002 6.16940022
185.452911 -227.095947 6.15455008
185.531296 -227.012497 6.33500004
185.651505 -228.337296 7.49749994
185.768311 -228.103607 7.69944954
185.723694 -228.039902 7.92369986
185.613693 -227.975906 6.76809978
185.743607 -227.719757 6.7385335
185.7836 -227.401001 6.5948
185.712997 -227.425095 6.6795001
185.6315 -227.514008 7.0539999
185.663498 -227.303101 5.80730009
185.776093 -227.291595 6.73500013
185.658401 -227.2547 7.17089987
185.646393 -227.035507 6.22049999
185.751404 -227.158691 6.90065002
185.859894 -228.068573 7.70639992
185.847794 -228.008301 7.90310001
185.929993 -227.627808 6.4059
185.854004 -227.430099 6.32770014
185.832596 -227.476593 6.63920021
185.992706 -227.210297 5.74650002
185.893707 -227.378906 6.57420015
185.859207 -227.251495 6.8190999
185.931503 -227.042603 5.82460022
185.876373 -227.085464 6.11626673
185.802795 -227.096603 6.28079987
185.942001 -227.146698 6.7020998
185.802399 -227.027298 7.26170015
186.118103 -228.063004 7.29990005
186.031494 -228.079803 7.59009981
186.094299 -228.112 7.62779999
186.131348 -227.9505 7.57870007
186.098907 -227.898895 7.63390017
186.000198 -227.335693 5.78329992
186.074249 -227.083847 5.68370008
186.061203 -227.120895 6.13549995
186.124695 -227.008102 6.57530022
186.081802 -227.078751 6.75125027
186.099396 -227.121704 6.81005001
186.072601 -227.035599 7.13719988
186.074493 -226.857697 5.81710005
186.078293 -226.911606 6.22779989
186.154007 -226.903793 6.48920012
186.068893 -226.766403 5.89690018
186.105804 -226.486801 6.22590017
186.1315 -226.322693 6.26480007
186.289398 -227.901199 7.42229986
186.317993 -227.589005 7.87260008
186.358704 -227.485794 8.0571003
186.301498 -227.069504 6.69543362
186.371399 -226.922501 6.91130018
186.360001 -226.404297 5.77519989
186.316498 -226.454803 5.95149994
186.346207 -226.243896 5.44430017
186.232407 -226.385406 5.99130011
186.366135 -226.27301 6.13443327
186.285065 -226.235367 6.45100021
186.379196 -226.190201 6.41900015
186.429596 -228.521805 8.34360027
186.563904 -228.352203 8.15690041
186.426193 -227.813202 7.35860014
186.516602 -227.868195 9.09860039
186.407806 -227.758102 7.47599983
186.433395 -227.112106 6.69799995
186.426697 -226.960999 6.76100016
186.570602 -226.859802 6.88770008
186.454895 -226.926804 7.00619984
186.524048 -226.494446 5.96444988
186.499802 -226.430298 6.06519985
186.474106 -226.384705 6.13355017
186.621399 -228.794601 5.77089977
186.722504 -228.307098 7.81400013
186.771606 -228.167603 8.10830021
186.717697 -226.743393 5.85640001
186.765701 -226.529449 5.92374992
186.747437 -226.46315 6.05370045
186.756699 -226.360199 6.11269999
186.733704 -226.013794 5.40509987
186.757996 -225.910904 5.58349991
186.982407 -228.429306 8.01070023
186.832901 -228.219604 7.68349981
186.923004 -228.183105 7.6880002
186.987595 -227.684296 6.98979998
186.883301 -226.603897 5.90010023
186.942993 -226.582703 6.00040007
186.921906 -225.9478 5.24550009
186.8461 -225.987503 5.42719984
187.042999 -228.203705 7.36329985
187.010696 -228.232895 7.74119997
187.140656 -228.186249 7.5869503
187.198196 -228.183197 7.72940016
187.082901 -227.707306 6.77099991
187.105698 -227.607407 7.35839987
187.117996 -227.550705 7.18069983
187.182999 -227.531693 7.37949991
187.071991 -226.549164 5.82975006
187.141495 -226.376694 5.85169983
187.002701 -226.338898 6.12360001
187.059296 -226.199707 6.36339998
187.318604 -228.603897 7.46999979
187.299896 -228.230392 7.53289986
187.351898 -228.125793 7.96950006
187.207794 -228.125397 8.05560017
187.347198 -227.5513 6.85349989
187.303406 -227.471695 7.29390001
187.471237 -227.465637 7.1118331
187.477905 -227.367905 7.47830009
187.783401 -227.522995 6.65450001
187.707108 -227.511002 6.90570021
187.675095 -227.5177 7.01539993
187.795105 -226.252502 5.31020021
187.765793 -226.329102 5.40549994
187.751801 -226.144699 5.83890009
187.903702 -227.679901 5.94250011
187.873398 -227.530502 6.7407999
187.9245 -227.423065 6.8586998
188.040604 -227.617996 6.40969992
188.081543 -227.480743 6.27939987
188.012405 -227.452103 7.05649996
188.013504 -227.380493 6.17799997
188.011597 -227.381805 6.33230019
188.104095 -227.282501 6.47249985
188.111206 -227.360596 6.6019001
188.141693 -226.665298 5.73320007
188.027206 -226.796997 6.04110003
188.315796 -227.655304 6.37939978
188.4104 -227.242096 6.61819983
188.437607 -227.172302 6.06510019
188.5186 -227.094894 6.2269001
188.562012 -226.768463 5.73649979
188.601898 -227.214294 6.2974
188.651703 -227.062805 5.98280001
188.622604 -226.768402 5.78539991
190.096298 -228.622406 6.58139992
190.095459 -228.570038 6.89669991
190.319901 -228.797394 6.51940012
191.470993 -228.943893 6.47669983
198.9953 -226.297104 6.89750004
199.178604 -226.088394 6.84520006
199.010803 -225.900101 6.73579979
199.134293 -225.688507 6.71869993
199.066696 -225.764694 6.8112998
199.235901 -225.238098 6.74650002
199.447998 -226.129395 6.29180002
199.467697 -225.985794 6.50339985
199.674194 -225.147797 6.17089987
