# .PCD v0.7 - Point Cloud Data file format
VERSION 0.7
FIELDS x y z
SIZE 4 4 4
TYPE F F F
COUNT 1 1 1
WIDTH 145
HEIGHT 1
VIEWPOINT 0 0 0 1 0 0 0
POINTS 145
DATA ascii
264.750305 -347.747803 3.46029997
266.197205 -348.068207 -1.17750001
266.121887 -347.989288 -1.45790005
266.1987 -347.741211 -2.38140011
266.187592 -347.762787 -2.19449997
266.173492 -347.72821 -1.66530001
266.09201 -347.246094 -1.99779999
266.348206 -348.539703 -1.56350005
266.276794 -348.139008 -1.59570003
266.207794 -347.810913 -2.3512001
266.540894 -349.362091 -1.46430004
266.429291 -348.474915 -2.05340004
268.823212 -348.151703 -2.32800007
269.733307 -349.272308 3.09200001
269.713806 -348.901001 0.0546000004
273.140503 -348.800903 11.9925003
273.140991 -348.56781 9.25469971
273.385498 -349.004913 12.4568005
273.227509 -348.89209 12.4497004
273.359497 -348.405701 2.28629994
273.385712 -348.408508 5.65010023
273.314789 -348.54129 10.2339001
273.513611 -348.813812 5.61140013
273.520691 -348.817505 6.87069988
273.432709 -348.956299 12.0720997
273.545288 -348.737213 5.77850008
273.542694 -348.725098 6.45510006
273.493805 -348.652008 6.7256999
273.430695 -348.534088 5.81570005
273.581787 -342.975189 7.21369982
273.752197 -348.857605 3.10750008
273.680603 -348.706787 2.93289995
273.646698 -348.671509 3.1098001
273.607391 -348.7547 5.61009979
273.601807 -348.533813 3.31609988
273.678894 -348.356415 -0.561699986
273.623413 -343.348511 7.16820002
273.683685 -343.3508 7.36759996
273.964203 -344.464691 -2.01469994
273.945496 -344.436401 -0.762099981
273.929413 -344.479401 -0.303000003
273.934509 -344.224487 0.154499993
273.905792 -344.148285 -1.63759995
273.899994 -344.104614 -1.58949995
273.878998 -344.140411 -0.8477
273.823792 -344.052002 -0.0131999999
274.115906 -345.361298 0.166299999
274.015686 -345.093811 -2.02970004
274.085907 -345.054993 -1.61720002
274.075897 -344.800903 -1.53069997
274.072906 -344.99939 -0.377600014
274.036804 -344.655701 -1.53180003
274.068512 -344.641815 0.0732999966
274.025085 -344.541687 -1.78890002
274.082886 -344.337494 -1.66789997
274.049988 -344.235107 -1.47759998
274.671631 -341.898193 12.9456005
275.070312 -341.861908 13.8246002
275.251892 -342.69989 13.6730003
275.260651 -342.056854 13.8778496
275.55481 -340.193695 -0.363499999
275.656097 -341.834198 4.49009991
275.871002 -343.455688 7.5848999
275.817108 -342.882202 3.85770011
275.865814 -342.897797 4.25869989
276.184906 -342.555389 -0.0167999994
276.139801 -342.548889 0.626299977
276.124115 -342.594086 0.949899971
276.194611 -342.374695 0.142900005
276.149994 -342.29895 0.751399994
276.104492 -342.168915 0.0460000001
276.11319 -341.963989 0.912500024
276.166107 -341.450104 0.584299982
276.138794 -341.508789 0.796700001
276.37439 -348.214294 12.9448996
276.298798 -343.051392 -0.0700000003
276.312897 -343.062714 0.307099998
276.233612 -342.857208 0.540799975
276.254791 -342.703888 0.201700002
276.229401 -342.588501 0.584299982
276.261688 -341.936188 4.11660004
276.390289 -341.627411 3.81789994
276.295502 -341.65509 7.20870018
276.243286 -341.136688 0.644800007
276.591797 -341.684906 6.65290022
276.598114 -341.514313 0.401499987
276.556885 -341.457489 0.618799984
276.744995 -347.809692 5.4677
276.768188 -341.463898 6.94019985
276.643402 -341.166992 3.59299994
276.902191 -348.05661 12.4047003
276.873993 -341.132599 0.382999986
277.127106 -348.119293 12.8863001
277.199707 -341.421295 3.26749992
277.0336 -340.876312 -0.0165999997
277.284088 -348.415497 10.1244001
277.346802 -348.372498 9.30949974
277.341095 -348.299408 9.61279964
277.248688 -348.225586 13.0832996
277.348206 -348.131714 5.39900017
277.28421 -348.163696 10.1127996
277.362 -347.865906 2.43070006
277.394989 -347.752289 3.10899997
277.332306 -341.41391 3.23329997
277.259094 -341.117706 0.140300006
277.5112 -347.923889 2.87380004
277.487091 -341.543915 3.26789999
277.636108 -348.065796 2.59260011
277.663391 -348.042206 2.64590001
277.646698 -341.553314 0.0520000011
277.635498 -341.332001 -0.178499997
277.891296 -341.581604 -0.220599994
278.506805 -342.373199 -0.576799989
278.7612 -342.5 -0.71359998
278.712402 -342.295593 -0.502499998
278.710388 -342.012085 -0.592400014
278.820312 -342.406494 -1.73590004
278.809296 -342.23761 -1.16359997
278.803314 -341.780487 -0.48089999
278.801605 -341.085785 -0.377999991
278.852509 -340.7034 -0.387800008
279.175812 -341.204803 5.82940006
279.312195 -341.255096 5.59079981
279.320709 -341.186005 2.1644001
279.565613 -347.560089 9.00469971
279.58371 -341.232605 5.65180016
279.466614 -341.192413 2.53320003
279.543884 -341.085327 8.81365013
279.4039 -340.976715 5.37729979
279.663788 -346.954987 6.30919981
279.763702 -341.857697 -1.89579999
279.768005 -341.825714 -1.46309996
279.774597 -341.914001 -1.31449997
279.684509 -341.701508 -1.67709994
279.727203 -341.768402 -1.14900005
279.680695 -341.517395 -2.1105001
279.644409 -341.541565 -1.93575001
279.653595 -341.588409 -1.78429997
279.810913 -347.177185 6.02349997
279.882599 -342.245514 -1.82130003
279.860291 -342.099609 -1.66930008
279.868011 -341.965393 -1.85389996
279.806702 -341.976196 -1.76259995
279.861115 -341.106689 1.98370004
279.845001 -340.685791 2.2032001
