# .PCD v0.7 - Point Cloud Data file format
VERSION 0.7
FIELDS x y z
SIZE 4 4 4
TYPE F F F
COUNT 1 1 1
WIDTH 84
HEIGHT 1
VIEWPOINT 0 0 0 1 0 0 0
POINTS 84
DATA ascii
240.613098 -198.306503 7.50979996
244.929596 -199.631302 4.59819984
244.954407 -199.756104 4.75509977
244.897797 -199.314301 4.62340021
244.853394 -199.149506 4.41219997
244.802994 -198.493805 4.89379978
244.800507 -197.988098 4.94420004
245.277405 -199.221405 4.87090015
245.540802 -199.162796 4.87610006
245.460999 -198.8311 4.87790012
246.064606 -198.663696 4.87869978
246.491302 -199.464096 4.76270008
246.493103 -198.662292 4.83500004
246.566452 -198.297104 4.89494991
246.970795 -198.473602 4.67869997
247.183105 -199.755997 4.83890009
247.147903 -199.126099 4.87989998
247.378006 -199.925598 4.85090017
247.648804 -199.826294 4.65460014
247.634094 -199.756104 4.72539997
247.960999 -199.526901 4.88649988
247.865707 -198.440704 4.88310003
248.472397 -198.377304 4.86350012
248.535202 -197.929398 4.77580023
248.403702 -197.999893 4.8434
248.791 -199.170395 4.87389994
248.820099 -199.516098 4.92379999
249.145905 -199.958206 4.87270021
249.115845 -197.88446 4.83829975
249.52124 -199.326691 4.8583498
249.694107 -199.4841 4.84089994
249.954102 -199.032196 4.9000001
250.018402 -199.946899 4.89090014
250.367294 -199.761505 4.84789991
250.419205 -199.624298 4.76989985
250.483307 -199.590302 4.66820002
253.701508 -199.562805 5.63870001
253.633408 -199.274994 5.6072998
253.877594 -199.835144 8.67920017
253.905701 -199.589905 5.93270016
254.041595 -199.4729 5.85449982
254.082642 -199.309647 5.75075006
254.374695 -199.546295 5.90840006
254.406693 -199.874603 8.74870014
254.501694 -199.990494 8.80900002
254.450806 -199.462296 5.8888998
254.538696 -199.159256 5.71125031
254.638794 -199.387405 5.85179996
254.860306 -199.6987 8.69939995
254.949997 -199.703293 8.8178997
254.865204 -199.272903 5.80550003
255.289703 -199.511902 8.82549953
255.249405 -196.153198 7.46670008
255.417206 -199.705994 8.85649967
255.737305 -199.650894 8.89229965
255.645493 -199.479507 8.87370014
255.758804 -197.261703 6.70419979
255.683197 -196.8284 6.92409992
255.619095 -196.1931 7.1244998
255.882401 -199.746002 8.86419964
255.868607 -198.548904 6.22529984
255.856995 -197.677307 6.67460012
256.01889 -199.062607 5.95889997
256.003387 -198.936005 5.60370016
258.750214 -197.272598 4.78189993
258.92569 -198.131699 4.76079988
258.913696 -197.8815 4.79610014
258.837006 -197.598602 4.63089991
258.963013 -197.022903 4.98059988
259.187012 -198.105896 4.88749981
259.077789 -197.122803 4.90670013
259.38089 -198.341705 4.86210012
259.283875 -196.460541 4.74065018
259.433014 -197.295303 4.90869999
259.615601 -199.852707 9.52680016
259.611908 -199.921799 10.1148996
259.650604 -199.008408 7.58090019
259.77179 -198.535995 4.94259977
259.734009 -198.228699 4.84560013
259.815887 -199.973694 7.02080011
259.868286 -199.923096 7.38000011
259.93161 -199.769806 7.53410006
259.995605 -199.473907 7.5710001
259.859894 -199.344894 7.55630016
