# .PCD v0.7 - Point Cloud Data file format
VERSION 0.7
FIELDS x y z
SIZE 4 4 4
TYPE F F F
COUNT 1 1 1
WIDTH 891
HEIGHT 1
VIEWPOINT 0 0 0 1 0 0 0
POINTS 891
DATA ascii
142.251099 -79.0236969 16.0699997
142.334991 -76.0863953 10.2980995
142.386703 -74.2956009 8.05459976
142.397995 -73.9204025 16.5818996
142.299698 -72.0298996 11.5726004
142.352905 -71.2313004 10.4111996
142.237793 -71.3150024 10.7031002
142.373505 -70.7072983 11.6120005
142.461304 -79.2861023 16.2728004
142.512299 -79.0151978 15.7841997
142.502701 -79.0835037 16.2511997
142.591202 -78.8542023 15.6145
142.582596 -78.9358978 15.8844004
142.511002 -78.9628983 16.2345009
142.584595 -78.5057983 15.3441
142.535797 -78.3967972 9.4715004
142.527405 -78.2811966 14.3226004
142.559494 -78.123497 9.14560032
142.569595 -77.9626999 6.70090008
142.569305 -77.4110031 8.57359982
142.490494 -77.4199982 8.81849957
142.561401 -77.0995026 10.4604998
142.573807 -77.0903015 14.7851
142.447403 -77.1996994 15.9723997
142.587906 -76.7343979 8.06379986
142.451004 -76.5074997 10.5163002
142.595505 -76.4599991 13.4977999
142.592499 -76.5276031 14.5718002
142.503204 -76.2269974 10.5441999
142.528 -76.3523026 13.9060001
142.477295 -76.0737 7.63329983
142.561005 -76.0725021 8.02709961
142.497894 -76.0795975 8.48579979
142.438995 -76.0541992 10.1729002
142.426498 -76.1706009 10.4949999
142.545593 -76.165802 15.5066996
142.589996 -75.9919968 8.57520008
142.585007 -75.9963989 9.9715004
142.587708 -75.8472977 13.0172997
142.590698 -75.9532013 17.0265007
142.570007 -75.7878036 8.75059986
142.490494 -75.6108017 10.4787998
142.583694 -75.7605972 12.0731001
142.521698 -75.7978973 12.7077999
142.539398 -75.5651016 11.7389002
142.596405 -75.4742966 12.1766005
142.576904 -75.4788971 12.2037001
142.594193 -75.5775986 16.7901001
142.550293 -75.2710037 11.9651003
142.577499 -75.2155991 13.7554998
142.582001 -75.3897018 17.4386997
142.516006 -75.0246964 12.4466
142.582886 -74.9734497 10.5023003
142.598694 -74.9617004 11.6631002
142.584503 -74.9570999 12.0474005
142.542007 -74.8324966 13.7156
142.541794 -74.9302979 14.2117996
142.579605 -74.8181 15.3388004
142.550705 -74.7866974 5.76200008
142.580994 -74.7910995 10.7744999
142.591293 -74.7384033 12.4575996
142.598602 -74.7586975 14.1362
142.550995 -74.6552963 17.2180996
142.526794 -74.4859467 10.1336498
142.597504 -74.4758987 12.6921997
142.592606 -74.5094986 16.3602009
142.529602 -74.2235031 12.6641998
142.501144 -74.2464447 13.2801495
142.580704 -74.3021011 15.2810001
142.577896 -74.3030014 18.1005993
142.5383 -74.1844025 8.8409996
142.581696 -74.0354004 10.4621
142.570496 -74.0182037 14.8308001
142.570099 -74.111702 15.2216997
142.520096 -74.0783997 15.6259003
142.548096 -74.1432037 18.2324009
142.578094 -73.9149017 10.9287996
142.571503 -73.905098 13.0089998
142.590607 -73.9623032 15.5102997
142.587402 -73.8816986 16.3027
142.535599 -73.8757019 17.1145992
142.578094 -73.6682968 7.93160009
142.449005 -73.689003 8.81680012
142.578995 -73.7983017 9.44200039
142.582901 -73.7375031 11.6620998
142.564102 -73.7973022 12.0757999
142.529358 -73.6389999 13.4754505
142.598495 -73.694397 13.6020002
142.555695 -73.7764969 13.9737997
142.598602 -73.7202988 14.3570004
142.574799 -73.7928009 15.9833002
142.556107 -73.6047974 16.6872997
142.575607 -73.7602005 17.7936001
142.563293 -73.4608994 9.35299969
142.575897 -73.5285034 10.0873003
142.526794 -73.561554 14.6662998
142.538696 -73.4783936 14.9559002
142.515793 -73.5091019 15.0917997
142.5466 -73.4422989 16.1445999
142.513306 -73.5936966 17.9204006
142.552994 -73.2900009 8.57019997
142.5616 -73.2041016 10.4558001
142.522903 -73.2794037 12.6412001
142.570694 -73.3117981 14.1568003
142.502594 -73.2470016 14.4966002
142.572098 -73.3524017 14.6175003
142.571899 -73.3667984 15.7144003
142.597 -73.2014999 16.7157993
142.484894 -73.1612015 10.5986996
142.561996 -73.0834045 11.1051502
142.529099 -73.1143036 12.2905998
142.505798 -73.1102982 13.9180002
142.538498 -73.0995026 14.1316996
142.423706 -73.0587997 14.9565001
142.514694 -72.9555969 10.2584
142.496902 -72.822403 12.7259998
142.542099 -72.9639969 13.9502001
142.584198 -72.8920975 15.4891996
142.524796 -72.9627991 16.5312004
142.504898 -72.770401 6.77720022
142.420105 -72.6072006 9.26039982
142.502701 -72.6942978 11.2591
142.527252 -72.6731567 11.4983997
142.596603 -72.751297 12.9191999
142.584305 -72.7701035 13.6448002
142.5793 -72.634903 14.5431995
142.505493 -72.6343994 15.3030996
142.595093 -72.7125015 15.6945
142.511505 -72.4710007 9.79339981
142.568497 -72.5842972 11.7299004
142.566101 -72.4057007 11.8098001
142.542297 -72.598999 12.3076
142.570999 -72.4350967 13.3464003
142.514801 -72.5375977 13.7516003
142.587006 -72.4942017 13.9090004
142.5849 -72.4223022 14.6667004
142.578796 -72.4759979 14.974
142.537598 -72.5018997 15.9790001
142.578796 -72.4161987 16.9556999
142.599106 -72.5315018 17.2192993
142.529297 -72.3211975 10.9145002
142.52356 -72.3271942 11.1233997
142.535309 -72.3110962 12.2735004
142.536301 -72.3585968 13.2825003
142.512299 -72.3757019 13.7497997
142.544601 -72.2549973 14.0246
142.51915 -72.1058502 10.8605003
142.517456 -72.1926498 14.5284004
142.511795 -72.1811981 15.2889996
142.435196 -72.1204987 15.7602997
142.536301 -71.9754028 11.9032001
142.486496 -71.9832993 12.7435999
142.546005 -71.9344025 12.9490995
142.571793 -71.8923035 14.5858002
142.481003 -71.7225037 13.9055996
142.544098 -71.7946014 15.0375996
142.449005 -71.7378998 15.2462997
142.475204 -71.4506989 12.1218004
142.518997 -71.4873962 15.0983
142.484207 -71.5727997 15.3999004
142.498703 -71.3937988 12.3837996
142.43425 -71.3092041 12.8850498
142.485504 -71.2556992 14.1630001
142.504105 -71.3271027 15.4024
142.517303 -71.3826981 15.7639999
142.507904 -71.3274002 16.0421009
142.459305 -71.1572037 11.0057001
142.451294 -71.0042038 11.3147001
142.497101 -71.0983963 13.4333
142.521606 -71.1929016 13.7354002
142.561096 -71.0628967 15.7068996
142.460999 -70.995697 12.5375004
142.532593 -70.8907013 14.4464998
142.501495 -70.938797 16.4428005
142.484604 -70.7646027 10.6808996
142.476196 -70.6578979 15.2083998
142.538208 -70.7420959 16.5429993
142.5569 -70.7834015 17.2352009
142.442307 -70.4873962 12.8887997
142.468597 -70.5003967 13.7137003
142.470993 -70.5382004 14.5679998
142.450897 -70.4143982 14.9319
142.575607 -70.5251007 16.3073997
142.4617 -70.0700989 10.2390003
142.500702 -70.1175003 13.7629995
142.474197 -70.0888977 16.6555996
142.442505 -69.851799 12.1796999
142.472 -69.9272995 14.4722004
142.402695 -69.9735031 15.9643002
142.459595 -69.759697 12.9006004
142.472504 -69.6769028 13.0432997
142.412292 -69.3330994 16.1096001
142.706299 -79.8887024 4.45219994
142.667007 -79.9027023 5.3270998
142.700195 -79.8705978 6.31920004
142.758408 -79.9534988 7.50209999
142.663895 -79.9978027 7.83230019
142.746399 -79.8853989 8.29199982
142.647202 -79.9953003 8.97929955
142.782593 -79.866951 9.87440014
142.702194 -79.9723969 10.5588999
142.756622 -79.942131 10.6989336
142.764801 -79.978302 11.9152002
142.768204 -79.939003 12.2488003
142.721207 -79.8879013 12.5783997
142.760193 -79.9129028 13.3372002
142.777802 -79.8471985 14.1710997
142.792404 -79.9590988 14.3625002
142.791794 -79.9624023 14.8182001
142.709702 -79.9256973 15.0075998
142.712158 -79.921402 16.4343491
142.715195 -79.6678009 7.16599989
142.695496 -79.7854996 7.80730009
142.715805 -79.6408005 8.20069981
142.724594 -79.6875 8.54609966
142.748962 -79.65065 9.11209965
142.743301 -79.6285019 9.23579979
142.744995 -79.7080002 9.6487999
142.744995 -79.7006531 10.3327999
142.762207 -79.7626038 10.6339998
142.767059 -79.7264481 11.7269497
142.775543 -79.6247559 11.9047003
142.765594 -79.6137009 12.2996998
142.796707 -79.6660004 12.9371996
142.767593 -79.6402969 13.0501003
142.797806 -79.7027969 13.5127001
142.772507 -79.6579971 13.9095001
142.752899 -79.6546021 14.9358997
142.744507 -79.5485992 7.67390013
142.653107 -79.4992981 7.97860003
142.774994 -79.5571976 8.30210018
142.692993 -79.4955978 8.50660038
142.744705 -79.5057983 9.47819996
142.753906 -79.5152969 10.1560001
142.758698 -79.5874481 10.2976494
142.784546 -79.538147 10.4929504
142.783096 -79.552597 10.6259003
142.745895 -79.4468002 10.8225002
142.731094 -79.5245972 11.3346004
142.698303 -79.4729004 11.9225998
142.789795 -79.4792023 12.2031002
142.743958 -79.534256 12.7006502
142.781296 -79.5074997 13.0073004
142.740295 -79.5634995 13.4238005
142.665955 -79.5256042 16.41675
142.682495 -79.3900986 5.40240002
142.729904 -79.3458023 6.17920017
142.700897 -79.3426971 6.85059977
142.764893 -79.3365021 7.25330019
142.681793 -79.3796005 8.01599979
142.788895 -79.3173981 9.0369997
142.748001 -79.3158035 9.26229954
142.760696 -79.3358002 10.1730003
142.7397 -79.2268982 10.3016005
142.780807 -79.3675995 10.7403002
142.612701 -79.2447968 11.2264004
142.680099 -79.2137985 12.0212002
142.760696 -79.2176971 12.3663998
142.715897 -79.2730026 12.7208996
142.756393 -79.2789001 13.1004
142.705765 -79.3244705 13.8620663
142.767197 -79.2807007 14.2875996
142.727798 -79.3205032 16.1975002
142.742905 -79.0422974 8.29889965
142.718903 -79.1884995 9.31519985
142.746399 -79.1147003 9.67280006
142.712799 -79.0077972 9.89640045
142.7565 -79.0921021 10.1147995
142.709 -79.0856476 10.6970997
142.731796 -79.1679993 11.5794001
142.7173 -79.0161972 11.9491997
142.779404 -79.085701 12.2434998
142.767609 -79.1203003 12.4564495
142.753799 -79.0952988 12.9335003
142.720398 -79.0942001 13.3856001
142.775482 -79.1374207 13.4942503
142.784897 -79.1285019 13.8571997
142.609894 -79.0314026 14.4053001
142.660797 -79.024498 16.1966991
142.746094 -79.028801 16.3173008
142.783005 -79.0653 16.5655003
142.673004 -78.9553986 5.62839985
142.617599 -78.8852005 5.88189983
142.70874 -78.9221039 6.88220024
142.664154 -78.8936996 7.32664967
142.731003 -78.9440002 7.99830008
142.684799 -78.9481964 8.57590008
142.737946 -78.8895493 9.04364967
142.694397 -78.8965988 9.51290035
142.7966 -78.9218979 10.7634001
142.770096 -78.8789978 10.8086996
142.736801 -78.9169006 11.2115002
142.715897 -78.9935989 11.4076004
142.760101 -78.8820038 11.7166004
142.7603 -78.9766998 11.8985996
142.780807 -78.9713974 12.3402996
142.719391 -78.9530029 12.6947498
142.701904 -78.930397 13.9425001
142.71524 -78.9048004 15.1611004
142.694092 -78.8971481 15.3069
142.679092 -78.933197 15.4457998
142.760605 -78.8945007 15.6624002
142.757538 -78.8455963 15.9028502
142.728546 -78.9019012 16.0762997
142.754807 -78.9988022 16.5032997
142.691101 -78.9217987 16.7106495
142.679398 -78.6981964 5.05100012
142.665405 -78.6545029 5.41750002
142.667801 -78.6913986 7.57550001
142.727097 -78.7763977 8.1821003
142.747894 -78.6798019 9.43050003
142.705002 -78.6200027 10.7917995
142.690002 -78.6835022 10.8740997
142.728104 -78.6511993 11.3639002
142.723007 -78.6231995 12.1624002
142.751404 -78.6408005 13.4933996
142.704102 -78.7100983 13.7940998
142.724197 -78.7949982 14.0683002
142.727005 -78.6511993 14.5183001
142.787506 -78.715744 14.92735
142.684799 -78.7289963 15.3622999
142.797607 -78.5935974 6.73390007
142.629196 -78.4615021 6.94540024
142.717407 -78.5366974 7.04879999
142.788696 -78.531601 7.34989977
142.678696 -78.4505005 7.88619995
142.706299 -78.5388031 8.27250004
142.700699 -78.4368973 8.71870041
142.705399 -78.4740982 9.24470043
142.784698 -78.4222031 10.1375999
142.741104 -78.5712967 10.3338003
142.633408 -78.4413986 10.4133997
142.731705 -78.4888 10.9104004
142.743607 -78.5935974 11.2964001
142.602005 -78.4011993 11.5039997
142.753494 -78.5425034 11.8417997
142.681595 -78.558403 12.0678997
142.746307 -78.5675964 12.5122004
142.768402 -78.5864029 12.8779001
142.786896 -78.5371017 13.2479
142.717896 -78.4869003 13.4252005
142.689102 -78.4953003 13.8444004
142.675797 -78.5491028 14.1533003
142.688904 -78.586998 14.5941
142.770493 -78.438797 15.0576
142.687607 -78.3088989 7.35699987
142.685898 -78.3541031 7.81209993
142.731506 -78.3122025 9.25860023
142.731796 -78.3279037 9.6413002
142.750702 -78.2528992 9.93099976
142.733139 -78.2628326 10.8503666
142.721893 -78.3009033 11.6786003
142.790802 -78.3203964 12.5962
142.714294 -78.2705994 12.8474998
142.712906 -78.3945999 13.4572001
142.768799 -78.278801 14.7827997
142.756607 -78.2965012 15.6457996
142.774902 -78.3867035 16.0149994
142.751907 -78.2723999 16.5263004
142.665405 -78.0465012 7.39890003
142.627808 -78.0129013 7.43839979
142.689453 -78.0478973 7.74025011
142.654297 -78.0021973 8.44810009
142.683899 -78.1728973 9.95629978
142.768906 -78.1635971 10.2557001
142.686798 -78.1110992 10.8754997
142.763596 -78.0501022 12.0361004
142.667297 -78.0557022 12.4923
142.700394 -78.1240005 12.6204996
142.71283 -78.0812988 12.9455996
142.600494 -78.0624008 13.3048
142.709793 -78.0129013 14.5057001
142.694 -78.0718994 14.9713001
142.782349 -78.1529999 15.0232
142.770004 -78.196701 15.3219004
142.733994 -78.1716995 15.4694996
142.745804 -78.1286011 16.3404999
142.737503 -78.1816025 16.8652
142.702606 -77.9252014 5.95359993
142.702301 -77.9670029 6.35839987
142.654755 -77.954895 6.54154968
142.66185 -77.9666977 7.03069973
142.634201 -77.9636002 7.9309001
142.703003 -77.8740997 8.14410019
142.770706 -77.8606033 8.64220047
142.774597 -77.9580002 9.36979961
142.760895 -77.9886017 9.51229954
142.725906 -77.8768997 10.5328999
142.692902 -77.9393997 10.8745003
142.753098 -77.8565979 11.3081999
142.697357 -77.8721008 11.5247993
142.765503 -77.9161987 12.4271002
142.725296 -77.8383026 12.8736
142.690308 -77.9079971 14.3143997
142.728104 -77.9384995 14.5771999
142.786697 -77.8249969 14.7788
142.7771 -77.9394989 15.1163998
142.7444 -77.9886017 16.0471001
142.787003 -77.8340988 16.7684994
142.774002 -77.7702026 9.44699955
142.738907 -77.7041016 9.72420025
142.671402 -77.6003036 10.5312004
142.703735 -77.7098999 10.6770334
142.714798 -77.7595978 12.2721004
142.724045 -77.7536469 12.5490503
142.736694 -77.7723007 12.9963999
142.742493 -77.6112976 13.1892996
142.703796 -77.7774506 13.5512505
142.621597 -77.6308975 14.1983004
142.792206 -77.4661026 8.42640018
142.636002 -77.5133972 8.93389988
142.791504 -77.5225983 9.07759953
142.721893 -77.5541992 9.24660015
142.667603 -77.4232025 10.7823
142.675507 -77.5118027 10.8533001
142.746902 -77.5761032 12.7313995
142.732651 -77.4267502 12.9162006
142.694702 -77.4609985 13.1479502
142.776199 -77.4072037 14.3739996
142.707703 -77.5905991 14.4328003
142.771606 -77.5662994 14.6155996
142.763901 -77.438797 14.8743
142.744995 -77.4784012 15.3959999
142.760101 -77.425499 15.4289999
142.721298 -77.5046997 15.6386003
142.731705 -77.5719986 16.1481991
142.727295 -77.4710999 17.0422993
142.6604 -77.3158035 8.90639973
142.6521 -77.3254471 10.5352001
142.697601 -77.2005005 10.6409998
142.718704 -77.3455048 10.9003
142.738602 -77.2142029 12.2122002
142.644394 -77.3967972 12.5820999
142.696793 -77.3684006 13.1049004
142.718704 -77.3158035 13.2916002
142.680099 -77.2490997 13.8877001
142.772003 -77.3604965 14.0605001
142.656006 -77.3062973 14.2412996
142.672699 -77.2033997 14.5256004
142.758453 -77.3172989 14.6975994
142.790497 -77.2549973 15.2175999
142.792404 -77.3235016 16.2201004
142.639603 -77.1325989 8.33320045
142.669907 -77.1064987 8.83530045
142.6996 -77.0861969 11.6013002
142.721802 -77.1680984 12.7995996
142.621506 -77.0686035 12.9468002
142.728394 -77.009903 13.5511999
142.680206 -77.0939026 13.9750004
142.719696 -77.0615997 14.1295996
142.779907 -77.1865997 15.0502996
142.791595 -77.1235962 15.2847996
142.687393 -77.0836029 15.8432999
142.758102 -77.1327972 16.6562996
142.743851 -77.0324554 16.9604492
142.7957 -77.0703964 17.3784008
142.64859 -76.9427032 8.17490005
142.723801 -76.9686966 11.4447002
142.700195 -76.8236008 11.9473
142.7043 -76.8625031 12.5894003
142.638596 -76.8919983 12.6457005
142.693802 -76.9506989 13.5368996
142.695404 -76.8107986 13.6611004
142.766846 -76.8896484 13.9137993
142.698898 -76.8263016 14.3467999
142.640793 -76.9909973 15.1014996
142.645798 -76.8387985 16.3136005
142.731201 -76.9586029 17.2175007
142.702698 -76.7276993 8.39229965
142.699203 -76.7875977 11.0122995
142.665863 -76.7585449 11.9127007
142.722198 -76.6832962 12.0373001
142.697906 -76.7770004 12.2575998
142.635406 -76.7954025 12.4202003
142.681595 -76.6568985 14.0249004
142.729294 -76.6608963 14.3704004
142.730896 -76.7279968 15.8583002
142.634796 -76.668602 16.9757004
142.607895 -76.780098 17.0060997
142.673492 -76.6437988 17.2231998
142.717499 -76.5558014 10.6773005
142.659805 -76.4449997 10.8428001
142.6884 -76.4725037 11.5775003
142.629196 -76.4641037 12.1714001
142.628494 -76.4328003 12.2039003
142.643402 -76.4679031 12.8297005
142.753906 -76.5932999 13.3627005
142.6763 -76.5137024 13.4456997
142.702194 -76.4692993 14.4840002
142.723007 -76.4561996 14.7088003
142.766296 -76.4975967 16.3645
142.655197 -76.5346985 16.4638004
142.741898 -76.4989014 17.1149998
142.666855 -76.2976532 11.9148502
142.679504 -76.2343979 12.243
142.742798 -76.3001022 12.8774996
142.723007 -76.3180008 13.9455004
142.7323 -76.2361984 14.1717997
142.658493 -76.3740005 15.2376003
142.737 -76.2210007 15.6943998
142.650101 -76.3879013 17.1690006
142.718597 -76.2734985 17.2849007
142.739594 -76.3569031 17.6214008
142.601501 -76.1134033 7.84060001
142.6026 -76.0279007 10.1018
142.621399 -76.1074982 10.4503002
142.641998 -76.0943985 10.6581001
142.6353 -76.1171036 10.8016996
142.710754 -76.1323547 12.9322004
142.694901 -76.0201035 13.0084
142.725494 -76.1612015 13.6534004
142.715698 -76.1657028 14.2227001
142.697052 -76.0409546 14.5086994
142.741898 -76.1556015 15.3074999
142.758102 -76.0177994 15.4946003
142.748505 -76.1415024 15.6134005
142.698303 -76.001503 16.1215992
142.696304 -76.1570969 16.2493992
142.713394 -76.1746979 17.1359005
142.793503 -76.1253967 17.2812996
142.75 -76.1152496 17.46875
142.632294 -75.8102036 10.3582001
142.622604 -75.884903 12.7393999
142.709702 -75.9358978 12.8460503
142.609497 -75.9793015 13.8526001
142.7798 -75.8800049 15.5154495
142.726898 -75.9897995 16.8698997
142.720093 -75.9141006 17.1317997
142.643799 -75.7136993 11.2081003
142.632904 -75.7393036 11.5803003
142.603607 -75.6486969 11.6513996
142.670197 -75.7169037 11.9603996
142.672607 -75.7288971 12.3744001
142.647003 -75.6287003 12.9439001
142.638794 -75.7649994 13.1278
142.656097 -75.6295013 13.7772999
142.675598 -75.6568985 14.0667
142.621597 -75.7789993 14.5236998
142.649307 -75.6638031 14.7097998
142.677795 -75.7626038 14.8865995
142.784103 -75.7637024 15.4398003
142.734894 -75.7508011 16.0944004
142.610794 -75.5970001 9.87479973
142.691406 -75.4866028 11.9322004
142.737 -75.4056015 12.5734997
142.626495 -75.4652023 12.6754999
142.714294 -75.5261993 13.0656004
142.672104 -75.4985962 13.3375998
142.706497 -75.4578018 13.8111
142.788193 -75.5960999 14.7212
142.706406 -75.4915009 14.9392004
142.706299 -75.427002 15.0396996
142.696594 -75.5353012 15.6469002
142.666748 -75.4690018 16.1603012
142.687698 -75.5024033 16.3469009
142.758194 -75.509201 16.4673996
142.645798 -75.3233032 11.0573006
142.601593 -75.3723984 11.2574997
142.631104 -75.3659515 11.9006004
142.613007 -75.2285995 14.4785995
142.630203 -75.3209991 15.1445999
142.622696 -75.3074036 16.1602001
142.632095 -75.2124023 16.3068008
142.666 -75.2298965 16.5326004
142.763 -75.3927994 18.1580009
142.602997 -75.1921005 8.82999992
142.623795 -75.1367035 10.5727997
142.638702 -75.0814972 11.3873997
142.6465 -75.0208969 13.0788002
142.6418 -75.1577988 13.3559999
142.666702 -75.1266022 13.9305
142.627808 -75.1533966 14.0621996
142.647903 -75.1582031 14.9844999
142.683701 -75.0727005 15.7573004
142.790604 -75.0766983 16.7758007
142.724792 -75.0440979 17.4633999
142.627808 -74.8731995 9.64389992
142.629196 -74.8627014 10.5523996
142.631805 -74.8116989 11.5206003
142.655502 -74.973999 13.8561001
142.711304 -74.9952011 14.3254995
142.671097 -74.9018555 14.61415
142.658997 -74.973999 15.0422001
142.680801 -74.9187012 15.3114996
142.662506 -74.8988037 15.6615
142.627304 -74.9460983 15.9428997
142.710205 -74.8041992 16.3446999
142.709106 -74.9756012 16.4934998
142.679352 -74.8762054 16.7109509
142.650604 -74.8961029 17.9575996
142.612701 -74.6113968 14.3695002
142.698593 -74.7612 15.7563
142.760101 -74.7612991 17.3381004
142.619293 -74.6779022 18.0825005
142.649002 -74.4765015 13.3582001
142.648193 -74.4011002 13.9582005
142.672302 -74.4088974 14.2322998
142.670959 -74.508606 15.0718002
142.627747 -74.5848999 15.4875498
142.666107 -74.4475021 15.7833004
142.6474 -74.4302979 16.0440006
142.755005 -74.4504013 16.9316998
142.689896 -74.3546982 13.7215996
142.601807 -74.2462997 14.2456999
142.629105 -74.2447968 15.0459995
142.6828 -74.2472 16.7975998
142.673096 -74.2687988 17.5338001
142.706894 -74.2228012 17.632
142.7034 -74.2451019 17.9512005
142.6586 -74.3841019 18.0951004
142.633194 -74.0837021 11.335
142.654297 -74.1324005 11.9514999
142.620605 -74.1567001 13.1370001
142.676804 -74.1959991 14.6906996
142.642807 -74.0687027 14.9540997
142.658798 -74.1715012 16.1546993
142.731995 -74.1847992 16.5883007
142.634903 -73.9496002 12.1878996
142.617905 -73.8237991 12.9559002
142.616501 -73.8742981 13.3444996
142.681396 -73.8125992 14.6379995
142.639496 -73.9564972 15.5445995
142.633301 -73.9813004 17.3967991
142.635498 -73.9942017 18.0468006
142.602402 -73.6660995 11.9027004
142.600204 -73.6607971 14.7319002
142.653305 -73.7721024 16.3749008
142.641098 -73.7584 17.1105003
142.651352 -73.705246 17.9426498
142.671097 -73.7244034 18.0389996
142.610794 -73.4645996 13.4187002
142.657593 -73.5765991 16.2600002
142.61705 -73.5555496 16.9084511
142.733093 -73.4393005 18.031601
142.672195 -73.5951004 18.2971992
142.603699 -73.3702011 12.8880997
142.612198 -73.2409973 14.7603998
142.609802 -73.395401 16.0109997
142.648605 -73.3410034 16.3591003
142.622604 -73.3391037 16.6917
142.617493 -73.0794983 12.2612
142.653793 -73.1316986 14.3421001
142.6465 -72.9558029 14.9187002
142.633102 -72.9580994 15.1899996
142.704803 -72.6791992 13.3657999
142.604599 -72.6682968 14.9435997
142.656494 -72.7735977 16.1231995
142.65741 -72.6376038 16.4736004
142.615402 -72.7969971 17.8652992
142.603607 -72.4008026 12.0843
142.626297 -72.543602 16.1912003
142.653503 -72.2341003 14.6927004
142.602097 -72.0551987 14.6068001
142.639694 -72.1464996 16.5340004
142.622406 -71.7413025 17.0042992
142.617996 -71.6146011 17.3799
142.823807 -79.9166031 9.01900005
142.800995 -79.9168015 10.4198999
142.820999 -79.904953 11.2863998
142.8367 -79.8990021 11.9428997
142.867294 -79.8170013 12.4111996
142.882706 -79.8844986 13.3908997
142.808899 -79.9160004 13.4575005
142.855698 -79.9729996 13.625
142.949905 -79.9753036 16.3691006
142.914551 -79.8983994 16.5171013
142.829193 -79.7072983 11.0493002
142.809204 -79.6766968 12.5462999
142.822296 -79.6790009 13.9022999
142.848007 -79.7371979 14.2257996
142.815994 -79.7011032 14.4300003
142.8134 -79.6622009 14.9400997
142.862793 -79.6358032 16.3724995
142.8815 -79.6483002 16.5632
142.826599 -79.4997025 11.2132998
142.864502 -79.5101013 12.9731998
142.806595 -79.5799026 13.0527
142.808594 -79.5865021 13.8951998
142.828003 -79.4816971 14.4491997
142.970306 -79.407402 15.0141001
142.850693 -79.3943024 11.4462004
142.832001 -79.2846985 11.6134996
142.807907 -79.3840027 14.1240997
142.862595 -79.2480011 14.8741999
142.893295 -79.324501 15.0514002
142.829697 -79.1427002 11.7053003
142.811203 -79.1379013 11.9747
142.842102 -79.0093002 15.9934998
142.880707 -79.0483017 16.4279003
142.802597 -78.9280014 13.2614002
142.876297 -78.8243027 14.8825998
142.836105 -78.9058685 15.5441666
142.843506 -78.8486023 16.1082993
142.808502 -78.7451019 16.0478001
142.855698 -78.6248016 17.2544003
142.820602 -78.5179977 13.1893997
142.849152 -78.527298 17.0868492
142.841995 -78.2844009 9.98139954
142.800201 -78.2210999 11.3949003
142.804504 -78.300499 13.0790997
142.815201 -78.3047028 13.6871004
142.891663 -78.302948 15.6613007
142.804199 -78.1950989 13.7079
142.801407 -78.1682968 14.4526997
142.862396 -78.1750031 15.7655001
142.810303 -78.1372986 15.967
142.826599 -78.1938019 16.5935993
142.899094 -77.9654007 11.9125996
142.802795 -77.9059982 12.5016003
142.848602 -77.9629974 15.6156998
142.928802 -77.9841003 17.2513008
142.877304 -77.6228027 5.76350021
142.838699 -77.7923965 12.5817003
142.829498 -77.612999 16.0757008
142.848099 -77.7319031 17.2597008
142.967407 -77.5854034 8.84280014
142.984497 -77.3760986 8.34519958
142.965698 -77.3274002 8.4843998
142.817398 -77.3528976 15.5475998
142.951904 -77.2330017 15.9342003
142.889999 -77.2365036 17.3358994
142.841507 -77.3182983 17.4745998
142.811295 -77.1800995 15.6070004
142.8078 -77.0422974 16.3411999
142.941803 -76.9990997 5.62580013
142.867401 -76.9573975 13.4261999
142.881409 -76.9746552 17.5320511
142.811707 -76.8365021 17.6483994
142.808807 -76.7901993 13.9736004
142.812103 -76.7855988 17.5238991
142.812302 -76.1267014 17.5515003
142.812195 -72.5017014 17.5676003
143.034607 -79.1305008 16.9662991
143.001007 -78.3455963 6.01109982
143.002197 -77.6830978 6.09210014
143.112503 -77.4707031 8.62870026
143.059998 -76.9985962 5.66109991
143.014008 -76.9924011 8.39729977
150.426102 -73.7955017 4.86759996
150.865402 -72.9121017 0.629800022
153.120697 -77.6078033 0.916599989
154.592697 -78.3837967 2.28999996
154.796494 -78.4409027 1.69889998
154.704498 -78.5109558 2.15065002
154.999207 -79.4041977 0.268599987
154.844101 -79.3778992 0.199200004
154.827393 -79.2608032 0.630299985
154.962204 -78.4695969 1.55610001
154.909805 -78.3215027 1.29620004
155.148895 -79.3839035 0.0513999984
155.052902 -79.2708969 0.755500019
155.115494 -79.3597031 0.870400012
155.179001 -78.4716034 1.59000003
155.3461 -79.2388 0.405299991
155.272598 -78.4792023 1.33589995
155.308807 -77.7096024 0.691299975
155.556061 -79.4313049 0.445800006
155.448807 -79.4717026 0.618600011
155.456299 -79.316597 -0.436399996
155.411407 -78.0877991 1.10179996
155.722305 -79.6039963 0.819000006
155.612854 -79.516449 -0.462150007
155.790207 -79.5681 0.728399992
155.648605 -79.3893967 -0.330300003
155.671402 -79.3235016 0.106399998
155.675705 -77.9689026 1.17750001
155.639801 -77.6672974 1.14810002
155.916901 -79.7132034 0.198599994
155.977905 -79.7330017 0.255600005
155.968506 -79.729599 0.472799987
155.8573 -79.4253998 0.0691
155.918854 -79.4967499 0.274250001
156.194305 -79.8235016 0.310200006
156.005096 -79.7130966 0.0891000032
156.062698 -79.7393036 0.309199989
156.039001 -79.6585007 0.594200015
156.104797 -79.5563965 0.230800003
156.191605 -77.7134018 -0.153400004
156.268402 -77.6858978 0.0441000015
156.732498 -79.4804001 0.3389
156.654694 -79.4377518 0.475950003
156.761703 -79.3610001 0.680400014
156.768097 -79.0595016 -0.371100008
156.730698 -78.9639969 -0.0688000023
156.755203 -78.6589966 0.0399000011
156.898407 -79.6327972 0.618099988
156.845001 -79.4500504 0.30309999
156.992599 -79.2844009 -0.131200001
156.922394 -79.3312988 0.1184
156.869904 -79.3524017 0.651799977
156.878204 -79.0605011 -0.282799989
156.959305 -79.0010986 0.336800009
156.853699 -79.1608963 0.917900026
156.845062 -78.9188538 -0.499499977
157.098297 -79.6047974 -0.406199992
157.145493 -79.5084 -0.0973000005
157.143799 -79.581604 0.129500002
157.043594 -79.3544006 1.20249999
157.139496 -78.8697968 0.783800006
157.185104 -77.8936996 -0.29519999
157.266693 -79.6376038 -0.495700002
157.219101 -79.7502975 0.592100024
157.216309 -79.5785065 -0.327899992
157.270599 -79.5393982 0.163299993
157.278198 -79.3126984 0.898499966
157.307404 -79.3674011 1.02499998
157.261398 -77.7546005 -0.407999992
157.305252 -74.6848984 1.50620008
157.282898 -74.5355988 1.56190002
157.354004 -74.4686966 1.65540004
157.403397 -79.5421982 0.250400007
157.4888 -79.3164978 0.211500004
157.454697 -74.6569977 1.59889996
157.727798 -79.5354996 0.139899999
157.730606 -79.1144028 0.222299993
157.948807 -79.7017975 0.168599993
157.897995 -79.6283035 0.273799986
157.882294 -79.4792023 0.0465999991
157.942703 -79.4847717 0.527400017
157.852493 -79.3154984 0.226400003
157.810303 -79.2757034 0.402200013
157.807297 -74.0875015 1.60020006
158.176697 -79.9496994 0.163599998
158.199295 -79.8844986 0.3037
158.018997 -79.7628021 0.192900002
158.037903 -79.6044006 0.612900019
158.055206 -79.5981979 -0.412299991
158.0681 -79.5376968 -0.353500009
158.017899 -79.4077988 -0.1065
158.293503 -60.0923004 5.73129988
158.507294 -78.2409973 -0.463
158.584793 -78.146698 -0.452699989
158.462494 -77.9794998 -0.399300009
158.472702 -77.4552002 0.224700004
158.513794 -73.4395981 1.49259996
158.981094 -79.7158966 -0.0873999968
158.883728 -79.4257965 0.124466665
158.895798 -79.3160019 0.236450002
158.830505 -73.6498032 1.5395
159.064545 -79.5009003 0.0755999982
159.087601 -79.4888 0.481000006
159.1521 -75.4132004 1.85930002
159.010696 -73.6500015 1.73210001
159.2211 -79.4936981 0.1954
159.373901 -75.8944016 1.9023
159.290955 -75.8569031 2.01709986
159.242859 -75.6818008 1.32354999
159.264893 -75.6886978 1.88880002
159.362198 -75.6672974 2.05760002
159.366699 -75.6066971 2.2513001
159.200897 -75.5136032 1.83500004
159.396301 -75.5523987 2.57739997
159.515991 -79.7236023 -0.052699998
159.481796 -79.6248016 0.184200004
159.5793 -79.683403 0.349900007
159.516602 -79.5134964 0.322400004
159.475098 -77.9431 0.421499997
159.496094 -77.8251038 0.710900009
159.463394 -75.9639969 1.51600003
159.466995 -75.946701 1.61000001
159.491608 -75.7254028 2.09539986
159.480392 -75.6751328 2.4714334
159.414001 -75.5921021 2.23580003
159.469101 -60.2126007 5.47209978
159.765594 -79.7940979 -0.0744000003
159.605698 -79.4725037 -0.317499995
159.703537 -79.526268 0.297966659
159.601501 -77.5636978 0.612600029
159.7164 -76.2959976 1.24960005
159.761505 -76.3735962 1.9411
159.738693 -76.2149963 2.02830005
159.741104 -76.0361023 1.91733336
159.798096 -75.9673996 2.33039999
159.731003 -75.7962036 1.76970005
159.621307 -75.6968994 1.92970002
159.705597 -75.714798 2.29859996
159.691803 -75.6203003 2.76909995
159.680496 -75.4570999 2.34489989
159.654495 -75.5297012 2.60949993
159.946304 -79.5566025 -0.275099993
159.899597 -76.3205032 1.40100002
159.812897 -76.2130966 1.67809999
159.807297 -76.3750992 2.17319989
159.891098 -76.123703 1.47230005
159.848801 -76.0407028 2.19689989
159.938095 -75.944397 1.35829997
159.881393 -75.8836975 1.6142
159.952972 -75.860321 2.46005011
159.845703 -75.6903 2.49640012
159.903595 -75.6383972 2.6947999
159.898407 -73.8710022 1.59280002
