# .PCD v0.7 - Point Cloud Data file format
VERSION 0.7
FIELDS x y z
SIZE 4 4 4
TYPE F F F
COUNT 1 1 1
WIDTH 347
HEIGHT 1
VIEWPOINT 0 0 0 1 0 0 0
POINTS 347
DATA ascii
25.2959003 -95.2538986 3.69230008
25.5723991 -95.6210022 4.20699978
25.7483997 -95.4169998 3.21429992
25.9377003 -95.8386993 3.56110001
25.9612007 -95.5930023 3.6394999
26.1096992 -95.7024994 1.93069994
26.1035995 -95.663002 2.31150007
26.1058006 -95.6120987 4.29820013
26.1019001 -95.5876999 2.4382
26.1371002 -95.5792999 2.95149994
26.0662994 -95.4002991 3.20810008
26.2654991 -95.7344971 2.55290008
26.3075008 -95.722702 2.98589993
26.2717991 -95.527298 2.96009994
26.2257004 -82.7218018 3.62969995
26.5184994 -95.9646988 5.26020002
26.5832996 -95.7410965 4.29160023
26.5641994 -95.4834976 2.48049998
26.6956005 -96.8405991 5.67999983
26.6588993 -96.5522003 5.74389982
26.7297001 -96.2347031 5.43410015
26.7099991 -95.6740036 1.86880004
26.6002998 -95.7441025 4.51359987
26.6338005 -95.7260971 4.64370012
26.6739006 -95.4714966 3.01049995
26.9715996 -96.6619034 4.80439997
26.9151001 -96.7776031 5.44640017
26.9972 -96.5500031 5.14359999
26.9666004 -96.3343964 5.07630014
26.8414001 -95.6258011 2.22469997
26.8740005 -95.7241974 4.26230001
26.9130993 -95.5315018 1.8089
27.0373993 -97.050499 5.25880003
27.1697006 -96.8388977 4.28679991
27.1107006 -96.9949036 4.73460007
27.1602993 -96.5641022 4.40500021
27.1910992 -96.3310013 4.03429985
27.0403996 -96.055603 4.34784985
27.1523991 -95.8219986 4.06699991
27.1912994 -95.7481003 1.17639995
27.0233994 -95.7841034 4.74989986
27.0450001 -95.5027008 2.08599997
27.2556992 -97.3714981 3.57329988
27.3911991 -97.1215973 3.63529992
27.2619991 -96.9177017 3.71309996
27.3658009 -96.5924988 3.86039996
27.2360992 -96.5594025 4.00509977
27.2784996 -96.3779984 3.61190009
27.2429504 -96.3098984 4.08354998
27.3773994 -96.1976013 3.64400005
27.3533993 -96.1205978 4.01480007
27.2119007 -95.6631012 1.36489999
27.2325993 -95.637001 1.76779997
27.3452988 -95.7057495 2.51320004
27.2758503 -95.7587433 3.84375
27.5991993 -97.7550964 1.91299999
27.5184994 -97.6930008 2.69759989
27.5284004 -97.4952011 1.23829997
27.4974003 -97.4730988 1.79400003
27.5240002 -97.4890976 1.84119999
27.5163994 -97.5167007 2.21210003
27.5594006 -97.5754013 2.77740002
27.5298996 -97.5184021 2.88969994
27.519249 -97.4976044 3.46099997
27.5634003 -97.3749008 1.04690003
27.4235001 -97.3666 1.47280002
27.4407997 -97.2177963 2.2414
27.4500008 -97.3231964 2.88339996
27.4528008 -97.3326035 3.8605001
27.5503998 -97.0149002 0.832199991
27.5174007 -97.1735001 1.08679998
27.4361992 -97.1251984 1.30799997
27.5275993 -97.1071014 2.1329999
27.5883007 -97.1362 2.22020006
27.5339661 -97.0951004 2.48646665
27.4811001 -97.0251007 2.61120009
27.4281998 -97.0335999 3.40510011
27.5088005 -96.9097977 0.808200002
27.4622993 -96.9448013 1.73269999
27.5130005 -96.9776993 1.98710001
27.5389004 -96.9115982 2.76690006
27.5716991 -96.8989029 3.29049993
27.5496006 -96.6470032 1.01740003
27.5249004 -96.6176987 1.64479995
27.5652008 -96.6443024 2.14759994
27.5244007 -96.7209015 2.96020007
27.5925999 -96.408699 1.21340001
27.5053005 -96.5805969 1.61679995
27.5976009 -96.4414978 2.43560004
27.5312996 -96.5102997 2.96560001
27.4673996 -96.2109985 0.868600011
27.4754009 -96.354599 1.37360001
27.5119991 -96.2769012 1.49989998
27.5580006 -96.2574005 1.9734
27.5409012 -96.2434006 2.43865013
27.4782009 -96.2358017 2.93790007
27.5319004 -96.3855972 3.15249991
27.5601997 -96.1009979 1.09739995
27.5156994 -96.1677017 1.61670005
27.5739994 -96.0587997 1.9102
27.5440998 -96.1164017 2.10100007
27.5419006 -96.0024033 2.21810007
27.5086002 -96.1406021 2.74574995
27.5778999 -96.0036011 2.83649993
27.5484009 -96.1535034 3.08529997
27.4799995 -95.967598 1.39219999
27.4533005 -95.9250031 2.01959991
27.4770508 -95.9290466 2.32434988
27.5130997 -95.918602 2.51390004
27.5400009 -95.9030991 2.95790005
27.4459 -95.7888031 1.93780005
27.4860001 -95.6269989 2.0697999
27.4321003 -95.6744003 2.27609992
27.4447994 -95.6458969 2.75519991
27.4755993 -95.7918015 2.89770007
27.5771999 -95.7938004 3.13409996
27.5191994 -95.6669006 3.25839996
27.4962006 -95.5747986 2.65549994
27.4643002 -95.584198 3.28410006
27.7672005 -98.2394028 2.5007
27.6534004 -97.9738007 1.96759999
27.7292995 -97.8944016 3.53480005
27.6102009 -97.4669037 3.20659995
27.6319008 -97.3294983 2.63140011
27.6592999 -97.2699966 3.39969993
27.6096001 -96.0866013 2.06340003
27.6035004 -95.6043015 3.31469989
27.9855003 -94.4611969 3.97650003
29.7784004 -82.0884018 0.643299997
29.8920994 -96.2136002 3.81900001
29.8265991 -82.3886032 0.823599994
29.8619003 -82.3544998 1.10599995
30.1575012 -96.2750549 4.8522501
30.0925999 -96.1990967 5.08069992
30.0473003 -96.1583023 5.50209999
30.0839996 -95.9014969 4.32460022
30.1868992 -95.8896027 4.41620016
30.1182995 -95.9117966 4.72830009
30.0792007 -95.9179535 5.13685036
30.0972004 -95.7907028 4.14209986
30.1518517 -95.7162476 4.31610012
30.1114006 -95.6753998 4.66190004
30.0042 -95.7959976 5.54400015
30.1075516 -95.4690552 4.08965015
30.052 -95.5287018 4.33699989
30.3251991 -96.2947006 4.32719994
30.3638992 -96.1074982 3.64339995
30.3563995 -95.8134003 3.87400007
30.2327003 -95.928299 4.3361001
30.3544998 -95.6177979 3.98779988
30.2380009 -95.5645981 3.83660007
30.552 -96.7291031 4.2968998
30.5021 -96.4213028 4.52729988
30.5303993 -96.0292969 1.23529994
30.4020004 -96.0585022 3.7098999
30.5431004 -96.0691986 4.00479984
30.5757008 -96.1776962 4.25460005
30.4192009 -95.8190002 3.64510012
30.4902 -95.8630981 4.29809999
30.6371994 -96.9168015 4.61399984
30.6471996 -96.3924026 3.76950002
30.7317009 -96.0397034 3.96510005
30.7621994 -96.1345978 4.32480001
30.7131004 -96.0147018 4.78970003
30.9307003 -96.3786011 4.25699997
30.8502007 -96.3610992 4.61800003
30.8428993 -96.1024017 4.68970013
31.5965996 -82.9832993 3.27060008
31.6438999 -82.3063965 4.05709982
31.7409 -82.1257019 3.34719992
31.7973003 -82.1673965 3.44120002
31.7805004 -81.9737015 3.21280003
31.7539997 -81.7801971 3.63120008
32.0027008 -81.9220963 3.39280009
35.8869019 -95.1577988 4.87109995
35.9258003 -95.1368027 5.26779985
36.2731018 -95.0170975 4.83430004
37.3848 -95.0378036 3.65860009
37.4972992 -95.2468033 3.99760008
37.4896011 -95.3753967 5.08860016
37.5800018 -94.919899 3.69980001
37.5382004 -94.8299026 5.05859995
37.5778999 -94.9973984 6.00579977
37.5127983 -94.4981995 4.04659986
37.5447006 -94.5510025 6.13840008
37.5541 -94.2590027 5.24889994
37.6938019 -95.9983978 4.67519999
37.7251015 -95.5291977 3.69429994
37.7691002 -95.2574997 3.75699997
37.6288986 -95.2266006 4.42600012
37.7723007 -95.0707016 4.19490004
37.7198982 -95.1648026 4.94859982
37.6199493 -94.9133453 3.46204996
37.7152481 -94.9157486 4.1635499
37.6483002 -94.9119034 4.25019979
37.787899 -94.9499969 4.46750021
37.637001 -94.895401 5.78060007
37.6186981 -94.9581985 5.85839987
37.6178017 -94.8839035 6.2519002
37.6823997 -94.6867981 5.92999983
37.6007996 -94.381897 5.5323
37.8785019 -95.2715988 3.76810002
37.9271011 -95.2628021 4.97949982
37.8653984 -95.1009979 4.10379982
37.8349991 -95.0295029 4.27580023
37.8565979 -95.1421967 5.09895039
37.8728981 -95.0807037 5.25990009
37.9766998 -95.0720978 7.41769981
37.8622017 -94.8998032 4.56419992
37.8927002 -94.7881012 4.95240021
38.1733017 -95.9150009 1.69449997
38.0391998 -95.6340027 5.25369978
38.0035019 -95.2777023 4.18569994
38.1852989 -95.3410034 6.54470015
38.0275993 -95.1678009 4.47739983
38.0168991 -95.0735016 5.17229986
38.026001 -95.1514969 5.31610012
38.0569 -95.0005035 5.55660009
38.1459999 -95.0998001 6.34899998
38.0488014 -94.7078018 4.9053998
38.362999 -96.1703033 1.31959999
38.3306999 -96.0850983 1.8441
38.2027016 -95.9794006 1.6681
38.2210999 -95.8255005 1.81140006
38.3022003 -95.7166977 2.14400005
38.3307991 -95.7357025 2.2895999
38.3354988 -95.6287003 3.40799999
38.3720016 -95.7033997 3.76250005
38.3722992 -95.6052017 3.99070001
38.3661995 -95.6103973 7.54419994
38.3376999 -95.4747009 6.11469984
38.3773994 -95.3884964 5.39489985
38.2559013 -95.2618027 6.63719988
38.3791008 -95.3404007 6.83739996
38.2967987 -95.2548981 7.24039984
38.3234024 -95.3451004 7.5609498
38.4900513 -96.0659027 4.10060024
38.4698982 -96.1115036 5.74130011
38.5681992 -96.1772995 5.81290007
38.513401 -95.9774017 4.10179996
38.5654984 -95.8412018 5.50740004
38.4107513 -95.6844025 3.88864994
38.5685997 -95.6939011 6.97819996
38.4431992 -95.5541 5.45879984
38.4243011 -95.4293976 5.97749996
38.5612984 -95.4516983 6.33120012
38.4049988 -95.5302963 6.69040012
38.5475006 -95.5811005 6.92269993
38.4463005 -95.5942993 7.06239986
38.4808998 -95.3803024 7.15799999
38.5202332 -95.0941315 5.57696676
38.5158005 -95.0329971 5.82770014
38.4393997 -95.1573029 6.00430012
38.4821014 -94.8933029 5.85820007
38.5065994 -92.5783997 0.98299998
38.780899 -97.8447037 1.2148
38.6091995 -96.8175964 4.09609985
38.699501 -96.4794998 3.95709991
38.7175522 -96.3731537 3.89645004
38.6027985 -96.1676025 5.76210022
38.7056007 -96.0000992 6.99790001
38.600399 -95.7693024 6.15070009
38.6481018 -95.6343994 6.20800018
38.6441002 -95.7835999 6.92990017
38.7355003 -95.7306976 7.02689981
38.607399 -95.5645981 6.2665
38.7756004 -95.0950012 3.0862
38.7644005 -94.7813034 4.2968998
38.9077988 -97.2738037 3.57800007
38.8070984 -97.0764008 3.3763001
38.9584999 -96.8603973 3.68149996
38.9001999 -96.5617981 3.72869992
38.8703995 -96.4726486 3.90435004
38.9243011 -95.8656998 6.00220013
38.9720001 -95.822197 6.33190012
38.8614006 -95.6875 2.92709994
38.8947983 -95.7507019 3.53239989
38.8051987 -95.6813965 6.16410017
38.8450012 -95.3026962 2.96440005
38.8951988 -95.2694016 3.29710007
38.9945984 -95.3835983 3.67770004
38.9664001 -95.2148972 4.22359991
38.9693985 -95.0425034 4.94269991
38.9519997 -95.1259995 5.28399992
39.0065002 -96.4288025 3.76850009
39.0391998 -96.1352005 6.36660004
39.1506996 -95.8584976 5.18520021
39.1212997 -95.7845993 5.64849997
39.014801 -95.5399017 3.12549996
39.1481018 -95.5873032 4.91470003
39.0074997 -95.4628983 6.66029978
39.0049019 -95.2705002 3.59940004
39.178299 -95.3410034 4.93879986
39.0349998 -95.1650009 4.51219988
39.3095016 -97.1125031 4.97090006
39.2431984 -96.7460022 3.35170007
39.3828011 -96.6492004 4.92859983
39.3483009 -96.7399979 5.32719994
39.2568016 -96.5967026 3.85229993
39.2764015 -96.4026031 4.34600019
39.344799 -96.4904022 5.3592
39.228199 -96.217598 5.52260017
39.2957001 -96.1493988 3.34109998
39.2293015 -96.1548004 3.46350002
39.3685989 -96.0550995 5.01410007
39.389801 -95.6641998 4.84569979
39.2230988 -95.5709 4.9453001
39.2290993 -95.3614044 5.12559986
39.3096008 -94.9946976 4.4769001
39.5119019 -97.4606018 4.09049988
39.5610008 -97.5412979 4.26480007
39.5443993 -97.2505035 4.18380022
39.4463997 -97.0839996 4.01900005
39.5168991 -97.1285019 4.38100004
39.5553017 -96.6750031 5.27199984
39.4896011 -96.5315018 3.31085014
39.5079002 -96.5919037 4.90509987
39.5919991 -96.3546982 3.32909989
39.5923004 -96.2562027 4.40829992
39.4059982 -96.3227005 5.07110023
39.5276985 -96.1044006 4.03490019
39.5463982 -96.1771011 4.4513998
39.5522995 -96.066803 5.14359999
39.4979515 -95.8843994 4.73180008
39.4659996 -95.7332993 4.74370003
39.5587006 -95.2074966 4.50220013
39.4348984 -95.3343964 5.05600023
39.5588989 -94.9367981 4.24090004
39.5988998 -94.9431 4.44469976
39.6096992 -97.4587021 4.33640003
39.6692009 -97.5924988 4.56389999
39.6099014 -97.2052994 3.9460001
39.6870995 -96.9216995 3.99289989
39.7092018 -96.4255981 4.26429987
39.6230011 -96.4758987 5.1079998
39.6609993 -96.3481979 4.58519983
39.7859993 -96.0839996 4.23969984
39.6118011 -95.8122025 4.61409998
39.6795006 -95.6238022 4.29920006
39.6150017 -95.6735992 4.72910023
39.6520996 -95.3535995 3.8973
39.6486015 -95.1147003 4.01140022
39.655899 -94.9011993 4.32429981
39.7372017 -94.987999 4.40019989
39.821701 -97.1817017 4.5250001
39.8339005 -96.7139969 4.24870014
39.8375015 -94.9869995 1.00800002
