# .PCD v0.7 - Point Cloud Data file format
VERSION 0.7
FIELDS x y z
SIZE 4 4 4
TYPE F F F
COUNT 1 1 1
WIDTH 41
HEIGHT 1
VIEWPOINT 0 0 0 1 0 0 0
POINTS 41
DATA ascii
143.893204 -196.5439 2.11089993
150.313904 -195.806198 2.11439991
150.240295 -194.004807 2.18460011
150.341202 -193.967697 5.08150005
150.491501 -194.996307 2.10159993
150.902802 -193.734695 5.41169977
151.123398 -193.609894 5.40390015
151.372803 -193.137497 1.02929997
151.415497 -194.759796 4.5085001
151.912796 -194.773605 2.43120003
152.214905 -193.449707 4.58050013
152.4935 -195.468506 4.12340021
152.559906 -195.137405 3.74239993
152.564896 -195.086807 3.83209991
152.4366 -194.445694 3.68409991
152.451904 -193.456207 4.29640007
152.444199 -193.144501 5.08319998
152.792694 -196.511902 3.12380004
152.744293 -194.828201 4.01319981
152.915497 -196.059494 3.81750011
152.898407 -196.115906 4.05560017
152.804596 -195.758804 4.13719988
152.965195 -195.674393 4.30560017
152.990906 -195.382706 4.14160013
152.864441 -194.48465 3.56990004
152.974792 -194.300003 3.30360007
152.962906 -194.332108 3.63759995
153.039001 -196.130493 3.88199997
153.0466 -196.113708 4.31309986
153.162003 -195.482498 4.55060005
153.071304 -195.099396 3.47970009
153.196304 -194.920502 2.62479997
153.108307 -194.929993 3.69169998
153.123398 -193.938797 2.85439992
153.105804 -192.720993 0.636399984
153.543869 -194.077469 3.72356677
153.644394 -195.506699 2.64720011
153.753799 -192.843002 1.17349994
154.0056 -192.748703 0.962300003
157.240997 -195.120804 2.89720011
158.598907 -197.558502 1.13520002
