# .PCD v0.7 - Point Cloud Data file format
VERSION 0.7
FIELDS x y z
SIZE 4 4 4
TYPE F F F
COUNT 1 1 1
WIDTH 54
HEIGHT 1
VIEWPOINT 0 0 0 1 0 0 0
POINTS 54
DATA ascii
301.216614 -219.507706 11.8500004
301.35791 -218.752808 12.2208996
303.583893 -200.505402 11.5901003
303.48941 -200.307495 11.7206001
303.934601 -200.819595 11.7744999
303.897003 -200.631607 9.85159969
303.933411 -200.697495 11.6779003
304.028503 -200.563797 9.77280045
304.577393 -201.730499 11.6240997
304.710297 -202.638901 11.9281998
306.089294 -205.444305 10.2517996
306.002289 -205.508606 10.4622002
306.288513 -205.255096 10.9919996
306.591614 -206.344101 11.5783005
306.798798 -213.454605 8.9993
306.786194 -211.777802 10.3594999
306.710693 -211.680405 10.7040997
306.910492 -213.244598 9.13469982
306.939392 -213.151993 10.0768995
306.840698 -211.802399 10.1478996
306.855103 -211.600403 10.2515001
306.86322 -211.585251 10.5047998
307.153687 -213.174606 10.7727003
307.247803 -213.120697 8.74880028
307.379791 -212.920303 10.0558004
307.312897 -212.666992 10.1399498
307.320404 -212.767593 10.4968004
307.393402 -212.425598 10.0184002
307.336487 -212.490906 10.8535004
307.301697 -210.080795 10.6069002
307.516296 -213.709305 10.283
307.4039 -213.274002 10.7219
307.593597 -212.303894 10.2458
307.440704 -212.334793 11.1046
307.43811 -212.175995 9.94209957
307.499207 -211.187897 11.2034998
307.408386 -210.221405 10.3099003
307.567505 -210.174805 9.72210026
307.455994 -209.906494 10.1426001
307.61261 -210.149902 9.40600014
307.778198 -209.496201 9.49040031
307.785187 -204.497803 10.9196997
307.890808 -211.862396 11.4969997
308.008209 -211.811096 11.3527002
308.071899 -211.918198 11.6262999
308.044189 -211.678299 11.7142
308.050598 -211.515305 11.2819004
308.147614 -209.647095 10.0783005
308.323792 -203.126007 12.6743002
308.577698 -210.452103 11.1612997
308.543396 -209.406494 10.9054003
308.567413 -202.678497 13.0180998
308.733307 -210.649704 11.1724997
309.623688 -213.387299 12.1926003
