# .PCD v0.7 - Point Cloud Data file format
VERSION 0.7
FIELDS x y z
SIZE 4 4 4
TYPE F F F
COUNT 1 1 1
WIDTH 16
HEIGHT 1
VIEWPOINT 0 0 0 1 0 0 0
POINTS 16
DATA ascii
55.2535019 41.9026985 -0.754299998
55.5764008 41.0079002 -0.516900003
55.495697 41.7828979 -1.02099991
55.4356995 41.8796005 -1.19340003
56.0667 48.4006996 -0.845200002
56.2965012 41.6766014 -0.372299999
56.5665016 41.1206017 0.679400027
56.4575996 45.0602989 1.87890005
56.6678009 41.0709 0.5
56.6719017 41.776001 1.49730003
56.657299 44.9292984 2.25329995
56.6521988 47.1696014 -0.0489000008
57.0794983 42.2881012 2.21749997
57.3670006 42.6479988 1.70369995
57.3154984 44.3595009 2.90079999
57.7630997 40.6940002 2.58249998
