# .PCD v0.7 - Point Cloud Data file format
VERSION 0.7
FIELDS x y z
SIZE 4 4 4
TYPE F F F
COUNT 1 1 1
WIDTH 621
HEIGHT 1
VIEWPOINT 0 0 0 1 0 0 0
POINTS 621
DATA ascii
261.133789 -285.500793 9.30799961
262.72879 -290.917511 4.14779997
262.768799 -290.629791 2.62969995
262.732697 -290.494598 3.33279991
262.955505 -292.182587 3.91109991
262.985199 -291.844696 2.20779991
262.943848 -291.885101 3.50689983
262.888794 -291.956696 4.30940008
262.975891 -291.726013 3.59669995
262.977478 -291.707886 3.66514993
262.909088 -291.77301 3.9691
262.9729 -291.422485 3.04229999
262.951508 -291.446686 3.21199989
262.943207 -291.567505 3.58389997
262.897308 -291.22229 2.38059998
262.93811 -291.220306 3.17939997
262.855286 -291.077087 3.89429998
262.860992 -290.626007 2.79329991
262.826599 -290.703796 3.86240005
263.134949 -292.465454 2.89244986
263.049408 -292.30011 2.76379991
263.089203 -292.234192 3.33500004
263.05191 -292.301819 3.88135004
263.097687 -292.194214 2.37700009
263.053711 -292.110504 3.26550007
263.035095 -292.036011 3.50099993
263.000793 -291.937408 4.15290022
263.007385 -291.53241 2.90009999
263.010895 -291.468811 3.06830001
263.190338 -287.537292 0.350799978
263.167114 -287.306 0.327399999
263.041901 -285.190491 7.64849997
263.211212 -292.573486 2.79040003
263.382385 -288.838593 0.487399995
263.38739 -288.421204 -0.462700009
263.327698 -288.141479 -0.315999985
263.322113 -288.075806 0.458499998
263.295807 -287.947998 -0.771600008
263.263306 -287.883209 0.246199995
263.2659 -287.608002 -1.08469999
263.342499 -287.793793 -0.254099995
263.246704 -287.533112 -1.41690004
263.292297 -287.565308 -0.569100022
263.218994 -287.567505 0.449900001
263.249603 -287.290497 0.0755999982
263.598114 -289.886414 0.275299996
263.562714 -289.894989 0.609099984
263.572388 -289.602814 -1.20580006
263.575562 -289.69928 -0.498300016
263.583588 -289.758087 -0.233600006
263.489685 -289.756592 0.582400024
263.529297 -289.724701 1.10689998
263.524414 -289.588409 -0.180299997
263.55249 -289.475494 0.058600001
263.522797 -289.398407 -1.29779994
263.587891 -289.3797 -0.762799978
263.531311 -289.377106 0.203199998
263.511902 -289.023499 -0.842100024
263.497009 -289.088806 -0.131300002
263.51001 -288.863312 -1.32879996
263.480103 -288.811401 -0.705600023
263.442413 -288.984802 -0.194299996
263.46109 -288.925598 0.131500006
263.464203 -288.782288 -1.15900004
263.449005 -288.651306 -0.902100027
263.44989 -288.742493 -0.775300026
263.442413 -288.699493 -0.345400006
263.414795 -288.527496 -0.445499986
263.406799 -288.549713 0.186399996
263.410095 -288.580811 0.270900011
263.410889 -288.292908 -0.325300008
263.745087 -291.938293 0.0271000005
263.724609 -291.767914 -0.130899996
263.775635 -291.643433 0.106199995
263.758911 -291.657593 0.555899978
263.745697 -291.602203 0.71329999
263.685913 -291.548706 0.369800001
263.735504 -291.590698 0.4745
263.706116 -291.458862 0.726249993
263.644409 -291.284393 -0.0494000018
263.739288 -291.383301 0.594500005
263.678802 -291.18161 -0.448199987
263.75 -291.113007 -0.0432999991
263.698608 -291.169708 0.054299999
263.71051 -291.041687 0.282099992
263.705902 -291.019989 1.15740001
263.757385 -291.069489 1.39110005
263.788452 -290.476898 -1.06099999
263.772705 -290.549805 0.121799998
263.75061 -290.4953 1.02950001
263.7005 -290.31839 -0.60589999
263.758209 -290.320801 -0.448100001
263.697205 -290.207092 0.146200001
263.734924 -290.12738 -0.499799997
263.671112 -290.1539 -0.1127
263.673187 -289.974792 -1.25909996
263.692413 -289.948608 -0.948199987
263.618988 -289.851288 -0.7245
263.626312 -289.845795 -0.485199988
263.637512 -289.901855 -0.327099979
263.611389 -289.468597 -1.36150002
263.606598 -289.558777 -0.890599966
263.608887 -289.484894 -0.578800023
263.610992 -289.595093 -0.2227
263.997711 -292.299713 -0.334100008
263.970825 -292.289612 0.124749996
263.911407 -292.25119 1.38549995
263.931396 -292.088013 -0.413700014
263.888306 -292.187988 0.0366000012
263.917114 -292.078308 0.684099972
263.905396 -292.168304 0.841199994
263.874115 -291.904297 -0.536300004
263.992188 -291.652496 -0.96390003
263.860291 -291.708099 -0.532199979
263.821014 -291.7388 0.123899996
263.81311 -291.759399 0.586799979
263.818268 -291.708557 0.721666694
263.807404 -291.639709 0.955500007
263.946411 -291.543915 -1.09819996
263.811005 -291.5271 -0.589900017
263.962891 -291.455688 -0.216800004
263.801514 -291.526489 0.838400006
263.929688 -291.286713 -0.972899973
263.929871 -291.350525 -0.712149978
263.946686 -291.150513 -1.26170003
263.878998 -291.018402 -1.02960002
263.845703 -291.084503 0.318500012
263.862488 -290.841705 -1.30780005
263.856903 -290.932495 -0.647099972
263.833405 -290.92511 -0.444099993
263.802185 -290.928406 -0.3222
263.842102 -290.851715 0.451900005
263.834015 -290.856995 1.44679999
263.877106 -290.720703 -1.28240001
263.813812 -290.611694 -1.00479996
263.809906 -290.790497 -0.515299976
263.816498 -290.775299 -0.225799993
263.845001 -290.769012 0.3583
263.805511 -290.79071 1.59019995
264.196289 -293.697998 3.43149996
264.188507 -293.628387 3.65249991
264.191498 -293.714111 4.29239988
264.16391 -293.59729 1.3348
264.168793 -293.515503 3.07909989
264.170898 -293.54541 3.73959994
264.190094 -293.393585 -0.353599995
264.178589 -293.299194 0.758599997
264.161804 -293.226013 2.10529995
264.194214 -293.197296 0.242300004
264.103607 -293.098114 3.73149991
264.188385 -292.843292 -1.06159997
264.17511 -292.902008 -0.673500001
264.115204 -292.813904 -0.555700004
264.169708 -292.997894 -0.353799999
264.156403 -292.892914 0.440499991
264.14389 -292.987 0.645900011
264.162201 -292.699402 -0.703000009
264.101135 -292.67215 -0.0624666661
264.109375 -292.726807 0.305350006
264.087708 -292.680511 1.37559998
264.136597 -292.428711 -1.01750004
264.133911 -292.552002 -0.869199991
264.04599 -292.428192 0.2949
264.026093 -292.484009 0.415699989
264.034912 -292.287689 -0.622900009
264.049194 -292.213898 -0.535600007
264.052887 -292.371399 -0.233099997
264.001709 -292.13089 -1.15989995
264.056213 -291.900299 -1.4339
264.028809 -291.857086 -0.407999992
264.381195 -295.065186 2.86339998
264.398804 -294.982788 2.54649997
264.374786 -294.880615 2.91140008
264.364502 -294.937012 3.05119991
264.356903 -294.871307 3.49970007
264.35611 -294.734192 -0.1708
264.324493 -294.650391 2.17610002
264.399994 -294.734497 2.23679996
264.373199 -294.7052 2.92280006
264.367004 -294.428711 0.295899987
264.384888 -294.476196 0.936500013
264.38089 -294.545197 1.29869998
264.378998 -294.407196 1.56009996
264.348206 -294.454895 1.61459994
264.345306 -294.48349 2.49070001
264.366608 -294.535309 3.59990001
264.354889 -294.232391 0.860199988
264.300812 -294.258698 1.7773
264.267303 -294.233704 1.92939997
264.269287 -294.362305 2.1414001
264.29895 -294.276733 2.25005007
264.334991 -294.205902 2.45370007
264.261505 -294.210114 2.88910007
264.292114 -294.304504 3.33290005
264.323303 -294.06839 0.407499999
264.308533 -294.1073 1.27219999
264.307709 -294.1987 1.76960003
264.2677 -294.041565 1.88524997
264.273285 -294.145203 2.38709998
264.272583 -294.090271 2.57955003
264.310608 -294.11969 3.06949997
264.321014 -293.899414 -1.11109996
264.3172 -293.955505 0.0945999995
264.322388 -293.858337 0.280000001
264.369293 -293.937408 1.01960003
264.312012 -293.852203 1.44719994
264.249451 -293.900055 2.29134989
264.305603 -293.908386 2.4302001
264.292694 -293.640015 -0.205799997
264.2659 -293.707031 1.18040001
264.270325 -293.788635 1.31045008
264.225311 -293.627106 2.95239997
264.238098 -293.779297 3.9855001
264.239197 -293.512512 -1.21949995
264.2034 -293.570801 -0.472200006
264.228699 -293.499786 0.266799986
264.212097 -293.493896 1.16439998
264.281799 -293.389313 -0.382699996
264.21579 -293.298187 1.58050001
264.218323 -293.116333 -0.495850027
264.213409 -293.082306 3.72129989
264.206787 -292.821014 -0.416599989
264.200989 -292.879486 0.499900013
264.267792 -292.995697 2.06879997
264.566986 -296.157288 -1.06760001
264.57489 -296.018799 2.46620011
264.569794 -296.024597 3.2737999
264.571289 -296.000488 4.47520018
264.5625 -295.968689 -0.977900028
264.412109 -295.849091 -0.0171000008
264.564911 -295.891388 1.52310002
264.57431 -295.807495 2.55320001
264.55304 -295.967957 2.75344992
264.58429 -295.718689 1.5819
264.566406 -295.616486 2.13210011
264.563843 -295.699799 2.51014996
264.559509 -295.681702 3.22379994
264.581909 -295.729004 4.06500006
264.530914 -295.439209 -0.686100006
264.592285 -295.592804 0.752699971
264.555908 -295.5784 2.23569989
264.473694 -295.566406 3.07480001
264.48819 -295.214691 1.7148
264.459595 -295.391815 3.00300002
264.559204 -295.393311 4.37349987
264.553406 -295.035522 -0.885049999
264.444885 -295.052002 -0.478899986
264.513397 -295.190796 -0.329100013
264.52771 -295.176208 0.520299971
264.493195 -295.079712 1.2198
264.475586 -295.092896 1.53340006
264.434692 -295.131592 3.09369993
264.407898 -295.048706 3.37680006
264.417786 -295.114105 4.03929996
264.440704 -294.918488 0.635999978
264.455109 -294.868103 0.972100019
264.43689 -294.887909 1.11740005
264.463867 -294.929688 1.48245001
264.451691 -294.976715 2.89129996
264.468109 -294.940613 3.32550001
264.400513 -294.705902 1.16929996
264.41449 -294.685394 1.86619997
264.404907 -294.651215 2.46409988
264.43631 -294.751404 2.97909999
264.410706 -294.464111 -0.89139998
264.445007 -294.5672 -0.0948999971
264.445587 -294.339203 -0.224199995
264.439301 -284.867004 -0.0841000006
264.495911 -284.951813 0.531099975
264.79541 -297.466614 -0.652499974
264.797791 -297.424713 3.4152
264.784607 -297.294586 -0.212699994
264.798004 -297.396393 3.52690005
264.716492 -297.027496 -1.50549996
264.688995 -297.073303 -0.867399991
264.794708 -297.08551 2.04040003
264.742096 -296.923523 2.32866669
264.681702 -296.600403 -0.881299973
264.659912 -296.710876 -0.644850016
264.630707 -296.747711 1.31939995
264.697205 -296.604095 1.62800002
264.696503 -296.649811 2.33920002
264.711395 -296.5112 -0.964900017
264.635986 -296.536896 0.866400003
264.738007 -296.563507 2.41939998
264.708801 -296.575195 3.17519999
264.704407 -296.500092 3.93470001
264.633392 -296.243805 -0.619799972
264.670197 -296.2966 1.69400001
264.608002 -296.226288 3.10540009
264.664398 -296.327393 3.52180004
264.623596 -296.090698 1.45669997
264.606812 -295.8125 3.44300008
264.63559 -295.69339 0.971800029
264.997803 -298.455505 1.53659999
264.958893 -298.493195 3.05970001
264.98291 -298.306702 3.29850006
264.861298 -298.16391 2.39059997
264.958405 -298.103607 3.63649988
264.953094 -297.828308 0.0405000001
264.904114 -297.835388 1.78559995
264.98111 -297.826599 1.88020003
264.976196 -297.877594 2.65689993
264.980194 -297.784302 -0.612699986
264.923615 -297.700989 0.859399974
264.894989 -297.665497 1.26199996
264.940002 -297.621613 2.56990004
264.951599 -297.779114 3.24419999
264.881012 -297.659393 3.46009994
264.839905 -297.461609 2.71819997
264.847595 -297.586395 2.92070007
264.815491 -297.297607 1.09860003
264.876495 -297.374786 1.62759995
264.849701 -297.356506 4.51809978
264.805908 -296.781494 1.73029995
265.049011 -298.551605 1.12810004
265.091095 -298.5289 1.44500005
265.091614 -298.324188 1.09570003
265.058502 -298.198212 -1.097
265.011414 -298.131989 1.47940004
265.028809 -298.130005 2.32279992
265.029114 -297.981415 0.724399984
265.362 -284.858887 6.88609982
265.313904 -284.731689 6.26999998
266.314911 -282.902496 7.52950001
266.565186 -283.478088 7.11299992
266.746185 -284.543701 5.57009983
266.757385 -284.504089 8.06879997
266.762299 -284.436615 9.50399971
266.785797 -284.252594 8.73919964
266.766602 -284.097107 7.86929989
266.763702 -284.185089 8.12279987
266.775085 -284.085114 9.17730045
266.723907 -284.153809 9.4204998
266.733002 -283.958008 7.95534992
266.793304 -283.937805 8.52560043
266.651794 -283.821991 9.3593998
266.762695 -283.621399 6.86880016
266.757599 -283.713593 7.15010023
266.727509 -283.6698 7.81519985
266.796387 -283.477295 6.68139982
266.687439 -283.470093 7.54829979
266.664001 -283.412109 8.88939953
266.638306 -283.51181 9.28759956
266.753906 -283.378906 7.27580023
266.699585 -283.30249 7.40999985
266.740112 -283.329803 8.00879955
266.923798 -284.552399 7.3446002
266.819214 -284.431091 8.25860023
266.819611 -284.413696 8.50759983
266.870789 -284.245087 8.36149979
266.869598 -284.344299 8.7045002
266.851288 -284.039307 6.63780022
266.843109 -284.087799 7.12419987
266.841003 -284.174988 9.90200043
266.843506 -283.913391 5.8743
266.838135 -283.867645 7.07324982
266.806885 -283.8992 7.22779989
266.845703 -283.957489 7.81699991
267.030914 -284.298798 0.559499979
267.557709 -288.485901 0.235300004
267.530792 -288.408203 0.622399986
268.132385 -288.678802 0.779699981
268.228394 -288.821594 0.866999984
268.703674 -289.882751 0.900099993
268.684387 -289.360596 0.636699975
268.946503 -290.157013 0.985400021
268.969696 -289.949097 1.01010001
269.532501 -289.168701 0.810699999
269.593109 -287.819702 0.2852
269.705414 -285.901306 -0.344999999
269.899689 -289.342804 2.54419994
270.445312 -288.910004 1.16639996
270.679688 -289.649597 1.40330005
270.6297 -289.568787 1.61619997
270.645691 -289.43399 1.82799995
271.061096 -288.677185 2.25769997
271.329987 -289.048096 1.30340004
271.278412 -289.12561 1.76960003
271.279205 -288.273987 2.49265003
271.396515 -288.067688 2.99359989
271.418762 -289.069702 1.27964997
271.412994 -288.766113 1.87839997
271.50351 -288.505798 2.0322001
271.412201 -288.262085 2.31809998
271.459991 -288.008392 3.05699992
271.791199 -287.954987 2.05890012
271.625885 -287.890503 3.6099999
271.682007 -284.095886 9.77429962
271.804993 -288.06311 2.28290009
271.829102 -288.050293 2.42720008
272.10321 -288.061707 1.31110001
272.095703 -288.057007 1.55350006
272.13501 -283.811188 7.91400003
272.282288 -283.80249 8.5923996
272.328888 -283.757599 9.2554493
272.456085 -283.719391 6.92880011
272.525909 -283.52301 6.13210011
272.435089 -283.526611 6.59910011
272.541809 -283.494812 7.08069992
273.191803 -283.657288 7.30740023
273.353302 -283.758209 10.1097002
273.690399 -283.6604 10.0267
273.675812 -283.511414 7.64249992
273.835602 -283.565094 6.57819986
273.8815 -283.550812 9.6104002
274.034302 -283.831604 10.2889004
274.092194 -283.488007 7.55369997
274.01651 -283.5448 9.44839954
274.139496 -283.571411 9.74090004
274.321411 -283.410797 6.1711998
274.28299 -283.49115 7.91896677
274.385101 -283.435394 8.31389999
274.37561 -283.36731 8.45730019
274.363892 -283.134491 5.01049995
274.414612 -283.230591 5.6553998
274.596893 -283.327515 5.87919998
274.537415 -283.260895 7.81220007
274.641907 -283.483307 8.83250046
274.678833 -283.297485 8.43045044
274.728302 -283.396606 9.19499969
274.939606 -283.662292 10.4701996
274.909607 -283.252686 6.31020021
274.954407 -283.247101 7.69290018
275.02301 -291.584106 -0.406500012
275.206512 -283.266998 7.27990007
275.440094 -292.399689 0.252700001
275.493286 -291.900513 0.2016
275.517609 -291.76709 0.411300004
275.526398 -283.632385 10.4835997
275.721008 -292.106689 0.2377
275.720215 -291.937897 -0.0942000002
275.755798 -291.650909 -0.349400014
275.779297 -283.25061 5.51980019
275.758514 -283.242798 7.54069996
275.986511 -292.993988 0.0895999968
275.972107 -292.119202 0.203700006
275.92981 -291.829193 -0.1514
275.956085 -291.733887 -0.516900003
275.902588 -283.246185 6.71449995
275.9021 -283.104492 6.62340021
275.809998 -283.177612 7.50950003
276.053802 -292.643585 0.0223999992
276.141693 -292.480011 -0.137799993
276.122101 -292.28241 -0.261999995
276.176086 -292.360107 -0.190799996
276.093109 -292.083405 -0.764100015
276.170013 -292.08429 0.126800001
276.184113 -291.900391 -0.337000012
276.047485 -283.206512 6.40420008
276.154388 -283.056091 5.74189997
276.0224 -283.134003 6.96530008
276.091309 -283.132202 7.06470013
276.23291 -292.466095 -0.818000019
276.207703 -292.220886 -0.354200006
276.232513 -292.037292 -0.6426
276.345093 -292.13562 -0.348349988
276.242188 -291.907837 -0.710549951
276.372589 -283.200104 8.16209984
276.259094 -283.188904 8.72509956
276.37439 -283.190308 9.24750042
276.487 -293.434113 -0.654600024
276.533508 -292.89679 -0.450899988
276.410614 -283.269806 9.01900005
276.501495 -283.200989 9.55160046
276.587891 -283.058411 6.50820017
276.40329 -283.065704 6.77699995
276.598511 -283.084991 8.89560032
276.509491 -283.09671 9.16489983
276.54361 -283.144409 9.55350018
276.543304 -283.087402 9.8895998
276.580505 -282.930389 5.85430002
276.580688 -282.816193 6.13269997
276.559113 -282.848602 6.20790005
276.556335 -282.955139 8.93695068
276.587311 -282.923798 9.74650002
276.568115 -282.968903 9.8100996
276.697113 -289.696808 -0.921700001
276.615906 -283.012909 6.71190023
276.611603 -283.027588 6.90019989
276.615906 -283.024597 7.06599998
276.622711 -283.013 9.8100996
277.144196 -297.062012 0.00449999981
277.081085 -282.744507 7.91660023
277.345306 -297.530304 -0.941900015
277.299683 -297.497803 -0.707550049
277.233704 -297.273712 -0.946799994
277.210388 -297.343597 -0.445300013
277.302704 -294.813507 0.953100026
277.257294 -282.869202 6.75990009
277.547211 -295.412994 2.18910003
277.44989 -283.305908 10.3871002
277.685394 -283.116699 10.0783005
277.78009 -282.845886 6.2347002
277.776794 -282.896301 7.92280006
277.680786 -282.928314 8.41240025
277.736786 -281.943207 9.59640026
277.782104 -281.181091 8.90709972
277.753296 -280.821686 8.70530033
277.694092 -280.94809 9.14529991
277.756287 -280.706909 8.9946003
277.739288 -280.411804 7.14960003
277.749512 -280.570587 8.90919971
277.983887 -295.711792 1.50230002
277.851807 -283.0177 9.44830036
277.809601 -282.81189 6.10370016
277.829651 -282.900208 8.04664993
277.993805 -282.912201 8.36050034
277.802307 -282.996185 8.74090004
277.979706 -282.834808 9.71899986
277.94931 -282.700195 9.00510025
277.959503 -282.460907 9.79909992
277.97821 -282.347198 7.6717
277.9776 -282.291687 8.03369999
277.9823 -282.274109 8.96619987
277.961395 -282.314087 9.04259968
277.970306 -282.395294 9.38230038
277.999207 -282.332001 10.1232004
277.981598 -282.120087 8.62679958
277.976013 -282.035492 9.05099964
277.941986 -282.087006 9.81849957
277.974487 -282.181213 10.0852003
277.917206 -281.854614 6.32000017
277.970215 -281.891113 7.39489985
277.993713 -281.878296 8.43620014
277.947906 -281.813385 8.67230034
277.927917 -281.834747 8.84809971
277.931885 -281.8909 9.09609985
277.868805 -281.846985 9.76169968
277.964294 -281.652191 7.50010014
277.956512 -281.691315 7.71700001
277.941498 -281.717224 8.76210022
277.950104 -281.498779 7.21545029
277.984406 -281.539398 7.75839996
277.907715 -281.462311 7.90240002
277.905396 -281.493805 8.36910057
277.941101 -281.48819 8.51589966
277.9039 -281.450897 8.73810005
277.879791 -281.480408 9.03740025
277.903259 -281.500671 9.86154938
277.898895 -281.529541 10.0568504
277.933197 -281.356995 7.35680008
277.906891 -281.254791 7.59810019
277.890594 -281.203308 7.69619989
277.910095 -281.298096 7.95359993
277.913788 -281.356415 8.47229958
277.809296 -281.260803 8.89229965
277.885712 -281.3479 9.34640026
277.830109 -281.3302 9.4460001
277.861694 -281.235992 10.3460999
277.898987 -281.069305 6.99620008
277.860168 -281.1409 7.65350008
277.842804 -281.052795 8.36929989
277.900787 -281.181885 9.37609959
277.902313 -280.984192 6.33920002
277.861298 -280.820099 6.74300003
277.868103 -280.806305 8.4090004
277.84079 -280.898987 9.40620041
277.804291 -280.679108 7.99440002
277.816711 -280.328003 6.68830013
278.128387 -295.040009 1.17809999
278.087891 -294.914215 1.12590003
278.097595 -294.926086 1.51160002
278.164612 -294.839996 1.84239995
278.029297 -282.824799 -0.791299999
278.001587 -282.824707 -0.351000011
278.096191 -282.831787 6.97469997
278.101196 -282.802704 8.16279984
278.126587 -282.90921 8.47179985
278.169495 -282.820007 9.10309982
278.024811 -282.915314 9.30550003
278.069092 -282.977203 9.50549984
278.071198 -282.952515 10.0665998
278.058014 -282.963806 10.3664999
278.033508 -282.775208 0.0423000008
278.14209 -282.749908 6.61619997
278.132294 -282.645996 7.05299997
278.141998 -282.606598 7.25279999
278.111877 -282.675598 7.56780005
278.107605 -282.722809 7.98780012
278.064606 -282.716614 8.9630003
278.026428 -282.688965 9.10470009
278.038696 -282.710449 10.0683002
278.136108 -282.783112 10.25
278.160309 -282.679901 10.4050999
278.046906 -282.582886 5.07079983
278.096832 -282.50824 7.31733322
278.119293 -282.571991 7.63740015
278.108093 -282.493896 8.06200027
278.132599 -282.488312 8.27029991
278.123199 -282.560303 8.42800045
278.021545 -282.508911 8.98259926
278.101898 -282.519714 9.24709988
278.020111 -282.520508 9.85980034
278.091614 -282.420898 10.4595003
278.113708 -282.398102 6.39389992
278.104004 -282.214813 6.42710018
278.059296 -282.240204 6.78579998
278.124908 -282.339203 6.85809994
278.048004 -282.288208 7.75019979
278.03299 -282.342407 7.8671999
278.047485 -282.278992 8.33209991
278.055115 -282.390289 8.61439991
278.121185 -282.291504 9.59119987
278.079895 -282.07901 6.04879999
278.048492 -282.061005 6.60640001
278.013397 -282.064087 8.01830006
278.099487 -282.052612 10.6062002
278.053192 -281.977905 6.53679991
278.105408 -281.882996 6.86499977
278.0177 -281.899689 8.29599953
278.02301 -281.962311 8.88469982
278.000305 -281.813599 9.02219963
278.045197 -281.752686 5.54419994
278.092804 -281.710693 10.5215998
278.248352 -282.894287 10.5573997
278.224609 -282.709503 6.0230999
278.315399 -282.527008 0.237299994
278.313995 -282.511108 0.669499993
278.321289 -282.281799 0.556500018
279.879303 -290.454895 -0.465200007
