# .PCD v0.7 - Point Cloud Data file format
VERSION 0.7
FIELDS x y z
SIZE 4 4 4
TYPE F F F
COUNT 1 1 1
WIDTH 86
HEIGHT 1
VIEWPOINT 0 0 0 1 0 0 0
POINTS 86
DATA ascii
300.072815 -238.299194 8.46730042
300.118103 -237.973297 8.21199989
300.176514 -237.365997 5.27990007
300.177307 -237.078293 5.29040003
300.06601 -232.240005 15.5630999
300.154907 -231.519501 14.2040997
300.095703 -231.053406 14.1462002
300.179688 -230.800003 14.0551996
300.023712 -230.455704 14.4435997
300.005493 -229.875305 14.5640001
300.179108 -229.787704 8.30580044
300.077789 -229.7715 18.0326004
300.103699 -229.457108 9.29450035
300.03891 -227.993301 8.87559986
300.345215 -238.2565 7.02440023
300.245514 -238.141907 8.35879993
300.299194 -231.066193 14.3369999
300.307587 -230.895004 14.3318005
300.30661 -230.748093 12.3365002
300.366699 -230.797699 14.1759005
300.282288 -230.024002 9.15390015
300.207703 -229.884201 8.07750034
300.36261 -229.725494 8.55020046
300.28009 -229.667297 8.65430069
300.362305 -226.513504 11.1654997
300.395203 -224.631897 11.6077995
300.225311 -223.804199 11.6083002
300.229309 -223.723007 13.7961998
300.213104 -220.871399 9.58080006
300.40979 -238.195999 7.08129978
300.523804 -233.019806 7.97270012
300.407013 -232.352402 7.10669994
300.47049 -232.134506 8.59570026
300.507507 -229.967102 14.7454004
300.420685 -229.745193 10.8295002
300.404114 -229.574905 8.29419994
300.484406 -229.368393 18.6518002
300.546387 -223.2771 11.5187998
300.425995 -223.073303 11.3064003
300.754791 -238.162399 5.60690022
300.769989 -230.466995 14.2978001
300.650085 -230.108093 13.8283997
300.723206 -229.559906 10.2511997
300.746704 -227.493195 9.8434
300.617493 -226.5466 11.3983002
300.779694 -224.329895 12.2877998
300.828796 -229.404099 17.4731998
300.86319 -228.5336 10.4252996
300.872894 -227.373901 9.55420017
301.17511 -228.653 9.77449989
301.060913 -227.059998 11.2384005
301.191101 -226.835098 11.1631002
301.095886 -224.762604 12.0481005
301.136292 -224.691803 12.6583996
301.071106 -223.668198 9.33640003
301.227905 -229.900803 10.9474001
301.224091 -229.232193 9.42660046
301.230103 -227.732101 10.3290005
301.325897 -227.479401 11.3137999
301.340393 -226.691498 11.2454996
301.315796 -226.410995 11.5702
301.59549 -232.043793 12.4733
301.57019 -230.044693 9.14960003
301.450409 -226.370697 11.8284998
301.414886 -225.994904 11.6423998
301.76181 -232.226395 12.3851995
301.782898 -232.186401 12.2539997
301.647491 -231.734894 12.8605003
301.605286 -231.5728 12.0875998
301.664215 -229.186096 14.1403999
301.655304 -226.442001 12.7378998
301.838013 -231.941193 11.7814999
301.961487 -231.982605 13.8149996
301.815887 -231.663101 11.8353996
302.031891 -232.442398 12.7642002
302.129211 -232.495605 12.8752003
302.007294 -232.151703 13.1498003
302.089905 -228.435303 15.6651001
302.112701 -223.654007 14.5080996
302.30249 -232.424896 12.1464005
302.212402 -232.423294 12.2834997
302.519409 -229.804504 12.0021
302.93399 -230.122406 13.7125998
303.045502 -228.983505 13.3073997
303.381409 -230.440201 14.1738997
303.672089 -229.108002 14.0537004
