# .PCD v0.7 - Point Cloud Data file format
VERSION 0.7
FIELDS x y z
SIZE 4 4 4
TYPE F F F
COUNT 1 1 1
WIDTH 2363
HEIGHT 1
VIEWPOINT 0 0 0 1 0 0 0
POINTS 2363
DATA ascii
320.000488 -340.407288 8.0401001
320.177399 -340.235291 0.527800024
320.169098 -340.241913 0.671899974
320.108612 -340.259094 0.998700023
320.138428 -340.255463 1.09326005
320.117432 -340.243011 1.28093338
320.016907 -340.229706 1.42159998
320.172211 -340.219299 1.70609999
320.08667 -340.223633 1.94725001
320.038147 -340.247925 2.04260015
320.154785 -340.249207 3.97510004
320.180695 -340.257202 4.57270002
320.088684 -340.278687 4.71654987
320.117004 -340.241425 4.92496014
320.07019 -340.22998 5.07680035
320.198792 -340.286896 5.2809
320.0578 -340.261108 7.46280003
320.029205 -340.287598 7.72359991
320.096649 -340.312042 7.97599983
320.134277 -340.261841 8.30459976
320.106689 -340.234406 9.74989986
320.105408 -340.26001 9.91189957
320.021088 -340.294586 11.9785004
320.014191 -340.008789 -0.0529000014
320.009552 -340.01709 0.0379000008
320.059113 -340.002106 0.299400002
320.110199 -340.192902 0.510699987
320.135254 -340.168701 1.49103332
320.146149 -340.166199 1.73694992
320.153381 -340.152222 1.91600001
320.134277 -340.139435 2.07357502
320.096893 -340.051514 2.30999994
320.1474 -340.013306 2.46650004
320.065491 -340.034637 2.74429989
320.12149 -340.025635 2.91413999
320.116791 -340.041351 3.09206653
320.145447 -340.0354 3.31552005
320.147858 -340.0802 3.54513335
320.078278 -340.114319 3.66899991
320.017792 -340.180298 3.85450006
320.152496 -340.145386 4.08050013
320.007904 -340.160889 4.42500019
320.190186 -340.197906 5.22650003
320.197601 -340.180908 5.52629995
320.06485 -340.102539 5.70714998
320.093262 -340.111023 5.82423353
320.195496 -340.102112 6.18349981
320.091797 -340.125061 6.25349998
320.119202 -340.0755 6.4368
320.074402 -340.115814 6.65829992
320.195587 -340.183014 6.85500002
320.111694 -340.19101 7.18690014
320.163635 -340.114502 9.28443336
320.095215 -340.136292 9.53479958
320.138 -340.094788 9.60999966
320.1203 -340.127808 9.84389973
320.205109 -340.256592 0.780799985
320.248474 -340.25177 0.842000008
320.268494 -340.304291 1.11129999
320.24939 -340.213715 4.54850006
320.295959 -340.219482 4.67825031
320.369995 -340.200287 4.80660009
320.290802 -340.22699 5.02359962
320.25061 -340.233398 5.25239992
320.358704 -340.201202 6.97230005
320.283356 -340.346375 8.09244919
320.270294 -340.203613 8.38899994
320.382202 -340.22821 8.6487999
320.220703 -340.225891 11.7598
320.391998 -340.260803 13.8221998
320.31488 -340.052338 0.317000002
320.327789 -340.100342 0.50910002
320.304138 -340.146912 0.72931999
320.354034 -340.121338 0.879400015
320.334503 -340.169464 1.11156666
320.360504 -340.156372 1.28343332
320.276489 -340.139526 1.48362005
320.341522 -340.125305 1.65986669
320.30896 -340.140259 1.87407994
320.298157 -340.14975 2.0776
320.313751 -340.062408 2.24474001
320.274811 -340.062012 2.43390012
320.324188 -340.005493 3.12919998
320.34726 -340.085358 3.70508003
320.279297 -340.135193 3.85909986
320.305054 -340.123901 4.11324978
320.31897 -340.185944 4.36824989
320.287506 -340.191101 4.52799988
320.35199 -340.174988 4.63730001
320.382812 -340.179657 4.90919971
320.238007 -340.138 5.13100004
320.315369 -340.161102 5.28367519
320.241943 -340.118042 5.45849991
320.309967 -340.084778 5.70316648
320.269409 -340.037292 5.90365028
320.251465 -340.085388 6.06305027
320.277496 -340.069855 6.47849989
320.257324 -340.137451 6.69155025
320.330597 -340.175812 6.80600023
320.367889 -340.136902 7.15159988
320.309387 -340.150848 7.27769995
320.348663 -340.152649 8.46349907
320.264343 -340.131165 8.87969971
320.346191 -340.123444 9.10204983
320.341003 -340.146912 9.74860001
320.369385 -340.088501 9.85739994
320.593109 -343.749695 2.19799995
320.563202 -343.763489 5.72259998
320.460541 -340.236633 4.70079994
320.447296 -340.2005 5.16919994
320.481812 -340.232697 7.12909985
320.597992 -340.321808 7.5935998
320.453186 -340.227386 7.68959999
320.458405 -340.378113 7.82649994
320.476013 -340.251099 8.32489967
320.420593 -340.2659 8.47819996
320.446014 -340.261902 8.67940044
320.453674 -340.294067 10.9087
320.422211 -340.216003 12.8191004
320.475037 -340.059631 0.483833343
320.492493 -340.120026 0.699180007
320.466583 -340.111542 0.911242843
320.509796 -340.138977 1.06932855
320.49408 -340.145813 1.28093743
320.503479 -340.113281 1.47292006
320.52124 -340.123138 1.89666665
320.477234 -340.11499 2.04594994
320.485107 -340.061188 2.23189998
320.458496 -340.061005 3.28559995
320.510712 -340.045654 3.67203331
320.481598 -340.063538 3.91023326
320.425598 -340.165802 4.59369993
320.452911 -340.186188 4.78049994
320.492828 -340.147156 5.09019995
320.538055 -340.126953 5.28200006
320.572296 -340.118713 5.51490021
320.487091 -340.061646 5.6826334
320.544495 -340.046997 5.88339996
320.536072 -340.020935 6.10700035
320.502014 -340.071198 6.31559992
320.478333 -340.065308 6.45985031
320.460999 -340.019806 6.67269993
320.508179 -340.070862 6.92579985
320.567413 -340.126007 7.15199995
320.573486 -340.183289 7.77400017
320.400604 -340.167297 8.53170013
320.532013 -340.088196 9.15569973
320.487 -340.036102 9.44019985
320.414001 -340.169189 9.65639973
320.633301 -343.817108 4.6862998
320.730591 -343.676147 2.65024996
320.711487 -343.696014 5.19939995
320.780212 -340.206909 1.06879997
320.615692 -340.201599 5.15409994
320.617493 -340.221313 7.98859978
320.713409 -340.224915 8.27509975
320.639496 -340.30899 10.5950003
320.780304 -340.21405 11.3185501
320.743408 -340.255096 11.5812998
320.713684 -340.081055 0.692612529
320.753662 -340.087555 0.939249992
320.685913 -340.144501 1.13516665
320.683411 -340.135986 1.23673332
320.739197 -340.075897 1.44029999
320.739197 -340.061859 1.67653334
320.702942 -340.096313 1.90742505
320.677856 -340.110596 2.08719993
320.701813 -340.028351 2.30119991
320.608002 -340.0065 3.53049994
320.706848 -340.045959 3.68959999
320.749542 -340.062958 3.85089993
320.606903 -340.088287 4.08279991
320.772003 -340.178894 4.34149981
320.611115 -340.1651 4.62290001
320.710449 -340.106689 4.9052248
320.706055 -340.102753 5.10657501
320.73938 -340.083801 5.44904995
320.746094 -340.0242 5.65320015
320.665314 -340.015198 5.9531002
320.624115 -340.021698 6.03779984
320.703705 -340.034302 6.53999996
320.729065 -340.047729 6.77250004
320.645905 -340.042603 6.82019997
320.653809 -340.016602 7.10820007
320.723511 -340.148895 7.22049999
320.638092 -340.111511 7.4861002
320.792908 -340.109192 8.08209991
320.742188 -340.058197 8.37370014
320.704468 -340.163208 8.47653294
320.725006 -340.13681 8.74209976
320.694611 -340.125 8.86940002
320.78479 -340.057007 9.0916996
320.690674 -340.060944 9.28005028
320.655701 -340.072906 9.61839962
320.765289 -340.046204 10.1241999
320.616302 -340.183105 12.5389996
320.71759 -340.101105 12.6021996
320.685791 -340.085205 12.8220997
320.956299 -340.255615 11.7299004
320.873322 -340.03714 0.538733363
320.885834 -340.05957 0.699571431
320.915405 -340.05365 0.913028598
320.909851 -340.03421 1.08836007
320.913147 -340.057068 1.29261112
320.888367 -340.036591 1.49665558
320.9422 -340.032501 1.67180002
320.890717 -340.050415 1.92175007
320.92099 -340.057983 2.07550001
320.815094 -340.004913 3.60949993
320.821198 -340.057709 3.80730009
320.889282 -340.041107 4.06879997
320.84201 -340.083893 4.30562019
320.878113 -340.099274 4.56860018
320.963257 -340.141418 4.74884987
320.941498 -340.067108 4.92336702
320.982788 -340.088989 5.1960001
320.939789 -340.047638 5.32498026
320.94458 -340.042419 5.5557332
320.849792 -340.020599 6.35570002
320.867615 -340.00769 6.52220011
320.873413 -340.053101 6.69010019
320.8479 -340.003601 7.06599998
320.988892 -340.150604 7.2730999
320.973389 -340.182312 7.74499989
320.904205 -340.074585 8.5593996
320.860291 -340.09079 8.73390007
320.940186 -340.061188 8.85890007
320.976593 -340.017487 9.20950031
320.858185 -340.010498 9.50109959
320.909485 -340.061615 10.2156
320.899292 -340.117615 11.7826004
320.912415 -340.152893 12.2247
321.150513 -341.958588 5.97900009
321.074188 -340.242188 10.1841002
321.196808 -340.021606 0.681200027
321.18161 -340.029694 0.888700008
321.097351 -340.016693 1.15105009
321.143799 -340.017883 1.38555002
321.037811 -340.012787 1.5855
321.019989 -340.007599 1.6559
321.12146 -340.030731 1.87753332
321.090393 -340.033905 2.08967996
321.125305 -340.008698 3.69689989
321.075195 -340.101105 3.977
321.180786 -340.072296 4.14940023
321.067596 -340.072998 4.44540024
321.188599 -340.069641 4.73554993
321.095947 -340.111938 4.8737669
321.09375 -340.052521 5.09836674
321.125702 -340.020996 5.23689985
321.138214 -340.022095 5.42250013
321.122101 -340.050293 6.97049999
321.047394 -340.03299 7.05919981
321.130096 -340.088593 7.39249992
321.08136 -340.098999 7.5309
321.166412 -340.039001 7.60510015
321.033813 -340.167908 7.84030008
321.101196 -340.160339 8.27939987
321.147003 -340.112488 8.60770035
321.182098 -340.024292 10.2110996
321.052856 -340.131836 10.4806004
321.139893 -340.092194 10.8601999
321.160706 -340.09079 11.0972004
321.044312 -340.187988 11.2967997
321.048401 -340.031799 11.4688997
321.011902 -340.1185 12.0158005
321.299805 -346.177094 5.08150005
321.305908 -346.100952 5.42110014
321.328369 -346.077637 5.65505028
321.295685 -346.075806 5.94110012
321.281891 -345.989014 6.02409983
321.383698 -341.963593 2.71370006
321.336334 -340.01889 0.697433352
321.276794 -340.050903 1.00339997
321.288696 -340.019806 1.28550005
321.39621 -340.075012 1.41050005
321.377289 -340.012207 1.97210002
321.289948 -340.03067 4.08379984
321.314331 -340.011292 4.37800026
321.294373 -340.042236 4.50616646
321.230011 -340.192108 4.6413002
321.282898 -340.021698 7.19990015
321.231598 -340.05719 7.57550001
321.234711 -340.032288 7.89309978
321.223999 -340.071411 8.30510044
321.2677 -340.047913 10.5970001
321.217102 -340.049805 12.7011003
321.540283 -340.274292 1.14479995
321.599304 -340.289215 1.29900002
321.573608 -340.252991 1.40880001
321.50946 -340.062561 0.685866654
321.461609 -340.089691 0.842299998
321.486053 -340.057434 1.33345008
321.477478 -340.0737 1.43350005
321.403198 -340.016693 11.7245998
321.7341 -346.041199 2.3355
321.628204 -346.097107 5.11800003
321.758301 -345.97879 2.50656676
321.788391 -345.944489 5.85330009
321.748901 -341.874786 1.22940004
321.947601 -346.144836 1.77734995
321.900299 -346.031006 1.89680004
321.836304 -346.01059 2.46810007
321.862213 -346.071411 5.0309
321.873108 -346.052399 5.58349991
321.89386 -345.987061 1.91845
321.889984 -345.9552 2.08568001
321.92749 -345.942566 2.50769997
321.994995 -345.946594 2.6105001
321.9039 -345.962341 5.62389994
321.940247 -345.941162 5.94509983
321.891968 -345.963867 6.04869986
321.962891 -345.131409 5.87370014
321.864746 -341.829285 0.94325
321.877808 -341.858002 1.09020007
321.887604 -341.820099 1.28982496
321.886902 -341.776306 0.991900027
322.033203 -346.036041 1.81579995
322.03009 -345.937683 1.93449998
322.061401 -345.933105 2.42404985
322.076508 -345.986115 4.80140018
322.089203 -344.036285 2.63989997
322.01889 -341.824097 1.21879995
322.065186 -341.790283 1.26880002
322.276062 -345.918396 1.5194
322.307007 -345.893402 1.74319994
322.376587 -345.859589 1.91499996
322.34729 -345.87439 2.04839993
322.322113 -345.854492 2.36599994
322.341095 -345.962006 5.57460022
322.383392 -344.985291 2.59759998
322.27179 -344.7276 2.66030002
322.50531 -345.855713 1.56840003
322.475708 -345.8255 1.79050004
322.509613 -345.828003 1.87890005
322.44751 -345.837097 2.13499999
322.571594 -345.830688 2.3062501
322.593414 -345.95401 5.37529993
322.500092 -345.934204 5.4552002
322.520813 -345.85614 5.66195011
322.559509 -345.868408 5.87659979
322.621613 -345.80661 2.00270009
322.74881 -345.800903 2.24810004
322.650085 -345.806488 2.56145
322.780212 -345.800995 2.63010001
322.6315 -345.838715 5.38789988
322.710754 -345.783875 1.70365
322.713806 -345.783447 1.89087498
322.730469 -345.77774 2.07835007
322.698608 -345.787506 2.34960008
322.690796 -345.797607 2.44109988
322.677307 -345.72345 2.68066001
322.838989 -345.769165 1.85029995
322.913086 -345.756622 2.04993987
322.825989 -345.750305 2.37870002
322.82666 -345.695587 2.72665
323.177094 -345.715912 1.98090005
323.01001 -345.79541 2.15639997
323.093384 -345.741333 2.32905006
323.161713 -345.696198 2.56110001
323.120209 -344.967194 2.65709996
323.157501 -344.70871 2.71259999
323.041046 -344.471649 2.65715003
323.380798 -345.656708 1.96379995
323.296814 -345.716614 2.1336
323.326508 -345.706604 2.31325006
323.324463 -345.7146 2.45533323
323.328613 -345.681793 2.60770011
323.365204 -345.438385 2.64499998
323.325592 -345.276703 2.60669994
323.305725 -345.119476 2.63954997
323.393707 -344.973511 2.20560002
323.202209 -344.698792 2.62129998
323.492706 -345.647491 2.12960005
323.501129 -345.646973 2.46626663
323.512695 -345.547791 2.42359996
323.488098 -345.250214 1.70050001
323.460632 -345.238525 2.14305019
323.424286 -345.078308 2.20239997
323.468811 -344.968109 1.82889998
323.404999 -344.843201 2.30719995
323.760406 -340.326691 -1.09150004
323.617889 -340.02951 -1.03799999
324.03421 -340.341705 -1.10599995
324.295502 -340.688904 -1.13699996
324.592987 -344.71579 -0.417899996
324.588287 -344.502808 -0.920599997
324.451599 -340.389893 -1.08679998
324.6409 -344.238007 -1.11450005
324.770599 -340.240509 -1.07579994
324.960602 -344.994904 -0.575500011
324.946198 -344.977905 -0.393400013
324.908508 -344.690186 -0.653400004
324.842987 -344.558197 -1.0697
324.978699 -344.386108 -0.477299988
324.880798 -344.11911 -0.283649981
324.925415 -344.038391 -0.0957000032
325.100189 -346.6698 -0.309599996
325.15271 -345.69931 -0.281199992
325.160187 -345.578491 2.90100002
325.074585 -345.382904 -0.486400008
325.058014 -344.898895 -0.517499983
325.007111 -344.789093 -0.745299995
325.063202 -344.52301 -1.05270004
325.025696 -344.529785 -0.795799971
325.008789 -344.029602 0.0205000006
325.066589 -342.10611 -1.13789999
325.107697 -341.075012 -1.11819994
325.23111 -345.499298 -0.0551000014
325.219696 -344.480713 -1.08290005
325.318512 -342.105591 -1.11070001
325.241791 -341.180603 -1.11469996
325.487915 -342.625702 -1.12264991
325.558411 -342.406097 -1.1609
325.624603 -342.242706 -1.13069999
325.744995 -342.097198 -1.11380005
325.819397 -342.032898 -1.10280001
325.916199 -341.435211 0.814999998
325.956604 -341.346985 -0.764500022
325.980286 -341.234894 -0.182999998
325.955597 -341.217804 0.0282000005
325.968201 -341.232788 0.516099989
325.870087 -341.225494 0.609899998
325.99469 -341.0065 -1.00629997
325.974213 -341.08371 -0.911000013
325.959808 -341.067596 -0.587700009
325.970612 -341.029114 -0.381799996
325.989502 -341.122314 0.230900005
325.988586 -341.154205 0.446200013
325.983002 -340.985596 -0.816699982
325.956512 -340.857086 -0.717400014
325.9823 -340.957642 -0.422850013
325.940918 -340.969055 0.744700015
325.868286 -340.951904 0.906599998
325.983612 -340.013 -0.400000006
325.988098 -340.08371 3.11540008
325.981812 -340.045105 3.37330008
326.037811 -342.656189 -1.11039996
326.146088 -342.57901 0.787999988
326.19751 -342.356415 0.227799997
326.193787 -342.243896 0.645600021
326.123199 -342.042389 0.599699974
326.193207 -341.913696 -0.612100005
326.169708 -341.917999 0.403299987
326.132751 -341.735077 -0.85800004
326.112335 -341.717468 -0.479933321
326.078491 -341.692139 -0.386449993
326.029907 -341.716003 -0.128700003
326.085907 -341.648499 0.2333
326.136414 -341.7789 0.77700001
326.092102 -341.794312 0.928600013
326.107513 -341.486115 -0.452699989
326.116394 -341.555389 -0.363200009
326.097412 -341.499786 -0.074500002
326.097107 -341.523743 0.0690333322
326.16571 -341.513702 0.247400001
326.080505 -341.278687 -0.500899971
326.016907 -341.206604 -0.369199991
326.001099 -341.202515 -0.116800003
326.023987 -341.344299 0.140000001
326.192993 -341.108307 -0.97240001
326.069702 -341.01001 -0.344900012
326.017914 -341.1185 -0.112999998
326.010803 -341.134399 0.448500007
326.185211 -341.143494 0.667200029
326.056885 -341.018494 0.832000017
326.100311 -340.914581 -0.86803335
326.081665 -340.918488 -0.692600012
326.086304 -340.804901 -0.576099992
326.121704 -340.914246 -0.0586499982
326.092407 -340.855194 0.289900005
326.100006 -340.920959 0.746500015
326.121002 -340.856689 0.966600001
326.158112 -340.770813 -1.06789994
326.187286 -340.759705 -0.993099988
326.1604 -340.716888 -0.230599999
326.133209 -340.656799 -0.193100005
326.197693 -340.562592 -1.02929997
326.132294 -340.467499 -0.916100025
326.101898 -340.410095 -0.74000001
326.120605 -340.455109 -0.512899995
326.122894 -340.473694 -0.292499989
326.030396 -340.4888 2.90070009
326.170837 -340.288452 2.15684986
326.092407 -340.230103 2.64890003
326.181091 -340.217987 3.21729994
326.172394 -340.217285 3.69320011
326.108002 -340.015411 -1.01499999
326.126801 -340.068359 -0.688600004
326.108002 -340.019897 -0.27669999
326.146057 -340.110352 2.51989985
326.085266 -340.102234 3.3530333
326.141846 -340.122437 3.48045015
326.132812 -340.183502 3.62059999
326.131348 -340.108185 3.95894003
326.076202 -340.097992 4.00330019
326.349487 -342.411591 -0.502699971
326.356964 -342.445007 -0.3574
326.285461 -342.460144 0.3477
326.284546 -342.448181 0.668099999
326.320587 -342.446198 0.842700005
326.337769 -342.303589 -0.861100018
326.368896 -342.37619 -0.116800003
326.298279 -342.273041 0.48664999
326.292999 -342.079498 -1.02919996
326.316254 -342.093353 -0.554450035
326.345703 -342.135406 0.0406000018
326.239197 -342.138306 0.270000011
326.240906 -342.1521 0.556400001
326.220612 -341.762512 -0.522899985
326.229095 -340.92099 -0.940199971
326.250732 -340.849792 0.175400004
326.356995 -340.859589 0.970099986
326.313812 -340.842407 1.15929997
326.265106 -340.709503 -1.08340001
326.2836 -340.767914 -0.921800017
326.223297 -340.652313 -0.517499983
326.333405 -340.788513 0.364399999
326.296997 -340.628693 2.38870001
326.248199 -340.444 -0.992900014
326.213715 -340.42099 -0.749199986
326.294403 -340.515198 3.14919996
326.259705 -340.257996 -0.895900011
326.369293 -340.237091 0.717999995
326.265411 -340.353394 2.4842
326.335754 -340.364502 2.76259995
326.27179 -340.263 2.88933325
326.357391 -340.234192 3.06200004
326.276489 -340.223999 3.50830007
326.24881 -340.234314 3.64299989
326.330414 -340.181213 0.456999987
326.269012 -340.019989 1.78359997
326.235687 -340.113007 1.92234993
326.389893 -340.068787 2.56920004
326.326843 -340.106201 2.67409992
326.271301 -340.108215 2.95865011
326.289703 -340.102661 3.06620002
326.221405 -340.042999 3.39350009
326.294281 -340.083679 3.48382497
326.249298 -340.12674 3.7102499
326.361908 -340.00061 3.93149996
326.514496 -347.411194 -1.15219998
326.44339 -347.379791 -0.682699978
326.445312 -342.451904 -0.765299976
326.457092 -342.354065 -1.06605005
326.400787 -342.357391 3.6164
326.49649 -341.6651 3.73040009
326.524811 -341.75235 3.92755008
326.584991 -341.540405 2.88759995
326.481598 -341.224304 -0.869099975
326.526703 -341.257385 -0.423099995
326.527008 -341.380096 -0.270799994
326.526306 -341.289093 -0.149000004
326.55899 -341.303406 0.0613333359
326.508087 -341.273193 0.428499997
326.483093 -341.285217 0.732649982
326.536285 -341.080597 -0.957099974
326.457397 -341.061615 -0.563000023
326.539612 -341.182587 0.534099996
326.537109 -341.199799 0.821699977
326.489624 -340.867493 0.900050044
326.480804 -340.41571 2.48119998
326.539429 -340.259888 1.89945006
326.52121 -340.272614 2.18070006
326.49176 -340.323273 2.28143334
326.476105 -340.210205 2.40120006
326.427795 -340.235291 2.76290011
326.458801 -340.316101 2.84439993
326.544006 -340.260193 3.23950005
326.521698 -340.052704 -0.657000005
326.508789 -340.053314 -0.0749000013
326.465607 -340.082794 0.172999993
326.522491 -340.135803 0.70660001
326.545807 -340.001099 1.38750005
326.493469 -340.047241 1.87969995
326.575195 -340.009094 2.05489993
326.464294 -340.12561 2.3520999
326.475769 -340.110535 2.55893326
326.505341 -340.071045 2.7191999
326.473267 -340.118835 2.8708601
326.497345 -340.19635 3.14454985
326.48175 -340.082336 3.27955008
326.401794 -340.05011 3.46460009
326.465607 -340.136108 3.73869991
326.675201 -347.216888 -1.20270002
326.649841 -347.259491 -1.12773335
326.795807 -344.692505 3.89260006
326.775604 -342.453613 3.35570002
326.757599 -342.3414 3.28489995
326.70929 -342.399811 3.49300003
326.695007 -342.30069 3.67440009
326.772888 -341.73941 2.38639998
326.644806 -341.625092 3.53139997
326.764587 -341.610596 3.70210004
326.6026 -341.540588 -0.0925000012
326.754486 -341.536133 3.72109985
326.686401 -341.595001 3.852
326.605103 -341.25705 -0.248199999
326.653015 -341.2258 0.0445999987
326.6091 -341.240112 0.289600015
326.674805 -341.22171 0.433299989
326.782501 -341.190186 -0.836000025
326.771393 -341.145813 0.0938999951
326.732849 -341.173645 0.324200004
326.643738 -341.159698 0.511666656
326.62149 -341.189789 0.909799993
326.773499 -340.982086 1.1925
326.704895 -340.732086 -0.471599996
326.704407 -340.761597 0.792699993
326.71109 -340.640106 0.873300016
326.723328 -340.703552 1.67330003
326.710602 -340.5802 -0.145099998
326.729401 -340.435303 0.171399996
326.618805 -340.434509 1.02470005
326.765106 -340.523712 1.26839995
326.760101 -340.577393 1.44729996
326.786102 -340.260712 1.45650005
326.687805 -340.2883 2.44219995
326.764313 -340.029785 1.58410001
326.77298 -340.090546 1.90683329
326.608612 -340.1138 2.11949992
326.667786 -340.057526 2.28069997
326.620605 -340.192902 2.53259993
326.686188 -340.148102 2.68519998
326.674591 -340.093414 2.82209992
326.708099 -340.170013 3.7105
326.971497 -347.950195 1.94980001
326.868256 -347.266602 -1.02964997
326.953796 -347.346191 -0.852999985
326.988708 -347.187408 -0.964299977
326.990112 -347.122498 1.2191
326.973602 -346.398712 2.52889991
326.962708 -346.302185 3.10949993
326.893402 -345.365112 2.45120001
326.992493 -345.18689 1.24510002
326.828888 -344.919098 2.56100011
326.893097 -344.615112 2.52819991
326.993591 -344.670197 4.0710001
326.860809 -344.566986 1.66630006
326.983185 -343.298706 -0.85799998
326.919586 -343.233093 -0.785000026
326.995392 -343.158813 -0.953800023
326.995087 -342.953308 2.96569991
326.928986 -342.771088 3.01230001
326.952148 -342.481812 3.12234998
326.896301 -342.564789 3.20449996
326.920105 -342.2258 3.36439991
326.93399 -341.728699 2.39580011
326.821289 -341.589813 3.48889995
326.818909 -341.143005 -0.572000027
326.85849 -341.125793 0.109800003
326.923187 -341.045685 0.630200028
326.919312 -340.818115 -0.451599985
326.816986 -340.816986 -0.272799999
326.932007 -340.990112 0.282799989
326.830109 -340.987305 0.662999988
326.832214 -340.907196 0.80339998
326.937103 -340.806213 4.66559982
326.832794 -340.657288 -0.445899993
326.943512 -340.743988 -0.194999993
326.833588 -340.601593 0.741999984
326.983582 -340.660828 4.51924992
326.937683 -340.634674 4.64816666
326.844391 -340.569794 0.137600005
326.811798 -340.574585 0.5722
326.888397 -340.443787 1.74890006
326.970306 -340.474609 4.36170006
326.985046 -340.509155 4.49145031
326.974091 -340.324493 1.43330002
326.845306 -340.2164 2.51189995
326.98349 -340.370087 4.10200024
326.809296 -340.145111 1.77980006
326.840485 -340.087524 1.87993336
326.849396 -340.020508 2.10700011
326.81781 -340.111786 2.55040002
327.143311 -347.290314 -0.815199971
327.130402 -347.353088 -0.738399982
327.137085 -347.262695 1.5431
327.105591 -347.222198 1.67089999
327.108521 -347.116211 1.36374998
327.049805 -346.297119 2.70009995
327.130096 -345.313904 1.97459996
327.072998 -345.276886 2.1171999
327.173706 -345.255402 2.36470008
327.072937 -345.230774 2.44274998
327.053406 -345.210693 2.61789989
327.139404 -345.272705 3.72000003
327.039886 -345.210999 3.92459989
327.047211 -345.208191 4.03830004
327.093903 -345.111786 1.13012004
327.1875 -345.040405 1.74919999
327.161407 -345.1745 1.95439994
327.035187 -345.186096 2.48280001
327.092987 -345.155304 3.87610006
327.09021 -344.972809 3.8499999
327.185486 -344.678497 2.8797667
327.109497 -344.560394 -1.06439996
327.047058 -344.521912 1.75434995
327.089539 -344.467804 1.91665006
327.013611 -344.587402 4.04570007
327.030212 -344.379791 4.26989985
327.070801 -343.921906 -0.981299996
327.099213 -343.737915 -1.03330004
327.104492 -343.70993 -0.924899995
327.051208 -343.427185 5.06809998
327.065613 -343.375793 -0.957400024
327.196991 -343.375885 2.19180012
327.037109 -342.343414 2.92409992
327.187012 -341.866211 1.64660001
327.010193 -341.112305 -0.592700005
327.027405 -340.6297 4.48000002
327.012604 -340.446991 2.31030011
327.111877 -340.490967 3.88794994
327.13855 -340.489502 4.12283325
327.012909 -340.473541 4.27890015
327.035095 -340.447998 4.44817495
327.016388 -340.372009 1.4576
327.077393 -340.289001 4.23460007
327.35849 -348.010712 -0.677299976
327.3591 -348.109589 -0.474999994
327.34021 -347.439606 0.833800018
327.331299 -347.510986 1.84440005
327.303741 -347.212555 -0.862800002
327.320587 -347.3237 -0.691200018
327.2771 -347.302917 0.85194999
327.325409 -347.241608 1.18180001
327.293793 -347.163696 -1.11616671
327.276398 -347.057098 1.31819999
327.392914 -347.045685 1.44319999
327.387695 -347.084991 1.83010006
327.303406 -346.705688 1.94210005
327.346313 -346.315704 1.91549993
327.347504 -346.263 2.77329993
327.379211 -345.043701 1.44939995
327.309296 -345.043091 1.99810004
327.311188 -345.044098 2.23049998
327.286499 -345.019897 3.60640001
327.335297 -344.899597 1.43069994
327.361786 -344.983185 2.11209989
327.321503 -344.932495 2.44910002
327.31015 -344.874939 2.704
327.363495 -344.919495 2.86479998
327.360504 -344.619812 2.16619992
327.301666 -344.63913 2.53153324
327.302704 -344.759308 3.34520006
327.35321 -344.7659 3.73589993
327.308289 -344.706604 3.83920002
327.259491 -344.7211 4.0404501
327.236389 -344.604492 4.28480005
327.2323 -344.435394 -1.04569995
327.221802 -344.517609 1.78149998
327.320892 -344.470459 1.90339994
327.314392 -344.482483 2.07249999
327.309937 -344.57074 4.33395004
327.368286 -343.992188 8.67590046
327.387909 -343.784393 4.3355999
327.358887 -343.585693 1.92550004
327.391693 -343.376007 1.90489995
327.270111 -343.352203 2.21399999
327.382263 -343.329651 4.9057498
327.355011 -343.2547 5.12029982
327.319305 -343.191986 2.10809994
327.311401 -342.734009 2.15820003
327.382111 -342.432495 1.5302
327.205414 -342.4646 2.62779999
327.232697 -342.3255 2.71140003
327.312988 -340.61319 3.91039991
327.279999 -340.431702 3.26559997
327.230713 -340.554688 3.50679994
327.242615 -340.547699 3.60249996
327.259216 -340.511658 4.06159973
327.296356 -340.444366 4.2572999
327.238495 -340.590607 4.4698
327.27359 -340.305511 3.38140011
327.312592 -340.381104 3.75020003
327.250183 -340.356537 4.13780022
327.246399 -340.024445 1.55539989
327.253296 -340.138885 3.68700004
327.593689 -348.129608 -0.610400021
327.56839 -347.492401 1.29820001
327.468811 -347.22171 -0.816399992
327.486694 -347.279694 0.944100022
327.591095 -347.389404 1.26209998
327.497803 -347.136414 -1.25440001
327.484558 -347.182648 -0.855499983
327.407715 -347.0177 1.25230002
327.518188 -347.108398 1.63670003
327.460602 -346.938599 -0.259799987
327.520203 -346.609314 1.55939996
327.552704 -346.650513 1.65999997
327.428986 -346.629303 1.97010005
327.50647 -346.418396 1.04054999
327.468628 -346.579041 1.28900003
327.433105 -346.406006 2.07879996
327.492493 -346.404205 2.34050012
327.528198 -346.32843 0.878000021
327.490112 -346.281311 2.09910011
327.520569 -346.331665 2.72014999
327.41629 -346.179504 1.73989999
327.531006 -346.0896 2.08130002
327.507202 -345.719299 1.37510002
327.446014 -345.083588 1.28069997
327.523895 -345.025085 1.41289997
327.476013 -345.054291 1.66410005
327.518921 -344.993164 1.28005004
327.512909 -344.839813 2.454
327.540161 -344.87439 3.70359993
327.556396 -344.913513 4.66629982
327.5336 -344.688599 1.35350001
327.458496 -344.672607 1.78460002
327.587097 -344.663605 2.18420005
327.516113 -344.700806 4.16239977
327.554291 -344.50531 1.76040006
327.501404 -344.543304 1.95270002
327.408386 -344.541504 2.3973
327.506409 -344.459991 4.01119995
327.544861 -344.288391 4.27960014
327.50116 -344.262543 4.46626663
327.489594 -344.074799 8.41709995
327.452515 -343.635712 1.90880001
327.59549 -343.774902 8.63469982
327.505402 -343.4133 2.01859999
327.489197 -343.475342 4.47809982
327.457092 -343.439697 4.79360008
327.487915 -343.227814 -0.711300015
327.55719 -343.307312 0.233899996
327.596405 -343.358795 1.69420004
327.581909 -343.349304 2.67440009
327.515106 -343.379395 2.8190999
327.556152 -343.339844 4.69079971
327.438965 -343.329834 4.93774986
327.587097 -343.309509 5.03779984
327.528412 -343.116608 1.93260002
327.555206 -343.002991 2.48729992
327.527496 -342.874115 -0.172600001
327.465393 -342.688293 1.8872
327.417603 -342.697693 2.03139997
327.532593 -342.689514 2.24049997
327.504089 -342.439911 1.45749998
327.483093 -342.506989 1.68379998
327.585907 -342.546204 1.98269999
327.488922 -340.439301 4.10279989
327.431091 -340.461792 4.38730001
327.536499 -340.352997 3.97099996
327.494507 -340.294586 4.04139996
327.515594 -340.222412 4.39389992
327.632812 -347.784088 3.37529993
327.741211 -347.483093 0.183699995
327.736908 -347.492004 1.26339996
327.750092 -347.216187 1.24059999
327.637115 -347.313873 1.7579
327.694305 -347.265411 1.94959998
327.767609 -347.132812 -1.2392
327.710754 -347.088196 -1.05393338
327.631195 -347.140289 -0.802699983
327.660339 -347.157043 -0.743799984
327.722351 -347.12616 -0.540699959
327.690887 -347.061707 1.09459996
327.738586 -347.199005 1.76610005
327.797913 -346.899994 0.747600019
327.770203 -346.856689 1.49070001
327.774994 -346.687592 -0.653900027
327.615814 -346.671814 1.52400005
327.763 -346.531403 1.27760005
327.699585 -346.388885 2.49749994
327.75766 -346.141174 1.55069995
327.774689 -346.018097 1.65289998
327.754395 -346.109314 1.81130004
327.758392 -345.94519 1.72360003
327.616791 -345.951782 1.97335005
327.616486 -345.776306 1.55180001
327.724701 -345.639191 1.91110003
327.755402 -345.703094 3.34829998
327.704315 -345.03241 3.02659988
327.775513 -344.914398 2.71609998
327.68219 -344.911865 2.9059
327.727966 -344.916595 3.53775001
327.626404 -344.860992 3.71009994
327.625214 -344.852814 4.2796998
327.66803 -344.876709 4.46175003
327.605713 -344.947693 4.61199999
327.741211 -344.661713 2.15120006
327.647614 -344.726593 2.29099989
327.634186 -344.752014 4.10599995
327.613495 -344.658112 4.31960011
327.736511 -344.481934 1.48670006
327.693726 -344.473877 1.65939999
327.764008 -344.575897 2.21210003
327.693604 -344.537689 3.84770012
327.668701 -344.326294 1.96560001
327.688995 -344.386108 2.06130004
327.697052 -344.29364 4.16730022
327.601013 -344.308105 4.52930021
327.624695 -344.179199 4.33109999
327.621796 -343.96701 1.86440003
327.763153 -343.935913 8.12590027
327.622314 -343.603485 1.81980002
327.660889 -343.785614 8.94270039
327.662415 -343.4198 4.71519995
327.735687 -343.41571 5.04020023
327.678497 -343.432709 5.42500019
327.70929 -343.346405 4.58309984
327.751129 -343.307037 4.76173353
327.753815 -343.3638 4.90840006
327.62439 -343.335205 5.38329983
327.6651 -343.145599 1.78470004
327.606812 -342.552612 1.74940002
327.606689 -342.455109 2.00749993
327.694763 -342.245056 1.69015002
327.738892 -342.351288 2.0480001
327.670105 -342.307404 2.20939994
327.705292 -342.297485 2.46790004
327.642792 -340.410797 4.13269997
327.717987 -340.351715 4.20039988
327.84201 -348.226501 4.28429985
327.888611 -347.923096 3.04329991
327.939392 -347.623505 3.63170004
327.806305 -347.203094 0.824199975
327.846191 -347.342194 1.78629994
327.88031 -347.068604 -1.10809994
327.979095 -347.149292 -0.585699975
327.921692 -347.118805 -0.0432000011
327.924988 -347.022308 0.863399982
327.834412 -347.108002 2.10689998
327.953186 -346.73941 -0.0307999998
327.850311 -346.435394 1.04610002
327.941223 -346.321747 1.04999995
327.911987 -346.287415 1.20009995
327.921997 -346.251801 2.06279993
327.850006 -346.387787 2.35840011
327.80899 -346.312256 2.52285004
327.825104 -346.181793 1.94280005
327.895691 -346.075195 2.79369998
327.941986 -345.427887 3.01200008
327.991394 -345.270996 -0.835300028
327.928345 -345.271393 4.73019981
327.869507 -345.392914 5.06459999
327.99881 -345.051086 -0.799700022
327.950592 -345.016815 0.944500029
327.86026 -344.943237 2.74389982
327.855896 -344.746613 2.85820007
327.882996 -344.755005 3.53419995
327.887909 -344.453247 -0.783050001
327.997192 -344.526917 0.112199999
327.878693 -344.447601 1.68659997
327.80481 -344.547607 2.33430004
327.881897 -344.311615 -0.699000001
327.90979 -344.222198 -0.554099977
327.944092 -344.282715 0.653999984
327.816895 -344.316895 3.59489989
327.968903 -344.115295 8.90919971
327.951599 -343.954498 4.12150002
327.887848 -343.860535 9.68939972
327.860413 -343.451904 4.41860008
327.878845 -343.322479 4.51947975
327.816193 -343.343109 5.38049984
327.814087 -343.087402 4.72349977
327.838806 -340.659912 4.29949999
327.898895 -340.423889 3.50049996
327.90741 -340.507935 4.29279995
327.936005 -340.502106 4.5630002
327.913605 -340.54364 4.66314983
327.874603 -340.380402 4.20529985
327.860901 -340.072601 4.20749998
328.146088 -348.393585 3.63369989
328.198486 -348.111206 3.97429991
328.108795 -347.782288 3.48930001
328.08551 -347.229401 3.69269991
328.156708 -347.070923 -1.11025
328.116302 -347.057007 -0.899399996
328.022827 -347.114807 -0.451950014
328.070099 -347.159698 2.02449989
328.131714 -347.09671 3.78509998
328.138397 -347.086212 3.96679997
328.050812 -347 -0.679700017
328.095886 -346.724609 -0.182600006
328.105988 -346.296509 0.970000029
328.049896 -346.274994 1.83739996
328.065308 -346.286102 2.52710009
328.159332 -346.289581 3.52526665
328.0784 -346.336395 3.68639994
328.166412 -346.1315 -1.09140003
328.12381 -346.172699 3.86919999
328.019287 -345.874207 1.8125
328.068695 -345.658905 -1.03250003
328.154114 -345.680511 0.886399984
328.109985 -345.480011 -0.841499984
328.154388 -345.582397 0.725000024
328.196198 -345.437195 3.44379997
328.095795 -345.313843 -0.874899983
328.041107 -345.309296 3.63010001
328.000702 -345.242004 4.74429989
328.105194 -345.249451 4.89960003
328.014709 -345.098389 -1.01390004
328.084656 -345.063416 -0.868299961
328.084503 -345.007996 -0.782299995
328.173096 -345.162994 -0.386799991
328.185608 -345.118805 0.417299986
328.133514 -345.163208 4.44329977
328.062897 -345.177887 4.66750002
328.036499 -344.882202 -0.587499976
328.152802 -344.980713 -0.261400014
328.091614 -344.819611 0.449099988
328.130096 -344.950592 0.681100011
328.052094 -344.946411 2.64669991
328.155212 -344.918396 2.954
328.0784 -344.631409 -0.354099989
328.072906 -344.697693 -0.121699996
328.033295 -344.62439 0.191599995
328.080811 -344.735504 0.317299992
328.060913 -344.69696 0.591449976
328.167297 -344.74649 3.29719996
328.022339 -344.497559 -0.432449996
328.046509 -344.591248 -0.29065001
328.16571 -344.429901 1.50940001
328.016693 -344.398193 -0.0907000005
328.067505 -344.244385 2.75270009
328.150787 -344.232391 2.89720011
328.0112 -344.216187 9.52079964
328.180786 -344.185394 7.62109995
328.03891 -343.913605 7.7335
328.044891 -343.703094 8.02499962
328.021088 -343.645691 9.18470001
328.184387 -343.412109 5.01189995
328.157501 -343.566193 8.22099972
328.102997 -343.436615 8.60770035
328.002502 -343.236389 5.40950012
328.137909 -343.300201 7.8354001
328.076477 -343.166931 4.71959972
328.075806 -343.144104 5.47910023
328.149811 -343.139008 7.63999987
328.122101 -343.022186 7.84740019
328.167908 -342.865112 4.65670013
328.116608 -340.549896 3.91689992
328.286865 -348.454895 3.44475007
328.207214 -348.063446 4.05149984
328.277313 -348.12439 4.34450006
328.315796 -347.766052 3.12295008
328.385315 -347.734009 3.29369998
328.391205 -347.321411 -0.367500007
328.299591 -347.229095 3.36680007
328.214203 -347.044708 -0.885900021
328.368011 -347.195099 -0.516300023
328.224487 -347.036804 -0.366100013
328.265594 -347.189392 3.56229997
328.202393 -347.104065 3.68144989
328.23999 -347.08551 3.9375999
328.295593 -346.992096 -0.809199989
328.335114 -346.97821 -0.533699989
328.345215 -346.999908 1.10909998
328.203094 -346.869385 3.3993001
328.240204 -346.921387 3.60279989
328.336212 -346.757111 0.468300015
328.374115 -346.695496 0.633899987
328.331085 -346.598999 -0.824100018
328.235413 -346.553711 3.39980006
328.205811 -346.18399 -1.05949998
328.226196 -346.160889 3.68339992
328.249512 -345.937592 -0.755400002
328.356689 -345.870514 -0.395900011
328.362488 -345.830109 -0.0230999999
328.368774 -345.876251 0.3574
328.344299 -345.713104 -0.495299995
328.376831 -345.721649 -0.319150001
328.347504 -345.67691 0.0656000003
328.368591 -345.700806 0.298500001
328.305786 -345.769989 0.576300025
328.343903 -345.663513 0.744300008
328.339294 -345.563599 -0.545300007
328.338715 -345.471405 -0.199200004
328.23941 -345.548706 0.171000004
328.263306 -345.447693 0.446999997
328.251312 -345.374786 -0.477600008
328.3013 -345.238708 -0.0511999987
328.316101 -345.271393 0.067400001
328.245789 -345.313171 0.266849995
328.235229 -345.289093 0.523599982
328.296997 -345.243011 3.12739992
328.246277 -345.275391 4.29285002
328.3479 -345.193695 0.0688999966
328.238708 -345.189209 5.02899981
328.201691 -344.915497 -0.225700006
328.213989 -344.984497 2.72009993
328.231598 -344.615814 2.03449988
328.203003 -344.463287 8.61709976
328.234589 -344.125488 7.85540009
328.216492 -343.577606 7.51219988
328.296631 -343.219604 5.35669994
328.372009 -343.138489 5.37029982
328.35202 -343.099121 5.49632502
328.326904 -343.030487 5.62979984
328.279999 -343.072296 5.87050009
328.211304 -343.185699 8.04870033
328.239288 -343.029785 8.36559963
328.335541 -342.957794 5.54846668
328.290405 -342.879028 5.68340015
328.297211 -342.929901 7.21500015
328.333801 -342.715912 4.57070017
328.368896 -342.755859 5.72733355
328.333313 -342.363098 7.3055501
328.221985 -342.235107 7.63710022
328.263702 -340.507996 3.77160001
328.519592 -347.796692 3.4224
328.484802 -347.789703 3.61549997
328.529602 -347.436188 2.87470007
328.54129 -347.102295 0.994899988
328.453491 -347.100006 1.20389998
328.483063 -346.933502 -0.890900016
328.428986 -346.969208 -0.564100027
328.49292 -346.85675 0.853999972
328.559998 -346.850098 1.13370001
328.519196 -346.627899 -0.842700005
328.552307 -346.675812 -0.667299986
328.5448 -346.696167 0.125200003
328.479187 -346.700104 0.280999988
328.478027 -346.692139 0.5079
328.484894 -346.747406 0.846499979
328.477386 -346.744904 1.64409995
328.5448 -346.425507 -0.93779999
328.531433 -346.499695 -0.686025023
328.524658 -346.478149 -0.465849996
328.493713 -346.506836 -0.378600001
328.554443 -346.469452 -0.131850004
328.534637 -346.479309 0.131449997
328.479889 -346.498077 0.279666662
328.499939 -346.501282 0.417450011
328.552246 -346.461761 0.723649979
328.559631 -346.307922 -0.484750003
328.580688 -346.264496 -0.0788000003
328.525513 -346.326599 0.0636000037
328.555908 -346.351196 0.529600024
328.531982 -346.1073 -0.305549979
328.509827 -346.141357 -0.1021
328.467896 -346.030792 0.386000007
328.508911 -345.953491 -0.599300027
328.41864 -345.817352 -0.0796000063
328.430695 -345.989288 0.494800001
328.538086 -345.915314 3.1329999
328.404999 -345.9151 3.44709992
328.566315 -344.998108 5.88679981
328.413391 -343.552094 4.57200003
328.484985 -343.344788 5.03450012
328.486786 -343.22879 5.21369982
328.495667 -343.103027 5.10029984
328.438599 -343.016907 5.4060998
328.479492 -343.031403 8.36779976
328.483185 -343.049988 8.44309998
328.49881 -342.8797 5.12434959
328.5401 -342.933899 5.29979992
328.433716 -342.911499 5.49594975
328.488312 -342.840668 5.6573
328.599091 -342.94281 8.19330025
328.528015 -342.733398 4.99639988
328.503387 -342.755005 5.18550014
328.468414 -342.684509 5.76049995
328.513885 -342.408203 7.17460012
328.471313 -342.408203 7.67649984
328.436798 -342.225708 7.08949995
328.510468 -342.099518 7.12973309
328.53894 -342.038361 7.37320042
328.4375 -342.148712 7.40180016
328.550995 -341.960632 7.22000027
328.578003 -341.928589 7.47119999
328.485474 -341.911591 7.66505003
328.581696 -341.862915 8.62800026
328.706909 -348.169098 3.52710009
328.637085 -347.959686 3.96350002
328.662201 -347.669189 -0.160400003
328.730988 -347.616608 1.45809996
328.776794 -347.769989 3.48259997
328.772888 -347.532288 0.613600016
328.677704 -347.337799 -0.242300004
328.785492 -347.205109 0.573800027
328.794006 -347.248688 0.689800024
328.741791 -347.127106 -0.579900026
328.739105 -347.088989 -0.356000006
328.626007 -346.876801 -0.568799973
328.611023 -346.965942 -0.247799993
328.711395 -346.993408 1.14499998
328.610596 -346.421814 -0.706799984
328.622894 -345.210297 1.56260002
328.736389 -345.190308 1.8427
328.740295 -345.024994 6.14249992
328.761688 -344.683685 5.07089996
328.660095 -343.032501 8.22859955
328.625305 -342.8862 5.38009977
328.604706 -342.945099 8.67210007
328.708649 -342.06958 7.6928997
328.720551 -342.092163 8.04450035
328.661346 -341.88324 7.37090015
328.637848 -341.913879 7.43795013
328.689453 -341.909302 7.68949986
328.697998 -341.891907 8.08740044
328.713989 -341.820709 8.22609997
328.660492 -341.792694 8.06400013
328.6875 -341.594788 8.20860004
328.880707 -357.375793 -0.0474000014
328.885101 -347.87561 0.26789999
328.911621 -347.695801 0.0605999976
328.809113 -347.63089 3.28520012
328.919403 -347.441101 0.286500007
328.893402 -347.298798 -0.712300003
328.912231 -347.100647 1.50870001
328.876709 -346.289307 1.45350003
328.870087 -345.259613 1.67649996
328.895386 -344.521515 5.19119978
328.843567 -344.491913 5.63915014
328.850311 -343.134399 5.02950001
328.810211 -342.203888 7.94950008
328.944 -342.014496 7.76870012
328.803314 -341.856415 7.38609982
328.817993 -341.864502 7.49760008
328.892303 -341.872192 7.67539978
328.821014 -341.902008 8.07050037
328.940399 -341.673065 7.27752495
328.908752 -341.700378 7.54327488
328.985992 -341.711304 7.69460011
328.91861 -341.657898 7.81269979
328.949738 -341.529968 7.67309999
328.93396 -341.507935 7.93485022
328.94574 -341.512756 8.09964943
329.041595 -357.370605 0.879199982
329.164886 -348.839203 0.453999996
329.153809 -348.331207 0.107699998
329.156891 -348.322296 0.33160001
329.120087 -348.166504 0.367199987
329.036804 -347.945801 0.630599976
329.107605 -346.895203 1.31910002
329.102295 -346.933899 1.50189996
329.060303 -346.216003 1.59730005
329.0495 -346.184998 1.55569994
329.115204 -342.806 8.78859997
329.060699 -342.747498 8.67850018
329.102509 -341.699341 7.51465034
329.011108 -341.529602 7.31449986
329.047028 -341.528839 7.55386686
329.059845 -341.513519 7.68063354
329.02887 -341.442352 7.89370012
329.094391 -341.392395 7.61850023
329.083801 -341.317474 7.83406639
329.079315 -341.2789 8.00189972
329.258911 -357.327606 0.119599998
329.299194 -349.993591 0.278600007
329.269012 -349.995697 0.476700008
329.288086 -349.0336 0.139599994
329.299286 -348.258514 -0.232899994
329.266388 -347.361115 1.80680001
329.374603 -341.331696 8.39560032
329.361786 -341.135986 8.5710001
329.578796 -357.245789 0.0454999991
329.412994 -357.314911 1.08420002
329.425293 -349.936707 0.195199996
329.506195 -349.899689 0.679400027
329.555786 -349.599304 0.555700004
329.470215 -349.118408 0.365999997
329.460693 -343.697693 5.55150032
329.414307 -341.40271 8.66600037
329.424591 -341.180908 8.50319958
329.440094 -341.070312 8.6505003
329.557404 -341.048309 8.87489986
329.617798 -357.242401 0.409000009
329.781311 -350.751099 0.881699979
329.612488 -343.996185 5.03350019
329.778107 -343.825989 5.26819992
329.640656 -343.67749 5.49843359
329.686707 -343.639191 5.69350004
329.777191 -342.169189 8.1892004
329.691315 -341.711487 8.64389992
329.683777 -341.449524 8.72035027
329.773193 -340.975311 8.98910046
329.989685 -357.203186 -0.934300005
329.832703 -357.178894 -0.496699989
329.866211 -343.748138 5.30004978
329.97226 -342.07251 8.09309959
329.843597 -341.427246 8.75054932
329.962555 -341.317566 8.34999943
329.913086 -341.281586 8.59280014
329.914948 -341.316925 8.71000004
329.873474 -341.359497 8.86359978
329.914795 -341.269196 9.08909988
329.9375 -341.172211 8.35039997
329.931091 -341.159088 8.45440006
329.9953 -341.102203 9.0326004
330.153687 -357.127502 -0.899299979
330.042694 -357.17691 -0.574999988
330.181396 -357.144592 0.0905999988
330.044586 -357.168915 0.61589998
330.172211 -357.171387 0.873899996
330.037201 -343.805603 5.11639977
330.104187 -343.907104 5.27260017
330.012909 -343.743805 5.0381999
330.023193 -343.685089 5.25860023
330.058289 -343.743591 6.02190018
330.131897 -343.522308 6.02600002
330.023712 -343.535614 6.21299982
330.098206 -342.264099 8.03310013
330.199707 -342.220703 8.58030033
330.030212 -342.021088 8.54409981
330.077789 -341.950897 8.05300045
330.024689 -341.996185 8.22360039
330.101318 -341.862335 8.72712517
330.108673 -341.73053 8.68336678
330.027985 -341.263184 8.72436714
330.103058 -341.215729 8.88840008
330.194489 -341.1875 8.59749985
330.186707 -341.115204 8.68309975
330.119751 -341.148132 8.89120007
330.396393 -357.054901 -1.12740004
330.339691 -357.158356 -0.55250001
330.352783 -357.116699 0.252649993
330.260803 -357.061798 1.15339994
330.233612 -352.291809 0.502300024
330.332794 -352.058502 -0.0524999984
330.269409 -343.440094 6.45510006
330.253204 -342.961792 5.81160021
330.259705 -342.79071 5.92560005
330.345581 -342.590454 7.71889973
330.22049 -342.091614 8.27040005
330.282806 -341.946198 8.48820019
330.34021 -341.675476 8.57365036
330.359009 -341.77771 8.64470005
330.588715 -357.082886 -0.698899984
330.461395 -357.080688 -0.51789999
330.555115 -357.077393 -0.297100008
330.548401 -357.10379 0.143199995
330.470642 -357.055725 0.3028
330.559204 -357.103088 0.558700025
330.554596 -357.119598 1.07449996
330.566803 -357.144806 1.39670002
330.512909 -353.27417 0.142000005
330.435486 -353.399597 0.489300013
330.500488 -353.286194 1.19729996
330.539307 -343.047394 6.37319994
330.42804 -342.858032 7.35095024
330.5849 -342.614441 6.94654989
330.511108 -342.733368 7.35054016
330.429016 -342.718384 7.51609993
330.441772 -342.618103 7.71115017
330.501801 -342.264496 8.36690044
330.450195 -342.033691 8.6821003
330.468842 -341.851746 8.6201992
330.483032 -341.712585 8.53355026
330.579803 -341.60141 8.63000011
330.5914 -341.509186 8.54990005
330.768799 -357.028992 -0.757000029
330.683746 -357.036896 -0.500849962
330.7146 -357.049713 -0.345499992
330.73999 -357.057312 0.0777999982
330.702393 -357.020203 0.354999989
330.622498 -353.222595 0.280200005
330.707092 -353.203613 0.599399984
330.653412 -353.014008 0.00350000011
330.742615 -353.12561 0.642499983
330.742188 -343.935486 12.0939999
330.732788 -343.4039 6.98729992
330.734619 -343.230652 7.12699986
330.679565 -343.287201 7.23884964
330.793396 -343.115906 7.24819994
330.695312 -342.880707 6.94050026
330.794495 -342.857697 7.08850002
330.727173 -342.964294 7.25699997
330.713104 -342.862396 7.53399992
330.623474 -342.739868 6.9201498
330.753693 -342.691803 7.25703335
330.713654 -342.663757 7.4611001
330.792603 -342.602905 7.80840015
330.731049 -342.471161 6.76440001
330.716492 -342.500763 6.88821983
330.690704 -342.503601 7.10659981
330.740814 -342.565796 7.30410004
330.738464 -342.559082 7.53469992
330.699829 -342.510101 7.66809988
330.72641 -342.480011 7.88553333
330.677704 -342.414398 8.63529968
330.714508 -342.312103 6.83220005
330.772491 -342.383606 7.66680002
330.690063 -342.290802 8.53256702
330.724792 -342.320587 8.70020008
330.795593 -342.185608 7.17749977
330.719482 -342.030823 8.56760025
330.74411 -342.075012 8.62629986
330.642395 -341.845093 8.52779961
330.677887 -341.879913 8.60509968
330.763245 -341.677765 7.30053329
330.731506 -341.611298 7.41400003
330.63501 -341.708099 8.53689957
330.752594 -341.68631 8.97959995
330.745605 -341.486511 7.3052001
330.722412 -341.465515 8.49422455
330.790985 -341.368988 8.59819984
330.7724 -341.174988 8.86950016
330.848145 -357.04303 -0.701699972
330.806396 -357.095795 -0.160400003
330.940094 -357.043304 0.397300005
330.962158 -356.989624 -0.0756999999
330.94751 -356.956207 0.541100025
330.961395 -356.952606 1.04900002
330.919586 -356.957611 1.22430003
330.986115 -354.563904 0.917500019
330.807098 -353.678894 0.932799995
330.814331 -343.175598 7.04800034
330.973907 -342.858307 6.83169985
330.917206 -342.684692 7.4698
330.82959 -342.642792 7.62209988
330.848206 -342.577087 6.90819979
330.885651 -342.511108 7.55480003
330.88501 -342.515808 7.73110008
330.855896 -342.4729 7.87325001
330.833313 -342.480286 9.82929993
330.953613 -342.268585 6.97550011
330.813507 -342.376099 7.16120005
330.940399 -342.314453 7.49329996
330.942993 -342.347595 7.82040024
330.995605 -342.3125 8.05669975
330.816742 -342.159607 6.7557497
330.960388 -342.170197 6.8119998
330.902496 -342.127869 7.08949995
330.92157 -342.079956 7.33664989
330.951111 -342.100891 7.57690001
330.985901 -342.039612 7.6718998
330.880554 -342.14975 8.52639961
330.876312 -342.046692 8.65989971
330.9711 -342.022797 8.9137001
330.860901 -341.855896 7.11380005
330.975098 -341.993011 7.32789993
330.88916 -341.876556 7.48070002
330.906006 -341.912964 8.48532486
330.902588 -341.686005 6.99289989
330.889038 -341.704803 7.1079998
330.971405 -341.748413 7.73140001
330.861145 -341.717285 8.94145012
330.893799 -341.616608 9.00570011
330.864807 -341.582397 7.17250013
330.86911 -341.538605 7.20069981
330.978912 -341.47821 7.58029985
330.857086 -341.561707 7.75239992
330.896393 -341.472748 8.14229965
330.911865 -341.524414 8.26510048
330.837646 -341.553253 8.70459938
330.842712 -341.505157 8.89090061
330.951294 -341.390411 7.51809978
330.935211 -341.381592 8.18120003
330.861298 -341.280304 8.55545044
330.937592 -341.275574 8.69044971
330.813904 -341.342194 8.84739971
330.950104 -341.077393 8.81130028
331.194885 -356.99469 -0.977599978
331.0224 -356.939301 -0.459500015
331.052094 -356.984497 0.453299999
331.186096 -356.976501 0.838100016
331.177094 -342.486786 7.68139982
331.01709 -342.363495 7.53119993
331.123993 -342.307587 7.84030008
331.000793 -342.201813 8.54870033
331.015289 -342.073914 7.27920008
331.088989 -342.033997 7.52089977
331.112427 -342.072296 7.7185998
331.036591 -342.047913 7.88479996
331.113708 -342.096741 8.42399979
331.002991 -341.915894 7.00839996
331.081177 -341.85791 7.65899992
331.181793 -341.909607 8.47574997
331.142151 -341.872406 8.97669983
331.10495 -341.761108 8.36434937
331.094574 -341.706238 8.49483967
331.14917 -341.713257 9.7744503
331.10257 -341.418335 7.12116671
331.049255 -341.43927 7.27780008
331.114807 -341.458649 7.53709984
331.077606 -341.510986 7.68753338
331.194397 -341.563995 8.18859959
331.038696 -341.450104 8.31519985
331.108032 -341.486267 8.45106697
331.021088 -341.417786 8.70720005
331.15625 -341.579498 9.82620049
331.154175 -341.327332 7.49154997
331.063599 -341.304993 7.62950039
331.064697 -341.286804 8.16259956
331.057709 -341.212097 8.49709988
331.101837 -341.271606 8.6406002
331.025604 -341.279907 8.89220047
331.159088 -341.111786 7.81419992
331.03299 -341.028595 8.74790001
331.125519 -341.06601 8.82929993
331.17511 -340.964111 8.95860004
331.100403 -340.898651 9.10754967
331.223602 -357.007996 0.67110002
331.276215 -356.93811 -0.111599997
331.266754 -356.918945 0.309799999
331.271912 -356.945099 0.495200008
331.206604 -356.959503 1.04680002
331.291412 -342.955292 8.77779961
331.368225 -342.716888 8.76217461
331.331879 -342.719055 8.84813309
331.306213 -342.533844 7.86964989
331.254211 -342.042786 9.90330029
331.22641 -341.845306 8.40019989
331.315155 -341.732178 8.4850502
331.251099 -341.756897 9.3064003
331.249207 -341.712189 9.58049965
331.381592 -341.651215 9.68159962
331.26239 -341.499908 8.3093996
331.355896 -341.558899 9.59029961
331.33374 -341.523987 9.72194004
331.296997 -341.528015 9.91415024
331.397186 -341.303497 6.98929977
331.24939 -341.302612 7.12669992
331.318298 -341.240601 7.3352499
331.276093 -341.276703 7.47480011
331.28363 -341.254791 8.31626701
331.365204 -341.359406 8.64229965
331.264008 -341.338501 8.82579994
331.334503 -341.175201 7.00479984
331.302734 -341.124878 7.32643986
331.338104 -341.080109 7.52050018
331.330994 -341.091888 7.60169983
331.372192 -341.092499 8.34070015
331.343201 -341.194702 8.64369965
331.243591 -341.017487 8.97420025
331.395508 -340.947296 7.87050009
331.345612 -340.986298 8.74279976
331.267609 -340.918396 8.89830017
331.312592 -340.872681 9.0685997
331.398102 -340.749298 7.3270998
331.32959 -340.729706 7.45230007
331.386292 -340.721191 9.10009956
331.318787 -340.300903 8.0017004
331.460785 -356.965302 -0.192499995
331.569305 -356.831146 0.0188000016
331.412292 -356.954987 0.966700017
331.42981 -356.916321 1.26469994
331.472992 -355.769714 0.615400016
331.457123 -342.678467 8.71430016
331.592407 -341.818115 9.56289959
331.528687 -341.992004 9.67800045
331.541199 -341.696686 8.35340023
331.517303 -341.668884 9.52860069
331.415009 -341.582886 7.90100002
331.456177 -341.532928 9.66584969
331.4646 -341.4375 9.91664982
331.407593 -341.238586 8.47029972
331.44809 -341.262848 8.70215034
331.565552 -341.356598 9.57264996
331.513428 -341.372894 9.63024998
331.557404 -341.341003 9.83199978
331.439301 -341.069794 7.13310003
331.413086 -341.045013 7.5012002
331.5047 -341.105286 7.63759995
331.545898 -341.123413 8.42000008
331.588989 -341.160492 8.77050018
331.477997 -340.914001 7.41599989
331.494141 -340.845245 7.68645
331.435486 -340.830811 7.82369995
331.426941 -340.952332 8.72324944
331.581543 -340.843628 8.92194939
331.5383 -340.966003 9.0618
331.47049 -340.690308 7.73799992
331.502869 -340.623108 7.98280001
331.50119 -340.724457 9.05156708
331.550598 -340.502533 7.5097003
331.519897 -340.469452 7.85494995
331.509491 -340.508545 8.0309
331.468597 -340.279175 7.93298006
331.541412 -340.381409 8.03950024
331.528015 -340.172791 7.88469982
331.684204 -356.832611 0.948800027
331.684906 -356.507202 0.283899993
331.707825 -342.255402 7.27369976
331.673004 -342.207703 8.57960033
331.757019 -342.04425 7.18190002
331.700714 -342.110596 7.32320023
331.745209 -342.114288 8.46920013
331.64502 -341.905579 9.68720055
331.704895 -341.669098 7.92010021
331.7435 -341.617493 8.17689991
331.621948 -341.675201 9.50535011
331.64209 -341.471313 8.00739956
331.696808 -341.446594 8.26889992
331.677063 -341.485626 9.52617455
331.695404 -341.377106 9.54419994
331.721436 -341.308289 9.62880039
331.627594 -341.153595 8.28310013
331.762787 -341.192505 9.60050011
331.754303 -340.989197 8.86320019
331.7547 -340.990112 9.04319954
331.6297 -340.761505 9.09350014
331.623108 -340.492371 7.52750015
331.753113 -340.3703 7.8762002
331.618011 -340.18631 7.91909981
331.881409 -343.388 11.3437004
331.803711 -342.062286 8.35249996
331.826202 -341.855103 7.1729002
331.821808 -341.974304 8.5309
331.823547 -341.531067 8.10919952
331.860046 -341.432434 8.23394966
331.8797 -341.4552 8.42609978
331.923615 -341.394806 8.16749954
331.926147 -341.29071 8.27120018
331.941498 -341.231812 9.49849987
331.9888 -341.163696 8.87539959
331.941895 -341.18869 9.34980011
331.827087 -341.095703 9.47399998
331.877411 -340.803497 9.32009983
331.932617 -340.925751 9.51524925
331.955505 -340.883362 9.65425014
331.839172 -340.696503 9.0475502
331.960388 -340.662598 9.26885033
331.818115 -340.450012 7.64760017
331.988312 -340.557404 8.73159981
331.9328 -340.578796 9.20390034
331.866516 -340.371674 7.87586689
331.899902 -340.119507 8.0777998
332.129486 -345.201904 9.52149963
332.198486 -345.195587 9.70149994
332.188507 -342.995392 11.3806
332.101318 -342.535767 11.1477509
332.035736 -341.278961 8.32216644
332.062622 -341.234192 8.71269989
332.13501 -341.209015 8.8046999
332.048401 -341.181885 8.36260033
332.063538 -341.049194 8.71724987
332.01239 -341.012604 8.94470024
332.099396 -340.932495 8.5472002
332.006958 -340.865997 8.92749977
332.08194 -340.893555 9.02734947
332.111267 -340.899384 9.27653313
332.09021 -340.712738 8.70014
332.079834 -340.705353 9.25720024
332.103607 -340.576508 7.79610014
332.064911 -340.4505 7.89219999
332.060883 -340.53006 8.69533348
332.2099 -345.22821 9.49199963
332.32251 -345.096405 9.61849976
332.318909 -341.715057 11.7056007
332.312317 -341.242157 8.47200012
332.236298 -340.604126 9.22990036
332.262512 -340.524506 7.82070017
332.522797 -342.614197 11.5033998
332.499054 -342.555542 11.3031502
332.565491 -342.186005 11.2017002
332.451111 -341.7565 11.5716
332.487671 -341.704742 11.6540003
332.479858 -341.288361 11.6586494
332.515991 -340.894501 11.6522999
332.499542 -340.632996 7.92775011
332.586487 -340.255005 8.39570045
332.780304 -342.503815 11.2272997
332.608307 -342.404694 11.9289999
332.631714 -342.369202 11.3422003
332.733826 -342.120514 11.1757002
332.732391 -341.855499 11.3885002
332.750702 -341.695496 11.3898001
332.689819 -341.646698 11.5150671
332.754852 -341.525055 11.5377665
332.707001 -341.338104 11.5934
332.665405 -341.22641 11.6571999
332.651093 -341.194702 11.5958004
332.64801 -340.8125 7.61380005
332.718201 -340.641693 7.49919987
332.754791 -340.632294 8.80510044
332.751801 -340.541504 7.92140007
332.628815 -340.127197 8.53540039
332.894501 -343.969696 6.4849
332.885498 -342.217194 11.0969
332.870148 -342.245178 11.3430004
332.806213 -342.2659 11.4029999
332.842194 -342.289795 11.6077995
332.9086 -342.060974 11.0762997
332.856812 -342.154907 11.5296497
332.885529 -341.85907 11.3676662
332.910645 -341.878174 11.4805498
332.986115 -341.793396 11.2117004
332.891541 -341.769775 11.4681244
332.84906 -341.50174 11.5012665
332.846405 -341.373993 11.5320997
332.991089 -340.638 7.32770014
332.865692 -340.673187 7.93660021
332.805603 -340.451813 7.97319984
332.939209 -340.373413 8.0397501
332.905487 -340.328186 8.5649004
333.185913 -343.289612 9.62619972
333.1073 -342.282013 10.9785004
333.092957 -342.261353 11.0880337
333.160492 -342.182587 10.6983004
333.127899 -342.13501 10.9245005
333.129395 -342.12561 11.0125999
333.009491 -342.157715 11.4337997
333.078094 -341.865051 10.9395504
333.158203 -341.858795 11.1355
333.071106 -341.899384 11.2755499
333.197906 -341.835205 11.4097004
333.095215 -341.661682 10.9282999
333.153015 -341.727386 11.1371002
333.072998 -341.680389 11.3396997
333.152008 -341.792786 11.4059
333.148102 -341.568787 10.9989004
333.043488 -341.531006 11.5081997
333.040894 -340.910309 7.37080002
333.1008 -340.653198 7.81449986
333.151367 -340.5383 7.07695007
333.115906 -340.470001 7.21070004
333.124603 -340.446503 7.77720022
333.321198 -344.007202 6.93809986
333.29541 -344.139496 7.14839983
333.291595 -343.933197 7.12090015
333.267487 -343.771393 10.0742998
333.270782 -343.489014 9.6408329
333.212494 -343.264893 9.73999977
333.251984 -342.119049 10.7733002
333.30072 -342.003174 10.8470497
333.246613 -341.927399 10.9170752
333.246704 -341.83728 11.2821503
333.302795 -341.911591 11.4292002
333.208893 -341.610413 10.9428997
333.206604 -341.748291 11.3893003
333.391998 -341.071014 8.03369999
333.352112 -340.952087 7.75460005
333.537415 -344.294189 7.02540016
333.520813 -344.239105 7.20919991
333.420349 -343.533356 9.52285004
333.502075 -341.890686 10.9379997
333.479492 -341.792908 11.0005999
333.73291 -348.142395 9.41069984
333.761292 -345.0047 7.76380014
333.788086 -344.805298 7.88290024
333.692413 -344.045898 11.2214003
333.7724 -343.913605 10.3022003
333.693512 -341.867188 10.6885004
333.662415 -341.855591 10.8163004
333.65799 -340.60611 7.8499999
333.958191 -345.7146 9.88090038
333.802094 -345.101807 7.77409983
333.900085 -344.07019 9.96389961
333.885864 -343.879333 10.16605
333.966614 -343.252808 11.4358997
333.910614 -343.139587 11.5846996
333.907806 -342.837799 9.5795002
333.922394 -342.782898 9.56210041
334.001404 -348.076202 9.5291996
334.182495 -347.772186 9.00450039
334.153198 -347.482788 8.57649994
334.04599 -347.561401 8.6008997
334.13031 -347.507385 8.8348999
334.02829 -344.424805 9.86330032
334.049011 -344.355591 9.79430008
334.119598 -344.293396 9.8803997
334.132385 -344.138397 9.87909985
334.028595 -343.792206 10.3038998
334.10849 -343.563507 6.82870007
334.014587 -343.506989 7.46500015
334.024414 -342.760895 13.0305004
334.255188 -348.503296 10.0402002
334.313385 -347.98941 9.27270031
334.384888 -347.871399 9.5376997
334.382599 -346.970215 8.87759972
334.32959 -345.047394 9.4829998
334.2883 -344.599213 7.79040003
334.266998 -343.019104 7.50750017
334.437103 -346.94989 9.10589981
334.479401 -342.578796 11.7688999
334.455597 -342.44751 12.4505005
334.521729 -342.383972 12.4514008
334.681702 -348.847687 10.9436998
334.751099 -348.621948 10.6785002
334.690186 -348.506104 10.2646999
334.656677 -348.358276 9.94974995
334.739105 -348.335907 10.1725006
334.785614 -348.293396 10.2742996
334.747101 -347.846802 10.2641001
334.775604 -347.7883 10.1316004
334.781586 -347.748108 10.3210001
334.695801 -347.068909 10.5792999
334.755402 -347.067993 10.6229
334.697906 -346.945099 10.7781
334.664886 -343.405396 7.01200008
334.642487 -343.326294 7.12090015
334.782196 -343.152405 7.28910017
334.748901 -342.911194 6.78879976
334.687408 -342.990509 12.2275
334.71051 -342.430511 12.3999004
334.720276 -342.459839 12.4582996
334.748749 -342.229706 12.3120003
334.734589 -342.185608 12.4252005
334.883392 -348.670197 10.3986998
334.933685 -348.652588 10.6813002
334.859802 -348.479889 10.1093998
334.881805 -348.558197 10.6324997
334.810486 -348.291595 10.0528002
334.855804 -348.233093 10.3133001
334.928192 -348.321289 10.7172003
334.987701 -348.157898 9.83710003
334.927185 -348.192505 10.1807003
334.88501 -347.642395 10.1638498
334.818695 -347.708496 10.3079004
334.951904 -347.542786 10.2289
334.913086 -347.264404 9.91489983
334.88501 -347.178101 9.94470024
334.92749 -347.10733 10.3049498
334.808899 -347.101898 10.4211998
334.897156 -346.935242 10.2346001
334.913727 -346.895142 10.49366
334.847687 -346.860199 10.6133003
334.973816 -346.704803 10.1343994
334.833099 -344.234894 10.1815996
334.863007 -344.06189 9.51570034
334.954803 -342.426025 12.1454496
334.899414 -342.525208 12.2549
334.886505 -342.2995 12.2341003
334.838715 -342.317505 12.4288998
334.840698 -342.122803 12.4103003
335.016998 -348.845215 10.6820002
335.125397 -348.660889 10.3565998
335.153198 -348.766388 10.5788002
335.068298 -348.559204 10.0419998
335.158508 -348.594696 10.3807001
335.039185 -348.273102 10.0443001
335.036591 -348.241486 10.8168001
335.187897 -348.132385 9.88949966
335.175507 -347.994995 10.7930002
335.124298 -347.624908 10.2839003
335.048187 -346.946198 10.3205004
335.082489 -346.663696 10.0915003
335.101807 -346.582611 10.1868
335.196899 -343.941895 8.33619976
335.164001 -343.802704 10.1971998
335.116699 -343.808685 10.4570999
335.012695 -343.639709 7.93310022
335.134705 -343.570404 8.36499977
335.142914 -343.547211 8.51959991
335.108795 -342.748901 11.9607
335.346863 -348.43985 11.5579996
335.306488 -348.127594 9.84449959
335.333801 -348.173706 10.7328997
335.382996 -348.125 10.8456001
335.293396 -348.0466 11.1620998
335.224121 -348.108765 11.5069504
335.318695 -347.905396 10.6588001
335.350189 -347.829895 10.9461002
335.306213 -347.893097 11.1309996
335.292664 -347.896149 11.2687998
335.3414 -347.949585 11.6520004
335.345612 -347.749908 10.9236002
335.34671 -347.716888 11.0671663
335.278107 -347.517914 10.0355997
335.258392 -347.007111 11.0157003
335.396515 -346.888092 9.14159966
335.377991 -346.994904 10.9547005
335.384888 -346.823608 11.0313997
335.388794 -346.643188 11.3779001
335.305603 -346.435303 9.1789999
335.328094 -346.537201 11.8642998
335.360413 -346.203491 9.09720039
335.301788 -346.343414 9.20429993
335.28891 -345.822998 8.38850021
335.29776 -345.332489 11.1709499
335.210907 -343.869598 10.3515997
335.226593 -343.589996 7.98260021
335.256592 -343.486938 8.49730015
335.325714 -343.303009 8.14379978
335.266907 -343.1138 13.9105997
335.320007 -342.98291 12.7889996
335.499603 -348.48465 10.2756996
335.471802 -348.084106 11.8521996
335.463287 -347.959015 11.4233999
335.5 -347.734894 11.2770004
335.439392 -347.547394 11.1792002
335.581909 -347.513794 11.4818001
335.511292 -347.420013 11.6153002
335.582092 -347.319092 11.3466997
335.557312 -347.296539 11.933033
335.465607 -347.123901 10.9660997
335.591095 -347.168488 11.8607998
335.530396 -346.837311 9.01379967
335.479401 -346.993408 10.7017002
335.402313 -346.891602 10.9176998
335.575714 -346.713196 11.0376997
335.44339 -346.652405 11.3540001
335.588898 -346.531494 11.3628998
335.454315 -346.421814 11.7475996
335.586395 -346.517303 11.9959002
335.517792 -346.202301 9.01410007
335.528015 -346.382385 9.56029987
335.489014 -346.356995 11.5008001
335.548004 -346.308289 11.7468996
335.567505 -346.113708 9.03629971
335.546295 -345.949799 8.51720047
335.583588 -345.67041 10.9612999
335.50705 -345.73822 11.2396498
335.509521 -345.490295 11.1353502
335.542786 -345.215088 8.28209972
335.487793 -344.092896 9.64719963
335.531586 -343.720215 7.82560015
335.54541 -342.627411 11.6995001
335.509186 -342.668304 14.7378998
335.585205 -342.540192 11.6747999
335.593414 -342.421204 14.1559
335.490692 -342.503387 14.7434998
335.538086 -342.432007 14.9057007
335.587158 -342.270203 14.8452997
335.550903 -341.593414 13.2264004
335.650299 -348.612915 10.2933998
335.678314 -348.525513 10.3947001
335.765808 -348.452515 10.4832001
335.667297 -347.833496 11.8308001
335.659607 -347.667908 11.5346003
335.671356 -347.465698 11.3831005
335.781708 -347.53479 11.4736996
335.607697 -347.35141 11.1018
335.653015 -347.223114 11.4256001
335.7258 -347.2146 11.8778
335.650085 -347.178009 11.3325996
335.709595 -347.070099 11.5557003
335.694885 -347.126404 11.8997002
335.656403 -347.128998 12.0518999
335.701813 -346.839203 9.05749989
335.655792 -346.809601 11.9349003
335.64151 -346.891815 12.0321999
335.747009 -346.472198 11.4981003
335.682098 -346.434662 11.7353992
335.7211 -346.463013 12.0487003
335.711365 -346.31189 11.8999996
335.736206 -346.026215 8.96109962
335.763092 -345.940002 8.99260044
335.733398 -345.959412 9.05360031
335.600708 -345.674896 8.63080025
335.60791 -345.66449 11.1724997
335.623688 -345.402405 11.1493998
335.634613 -344.665802 10.7286997
335.7612 -344.511902 10.9549999
335.781433 -343.097198 13.7226
335.729797 -342.884003 12.5963001
335.701355 -342.804199 12.7120495
335.744995 -342.869873 13.364233
335.78241 -342.821991 13.5577002
335.795502 -342.875214 13.7087002
335.699402 -342.941833 13.8353996
335.615814 -342.489502 11.6048002
335.681488 -342.501892 11.8522997
335.655212 -342.495087 14.0313997
335.605591 -342.468201 14.2012997
335.703186 -342.504517 14.6865997
335.647797 -342.439301 15.5504999
335.71109 -342.323547 11.5619497
335.784485 -342.300415 11.6211996
335.752686 -342.220001 13.9211998
335.656647 -342.346893 14.1143999
335.769012 -342.38681 14.5281
335.732758 -342.296356 14.6501665
335.687256 -342.312653 14.8552494
335.783508 -342.162109 14.0219002
335.712646 -342.136902 14.6900501
335.748657 -342.010315 14.8661499
335.653107 -342.089386 15.3305998
335.732971 -341.880646 13.2815495
335.733612 -341.837585 13.7519493
335.749512 -341.994598 14.6190004
335.770111 -341.86319 15.4591999
335.787903 -341.718597 13.1651001
335.666077 -341.681946 13.3261499
335.704712 -341.771393 13.7144003
335.740143 -341.673706 14.3537006
335.718994 -341.696655 14.4687195
335.678009 -341.618896 14.6098003
335.705383 -341.53064 14.3355331
335.694092 -341.567688 14.4041004
335.718201 -341.302704 12.6529999
335.70401 -341.273682 13.0742598
335.696106 -341.158508 13.1322002
335.824402 -347.560608 11.6164999
335.86261 -347.271912 11.4127998
335.929291 -347.132385 11.5150995
335.876709 -346.880402 9.32369995
335.986511 -346.486389 10.9708996
335.892212 -346.46051 11.4223003
335.809113 -346.510406 12.0887003
335.945923 -346.291351 9.53906631
335.842194 -346.259644 11.2988997
335.915955 -346.297546 11.6809998
335.985687 -346.197296 9.38619995
335.802185 -346.057495 9.53409958
335.918304 -346.005096 11.6243
335.864288 -345.932098 8.9921999
335.866486 -343.678986 11.4942999
335.910492 -343.58609 14.5816002
335.848511 -343.23349 13.7397003
335.860687 -343.087494 13.3400002
335.871826 -343.101349 13.7304497
335.891907 -342.889099 12.5880003
335.888397 -342.967285 13.7974997
335.945099 -342.967499 13.8111
335.949799 -342.987488 14.1598997
335.965912 -342.739685 12.816
335.905609 -342.788391 13.1668997
335.843994 -342.686768 13.3232002
335.896088 -342.684601 13.5114002
335.869446 -342.767303 13.7031498
335.953705 -342.739105 14.0023003
335.9534 -342.651611 14.5662003
335.931091 -342.590149 13.3225002
335.891205 -342.506592 13.7649498
335.847595 -342.469604 13.8284998
335.822998 -342.553101 14.5748997
335.952606 -342.287415 13.7751999
335.887177 -342.305237 13.8625669
335.888885 -342.255707 14.1331997
335.900391 -342.241394 14.2588997
335.865021 -342.259705 14.5347662
335.941986 -342.143799 13.6904001
335.951294 -342.150696 13.8071003
335.981415 -342.104706 14.1350002
335.92923 -342.123108 14.2975502
335.985687 -342.082397 14.4473
335.83139 -342.037903 14.9168997
335.851746 -341.897705 13.6935501
335.897217 -341.925537 13.9331999
335.826599 -341.974396 14.5362997
335.827789 -341.921906 15.3788004
335.899017 -341.69281 13.6937256
335.864105 -341.624786 14.1548004
335.928223 -341.679474 14.2893333
335.980988 -341.713409 15.2786999
335.800201 -341.531494 13.2304001
335.997803 -341.507385 13.8959999
335.997894 -341.5289 14.2156
335.985504 -341.478607 14.4231997
335.831604 -341.275787 12.6802998
335.860291 -341.251648 12.8892002
335.866486 -341.365814 13.1039
335.973206 -341.0849 12.5073996
335.86731 -341.174408 12.7615995
335.921478 -341.127228 12.9140749
335.950806 -340.988403 12.6971998
335.911987 -340.924805 12.9680996
335.919006 -340.967407 13.0066004
335.968262 -340.861389 13.29245
335.956207 -340.793915 13.0899
336.13681 -348.198792 10.4446001
336.129272 -347.940094 9.9289999
336.103607 -347.955688 10.1161003
336.101593 -347.919098 10.4870005
336.070496 -347.321289 11.7259998
336.040802 -346.297913 9.27770042
336.024292 -346.202515 11.6763
336.18689 -346.075104 9.35910034
336.009613 -346.160309 9.50230026
336.058685 -346.186188 11.8364
336.162109 -346.054413 12.1875
336.161499 -343.892487 9.51930046
336.139099 -343.672485 9.55259991
336.19989 -343.7547 10.0106001
336.016205 -343.591309 9.68239975
336.148071 -343.579041 9.89063358
336.061493 -343.08429 12.7110996
336.114105 -342.96701 12.7711
336.090759 -342.845154 13.9201002
336.141998 -342.849792 14.1452999
336.065704 -342.674194 13.1451998
336.054993 -342.664703 13.3880997
336.065704 -342.712799 13.5654001
336.176819 -342.74585 13.8908501
336.178192 -342.739685 14.1676998
336.079803 -342.38089 13.1431999
336.068359 -342.220337 13.7591496
336.008911 -342.387299 13.8556004
336.078308 -342.203705 14.5530005
336.131989 -342.111389 13.5801001
336.099396 -342.097412 13.6557999
336.013 -342.042114 14.3807001
336.000397 -342.0383 14.4820995
336.131104 -342.05249 15.0839005
336.145355 -342.105408 15.2514
336.134949 -341.879089 14.1950493
336.026917 -341.894043 14.3099003
336.126343 -341.892822 15.1537495
336.052094 -341.826965 15.2782001
336.036407 -341.76709 13.5565004
336.061584 -341.646698 13.6924
336.159607 -341.781799 14.1201
336.070587 -341.64679 14.5109997
336.063477 -341.725464 15.3050995
336.101105 -341.491608 12.6315002
336.11615 -341.455872 14.0374002
336.102203 -341.518585 14.3964005
336.102692 -341.570892 15.4745998
336.050415 -341.380707 13.9942999
336.02771 -341.396393 14.0787001
336.139313 -341.391205 14.2587996
336.17981 -341.28479 14.5983
336.099792 -341.340027 14.7274246
336.038788 -341.015686 12.9358997
336.183502 -341.12439 13.8455
336.139893 -341.10199 14.1716995
336.100525 -341.122559 14.7951002
336.103302 -341.159485 14.8136997
336.159393 -340.936401 12.5997
336.044891 -340.865509 12.9130001
336.108429 -340.732361 12.8972998
336.082794 -340.728607 13.3399
336.170105 -340.575287 12.8682003
336.286499 -347.854309 9.89630032
336.3685 -347.781403 9.86709976
336.216614 -346.329895 9.67350006
336.2966 -345.906494 12.1681995
336.246399 -345.771606 9.09080029
336.262909 -344.240112 9.54039955
336.379395 -344.174713 9.53040028
336.31131 -343.046387 12.5274
336.271393 -343.023804 13.9820995
336.272003 -342.958313 12.5998001
336.352692 -342.839508 12.6940002
336.26416 -342.84613 12.8551502
336.249207 -342.892303 13.9048004
336.290894 -342.858948 14.06075
336.315704 -342.828796 14.2477999
336.320587 -342.686218 13.7323999
336.312256 -342.696869 13.9012003
336.318451 -342.708984 14.1595001
336.244202 -342.451385 13.7910995
336.27121 -342.333191 16.1711006
336.258392 -342.162903 12.1225004
336.377197 -342.050812 12.6715002
336.344604 -341.936829 12.4983673
336.302124 -341.80658 15.4977493
336.275391 -341.92691 15.9862003
336.213013 -341.817993 16.0948009
336.29071 -341.681549 12.4626503
336.275208 -341.686829 15.2675247
336.307953 -341.52713 12.4906998
336.223511 -341.521393 14.0017004
336.265564 -341.466125 14.6774502
336.363586 -341.514282 15.3560505
336.345093 -341.240692 13.6761999
336.223114 -341.285614 13.9333
336.212494 -341.304291 14.1921997
336.235962 -341.365692 14.4923496
336.31073 -341.222046 14.6669998
336.308105 -341.272827 15.3118668
336.302429 -341.226257 15.4668007
336.255188 -341.030701 12.5922003
336.325623 -341.062866 13.9226494
336.240814 -341.151886 14.2442999
336.358856 -341.03772 14.5073509
336.33371 -341.09137 14.6707001
336.34259 -341.170746 15.4813995
336.356506 -340.806488 14.5571003
336.298096 -340.808411 14.6287003
336.349213 -340.649811 12.7030001
336.302399 -340.737793 12.8526001
336.344513 -340.641693 13.1401997
336.260498 -340.676605 13.2383747
336.332489 -340.497101 12.7783499
336.29071 -340.51474 12.8402338
336.297546 -340.563049 13.0984001
336.384491 -340.356598 12.8102999
336.485107 -344.168091 9.54349995
336.54361 -342.814087 14.1587
336.555908 -342.542664 12.8470497
336.55719 -342.598694 14.2263002
336.452789 -342.219788 12.3999004
336.442413 -342.183014 12.2825003
336.558807 -342.190094 15.3051996
336.531952 -341.919678 12.2672005
336.509888 -341.921814 15.4020004
336.536438 -341.891693 15.8735332
336.541107 -341.618011 12.3032999
336.44989 -341.713989 12.4089003
336.457855 -341.630402 15.2674007
336.511627 -341.712128 15.7187662
336.529663 -341.745117 15.89995
336.533844 -341.64859 16.0697994
336.489685 -341.511719 12.4275494
336.406097 -341.496185 15.2261
336.447601 -341.276703 12.6070995
336.525787 -341.223511 13.8879004
336.454407 -341.253113 14.4084997
336.493805 -341.208496 15.3035002
336.443512 -341.115112 12.4862003
336.507507 -341.025513 13.9238997
336.452087 -341.100098 14.3493004
336.411011 -341.0289 14.5344
336.509613 -341.02771 15.1920004
336.548035 -341.12085 15.2773504
336.431885 -340.950714 13.8999004
336.459412 -340.849701 14.0250998
336.459717 -340.979004 14.4687996
336.499512 -340.864807 15.1906996
336.593689 -340.731689 13.8948002
336.431793 -340.718445 14.0982494
336.463654 -340.547943 13.1833496
336.507111 -340.548492 13.2981997
336.672913 -345.841095 10.1041508
336.746216 -345.699951 9.91495037
336.74762 -343.318787 14.9195004
336.647614 -342.713989 12.6501999
336.633698 -342.594086 12.8631001
336.717255 -342.51886 13.0429497
336.66629 -342.351593 15.1927996
336.709198 -342.033691 16.0949993
336.661011 -341.773895 15.7230997
336.665253 -341.702972 15.8637333
336.6745 -341.685913 16.0016003
336.651855 -341.509338 12.3458996
336.657043 -341.473511 12.5096502
336.647308 -341.531647 16.0701008
336.624298 -341.360413 15.2589998
336.637909 -341.292511 15.4207001
336.6604 -341.379669 16.129467
336.737396 -341.129395 12.4996996
336.729797 -341.0401 12.7180004
336.657593 -341.1409 15.2480001
336.653412 -340.953186 12.6022997
336.72171 -340.995911 15.3304005
336.833313 -348.130188 10.3308001
336.847198 -345.75061 9.95880032
336.81189 -343.39209 13.8308001
336.843658 -343.282928 14.8635998
336.822906 -343.328491 15.0039997
336.876801 -342.802307 11.8755999
336.990112 -342.822906 14.4316998
336.934509 -342.621094 11.9359999
336.831787 -342.719208 12.4408998
336.8255 -342.636292 12.7278996
336.887604 -342.669495 13.0430002
336.90799 -342.704895 13.7714996
336.88269 -342.755249 14.0694008
336.997986 -342.662811 14.4565001
336.911499 -342.556305 12.9005003
336.981201 -342.471497 13.7075996
336.922485 -342.078186 15.4726
336.837494 -341.858185 15.3711996
336.966309 -341.912506 15.5671997
336.845703 -340.865906 12.5660496
336.849609 -340.847778 12.8396997
336.954712 -340.934998 15.1456003
336.809296 -340.921906 15.3205004
337.085297 -343.381012 13.8233004
337.076904 -343.049347 13.8518
337.1828 -342.81131 11.2979002
337.033813 -342.891693 12.6927004
337.031311 -342.81781 14.1161003
337.141205 -342.688202 11.5130997
337.093597 -342.713287 11.7147999
337.020813 -342.623688 13.6294003
337.07254 -342.762451 14.2708502
337.140686 -342.520813 13.8380003
337.062592 -342.072205 15.6029997
337.175812 -341.984314 15.5605001
337.016998 -341.100006 13.9439001
337.146088 -341.106903 14.9219999
337.077087 -341.164612 15.8343
337.094055 -340.920532 14.9503994
337.243896 -343.841705 15.5125999
337.294495 -343.658875 13.8975
337.352112 -343.755859 15.7084999
337.30896 -343.263672 13.74405
337.246704 -343.259613 13.8183002
337.306 -343.097992 12.5014
337.393494 -343.037415 13.7852001
337.332703 -343.05719 13.8622999
337.343811 -342.93631 12.5236998
337.224792 -342.998993 12.6688995
337.394012 -342.997894 13.7244997
337.212006 -342.083313 15.5747004
337.322998 -341.605408 12.5789003
337.355194 -341.434692 12.7220001
337.308838 -341.06015 14.7682495
337.240967 -340.718811 14.0786495
337.363708 -340.549805 12.8036003
337.298889 -340.354309 12.6550999
337.5047 -346.755005 10.2389002
337.456604 -343.71701 15.7293997
337.586914 -343.443909 13.2987003
337.513 -343.433105 13.9211998
337.494751 -343.591248 15.6576996
337.56601 -343.325195 14.0998001
337.542114 -342.8013 13.6668997
337.463409 -342.60321 13.9454002
337.52771 -342.718597 14.1570663
337.574493 -341.671509 12.4717999
337.400391 -341.696106 12.6466999
337.543579 -341.46521 12.5175333
337.494202 -341.539886 12.7644997
337.47995 -341.296631 12.5269003
337.539703 -341.369812 12.6056004
337.522705 -341.11969 12.6462002
337.565002 -341.179291 13.8051996
337.537903 -340.82251 13.9666996
337.551788 -340.952606 15.9617004
337.534302 -340.600006 14.5010004
337.631592 -343.576294 15.7447996
337.650604 -343.360504 13.9768
337.680695 -342.894104 14.6389999
337.611389 -341.907501 12.6671
337.617188 -341.498993 12.3901997
337.716095 -341.05069 13.5075998
337.668488 -341.0448 14.9596004
337.671204 -340.954224 14.8964996
337.718811 -340.84021 15.2215996
337.770111 -340.612793 14.1328001
337.760193 -340.772003 15.125
337.980408 -342.820801 14.7418003
337.964508 -342.17569 12.3834
337.851898 -341.895111 12.4792004
337.817902 -341.61499 12.6885004
337.915802 -340.930695 13.6471004
337.858398 -340.828003 14.7184
337.880615 -340.802094 15.1140003
337.910889 -340.839203 15.3809996
337.885193 -340.720306 13.6313
337.852905 -340.64859 15.0633001
337.9599 -340.589691 14.9679003
338.088104 -341.483887 12.7370996
338.063385 -341.057892 13.8636999
338.059296 -340.839508 14.7082005
338.30481 -343.300903 13.6612997
338.37381 -343.01889 14.9260998
338.203888 -341.444885 12.5921001
338.329895 -340.801514 13.9442997
338.353302 -340.759399 13.4618998
338.381012 -340.726196 13.9024
338.505615 -346.765411 11.1718998
338.561493 -343.429108 13.5909996
338.584106 -343.267487 14.4454002
338.595612 -340.820892 13.7824001
338.434204 -340.882324 13.9207993
338.467987 -340.763 13.9294004
338.795105 -346.568115 10.8640003
338.774597 -343.18399 14.5390997
338.734314 -343.02951 14.9560003
338.657806 -342.922394 14.7861004
338.905701 -346.804993 10.9538002
338.883087 -346.670288 10.8990002
338.879791 -346.743896 11.0546999
338.875305 -346.542603 10.7826996
338.834808 -343.986206 13.5882998
338.967194 -343.247314 13.1201
338.817108 -342.979492 13.7175999
338.800201 -342.88681 14.5462999
338.827606 -341.985901 13.9159002
339.199799 -346.527893 11.3976002
339.045288 -343.484497 13.7718
339.183289 -341.849915 13.5167999
339.266907 -346.60199 11.2629995
339.275299 -346.588196 11.1724997
339.200409 -346.529907 11.3515997
339.347412 -343.871094 13.4285002
339.313904 -343.76001 13.5131998
339.268311 -343.730194 13.6691999
339.295105 -342.090607 12.4633999
339.358765 -342.055847 13.0925999
339.291901 -341.919312 13.2213001
339.338898 -341.578613 13.2678003
339.23349 -341.326294 13.3383999
339.487091 -346.751404 10.9345999
339.442993 -346.728394 11.2363501
339.428497 -343.900909 13.6443005
339.435211 -343.632385 13.5696001
339.469788 -341.761414 13.3101997
339.540192 -341.155701 15.4293003
339.695007 -341.939209 12.9511995
339.703888 -341.60199 13.1705999
339.699188 -341.132111 15.2257004
339.833313 -341.090302 13.3052998
