# .PCD v0.7 - Point Cloud Data file format
VERSION 0.7
FIELDS x y z
SIZE 4 4 4
TYPE F F F
COUNT 1 1 1
WIDTH 119
HEIGHT 1
VIEWPOINT 0 0 0 1 0 0 0
POINTS 119
DATA ascii
243.699799 -241.968796 12.3994999
243.657593 -240.111694 11.2319002
244.0168 -240.387299 11.2580996
244.899399 -240.436707 11.0028
245.142899 -240.382599 11.2957001
249.530396 -259.174988 6.43930006
249.554398 -258.866394 6.09919977
249.526596 -258.63031 6.56239986
249.569 -258.735199 6.92770004
249.505005 -247.113998 1.17610002
249.507797 -246.928101 1.63240004
249.462601 -246.778107 1.03059995
249.655502 -259.281586 6.45879984
249.618698 -259.277313 6.65390015
249.654602 -247.836395 1.41949999
249.968201 -249.389801 0.386599988
249.962601 -249.256805 1.00979996
250.191299 -251.780304 0.354000002
250.197296 -251.457794 0.641600013
250.199097 -251.255493 1.09759998
250.158096 -251.289307 1.33969998
250.197601 -251.1008 1.05560005
250.096695 -250.953903 0.767700016
250.116806 -250.935501 0.98299998
250.398102 -253.1017 0.335700005
250.399597 -253.004898 1.42990005
250.3181 -252.911896 0.712700009
250.3965 -252.639404 1.47710001
250.368393 -252.5177 0.3662
250.356094 -252.412003 0.542299986
250.306198 -252.085556 0.223800004
250.340393 -252.172607 1.07749999
250.291107 -252.118103 1.38800001
250.291702 -252.022903 1.51139998
250.226303 -251.560104 1.40450001
250.501694 -253.740402 1.39989996
250.507904 -253.438599 0.453099996
250.400299 -253.195801 1.43840003
250.417694 -252.618393 0.887300014
250.428497 -252.440704 0.181400001
252.035995 -247.214493 0.00620000018
252.031403 -247.065308 0.491600007
252.067398 -246.999893 0.526899993
252.773804 -251.703293 0.171200007
252.770996 -246.477798 10.7389002
252.989594 -252.850296 0.0582999997
252.959793 -252.642502 0.150000006
252.959 -252.681198 0.367500007
252.960907 -252.5616 -0.0812999979
252.844696 -252.106705 0.0921000019
252.819595 -251.810501 0.894999981
252.843094 -251.746002 -0.153400004
252.8284 -246.476501 11.1975002
252.926407 -246.512299 11.2525997
252.855301 -246.3591 10.8578997
253.053604 -252.960098 -0.248099998
254.1604 -246.262405 0.856999993
254.218002 -246.206894 0.533999979
254.216003 -246.157501 1.21159995
255.508194 -246.074295 6.27950001
255.690506 -246.6996 2.59030008
256.043304 -246.529495 10.6968002
256.099213 -246.330994 10.7874002
256.244507 -246.279099 11.4570999
256.331299 -246.363403 11.6899004
256.2771 -246.238495 12.4454002
256.286896 -246.286606 13.7247
256.393005 -246.016693 11.8445997
256.314789 -246.080994 12.3827
256.328613 -246.049805 12.5527
256.376587 -246.023804 13.0021
256.279999 -245.995102 12.3042002
256.599792 -246.229294 13.2580004
256.447815 -245.944901 7.93039989
256.432587 -245.833206 8.1232996
256.467285 -245.809006 9.33990002
256.404114 -245.935196 11.4748001
256.567505 -245.774704 4.94220018
256.569885 -245.727295 8.14389992
256.471008 -245.689499 8.48545074
256.418793 -245.774902 9.3302002
256.459686 -245.798004 9.49190044
256.468597 -245.768799 9.68630028
256.549408 -245.648605 11.7538004
256.785492 -250.736298 1.46399999
256.709991 -246.0056 10.2994003
256.6091 -245.559692 8.95470047
256.820496 -246.148804 13.1132002
257.270508 -247.967896 1.02890003
257.442413 -247.964203 0.976700008
257.755188 -252.711807 1.1286
257.866302 -249.445297 0.69660002
258.791504 -245.564301 6.65479994
258.951996 -250.295502 1.84430003
258.908997 -250.097504 1.46739995
258.839294 -246.041595 7.81669998
259.179413 -250.272202 1.89059997
259.156189 -250.191101 0.989199996
259.02179 -250.125107 1.43719995
259.042908 -249.825897 2.25889993
259.049713 -249.796402 0.954400003
259.076996 -245.830597 8.28209972
259.124603 -245.848099 8.4616003
259.145996 -245.774994 8.06130028
259.381287 -250.906601 2.12229991
259.32251 -250.662796 1.85000002
259.270111 -250.473907 1.25049996
259.206604 -250.3349 1.4131
259.329987 -249.940399 3.0466001
259.214294 -245.695801 1.69210005
259.3591 -245.517899 6.31930017
259.234314 -245.577194 9.33310032
259.444611 -250.149796 2.31480002
259.537903 -249.978699 2.72959995
259.452911 -247.413193 0.718699992
259.414215 -245.511795 10.1181002
259.409607 -245.362793 6.30700016
259.704315 -245.820007 8.13029957
259.805603 -245.812302 8.09659958
