# .PCD v0.7 - Point Cloud Data file format
VERSION 0.7
FIELDS x y z
SIZE 4 4 4
TYPE F F F
COUNT 1 1 1
WIDTH 210
HEIGHT 1
VIEWPOINT 0 0 0 1 0 0 0
POINTS 210
DATA ascii
320.02301 -299.94339 7.94689989
320.14856 -299.858398 10.4570007
320.188995 -299.937012 12.3465004
320.020294 -299.733612 10.5517998
320.118408 -299.403503 10.3807001
320.141296 -299.553406 12.1485004
320.09671 -299.330414 8.51879978
320.190613 -299.338593 10.9174995
320.073792 -299.316315 12.3736
320.084106 -299.263611 12.8921003
320.165405 -299.052795 8.35239983
320.187592 -299.156006 10.4300003
320.065918 -299.047119 12.1585007
320.086304 -298.835297 12.5356998
320.041809 -298.690094 12.2131004
320.097717 -298.501038 12.3116503
320.028198 -298.321503 12.0784998
320.076996 -298.303802 12.3107996
320.133209 -298.135498 12.3209
320.165894 -297.958496 12.1701002
320.100098 -297.418213 11.3083
320.000397 -297.082611 11.1582003
320.17511 -297.010101 11.3327999
320.006714 -297.0336 11.8992004
320.020294 -296.823486 12.7306004
320.113159 -296.691895 10.9598503
320.083496 -296.651306 11.3289003
320.178589 -295.954102 13.3559999
320.108307 -295.742615 10.6780005
320.032013 -295.471893 11.4554996
320.065613 -294.665497 11.9169998
320.217102 -299.922791 9.57050037
320.335205 -299.954163 11.9141502
320.230988 -299.726196 10.4469995
320.258087 -299.792206 11.7023001
320.307892 -299.703461 11.8710499
320.254272 -299.668945 12.1017504
320.231689 -299.625244 12.7017498
320.2211 -299.484009 10.4201002
320.393188 -299.47641 11.0650997
320.350891 -299.582794 12.0517998
320.268494 -299.499084 12.6930504
320.247192 -299.210693 10.2016001
320.32605 -299.34082 10.9569664
320.242004 -299.242004 11.052
320.270691 -299.349091 11.8956003
320.247314 -299.373688 12.3642998
320.250793 -299.072693 11.1167002
320.324707 -299.045013 12.5228996
320.372253 -298.846558 12.1254501
320.325897 -298.914612 12.8964005
320.28656 -298.69397 12.0528507
320.277893 -298.428406 11.9995003
320.3638 -298.048706 12.3521996
320.3078 -297.937408 12.3521004
320.290588 -297.760406 12.2624998
320.39151 -297.247314 11.4099998
320.245697 -296.893311 11.1643
320.328308 -296.831085 11.2272997
320.354309 -296.454498 13.1403999
320.357208 -296.071503 13.1008997
320.24469 -295.791199 13.5488997
320.368591 -295.2771 9.46310043
320.316711 -295.35321 11.6802998
320.457611 -299.819702 9.02289963
320.482605 -299.909302 10.3467999
320.547302 -299.995697 10.6080999
320.463196 -299.939087 12.1246996
320.498688 -299.964508 12.6960001
320.458496 -299.748108 10.3621998
320.526459 -299.72995 10.4597998
320.429657 -299.722229 11.93855
320.509949 -299.524353 10.3264999
320.402191 -299.42691 11.0458002
320.531799 -299.423492 11.4250002
320.490387 -299.582092 11.9961004
320.502411 -299.202515 10.1399002
320.503204 -299.348389 10.3895998
320.462891 -299.330994 12.6283998
320.521515 -299.091309 10.7644997
320.416809 -299.101898 10.8936005
320.51001 -299.080109 12.1023998
320.462189 -298.931793 12.6511002
320.444489 -298.744995 11.9765997
320.444214 -298.661285 12.0207005
320.594208 -298.2164 10.7742004
320.557007 -298.314789 12.3528996
320.536011 -298.019897 11.0783005
320.487 -298.036407 11.3491001
320.525604 -298.196991 12.4141998
320.427307 -297.912994 12.2874002
320.586792 -297.629089 12.0578003
320.440613 -297.143799 11.7514
320.557587 -296.289215 12.9509001
320.539093 -293.293793 11.5731001
320.636505 -299.957581 10.2875004
320.714142 -299.977417 11.9037495
320.612915 -299.983795 12.2674999
320.660492 -299.996399 12.5806999
320.636993 -299.642792 10.1316996
320.618805 -299.653595 10.2701998
320.783295 -299.70459 11.5834999
320.758453 -299.687653 11.7133999
320.64093 -299.767883 11.8658009
320.660187 -299.714813 13.9493999
320.786499 -299.570709 11.5099001
320.62561 -299.312012 11.5513
320.7005 -299.127686 10.5978003
320.626801 -299.120087 12.6490002
320.764771 -298.972748 10.44205
320.611298 -298.94751 12.3926001
320.61441 -298.428986 11.3253002
320.765991 -298.017792 10.5972004
320.712891 -298.135895 10.8591003
320.678711 -297.891296 12.2939997
320.769714 -297.277313 11.9094
320.780914 -297.036499 12.3453999
320.729187 -296.09079 11.9857998
320.781189 -295.311005 12.1238003
320.843414 -299.715088 7.98320007
320.957489 -299.433502 10.4457998
320.897308 -299.347809 10.2130003
320.984192 -299.389893 11.2974997
320.927612 -299.113007 10.5319004
320.967102 -299.148895 11.3811998
320.872406 -298.822815 11.0520992
320.868988 -298.779694 10.8473997
320.979797 -297.269287 11.2873001
320.910706 -297.043488 11.3014002
320.889191 -296.964386 11.1146002
320.862396 -295.828094 11.3191004
320.836792 -295.906403 11.7389002
320.992889 -295.76709 12.3237
320.850189 -294.735687 12.4736996
320.827698 -294.436493 11.5767002
320.900604 -292.883789 11.8522997
321.032898 -299.933594 12.2462997
321.182709 -299.388885 11.2523003
321.114502 -298.997986 10.6542997
321.154114 -298.844513 10.8657999
321.071686 -298.123901 11.4164
321.0672 -297.596497 11.4040003
321.022308 -297.490814 11.8065004
321.151001 -297.334106 11.2011995
321.028015 -297.061493 11.2612
321.191895 -296.884399 11.0061998
321.005005 -296.608002 11.7714005
321.123901 -295.491791 12.0944996
321.194702 -295.312195 11.5226002
321.122711 -294.802612 12.0125999
321.105591 -294.630615 11.8540001
321.183411 -294.268311 11.7813997
321.191589 -294.306702 11.8288002
321.384796 -299.862793 11.1541996
321.296906 -299.689301 11.316
321.322998 -299.521515 11.1667995
321.20871 -299.451691 11.5107002
321.228394 -299.313995 7.50349998
321.320801 -299.384613 10.9539003
321.239105 -299.367188 11.1332998
321.243195 -299.018707 10.5848999
321.318695 -298.804504 11.1646996
321.298615 -298.938202 12.5851002
321.390198 -298.770599 10.8148003
321.381287 -298.666199 11.3010998
321.256195 -298.521606 11.1407003
321.254913 -298.239288 10.8908005
321.390808 -298.142914 10.6521997
321.342804 -297.191803 12.5096998
321.33371 -295.968689 12.3501997
321.355896 -295.423889 11.4358997
321.377594 -295.470398 13.4390001
321.574005 -299.866699 11.0410995
321.536499 -299.961487 11.5098
321.556793 -299.752289 10.8051004
321.480499 -299.774994 11.1948004
321.518707 -299.787903 11.3635998
321.448395 -299.200012 11.1046
321.495209 -299.383209 11.8465004
321.506805 -298.601501 11.1456003
321.441498 -298.622101 12.6506996
321.503815 -298.413208 11.0999002
321.559509 -297.770691 11.3373003
321.41571 -296.98349 11.2034998
321.4776 -296.719208 11.0818996
321.565094 -296.201111 11.1681004
321.497589 -296.008911 11.0452003
321.472687 -295.849792 11.7472
321.404205 -295.172607 11.9555998
321.504608 -293.509796 11.9799995
321.727112 -299.974487 10.9892998
321.624207 -299.879211 11.0916004
321.633209 -296.889099 11.0466003
321.613586 -295.921509 14.0874004
321.725189 -294.213409 14.4786997
321.970398 -299.441498 13.4337997
321.849213 -298.005615 12.0970001
322.099701 -297.321411 12.8775997
322.179199 -297.161896 10.9527998
322.052002 -294.551086 12.2469997
322.267212 -299.869293 10.9146004
322.225189 -299.37619 10.4078999
322.383392 -298.666107 12.401
322.398895 -298.417114 11.2616997
322.316406 -297.819489 11.1990995
322.241211 -297.124908 12.9048004
322.476593 -298.699188 11.7530003
322.675995 -297.964386 11.4456997
322.882599 -298.097687 12.1237001
323.536896 -299.712891 12.8212996
