# .PCD v0.7 - Point Cloud Data file format
VERSION 0.7
FIELDS x y z
SIZE 4 4 4
TYPE F F F
COUNT 1 1 1
WIDTH 62
HEIGHT 1
VIEWPOINT 0 0 0 1 0 0 0
POINTS 62
DATA ascii
247.969498 -260.387909 7.51410007
248.151794 -260.621094 8.77009964
248.594406 -263.651886 10.0068998
248.558105 -263.243805 9.96199989
248.622803 -264.483002 9.44270039
248.885101 -264.676086 10.1983995
249.044403 -264.148712 6.54309988
249.174103 -261.872894 8.73760033
249.137894 -261.582703 9.13020039
249.248795 -261.751343 8.32530022
249.522003 -266.249512 7.09889984
249.4077 -265.2565 7.86439991
249.678497 -266.580109 7.26210022
249.618607 -265.580994 8.32419968
249.742905 -260.622986 6.72049999
249.693802 -260.417206 6.45559978
249.878799 -263.815796 6.98829985
249.819595 -260.770203 6.83339977
249.858902 -260.078308 6.04330015
250.004105 -260.375092 7.14419985
250.384094 -263.707886 7.17199993
250.351303 -263.451996 7.43529987
250.368301 -261.079407 7.24499989
250.597 -263.164398 8.88819981
250.513794 -261.227386 7.15080023
250.7229 -263.466095 8.47299957
250.769302 -263.260101 7.54099989
250.913895 -264.542603 6.61439991
250.863602 -264.574097 7.25460005
250.833405 -262.629303 8.78079987
250.908295 -262.512207 6.31869984
250.9879 -262.349609 9.25059986
251.125793 -265.01889 6.25649977
251.153198 -264.861694 6.60330009
251.036606 -264.863403 7.48269987
251.076996 -264.356995 6.63250017
251.247101 -265.318604 6.21740007
251.355896 -263.673309 7.94159985
251.284607 -263.670197 9.16380024
251.298294 -263.508911 8.58339977
251.217606 -263.395294 8.78680038
251.765594 -264.771698 6.76259995
252.753403 -268.421112 0.533100009
252.954803 -269.651489 0.517199993
252.982498 -269.5065 0.67869997
252.903397 -269.325989 0.926299989
252.9487 -269.093201 0.681999981
252.858093 -268.605408 0.370000005
252.8582 -268.669312 0.986500025
253.078705 -270.604187 0.621100008
253.003906 -269.569 0.611000001
253.000595 -269.290192 0.459100008
253.333206 -271.709412 0.1866
253.333694 -271.634399 0.815999985
253.250107 -271.305603 0.444700003
257.353485 -268.716492 -0.205500007
257.510895 -269.580109 -0.292499989
257.46991 -268.875092 -1.30710006
257.4776 -268.977814 -0.674700022
258.733398 -269.346985 0.0606000014
259.125488 -269.225189 4.39580011
259.897705 -269.308197 1.76289999
