# .PCD v0.7 - Point Cloud Data file format
VERSION 0.7
FIELDS x y z
SIZE 4 4 4
TYPE F F F
COUNT 1 1 1
WIDTH 110
HEIGHT 1
VIEWPOINT 0 0 0 1 0 0 0
POINTS 110
DATA ascii
80.1977005 -13.6323004 3.07459998
80.1464996 -4.26970005 0.706399977
80.1369019 -4.35489988 1.09060001
80.0047989 -4.30200005 1.47360003
80.1050034 -4.05870008 0.627799988
80.1138992 -4.04610014 0.98269999
80.1585999 -4.00509977 1.13370001
80.1273041 -4.09399986 1.50450003
80.1191025 -3.66960001 1.06959999
80.0229034 -1.56089997 1.26059997
80.1925964 -0.0821999982 0.611699998
80.098999 -0.194999993 0.959800005
80.3834991 -13.6496 3.10330009
80.3188019 -5.40850019 -0.137199998
80.2297974 -4.66864967 1.14015007
80.2548981 -4.71600008 1.30490005
80.3366013 -4.52589989 0.831099987
80.2759018 -4.58669996 1.02690005
80.2413025 -4.35570002 0.69660002
80.2419968 -3.9763 0.981299996
80.3187027 -3.9770999 1.44229996
80.3576965 -0.450300008 1.0848
80.4681015 -7.15119982 5.76919985
80.4955978 -4.5158 0.822700024
80.4160995 -4.18690014 1.11889994
80.7060013 -1.83220005 1.45430005
80.6179962 -1.79830003 1.21519995
80.6910477 -1.73114991 1.50975001
80.697998 -1.3362 2.9224999
80.8284988 -14.0195999 3.2335
80.843399 -0.622600019 2.29450011
81.0112 -14.4406004 3.1882
81.1980972 -7.17990017 5.61660004
81.9355011 -7.14639997 2.55830002
81.9057999 -7.0763998 3.01719999
82.114502 -0.26879999 2.30940008
82.1756973 -0.368800014 3.06080008
82.1477509 -0.248750001 3.33124995
82.3251038 -6.88899994 0.694299996
82.3604965 -6.80660009 1.08319998
82.2114029 -6.86280012 1.21420002
82.343399 -6.7249999 0.924000025
82.2491989 -6.72660017 1.34689999
82.3258057 -6.72574997 1.45959997
82.3376999 -0.868499994 3.57969999
82.2054977 -0.248600006 2.74640012
82.2522964 -0.291900009 3.07920003
82.3030014 -0.119599998 2.90400004
82.2654037 -0.180299997 3.00250006
82.2434006 -0.158500001 3.40980005
82.5017014 -6.80810022 1.06050003
82.4218979 -0.894500017 3.8118999
82.6692963 -4.05779982 1.25460005
82.8457031 -7.02440023 3.76009989
82.8401947 -6.72924995 1.32420003
83.2891998 -6.56169987 3.65319991
83.7693024 -7.11339998 1.14779997
83.6961975 -7.09950018 1.85179996
83.713501 -6.86455011 1.54279995
83.7682037 -6.63719988 1.18920004
83.7189026 -6.74329996 1.21619999
83.8023987 -7.03639984 7.93219995
83.8853989 -6.70779991 1.11539996
83.9713974 -6.63640022 1.49580002
84.0483017 -6.68130016 3.59150004
84.757103 -7.27409983 1.8427
84.7539978 -7.20510006 2.25119996
84.7343979 -6.81750011 3.23939991
84.9721985 -18.8880005 12.9736004
84.8046036 -7.29069996 1.89699996
84.9350967 -7.01480007 6.02519989
85.3896027 -7.25759983 2.06760001
86.7951965 -7.43590021 1.73029995
86.8121033 -7.38140011 2.09599996
86.8080978 -7.29570007 2.61420012
86.8665009 -7.19460011 2.13400006
87.1557999 -7.09429979 8.0571003
87.7757034 -7.2487998 1.71510005
87.8621979 -7.34030008 2.07979989
88.0180969 -7.15150023 3.88269997
88.1530991 -6.75159979 3.42129993
88.4296036 -7.11850023 3.09360003
88.5818024 -6.62989998 3.6020999
89.2061005 -6.72039986 9.18190002
89.9393005 -7.45959997 2.12030005
89.9059982 -7.31529999 1.93690002
89.9503021 -7.26090002 2.30200005
89.9355621 -7.30256653 2.50156665
89.9423981 -7.1717 2.38109994
89.9601974 -7.02510023 2.61360002
89.9673996 -7.19080019 2.9375
89.8578033 -7.11999989 3.14339995
89.9862976 -7.07660007 3.58649993
89.9508972 -6.97700024 1.86749995
90.0230026 -7.09079981 1.89030004
90.021698 -7.09159994 2.73110008
90.0225983 -7.09770012 2.85100007
90.0126038 -7.12020016 3.26340008
90.0914993 -6.88770008 4.35780001
92.2222977 -7.2895999 4.45410013
92.2366028 -6.70060015 5.89760017
92.6692963 -7.07480001 0.690299988
92.6072006 -6.97450018 3.32019997
93.2390976 -7.39099979 2.5618
93.2533035 -7.34060001 5.25269985
93.2049026 -7.18120003 4.85150003
93.4308014 -6.97660017 6.94140005
93.4657974 -6.7196002 6.99410009
94.4592972 -6.93860006 3.16729999
95.0223999 -7.12790012 6.10809994
