# .PCD v0.7 - Point Cloud Data file format
VERSION 0.7
FIELDS x y z
SIZE 4 4 4
TYPE F F F
COUNT 1 1 1
WIDTH 26
HEIGHT 1
VIEWPOINT 0 0 0 1 0 0 0
POINTS 26
DATA ascii
8.28969955 22.4473991 0.0992000028
8.51790047 22.3778 -0.457100004
8.49960041 22.3689003 -0.285600007
8.48390007 22.3959007 0.357199997
8.53730011 22.4164009 -0.217600003
8.50403309 22.4188004 0.333033323
8.53219986 22.4146996 0.650200009
8.50959969 22.4391003 1.24049997
8.59220028 22.5004005 2.29340005
8.72879982 22.3796997 1.29400003
8.60239983 22.4589996 0.438800007
8.65304947 22.4629498 0.949000001
8.66114998 22.4776993 1.08914995
8.67840004 22.510849 1.34649992
8.60620022 22.4832001 1.54709995
8.6243 22.4792995 1.76849997
8.71170044 22.5492992 2.55250001
8.75469971 22.5454998 2.67079997
8.77390003 22.6067009 2.61910009
8.87370014 22.5839996 2.95490003
8.88790035 22.6012001 3.00699997
9.06280041 22.5559998 2.84450006
9.09309959 22.5813999 3.17409992
9.21339989 22.5287991 2.85159993
16.0617008 34.401001 -2.66599989
16.2152996 34.2971992 -3.44819999
