# .PCD v0.7 - Point Cloud Data file format
VERSION 0.7
FIELDS x y z
SIZE 4 4 4
TYPE F F F
COUNT 1 1 1
WIDTH 877
HEIGHT 1
VIEWPOINT 0 0 0 1 0 0 0
POINTS 877
DATA ascii
261.60849 -304.219299 13.3043003
261.8526 -304.268707 14.2896996
264.199097 -302.965515 6.5948
265.533508 -303.45871 9.82050037
265.514008 -303.44281 11.2893
265.532196 -303.303009 6.19680023
265.583099 -303.218292 6.61829996
265.518799 -303.318207 10.8775997
265.525909 -303.397186 11.1550999
265.439606 -303.031494 11.4617004
265.785187 -303.019989 -0.342299998
267.963196 -302.652802 7.01179981
268.187988 -302.659912 9.30109978
268.058014 -302.451599 6.33440018
268.317505 -302.481812 8.09910011
268.557098 -302.388885 -1.26059997
268.584198 -302.071991 -1.67620003
268.510193 -302.19519 -0.748000026
268.636902 -302.887238 15.0230503
268.937408 -302.018799 6.65170002
269.194 -302.712189 9.54319954
269.168213 -302.331696 6.43720007
269.309601 -302.935211 10.2919998
269.371185 -302.990509 11.1265001
269.218506 -302.923706 13.3494997
269.371185 -302.972504 13.9535999
269.301392 -302.755096 13.9474001
269.447693 -302.673004 6.7736001
271.399109 -319.385498 11.5964003
271.305389 -317.940887 7.78709984
271.458099 -319.029297 7.73190022
271.414215 -318.808197 8.07740021
271.548187 -317.933105 1.39139998
271.905304 -301.476501 -0.0932999998
272.977905 -301.980988 11.5112
272.989014 -301.26709 -0.261400014
272.986206 -301.181 0.0384000018
273.0625 -302.425995 14.7077999
273.047699 -302.231293 13.8702002
273.088409 -302.268097 14.6697998
273.088989 -302.104797 13.2756004
273.032593 -302.111389 13.8295002
273.098206 -302.168091 14.1482
273.027496 -301.956299 9.66670036
273.173187 -301.119202 -0.218999997
273.252502 -302.203308 6.99730015
273.365906 -302.214905 10.7538996
273.387299 -302.365814 11.3181
273.30899 -302.373413 13.9258003
273.257812 -302.002991 6.91130018
273.315704 -302.164398 8.00450039
273.360291 -302.097687 10.8399
273.355591 -302.058411 15.0441999
273.256805 -301.970093 6.94449997
273.220795 -301.856903 7.08370018
273.48349 -302.528412 10.6365995
273.482086 -302.286713 11.2753
273.664703 -301.485901 -0.961700022
274.55069 -301.812195 4.56500006
275.292999 -301.728394 8.13300037
275.240509 -301.291687 6.36119986
275.242188 -301.241394 10.2321997
275.242188 -301.260712 13.8971004
275.56839 -301.447815 6.44680023
275.438293 -301.574005 15.4366999
275.571899 -301.040314 6.66709995
275.59729 -301.094696 10.5500002
275.670197 -301.425903 6.59770012
275.627899 -301.309204 10.4842997
275.605499 -301.266205 13.8146
275.694702 -301.3237 15.4997997
275.814514 -301.313904 6.89260006
276.208405 -301.446503 9.61240005
276.350586 -301.546906 11.9491997
276.322296 -301.320007 9.8994503
276.286713 -301.310913 10.0121002
276.418793 -301.431702 11.9235001
276.576294 -301.476898 15.4756002
276.592804 -301.258301 15.5053997
276.779602 -301.381805 7.68480015
276.722809 -301.307587 13.3498001
276.620209 -300.93811 6.83830023
276.756104 -300.804993 7.20739985
276.735992 -300.908386 10.3395004
276.988007 -301.908203 13.8949003
276.898285 -301.832214 14.7037001
276.975189 -301.689514 14.6350002
276.97821 -301.54071 11.1926003
276.806305 -301.450897 13.6885996
276.918701 -301.559509 14.9356003
276.837311 -301.354706 6.37330008
276.824707 -301.348297 7.57989979
276.953796 -301.273346 7.70504999
276.907104 -301.397095 9.07900047
276.831482 -301.235046 10.3120995
276.940247 -301.301697 10.64505
276.94281 -301.271698 14.5050001
276.902802 -301.373108 15.4940004
276.914215 -301.011688 7.01149988
276.90979 -301.190796 15.5017996
276.872314 -300.802002 7.14960003
276.911987 -300.991486 10.9411001
277.123413 -318.120392 10.2426004
277.195007 -317.027405 14.3668003
277.089386 -317.144012 14.4722996
277.164307 -317.026306 14.9504995
277.163391 -316.829407 13.5725002
277.117432 -316.842163 13.6644001
277.144897 -316.893311 14.4221001
277.158691 -316.722412 12.5532999
277.168915 -316.753296 12.6085997
277.071991 -316.719299 13.6336002
277.174896 -316.749786 14.7924995
277.131897 -316.54361 11.1640997
277.189911 -316.552185 12.5293999
277.172913 -316.562897 14.5952997
277.115723 -301.48938 7.48235035
277.110291 -301.486603 12.0367002
277.060913 -301.289612 6.8105998
277.080994 -301.26001 7.82590008
277.057709 -301.390411 8.36190033
277.020355 -301.361511 10.2856503
277.092712 -301.366699 12.8998003
277.398407 -318.894897 0.0667999983
277.358337 -318.918396 10.2632504
277.389801 -318.622986 11.0316
277.294189 -318.721436 13.6793995
277.371552 -318.566162 9.53299999
277.317596 -318.482697 9.60949993
277.366089 -318.485413 10.6710997
277.351288 -318.451996 14.6259003
277.39679 -318.424408 14.8102999
277.233307 -318.300995 10.2981997
277.399506 -318.331909 10.8063002
277.357086 -318.341888 11.3034
277.223785 -318.310608 13.9935999
277.247101 -318.345215 14.0739002
277.381989 -318.049591 7.31160021
277.372314 -318.199707 9.13640022
277.291748 -318.109589 10.3032999
277.275085 -318.0159 10.4681997
277.274109 -318.15799 10.6820002
277.275909 -318.134186 10.9554996
277.341187 -318.152588 11.9284
277.234894 -318.02121 14.5130997
277.367798 -317.909607 7.30849981
277.343506 -317.896301 7.41769981
277.314789 -317.934113 9.22290039
277.388214 -317.931213 9.97900009
277.331299 -317.966705 10.5527
277.360413 -317.947693 10.6862001
277.373505 -317.805206 11.4462996
277.389893 -317.845398 11.8009996
277.270386 -317.90271 12.9308004
277.314392 -317.946503 13.3539
277.237305 -317.929291 13.7702999
277.255615 -317.80481 14.0451002
277.321594 -317.906799 14.7088003
277.314514 -317.697693 10.0635996
277.358093 -317.697693 11.5688
277.355103 -317.632111 12.0916004
277.30719 -317.766998 13.0690002
277.309998 -317.786407 13.2524996
277.231293 -317.614502 13.6735001
277.317688 -317.651093 14.0446997
277.300415 -317.672729 14.7078991
277.357788 -317.414886 10.3017998
277.375305 -317.486694 10.8996
277.398987 -317.512909 11.382
277.350708 -317.586212 11.6626997
277.373291 -317.464294 12.1646996
277.295502 -317.428894 12.5809002
277.360413 -317.510193 12.7139997
277.222687 -317.476288 13.1346998
277.298004 -317.582886 13.2532997
277.209412 -317.477203 13.5094004
277.319763 -317.222778 9.74970055
277.398712 -317.349701 10.4751997
277.376709 -317.295898 10.8734999
277.311005 -317.223602 11.3535995
277.322815 -317.389313 11.7005997
277.273285 -317.351288 14.9242001
277.371399 -317.077606 8.25220013
277.343109 -317.136292 9.19340038
277.38559 -317.006287 9.65810013
277.358795 -317.169891 10.2377005
277.336487 -317.096497 10.8453999
277.346985 -317.067993 11.0040998
277.317505 -317.035614 11.2018003
277.388397 -316.827393 8.22599983
277.34436 -316.932922 8.74539948
277.270111 -316.998505 9.32619953
277.369995 -316.99939 9.42380047
277.352203 -316.907196 10.1230001
277.325592 -316.806702 10.5213003
277.325745 -316.81958 10.7005997
277.260742 -316.888794 11.2898006
277.361389 -316.9646 11.5769997
277.298706 -316.871704 11.6335506
277.384705 -316.718597 7.3210001
277.39209 -316.618896 7.77890015
277.388214 -316.764313 7.90999985
277.345795 -316.727692 8.56579971
277.340668 -316.670227 9.26930046
277.344788 -316.764313 9.45059967
277.286407 -316.725159 9.91454983
277.33609 -316.631104 10.0003996
277.20639 -316.635406 10.3410997
277.283112 -316.655396 10.8687
277.319794 -316.797089 11.1876001
277.256714 -316.629791 11.5932999
277.327606 -316.612213 11.8168001
277.261292 -316.668793 12.1569004
277.235901 -316.768311 13.8382998
277.37561 -316.50119 6.22380018
277.37204 -316.480438 7.50106668
277.375702 -316.498291 7.81759977
277.395905 -316.547302 8.00199986
277.324493 -316.495605 8.33189964
277.301605 -316.462891 8.55840015
277.354889 -316.490692 8.77560043
277.26001 -316.441711 8.86050034
277.365814 -316.448608 9.32229996
277.346497 -316.442902 9.55340004
277.33197 -316.491394 9.6335001
277.286438 -316.508301 11.6622
277.278595 -316.567993 12.1303997
277.270264 -316.543457 13.09165
277.384308 -316.261688 4.64919996
277.323792 -316.382996 7.13980007
277.27771 -316.266815 7.53130007
277.389099 -316.257385 8.24950027
277.375214 -316.349701 8.57040024
277.326691 -316.396301 8.67440033
277.353607 -316.353302 9.19260025
277.338715 -316.388794 9.57390022
277.259918 -316.371918 11.9581671
277.301605 -316.314362 12.3237
277.331787 -316.074707 8.90079975
277.282806 -316.135895 12.1176996
277.396698 -315.870209 8.85400009
277.325012 -301.652313 7.4222002
277.274597 -301.473389 6.92579985
277.366089 -301.464691 7.8277998
277.244202 -301.415009 8.34790039
277.346893 -301.365997 4.3421998
277.424103 -319.73111 13.9935999
277.571014 -319.754791 14.1134005
277.503296 -319.63681 14.2550001
277.569 -319.622192 14.6246996
277.512207 -319.570496 10.6714001
277.492188 -319.494202 11.1964998
277.570312 -319.553986 14.4854002
277.570801 -319.095215 7.04939985
277.430786 -319.130005 10.3849001
277.503143 -319.14566 10.6637001
277.401093 -319.191315 13.0791998
277.499939 -318.939636 10.4821501
277.528503 -318.909088 10.6694002
277.59079 -318.998596 11.0274
277.586212 -318.96701 11.4587002
277.534546 -318.910248 11.6826496
277.52179 -318.890198 14.6461
277.561401 -318.850159 14.9523506
277.592712 -318.654785 4.4355998
277.578186 -318.637695 7.17920017
277.559814 -318.718323 7.3368001
277.588013 -318.713013 7.56099987
277.552612 -318.667511 9.2826004
277.421997 -318.797699 9.53339958
277.405792 -318.694397 10.3817997
277.489807 -318.622009 11.4322004
277.562286 -318.756592 11.6173
277.513794 -318.666656 11.9706001
277.43219 -318.663849 14.9507999
277.524506 -318.420685 6.90869999
277.593903 -318.451904 7.08449984
277.449707 -318.404907 7.38999987
277.507812 -318.406311 7.93190002
277.525513 -318.524994 8.9428997
277.593597 -318.523804 9.19250011
277.457001 -318.539001 9.38700008
277.438995 -318.441101 9.47249985
277.458099 -318.543701 9.6303997
277.402496 -318.480194 10.1838999
277.420288 -318.438202 10.6341
277.510925 -318.55304 11.38235
277.547668 -318.489197 11.4880505
277.577698 -318.348511 0.37439999
277.541504 -318.364014 6.54809999
277.516388 -318.220093 6.61660004
277.451813 -318.27359 6.92920017
277.479706 -318.384094 7.34789991
277.52829 -318.234802 7.51490021
277.593597 -318.259888 8.76760006
277.553802 -318.386108 8.86340046
277.565491 -318.270294 9.1789999
277.442291 -318.277405 10.5642004
277.442657 -318.363708 10.61415
277.404999 -318.352509 10.9004993
277.497009 -318.292206 11.6296501
277.486389 -318.306702 11.9623003
277.488708 -318.297302 12.5184002
277.576996 -318.013092 -0.0278999992
277.578094 -318.125 3.66700006
277.490601 -318.135101 3.81680012
277.562714 -318.144989 4.00470018
277.537598 -318.127502 4.43219995
277.571594 -318.152496 5.86660004
277.402802 -318.027893 7.14699984
277.599213 -318.127899 8.8114996
277.575104 -318.031006 9.19519997
277.514893 -318.199493 11.6511002
277.537903 -317.889557 4.50769997
277.4823 -317.805389 5.76779985
277.549896 -317.866699 6.33220005
277.446289 -317.857697 6.57229996
277.432495 -317.89502 7.72259998
277.536011 -317.931091 8.10429955
277.528809 -317.9422 8.34029961
277.586304 -317.617401 0.838400006
277.540985 -317.616211 3.46490002
277.514496 -317.777893 3.92849994
277.58139 -317.729614 4.40770006
277.577911 -317.620087 5.77729988
277.529388 -317.793152 6.52760029
277.496002 -317.775604 7.29400015
277.542603 -317.706299 7.42910004
277.484253 -317.664642 7.87756681
277.533478 -317.730316 8.08090019
277.545441 -317.721069 8.31489944
277.571289 -317.720398 8.74995041
277.549591 -317.678101 9.38010025
277.455902 -317.752991 9.96990013
277.508698 -317.723999 10.2753
277.438202 -317.676636 10.5331001
277.427704 -317.677307 10.6451998
277.4729 -317.68811 11.8135004
277.416901 -317.614014 12.3361998
277.573608 -317.580994 -0.00480000023
277.536499 -317.50531 0.358200014
277.565094 -317.5896 3.55739999
277.544952 -317.5867 3.8977499
277.569611 -317.474609 4.24770021
277.585693 -317.557709 6.9763999
277.510162 -317.440979 7.11164999
277.535004 -317.522888 7.27990007
277.53421 -317.599792 7.41349983
277.531677 -317.516541 7.90977526
277.432404 -317.443787 8.45849991
277.498383 -317.513275 8.75794983
277.444397 -317.4422 8.82489967
277.463989 -317.595093 9.03899956
277.468506 -317.555115 9.57849979
277.437347 -317.482239 9.75500011
277.439789 -317.509705 10.1922998
277.493958 -317.532837 10.3108997
277.493408 -317.500488 11.7241001
277.408813 -317.467896 12.0261002
277.533936 -317.314636 5.1017499
277.49411 -317.288513 5.91349983
277.518188 -317.204895 6.54920006
277.498596 -317.300507 6.87669992
277.594513 -317.219604 7.05079985
277.497711 -317.341187 7.2968998
277.492188 -317.329712 8.21809959
277.516113 -317.368988 8.87549973
277.450317 -317.30011 9.04535007
277.447998 -317.367615 11.2469997
277.562012 -317.050201 1.92079997
277.550415 -317.056488 3.34299994
277.558594 -317.136108 3.9526
277.564697 -317.147186 4.35960007
277.539703 -317.141113 4.41830015
277.5383 -317.120789 4.92129993
277.507812 -317.162994 5.43370008
277.47879 -317.017487 5.796
277.506958 -317.119507 6.07775021
277.457458 -317.089355 6.56624985
277.483307 -317.195404 6.75180006
277.462769 -317.080811 7.10379982
277.424194 -317.055695 7.86929989
277.486115 -317.09259 8.53380013
277.427094 -317.180603 9.10830021
277.402893 -317.079102 9.37030029
277.578705 -316.820404 1.28999996
277.588715 -316.884308 2.75489998
277.584595 -316.989899 3.28730011
277.561279 -316.977234 3.73724985
277.516357 -316.864075 5.10725021
277.490814 -316.992798 5.7178998
277.475708 -316.802307 6.03189993
277.44281 -316.876709 6.28779984
277.481812 -316.980804 6.74830008
277.496796 -316.998505 6.81409979
277.446686 -316.982056 8.21863365
277.584595 -316.641205 0.580900013
277.560913 -316.657288 2.12739992
277.546997 -316.7659 3.40980005
277.5224 -316.601013 4.52640009
277.533508 -316.728088 4.60570002
277.503113 -316.75769 4.94680023
277.452911 -316.717499 5.30929995
277.437103 -316.667999 5.49810028
277.502502 -316.730286 5.65570021
277.408905 -316.759613 6.71029997
277.401306 -316.671814 6.80740023
277.409088 -316.668396 8.88249969
277.565186 -316.432495 1.32599998
277.429108 -316.416199 2.88429999
277.534088 -316.51059 3.75769997
277.473694 -316.58551 4.01350021
277.405792 -316.526215 5.2894001
277.438385 -316.469604 6.36749983
277.480408 -316.592499 7.59829998
277.428955 -316.422913 9.70975018
277.531189 -316.428497 10.0263004
277.512604 -316.344391 0.275599986
277.532288 -316.23349 0.711499989
277.518585 -316.252899 0.89623332
277.523285 -316.353394 1.02339995
277.465302 -316.274811 1.90050006
277.492706 -316.384399 2.0789001
277.541809 -316.334595 2.68589997
277.46991 -316.358002 3.51670003
277.508514 -316.301208 4.61859989
277.471008 -316.361511 5.89359999
277.465607 -316.327911 6.66270018
277.419708 -316.223999 6.88640022
277.538391 -316.228485 7.03270006
277.545197 -316.312988 8.25930023
277.418457 -316.285797 8.87800026
277.531586 -316.30249 9.87209988
277.526306 -316.138306 2.72615004
277.596985 -316.139801 3.31150007
277.497192 -316.134796 6.30870008
277.46991 -316.138 6.55149984
277.44989 -316.174805 9.47599983
277.54541 -316.15509 9.76010036
277.542694 -315.957001 3.14240003
277.46991 -301.411804 11.6724997
277.546112 -301.387299 15.4026003
277.503906 -301.199707 15.4431
277.721497 -319.83609 10.4343004
277.708496 -319.820587 13.9707003
277.647888 -319.923187 14.0585003
277.646179 -319.924683 14.5251999
277.653503 -319.947906 14.7124004
277.710205 -319.796112 10.9772997
277.761902 -319.634308 11.1299
277.688232 -319.683594 11.3361502
277.75061 -319.782288 11.5501003
277.688995 -319.701294 11.6595001
277.74411 -319.795807 12.3753004
277.694092 -319.731598 14.8942003
277.708099 -319.429993 3.87779999
277.708252 -319.499512 7.09004974
277.705292 -319.404694 7.92929983
277.787109 -319.415588 8.39009953
277.743195 -319.533905 9.02099991
277.700989 -319.414703 11.5388002
277.684204 -319.452301 15.1954002
277.741211 -319.269989 3.21320009
277.796204 -319.237305 4.20629978
277.745697 -319.225403 4.41020012
277.790192 -319.217987 4.96920013
277.745514 -319.22821 7.39550018
277.745697 -319.326599 7.56379986
277.739014 -319.279785 7.64559984
277.672913 -319.358093 7.86289978
277.745392 -319.278992 8.22249985
277.70639 -319.294403 8.74240017
277.606598 -319.209808 11.2489004
277.729614 -319.307587 11.4639997
277.64801 -319.333099 12.6410999
277.713989 -319.085602 3.45190001
277.685699 -319.027496 3.90700006
277.714294 -319.106201 4.67329979
277.677185 -319.02359 6.49359989
277.706543 -319.079254 7.86485004
277.738831 -319.11908 8.1352005
277.670593 -319.110901 8.21660042
277.613586 -319.162415 11.5574999
277.732788 -318.804291 2.96589994
277.684631 -318.919495 6.0791502
277.623291 -318.879211 6.45030022
277.661987 -318.902588 6.93220043
277.650726 -318.931854 7.33077526
277.767548 -318.891205 8.28530025
277.74469 -318.891693 8.5909996
277.69101 -318.898193 8.80620003
277.704987 -318.984009 9.15019989
277.662598 -318.861603 9.3217001
277.660614 -318.949707 11.7735996
277.622498 -318.928711 14.9230003
277.760406 -318.619507 0.372000009
277.685303 -318.667206 0.72240001
277.737396 -318.756592 1.36609995
277.768311 -318.625702 2.58179998
277.719177 -318.627441 3.11059999
277.624603 -318.673096 3.2586
277.778992 -318.725403 3.61170006
277.793488 -318.63681 5.90259981
277.710266 -318.702698 6.07089996
277.761993 -318.686005 6.46589994
277.666809 -318.725098 6.75839996
277.701508 -318.757996 6.97550011
277.605011 -318.772888 7.34829998
277.647095 -318.632294 7.40129995
277.683014 -318.668793 7.70419979
277.660187 -318.686096 7.94000006
277.798706 -318.733185 8.42730045
277.743958 -318.767395 9.09994984
277.695587 -318.6604 9.31280041
277.645508 -318.759308 11.6970997
277.774109 -318.479095 0.958299994
277.664215 -318.575714 3.88109994
277.699493 -318.549805 4.11905003
277.648193 -318.565094 4.29645014
277.669006 -318.541199 4.55500031
277.751892 -318.560394 5.57980013
277.788788 -318.480286 5.86740017
277.766388 -318.594299 6.20079994
277.635406 -318.596405 7.52659988
277.691803 -318.500397 7.69239998
277.701508 -318.550812 8.50399971
277.795898 -318.585114 9.20110035
277.623413 -318.537415 11.8615999
277.677887 -318.439606 15.1442003
277.687714 -318.249786 0.746699989
277.713104 -318.336487 0.969099998
277.672699 -318.262085 1.07640004
277.754303 -318.373993 2.69880009
277.634155 -318.324463 3.07630014
277.705902 -318.321411 4.56689978
277.781891 -318.319611 4.9073
277.723511 -318.376892 5.05700016
277.734131 -318.319031 5.28705025
277.633392 -318.310608 7.94140005
277.636047 -318.351624 8.27865028
277.712708 -318.357391 8.4282999
277.668488 -318.388885 8.90209961
277.639709 -318.322998 9.41110039
277.657806 -318.112915 0.131400004
277.680206 -318.076813 0.347299993
277.766113 -318.107239 1.72609997
277.752686 -318.011993 2.06669998
277.780853 -318.15976 2.29914999
277.652008 -318.115387 2.86750007
277.648102 -318.187592 3.26559997
277.612915 -318.175598 4.45009995
277.695587 -318.052887 4.69460011
277.722595 -318.062012 5.03410006
277.731689 -318.196503 5.86189985
277.634796 -318.105103 8.44620037
277.634705 -318.188202 8.77359962
277.721008 -317.907043 1.74230003
277.70401 -317.861908 2.55719995
277.609894 -317.94101 5.76090002
277.645813 -317.992004 8.30840015
277.64151 -317.869812 8.61060047
277.608795 -317.896301 9.42080021
277.660095 -317.737 0.984799981
277.735413 -317.720398 1.87979996
277.761414 -317.638214 2.51999998
277.700897 -317.698608 2.79900002
277.626831 -317.703949 4.93343353
277.681702 -317.712006 5.15339994
277.643402 -317.684998 6.36409998
277.631409 -317.440399 0.953100026
277.716187 -317.586914 2.32529998
277.61319 -317.5513 3.61080003
277.637085 -317.474487 6.29559994
277.658691 -317.539795 8.06960011
277.741699 -317.240387 -0.569700003
277.63269 -317.202789 1.20739996
277.660187 -317.274902 1.89849997
277.655487 -317.37561 3.9217999
277.670807 -317.388885 5.00570011
277.729614 -317.096588 -0.348399997
277.676941 -317.156891 0.9278
277.625397 -317.129089 1.08599997
277.646912 -317.122803 1.64170003
277.614685 -317.179993 2.55290008
277.649689 -317.193207 2.72420001
277.610596 -317.057709 3.70749998
277.605591 -317.138885 4.12760019
277.624207 -316.860291 0.195099995
277.614502 -316.930695 0.354299992
277.646606 -316.89621 0.464700013
277.610596 -316.979706 1.22449994
277.608307 -316.959686 2.06279993
277.612457 -316.936798 2.25204992
277.632263 -316.696106 0.287450016
277.605499 -316.621796 2.31150007
277.686096 -316.272095 8.4296999
277.615112 -316.284485 10.0523005
277.673309 -316.066895 9.86999989
277.645111 -301.685913 10.6079998
277.672302 -301.296295 15.3114996
277.982391 -319.973694 7.48719978
277.9021 -319.860199 7.70020008
277.867096 -319.893799 7.84140015
277.921753 -319.912292 8.06499958
277.840302 -319.832611 8.23989964
277.971191 -319.979706 8.54529953
277.93399 -319.924194 9.19270039
277.801392 -319.860199 10.5262003
277.817291 -319.919006 10.9421997
277.855499 -319.802002 12.3227997
277.977905 -319.625885 4.09929991
277.914612 -319.679993 7.38880014
277.873566 -319.749817 7.64446688
277.859802 -319.7659 8.19499969
277.860504 -319.67691 8.28219986
277.92215 -319.668854 8.65205002
277.869995 -319.69281 8.88389969
277.874603 -319.400208 3.56809998
277.9599 -319.504791 3.75889993
277.937439 -319.565491 4.09084988
277.947601 -319.429108 4.58640003
277.937103 -319.514587 6.19099998
277.890503 -319.549408 7.01730013
277.907959 -319.513641 7.7349
277.825195 -319.559998 7.83589983
277.86853 -319.459045 8.67115021
277.859802 -319.563812 8.89700031
277.826599 -319.434509 9.27970028
277.986511 -319.320099 0.720200002
277.987091 -319.200104 1.77540004
277.994598 -319.212189 1.96159995
277.997192 -319.24469 2.29839993
277.85199 -319.358185 2.86220002
277.887085 -319.388214 4.56659985
277.911713 -319.332489 5.06930017
277.810211 -319.304993 8.02569962
277.878815 -319.394196 8.35820007
277.865692 -319.160004 0.164000005
277.844208 -319.052399 0.746399999
277.838989 -319.112793 1.12390006
277.952789 -319.186096 1.65569997
277.95459 -319.122498 2.13649988
277.912659 -319.162659 2.73119998
277.807892 -319.118591 4.66830015
277.881805 -319.175598 4.84140015
277.827087 -319.089111 5.30299997
277.878387 -319.134613 5.57229996
277.819702 -319.098877 8.10009956
277.814301 -318.84259 0.979300022
277.933044 -318.920471 1.27114999
277.974915 -318.8685 1.56809998
277.932007 -318.924896 2.17140007
277.871399 -318.977295 4.85580015
277.820892 -318.942108 5.9829998
277.922089 -318.752899 1.87080002
277.931702 -318.764709 2.28490019
277.812408 -318.626709 6.36889982
277.998596 -318.43399 -1.66340005
277.939789 -318.536804 -1.39989996
277.872589 -318.453705 1.31900001
277.930054 -318.534943 1.62995005
277.865906 -318.592407 1.93519998
277.87323 -318.431702 2.06620002
277.801788 -318.537811 4.9197998
277.827087 -318.232391 2.11170006
277.875702 -318.396393 2.35719991
277.8638 -318.386292 2.66790009
277.827606 -318.184906 1.6027
277.809601 -318.145996 2.06559992
277.821411 -317.980713 2.05360007
277.856415 -316.447205 13.3983002
277.871887 -315.9776 4.40119982
277.816193 -301.471313 14.9475002
277.99939 -301.325592 8.20320034
277.921295 -301.192108 5.00250006
278.168793 -319.917114 0.574199975
278.162506 -319.966705 1.33430004
278.041504 -319.802307 3.84520006
278.08371 -319.924988 4.73629999
278.062103 -319.869995 4.9302001
278.083313 -319.983795 6.01809978
278.121796 -319.824707 6.32189989
278.022003 -319.993408 7.34989977
278.063812 -319.960999 12.8059998
278.192505 -319.636597 0.282099992
278.066833 -319.67218 0.947849989
278.102203 -319.654297 1.22259998
278.088989 -319.696991 1.70169997
278.087311 -319.695312 2.68980002
278.193695 -319.664398 3.04399991
278.023407 -319.694794 4.1553998
278.0289 -319.711914 4.59130001
278.168488 -319.417908 -1.86909997
278.091888 -319.445892 -0.922100008
278.132385 -319.456299 -0.544799984
278.057312 -319.518005 1.33969998
278.095612 -319.587891 2.40860009
278.047089 -319.515686 2.63070011
278.039093 -319.587494 4.15920019
278.123901 -319.328186 -1.47720003
278.064697 -319.388702 -1.01170003
278.165314 -319.337402 -0.413500011
278.069489 -319.265594 -0.390100002
278.012909 -319.363098 1.07420003
278.029388 -319.339294 1.20109999
278.070709 -319.305695 2.0092001
278.037506 -319.03241 -1.26209998
278.052795 -319.190887 1.61189997
278.001099 -319.069611 1.98629999
278.056793 -301.407013 8.64070034
278.076385 -301.487793 14.4780998
278.110199 -301.355804 14.0928001
278.103485 -301.089203 15.1408997
278.244598 -319.836914 -1.50349998
278.292206 -319.8125 2.94619989
278.287598 -319.97049 6.25159979
278.328949 -319.846497 6.47494984
278.292603 -319.9552 6.71549988
278.2435 -319.920898 9.47789955
278.337402 -319.719513 -0.0383000001
278.22879 -319.772095 2.91829991
278.210907 -319.6604 9.51220036
278.314026 -319.677612 9.77565002
278.389404 -319.5047 6.59509993
278.385498 -319.480896 6.80499983
278.32901 -316.220795 8.34790039
278.300903 -316.381897 11.8242998
278.262085 -301.490692 10.6183004
278.276886 -301.266998 6.85440016
278.20459 -301.34671 11.0558996
278.354614 -301.24649 15.3304005
278.215912 -301.089111 6.05030012
278.362488 -301.02951 6.3526001
278.296112 -300.867798 -0.122000001
278.564301 -319.944 -0.243499994
278.599213 -319.980408 0.212500006
278.442902 -319.881012 3.21359992
278.414307 -319.979095 6.62839985
278.452515 -319.697296 3.30809999
278.413788 -319.528198 2.92980003
278.529999 -316.463501 13.415
278.428497 -301.232391 12.3280001
278.497498 -301.306702 15.2136002
278.407806 -301.313293 15.4403
278.404999 -301.16449 4.2263999
278.566315 -301.014313 8.66660023
278.579315 -301.186005 13.2202997
278.618408 -316.416595 12.9305
278.784485 -316.296204 8.64350033
278.745209 -316.258087 9.1001997
278.7565 -316.31369 10.7769003
278.726288 -316.277496 10.8422003
278.791595 -316.340393 11.2573996
278.794098 -316.386902 13.6016998
278.700287 -316.31839 13.9078999
278.705109 -301.204712 11.4036999
278.773193 -300.789001 15.6394997
278.814606 -316.524902 13.5316
278.967285 -316.436401 14.1703997
278.940094 -316.4245 15.0098
278.937286 -316.232788 6.3513999
278.99939 -316.271393 8.76790047
278.947998 -316.207001 8.88010025
278.952515 -316.224396 10.7791996
278.891296 -316.296509 13.0319996
278.934204 -316.267487 13.5380001
278.887787 -316.231995 13.7695999
278.910492 -316.101288 5.40070009
278.953888 -316.085602 6.20690012
278.993713 -316.096405 7.26049995
278.856903 -316.142914 8.52299976
278.958679 -316.102448 9.31264973
278.970703 -316.159912 9.95020008
278.951904 -316.164795 10.1647997
278.946198 -316.144592 10.8200998
278.898499 -316.167114 11.4334002
278.992493 -315.937592 5.06090021
278.802887 -301.218292 4.57660007
278.826599 -301.30481 12.7476997
278.917511 -301.098389 11.1611996
279.175507 -316.343689 14.8092003
279.062012 -316.125793 3.54460001
279.0401 -316.046997 6.06279993
279.008301 -316.16861 8.14789963
279.026093 -316.0242 8.27970028
279.052795 -316.103607 8.85350037
279.028015 -316.040985 9.10719967
279.037689 -316.018188 9.25129986
279.036102 -316.157104 11.0058002
279.094604 -315.814209 1.53330004
279.088989 -315.941101 2.04220009
279.117493 -315.834106 3.04380012
279.030792 -315.898987 3.57929993
279.117188 -315.952454 4.66985035
279.124512 -315.95929 6.39209986
279.109589 -315.983307 6.90920019
279.037598 -315.992004 8.5376997
279.089386 -301.224915 15.4773998
279.195496 -300.887787 5.48740005
279.138794 -300.987793 5.72310019
279.029602 -300.91391 15.3711004
279.252411 -316.337494 10.5965004
279.333099 -316.357513 13.3451996
279.305908 -316.295197 13.8167
279.393799 -316.151611 9.89239979
279.370911 -316.100586 13.4511995
279.351196 -316.154205 13.7901001
279.216614 -316.128815 13.9032001
279.229614 -315.848389 3.37400007
279.267395 -315.857086 3.45149994
279.338013 -315.954193 6.49700022
279.367004 -315.892303 13.2804003
279.221588 -301.011688 10.0875998
279.340393 -301.123199 10.3303003
279.349609 -301.076691 12.5536003
279.245514 -300.897186 10.3469
279.439911 -316.116608 8.56099987
279.43161 -316.103699 9.65299988
279.488098 -316.165985 10.1176996
279.518188 -316.009705 10.4357996
279.426086 -316.0578 10.8450003
279.427185 -316.106506 14.0356998
279.529785 -315.878815 6.5163002
279.497406 -315.903809 6.92959976
279.553802 -315.905396 7.60440016
279.568207 -315.861786 9.91139984
279.595703 -315.819702 10.1278
279.507599 -315.88446 10.2871494
279.543091 -315.921539 10.8840504
279.537201 -315.949005 11.1991997
279.561188 -315.858612 11.2456999
279.460907 -315.870087 13.4752998
279.461914 -315.98761 13.8336
279.553314 -315.758209 6.86959982
279.538605 -300.966187 7.70319986
279.577301 -300.923096 14.0663004
279.5224 -300.653687 15.1906996
279.604706 -316.148407 14.7958002
279.662109 -315.818909 3.78609991
279.6745 -315.807098 4.16860008
279.602509 -315.963501 6.58470011
279.622101 -315.826508 7.0072999
279.610291 -315.88559 7.26660013
279.615204 -315.881195 7.77510023
279.697998 -315.964905 8.48700047
279.727905 -315.931091 8.84049988
279.722809 -315.887695 9.49269962
279.651001 -315.863312 13.1871004
279.731506 -315.791504 0.870000005
279.747192 -315.788086 1.57050002
279.726013 -315.648407 2.83899999
279.743774 -315.689087 3.15619993
279.772186 -315.662689 4.06040001
279.723022 -315.681213 4.50810003
279.735291 -315.648193 4.7118001
279.608307 -315.771301 6.12960005
279.661987 -315.6875 6.88094997
279.786713 -315.664215 7.58529997
279.679199 -315.787292 10.4448004
279.682404 -315.493011 3.00309992
279.696991 -315.486694 3.76780009
279.761108 -301.143707 14.5402002
279.709106 -300.856415 9.11030006
279.792511 -300.953796 10.3683996
279.619385 -300.7836 6.75290012
279.950195 -318.519989 -1.60500002
279.960602 -318.539307 -1.29419994
279.822693 -318.378387 -1.83159995
279.891388 -317.410492 -1.05250001
279.906891 -316.002808 12.1141996
279.917114 -315.919189 6.01980019
279.9953 -315.955902 9.12580013
279.996704 -300.920807 8.70629978
279.958405 -300.962006 10.8748999
279.983612 -300.875397 13.0331001
279.911713 -300.973511 13.4383001
279.9487 -300.795502 5.8592
