# .PCD v0.7 - Point Cloud Data file format
VERSION 0.7
FIELDS x y z
SIZE 4 4 4
TYPE F F F
COUNT 1 1 1
WIDTH 317
HEIGHT 1
VIEWPOINT 0 0 0 1 0 0 0
POINTS 317
DATA ascii
200.191299 -197.353607 20.5823002
200.080399 -196.106247 17.4438
200.096695 -196.075195 17.6851006
200.030396 -196.085007 18.5839005
200.0952 -196.102554 19.0262985
200.033997 -196.051605 19.2950001
200.061295 -196.058105 19.7810001
200.140305 -196.172104 20.4822006
200.102997 -195.868698 18.3897991
200.113907 -195.9245 18.8132
200.134705 -195.947647 19.1236496
200.154648 -195.67511 17.6949005
200.081207 -195.650894 17.9162998
200.174896 -195.628906 18.6578999
200.003098 -195.757797 18.9722996
200.135193 -195.666992 19.4766502
200.058594 -195.789307 19.8108997
200.091156 -195.734802 20.0342503
200.109406 -195.741302 20.3220005
200.108597 -195.648102 20.6760006
200.049103 -195.741699 21.0058002
200.163895 -195.608093 22.9139004
200.109207 -195.509293 17.7929993
200.082169 -195.500427 17.944067
200.029694 -195.546509 18.1963997
200.121201 -195.4245 18.2077999
200.097549 -195.406891 18.5046005
200.176605 -195.415298 19.7380009
200.195099 -195.424194 20.4505997
200.015198 -195.443405 20.6865005
200.073502 -195.428207 21.0067997
200.022202 -195.493805 21.2765503
200.05777 -195.505661 21.5050659
200.119705 -195.437805 21.6532993
200.046539 -195.50885 21.8787498
200.097794 -195.478699 22.0769005
200.062302 -195.513596 22.3395996
200.059402 -195.478806 22.5723
200.065994 -195.4496 22.7980995
200.014297 -195.500107 22.9209995
200.088699 -195.369095 17.3927002
200.126007 -195.236298 17.5694008
200.0811 -195.323608 17.9027004
200.08136 -195.313599 18.6973495
200.121201 -195.368393 19.0979996
200.089661 -195.322144 19.4459991
200.132706 -195.359207 19.9526997
200.061493 -195.345596 20.1758003
200.105804 -195.300598 20.9346008
200.027695 -195.380005 21.0834999
200.067688 -195.339951 21.4446507
200.115707 -195.211807 22.1415005
200.056503 -195.009995 17.7390995
200.131989 -195.142242 17.9348984
200.082306 -195.089706 18.4419994
200.073502 -195.1064 19.7544994
200.065903 -195.056503 20.0102005
200.055695 -195.107498 20.7203007
200.160706 -194.878204 17.1495991
200.116501 -194.801804 17.7080994
200.146896 -194.819397 17.993
200.114807 -194.849701 18.3574009
200.171494 -194.910095 18.8155994
200.049652 -194.874237 20.1762009
200.094696 -194.809692 20.2679005
200.087906 -194.944794 20.7579002
200.065094 -194.979904 21.1481991
200.054993 -194.954697 21.5723991
200.095306 -194.673798 16.8488998
200.072205 -194.671204 17.2542992
200.126648 -194.787354 17.7525997
200.047501 -194.680939 17.8969498
200.111801 -194.639404 18.3369007
200.138702 -194.711502 18.5615997
200.055298 -194.780396 18.7586994
200.050003 -194.731796 18.9514999
200.127106 -194.799103 19.2590008
200.100708 -194.673203 19.6754494
200.161697 -194.739395 20.0433998
200.105194 -194.688904 20.4410992
200.111801 -194.791595 21.7409992
200.115005 -194.464096 16.2469006
200.081696 -194.533493 17.343399
200.117493 -194.474304 17.436451
200.020203 -194.558899 18.3003998
200.015594 -194.520401 19.5154991
200.117294 -194.504593 19.6362
200.0896 -194.425507 20.5995998
200.070999 -194.507507 21.1056995
200.036499 -194.451401 21.2189999
200.024094 -194.532196 21.7865009
200.035995 -194.262207 16.5552006
200.089798 -194.2164 17.0548
200.074402 -194.221298 19.2957001
200.035507 -194.229507 19.8330994
200.116608 -194.211639 20.9141998
200.067703 -194.116699 16.0161991
200.103104 -194.045303 16.2912006
200.108002 -194.118103 16.8402004
200.077805 -194.146698 17.6063004
200.046844 -194.110138 18.3131504
200.013504 -194.001099 18.6998997
200.103104 -194.190002 18.9678993
200.057602 -194.191193 19.2759991
200.037903 -194.056396 19.4139996
200.064407 -194.188202 19.9953003
200.046097 -194.015594 20.4046001
200.023193 -194.096695 21.0660992
200.056793 -193.991394 17.7427006
200.075897 -193.913498 18.3257008
200.042404 -193.847595 18.7875996
200.056107 -193.962296 19.3465004
200.051804 -193.800995 19.8535004
200.007095 -193.939102 20.0405006
200.005005 -193.676697 20.4027004
200.043503 -193.595901 18.0342007
200.081207 -193.495804 18.2029991
200.006897 -193.501694 18.6448002
200.037598 -193.476807 21.2327995
200.050507 -193.251205 16.6415005
200.090302 -193.367294 21.5431004
200.011002 -193.144699 17.9235992
200.006104 -192.803802 17.2605
200.1017 -192.936096 18.3530006
200.069 -192.798492 17.2667007
200.057495 -192.679794 17.7273502
200.061523 -192.706497 17.8843327
200.075699 -192.785095 18.0116005
200.121704 -192.774094 18.5529995
200.101288 -192.705002 19.2422485
200.084991 -192.773163 19.4860001
200.047104 -192.710907 19.8600006
200.061401 -192.587296 19.4209995
200.108002 -192.582306 20.0305996
200.071747 -192.430847 20.4895515
200.149994 -191.917297 20.4904003
200.183197 -191.880402 20.7161007
200.278595 -196.334198 19.1868992
200.204193 -196.044601 17.0426006
200.248703 -196.076294 19.0993996
200.2034 -196.124603 20.4291992
200.200104 -195.818893 19.8430004
200.262894 -195.680405 17.4309998
200.209 -195.786301 18.1285992
200.247604 -195.749893 18.2425003
200.214203 -195.714996 18.7155991
200.222107 -195.716995 19.5955009
200.241699 -195.654404 20.0216007
200.252808 -195.610199 20.2033997
200.222794 -195.617401 23.1685009
200.216507 -195.462097 16.6130009
200.236298 -195.521805 16.8908005
200.228195 -195.511398 17.7304993
200.233505 -195.532806 19.3409004
200.211899 -195.579712 19.4828987
200.290405 -195.594803 19.7212009
200.210999 -195.544205 20.4004002
200.207993 -195.447006 20.6882992
200.231995 -195.567398 22.8239002
200.338394 -195.481506 23.5272999
200.229202 -195.359207 18.8227005
200.225906 -195.392197 19.4655991
200.203506 -195.263596 21.1693993
200.200302 -195.085297 17.0863991
200.207794 -195.0466 17.4930992
200.201401 -195.046204 19.1637993
200.228104 -195.148102 20.9367008
200.280701 -192.669907 18.1625004
200.293396 -192.619904 18.3374004
200.324997 -192.6716 19.3132
200.254807 -192.709106 19.4804001
200.219803 -192.6548 20.0049
200.239395 -192.627197 20.3456001
200.319107 -192.598404 16.8481007
200.365005 -192.594101 18.7823009
200.2491 -192.5905 19.4766006
200.366699 -192.556595 19.7751999
200.3125 -192.461746 20.3095512
200.2276 -192.478653 20.5250511
200.528 -192.608902 17.7907009
200.501602 -192.634293 18.0116997
200.520798 -192.672104 19.3808002
200.552094 -192.680695 20.0048008
200.402603 -192.718307 20.5216999
200.533096 -192.542892 17.8344002
200.484802 -192.567307 19.1837997
200.547104 -192.547394 19.3274002
200.518906 -192.548004 19.6702995
200.526199 -192.555496 20.1723995
200.571594 -192.586395 20.2789993
200.510498 -192.444397 20.5881004
200.5896 -192.322906 20.5748997
200.484955 -191.939148 20.6714497
200.425293 -191.842194 20.9085999
200.607895 -192.619095 17.7619991
200.762299 -192.656906 18.5545006
200.652206 -192.655304 19.5874996
200.723999 -192.658844 20.2200508
200.610703 -192.606506 20.4281006
200.732895 -192.513 18.9438992
200.680298 -192.5802 19.2987003
200.604996 -192.486893 20.5531998
200.665802 -192.483994 20.6868
200.797806 -192.367203 18.1422997
200.758896 -192.278107 18.4699993
200.796906 -192.242996 18.7709007
200.736603 -192.391006 20.3132
200.796494 -192.098297 17.9620991
200.711502 -192.107407 19.0347996
200.679901 -191.898407 20.5758991
200.739502 -191.812805 20.6674004
200.820694 -192.633804 20.1480007
200.824799 -192.550995 17.4335003
200.856903 -192.414795 17.9496002
200.931396 -192.537994 18.4395008
200.828003 -192.453796 19.1679001
200.903503 -192.511597 19.6819992
200.935196 -192.338593 18.0645008
200.810699 -192.2798 18.7273006
200.810104 -192.277206 18.9556999
200.8871 -192.181152 17.6943016
200.967102 -192.056305 17.9676991
200.876801 -192.193893 18.5755005
200.907944 -192.061905 18.7704506
200.845001 -192.082993 20.3995991
200.915604 -192.066605 20.4307995
200.894592 -191.916153 20.6189003
201.055099 -192.485901 17.0657005
201.009293 -192.495407 19.0405006
201.078598 -192.218506 12.2327003
201.070404 -192.332901 14.4036999
201.019699 -192.294601 20.1609001
201.009399 -192.073395 18.7830009
201.162292 -192.099503 20.3017006
201.072845 -191.96814 18.4663506
201.051605 -191.868301 20.5750999
201.036697 -191.806107 20.7110996
201.063507 -191.720505 18.4729996
201.110596 -191.611298 18.9640999
201.162598 -191.741592 20.8707008
201.221298 -192.0327 18.5328007
201.208099 -192.057007 18.6513004
201.369904 -191.998993 17.7057991
201.3116 -191.919296 18.2483997
201.276459 -191.825958 20.567749
201.250107 -191.680801 18.6884995
201.375 -191.7677 20.7210999
201.439407 -191.964203 20.3498993
201.499207 -191.700104 18.3715992
201.450302 -191.624298 18.6021004
201.434799 -191.720795 20.8955994
201.526505 -191.591003 18.6459007
201.667404 -191.927704 18.0806999
201.723755 -191.762848 20.5564499
201.730301 -191.534103 18.3603001
201.684906 -191.514496 18.5053997
201.916397 -192.095795 20.5014
201.801605 -191.989899 12.4372997
201.932693 -191.999207 14.8851004
201.843796 -191.900696 18.0627003
201.908401 -191.895996 18.3313999
202.085693 -191.897598 18.4848003
202.0858 -191.917603 20.3938999
202.054657 -191.733887 20.5240002
202.033005 -191.793198 20.8099995
202.321152 -191.851593 20.5045013
202.499802 -192.169006 20.2628994
202.508408 -191.608597 20.7127991
202.648102 -192.105103 20.3353996
202.760193 -191.712601 20.5203991
202.641495 -191.630905 20.8239002
202.664551 -191.490143 20.6675987
202.809006 -192.310898 20.5055008
202.929596 -191.996796 20.1860008
203.091507 -192.488495 19.6935997
203.172607 -192.197693 20.6746998
203.112701 -191.820297 20.6944008
203.109299 -191.483597 20.7618999
203.305359 -192.498993 20.3077011
203.268005 -192.190903 20.6900997
203.350998 -191.788101 20.5424004
203.244003 -191.406693 20.8409996
203.429901 -192.352905 19.2845993
203.533508 -192.314941 19.6980515
203.528 -192.127747 20.6749992
203.576202 -191.902496 20.3426991
203.527802 -191.457794 20.8479996
203.694107 -192.320007 19.3089008
203.794205 -192.006302 20.5
203.7388 -191.690598 20.3878994
203.914795 -192.325806 19.1543999
203.918304 -192.2789 20.3150997
203.963501 -192.194901 19.8195992
203.989105 -191.810394 20.3131008
203.907303 -191.794098 20.5970993
203.824097 -191.389801 20.6637001
204.093796 -192.078598 20.6424007
204.027802 -191.513 20.6233006
204.377808 -192.203201 20.4468994
204.335403 -192.144806 18.6336994
204.247101 -192.116104 18.8400993
204.349396 -192.177795 19.9619007
204.523407 -192.038101 19.8477993
204.474396 -191.759995 19.9985008
204.467804 -191.761597 20.2658997
204.765305 -191.444397 20.5121994
204.706207 -191.345306 20.7182007
204.888901 -191.843307 14.8698997
204.891205 -191.718094 20.5583992
204.889893 -191.557297 20.5995998
205.740295 -191.4048 20.3994999
205.657593 -191.296494 20.6830006
206.003799 -191.196106 20.6739998
207.532501 -194.794098 23.1380997
207.825195 -194.681793 23.6539001
207.956894 -194.525894 23.4848995
209.206299 -194.684799 21.9456005
