# .PCD v0.7 - Point Cloud Data file format
VERSION 0.7
FIELDS x y z
SIZE 4 4 4
TYPE F F F
COUNT 1 1 1
WIDTH 247
HEIGHT 1
VIEWPOINT 0 0 0 1 0 0 0
POINTS 247
DATA ascii
205.655197 -157.900696 15.0705004
205.708801 -157.471298 15.9351997
205.637299 -157.084305 11.7770004
205.746704 -157.018997 17.6851006
205.7314 -156.826904 17.0669994
205.998093 -158.270599 17.3316002
205.937103 -157.905304 14.6406002
205.835693 -157.627594 11.9166002
205.818695 -157.736404 14.7868996
205.944901 -157.270798 14.3809996
205.990601 -157.016998 14.0082998
205.874298 -157.096207 17.5983009
205.992493 -156.912399 11.6744003
205.998001 -156.894699 13.9525003
206.171906 -159.548904 18.0286999
206.186203 -159.0009 14.5073004
206.065094 -158.641098 17.6938992
206.007797 -158.6241 18.3353004
206.077499 -158.411606 17.1543007
206.099106 -157.514297 14.9611998
206.115601 -157.497192 15.2077999
206.174194 -157.542694 17.2674999
206.088593 -157.358597 14.8636999
206.009796 -157.149506 12.2356005
206.147598 -157.016296 14.7837
206.008606 -157.000702 17.7050991
206.134796 -156.821198 9.40769958
206.018494 -156.974197 12.1224003
206.063995 -156.927002 14.1615
206.181595 -156.875198 14.8290005
206.0896 -156.623199 14.7938995
206.091202 -156.547501 17.2698994
206.211899 -159.935196 16.3528996
206.299393 -159.993698 16.4484005
206.354507 -159.641693 11.3299999
206.240494 -159.601501 11.9979
206.267303 -159.723007 15.3998003
206.282303 -159.653198 16.7189007
206.209595 -159.604904 17.1786995
206.245407 -159.538406 17.7231007
206.307098 -159.227402 11.8589001
206.253403 -159.303802 12.1260004
206.238998 -159.122803 11.6014004
206.360794 -159.181 14.0657997
206.202606 -159.132599 17.9594002
206.335999 -158.958496 11.8214998
206.312897 -158.913193 12.8916998
206.2565 -158.944702 14.5819998
206.210098 -158.784103 13.0662003
206.220703 -158.644699 15.9623003
206.203293 -158.554306 10.0983
206.218994 -158.4608 11.2823
206.202393 -157.522003 9.4836998
206.324707 -157.008606 12.1629
206.2005 -156.882904 8.61240005
206.315796 -156.828003 9.01659966
206.2258 -156.960693 9.64000034
206.284607 -156.7509 9.13910007
206.241699 -156.792099 15.2873001
206.421295 -156.883102 9.13580036
206.590805 -156.737106 11.8125
206.543106 -156.779907 14.5402002
206.6474 -156.751694 9.29819965
206.605194 -156.754303 12.5201998
206.722198 -156.586807 9.87250042
206.871994 -156.663803 11.9356003
207.248398 -156.528305 12.5944004
207.6026 -156.702896 11.7967997
207.819107 -156.314606 11.5767002
208.047302 -156.569305 12.3414001
208.082001 -156.179199 11.8958998
208.100906 -154.648193 14.8597002
208.188293 -153.919296 15.7638998
208.185699 -153.607101 15.6043997
208.049301 -153.477295 16.8078995
208.346695 -156.572403 16.6952
208.244797 -156.095306 10.9632998
208.313202 -155.227402 12.0353003
208.353897 -155.198807 16.6231003
208.376099 -154.602798 12.8240995
208.288803 -154.748703 14.7030001
208.360992 -154.412399 10.5295
208.2948 -154.422394 12.4148998
208.277802 -154.5103 15.2189999
208.333099 -154.2556 13.3606997
208.360107 -154.187103 11.1566
208.3694 -154.070999 13.2255001
208.344299 -153.838303 12.1218996
208.271606 -153.871704 13.1514997
208.300995 -153.832001 15.2289
208.211197 -153.813995 16.2012005
208.339996 -153.632706 11.1945
208.303406 -153.617599 11.9224005
208.290405 -153.763199 12.4180002
208.287704 -153.744293 14.8098001
208.262802 -153.697693 17.4232006
208.213303 -153.4646 11.1464005
208.252197 -153.529007 13.8233004
208.308502 -153.567993 14.3656998
208.229004 -153.520798 15.7571001
208.239594 -153.505554 16.5468502
208.395493 -153.345596 7.87150002
208.327148 -153.332092 11.5050497
208.329102 -153.317993 14.8930998
208.358307 -153.369598 16.1123009
208.393402 -153.232193 16.2359009
208.217194 -153.261093 17.0401001
208.220901 -153.355896 17.2497997
208.3936 -153.197906 13.3311005
208.228806 -153.059998 16.9202003
208.532501 -156.452103 11.2537003
208.418106 -156.543503 14.2877998
208.506302 -156.204605 12.2988997
208.445999 -156.348206 12.6673002
208.479996 -156.070602 12.7080002
208.435303 -156.108994 15.8731003
208.569794 -155.911102 9.62800026
208.475998 -155.929596 14.7525997
208.4776 -155.776505 10.0212002
208.520905 -155.798599 11.1331997
208.538696 -155.698593 11.2684002
208.503693 -155.7612 13.0551004
208.484207 -155.727402 15.6220999
208.401505 -155.419693 12.3638
208.501007 -155.525101 13.3121996
208.512497 -155.533295 13.6372995
208.508499 -155.414505 14.1299
208.503494 -155.517899 14.3375998
208.492096 -155.585297 14.9160995
208.442902 -155.4832 15.6296997
208.468094 -155.282196 10.4059
208.408203 -155.210007 13.0895996
208.477005 -155.241302 13.8547001
208.465805 -155.148193 14.0593996
208.416 -155.194199 15.7142
208.527893 -154.841095 9.89589977
208.536301 -154.930496 14.1798
208.408203 -154.6828 11.1570997
208.465607 -154.713501 17.2154007
208.408707 -154.451401 10.4476995
208.444901 -154.467194 11.4628
208.434204 -154.301407 10.0763998
208.433701 -153.417007 12.2265997
208.464005 -153.427902 12.6808996
208.583694 -153.5047 14.7960997
208.578705 -153.228897 9.7269001
208.456894 -153.304306 10.3303003
208.475204 -153.336594 10.7959003
208.451996 -153.397705 11.0562
208.591995 -153.231995 12.6942997
208.533707 -153.328247 13.0980501
208.555496 -153.293701 13.3852997
208.581894 -153.253296 13.9693003
208.441605 -153.241501 15.3515997
208.435104 -153.290497 16.7532997
208.506393 -153.1073 11.9582005
208.548492 -153.197205 14.0080004
208.588104 -153.078094 14.6512003
208.411194 -153.199799 15.5693998
208.671005 -153.286896 11.8000002
208.649506 -153.232803 12.1136999
208.796707 -153.241699 14.5388002
208.667007 -153.282196 16.2824001
208.620804 -153.375 16.5786991
208.638 -153.163895 11.0193996
208.759598 -153.068893 12.0775003
208.779404 -153.108398 13.9287996
208.753601 -153.095993 15.4123001
208.600693 -153.066498 15.6878004
208.650299 -153.128403 16.6847992
208.662003 -153.167206 17.2126007
208.843506 -153.255997 11.5745001
208.962296 -153.223801 12.7079
208.90451 -153.255493 14.10355
208.856293 -153.264603 14.9088001
208.957993 -153.113403 11.5075998
208.996902 -153.126495 12.0986996
208.868698 -153.158905 12.3190002
209.109695 -153.266403 11.0300999
209.030304 -153.202103 11.7051001
209.072296 -153.274994 13.9625998
209.152603 -153.264404 14.1215
209.035004 -153.227005 14.8660002
209.186905 -153.021301 8.8593998
209.121002 -153.074203 9.56669998
209.191605 -153.1082 12.7396002
209.137604 -153.029694 14.4266996
209.071106 -153.093307 14.7665005
209.117493 -153.185394 14.9750996
209.195496 -153.123306 16.2747002
209.100998 -152.917603 12.6747999
209.162994 -152.900299 15.0045996
209.228195 -153.153107 12.7073002
209.242493 -152.959702 8.98349953
209.3284 -152.992798 11.3266001
209.370499 -152.927704 11.7375002
209.388702 -152.800797 14.0457001
209.292007 -152.860001 15.5328999
209.312302 -152.635696 12.1282997
209.385803 -152.678604 12.5445004
209.356796 -152.606598 14.9429998
209.469193 -152.960403 12.5796003
209.528305 -152.618301 14.4940004
209.569504 -152.696396 14.6612997
209.760498 -152.578705 12.5017004
209.904602 -152.641998 11.5882998
209.893204 -152.697098 14.0131998
209.939301 -152.672806 14.2788
209.973404 -152.570206 9.48289967
210.242996 -152.656601 11.6435003
210.274796 -152.619598 14.5896997
210.476303 -152.633102 11.4517002
210.501099 -152.486893 9.57769966
210.439301 -152.336197 13.0185003
210.7659 -152.6642 8.77939987
210.723694 -152.624802 11.6724997
210.665604 -152.718307 12.2437
210.958694 -152.491302 14.5838003
211.163498 -152.4133 9.24489975
211.014999 -152.441299 11.5222998
211.078003 -152.407593 12.6681995
211.1418 -152.572693 13.9687996
211.088501 -152.5634 14.2419004
211.945206 -152.952698 13.2277002
212.095795 -152.790695 12.6799002
212.257095 -153.054901 15.7321997
212.373093 -152.992294 12.276
212.371307 -152.842606 13.7417002
212.297699 -152.979294 15.1255999
212.268707 -152.723495 15.8062
212.456802 -153.007996 14.4780998
212.51001 -152.937592 13.9461002
212.556396 -152.897705 14.1945
212.526398 -152.870895 14.4624996
212.530396 -152.874802 16.3845997
212.512604 -152.789902 14.6055002
212.565598 -152.722107 15.8128004
212.690308 -152.912292 11.2461004
212.709702 -152.902496 12.3844995
212.75 -152.819595 12.4994001
212.709198 -152.8685 13.8038998
212.716293 -152.7939 14.9533005
212.875 -153.034897 13.6281004
212.935104 -152.412292 12.4061003
213.282898 -152.285004 14.4927998
214.085693 -152.273605 14.9094
214.427597 -152.231598 11.3107996
