# .PCD v0.7 - Point Cloud Data file format
VERSION 0.7
FIELDS x y z
SIZE 4 4 4
TYPE F F F
COUNT 1 1 1
WIDTH 1955
HEIGHT 1
VIEWPOINT 0 0 0 1 0 0 0
POINTS 1955
DATA ascii
280.030304 -318.519989 -1.27380002
280.130096 -315.878815 8.84889984
280.169891 -315.940887 9.56219959
280.198395 -315.765198 10.6956997
280.091705 -301.056702 7.49160004
280.017792 -300.87381 9.62139988
280.010101 -300.88681 15.6059999
280.198486 -300.683685 4.7256999
280.132385 -300.762604 6.15880013
280.146912 -300.770996 6.46710014
280.039093 -300.690491 8.3494997
280.387207 -315.700012 9.38640022
280.265289 -300.822601 7.30119991
280.244812 -300.710602 5.06470013
280.376587 -300.220093 -0.312599987
280.47821 -315.818512 8.31509972
280.445312 -315.564514 5.0158
280.589996 -300.861603 12.8471003
280.408295 -300.924805 14.2413998
280.425995 -300.68161 4.60879993
280.544708 -300.697205 6.75519991
280.558105 -300.76239 8.81770039
280.463409 -300.643707 16.1464005
280.493195 -300.427307 -0.815500021
280.596893 -300.592407 4.12050009
280.510712 -300.16629 0.3759
280.645599 -318.945709 -0.413800001
280.624786 -318.464111 -0.326700002
280.637787 -316.018799 14.8660002
280.664093 -316.091705 15.0883999
280.628204 -315.908112 8.16660023
280.742004 -315.804993 8.23649979
280.764496 -315.955505 12.0522003
280.764801 -315.744385 8.95510006
280.746704 -315.623901 9.94460011
280.719208 -315.546204 7.67719984
280.614594 -300.83609 9.49339962
280.655396 -300.832092 10.8150997
280.798309 -300.840393 11.4308996
280.786499 -300.811615 12.6878004
280.766815 -300.986694 13.1687002
280.607208 -300.819092 14.0457001
280.621704 -300.867798 14.5928001
280.747101 -300.982086 14.7839003
280.766693 -300.810791 15.2861996
280.730286 -300.668915 4.87979984
280.783508 -300.626007 5.48210001
280.703094 -300.653198 8.33360004
280.751801 -300.741913 10.1641998
280.702698 -300.643188 11.0746002
280.787201 -300.74881 14.3023996
280.659485 -300.7854 14.7951002
280.673706 -300.587494 15.9625998
280.754028 -300.108612 -0.111549996
280.872986 -318.708801 -0.321099997
280.804413 -318.393585 -0.788399994
280.821655 -318.264526 -0.470399976
280.906799 -318.004486 -0.271899998
280.808594 -317.780701 -0.568400025
280.85849 -317.553802 -0.922399998
280.890411 -317.556 -0.719799995
280.987488 -317.229309 -0.141599998
280.904785 -317.323303 0.0785000026
280.873199 -317.190308 -0.433800012
280.953308 -315.685211 8.54899979
280.801697 -315.770508 9.04699993
280.896393 -315.434692 7.38950014
280.928009 -301.029602 11.4590998
280.802399 -301.108185 14.0937996
280.995392 -300.847504 7.19369984
280.9758 -300.821198 10.3446999
280.938202 -300.890198 10.6672001
280.954407 -300.999908 14.5714998
280.894196 -300.928223 14.6972332
280.855835 -300.920166 14.9181995
280.99411 -300.998596 15.1729002
280.892303 -300.930542 15.2805338
280.942291 -300.648193 5.28919983
280.879486 -300.600708 6.7901001
280.941803 -300.767792 7.17689991
280.951202 -300.6651 7.63040018
280.922485 -300.700104 8.40750027
280.940308 -300.662903 8.72000027
280.923889 -300.707092 11.7825003
280.903809 -300.776093 12.2470999
280.838501 -300.77951 14.7363997
280.967194 -300.599091 4.01210022
280.927002 -300.551392 4.81799984
280.976501 -300.557312 6.97700024
281.0112 -318.758209 -0.234899998
281.06311 -318.64801 -0.196600005
281.125305 -317.661713 -0.51849997
281.182007 -317.593506 -0.381399989
281.015106 -315.729492 8.94019985
281.014709 -315.453186 5.45709991
281.111298 -301.051788 6.68219995
281.03772 -301.046204 13.9418507
281.136688 -301.199799 14.0944996
281.066895 -301.009613 15.1191998
281.123108 -300.932709 10.2481003
281.111511 -300.905396 10.4806004
281.061615 -300.945587 10.7524996
281.068787 -300.884491 11.0915003
281.056885 -300.834412 11.3908997
281.020386 -300.66571 5.1097002
281.078888 -300.760895 10.1042004
281.115906 -300.650696 12.1029997
281.035187 -300.783997 13.0816002
281.145905 -300.471588 0.191799998
281.066956 -300.354156 0.684649944
281.227295 -318.944611 -0.551100016
281.314087 -318.467499 -0.443699986
281.333588 -318.240997 -0.185900003
281.285614 -318.197693 -0.372399986
281.292206 -317.064789 0.413500011
281.238708 -300.943604 10.5444002
281.285889 -300.769409 4.15840006
281.347809 -300.586304 5.44239998
281.273193 -300.590393 9.16020012
281.501007 -318.278198 -0.774399996
281.560211 -315.609711 5.0783
281.56131 -315.713196 12.5268002
281.544403 -300.803192 4.4454999
281.585785 -300.974609 10.8532
281.453705 -300.924011 11.1077995
281.428314 -300.840607 11.8613005
281.455505 -300.9021 14.8015003
281.562408 -300.730713 8.46409988
281.551086 -300.667511 12.7564001
281.457794 -300.796906 14.9628
281.584412 -300.671509 15.4303999
281.4664 -300.552704 5.70510006
281.531494 -300.546906 8.81389999
281.459106 -300.501099 9.54899979
281.464111 -300.593414 12.1046
281.649902 -315.977203 9.83870029
281.755615 -315.656311 7.97870016
281.634186 -315.698486 11.7874002
281.753601 -315.515106 5.12349987
281.640198 -300.818695 10.9863005
281.638214 -300.831909 11.3853998
281.725708 -300.803497 13.3463001
281.748352 -300.842529 15.0844994
281.612915 -300.748993 4.51739979
281.737488 -300.614197 4.64340019
281.707611 -300.703705 7.94439983
281.730194 -300.671295 11.1970997
281.631012 -300.618896 12.2565002
281.61499 -300.691895 13.0414
281.778687 -300.791809 14.3850002
281.677704 -300.773621 14.4704494
281.762695 -300.756592 14.6329002
281.716095 -300.766693 15.1302996
281.702789 -300.562103 5.74009991
281.639404 -300.556396 6.53200006
281.662598 -300.572113 8.62660027
281.751709 -300.538605 9.55690002
281.717896 -300.55719 9.6651001
281.999603 -316.360992 13.2205
281.957001 -315.965851 9.87909985
281.975311 -315.996399 10.2059002
281.980591 -315.911102 13.0621996
281.876007 -315.441711 4.51109982
281.997314 -315.507202 5.94040012
281.984314 -315.536499 8.31729984
281.842407 -315.594299 12.5052004
281.949097 -300.701202 11.3084002
281.830994 -300.786987 11.8050003
281.982208 -300.632111 13.2042999
281.842804 -300.676208 14.6669998
281.858612 -300.777802 15.2440996
281.93811 -300.494995 5.2519002
281.976288 -300.544006 8.14789963
281.843994 -300.510315 9.88739967
281.910187 -300.506744 15.7255001
281.809296 -300.323395 9.60130024
282.050507 -316.273285 13.5255003
282.174805 -316.021393 9.92249966
282.109314 -316.033813 10.1618996
282.031799 -316.037109 13.4272003
282.119904 -316.000092 15.2784004
282.046692 -315.902802 9.59939957
282.193298 -315.854401 9.65299988
282.105011 -315.949585 9.90610027
282.09259 -315.962311 13.6725998
282.05069 -315.767212 6.53539991
282.196991 -315.630615 8.0923996
282.065796 -315.74939 13.3536997
282.053101 -315.533203 7.2407999
282.158508 -315.528198 9.37870026
282.025909 -315.58371 9.95119953
282.104095 -315.573608 10.1808004
282.044586 -300.86319 14.1254997
282.040802 -300.775391 11.1500998
282.041595 -300.760498 12.9779997
282.016998 -300.619812 15.7329998
282.170105 -300.50119 0.2315
282.164215 -300.477509 5.97529984
282.099915 -300.522614 6.54180002
282.082794 -300.48349 6.79029989
282.030701 -300.486786 8.49960041
282.133514 -300.569092 8.66650009
282.030914 -300.568909 8.85890007
282.18689 -300.553986 12.4091997
282.11441 -300.330994 5.46000004
282.385986 -315.824188 6.50439978
282.290497 -315.855591 6.70480013
282.277344 -315.93866 6.86205006
282.370697 -315.773712 3.18319988
282.356812 -315.719513 3.76469994
282.370209 -315.718414 6.81419992
282.247284 -315.718536 10.0563002
282.270599 -315.609192 11.4209003
282.284302 -315.410187 3.79620004
282.235687 -315.434296 6.16650009
282.346985 -315.493896 6.59009981
282.263702 -315.482605 7.33415031
282.335999 -315.4617 8.0777998
282.276703 -315.504486 10.3317003
282.212006 -315.379211 6.98799992
282.204102 -300.683289 10.9146004
282.257812 -300.744385 11.2474003
282.233795 -300.747986 13.8071003
282.246399 -300.630493 15.2223997
282.322693 -300.448608 5.31379986
282.214111 -300.479889 6.09110022
282.263794 -300.594604 8.54349995
282.302094 -300.444092 12.7334003
282.256714 -300.474792 15.6445999
282.37439 -300.475311 15.8571997
282.22699 -300.303314 6.64550018
282.4375 -315.668915 3.59990001
282.477386 -315.495697 0.259200007
282.400299 -315.542694 6.1164999
282.562714 -315.461395 8.27280045
282.476593 -315.437897 8.78730011
282.539001 -315.289093 3.63549995
282.526703 -315.303802 3.97819996
282.580505 -315.130707 3.61190009
282.571808 -300.428497 4.76090002
282.544403 -300.404205 8.56470013
282.595612 -300.465393 9.11190033
282.445801 -300.537201 9.38140011
282.4823 -300.572693 11.1948996
282.528381 -300.281433 5.53014994
282.407196 -300.276886 5.97809982
282.498505 -300.231689 15.7242002
282.480408 -300.175415 5.23500013
282.782104 -315.610596 11.9333
282.797699 -315.492798 -0.53670001
282.780701 -315.469299 9.20049953
282.650513 -315.524506 9.84370041
282.668793 -315.443787 10.1760998
282.612701 -315.368286 6.00290012
282.773804 -315.3815 7.90630007
282.611115 -300.623505 4.67010021
282.604889 -300.577209 12.2219
282.701599 -300.475891 12.4005003
282.681 -300.489288 13.1743002
282.656311 -300.516815 14.4955997
282.729614 -300.257111 5.78739977
282.633392 -300.324188 6.45919991
282.723602 -300.212006 6.69119978
282.647888 -300.36441 12.3640003
282.698608 -300.213196 15.7966995
282.748291 -300.029297 -0.477400005
282.768799 -300.158508 10.0901003
282.716492 -300.041809 13.5622997
282.745789 -300.054688 13.8241997
282.951691 -315.849213 0.134000003
282.947388 -315.650513 -0.608099997
282.820251 -315.432129 8.83480072
282.82019 -315.422394 10.1675997
282.968109 -315.588287 12.6313
282.9422 -315.351288 5.95100021
282.843109 -315.2995 7.37139988
282.918488 -315.361115 8.69320011
282.968109 -315.216003 9.33080006
282.850586 -300.476593 6.21159983
282.803894 -300.487793 8.98530006
282.836304 -300.513489 9.76749992
282.890198 -300.400299 10.0983
282.889099 -300.591705 14.1597996
282.873596 -300.429413 14.3867998
282.894531 -300.513397 14.5380001
282.845306 -300.445892 15.6576004
282.960297 -300.252899 5.63640022
282.932007 -300.304291 5.86269999
282.911713 -300.380402 7.76490021
282.892212 -300.294586 8.30500031
282.937408 -300.373993 8.74139977
282.817413 -300.341705 9.31410027
282.940308 -300.375793 9.99549961
282.808685 -300.342712 15.8224001
282.915802 -300.151093 4.0316
282.940704 -300.082001 6.7494998
282.875702 -300.038513 13.7874002
282.868591 -300.038696 13.9321003
283.15741 -316.295288 -0.56400001
283.113312 -316.239197 -0.290199995
283.103912 -316.247192 0.176100001
283.074005 -316.050415 -0.599399984
283.070709 -316.039001 -0.343300015
283.077393 -316.015686 -0.185399994
283.013214 -315.888 -0.819299996
283.001587 -315.868591 -0.726499975
283.113007 -315.613403 13.7010002
283.06369 -315.57431 12.9631004
283.161407 -315.407196 13.7639999
283.168793 -315.514801 14.3123999
283.039612 -315.225006 5.76609993
283.117798 -315.240601 6.03970003
283.085602 -300.410492 11.4317999
283.096008 -300.323303 8.21700001
283.086761 -300.375427 11.0978498
283.153412 -300.328888 12.7233
283.15979 -300.368591 12.8309002
283.159912 -300.036194 -0.0776000023
283.147186 -300.122192 0.00730000017
283.093262 -300.123657 4.5687499
283.065094 -300.124451 4.86660004
283.050507 -300.179199 10.4289999
283.363586 -315.218689 5.29729986
283.227509 -315.296906 6.68769979
283.295807 -315.292511 9.17490005
283.339386 -315.392212 9.37790012
283.311188 -315.340515 9.71809959
283.219788 -315.240997 10.4053001
283.305389 -315.243591 11.0415001
283.307098 -315.357697 11.2901001
283.280609 -315.324493 11.5725002
283.292114 -315.283905 13.4865999
283.278687 -315.334412 13.6288996
283.224304 -315.302002 14.0241003
283.350708 -315.194214 7.0770998
283.301697 -315.116394 9.96510029
283.34729 -315.173706 10.5887003
283.354004 -315.179901 11.3842001
283.381989 -300.429291 13.0389996
283.238495 -300.576111 13.3212996
283.379211 -300.407288 15.1246004
283.288605 -300.283203 5.79090023
283.294403 -300.225311 6.02150011
283.356812 -300.338196 11.9617004
283.300507 -300.356384 12.1393995
283.296387 -300.384399 13.1623001
283.31781 -300.338593 13.6590996
283.234894 -300.2789 15.7627001
283.290344 -300.133972 6.69665003
283.297913 -300.125 10.1589003
283.355896 -300.074646 10.2975998
283.368591 -300.075592 10.5046997
283.243103 -300.070892 12.6239996
283.290161 -300.151215 13.7046995
283.283905 -300.02829 13.8508997
283.510712 -315.213013 5.04960012
283.4198 -315.243103 6.53849983
283.424652 -315.254791 7.5065999
283.500366 -315.332581 11.5396004
283.539795 -315.022156 3.31269979
283.5672 -315.040405 3.75110006
283.493286 -315.155609 4.07800007
283.571198 -315.1698 4.99590015
283.57959 -315.174988 5.11439991
283.531403 -315.047607 6.95889997
283.486511 -315.071686 7.64559984
283.528687 -315.126892 7.94140005
283.575409 -314.837799 3.31680012
283.463196 -314.994385 6.43389988
283.571594 -300.420013 12.1216002
283.456085 -300.234192 5.12370014
283.587708 -300.233307 5.50279999
283.436707 -300.340607 8.96140003
283.591003 -300.221191 9.17640018
283.529114 -300.245392 10.1688995
283.544708 -300.215088 10.3598003
283.451385 -300.285492 11.1192999
283.463409 -300.373413 13.0017996
283.514404 -300.295349 13.5425997
283.478394 -300.072601 -0.407700002
283.433594 -300.099701 4.54489994
283.448303 -300.123199 4.64830017
283.4133 -300.089905 6.69740009
283.660797 -315.244995 5.19220018
283.708191 -315.251587 6.15670013
283.617188 -315.064789 4.91520023
283.627502 -315.141113 5.97580004
283.741302 -315.016815 7.97170019
283.690002 -314.805603 0.968900025
283.657501 -314.984497 4.37489986
283.662506 -314.882202 4.41470003
283.619598 -314.985107 7.21640015
283.747803 -300.446991 15.2908001
283.601196 -300.229706 8.48789978
283.779388 -300.246094 8.8448
283.63324 -300.270844 9.51640034
283.623901 -300.244812 9.67420006
283.796112 -300.303711 12.1768999
283.794891 -300.207397 13.7538004
283.612915 -300.167389 5.61170006
283.740204 -300.144012 10.0194998
283.7883 -300.090088 12.2318001
283.692108 -300.083801 14.7017002
283.995697 -315.254486 11.3394003
283.999207 -315.143097 5.60349989
283.981903 -314.9953 6.49849987
283.997406 -300.251709 11.8803997
283.949585 -300.235809 13.3015003
283.913788 -300.3237 14.6799002
283.996399 -300.204407 15.6740999
283.989014 -300.050812 10.3760996
283.984619 -300.074402 10.5309
283.911438 -300.081116 11.0986004
283.921509 -300.004089 11.2101002
283.95929 -300.137695 11.4931002
283.965088 -300.148895 12.0925999
283.986786 -300.135193 13.1744003
283.922791 -300.107086 13.2799997
283.839386 -300.178589 13.6080999
283.807098 -300.125885 14.1316004
283.940796 -300.162903 15.1913004
283.898193 -300.137604 15.5458498
284.170502 -316.520691 1.96689999
284.169495 -315.419006 15.0362997
284.083191 -315.28949 0.227599993
284.057587 -315.231293 0.944500029
284.1185 -315.372009 15.0458002
284.017212 -315.18219 8.46879959
284.192902 -314.990906 8.04199982
284.136108 -300.225586 9.85579967
284.029694 -300.21991 10.7018995
284.118286 -300.224091 10.8176003
284.03891 -300.299103 11.6966
284.043335 -300.287109 12.9187498
284.065491 -300.291595 13.0813999
284.080414 -300.23291 13.2631998
284.048004 -300.2565 13.7707996
284.137695 -300.221985 14.8873997
284.039703 -300.0354 4.07390022
284.173492 -300.006989 5.51329994
284.018707 -300.115204 7.59450006
284.19809 -300.021301 8.26099968
284.124207 -300.019989 8.64089966
284.145111 -300.15921 9.16489983
284.112701 -300.090057 9.4836998
284.130554 -300.048798 10.1220999
284.089386 -300.108307 10.9429998
284.147095 -300.135559 11.09865
284.117096 -300.118591 11.3401003
284.07959 -300.073395 11.7549
284.071594 -300.193115 11.9104996
284.088287 -300.125 12.2763004
284.01062 -300.137573 12.5373497
284.008789 -300.0914 12.8554497
284.109192 -300.094604 13.1258001
284.073212 -300.152588 13.9559002
284.241791 -315.058502 5.10519981
284.291687 -315.147797 8.58460045
284.309509 -315.168701 9.24170017
284.225494 -314.988495 7.46290016
284.261414 -314.908508 8.0880003
284.264313 -300.258301 9.75080013
284.261688 -300.200287 11.8991003
284.285187 -300.273407 13.6841002
284.30365 -300.279663 14.6943998
284.376007 -300.280487 15.1169004
284.362915 -300.264191 15.6616001
284.291809 -300.11908 5.17109966
284.286591 -300.085602 5.40509987
284.308594 -300.033447 7.13735008
284.311798 -300.157715 7.56029987
284.339294 -300.051208 8.17370033
284.23291 -300.035706 8.69169998
284.264313 -300.085388 9.39070034
284.328888 -300.186096 10.3860998
284.279114 -300.123199 10.7126999
284.215515 -300.141998 11.1677999
284.267395 -300.162292 12.9336004
284.346588 -300.065887 13.9771996
284.571289 -315.218597 12.2658997
284.409607 -315.028595 11.4698
284.422394 -300.227814 11.3648996
284.494293 -300.233185 11.7035999
284.581696 -300.231903 13.8198996
284.451294 -300.214386 14.8563004
284.524109 -300.2229 15.0976
284.585602 -300.036591 4.15500021
284.492615 -300.069092 4.61829996
284.487 -300.118805 5.10769987
284.508301 -300.0448 6.4355998
284.412689 -300.015289 6.80919981
284.485809 -300.113403 7.46579981
284.475708 -300.196991 7.84210014
284.521606 -300.1026 10.7959003
284.522888 -300.126953 11.0472498
284.44339 -300.114807 11.3605003
284.40802 -300.088257 11.7110996
284.57019 -300.061096 11.9726
284.444214 -300.182007 12.4029999
284.447906 -300.088593 13.5713997
284.577209 -300.139801 14.1625004
284.583099 -300.030792 14.7860003
284.710388 -315.621887 1.98969996
284.685303 -315.08371 5.99170017
284.651489 -315.08429 8.92300034
284.668304 -315.177307 12.0644999
284.740997 -300.442505 14.1480999
284.768005 -300.458801 14.7433996
284.77356 -300.340851 11.0436993
284.643494 -300.207489 12.7273998
284.685577 -300.259644 13.3194332
284.697296 -300.305511 13.6021996
284.753052 -300.35144 13.9151001
284.613708 -300.22049 14.0788002
284.780212 -300.270203 14.3795996
284.605499 -300.311401 14.6801996
284.720612 -300.239288 15.1863003
284.717102 -300.244293 15.2911997
284.636414 -300.025299 4.70419979
284.690704 -300.054596 6.87809992
284.744598 -300.016388 7.27180004
284.776489 -300.158997 7.83440018
284.768494 -300.068909 8.28359985
284.795685 -300.066406 8.69960022
284.677948 -300.103241 9.42070007
284.660095 -300.081696 9.64540005
284.661285 -300.123199 10.7237997
284.764587 -300.121796 10.9166002
284.663391 -300.125183 11.3167496
284.719604 -300.107605 11.6949997
284.773712 -300.122589 12.0868998
284.780792 -300.139099 12.3341999
284.780212 -300.125214 12.4379997
284.612091 -300.135803 12.7271996
284.60611 -300.191589 13.6271
284.641205 -300.111206 14.4903002
284.889893 -315.181396 12.0880003
284.914886 -314.90451 5.76609993
284.822906 -314.977814 5.94229984
284.862305 -314.976501 6.05810022
284.882507 -300.412689 13.8732004
284.823669 -300.481873 15.16325
284.907806 -300.429352 15.2627001
284.903687 -300.212006 3.73340011
284.901489 -300.297089 7.02220011
284.952789 -300.285797 7.33029985
284.979401 -300.208893 7.84049988
284.919373 -300.219147 8.30655003
284.899414 -300.255798 8.43959999
284.894958 -300.275818 10.6382999
284.826813 -300.256897 10.8379002
284.815002 -300.251831 11.1139507
284.977112 -300.347992 14.0571003
284.937317 -300.282654 14.4971008
284.804688 -300.255707 14.8046999
284.967712 -300.3349 15.4131002
284.88208 -300.068726 4.86139965
284.923187 -300.01651 5.32919979
284.86319 -300.12149 7.12949991
284.835876 -300.109375 7.53925037
284.828644 -300.122925 7.69715023
284.834015 -300.094696 7.90969992
284.898102 -300.072693 8.05720043
284.879547 -300.134094 8.24550056
284.828308 -300.079498 8.50800037
284.9599 -300.092102 8.90970039
284.953796 -300.029602 9.50259972
284.8396 -300.148407 9.76490021
284.805115 -300.054688 9.84630013
284.829712 -300.160797 11.5269003
284.986389 -300.091492 12.1252003
284.811096 -300.056702 12.7719002
284.875 -300.167389 13.3268995
285.157104 -315.024811 -0.693300009
285.172089 -315.084503 -0.457599998
285.112793 -315.114594 0.526199996
285.099213 -315.048004 0.69749999
285.114685 -315.036804 0.874300003
285.076202 -315.002899 9.22859955
285.108704 -314.935303 -0.379299998
285.046509 -314.879913 5.39099979
285.105713 -314.997803 6.04190016
285.19101 -314.979889 8.68319988
285.028595 -314.678802 1.0575
285.114197 -300.27887 4.08345032
285.097687 -300.347809 4.25579977
285.040802 -300.289886 7.29090023
285.085602 -300.339203 8.14449978
285.065796 -300.252197 8.42020035
285.1922 -300.227112 8.60700035
285.108093 -300.295105 11.1801004
285.009308 -300.26709 11.2863998
285.189911 -300.251312 11.4042997
285.080994 -300.205505 12.3736
285.026093 -300.298492 14.8978996
285.071686 -300.305511 15.1268501
285.173615 -300.070404 3.59570003
285.02771 -300.126099 4.05564976
285.124695 -300.144501 4.50839996
285.17981 -300.126892 4.63409996
285.055359 -300.082977 5.14296675
285.042786 -300.038208 5.55019999
285.087982 -300.04068 8.69203281
285.052185 -300.082092 9.62699986
285.076111 -300.11319 9.94320011
285.077515 -300.0336 11.0299997
285.113586 -300.126495 12.3185997
285.030396 -300.102295 13.1276999
285.131805 -300.184509 15.0208998
285.18869 -300.107788 15.6444998
285.33551 -315.426605 9.75339985
285.323608 -315.481903 13.1197004
285.237305 -315.013214 7.71630001
285.274811 -315.0159 8.56040001
285.221405 -315.052795 9.06830025
285.347198 -315.053314 9.25329971
285.283691 -314.862366 5.47335005
285.370392 -314.934296 8.33769989
285.297913 -314.913391 8.5376997
285.374512 -314.972198 8.98709965
285.258789 -306.873108 2.34689999
285.200592 -300.385895 4.45569992
285.293915 -300.360687 10.9692001
285.368286 -300.249207 11.3041
285.260101 -300.038208 9.74284935
285.304688 -300.082001 10.0671997
285.335297 -300.167389 10.4830999
285.224091 -300.048798 12.4214001
285.392395 -300.11261 14.4438
285.334991 -300.049713 15.6464005
285.563782 -315.478333 10.0808506
285.435486 -314.914612 6.52740002
285.500061 -314.904663 7.52429962
285.571411 -314.876099 7.6402998
285.586609 -314.900208 8.31029987
285.501587 -314.961761 8.50024986
285.450897 -314.864685 8.69649982
285.595886 -314.79129 4.72240019
285.418396 -300.406586 7.80289984
285.40799 -300.227112 7.96950006
285.416199 -300.389008 14.4773998
285.579803 -300.059692 4.58059978
285.519409 -300.029602 8.21730042
285.453613 -300.089111 8.75185013
285.440491 -300.057892 9.41399956
285.427002 -300.089203 11.5944004
285.565491 -300.011292 13.1231003
285.526398 -300.104095 14.4758997
285.509399 -300.180298 14.8727999
285.540802 -300.0047 15.6413002
285.77829 -315.426605 10.0176001
285.634705 -315.348114 6.84700012
285.725403 -315.381012 9.88609982
285.702789 -315.371185 13.3780003
285.77771 -315.170197 6.54500008
285.729401 -315.004303 12.3867998
285.7547 -315.053497 12.6995001
285.630493 -315.101593 13.5679998
285.796814 -315.111786 15.0059996
285.653595 -314.808105 4.59919977
285.784393 -314.816803 6.00979996
285.716095 -314.949585 6.31879997
285.783997 -314.977203 8.98729992
285.705811 -314.879303 9.07159996
285.600098 -300.220306 11.7124996
285.772858 -300.242676 15.2750998
285.72641 -300.317413 15.4594002
285.64621 -300.189514 4.33440018
285.655212 -300.035889 5.2947998
285.721893 -300.045288 6.88409996
285.638794 -300.087494 7.92600012
285.605988 -300.014008 10.2927999
285.796204 -300.172791 11.8668003
285.622803 -300.137085 13.6582003
285.792908 -300.086395 13.9750004
285.602509 -300.183197 15.2608004
285.80481 -315.293488 6.6880002
285.84201 -315.2995 9.79329967
285.855713 -315.375885 10.0761995
285.92981 -315.199707 9.96150017
285.994202 -315.050995 13.5468998
285.884796 -315.107391 14.2257996
285.990997 -315.186493 15.3493996
285.897339 -314.839539 7.9289999
285.907013 -300.246796 13.6647997
285.876709 -300.256287 15.2489996
285.967712 -300.004395 8.76029968
285.994202 -300.055115 11.1261997
285.926086 -300.091492 11.4872999
285.865601 -300.0224 12.5593004
285.832489 -300.098694 13.9728003
285.876495 -300.15979 14.5876999
285.80835 -300.069519 14.6686497
285.967407 -300.114197 14.8695002
285.822205 -300.099701 15.3266001
285.835388 -300.041687 15.6583996
286.17691 -316.541412 -0.718900025
286.168488 -315.251312 -1.22510004
286.150513 -315.201691 -0.892099977
286.020294 -315.232605 10.0046997
286.051514 -315.301514 15.3094997
286.169312 -315.201111 15.4105997
286.182709 -315.075104 3.8131001
286.07309 -315.029388 11.6990004
286.071198 -314.837402 -1.11059999
286.116089 -314.964813 3.49440002
286.014313 -314.830292 6.37090015
286.091797 -314.990204 6.65859985
286.093994 -314.828186 7.24760008
286.058197 -314.80191 7.66179991
286.064789 -314.821198 7.95170021
286.154602 -314.817108 8.19610023
286.104797 -314.857513 8.56359959
286.044495 -314.945587 11.2279997
286.012207 -314.76181 4.20749998
286.053894 -314.765289 4.87470007
286.188293 -314.660889 5.65290022
286.046906 -314.682587 8.18980026
286.11319 -300.13739 6.97830009
286.048492 -300.072296 7.58360004
286.146088 -300.1427 7.64449978
286.108551 -300.059326 8.06484985
286.179199 -300.077911 11.3649998
286.110596 -300.101288 11.8655005
286.034088 -300.125397 13.9338999
286.38501 -316.322388 -0.839100003
286.322205 -316.020386 -0.719799995
286.31601 -315.818207 -0.875699997
286.372406 -315.94101 -0.765900016
286.26059 -315.146912 15.3634005
286.226501 -314.91449 8.02110004
286.331207 -314.912689 9.78750038
286.249115 -314.998108 9.82339954
286.309692 -314.769196 14.9982996
286.264496 -300.119202 11.6304998
286.240112 -300.005096 15.1712999
286.592712 -315.629913 2.03929996
286.418213 -315.041687 2.00489998
286.443695 -315.145294 10.1316004
286.479095 -314.978485 1.8125
286.567505 -314.973907 2.08669996
286.546814 -314.914917 2.3361001
286.505188 -314.932312 14.1337004
286.539795 -314.644226 3.87984991
286.422211 -314.750305 5.09079981
286.567078 -314.74939 6.37465
286.421906 -314.790314 8.07789993
286.565796 -314.792114 9.30749989
286.714386 -316.085602 2.05060005
286.665314 -315.902496 1.76429999
286.709503 -315.249115 10.3528004
286.642609 -315.042603 2.24289989
286.78479 -315.11499 10.0077
286.721191 -314.875885 6.41660023
286.623413 -314.639404 5.66709995
286.770386 -314.655487 7.96010017
286.773193 -314.696594 8.39179993
286.683502 -306.703705 2.40050006
286.860596 -315.047699 6.76109982
286.83371 -314.692291 8.06700039
287.083344 -315.013397 7.08860016
287.088715 -315.144897 10.1863003
287.099396 -315.010193 10.2715998
287.049683 -315.042358 10.5633001
287.191986 -314.978699 6.45249987
287.052307 -314.949005 6.72849989
287.096008 -314.903107 10.4392004
287.031403 -314.857239 14.8787498
287.017303 -314.709106 6.31400013
287.165497 -314.704315 6.48659992
287.172699 -314.615601 7.65240002
287.051605 -314.756012 11.6880999
287.041199 -314.642914 14.0360003
287.022797 -314.532288 3.87190008
287.07901 -314.542175 4.89545012
287.13739 -314.566895 5.36219978
287.273102 -314.821808 6.96549988
287.380096 -314.932587 15.0047998
287.202301 -314.683289 6.69519997
287.248505 -314.622498 8.10169983
287.272705 -314.702698 8.30500031
287.361298 -314.465302 3.28320003
287.304413 -314.571808 6.83500004
287.2789 -314.560242 7.53559971
287.269409 -314.467407 7.95590019
287.2995 -314.412415 8.13930035
287.354706 -314.436401 8.21940041
287.275299 -314.565613 9.80319977
287.231903 -314.42749 10.5831003
287.298828 -314.479095 10.91255
287.383911 -314.285004 4.55130005
287.271912 -314.356506 6.49889994
287.326996 -314.366913 7.70020008
287.375397 -314.089294 3.48690009
287.368805 -314.119507 3.69000006
287.434692 -314.400208 0.64410001
287.404205 -314.414398 1.09350002
287.512512 -314.507507 5.39109993
287.576111 -314.444702 6.15140009
287.545288 -314.443604 10.8681002
287.592896 -314.476105 11.5992002
287.47879 -314.313782 7.65280008
287.5979 -314.002594 6.92700005
287.700409 -316.200195 -1.39139998
287.714844 -316.128418 -1.49724996
287.770905 -315.919403 -1.05680001
287.769501 -315.857513 -0.881699979
287.722412 -315.640991 -0.961099982
287.705688 -315.447296 -0.980199993
287.733185 -315.339111 -1.3592
287.710297 -315.321198 -1.05190003
287.783691 -314.697113 8.54269981
287.784607 -314.724487 11.9221001
287.647614 -314.422913 8.32330036
287.797089 -314.2117 7.80249977
287.876312 -315.647614 -1.46500003
287.885101 -315.798187 -1.29939997
287.866211 -315.578491 -1.26750004
287.933594 -314.892609 15.4951
287.929504 -314.612091 9.52210045
287.897797 -314.674988 12.2909002
287.991486 -314.427399 5.4921999
287.805115 -314.476013 5.9689002
287.819 -314.552399 6.2052002
287.9552 -314.536713 9.13049984
287.917297 -314.560608 9.56309986
287.983093 -314.54361 9.67020035
287.952209 -314.398804 5.54370022
287.816711 -314.319397 6.80900002
287.841492 -314.387207 7.31209993
287.872711 -314.157806 4.42140007
288.172211 -314.402893 5.5019002
288.02179 -314.41629 5.76900005
288.0867 -314.433594 6.07600021
288.194305 -314.457886 11.6659002
288.130096 -314.367401 5.89370012
288.068604 -314.378387 6.29820013
288.218903 -314.833099 12.4521999
288.341309 -314.489502 9.11699963
288.357697 -314.338898 5.58440018
288.3974 -314.317902 5.71579981
288.307587 -314.371887 6.20469999
288.259888 -314.379211 8.38720036
288.382294 -314.243011 10.559
288.472412 -315.371796 -1.56949997
288.530792 -315.024109 12.7323999
288.572998 -314.560913 12.0366001
288.533112 -314.387787 6.09019995
288.498413 -314.208008 6.85580015
288.587891 -314.388306 8.84430027
288.5354 -314.11731 4.79139996
288.463745 -314.092468 7.28285027
288.656891 -314.94101 12.7707005
288.690613 -314.543793 9.42870045
288.691895 -314.483307 11.9820995
288.659485 -314.591187 12.7121
288.760315 -314.212311 5.18499994
288.705505 -314.3302 6.69740009
288.771393 -301.040802 15.9709997
288.963287 -315.351196 -1.68400002
288.996704 -315.185913 -1.66009998
288.990204 -315.156189 -1.4052
288.921814 -315.139008 -1.25269997
288.916687 -315.059601 15.4829998
288.95871 -314.372498 -1.43959999
288.871613 -314.3638 -1.18859994
288.920013 -314.233398 5.56799984
288.844849 -314.263794 5.76675034
288.855804 -314.309204 5.99469995
288.849487 -314.266815 6.47940016
288.879913 -314.270996 6.61880016
288.843811 -314.326111 15.2254
289.174011 -314.316101 6.2427001
289.182587 -314.291992 6.69850016
289.150299 -314.174896 5.38920021
289.187103 -306.878906 2.46239996
289.324402 -314.486298 12.3922997
289.243011 -314.263092 5.9849
289.280701 -314.291199 7.38450003
289.291809 -314.1875 7.26739979
289.234894 -307.006989 2.46339989
289.507812 -316.680786 -1.07609999
289.493805 -316.518585 -1.07710004
289.510986 -315.85141 -1.06910002
289.596802 -314.401093 12.9105997
289.561005 -314.596405 14.8409996
289.431213 -314.275604 6.9078002
289.437195 -314.279205 7.74959993
289.721191 -316.686798 -1.38039994
289.687195 -316.343903 -1.61819994
289.633698 -316.284302 -1.11759996
289.60791 -316.126007 -1.30669999
289.641602 -315.947388 -1.47449994
289.691406 -314.474487 10.1441002
289.633087 -314.453094 11.3729
289.699493 -314.439911 12.04
289.71759 -314.281799 6.1782999
289.759796 -314.361298 7.77799988
289.60141 -314.358612 8.58650017
289.746307 -314.272308 8.94250011
289.768494 -314.255096 9.05179977
289.733459 -314.367615 9.89920044
289.636108 -314.289703 11.4798002
289.882599 -314.648804 15.4790001
289.894806 -314.466797 5.54500008
289.877014 -314.516907 5.63240004
289.898285 -314.242889 6.67479992
289.804108 -314.277313 7.02990007
289.916687 -314.207886 8.50749969
289.844696 -314.300598 9.51910019
289.800201 -314.335785 12.9688997
289.995209 -314.166107 2.09139991
289.912994 -314.173889 4.33769989
289.921692 -314.18219 5.08729982
289.838409 -314.161499 6.06470013
289.898499 -314.167297 7.48699999
289.994995 -314.197906 11.1231003
290.013855 -314.322815 2.03534985
290.122101 -314.282715 9.62709999
290.150696 -314.210114 10.9813995
290.098389 -314.232513 11.7475996
290.023193 -314.061188 0.734600008
290.095306 -314.087097 6.15210009
290.143707 -314.057312 6.21869993
290.136536 -314.15274 8.75094986
290.189087 -314.167389 9.75380039
290.029205 -313.954102 5.53200006
290.269104 -314.015289 5.0697999
290.259888 -314.00351 5.67439985
290.304291 -314.1091 7.56899977
290.280212 -314.126587 7.84950018
290.323608 -306.378906 2.31890011
290.524597 -314.562805 10.1216002
290.513702 -314.465302 13.3322001
290.439606 -314.56311 15.5107002
290.53949 -314.354492 6.42019987
290.592285 -314.240906 10.0446997
290.449646 -314.075623 6.69210005
290.497803 -314.086304 8.49050045
290.541077 -314.108337 8.96100044
290.5047 -314.188904 13.2107
290.557495 -313.969788 5.21099997
290.583801 -313.989807 6.59210014
290.623596 -314.796509 13.4329996
290.683594 -314.625793 13.7037001
290.619995 -314.679596 13.8157997
290.615387 -314.432007 10.0481997
290.719788 -314.336609 6.72279978
290.618103 -314.035889 5.85739994
290.619598 -314.009094 8.2446003
290.677399 -314.189392 12.7435999
290.671204 -313.814697 1.28170002
290.719208 -313.94281 8.23600006
290.81311 -314.664215 13.7726002
290.955414 -314.507111 13.8994999
290.90509 -314.354675 6.69225025
290.866791 -314.29541 14.9844999
290.947693 -314.38681 15.5709
290.929138 -314.069031 6.49989986
290.844696 -314.158295 8.41580009
290.819 -314.163788 10.2552004
290.98761 -314.075714 12.2819004
290.866394 -314.132599 13.6295004
290.840393 -314.129608 14.4125996
290.923004 -314.054901 14.7880001
290.829712 -314.115997 14.8114996
290.989014 -314.189606 15.4673004
290.812195 -313.813904 2.65030003
290.9776 -313.954193 6.56209993
290.957306 -313.650787 10.6363001
290.875305 -313.728912 13.9168997
291.009399 -314.559692 13.8978004
291.18631 -314.48941 15.5618
291.059814 -314.3992 15.5257998
291.083588 -314.173309 7.11079979
291.175995 -313.967987 4.92269993
291.025909 -313.862701 5.18620014
291.020996 -313.895111 5.81650019
291.121857 -313.963928 6.87713337
291.184814 -313.888794 7.24350023
291.154297 -313.815094 7.45730019
291.070892 -313.938812 8.14360046
291.089691 -313.922485 11.8703003
291.024292 -313.947998 14.5508003
291.159912 -313.792114 6.46680021
291.166595 -313.659851 7.67735004
291.31839 -313.860687 0.103100002
291.293304 -313.8927 5.80344963
291.271088 -313.975403 15.0063
291.275513 -313.691193 0.131099999
291.314301 -313.751495 0.234400004
291.315704 -313.728485 0.629700005
291.272003 -313.689148 0.96724999
291.281891 -313.652588 1.49479997
291.279388 -313.40271 0.702700019
291.277191 -313.519806 1.38520002
291.447906 -314.063812 9.31509972
291.541687 -314.006805 15.2059002
291.44931 -313.82901 5.84320021
291.5578 -313.837708 6.31209993
291.578796 -313.898499 8.74279976
291.400909 -313.983398 8.85219955
291.545807 -313.985199 9.38000011
291.469086 -313.792908 6.59110022
291.494507 -313.739288 8.28660011
291.472992 -313.486603 4.84899998
291.774414 -313.925598 9.8100996
291.786011 -313.8638 14.4125004
291.7099 -313.767487 1.89600003
291.701385 -313.671692 2.52920008
291.632294 -313.65451 8.27649975
291.781097 -313.549194 6.91590023
291.640686 -300.618713 15.7556
291.886993 -314.046692 15.4832001
291.923401 -313.823303 6.59969997
291.893494 -313.80661 9.00039959
291.854095 -313.902954 15.1391001
291.971497 -313.65271 5.25680017
291.886688 -313.699402 6.02839994
291.890747 -313.73175 6.28135014
291.889404 -313.731689 6.69159985
291.952393 -301.066193 12.5300999
292.097595 -314.135895 15.5854998
292.031006 -313.637695 -0.382200003
292.079468 -313.680756 6.14389992
292.086212 -313.774109 8.98960018
292.105591 -313.693604 13.9028997
292.09491 -313.766113 14.4836998
292.171204 -300.980591 2.3526001
292.320496 -313.876007 12.2762003
292.217285 -313.964294 15.5497999
292.317047 -313.681763 5.69239998
292.332092 -313.636414 5.90280008
292.279694 -313.711304 6.2574501
292.327911 -313.673187 6.87370014
292.215912 -313.678497 13.7614002
292.211487 -313.561707 8.26869965
292.299988 -305.404205 2.07920003
292.410492 -313.921295 12.9688997
292.412811 -313.907104 15.4893999
292.45929 -313.700195 6.18860006
292.440704 -313.645813 6.65329981
292.42041 -313.766296 13.4778996
292.773987 -313.833496 15.0601997
292.649506 -313.918488 15.5092001
292.788086 -313.605988 6.4387002
292.794006 -313.486298 6.45559978
292.875885 -313.8125 12.2206001
292.873291 -313.807709 14.2061996
292.890594 -313.857513 14.5576
292.924103 -313.7453 10.6106997
292.932495 -313.717712 12.1597004
292.958313 -313.512909 5.47889996
292.835114 -313.558105 5.65380001
292.830292 -313.59671 6.41909981
293.122498 -313.849304 14.0458002
293.036591 -313.90741 15.4094
293.013092 -313.60141 7.15990019
293.063812 -313.690399 9.4751997
293.180206 -313.733398 11.9926004
293.039001 -313.685791 12.0395002
293.085205 -313.78299 14.2561998
293.294006 -313.631989 9.94589996
293.338196 -313.688599 12.8324003
293.348999 -313.750305 13.1990004
293.399994 -313.737 14.0796003
293.381805 -313.510193 5.93459988
293.318787 -313.501587 6.70170021
293.334412 -313.531586 7.18149996
293.218506 -313.590607 7.29850006
293.362488 -305.346588 2.40849996
293.43689 -313.893311 15.5799999
293.526489 -313.94458 15.6760998
293.491486 -313.627411 13.1392002
293.589508 -313.669708 14.5410995
293.456696 -313.714386 14.9509001
293.589111 -313.707886 15.1078997
293.485809 -313.465088 5.42339993
293.528748 -313.437317 7.52295017
293.444092 -313.561005 9.40390015
293.567413 -313.33139 5.67579985
293.482697 -313.394104 6.07499981
293.718567 -313.75061 -0.702800035
293.7789 -313.624512 11.2256002
293.740601 -313.61731 13.4682999
293.644806 -313.662415 14.1757002
293.667603 -313.609802 14.3379002
293.622101 -313.719696 14.448
293.655396 -313.724304 15.4868002
293.647003 -313.766388 15.6630001
293.675201 -313.552094 -0.681500018
293.660095 -313.469696 8.68700027
293.78949 -313.490997 9.03779984
293.676392 -313.519287 14.1953001
293.872894 -313.62561 11.0881996
293.957001 -313.610504 14.3242998
293.886902 -313.676605 15.0836
293.856689 -313.483795 6.52860022
293.938477 -313.536316 11.1667995
293.930695 -313.586304 11.2833996
293.926392 -313.549896 12.5681
293.994812 -313.576111 13.5277996
293.966187 -313.54071 13.7790003
293.941803 -313.59201 14.0234003
293.836304 -313.374695 6.50460005
294.014893 -313.863098 15.6428003
294.043701 -313.686005 14.9126997
294.125793 -313.624603 15.1985998
294.153412 -313.603088 15.6282997
294.00589 -313.422394 5.97419977
294.115204 -313.412811 6.66120005
294.075195 -313.417114 7.16130018
294.131989 -313.474213 8.27200031
294.1586 -313.560394 10.9905996
294.015289 -313.519104 11.5031996
294.0242 -313.567688 12.0014
294.109161 -313.520447 12.4731998
294.164948 -313.547852 12.90555
294.023895 -313.563202 13.6117001
294.059906 -313.532898 14.0704002
294.196411 -313.59549 14.3434
294.004608 -313.582214 14.7707005
294.071777 -313.362488 6.33319998
294.055511 -313.298798 6.83239985
294.180115 -305.793213 2.44300008
294.371887 -313.636902 11.9779997
294.235809 -313.684692 14.8238001
294.288605 -313.62619 15.0824003
294.325714 -313.639191 15.4762001
294.398804 -313.689697 15.7010002
294.362396 -313.49469 9.20460033
294.294708 -313.40451 10.2666998
294.368713 -313.446014 10.5246
294.306213 -313.439209 11.7546997
294.329895 -313.517303 11.8339005
294.291687 -313.566986 12.5017004
294.276703 -313.539612 12.9696999
294.254303 -313.526398 13.8199997
294.343506 -313.56839 14.8652
294.325714 -313.576996 15.4687996
294.355713 -313.319794 -0.392500013
294.399109 -313.263489 5.04610014
294.3302 -313.29129 5.5690999
294.230896 -313.339691 5.99189997
294.208496 -313.359894 6.44869995
294.526794 -313.617615 15.6302004
294.579987 -313.7966 15.8137999
294.475586 -313.4711 10.3948002
294.577209 -313.471497 12.0993004
294.476074 -313.450745 12.5506992
294.562408 -313.41571 12.6341
294.585205 -313.503784 13.4316006
294.531128 -313.465637 13.9561996
294.400909 -313.55191 14.2691002
294.457214 -313.504913 14.4267998
294.479858 -313.524139 14.6902504
294.430206 -313.55899 15.4334002
294.451599 -313.351501 6.85629988
294.587799 -313.310089 7.2821002
294.598907 -313.278015 7.6637001
294.556885 -313.374908 10.9786997
294.592102 -313.364807 11.4449997
294.502594 -313.133789 0.390599996
294.648987 -313.752106 15.7790003
294.604889 -313.528687 9.95969963
294.775085 -313.41571 10.3710003
294.766907 -313.503998 13.4239998
294.777588 -313.409088 13.6668997
294.605194 -313.470215 13.9184999
294.701904 -313.478302 14.1878004
294.622711 -313.462311 14.4539003
294.787903 -313.49411 14.9673004
294.755096 -313.484985 15.1681995
294.790314 -313.493286 15.2271996
294.655396 -313.532898 15.5854998
294.740509 -313.227692 5.11390018
294.7341 -313.235413 6.1315999
294.661407 -313.229004 6.85270023
294.606506 -313.296906 7.45270014
294.777405 -313.333008 9.88440037
294.785187 -313.358307 11.2595997
294.782104 -313.373993 11.4045
294.764008 -313.382111 12.2997999
294.726807 -313.33371 14.9679003
294.614014 -313.169403 0.897899985
294.796204 -313.111908 14.1303997
294.605011 -304.787292 2.2335
294.808502 -313.856201 15.6399002
294.887787 -313.699585 16.0795002
294.951996 -313.574097 7.64179993
294.806213 -313.42511 11.7965002
294.859009 -313.403198 12.6356001
294.845001 -313.409698 12.9628
294.933899 -313.433411 13.0188999
294.850708 -313.492889 15.2768002
294.933899 -313.523102 15.5557003
294.978088 -313.204193 5.59740019
294.940308 -313.230896 6.76189995
294.919006 -313.246094 7.1079998
294.963806 -313.303711 8.07199955
294.815796 -313.330902 8.90040016
294.929596 -313.259705 9.30280018
294.804413 -313.336395 10.3830004
294.823547 -313.385071 11.5056496
294.829315 -313.384888 12.0818996
294.876587 -313.387787 12.8085003
294.845612 -313.330292 13.1991997
294.823486 -313.312592 14.0354996
294.839142 -313.356079 14.6842003
294.897125 -313.279907 15.0522337
294.8591 -313.356415 15.2154999
294.824402 -313.193787 5.03770018
294.867188 -313.112793 5.82200003
294.96579 -313.191711 6.3980999
294.980011 -313.073303 7.3435998
294.846588 -313.11969 7.79430008
294.91629 -313.135986 11.2509003
294.945312 -313.076385 11.4581003
294.868011 -313.13269 13.4800997
295.056885 -313.530548 15.2777996
295.121796 -313.288391 1.14830005
295.144897 -313.241394 1.29429996
295.037903 -313.285614 4.30999994
295.0466 -313.275909 4.76030016
295.092407 -313.200897 5.52330017
295.152893 -313.339386 12.1904001
295.091248 -313.323914 12.4473
295.112 -313.338409 12.7847004
295.106445 -313.334442 12.9074001
295.018188 -313.377594 13.0594997
295.145203 -313.35321 13.4164
295.006287 -313.250488 14.4861002
295.160309 -313.281891 14.8123999
295.089539 -313.276245 15.1494999
295.134857 -313.056335 0.295949996
295.113007 -313.049194 1.87989998
295.072998 -313.054901 5.14440012
295.140015 -313.189301 5.5328002
295.114502 -313.183807 6.08809996
295.100189 -313.103912 10.7728004
295.134094 -313.054108 10.8802996
295.0112 -313.155212 11.4385996
295.000702 -313.190796 11.6582003
295.05481 -313.182709 11.8284998
295.075012 -313.192596 14.5144997
295.098206 -313.146759 15.0914001
295.182068 -312.947205 0.355499983
295.194092 -312.8992 0.468300015
295.137512 -312.868408 0.818799973
295.123596 -312.907501 7.82119989
295.244202 -313.639404 15.6784
295.205902 -313.534607 12.9312
295.271698 -313.494904 15.5900002
295.294556 -313.514526 15.7143497
295.262512 -313.203491 8.69279957
295.2966 -313.279114 12.3044996
295.395294 -313.252686 14.4625998
295.296722 -313.322327 15.2773666
295.272095 -313.390289 15.573
295.294495 -313.1427 6.13070011
295.208008 -313.092285 6.22989988
295.33136 -313.075073 8.53724957
295.352203 -313.119507 11.8106003
295.303955 -313.166992 14.2607994
295.361115 -313.184906 14.5979004
295.355011 -312.849091 1.26820004
295.536102 -313.734497 15.7045002
295.489197 -313.422913 15.5654001
295.476715 -313.4422 15.6042004
295.579895 -313.205505 6.74490023
295.444489 -313.276794 9.19690037
295.594788 -313.216797 9.49199963
295.447693 -313.376892 11.9805002
295.49765 -313.34671 13.3556995
295.504486 -313.207306 13.4028997
295.439911 -313.237915 14.5623999
295.549988 -313.36261 15.6096001
295.586792 -313.076599 5.59639978
295.453186 -313.129608 5.61439991
295.527313 -313.05191 6.94189978
295.49649 -313.150604 8.5934
295.513611 -313.091309 11.5028
295.505615 -313.199402 12.4931002
295.515015 -313.126007 13.4379997
295.50531 -313.15741 14.3790998
295.48468 -313.120239 14.4783001
295.527405 -312.942108 13.6371002
295.716125 -313.481873 15.6981001
295.756989 -313.223297 9.55459976
295.687592 -313.242401 12.3492002
295.62561 -313.215088 12.5693998
295.633698 -313.25351 12.8407001
295.612 -313.276001 13.0663996
295.702515 -313.268494 13.2613001
295.633209 -313.214813 14.7739
295.721405 -313.230591 15.2990999
295.697815 -313.332489 15.4235001
295.763611 -313.381012 15.6609001
295.788513 -313.0466 5.84110022
295.687592 -313.032898 6.58220005
295.625793 -313.080597 10.5405998
295.702393 -313.019196 11.2231998
295.637024 -313.04425 11.6859503
295.687714 -313.147186 14.5503998
295.734802 -313.188293 14.6626997
295.862915 -313.632202 15.8576002
295.870514 -313.496796 15.7477999
295.924408 -313.237701 11.8942003
295.886688 -313.211914 12.0432997
295.987488 -313.226501 12.3179998
295.856293 -313.201508 12.9786997
295.939789 -313.201904 13.3487997
295.844604 -313.243958 15.35285
295.922607 -313.347687 15.4909
295.9552 -313.000214 5.39979982
295.819214 -313.050507 5.74609995
295.818695 -313.064087 6.04489994
295.883911 -313.050812 6.39909983
295.867004 -313.01416 11.3268499
295.845398 -313.103851 11.8584995
295.915955 -313.158997 12.5373497
295.923004 -313.16745 13.0866003
295.973694 -313.072205 13.6883001
295.925903 -313.026886 14.0593996
295.933563 -313.145081 14.8467999
295.838501 -312.9599 2.81789994
295.82959 -312.864899 5.12769985
295.90921 -312.879395 5.30569983
295.948792 -312.923889 11.0711002
295.903412 -312.9198 13.6375999
295.932587 -300.341187 2.35680008
296.069489 -313.591797 15.8598003
296.033997 -313.211304 12.2933998
296.125793 -313.228516 13.3491001
296.126312 -313.398285 15.6588001
296.026306 -313.133606 9.69950008
296.155792 -313.080597 9.90209961
296.02121 -313.158386 11.2828999
296.070648 -313.059998 11.9505997
296.04715 -313.139465 12.5465508
296.114746 -313.156342 13.0755997
296.154907 -313.007507 13.7369003
296.003815 -313.06839 14.1669998
296.057312 -313.070312 14.3958998
296.095245 -313.015442 14.658
296.152496 -313.043793 15.1422997
296.110046 -313.119446 15.2185497
296.07431 -312.964905 6.09350014
296.173309 -312.87381 7.17840004
296.196899 -312.827698 7.8428998
296.185974 -312.883606 10.3378
296.115601 -312.958099 10.5398998
296.061798 -312.922089 10.7936001
296.15564 -312.92511 10.9211998
296.184692 -312.924194 11.2908001
296.119202 -312.874207 11.4947996
296.048615 -312.962585 11.809
296.139496 -312.99231 13.7882004
296.012207 -312.9776 14.0718002
296.065338 -312.903137 14.3478003
296.142609 -312.997009 14.6295996
296.110291 -304.596985 2.31730008
296.337311 -313.200409 13.4144001
296.377594 -313.286591 15.4849997
296.255188 -313.341309 15.6267996
296.290955 -313.040741 11.8358994
296.283142 -313.129547 12.4994507
296.342407 -313.169891 12.7026997
296.202698 -313.166595 12.9448996
296.297089 -313.111786 13.0840998
296.360413 -313.113403 13.5094995
296.212494 -313.005402 14.5721998
296.241272 -313.062347 14.7058001
296.330231 -313.1297 15.3246002
296.283813 -312.840515 0.147499993
296.381195 -312.867615 6.83699989
296.276611 -312.997314 11.6023998
296.517487 -313.205109 12.4118996
296.478912 -313.201691 14.2348003
296.522491 -313.279602 15.7139997
296.523407 -313.10611 9.67770004
296.5271 -313.006287 10.0778999
296.51947 -313.048096 11.9676495
296.561493 -313.058502 12.2158003
296.469513 -313.120697 12.5478001
296.4487 -313.065094 12.6878004
296.538086 -313.087494 12.85005
296.538391 -313.144409 13.1087999
296.57489 -313.139496 14.2665997
296.505707 -313.121094 14.8743
296.518585 -313.105713 15.1001997
296.575104 -312.935394 9.52120018
296.560303 -312.979004 9.9708004
296.567688 -312.871704 10.3257999
296.445007 -312.958191 12.1034002
296.424011 -306.2854 2.01480007
296.665649 -313.233246 15.5165501
296.643005 -313.109985 10.0158005
296.77771 -313.029114 10.6733999
296.708405 -313.003906 10.9243002
296.69931 -313.085114 11.0183001
296.669556 -313.083008 11.7309999
296.688446 -313.088074 12.17735
296.725586 -313.058899 12.2959499
296.79071 -313.046204 12.7332001
296.641815 -313.054504 13.1021996
296.734894 -313.053986 13.2723999
296.67691 -313.046448 13.729867
296.736389 -313.129333 13.9057999
296.724701 -313.137512 14.1028996
296.776886 -313.042206 14.3753996
296.775696 -313.091187 14.6801004
296.694489 -313.12851 15.0809002
296.726196 -312.881104 5.4822998
296.716003 -312.883698 6.37260008
296.674286 -313 8.85540009
296.708099 -312.951111 10.2896996
296.760559 -312.95816 11.1331005
296.764313 -306.143188 2.25909996
296.86377 -313.269714 15.7490997
296.808899 -313.144501 9.84010029
296.892212 -313.074829 11.9623499
296.877899 -313.048615 12.3167
296.968689 -313.039185 12.7082996
296.871002 -313.0737 12.8599005
296.853699 -313.024292 13.2785997
296.962402 -313.000092 13.6929998
296.829712 -313.058411 13.9209995
296.90921 -313.078888 14.2349005
296.843994 -313.082794 14.4199505
296.917694 -313.136902 15.3256998
296.86731 -313.155396 15.4640999
296.904449 -312.889099 6.06579971
296.839813 -312.894501 8.49530029
296.960388 -312.907501 10.0869999
296.866791 -312.949707 10.2602997
296.973602 -312.991913 10.6578999
296.96991 -312.967285 10.8170996
296.939789 -312.976105 11.0239
296.99469 -312.940399 11.4990997
296.806305 -312.962006 11.7594995
296.924133 -312.970947 11.85355
296.909607 -312.9953 12.0304003
296.888397 -312.988495 12.5010996
296.955994 -312.796295 1.74779999
296.941986 -312.799896 4.61219978
296.979492 -306.297089 1.61440003
296.934998 -306.159485 1.29030001
296.95929 -305.759399 2.64269996
296.870514 -305.379913 2.39470005
296.906097 -304.078308 1.36070001
296.894287 -304.06839 2.51929998
297.122314 -313.318604 15.7545996
297.071106 -313.017212 10.9271002
297.018707 -313.033844 11.2575493
297.198303 -313.072693 11.9906998
297.190002 -313.082001 12.1052999
297.028107 -313.123901 13.2723999
297.014893 -313.119293 13.4018002
297.168793 -313.020386 13.7438002
297.118286 -313.040314 13.8739996
297.022003 -313.031403 14.1000996
297.05661 -313.047058 14.3636503
297.038513 -313.053162 14.530467
297.024689 -313.0578 15.0787001
297.042511 -313.118988 15.2677002
297.145294 -313.153198 15.7061996
297.111511 -312.849701 7.84040022
297.153198 -312.984589 8.31309986
297.019989 -312.920502 8.73239994
297.162994 -312.908691 8.88090038
297.024811 -312.958099 9.02460003
297.122498 -312.919006 9.59990025
297.116211 -312.94989 9.75839996
297.073242 -312.935699 9.93300056
297.119995 -312.916809 10.3569002
297.000397 -312.947388 10.6940002
297.18631 -312.933502 11.2131004
297.044312 -312.981201 11.5774002
297.175995 -312.960785 11.6334
297.030396 -312.985596 11.8331003
297.07019 -312.976013 12.0628996
297.123505 -312.986694 12.31355
297.1698 -312.987091 12.7819996
297.139526 -312.980804 13.8875008
297.0672 -312.686493 -0.00389999989
297.091003 -312.723114 0.301699996
297.135803 -312.667999 1.05799997
297.120087 -312.748993 4.62960005
297.03009 -306.230103 1.22169995
297.177704 -304.767212 2.66240001
297.113708 -304.017914 2.5230999
297.326904 -314.542999 -1.22090006
297.2854 -313.430695 15.7810001
297.29834 -313.027191 12.4332008
297.299805 -313.013214 13.1682997
297.246399 -313.078186 13.5496998
297.364594 -313.088013 13.9848003
297.296112 -313.006714 14.5423002
297.243988 -313.082886 14.6232004
297.213593 -313.045685 14.9137001
297.328461 -313.10199 15.1125002
297.338104 -313.063599 15.3066502
297.332886 -313.081909 15.6412001
297.333801 -312.871887 9.29090023
297.235199 -312.877014 9.51360035
297.222809 -312.916504 9.87040043
297.300598 -312.914154 10.6932001
297.398285 -312.895905 11.3713999
297.233093 -312.882294 11.6870003
297.284729 -312.93515 12.6928997
297.354797 -312.927002 13.5824003
297.270508 -312.973053 14.3295002
297.336914 -312.985992 14.9870005
297.3992 -312.9505 15.0998001
297.360596 -312.708191 1.96099997
297.248108 -312.781891 5.33260012
297.518005 -313.277344 15.8315001
297.442902 -313.016907 12.3448
297.498505 -313.058289 14.0244999
297.407715 -313.02121 14.2812996
297.482391 -313.029785 14.6904001
297.573486 -312.836304 8.70429993
297.554626 -312.888245 9.13434982
297.475647 -312.864655 9.26399994
297.533356 -312.853271 9.51224995
297.56369 -312.873291 9.92249966
297.513611 -312.832794 10.4827337
297.527893 -312.877899 10.8149004
297.496826 -312.923859 11.4615002
297.568115 -312.837799 11.6679001
297.404999 -312.940704 11.9069004
297.414612 -312.908508 12.0716991
297.494202 -312.900238 12.2962494
297.443909 -312.934509 12.4764004
297.585785 -312.904907 12.7397003
297.426697 -312.923279 12.8983994
297.53244 -312.951477 13.0786495
297.577698 -312.913208 13.2938995
297.599396 -312.887695 13.6381998
297.513702 -312.979889 13.9190998
297.531891 -312.945312 14.2792997
297.416687 -312.989197 14.5465002
297.584015 -312.980103 14.7453003
297.5466 -312.991302 14.8923998
297.416992 -312.701294 1.69719994
297.537994 -312.712708 5.01499987
297.508514 -312.749786 5.73719978
297.610901 -313.075806 13.1107998
297.749115 -313.021088 13.684
297.786102 -313.005707 14.7040997
297.652191 -313.000214 15.2076998
297.603088 -313.015198 15.6202002
297.682587 -313.15451 15.8716002
297.691895 -312.807098 9.27740002
297.773895 -312.814789 9.94260025
297.621307 -312.812286 10.4218998
297.730499 -312.881287 11.0967999
297.641296 -312.877899 11.2040005
297.755615 -312.842773 11.5311251
297.724213 -312.896515 11.8570995
297.700195 -312.887909 12.0068998
297.768616 -312.88501 12.2656498
297.687378 -312.873505 12.6940498
297.667847 -312.84845 13.0183001
297.649506 -312.931091 13.2895002
297.777191 -312.897186 14.4996004
297.747101 -312.62851 1.40040004
297.762909 -312.70871 1.64960003
297.605713 -312.79129 7.46880007
297.67334 -312.74295 8.66790009
297.716888 -312.743805 9.48340034
297.75589 -312.798187 10.3395996
297.687103 -312.789398 10.4724998
297.647308 -312.778198 12.8555002
297.714111 -305.581909 2.66120005
297.815002 -313.02301 15.5577002
297.857697 -313.10849 15.7605
297.862091 -313.057495 15.8533001
297.862152 -312.849548 8.47170067
297.857483 -312.899597 9.14245033
297.855713 -312.808289 10.7489004
297.822998 -312.864288 11.3014002
297.85791 -312.872711 11.6632004
297.905609 -312.871002 11.8347998
297.90155 -312.838745 12.1133499
297.934875 -312.871155 12.3188496
297.907898 -312.854309 12.5186329
297.861389 -312.864014 12.9961004
297.866211 -312.882202 13.4877996
297.830109 -312.851501 13.7088003
297.970306 -312.818115 13.8905001
297.923889 -312.877411 14.1773005
297.963806 -312.867004 14.3336
297.881409 -312.890503 14.4984999
297.957489 -312.907715 14.7831001
297.974213 -312.879303 14.9733
297.806396 -312.941315 15.1732998
297.9552 -312.880402 15.3841
297.8237 -312.886505 15.4048996
297.996002 -312.695099 4.15600014
297.936493 -312.789307 9.44919968
297.960388 -312.775696 10.5598001
297.913208 -312.751404 10.6552505
297.931488 -312.76001 11.4027996
297.861206 -312.795807 11.9507999
297.949585 -312.789185 12.0545502
297.860809 -312.794403 13.0112
297.940094 -312.59671 1.10160005
297.885101 -312.541412 1.4411
298.182587 -313.023895 15.7264996
298.050507 -312.832092 9.44419956
298.016296 -312.922485 10.3681002
298.128296 -312.862091 11.7171001
298.055786 -312.891541 13.2577
298.08844 -312.858612 13.6660995
298.104889 -312.91861 14.1518002
298.047607 -312.855408 14.5086002
298.097412 -312.894501 15.0548
298.076294 -312.901489 15.3463001
298.082001 -312.914215 15.5187998
298.072998 -312.958313 15.6292496
298.1651 -312.642914 5.58029985
298.169189 -312.701691 7.97060013
298.093597 -312.721588 8.13259983
298.147552 -312.706482 9.0916996
298.156311 -312.7229 9.45890045
298.112732 -312.754547 10.0988998
298.158508 -312.729889 10.7734003
298.049286 -312.734406 10.8368998
298.131287 -312.791901 11.1176004
298.136993 -312.766937 11.6569004
298.093414 -312.768097 11.9447002
298.084198 -312.737915 12.4224005
298.131989 -312.780518 12.7278004
298.083588 -312.763397 13.3761997
298.050995 -312.579102 0.223299995
298.10379 -312.571198 0.476599991
298.100708 -312.598511 8.69869995
298.26709 -313.321411 15.8699999
298.238953 -313.127899 15.7474003
298.300171 -313.057007 15.8675499
298.308197 -312.809296 11.2124004
298.207306 -312.82251 11.618
298.20639 -312.845398 13.2339001
298.353912 -312.903015 14.1619997
298.397797 -312.906799 14.3284998
298.383301 -312.821991 15.4530001
298.276611 -312.893097 15.6779003
298.270508 -312.604706 5.92570019
298.36499 -312.637909 7.43300009
298.331696 -312.768707 8.12720013
298.349792 -312.648193 8.62839985
298.309631 -312.747345 9.48694992
298.3591 -312.695099 10.1723003
298.335602 -312.671204 10.4373999
298.210693 -312.787811 10.7377005
298.308411 -312.722687 10.8877001
298.286499 -312.726013 11.1506004
298.298462 -312.734802 11.511425
298.262604 -312.737915 11.6402998
298.230072 -312.763245 12.3250332
298.26889 -312.731903 12.5595999
298.390686 -312.742096 12.7837
298.227386 -312.763092 13.0073004
298.298798 -312.772095 14.1014996
298.344696 -312.783508 15.4350004
298.261597 -312.515991 0.263799995
298.393799 -312.496399 1.40429997
298.277588 -304.428894 2.70379996
298.385193 -304.228485 2.17549992
298.419006 -313.072205 15.7975998
298.565796 -313.009186 15.8002005
298.527802 -312.805115 12.7982998
298.48941 -312.827789 14.1826
298.521179 -312.860535 14.6406498
298.55719 -312.8573 14.8704996
298.464813 -312.843811 15.1394997
298.568115 -312.84491 15.2301998
298.526367 -312.872345 15.5428505
298.506714 -312.895203 15.7507
298.438812 -312.704315 9.1001997
298.462891 -312.676086 9.30480003
298.499939 -312.682251 9.62889957
298.532196 -312.669312 9.9684
298.512512 -312.737701 10.3879004
298.470947 -312.730469 10.6927004
298.445496 -312.700806 10.8760004
298.466187 -312.691711 11.2620001
298.535004 -312.743408 11.4257002
298.539459 -312.693054 11.7699499
298.443542 -312.780212 11.9194002
298.464905 -312.753906 12.3837004
298.52832 -312.721191 12.7263508
298.591888 -312.694702 12.9348001
298.438782 -312.765869 13.1503506
298.552826 -312.747314 13.3187752
298.492615 -312.794586 13.6063995
298.437012 -312.78479 13.8806
298.451752 -312.789185 14.1152
298.482391 -312.743988 14.3189001
298.517914 -312.734314 14.5711002
298.488098 -312.796112 14.6057997
298.4953 -312.754486 15.04
298.548798 -312.518188 0.685899973
298.554596 -311.329803 10.6571999
298.487366 -310.914062 10.9007502
298.681885 -313.111084 15.8625002
298.696991 -312.659393 8.37110043
298.769592 -312.654907 8.45170021
298.69101 -312.646698 9.17529964
298.674408 -312.628113 10.0692997
298.661896 -312.64859 10.2930002
298.70224 -312.666046 10.7126665
298.747864 -312.666656 10.8959665
298.669373 -312.700348 11.4510498
298.714111 -312.714264 11.8739719
298.768311 -312.694489 12.5899
298.690491 -312.71875 12.7059669
298.723633 -312.711121 13.1604004
298.74762 -312.68515 13.302
298.776428 -312.726501 13.5370998
298.682343 -312.712738 14.1108665
298.666687 -312.746155 14.3534508
298.756897 -312.782593 14.4013004
298.710907 -312.754517 14.6429501
298.703003 -312.765503 14.8994999
298.791412 -312.754486 15.5443001
298.66391 -312.431396 0.655900002
298.763489 -312.556488 8.45149994
298.792603 -312.350311 13.5796003
298.72699 -310.838013 10.7838001
298.74231 -310.679688 10.6984997
298.793915 -306.052887 2.32340002
298.682007 -304.064606 2.28360009
298.924103 -312.800598 14.1099005
298.874695 -312.823395 15.5444002
298.902863 -312.882385 15.6969004
298.955322 -312.621063 8.69964981
298.861511 -312.617493 8.97749996
298.922913 -312.604187 9.86629963
298.977692 -312.60321 10.2426004
298.848419 -312.63443 10.4804001
298.859497 -312.700928 11.0472507
298.84375 -312.667206 11.3440495
298.936829 -312.61676 11.4830999
298.9198 -312.647339 11.6996336
298.919525 -312.696869 11.858633
298.886902 -312.686493 12.1501999
298.964203 -312.632111 12.2077999
298.892212 -312.654388 12.7755003
298.898712 -312.699799 13.1675997
298.863586 -312.717712 13.3224001
298.89975 -312.717285 13.5377998
298.887604 -312.729492 13.6752501
298.801788 -312.769104 13.8436003
298.885315 -312.721985 14.0771999
298.884705 -312.679291 14.3263998
298.891998 -312.621704 14.5872002
298.948303 -312.75061 14.6948996
298.923798 -312.781586 15.1824999
298.892944 -312.75824 15.3207998
298.902496 -312.433502 1.15339994
298.897003 -312.583313 7.95240021
298.988495 -312.547211 9.60540009
298.962402 -312.48291 9.95639992
298.928406 -312.50769 10.3827
298.829407 -312.523193 10.7507
298.9216 -312.531006 11.7110004
298.819 -312.515198 12.3597002
298.986511 -312.540009 12.8738003
298.874603 -312.567596 13.2011995
298.953186 -312.510895 13.6275997
298.928101 -312.392303 0.312900007
298.874298 -312.330688 13.4179001
298.84549 -305.826996 2.40700006
298.996399 -304.10849 1.92130005
299.156708 -312.80191 15.7943001
299.197601 -312.61441 3.85750008
299.032806 -312.655792 10.5917997
299.155487 -312.615204 10.7708998
299.078613 -312.630737 10.8827496
299.059204 -312.613312 11.1268997
299.166809 -312.631409 11.5811996
299.081421 -312.634521 11.9249334
299.062347 -312.648071 12.0652332
299.062683 -312.667847 12.3015499
299.072388 -312.66571 12.4902
299.066498 -312.620697 13.2116003
299.03241 -312.619019 13.8775005
299.080078 -312.669403 14.0361004
299.042816 -312.712891 14.7004337
299.128326 -312.718018 14.9158001
299.117889 -312.786102 15.1991997
299.059296 -312.661804 15.3751001
299.007599 -312.779297 15.6953001
299.132599 -312.463013 1.73539996
299.066406 -312.459595 6.74469995
299.069489 -312.449799 7.32229996
299.174194 -312.569611 8.23260021
299.126801 -312.511108 8.55140018
299.113342 -312.584503 8.9467001
299.061096 -312.423309 9.48890018
299.058044 -312.494843 10.1038494
299.07074 -312.491608 10.5515499
299.174988 -312.523193 11.1745996
299.160797 -312.551208 12.7827997
299.015198 -312.576294 12.8120003
299.039429 -312.497131 13.0567493
299.139404 -312.371704 0.937300026
299.189789 -312.338593 1.36800003
299.110107 -312.372803 9.74059963
299.15387 -312.344147 10.2651329
299.038208 -312.369202 13.4684
299.320709 -313.870209 -1.16069996
299.333008 -312.844299 15.7700005
299.302612 -312.958496 15.9468002
299.388489 -312.93219 16.0925007
299.378815 -312.623108 8.94550037
299.30011 -312.623993 11.1612997
299.234894 -312.621704 11.2419004
299.305145 -312.617065 11.4979496
299.271088 -312.703705 12.1281004
299.287109 -312.63089 12.3135004
299.26001 -312.627686 12.4092999
299.259705 -312.652893 14.1225748
299.245667 -312.659119 14.3307495
299.370789 -312.632507 14.4129
299.210205 -312.653198 14.7021999
299.239685 -312.72641 14.9940996
299.356689 -312.696991 15.092967
299.272888 -312.740997 15.4029999
299.286194 -312.707794 15.8233004
299.232208 -312.456299 1.50100005
299.226501 -312.433807 1.76610005
299.214111 -312.506989 8.5323
299.286591 -312.53241 8.76150036
299.286743 -312.511353 9.09065056
299.343506 -312.482086 10.54
299.298492 -312.556 10.9488001
299.37619 -312.588013 11.2417002
299.388611 -312.556213 11.6269999
299.297913 -312.585297 12.4580002
299.217285 -312.545593 12.7896004
299.350372 -312.482178 13.7033672
299.265594 -312.536072 13.8202496
299.333008 -312.322205 0.0498000011
299.225586 -312.345215 0.735300004
299.374603 -305.398407 2.73790002
299.571014 -312.884308 15.8542995
299.581299 -312.627106 10.9077997
299.470245 -312.644806 11.8880997
299.51001 -312.627808 13.9663506
299.516449 -312.622345 14.0816002
299.458405 -312.652527 14.6644497
299.485718 -312.625183 14.8926497
299.491516 -312.6203 15.2201004
299.538452 -312.698151 15.6886997
299.575287 -312.459808 7.25670004
299.458679 -312.455353 7.52540016
299.575104 -312.429993 7.82420015
299.470215 -312.487793 8.13449955
299.443298 -312.553009 8.4229002
299.446808 -312.518311 8.72640038
299.493988 -312.504395 8.96790028
299.471497 -312.5289 9.35249996
299.506897 -312.462189 9.48009968
299.539703 -312.445099 10.5571499
299.505737 -312.470825 11.3752499
299.512451 -312.50293 11.6982336
299.527893 -312.578125 11.8670998
299.519409 -312.513733 12.2830009
299.4711 -312.474792 12.7384005
299.546204 -312.440613 13.1302996
299.500946 -312.449097 13.3080597
299.514313 -312.479706 13.7396002
299.540497 -312.560791 13.9317999
299.587708 -312.576111 14.2016001
299.40329 -312.574585 14.4249001
299.585907 -312.378693 9.89799976
299.492676 -312.325684 10.2619495
299.549316 -312.364746 12.9673004
299.510895 -312.294647 13.0517006
299.51059 -312.369385 13.4203997
299.400299 -303.9505 1.25979996
299.74762 -312.878967 15.9014664
299.607208 -312.639709 12.4000998
299.7435 -312.664215 14.9326
299.741211 -312.677094 15.1115999
299.660187 -312.714386 15.3217001
299.781189 -312.63089 15.4576998
299.752289 -312.730011 15.7642002
299.698853 -312.510651 8.86929989
299.708618 -312.45755 9.12475014
299.691101 -312.471313 10.6331997
299.694153 -312.482849 10.945467
299.666138 -312.563995 11.0641003
299.700012 -312.499298 11.2618999
299.748199 -312.537811 11.4761
299.675415 -312.569611 11.6476002
299.693604 -312.466705 11.8837996
299.69873 -312.560852 12.4379997
299.633209 -312.405914 12.6718998
299.641693 -312.426788 13.2461996
299.666901 -312.532593 14.0066996
299.639893 -312.578888 14.5153999
299.64389 -312.574707 14.6260996
299.688507 -312.250397 0.143299997
299.645386 -312.384003 8.09759998
299.659668 -312.338104 9.45454979
299.685211 -312.266693 9.93260002
299.714294 -312.36499 10.5158005
299.773499 -312.395599 12.4834995
299.702454 -312.335754 12.7155495
299.636353 -312.311951 12.8407993
299.667114 -312.377289 13.0709
299.617798 -312.330902 13.3634996
299.688507 -312.338287 13.5753002
299.714233 -312.265778 13.6209335
299.725403 -312.190399 9.88239956
299.666107 -312.194885 10.2217999
299.732788 -303.960785 1.01830006
299.92749 -312.604095 12.3346996
299.805511 -312.646606 14.1527996
299.868011 -312.617798 15.3782997
299.810699 -312.636993 15.6877003
299.956604 -312.79361 15.8233995
299.862396 -312.431213 7.97319984
299.811005 -312.411285 8.50269985
299.891357 -312.5112 8.64353371
299.896515 -312.404297 10.6956997
299.803802 -312.468414 10.8715
299.891846 -312.456848 11.3306007
299.862213 -312.580414 11.4806004
299.945709 -312.42691 11.7068005
299.904449 -312.502441 12.1247501
299.840088 -312.416504 13.7501001
299.952393 -312.491394 13.9654999
299.863525 -312.539825 14.0880337
299.940735 -312.509308 14.7658501
299.889404 -312.578339 14.9006996
299.929382 -312.530182 15.0698004
299.9841 -312.458008 15.2417002
299.960449 -312.549561 15.5064001
299.859497 -312.583008 15.6798496
299.801514 -312.3591 2.06710005
299.928589 -312.324341 8.74880028
299.950287 -312.320984 10.5085335
299.886414 -312.396515 10.6591997
299.889801 -312.218597 13.0619001
299.871033 -312.278381 13.2814503
299.84726 -312.29718 13.4572001
299.925812 -312.153107 10.1834002
299.930298 -305.738312 2.36800003
299.847504 -300.027802 2.05879998
