# .PCD v0.7 - Point Cloud Data file format
VERSION 0.7
FIELDS x y z
SIZE 4 4 4
TYPE F F F
COUNT 1 1 1
WIDTH 730
HEIGHT 1
VIEWPOINT 0 0 0 1 0 0 0
POINTS 730
DATA ascii
20.0293007 -51.0318985 3.97749996
20.1415005 -48.5405998 2.67540002
20.1000996 -47.8595009 4.31379986
20.2777996 -49.6720009 2.55760002
20.2115993 -49.3438988 2.03970003
20.2427998 -48.3829002 2.91160011
20.2598 -48.2678986 3.12100005
20.2427006 -48.3949013 3.31660008
20.3992996 -46.737999 3.11660004
20.5487995 -47.6483002 1.39390004
20.4556007 -47.7016983 2.16989994
20.5622997 -47.085701 1.5388
20.5312996 -46.8721008 2.86229992
20.6068993 -42.9289017 7.61070013
20.8159008 -42.6473007 5.87270021
20.9097004 -42.3763008 7.90059996
21.4783001 -42.5172005 6.58169985
21.5205994 -42.5382004 10.3753996
21.5830994 -42.2512016 5.4222002
21.5265007 -42.296299 5.73750019
21.5604496 -42.2698975 6.14630032
21.5216007 -42.2463989 9.50489998
21.5863991 -42.2521019 10.1415005
21.6301003 -42.105999 6.22770023
21.6086502 -42.1337509 10.1594
21.6854992 -42.0882988 10.8273001
22.0690994 -50.1991997 4.38649988
22.1025505 -42.3323517 6.53690004
22.3076 -42.1948013 10.6712999
22.4255009 -42.2089005 10.5174999
22.6634998 -50.6057014 3.72909999
23.8974991 -42.3426018 9.12510014
24.7700005 -42.3350983 7.4229002
24.9533997 -42.4712982 5.33050013
25.1217003 -42.4303017 6.64120007
25.0109005 -42.3909988 5.0999999
25.1583996 -42.2312012 5.80700016
25.1280994 -42.3497009 6.69820023
25.1613007 -42.2638016 10.2643995
25.1912003 -42.3358002 10.4111004
25.1786003 -42.1688004 6.38030005
25.1534996 -42.1803017 7.02059984
25.3547001 -42.5312996 9.02140045
25.2581005 -42.2717018 6.29020023
25.2259998 -42.2921982 10.0798998
25.2563 -42.2268982 10.7792997
25.3876991 -42.1534004 11.0902004
25.2765007 -41.8599014 10.0932999
25.281601 -41.962101 11.1332998
25.5205994 -42.5325012 8.94159985
25.6966 -42.4336014 8.26179981
25.6522999 -42.3951988 8.81210041
25.8246002 -42.7560005 9.35900021
25.8876991 -42.653801 9.62139988
25.9013004 -42.4121017 7.12559986
25.9424992 -42.5900993 9.56890011
26.0765991 -42.3005981 7.35470009
26.4897003 -42.580101 12.6135998
26.6182003 -42.4536018 12.4708996
27.0879002 -50.9383011 2.75
27.4172001 -46.9406013 2.37849998
27.4794006 -42.4301987 12.599
27.7383995 -49.1599998 4.53840017
27.6116009 -42.3606987 8.35929966
27.7910004 -42.289299 11.6166
27.8665009 -51.5489998 4.4387002
27.9953995 -51.3116989 4.41400003
27.8344994 -42.6006012 12.3521996
27.9610996 -42.3034515 9.11759949
28.0310993 -51.4828987 3.50230002
28.1063004 -51.4014015 3.75819993
28.0921001 -51.3488998 3.29159999
28.0851002 -51.3022003 3.50699997
28.0914497 -51.1547508 4.11560011
28.0765667 -51.0973015 4.25093317
28.1403008 -51.0363998 4.50670004
28.1194 -42.4413986 8.22259998
28.2012997 -50.8058014 5.25080013
28.3397007 -50.6245003 5.046
28.3402004 -42.2593002 8.11200047
28.3292999 -42.3082008 9.03429985
28.4808998 -47.7340012 0.933899999
28.4225998 -42.3703995 7.20100021
28.5345001 -42.2557983 8.50469971
28.5415001 -42.2739983 9.47140026
28.7903004 -50.2709999 3.99440002
28.6688004 -50.2144012 4.1244998
28.6135006 -48.0770988 0.682099998
28.6068993 -47.6353989 0.439200014
28.7434006 -42.3233986 5.79920006
28.7556 -42.3937988 6.29759979
28.7800999 -42.2347984 9.98089981
28.7546997 -42.2587013 10.1566
28.7217007 -42.3684998 10.7554998
28.7717991 -42.0998001 7.02780008
28.7416992 -42.1972008 9.05179977
28.6615009 -42.028801 9.35639954
28.7035007 -42.1576004 10.3957996
28.9239006 -50.6269989 4.14849997
28.8477001 -50.0774994 1.90680003
28.9162998 -49.9911003 3.08310008
28.8374996 -49.8335991 4.06930017
28.8237 -49.7299995 1.7615
28.9317513 -49.7004013 4.3178997
28.9181004 -49.7634506 4.46360016
28.9727993 -48.9794998 2.80870008
28.9200993 -48.7127991 2.93580008
28.9913006 -48.3833008 3.21469998
28.8078003 -42.2622986 5.98829985
28.8302002 -42.2820015 6.63149977
28.8304996 -42.3428001 7.31489992
28.8925991 -42.2027016 10.5299997
28.9503002 -42.1803017 6.22289991
28.8729 -42.1792984 6.75430012
28.8097992 -42.1797981 9.46879959
28.8705997 -42.1230011 10.4139004
28.9115009 -42.1138992 10.6204004
29.0543003 -50.8203011 3.8914001
29.0694008 -50.6106987 3.96620011
29.1961994 -50.6861 4.17910004
29.0543995 -50.6744003 4.20240021
29.1436996 -50.509201 4.33419991
29.1452999 -50.1697006 2.39610004
29.1539993 -49.8558998 2.88019991
29.0184002 -49.8342018 4.60430002
29.0044994 -49.8604012 4.80480003
29.1336002 -49.7032013 4.69560003
29.0564995 -48.8254013 3.06060004
29.1602993 -42.3077011 6.59439993
29.0175991 -42.2731018 6.95179987
29.1837006 -42.3574982 8.58310032
29.1406002 -42.2324982 10.8106003
29.0597 -42.3046989 11.6504002
29.0046997 -42.2198982 11.8694
29.0191002 -42.1787987 11.2298002
29.3806 -51.3166008 3.74740005
29.3899994 -51.1282005 3.43510008
29.2161007 -51.0337982 4.25019979
29.2880001 -50.8012009 3.4533999
29.2308998 -50.8535004 4.10900021
29.3435001 -50.855751 4.49154997
29.3920002 -50.6044998 2.73589993
29.3885994 -50.4921989 3.52640009
29.2646999 -49.8011017 2.67359996
29.2434006 -43.4376984 12.3816996
29.2663002 -42.9057007 12.1403999
29.3575993 -42.2840996 7.57730007
29.2451992 -42.3821983 7.83440018
29.309 -42.3311996 8.58930016
29.4186001 -51.2705994 3.77460003
29.4601994 -51.0082016 3.34310007
29.5098 -51.0536995 3.5388
29.4400997 -51.0928993 3.62579989
29.5277004 -49.8507996 4.05229998
29.5004005 -49.7514992 3.66149998
29.4899998 -49.7717018 3.85229993
29.4897003 -42.8987999 12.5556002
29.5100002 -42.2888985 7.73110008
29.4584007 -42.3830986 8.04759979
29.5475998 -42.290699 11.3694
29.6466999 -49.6711006 3.65129995
29.6849995 -42.1548004 11.2989998
29.9825001 -43.3025017 12.2763004
30.2598991 -42.3171997 7.7592001
30.2096004 -42.331501 8.54199982
30.2346001 -42.2246017 11.9253998
30.5890007 -42.3507996 7.41209984
30.7103004 -42.1936989 11.3979998
30.9298 -42.7630997 12.5676003
30.9943008 -42.4109001 8.83990002
30.9151993 -42.3431015 7.26719999
30.8848 -42.2997017 7.79850006
30.8383007 -42.3042984 7.84929991
30.9972 -42.3827019 8.77449989
30.8880997 -42.2008018 11.6624002
31.1410007 -42.9950981 12.3427
31.1413994 -42.2999496 8.67975044
31.0132008 -42.1520996 11.7734003
31.3307991 -42.4187012 5.97910023
31.2625999 -42.2369995 8.34140015
31.3647003 -42.2382011 9.90040016
31.2056999 -42.3409996 10.7160997
31.2954006 -42.1175995 8.03800011
31.2231007 -42.1889 10.8423004
31.4237995 -43.3830986 12.3353996
31.5988007 -43.1046982 12.1032
31.4020004 -42.2579002 6.13570023
31.5319996 -42.3829002 7.41620016
31.4204006 -42.3820992 8.83220005
31.5447006 -42.2873001 10.6519003
31.4713001 -42.3473015 11.3584003
31.7362003 -43.0028992 12.3516998
31.7210999 -42.4147987 5.7507
31.6124992 -42.2840996 9.06849957
31.6620007 -42.2865982 11.2290001
31.7555008 -42.1423988 11.0383997
31.9615002 -42.4953003 12.3098001
31.8477993 -42.2532997 8.79769993
31.8400993 -42.3508987 12.1014996
32.1926003 -42.5541992 9.52750015
32.0223007 -42.5409012 12.2902002
32.0315018 -42.3311005 6.00409985
32.0716019 -42.2478981 7.26779985
32.1916008 -42.2907982 8.12720013
32.1427002 -42.232399 11.1589003
32.1208992 -42.2675018 12.1476002
32.2647018 -42.4688988 10.4012003
32.3960991 -42.2528 5.76660013
32.3396988 -42.2015991 5.93860006
32.3539009 -42.2799988 6.05499983
32.3652 -42.2590485 6.20384979
32.2874985 -42.3650017 6.59450006
32.3732986 -42.207901 6.72160006
32.3871994 -42.2905998 6.92080021
32.2453003 -42.3698997 9.38930035
32.2695007 -42.2809982 9.92469978
32.3053017 -42.3311996 10.1145
32.2719002 -42.2350006 12.3778
32.3778992 -42.1528015 6.85750008
32.2625999 -42.0491982 10.2223997
32.5112991 -42.4393005 12.4165001
32.4399986 -42.2845993 10.8663998
32.4878998 -42.3785019 12.3191996
32.5998001 -42.1147003 9.75790024
32.4263 -42.1707993 10.0761003
32.4911003 -42.1006012 10.3261995
32.5144005 -42.0957985 10.4819002
32.4110985 -42.1230011 10.7672997
32.4132996 -42.1197014 10.8507996
32.5224991 -42.1318016 11.0702
32.7394981 -43.2430992 12.3028002
32.7663002 -42.7260017 12.2531996
32.7714996 -42.3925018 6.63990021
32.7543983 -42.3735008 7.89109993
32.6060982 -42.286499 8.66779995
32.7997017 -42.3805008 11.8976002
32.6595001 -41.8592987 11.1437998
32.9626007 -42.6497002 12.2229004
32.9207993 -42.2748985 6.5170002
32.8157005 -42.3342018 7.16330004
32.9518013 -42.2770996 9.0237999
33.0033989 -43.5463982 12.5087004
33.0657005 -43.1175003 12.5747004
33.0178986 -42.4599991 12.2586002
33.114399 -42.2686996 9.0802002
33.1348991 -42.2448006 11.1316004
33.2727013 -42.915699 12.1653996
33.3815002 -42.342701 7.21600008
33.2232018 -42.2985992 7.78130007
33.2196999 -42.2639999 8.34799957
33.2944984 -42.3190002 8.44400024
33.3563004 -42.2972488 9.30064964
33.325901 -42.2472992 11.1241999
33.2184982 -42.2188988 12.0943003
33.3058014 -42.1761017 6.51179981
33.3092995 -42.1870995 9.76169968
33.5391006 -42.5205002 12.2659998
33.490799 -42.2665024 6.91345024
33.5867004 -42.2464981 7.54160023
33.5511017 -42.3198318 7.67886639
33.5117989 -42.3037987 8.3579998
33.608799 -43.1938019 12.1615
33.6530991 -43.1917 12.2046003
33.7092018 -42.9303017 12.3891001
33.7714005 -42.3334999 6.77869987
33.6645012 -42.2961006 7.30560017
33.6838989 -42.230999 7.4060998
33.6593018 -42.2812996 8.17599964
33.6123009 -42.3484993 9.04419994
33.6940002 -42.2018013 11.3936005
33.6682014 -42.289299 11.8999004
33.6276016 -42.1851997 11.1877003
33.8266487 -42.3497505 7.45950031
33.8772011 -42.2566986 8.50800037
33.8378677 -42.271965 8.72529984
33.9347992 -42.3642006 12.0748997
33.9785004 -42.3254013 12.2666998
33.8889008 -42.1887016 11.1952
34.1254005 -42.403801 7.8118
34.0508003 -42.232399 6.93230009
34.0796013 -42.2896996 8.62930012
34.1250992 -42.3496017 9.30840015
34.1232986 -42.0228004 8.70880032
34.2540016 -43.2510986 12.3660002
34.2274017 -43.0952492 12.3608494
34.338501 -42.2029991 7.32149982
34.3899002 -42.3266983 7.51329994
34.3802986 -42.2869987 10.5298996
34.4878998 -42.5366516 12.0517502
34.581501 -42.3302002 5.45130014
34.4902992 -42.3512993 5.88019991
34.4327469 -42.2557487 6.90425014
34.5110016 -42.2656517 8.27980042
34.4602013 -42.2151985 9.20100021
34.4786987 -42.2291985 9.57429981
34.5261993 -42.2254982 11.0465002
34.4313011 -42.2845001 12.2749004
34.5000992 -42.1637001 11.2454004
34.7220001 -42.823101 12.1931
34.7849998 -42.8055992 12.2277002
34.6217995 -42.3540001 5.10440016
34.7280998 -42.3176994 5.76999998
34.7156982 -42.2959518 7.46379995
34.6034012 -42.2792015 8.06130028
34.6265984 -42.3152008 8.64680004
34.6301003 -42.2821007 9.30490017
34.6193008 -42.2209015 10.5643997
34.6318016 -42.3166008 11.7770996
34.9831009 -43.3877983 12.3308001
34.8387985 -42.7599983 12.3050003
34.9942017 -42.5670013 12.2117996
34.9147987 -42.2799988 6.4355998
34.8529015 -42.3380013 7.63009977
34.8809013 -42.2820015 8.21220016
34.9897003 -42.2422981 9.95610046
34.8219986 -42.2608986 10.2788
34.9398003 -42.2406998 10.4750004
34.9634018 -42.2090988 10.9352999
34.9519005 -42.3250999 12.3368998
34.9891014 -42.1814003 7.00089979
35.1778984 -43.4637985 12.3269997
35.1043015 -42.7818985 12.3704004
35.0820999 -42.4166985 5.92670012
35.0500984 -42.4342003 7.16099977
35.1973 -42.4273987 8.42280006
35.0831985 -42.479599 9.76679993
35.1553001 -42.2784996 5.97389984
35.0914993 -42.2346001 6.06110001
35.1441994 -42.2868996 6.34810019
35.1348495 -42.308197 7.04390001
35.0536995 -42.3053017 7.40199995
35.0764999 -42.273201 7.7276001
35.1619987 -42.2671013 7.87709999
35.0031013 -42.2569008 8.00059986
35.1209984 -42.2128983 8.56439972
35.111599 -42.3308983 8.69209957
35.1512985 -42.3437004 9.06120014
35.1571007 -42.2083015 9.39669991
35.1716003 -42.2510986 9.76639938
35.0998001 -42.3153992 10.9160004
35.1806984 -42.1351013 6.33010006
35.1847 -42.0844002 8.25119972
35.1800995 -42.0614014 8.94470024
35.1836014 -42.1334991 10.4124002
35.1651001 -41.8829994 5.67630005
35.1408005 -41.9149017 7.03000021
35.1539001 -41.8036995 9.46179962
35.1262512 -41.9552994 11.1081505
35.1604004 -41.7743988 5.63240004
35.1646004 -41.6071014 5.81750011
35.1551018 -41.7672997 7.50860023
35.1898003 -41.600399 8.70230007
35.1927986 -41.4244995 6.24870014
35.1859016 -41.4341011 8.05729961
35.1697006 -41.222599 8.91289997
35.1731033 -41.2859001 9.27149963
35.1515999 -41.2083015 9.40310001
35.1491013 -41.0853004 7.0005002
35.0630989 -41.0671997 7.59689999
35.1301994 -41.1920013 7.75689983
35.1575012 -41.047699 8.33969975
35.0943985 -40.9719009 8.71220016
35.1745987 -40.7322006 6.38940001
35.2742004 -42.2406006 7.96780014
35.2122498 -42.2374001 8.07349968
35.2402496 -42.2981491 8.73130035
35.2915993 -42.2430992 9.63010025
35.2340012 -42.3199501 10.0646496
35.2014008 -42.2154999 10.2201004
35.207901 -42.2913017 10.4168997
35.2473984 -42.2025986 10.9251003
35.2538986 -42.2016983 11.1384001
35.3014984 -42.2438011 11.6524
35.2002983 -42.1674995 5.85389996
35.2197495 -42.0940514 6.45794964
35.2212982 -42.1278 6.72105026
35.3059998 -42.0890007 7.18429995
35.2464485 -42.1484528 7.27070045
35.2887001 -42.1725998 7.4046998
35.2573013 -42.0201988 7.92630005
35.3049011 -42.1643982 8.10159969
35.2757988 -42.1903 8.59570026
35.2689514 -42.1407013 8.8852005
35.3036003 -42.1007996 9.59910011
35.351799 -42.1221008 9.76720047
35.2303505 -42.115799 9.94820023
35.2070999 -42.0287018 10.1863003
35.3007011 -42.1030998 10.3195
35.291851 -42.1415482 10.5317497
35.311451 -42.14925 10.9003506
35.2123985 -42.1291008 11.0490999
35.2827492 -42.1081009 11.2895498
35.3153 -42.1896019 11.7580996
35.2838326 -42.1333313 11.8780661
35.3387985 -42.1150017 12.1597996
35.3239517 -42.1917 12.3027992
35.2984009 -41.9253006 6.4612999
35.2418518 -41.9270515 6.94675016
35.2747002 -41.9547005 7.10960007
35.2355003 -41.9768982 7.69789982
35.2829514 -41.8875999 8.12400055
35.2951012 -41.9793015 8.21020031
35.2512016 -41.8554001 8.58940029
35.2178993 -41.8460999 8.64455032
35.2502518 -41.8827515 8.93795013
35.2695999 -41.9525986 9.19419956
35.2952995 -41.9216499 9.30620003
35.2251015 -41.9534988 9.78549957
35.2527504 -41.9715996 10.1245499
35.2930984 -41.8292007 10.5452003
35.3353996 -41.8440018 10.7618999
35.3071327 -41.8927994 11.0713005
35.3047485 -41.9388008 11.3021498
35.3630981 -41.9339981 11.5080004
35.2271996 -41.6775017 6.79809999
35.2621002 -41.6996994 6.98269987
35.2472 -41.6240997 7.1157999
35.2205505 -41.6254005 7.47064972
35.2314987 -41.6259003 7.70709991
35.2840996 -41.7109985 8.0916996
35.2715988 -41.6973991 8.5092001
35.2832985 -41.7453003 8.71440029
35.3236008 -41.6815987 8.84770012
35.28965 -41.6788483 9.01239967
35.2779999 -41.7406998 9.45305061
35.2877007 -41.7150993 10.8462
35.3100014 -41.6239014 11.0274
35.3230019 -41.7406998 11.2692003
35.2499008 -41.7022018 11.4167995
35.3676987 -41.7235985 11.9490004
35.2551003 -41.4375 5.93879986
35.2441483 -41.5203018 6.2442503
35.2340012 -41.5859985 6.53450012
35.3007011 -41.4413986 6.7276001
35.2803993 -41.4782486 7.29119968
35.2639008 -41.4998016 7.63399982
35.2258492 -41.543251 7.85454988
35.2871475 -41.5154495 8.53630066
35.2532005 -41.5116005 8.84290028
35.2435684 -41.5485992 9.09203339
35.3078995 -41.4644012 9.20240021
35.2506485 -41.4473 9.69454956
35.2755013 -41.5628014 10.3610001
35.3432007 -41.4248009 10.7755003
35.2579002 -41.4594002 11.4720001
35.2421989 -41.4174995 11.9242001
35.2353973 -41.3381004 6.69420004
35.2448006 -41.244133 6.91820002
35.274601 -41.3227005 7.29379988
35.2593002 -41.226799 7.54250002
35.262001 -41.3227005 8.13599968
35.2265015 -41.2215004 8.26949978
35.2233353 -41.3335991 8.5092001
35.2682991 -41.2392998 9.07339954
35.3311996 -41.3709984 9.36130047
35.2631989 -41.3390999 9.50325012
35.3592987 -41.2298012 9.77000046
35.3003006 -41.2741013 10.7665501
35.2625999 -41.2055016 11.0514002
35.3015327 -41.3599014 11.3300667
35.272049 -41.2687492 11.5682507
35.2792015 -41.2304993 11.7313995
35.3041992 -41.2002983 11.8176003
35.3709984 -41.2823982 12.2434998
35.2370987 -41.0508499 7.08269978
35.2617493 -41.0830002 7.22679996
35.3107986 -41.1025009 7.96920013
35.2333984 -41.1671982 8.18529987
35.2686996 -41.0676003 8.24289989
35.2971001 -41.1973 8.64799976
35.3618011 -41.1387482 10.3371
35.3488998 -41.0765991 10.7658005
35.3306999 -41.0751991 10.8797998
35.3753014 -41.1931 11.158
35.3143005 -41.1094666 11.5622997
35.3698997 -41.0019989 12.0550003
35.2453003 -40.9995995 5.85340023
35.2487984 -40.9337006 6.44460011
35.2117996 -40.8308983 6.69010019
35.2117004 -40.8527985 7.0625
35.2722473 -40.9383469 7.31640005
35.2821999 -40.9870987 7.45839977
35.2104492 -40.9172516 7.63500023
35.2790985 -40.8638992 8.09440041
35.2899017 -40.9729996 8.20460033
35.2644997 -40.8352013 8.53460026
35.3330002 -40.8815002 8.96259975
35.2891998 -40.8014984 9.14050007
35.3411026 -40.8836517 9.66419983
35.2447014 -40.9709015 10.1209002
35.2047005 -40.9300003 10.3642998
35.2602997 -40.9026985 10.4327002
35.2424011 -40.9180984 10.9698
35.2703323 -40.897068 11.2324667
35.3236465 -40.8439026 11.5098
35.3484001 -40.8448982 11.7311001
35.2953987 -40.7845001 6.70919991
35.3871994 -40.6743011 6.88140011
35.3252983 -40.7139015 7.52409983
35.3170509 -40.6984024 7.71994972
35.3624992 -40.7150993 7.97329998
35.3908005 -40.6787987 8.34080029
35.3899994 -40.6857986 8.46809959
35.3077011 -40.6310997 9.18379974
35.3372688 -40.6978683 9.31336689
35.3945999 -40.7456017 9.53339958
35.3368988 -40.7728004 9.91909981
35.2933006 -40.7787018 10.2474003
35.3457489 -40.6445007 10.4797001
35.3759003 -40.6926994 10.8219995
35.2916985 -40.5517006 10.8280001
35.3577003 -40.5793991 11.2086
35.5195007 -43.2159004 12.3381996
35.5878983 -42.8212013 12.1768999
35.5472984 -42.6487999 12.0481005
35.4204025 -41.9521484 11.6920004
35.4227982 -41.8572998 12.3542995
35.4392014 -41.6665993 10.0120001
35.5471001 -41.6897011 12.3150997
35.4239998 -40.6167984 7.04279995
35.4620018 -40.6286011 9.25800037
35.4049988 -40.6901016 9.64330006
35.4263 -40.6641006 11.1499004
35.5076981 -40.6324005 12.0957499
35.457901 -40.5610008 7.3291502
35.4571991 -40.5810013 8.22649956
35.4679985 -40.5698013 8.53530025
35.4236984 -40.4002991 9.0067997
35.5037003 -40.4401016 9.75399971
35.4684982 -40.5478516 9.85630035
35.4322014 -40.5597 10.0326996
35.4216003 -40.4687004 10.9331999
35.7293015 -42.2290001 12.2194004
35.6138992 -41.0307007 12.2383003
35.6537018 -40.6697006 7.20030022
35.6808014 -40.5582008 9.15890026
35.6792984 -40.4936981 9.50080013
35.7052002 -40.5335007 10.9815998
35.7276001 -40.4569016 11.4582996
35.6152992 -40.4126015 12.0897999
35.7770996 -40.5932999 12.3032999
35.9095001 -42.8557014 12.2566004
35.9804993 -42.6297989 12.3656998
35.9793015 -42.5121994 12.2627001
35.8984985 -42.3965988 12.1758003
35.971199 -40.6136017 8.90460014
35.8170013 -40.7341003 12.2227001
35.8875008 -40.5561981 6.97100019
35.8806 -40.5488014 8.91539955
35.8891983 -40.5241013 11.4261999
36.0304985 -41.7501984 11.9179001
36.0172005 -41.5021019 12.0525999
36.0500984 -40.6612015 11.9779997
36.1869011 -40.634201 12.2746
36.1268005 -40.5419998 7.13290024
36.0803986 -40.5512009 8.51889992
36.1034012 -40.5816002 10.0872002
36.081501 -40.5575981 11.0605001
36.341301 -43.0575981 12.2402
36.3143005 -41.8852997 12.1974001
36.3196983 -41.6559982 12.2612
36.276001 -41.4709015 12.1570997
36.2957993 -40.6100998 6.4137001
36.2611008 -40.6245003 7.57859993
36.2611008 -40.6138 8.60529995
36.3046989 -40.5728989 6.81930017
36.3264008 -40.5046005 7.87909985
36.3486481 -40.516449 8.3206501
36.2435989 -40.3639984 11.1920004
36.2825012 -40.3522987 11.7065001
36.4762001 -43.3022003 12.3793001
36.4891014 -41.8105011 12.2840996
36.4352989 -41.9772987 12.4047003
36.5796013 -40.9842987 12.0557003
36.4297981 -40.6105995 6.81080008
36.5965996 -40.6400986 8.1633997
36.5826988 -40.6012993 8.47999954
36.5357018 -40.618 8.97469997
36.5215988 -40.5652008 6.34950018
36.5950012 -40.5890999 6.40530014
36.5346985 -40.5845985 6.98780012
36.5738983 -40.5405998 7.39830017
36.4129982 -40.5415993 9.19040012
36.5575981 -40.5466995 10.8098001
36.5354004 -40.5969009 12.3783998
36.7178993 -41.4431992 12.3706999
36.7142982 -40.6320992 8.04510021
36.6515007 -40.6654015 8.3057003
36.6299019 -40.5031013 7.39230013
36.6570015 -40.544899 7.78149986
36.6128006 -40.5061989 8.68350029
36.6997986 -40.5182991 9.01860046
36.6200981 -40.5121994 9.375
36.7048988 -40.5200005 11.7727003
36.7919998 -40.4897003 12.2361002
36.851799 -40.6188011 7.29460001
36.8566017 -40.5642014 6.87680006
36.9367981 -40.577549 7.46370029
36.9864998 -40.5644989 8.14039993
36.8690987 -40.593399 8.36800003
36.9410019 -40.5208015 8.71459961
36.9807014 -40.4780006 9.64330006
36.8980026 -40.4953003 10.0392494
36.8562469 -40.4761009 10.2926502
36.8143997 -40.4994011 10.5840998
37.1132011 -47.8087997 1.87720001
37.1978989 -47.7689018 2.29870009
37.1631012 -41.223999 12.2620001
37.0858002 -41.1818008 12.3030005
37.0778503 -40.9322968 12.1483002
37.0610008 -40.6188011 7.51119995
37.0343018 -40.5792007 6.27260017
37.0681496 -40.5377502 7.08150005
37.1601982 -40.5802002 7.91870022
37.0442009 -40.5803986 8.75119972
37.1030006 -40.5900993 11.6726999
37.3835983 -47.8218994 2.39689994
37.3742981 -40.6255989 7.9691
37.3937988 -40.5955009 9.16639996
37.2169991 -40.5522995 9.37380028
37.5098991 -40.4905014 6.01730013
37.4813995 -40.5241013 7.34609985
37.5326996 -40.4891014 8.81019974
37.4347992 -40.4641991 9.68179989
37.4854012 -40.4319992 10.1597996
37.7187996 -52.7678986 0.103600003
37.6861 -41.2919998 12.1829004
37.6069984 -41.175499 12.3266001
37.7554016 -40.6531982 6.39169979
37.7738991 -40.5856018 7.35379982
37.6784973 -40.5552521 9.16250038
37.7294006 -40.4692001 10.7017002
37.6152992 -40.542099 11.2371998
37.9314995 -41.6598015 12.1021996
37.8568001 -41.4389 12.1789999
37.9729004 -40.9244995 12.1503
37.9528999 -40.6099014 11.9055004
37.8300018 -40.5651016 6.66580009
37.8293991 -40.5165482 8.10214996
37.9033012 -40.5880013 8.35219955
38.1395988 -41.206501 12.2771997
38.1348991 -40.8860016 12.0143995
38.1781006 -40.615799 7.1420002
38.1008987 -40.5863991 6.42070007
38.155201 -40.5901985 6.99800014
38.0275002 -40.573101 7.13859987
38.1091003 -40.5689011 7.50139999
38.0023003 -40.549099 8.44740009
38.0934982 -40.5432014 9.5539999
38.1132011 -40.5299988 9.79570007
38.0110016 -40.4692993 9.95170021
38.0421982 -40.4530983 10.9182997
38.1338997 -40.4472008 11.1134996
38.3628998 -41.608799 12.1809998
38.3732986 -41.2388 12.2797003
38.2029991 -40.587101 6.92080021
38.2417984 -40.5126991 8.15569973
38.3594017 -40.5321007 8.90939999
38.5098991 -49.6500015 -0.0208000001
38.5456009 -49.6249504 0.286500007
38.4221992 -49.4499016 0.1043
38.5344009 -41.785099 12.2021999
38.4637985 -41.1613998 12.0740499
38.4585991 -40.9777985 12.1666002
38.4084015 -40.6114006 7.89580011
38.598999 -40.5196991 8.39690018
38.6321983 -47.8490982 1.88789999
38.7060013 -47.835701 2.05690002
38.6320992 -41.6386986 12.1344995
38.7621002 -41.2618027 12.1195498
38.7486 -40.6178017 6.68690014
38.6950989 -40.7377014 12.2128
38.7849998 -40.5357018 7.00489998
38.6791 -40.5740013 9.10509968
38.8664017 -40.9544983 12.1322002
38.8785019 -40.9757004 12.2985001
38.9832993 -40.5999985 8.03250027
38.9253006 -40.5817986 8.53460026
38.8717003 -40.5467987 9.15880013
38.9084015 -40.4908981 10.8218002
39.1985016 -48.1097984 2.71989989
39.0208015 -47.9524994 1.38689995
39.0937996 -40.6236992 6.61609983
39.1582985 -40.6512985 7.38460016
39.0421982 -40.5834007 5.88619995
39.0056992 -40.5294991 7.85050011
39.1180992 -40.5424995 9.18360043
39.2366982 -41.2527008 12.2030001
39.3496017 -40.6010017 9.47770023
39.3028984 -40.5442009 6.73430014
39.2859993 -40.5098 7.88199997
39.3103981 -40.5101013 8.17570019
39.3047981 -40.5486984 8.25080013
39.2830009 -40.5397987 8.68150043
39.2396011 -40.5612984 9.17949963
39.2736015 -40.5070992 9.38010025
39.4435005 -41.4474983 12.1468
39.4249992 -41.1655006 12.1162996
39.5581017 -40.5732002 7.61490011
39.5461998 -40.5769997 7.9934001
39.4999008 -40.5167999 8.37220001
39.4514999 -40.5609016 9.1342001
39.5069008 -40.4782982 9.9307003
39.4945984 -40.5036011 10.4006996
39.4398994 -40.5864983 11.0766001
39.5979004 -40.3358002 10.5797005
39.5354996 -40.3818016 10.8733997
39.7346992 -41.4644012 12.1308002
39.6562996 -41.0083008 12.2393999
39.7966003 -40.637001 7.5152998
39.7966003 -40.6044998 9.08600044
39.719799 -40.6459007 10.6647997
39.6299019 -40.6665993 11.0113001
39.7364006 -40.4710007 6.24529982
39.6575012 -40.5589981 6.88310003
39.7318993 -40.5699997 8.66349983
39.6922989 -40.4809494 8.89719963
39.6427994 -40.5149002 10.4357996
39.6257019 -40.293499 10.1190004
39.6278 -40.3931999 10.5139999
39.6924019 -40.3597984 10.7330999
39.8618011 -47.8101006 1.83599997
39.8785515 -41.4545517 12.2197495
39.8941002 -41.2910995 12.1227999
39.9816017 -41.0998993 12.2425003
39.8708992 -40.5517998 7.28469992
39.9112015 -40.5797997 8.9375
39.9557991 -40.4449005 10.2910995
39.8120995 -40.4569016 11.3865995
39.8184013 -40.4257011 11.7390003
