# .PCD v0.7 - Point Cloud Data file format
VERSION 0.7
FIELDS x y z
SIZE 4 4 4
TYPE F F F
COUNT 1 1 1
WIDTH 2178
HEIGHT 1
VIEWPOINT 0 0 0 1 0 0 0
POINTS 2178
DATA ascii
60.0548325 20.7297668 0.722000003
60.1827011 21.0727997 0.886500001
60.1911011 21.7434998 1.41789997
60.1035004 23.2182007 -2.78649998
60.1138 24.1742001 -2.79850006
60.1226997 25.8572998 -0.752099991
60.0411987 29.9633007 -3.13490009
60.2286987 20.3526993 0.7949
60.2607498 20.5679512 0.720799983
60.3844986 21.1047001 1.19350004
60.2893486 21.2322006 1.17475009
60.3153 21.7362003 -2.64820004
60.2210999 21.8078995 1.56760001
60.3353004 22.7294998 2.77340007
60.2969017 23.1723995 4.37830019
60.3670006 23.2493992 1.7536
60.3377991 23.2219009 3.25979996
60.3111992 29.4207993 -3.02979994
60.2937012 30.1035004 -3.24670005
60.5544014 21.0442009 0.741999984
60.4292984 21.1187992 0.828499973
60.4449997 21.1655006 1.17429996
60.5413513 21.2580986 0.269400001
60.5047989 21.5522003 -0.905499995
60.4146996 22.8904991 2.8815999
60.5700989 29.0765991 -1.25170004
60.7322006 20.7038002 1.02499998
60.6749001 20.9687996 0.625500023
60.6216011 21.2000008 0.357300013
60.6733017 21.2637005 0.631600022
60.6064987 21.3316994 1.38709998
60.7672005 21.4846001 -0.777700007
60.7653008 21.5970993 -0.51910001
60.7153015 22.7947006 1.86430001
60.7538986 22.89785 2.91279984
60.7738991 23.2392998 3.35450006
60.7088013 23.8414993 4.04979992
60.9285011 20.8978996 0.756799996
60.8278008 21.0056992 1.10889995
60.8808975 21.6235504 0.32069999
60.9917984 21.7651005 0.605700016
60.9696999 22.4347 1.84749997
60.8339005 22.8913002 2.82559991
60.8782005 23.1107006 2.94580007
60.8581009 23.1135998 3.58189988
60.8673019 23.0712013 3.71705008
60.9931984 27.0725002 3.06469989
61.1716003 22.2880001 1.76030004
61.0763016 22.3369007 1.84749997
61.0951996 22.4603004 0.50849998
61.1036987 22.4283009 1.74090004
61.1679001 22.6847 1.25610006
61.0301018 22.6658001 1.62880003
61.0037994 22.9666004 1.50440001
61.1380005 23.4577007 0.244399995
61.1955986 24.6553993 -0.315200001
61.1221008 25.3199997 0.00359999994
61.0824013 28.5695992 -1.58519995
61.2540016 21.8610001 -0.157499999
61.3506012 22.2087994 0.930299997
61.2568016 22.2311993 1.67739999
61.3823013 22.7726994 0.271600008
61.2975006 22.6520996 1.22130001
61.3763008 22.9850998 1.13259995
61.3359985 23.0835991 3.8197
61.3358994 23.2205009 3.7572999
61.2652016 23.5200005 3.15140009
61.2234993 23.4200001 3.2184999
61.3913994 23.6534996 3.05349994
61.2196999 23.8472996 1.68509996
61.3352013 24.6147995 -0.216600001
61.2102013 24.6200008 0.180700004
61.2131996 24.6186008 0.333099991
61.2771988 24.6529007 1.13180006
61.2314987 27.7709999 -0.0551000014
61.3008003 28.1406002 2.11229992
61.3499985 29.6931 -0.407599986
61.4794502 22.7862511 0.53610003
61.4273987 22.6135998 1.59829998
61.4296989 22.9967995 0.290899992
61.5275993 23.0648994 0.979799986
61.5256004 23.0802002 1.04700005
61.4113998 23.5832005 3.38590002
61.5228996 23.6259995 3.62299991
61.4816017 24.368 0.2139
61.4291 24.3511009 0.915300012
61.4454498 24.4298 1.02810001
61.4574013 24.6564007 -0.145300001
61.4659996 29.6431007 -0.774699986
61.5094986 30.1368999 -0.0302000009
61.7541008 22.8572998 0.263200015
61.7087021 23.0091496 1.06145
61.6013985 24.6149998 1.09990001
61.639801 27.0545006 2.13969994
61.6929016 29.2950993 1.61269999
61.8848 22.8931999 0.291099995
61.8930016 24.3533993 -0.165600002
61.9099998 24.2621002 0.265799999
61.8353004 24.4487 -0.0882999972
61.8916016 26.7115993 3.8526001
61.8470001 26.9496994 2.56410003
61.9935989 27.1317997 1.23029995
61.9056015 27.4668007 -0.137600005
61.8154984 29.0289001 2.27150011
62.1231003 23.9176998 0.354400009
62.1505013 26.9104996 2.59770012
62.1251984 27.0762005 1.17719996
62.1323013 27.6861992 3.10520005
62.3184013 23.9199657 0.0742333308
62.2863007 24.0161991 0.000899999985
62.2005005 27.1623993 1.08770001
62.278801 27.2036991 1.02119994
62.2540016 27.2625999 2.5394001
62.2220001 28.3484993 1.70739996
62.5530014 23.7665005 0.545400023
62.4206009 28.2985992 1.83729994
62.5688019 31.2054996 0.235699996
62.7728996 23.8234005 0.213400006
62.7616997 28.1662998 2.32850003
62.7165985 28.2171001 2.20619988
62.7793007 30.2532997 0.45539999
65.5991974 24.7525005 0.464899987
65.5167999 24.8426991 0.430099994
65.4597015 26.0692005 0.238800004
65.4681015 26.8019009 0.0239000004
65.7927017 23.4806004 0.881699979
65.7888031 23.5673008 1.16390002
65.695549 24.6987495 -0.152199998
65.6927032 24.7073002 0.478049994
65.6056976 25.9976006 0.214900002
65.7546005 26.1923008 0.920300007
65.7270966 26.9955997 1.13789999
65.9104004 23.4249001 0.528299987
65.8792038 23.4213009 0.889500022
65.9141998 23.5090008 1.09759998
65.8796005 24.1025009 0.316599995
65.8457031 24.0846004 0.474400014
65.9817963 24.5790005 2.77349997
65.8367004 24.7075005 0.420100003
65.8824005 24.8342991 0.28490001
65.9284973 25.4244995 0.156000003
65.9972 25.5412006 1.29789996
65.9585342 26.1052341 -0.148266673
65.8395996 26.1320992 0.00789999962
65.8283005 26.0175991 0.227799997
65.8327026 26.2987995 -0.242899999
65.8789978 26.3852005 1.31579995
65.9589996 26.3551998 1.44879997
65.9574966 26.6466999 1.83889997
66.1841965 23.2359009 0.466699988
66.094902 23.3598995 0.645399988
66.1575012 23.7213993 0.0612999983
66.138298 24.3642006 0.0487999991
66.0557022 24.2747002 0.294
66.1600037 24.4120998 0.0863000005
66.1740036 24.7658005 3.38549995
66.0734482 24.9186001 3.11715007
66.0850983 25.1616993 0.813799977
66.1432953 25.3850002 0.0887499973
66.0646973 25.5112 -0.0957000032
66.1607971 25.4941998 0.0348000005
66.0126038 25.4853992 1.3944
66.0814972 25.7245007 -0.522099972
66.0715027 26.0415993 0.674099982
66.1164017 26.3379002 1.32089996
66.1651993 26.3022995 1.80379999
66.1921997 26.4349995 1.93359995
66.0625 26.6102009 1.62699997
66.0771027 26.6595993 2.12120008
66.3581009 22.0939007 1.10039997
66.3796005 22.9333992 0.504599988
66.2963028 22.8393993 1.00209999
66.3501968 23.1870995 1.16100001
66.2225037 23.4955997 0.983500004
66.3815002 23.5058002 1.09560001
66.3893967 23.6571999 0.0807999969
66.2818985 24.1317997 0.39230001
66.3106995 24.2691994 0.404100001
66.3317337 24.4948006 2.70729995
66.3718033 24.4482002 2.87299991
66.2480469 24.4811497 3.079
66.2396011 24.4636993 3.25900006
66.3145981 24.7877007 -0.179199994
66.2421036 24.7777996 3.26270008
66.3192978 24.8448009 -0.324000001
66.2608032 24.8977509 2.73094988
66.2060013 25.0207005 2.60339999
66.2143021 25.6678009 -0.462500006
66.3834991 26.2528 1.60510004
66.3211975 26.2049007 1.85759997
66.3630981 26.5755997 -0.790600002
66.3255997 26.7903004 -0.703800023
66.2607498 26.9558487 -0.902649999
66.493103 21.9512997 0.959900022
66.4589996 22.0980492 0.793550014
66.5100021 22.0970001 0.826499999
66.4262009 22.9055996 0.592599988
66.4861984 23.1511002 1.09819996
66.4807968 23.1061001 1.21370006
66.4285965 23.2017994 1.10140002
66.5316467 23.7006989 0.0995000005
66.4693985 24.1252003 0.637600005
66.5780029 24.3554993 2.76060009
66.5763016 24.3183002 2.8217001
66.4684982 24.3507004 3.07459998
66.5118027 24.4046993 0.391799986
66.4512024 24.4164009 2.7967999
66.5044479 24.7416 2.49819994
66.401001 24.8642998 2.19630003
66.4623032 24.8785992 2.47390008
66.5838013 24.9529991 3.36630011
66.5358505 25.5004997 -0.317999989
66.5574036 25.7907009 2.2046001
66.5319977 26.1763 1.70340002
66.4654007 26.1618004 2.0467
66.5270996 26.3729992 -0.731400013
66.4212036 26.2618008 1.94289994
66.4173965 26.4297009 -0.875899971
66.5543976 27.0330009 -1.17089999
66.7204971 21.9113998 0.952300012
66.7268982 22.1247997 0.507600009
66.760498 22.2021008 0.651000023
66.6839752 22.8792496 0.500174999
66.7268982 23.0046005 1.329
66.7683029 23.0466995 1.42120004
66.740097 23.7465992 -0.333400011
66.626297 23.6646996 -0.0461999997
66.6598969 23.6523991 0.0535000004
66.7201004 24.3181 0.478599995
66.7583008 24.4496002 2.76830006
66.7145004 24.8858986 2.28595018
66.7529984 24.9554996 3.15949988
66.7180023 24.9538002 3.41950011
66.6816025 25.1395493 -0.267800003
66.7926025 25.1480999 -0.0715999976
66.7974014 25.0890999 1.87240005
66.7341995 25.7581005 -0.633700013
66.7762985 25.9099998 -0.42899999
66.7552032 25.8687992 2.1730001
66.6486969 26.0944996 1.68980002
66.6090012 26.1993008 2.11229992
66.7397003 26.1695995 4.25019979
66.6965027 26.2220993 4.41209984
66.6459961 26.9468002 -1.2183001
66.7818985 28.3218994 -0.443500012
66.8567963 22.8222008 0.532400012
66.8607025 23.0517006 0.386599988
66.8703003 23.3432999 0.816500008
66.8240967 23.5538998 -0.0241
66.8198013 23.7096004 -0.271800011
66.9968033 23.6394005 0.315400004
66.8314972 24.1718006 2.7513001
66.9259949 24.3099499 0.295749992
66.8037033 24.2686996 0.488700002
66.8845978 24.2360001 2.28084993
66.8284454 24.2639999 2.50750017
66.941803 24.5419998 4.33500004
66.9722977 24.7057991 3.05730009
66.9505005 24.9463005 -0.28490001
66.8571014 24.9848003 2.01230001
66.8033981 24.8530006 3.06329989
66.906601 24.9521008 3.35829997
66.8680496 25.0545006 1.6331501
66.8253021 25.0813999 1.81799996
66.860199 25.0447998 2.05110002
66.8766022 25.7759991 1.91170001
66.9298019 25.9088001 -0.560899973
66.8407974 25.8453999 2.00950003
66.9132004 26.2215996 1.64760005
66.9039993 27.9901009 -0.840600014
66.9014969 34.2523003 -0.993300021
67.0856018 20.2614002 -1.46210003
67.1596985 20.2366009 -1.24290001
67.1376038 20.5716 -1.47090006
67.1007004 20.5 -1.38049996
67.0903015 21.8945007 0.913299978
67.1164017 21.9526005 1.11360002
67.1296005 22.5060005 0.413599998
67.1052551 22.8853989 1.43184996
67.1371994 23.3138008 0.140799999
67.1118011 23.5221996 0.0676999986
67.1672974 23.5671005 3.04719996
67.1752014 23.7404003 2.93950009
67.1175995 24.1478996 2.40860009
67.1036987 24.2917004 1.61829996
67.0875015 24.4528999 2.8197999
67.0317001 24.5181999 4.4131999
67.1744003 24.7833996 3.27200007
67.0385971 24.9983006 1.99829996
67.1313019 24.9589996 3.3217001
67.0832977 25.3285999 2.26430011
67.1179047 25.72855 -0.508899987
67.0278015 26.1690998 4.17019987
67.1062012 26.9993992 -1.18570006
67.1984024 26.8069992 -0.81220001
67.0901489 27.0449486 -1.08139992
67.1464996 34.2944984 -1.2464
67.3095016 20.1287994 -1.61010003
67.2548981 20.0280991 -1.56850004
67.2167969 21.9655991 0.801800013
67.214798 21.9190998 1.10769999
67.3143997 22.1051006 0.819700003
67.3717041 22.3498001 1.29259992
67.3544998 22.2161007 1.4066
67.382103 22.4146996 1.08770001
67.3574982 22.6149998 1.22379994
67.2525024 22.894249 0.478500009
67.3782959 22.8717995 0.702250004
67.2073975 22.8491001 1.56760001
67.353302 23.2220993 -0.0654999986
67.2143021 23.3528996 0.0807999969
67.3668976 23.3488007 3.2586
67.2201996 23.4724007 0.281500012
67.3226013 23.5515003 3.61150002
67.2791443 23.627449 2.95149994
67.3808975 23.6424007 3.04099989
67.3227997 23.6882992 3.24710011
67.3654022 23.8204994 2.62080002
67.3061981 24.1289997 2.15799999
67.2013016 24.2882996 1.71519995
67.3902969 24.5007992 3.31730008
67.2637482 24.4813004 4.27970028
67.2947998 24.4286995 4.40030003
67.3303986 24.6215 4.05999994
67.2478027 24.8549004 3.36159992
67.2553024 24.9764004 4.01959991
67.2505035 25.0461998 1.68980002
67.3712006 25.7924004 -0.514199972
67.3497009 25.6296997 1.80649996
67.2306976 26.9048996 -1.33379996
67.3602982 26.9351006 -1.08560002
67.2995987 27.2357006 -0.385199994
67.3190994 27.6833 -0.802399993
67.3488998 28.2940006 -1.19509995
67.2142029 33.5139999 0.880200028
67.3566971 33.7641983 2.22099996
67.2677994 33.8627014 0.347900003
67.2040024 34.0526009 1.08080006
67.27565 34.2235985 -1.10494995
67.4979019 20.0480003 -0.997300029
67.553299 21.6047001 1.75800002
67.5410995 21.9298 1.36290002
67.5522995 21.8428001 1.45270002
67.4037018 21.9750004 1.63250005
67.4477997 21.8388004 1.84019995
67.4875488 22.082901 0.959800005
67.5037994 22.1331997 1.35070002
67.5083008 22.1117001 1.49899995
67.4166031 22.0121002 1.60029995
67.473053 22.2869492 0.71875
67.4377975 22.3148003 0.896099985
67.4396973 22.9720993 0.586300015
67.5291977 22.8339005 0.63410002
67.5821991 22.9913006 3.57139993
67.4381027 23.1597004 -0.171399996
67.4263992 23.1858997 0.180899993
67.5848007 23.1660004 3.23880005
67.4559021 23.3747997 3.00230002
67.4369965 23.2628994 3.2335999
67.4227982 23.5114002 0.281899989
67.4542999 23.4780006 0.439900011
67.5681 23.5955009 1.63800001
67.4990005 23.4804993 1.92920005
67.5178986 23.7466011 1.58135009
67.5087967 23.7297001 1.74450004
67.5276031 23.6466007 1.83829999
67.5249023 23.7761993 2.68449998
67.5357971 23.6562996 2.86045003
67.4564972 23.9606991 0.451200008
67.4628983 24.156601 1.61629999
67.5446014 24.2057991 1.97039998
67.596199 24.2047005 4.5388999
67.569603 24.2849998 4.62209988
67.5938034 24.5282993 2.45409989
67.4257965 24.5084 3.58159995
67.4498978 24.6033001 3.98219991
67.5422974 25.3271999 2.25500011
67.5932999 25.8295994 -0.2958
67.5672989 25.8532009 2.27509999
67.4347 25.8512993 2.42079997
67.4531021 27.8015995 -1.13639998
67.5263519 28.3258514 -1.69725001
67.5911026 32.9945984 2.46700001
67.5809021 33.5797005 0.459399998
67.5820007 33.7708015 0.928300023
67.6716003 20.0323009 -1.26820004
67.7966995 21.2259998 -3.40370011
67.7093964 21.2611008 0.343300015
67.6418991 21.3529015 0.527199984
67.7539978 21.4099007 0.267100006
67.7752533 21.5611 1.54135001
67.6853485 21.7167511 1.49009991
67.6225967 21.6576004 1.72309995
67.7184982 21.6117992 1.83019996
67.643898 21.9209995 0.853399992
67.7268982 21.8367004 1.30745006
67.7585449 22.0448494 1.24454999
67.7289963 22.3290997 0.977599978
67.6886978 22.9860992 3.52250004
67.7680969 23.1786995 2.83820009
67.6050034 23.1683006 3.17810011
67.7984009 23.0209999 3.2111001
67.7516022 23.3712006 0.188199997
67.6981964 23.3838005 0.394899994
67.6463013 23.3423004 2.92020011
67.7611008 23.4498997 0.0542000011
67.6687012 23.7908993 2.49559999
67.6158981 23.9262009 0.489399999
67.6147995 23.8216991 2.58960009
67.7124023 24.1492996 4.15380001
67.7464981 24.3405991 4.6868
67.7285995 25.2129993 2.2592001
67.6789017 25.6907005 2.3763001
67.7009964 27.1392994 -0.760299981
67.6779022 27.9090004 -1.16700006
67.7897034 32.8564987 -0.527100027
67.7397995 33.537899 -0.528500021
67.6519012 33.6251984 -0.474999994
67.7427979 34.8504982 1.65090001
67.6959534 35.1310501 -1.55725002
67.7929001 37.0191994 -1.9655
67.778595 37.2413025 -2.27445006
67.6429977 37.6012001 -1.62129998
67.992897 21.1912994 0.319700003
67.990303 21.3288994 -2.9144001
67.9532013 21.5273991 1.58329999
67.8186035 21.5963993 1.72309995
67.8735962 21.5541 1.89610004
67.8815994 22.0454998 0.703599989
67.8442993 22.2387009 1.43340003
67.8676987 22.4333992 -3.44689989
67.9756012 22.4687996 0.848100007
67.9524002 22.8680992 -0.298099995
67.8515015 22.9081993 3.14599991
67.8659973 23.0226994 -0.471899986
67.8544998 23.0827007 -0.273099989
67.9056015 23.0974007 2.86339998
67.802803 23.0023994 3.32929993
67.8922501 23.0392494 3.52125001
67.8691025 23.3623009 -3.64299989
67.8991013 23.4211998 0.2852
67.8973999 23.4710999 0.548099995
67.9393997 23.6564999 3.9519999
67.8831024 23.8041 -3.48939991
67.8414001 23.8419991 1.79030001
67.9906998 23.9757004 1.81459999
67.9276962 23.8227997 4.12090015
67.9809036 24.1916008 2.07509995
67.9654007 24.0587997 4.12599993
67.9814987 24.5466003 -3.71210003
67.9682999 25.7061996 -3.80699992
67.9414978 25.7626991 2.58500004
67.9166031 26.0802002 -3.77659988
67.8582001 27.2353992 -0.592700005
67.9509964 27.7721004 -1.04130006
67.8534012 27.9981003 -1.37670004
67.8886566 28.1044998 -1.61925006
67.9332962 28.2928009 -1.37129998
67.8995972 32.5103989 2.34949994
67.9906998 32.7347984 -0.783800006
67.8553009 33.1453018 -0.462099999
67.802002 33.3518982 -0.263300002
67.9049988 33.3599014 -0.170200005
67.9533997 34.2860985 -0.879499972
67.9023972 36.9350014 -2.22550011
67.9860992 37.125 -2.15450001
68.177002 20.0209999 -1.55680001
68.1453018 20.0235996 -1.1961
68.1849976 21.1763992 -3.05929995
68.169899 21.1809006 -2.64599991
68.1793976 21.1658001 -1.00139999
68.1713028 21.3780003 -3.16350007
68.0506973 21.3910007 -2.80259991
68.0875015 21.3116493 -1.9368
68.0669022 21.2056007 -0.788299978
68.0101471 21.259449 -0.532999992
68.1054993 21.2396507 -0.232899994
68.1949997 21.3932991 0.0785999969
68.1421509 21.2915993 1.74559999
68.0174026 21.5368996 -3.48959994
68.1880035 21.4757004 1.38810003
68.1020508 21.4076004 1.72460008
68.0980072 21.4670506 1.89614999
68.1377029 21.7702999 1.07840002
68.1850967 22.2744007 0.855700016
68.083252 22.4914513 1.07315004
68.0653 22.7756004 -0.196600005
68.0821991 22.9116001 -0.404300004
68.0643997 22.8947506 -0.306800008
68.0438004 22.9244003 3.20740008
68.0970001 23.0310993 2.91140008
68.1140976 23.5797005 0.00980000012
68.0438004 23.4556999 0.2755
68.123497 23.5576992 4.35039997
68.1240311 23.5275326 4.49813318
68.1445999 23.6273994 2.2348001
68.0643997 23.6238003 4.16620016
68.0338974 23.8381996 3.94560003
68.0899506 23.8736992 4.05284977
68.0165024 24.0884991 2.08200002
68.0568008 24.2801991 -3.83089995
68.092598 25.7831993 2.4598
68.0513992 27.2549992 -0.380800009
68.115303 27.4071999 -0.885500014
68.1836319 27.7035332 -0.904666662
68.0495987 27.8712006 -0.993600011
68.1556015 28.1658993 -1.52849996
68.1397018 32.8429985 -0.737800002
68.1433029 32.9098015 3.52679992
68.0194016 35.9751015 -0.337099999
68.0907974 36.9875984 -2.08599997
68.3249512 21.1026001 -3.30000019
68.3132019 21.1397991 -2.83410001
68.2749023 21.1543999 -2.5374999
68.2479019 21.1896 -2.16109991
68.3867493 21.1619987 -1.93024993
68.2436981 21.1921005 -1.67630005
68.2680969 21.1723003 -0.966099977
68.2717972 21.2395992 -2.3131001
68.3097992 21.2612 -1.93089998
68.2794037 21.2675991 -0.0162000004
68.3262024 21.2653999 0.0263
68.3591461 21.2726994 0.251800001
68.2641449 21.3238506 1.68515003
68.2769012 21.3631001 2.1085999
68.3901978 21.6278 1.29659998
68.2527008 22.2518005 0.614499986
68.2180023 22.4820995 1.11759996
68.2640991 22.7437992 -0.4296
68.3925018 22.7346001 -0.247899994
68.2451019 22.7183495 -0.154899999
68.2746964 22.8992004 -0.412
68.2922974 22.9214001 3.04970002
68.2484665 22.9445667 3.4574666
68.2941437 22.8361511 3.73169994
68.3311691 23.2985001 3.09870005
68.3651962 23.2695007 3.22350001
68.3562012 23.5210991 4.45550013
68.3170471 23.6723003 4.1409502
68.2815018 23.6704998 4.50169992
68.3917999 23.8269997 0.343600005
68.2667007 23.8869991 3.954
68.3223038 24.0900993 0.457100004
68.2414017 24.1636009 3.852
68.3968964 27.2091007 -0.997500002
68.348999 27.3880005 -0.765500009
68.3352966 27.2315998 -0.466899991
68.3719025 27.4141006 -0.335200012
68.2195969 27.6811008 -0.992999971
68.3761978 27.9661999 -1.51629996
68.3406982 28.2056007 -1.51479995
68.3569031 33.165699 -0.205899999
68.3212967 36.6271019 -2.02990007
68.4092026 21.1870995 -2.57739997
68.5126038 21.1707001 -2.26480007
68.4925995 21.0063992 -2.04999995
68.4742966 21.1767998 -0.237399995
68.4772034 21.1636009 -0.0542000011
68.469902 21.2250996 -0.763800025
68.4888 21.2702999 0.1919
68.4966965 21.2747002 0.297699988
68.5363998 21.3901997 0.466500014
68.4438019 21.4176006 0.538900018
68.4935989 21.4608994 1.80309999
68.5822983 21.6847 1.11029994
68.5811996 21.8596001 0.984499991
68.5628967 21.9540997 2.4914999
68.4994965 22.1779995 0.534399986
68.5888977 22.1826 0.888999999
68.4757004 22.1061001 2.3506999
68.5907974 22.0086994 2.46350002
68.5465012 22.2709999 0.719299972
68.5267029 22.2462006 0.980000019
68.5157013 22.3337994 1.33739996
68.4166031 22.2812004 3.46160007
68.5809021 22.4927998 0.978900015
68.4569016 23.0247002 2.40930009
68.4698029 23.0550995 3.31609988
68.5229034 23.1040001 3.92420006
68.4384003 23.2401009 0.436199993
68.4064026 23.2427006 2.35770011
68.4779968 23.2103004 3.08890009
68.485199 23.4419994 4.70100021
68.4675446 23.7083511 0.542600036
68.5742035 23.6079998 4.02549982
68.4570007 23.6252003 4.22149992
68.4189453 23.9744492 0.294649988
68.4542007 23.8836002 0.55309999
68.5374985 23.9472008 2.22300005
68.4431992 23.9081001 4.90229988
68.5866013 24.1163006 4.16300011
68.4287033 26.2957993 2.74090004
68.4187012 27.2549 -0.32249999
68.5192032 27.7343006 -0.960099995
68.5444031 27.8985996 -0.931599975
68.5602036 27.875 -0.762600005
68.4704971 28.0687008 -1.60119998
68.553299 28.0445995 -1.36590004
68.5483017 28.2844009 -1.83599997
68.4914474 28.2488518 -1.71704996
68.4124985 34.2094002 3.18569994
68.7117004 21.3246002 0.371800005
68.7176971 21.355566 1.49413335
68.6056976 21.5660992 1.20099998
68.7670975 21.7866993 0.679899991
68.7098999 21.7541008 0.889799953
68.7209015 21.8483009 1.70469999
68.7032013 21.9433002 2.39050007
68.6788025 21.9538994 2.5704
68.6737976 22.0107002 0.559000015
68.7581024 22.2411995 1.24129999
68.6355972 22.2861996 2.95689988
68.6351013 22.2059002 3.03250003
68.6286011 22.5433006 0.558099985
68.7509003 22.7136002 2.74950004
68.6800003 22.8418999 1.2773
68.6384964 22.9524994 3.02029991
68.6850967 22.9316006 3.53979993
68.7913971 23.1706009 3.57119989
68.6412964 23.3864002 4.24230003
68.7114029 23.5666008 0.1796
68.6479034 23.5081005 4.18809986
68.6414337 23.4972343 4.2753334
68.7064972 23.5506992 4.579
68.6271973 23.5188007 4.7191
68.677597 23.6527004 4.48479986
68.6258011 23.8027992 4.25040007
68.7014999 26.6590996 2.53480005
68.7966995 27.3337994 -0.0927999988
68.7938995 27.3715 0.128399998
68.6273956 27.4699497 -0.477200001
68.6328964 27.4475002 -0.282900006
68.6816559 27.8955994 -1.06124997
68.6315994 28.0165005 -1.36699998
68.6639023 28.3943996 -1.90550005
68.7438965 28.4101009 -1.49559999
68.6445007 31.5373001 -0.92900002
68.6023026 32.1130981 -1.05770004
68.7249985 33.0877991 3.2507
68.7453003 34.1557007 5.0145998
68.6643982 34.362999 3.99419999
68.8828964 20.2875996 0.0027999999
68.8178024 21.2238007 0.483700007
68.8915024 21.9267006 1.18169999
68.8883972 21.9414005 3.15779996
68.8519974 22.0373001 1.34720004
68.8321991 22.1937008 2.27789998
68.9483032 22.1224995 2.92350006
68.9701004 22.2374001 0.958800018
68.8626556 22.3021011 2.73789978
68.8237991 22.4794006 0.255899996
68.9003983 22.5212994 0.618099988
68.9100037 22.4745007 3.8275001
68.846199 22.7779999 0.600899994
68.9402008 22.6529999 3.35010004
68.8190994 22.7957001 3.73049998
68.9509964 22.882 1.99059999
68.8945999 22.8754005 2.0710001
68.867897 22.8700008 3.74979997
68.8671036 23.0041008 0.617900014
68.9914017 23.3341007 4.0454998
68.9888992 23.2255001 4.22849989
68.8363037 23.4209995 0.174899995
68.8733978 23.5816994 4.33650017
68.9866028 23.5995007 4.45120001
68.8159027 23.5102005 4.71649981
68.8543549 23.6865997 4.51574993
68.9344025 23.6835003 4.84070015
68.9352036 24.3638 5.54059982
68.9104004 27.4601002 -0.2421
68.9124985 27.4759998 -0.0725999996
68.8566971 27.6797009 -0.458400011
68.8487015 27.9655991 -1.26800001
68.9195023 28.0988998 -1.45659995
68.8107986 28.2084007 -1.48520005
69.0379028 21.5335007 1.43550003
69.0886002 22.0970993 0.926900029
69.0566025 22.2952003 0.361499995
69.1737976 22.5487995 3.45219994
69.1735001 22.7003994 3.48160005
69.078598 23.3120995 4.1868
69.0922012 23.5421009 5.23729992
69.0570984 23.7957993 4.52390003
69.0446014 23.6177006 4.77510023
69.1166992 23.6827507 4.92659998
69.0277023 26.3780994 3.06609988
69.120903 27.5405998 -0.223499998
69.1093979 27.6620998 -0.589999974
69.0926971 27.8910999 -0.741900027
69.0048981 32.9612007 -0.211700007
69.2369003 21.6812992 0.359100014
69.3337021 21.8957005 0.977299988
69.2891998 21.9183006 1.04390001
69.2975998 22.4561005 3.4928
69.243103 22.4640999 3.7335999
69.3827972 22.8680992 2.29410005
69.3343964 22.8642998 2.43409991
69.3815994 22.8768005 4.12459993
69.3733978 22.9179001 4.20860004
69.3500977 22.9179993 4.45860004
69.2232971 23.0937996 2.28920007
69.3412018 23.1611996 4.23549986
69.3984985 23.1996994 4.49940014
69.2355499 23.2410507 2.09934998
69.3485031 23.3148003 4.0394001
69.2783966 23.2409 4.4073
69.3772964 23.4354992 4.52600002
69.2412949 23.7161331 4.67253304
69.3916016 23.6931 4.80179977
69.3485031 25.4890995 -2.85570002
69.3444519 25.5150986 2.69169998
69.2761002 27.6501007 -0.306699991
69.3843994 27.6956997 -0.179299995
69.3231964 27.9972 -1.23020005
69.3046036 27.9713001 -0.939800024
69.2438965 27.8110504 -0.756550014
69.2518997 28.1693497 -1.12384999
69.3102036 28.3666 -1.58249998
69.5437012 20.1245995 -2.3671
69.5255966 20.2226009 -2.5144999
69.4289017 21.7789001 1.79040003
69.5907974 21.8045998 1.16410005
69.5267029 21.8148003 1.36090004
69.5395966 22.5902004 2.53399992
69.4785004 22.4992332 3.33666658
69.4287033 22.6739006 2.57229996
69.5035019 22.6952 3.95679998
69.5196991 22.7978992 4.42889977
69.4916992 22.7476997 4.67160034
69.5661011 22.9134007 4.03989983
69.4549026 22.9501991 4.30009985
69.5597992 23.0974998 3.23650002
69.4237976 23.0058002 4.26170015
69.4693985 23.6924 4.58799982
69.427803 23.9759007 5.58860016
69.4227982 24.1427994 5.26809978
69.5524521 25.3816986 -3.22550011
69.5847015 25.3656998 -2.95950007
69.5681 25.3311996 -2.77609992
69.566597 25.3267002 -0.954100013
69.5344009 25.2789993 0.286199987
69.553299 25.2444992 0.736599982
69.425499 25.3449993 0.817399979
69.4514999 25.3330002 2.96700001
69.5067978 25.5298996 -2.12030005
69.4486008 25.5303993 -1.06930006
69.5534973 27.1345005 0.866900027
69.5816498 27.657299 -0.354350001
69.4295044 28.1669006 -1.06694996
69.5423965 28.3031006 -1.57420003
69.5922012 28.2252998 -1.39989996
69.4436035 33.2055016 3.85409999
69.5927963 33.6265984 -2.11360002
69.4384995 34.0140991 4.99569988
69.4789963 35.9039001 -2.21729994
69.6821976 20.2234993 -2.67400002
69.6275024 21.8132992 1.01750004
69.6274033 21.9062004 1.48160005
69.7770004 22.1818008 1.90219998
69.6126022 22.4743004 3.11159992
69.7463989 22.7744007 2.4151001
69.7288971 22.7486 3.38860011
69.7751999 22.9852009 0.683300018
69.6933975 22.9410992 4.06269979
69.7428513 22.9632492 4.31220007
69.6896973 23.1786003 0.941299975
69.6769028 23.0301991 2.3513
69.7390976 24.1571007 5.09180021
69.6782532 24.2394485 5.08400011
69.6154938 25.3227005 -2.70795012
69.7897034 25.2432995 -2.22149992
69.7167969 25.2757988 -2.05065012
69.7040024 25.2817001 -1.87600005
69.7751007 25.2567997 -1.41919994
69.7524033 25.3066998 -1.21959996
69.6039963 25.3469009 -1.17219996
69.7260971 25.2679996 -0.499000013
69.6503296 25.2772331 0.126599997
69.7105026 26.9151993 1.04770005
69.6368027 27.5477009 0.0379999988
69.7875977 27.9106998 -0.703299999
69.7110977 28.5140991 -1.39100003
69.7712021 33.4466019 -2.7499001
69.8236008 20.1772003 -2.77160001
69.9100037 20.1145992 -1.66830003
69.9951019 20.0627995 -1.59549999
69.8011017 21.4652004 1.45669997
69.8162003 21.6229 1.34609997
69.9420013 22.3971004 0.108199999
69.822403 22.3934002 1.72389996
69.9044952 22.2482986 1.87989998
69.9366989 22.4505997 2.43950009
69.8113022 22.5356998 3.77340007
69.8937683 22.6588001 3.47826672
69.8480988 22.6826992 4.8446002
69.9007034 22.9976997 0.976499975
69.9703979 22.8085995 2.11590004
69.9048996 22.8666992 2.26060009
69.9997025 22.9563007 4.22440004
69.9132996 23.0449009 4.08879995
69.9583969 23.0137005 4.25930023
69.9459991 23.4246006 3.31229997
69.9319992 24.4988003 5.43370008
69.9160004 25.1095009 -3.60520005
69.9856033 25.0909996 -3.55949998
69.937149 25.1077003 -3.30565
69.8292007 25.1750488 -2.93230009
69.8006973 25.3078003 -2.30559993
69.8550034 25.2574997 -2.1960001
69.8349991 25.2416992 -1.96659994
69.8962021 27.4993 -0.196099997
69.8478012 27.9064007 -0.74849999
69.8054962 28.1875 -1.03929996
69.8267975 28.0795994 -0.414400011
69.9088974 28.2847996 -1.62080002
69.841301 33.3470001 -3.67580009
69.8880005 36.0878983 -2.25830007
70.0912018 20.1364994 -1.44679999
70.0186005 21.2877998 1.49870002
70.1376038 21.5477009 1.227
70.1200027 21.4997997 1.45179999
70.1532974 21.7472 0.616599977
70.0354004 22.3778992 0.256300002
70.0912018 22.5205002 2.29110003
70.1186981 22.6634007 2.05710006
70.0161972 22.7980995 3.46210003
70.0953979 22.6924 4.3427
70.1148529 22.7157497 4.51169968
70.0948029 22.8285007 2.74419999
70.1134491 22.9802017 2.92440009
70.1109009 22.8020992 3.17619991
70.1100464 22.9207993 4.37045002
70.0263977 22.8410492 4.47844982
70.1555023 23.0578003 3.01099992
70.0894012 23.0100002 3.45819998
70.0932999 23.2469006 1.12880003
70.0891037 23.2632008 3.12409997
70.1433029 23.3642998 3.21860003
70.0490036 23.8652 5.50670004
70.1032028 24.0536003 4.96470022
70.0776978 25.2518005 -3.42700005
70.0893021 26.8922997 0.418000013
70.1697998 28.5869999 -1.61290002
70.0537033 33.4165993 -3.01999998
70.1389008 33.6041985 -2.34540009
70.1760025 36.6747017 -1.91530001
70.2888031 20.122551 -1.48679996
70.2830353 21.6796341 0.493299991
70.2319489 21.9298 0.312049985
70.2069016 21.9726009 1.89779997
70.2677994 22.5685005 3.38339996
70.2245026 22.6847992 3.12910008
70.3034515 22.7908001 4.82149982
70.2944031 22.8603001 0.628899992
70.3059006 22.9298 2.99009991
70.2080002 22.8756008 4.14440012
70.3481979 23.2770004 1.0855
70.3403015 23.8314991 5.18769979
70.2350998 23.8687 5.2989502
70.3603973 25.0324993 2.47729993
70.3061981 36.0577011 -1.58599997
70.3087006 36.792099 -1.51020002
70.5255966 21.5170994 1.35510004
70.4871521 22.1156502 1.84459996
70.4890976 22.5841007 3.05629992
70.5518036 22.5673008 3.32080007
70.5018997 22.7996006 0.710699975
70.4677963 22.8157005 -3.7184999
70.493103 22.9862003 4.30210018
70.5039062 23.0716496 4.14134979
70.5852966 23.2360992 4.10949993
70.4772034 23.4591007 1.19860005
70.4501038 23.9673004 5.16739988
70.4953995 24.8812008 2.59249997
70.4894028 27.2129993 0.467900008
70.5606003 27.9701004 -1.09099996
70.4983978 28.1341 -0.221599996
70.4468994 35.9528008 -1.8096
70.7227478 21.8295498 1.94210005
70.7108994 22.7464008 -2.79220009
70.7435989 22.7539005 4.34299994
70.735199 22.9186001 -2.78360009
70.6848984 22.8603001 4.47959995
70.7494507 23.1207008 1.13905001
70.7078018 23.1163006 1.34609997
70.6328964 23.0743999 3.99390006
70.6352997 23.1371994 4.06899977
70.6744003 23.0219994 4.21430016
70.6896973 23.4967003 4.50220013
70.6282959 23.7010994 -2.95685005
70.6110992 24.2304001 -3.11899996
70.6228027 24.8581009 2.48219991
70.7835999 32.1470985 -3.28570008
70.8034973 21.8691006 1.85899997
70.9785995 22.5202007 4.60519981
70.9431 22.7614994 0.693899989
70.9552994 22.7980003 4.45240021
70.9487 22.9064999 -3.18370008
70.9100037 23.0216999 4.09569979
70.8038025 23.3724995 3.39689994
70.8630981 23.6327991 -3.10770011
70.8554001 23.7336998 3.98920012
70.9266968 24.1664009 -3.15389991
70.8311996 24.1184998 2.32579994
70.8543015 27.1844997 0.672999978
70.8277969 28.4407997 -1.55639994
70.8588028 31.1987991 -3.30940008
71.0375977 22.2212009 0.280999988
71.1007996 22.3994007 0.495999992
71.014801 22.7780991 4.2249999
71.0970001 22.6809998 4.56820011
71.0341034 22.8318005 0.885599971
71.0852966 22.9745998 3.15540004
71.0254974 23.1685009 2.81299996
71.1531982 23.6889992 3.90584993
71.0498962 25.9025002 3.66090012
71.0250015 26.3882008 0.338200003
71.0215988 26.5869999 0.676599979
71.0879974 27.8817005 -0.408100009
71.1940002 28.0121002 -0.549600005
71.0457001 28.3924999 -0.577499986
71.1415024 28.6483994 -1.28579998
71.0551987 36.1012993 -1.71490002
71.3442001 22.9892998 1.1868
71.2555008 23.1054001 3.9762001
71.3069 23.3456001 3.9625001
71.3855972 23.5300999 3.65140009
71.3283005 23.7131996 2.87010002
71.3531036 23.6648998 3.0631001
71.3973999 23.8127003 2.62249994
71.2903976 24.7985001 4.09679985
71.3134995 24.8931999 3.98469996
71.2556992 24.8437004 4.09520006
71.3030014 25.1320992 4.11140013
71.2244034 25.3666 3.02160001
71.290802 26.9116001 0.765799999
71.3600998 27.2581005 -1.28670001
71.580246 20.3123512 -2.76845002
71.5250015 20.4242992 -2.33870006
71.5429001 22.3747997 0.805899978
71.5254974 22.7716999 1.24469995
71.5335999 22.9554005 1.34420002
71.5597992 23.2509995 3.8657999
71.4248962 23.6874008 2.82369995
71.4889526 23.6348 3.07730007
71.5000992 23.6173 3.24569988
71.4561005 23.9053001 2.66720009
71.5296021 24.1082001 2.62820005
71.5711975 24.7474003 3.72889996
71.4348984 25.4883995 2.98110008
71.5557022 27.2516994 0.0386999995
71.4662018 27.7877007 -0.225199997
71.7498016 20.0995007 -3.17670012
71.6788025 20.1823006 -2.91479993
71.6041031 20.2138004 -3.28110003
71.6704025 20.2250996 -2.8757
71.6190643 20.3099003 -2.33100009
71.7292023 20.3057003 -2.05159998
71.7221985 20.2644005 -1.56480002
71.7664032 20.7206993 2.07809997
71.7903976 20.6816006 2.25460005
71.7562027 20.8031006 2.45519996
71.694603 22.1625996 1.14979994
71.6111984 23.2928009 3.7335
71.7889023 23.4239998 2.62660003
71.7207031 23.5209007 2.96729994
71.6131973 23.5695992 3.32620001
71.6890488 23.898201 2.70504999
71.706398 23.8994999 2.86849999
71.7856979 24.1522007 2.58060002
71.6830978 25.4610004 3.09920001
71.9105988 20.0841999 -3.12930012
71.8256989 20.1987991 -2.64689994
71.8479004 20.2511005 -1.63240004
71.9555969 20.6187992 1.6243
71.8152008 20.8393993 2.77880001
71.9632034 22.2413998 1.22360003
71.8912964 23.1042995 3.8506999
71.8117981 23.7632999 2.78340006
71.8345032 24.3351994 2.3499999
71.9151001 24.6275005 3.7414
71.8330994 27.1210995 -1.55239999
71.8878021 27.5877991 -1.49870002
72.0317001 20.6751995 2.10899997
72.066803 22.7719002 1.46800005
72.0865021 23.7768002 2.94300008
72.0007019 23.6989994 3.15750003
72.1577988 24.3365002 2.52579999
72.1927032 24.3274994 2.6006999
72.1408005 24.3204994 3.68989992
72.1231995 25.6987 2.82629991
72.1846008 26.6891994 -1.20809996
72.1085968 26.8889503 -1.09765005
72.0035019 27.1082001 0.262499988
72.2940979 23.9783993 2.56640005
72.3078995 27.2826996 -1.45179999
72.490448 22.9032497 1.73304999
72.4253998 23.9554996 2.42820001
72.5574036 23.8985004 3.51040006
72.4504013 26.7336006 0.226699993
72.7049026 23.2787991 -3.5703001
72.7690964 23.2597008 -1.92289996
72.7750015 23.6012993 -2.27449989
72.6122971 24.0372009 2.18390012
72.7489014 26.7938004 -2.9763999
72.751503 26.8577003 -3.49499989
72.726799 27.0951004 -2.62240005
72.7869034 33.9996986 -2.74690008
72.617897 34.1030006 -3.40849996
72.9737015 20.1940994 -3.40969992
72.9375992 20.0060005 -2.42709994
72.8051987 20.0056992 -2.36820006
72.8409653 20.1295662 -1.88189995
72.8627014 20.3253994 -2.84050012
72.9080963 20.2938004 -2.31645012
72.8544998 20.3980007 -2.1236999
72.9116974 20.5900002 -2.23720002
72.861702 20.5706997 -1.40369999
72.9562988 20.6194992 -2.61479998
72.8850021 20.7257996 -2.52460003
72.9122009 20.7677994 -1.86555004
72.9770966 20.8803997 -2.92020011
72.8537445 20.9122505 -2.28235006
72.9189987 20.8142509 -2.06960011
72.9910965 20.9894009 -1.5431
72.9690018 21.0450001 -2.09139991
72.9608002 21.0121994 -1.74619997
72.8634033 21.0592995 -1.43729997
72.9328003 21.3237 -2.20939994
72.9541016 21.3348999 -1.9964
72.8879013 21.2794991 -1.64100003
72.8996964 21.4283009 -2.30940008
72.9473038 21.5018005 -2.00410008
72.9814987 21.4153996 -1.97420001
72.9483032 21.9300995 -2.60240006
72.8758011 21.8388004 -2.43490005
72.9000015 22.1786995 -3.04419994
72.8658981 22.3425999 -2.60019994
72.8699036 22.3066006 -2.46630001
72.8771973 22.4622993 -2.38549995
72.8209 22.6567993 -3.21679997
72.8606033 22.7591 -2.96359992
72.9436035 22.7322006 -2.79250002
72.8553009 22.6896 -2.56049991
72.9068527 23.0545998 -2.72835016
72.9376984 23.0307999 -2.07620001
72.8919983 23.2045002 -3.32150006
72.8738022 23.2325993 -2.68070006
72.8243027 23.3145008 -2.15849996
72.8814011 23.5513992 -2.88050008
72.8880463 23.96035 -3.07609987
72.8131027 24.0473995 -2.69079995
72.8555984 24.2691002 -2.52999997
72.9721985 24.2439995 -2.30620003
72.8813019 24.4127007 -2.48390007
72.8255997 24.5349998 -2.12700009
72.8545532 24.6936989 -2.54405022
72.8887024 25.0447998 -3.16179991
72.9599991 25.1481991 -2.62470007
72.9150009 25.3792 -2.7730999
72.9263458 25.6924496 -2.73204994
72.9714966 25.9067993 -2.86680007
72.9054031 25.8463993 -2.34750009
72.9441986 26.0702515 -2.44880009
72.9465942 26.2807999 -2.64435005
72.9872971 26.5333996 -2.41930008
72.9533997 26.6837997 -3.10330009
72.8943939 26.6587486 -2.75784993
72.8668976 26.7973003 -2.45910001
72.9400024 26.8547993 -2.68269992
72.9442978 27.6539001 -2.4131
72.9250031 28.9857998 -2.30679989
72.8811035 29.5482998 -2.66709995
72.8878021 30.3428001 -3.21539998
72.8702011 30.3868999 -2.96449995
72.8690033 30.9150009 -2.72659993
72.9262009 31.2229004 -2.90709996
72.8783035 32.7860985 -3.11310005
72.8023987 33.1725006 -2.73760009
72.8638 33.3889008 -2.65459991
72.9041977 35.7689018 -3.03430009
72.8921967 36.585701 -2.94589996
72.9916992 36.9300003 -2.91409993
73.1119003 20.6739006 -3.44190001
73.0390015 21.0359001 -2.66350007
73.0776978 21.1070995 -2.29410005
73.0487976 21.1551991 -2.11350012
73.0679016 21.2889996 -1.95749998
73.0579987 21.4127998 -1.99440002
73.0531006 21.9496994 -2.46440005
73.0070038 22.5813007 -2.72210002
73.0039978 24.1902008 -2.57369995
73.0240021 24.8521004 -2.60159993
73.0768967 25.5778999 -3.5611999
73.043602 25.8707008 -3.273
73.1094971 27.6236 -3.09960008
73.0754013 27.6935997 -2.74180007
73.0861969 28.3731995 -2.73539996
73.0286026 28.3735008 -2.4605999
73.0301971 28.7602005 -2.67790008
73.0905991 28.9764996 -2.89269996
73.0056 30.3398991 -3.06739998
73.0899963 31.5419998 -3.69650006
73.0718994 31.9209995 -2.76789999
73.0690994 33.8311005 -3.54819989
73.1983032 33.8035011 -2.93729997
73.1317978 36.3903008 -3.66799998
73.1038971 36.4826012 -2.90219998
73.0927963 37.4215012 -3.02859998
73.2116013 35.5219002 -3.71070004
73.2304001 35.726799 -3.19190001
73.2369995 37.2266998 -3.09649992
76.357399 29.2942009 2.21029997
76.3958969 31.6786003 7.56589985
76.365303 31.8584995 7.99730015
76.5177002 25.6340008 3.53449988
76.5943985 27.0284996 11.5091
76.5562973 27.4549999 3.74029994
76.4924011 28.3246994 4.39359999
76.5911026 28.3146992 6.93179989
76.5500031 28.4540997 7.23430014
76.558197 29.0093002 5.28840017
76.4032974 29.1184006 5.64580011
76.4427032 30.0778008 4.9749999
76.4093018 30.3992004 4.86240005
76.5871964 30.3922005 10.6372995
76.493103 30.4671993 10.1591997
76.4354019 30.4641991 10.4441004
76.5014038 31.4866009 8.28209972
76.4598007 31.7770004 7.77720022
76.5353012 31.7429008 7.96540022
76.5830002 31.9733009 7.35230017
76.5766983 32.1593018 5.31629992
76.5643005 32.2042999 10.2118998
76.5644989 35.4985008 12.8571997
76.7508011 23.9592991 8.04529953
76.7052994 24.1159 8.08530045
76.7873001 24.4726009 7.98000002
76.7955017 24.7744999 2.07290006
76.7698975 24.7035007 3.00259995
76.6549988 24.6623993 3.51690006
76.7518005 24.7542 4.17309999
76.7609024 24.7234001 4.25339985
76.7903976 24.6133003 4.53779984
76.7783966 24.7472 4.89690018
76.6071014 24.9974003 2.56069994
76.7711029 24.8638992 3.49259996
76.689003 24.9389 3.77970004
76.6278 24.9554996 4.63619995
76.7851028 24.8094006 5.4612999
76.7994003 24.8539009 7.69680023
76.7572021 24.9741993 8.34130001
76.7176056 24.9298 13.0447502
76.7198029 25.1592999 3.06439996
76.742897 25.0487995 3.73909998
76.7397003 25.0172997 4.6718998
76.7639999 25.0471992 6.04659986
76.7455978 25.0946999 7.44080019
76.7039032 25.1291008 13.3002996
76.762001 25.2516003 2.01900005
76.7341995 25.2434998 4.35010004
76.7129517 25.3598003 5.13584995
76.7829971 25.3651009 5.21430016
76.7956543 25.3034496 7.54909992
76.6679001 25.5573006 2.03590012
76.7455978 25.4442997 2.92720008
76.7129517 25.4742508 3.11269999
76.6201019 25.4703999 3.66529989
76.7127991 25.5223007 4.17269993
76.7608032 25.4228992 4.89279985
76.7631989 25.5424004 5.5532999
76.6027985 25.7301998 2.90470004
76.7242966 25.7789001 4.18660021
76.7927017 25.7042007 5.10020018
76.7945023 25.6408005 5.21390009
76.7650986 25.6401997 6.4355998
76.7773972 25.6588993 6.99940014
76.7974014 25.7026997 10.1618004
76.7098007 25.8470001 3.69230008
76.7258987 25.9662991 3.82349992
76.7325974 25.8495007 4.08860016
76.7929001 25.8197994 4.23659992
76.7116547 25.915451 4.54769993
76.6903992 25.9004993 5.73869991
76.6535034 25.8386002 6.31459999
76.7944031 25.9606991 7.14160013
76.7368011 25.8386002 9.48260021
76.7649002 25.8073997 10.8086004
76.6461029 25.9533997 12.8566999
76.7054977 26.0687008 2.42459989
76.7166977 26.066 2.70609999
76.7693024 26.1830006 4.23649979
76.7725983 26.1040993 4.48360014
76.7502975 26.0298996 4.81010008
76.7909012 26.0762005 5.47429991
76.7718964 26.0056 5.78399992
76.7919006 26.0002003 6.86399984
76.778801 26.1688995 8.82540035
76.7444 26.2583008 3.58640003
76.7250977 26.3209991 3.99909997
76.6134033 26.3017998 4.49620008
76.7584991 26.2220993 5.36749983
76.7721024 26.3469009 5.66279984
76.7903976 26.2763004 6.47580004
76.7746964 26.3950996 7.82539988
76.7714996 26.3868008 12.3968
76.6392975 26.5172997 3.11560011
76.7740021 26.4755993 3.28119993
76.7228012 26.5081005 3.69099998
76.7745972 26.4874992 4.7736001
76.6317978 26.4099007 4.95580006
76.7284012 26.5177002 6.6402998
76.7983017 26.4640007 8.34329987
76.6762009 26.7954998 1.81429994
76.6429977 26.6079998 2.86299992
76.7729034 26.7875004 3.62179995
76.7731018 26.7019997 4.09110022
76.7879028 26.7861996 4.41699982
76.7965012 26.6308994 4.63850021
76.7974014 26.6891003 6.53970003
76.7913971 26.7250996 7.31139994
76.7291031 26.7474003 9.00220013
76.7092972 26.8561001 3.00880003
76.7643967 26.8474998 3.90840006
76.7496033 26.9393997 4.70079994
76.7687988 26.8237 5.17150021
76.7518005 26.9839993 6.12209988
76.7492981 27.0186996 3.40159988
76.6720505 27.1012001 3.95615005
76.7344971 27.1975002 4.04460001
76.7523041 27.1361504 4.61555004
76.7901993 27.1403008 10.0560999
76.7752991 27.2563 4.15290022
76.7834015 27.3840008 5.23220015
76.7856979 27.2586002 6.26140022
76.7606964 27.3395996 7.18790007
76.7565002 27.3267002 9.46319962
76.7942963 27.3078003 10.1358004
76.7974014 27.3292999 11.7351999
76.780098 27.4209995 3.31850004
76.7988968 27.5396004 3.68000007
76.735199 27.41045 5.92605019
76.7598038 27.4393005 6.75519991
76.7881012 27.4622993 7.72770023
76.7911987 27.5855999 8.98820019
76.7337036 27.4969997 12.9855003
76.6576996 27.6732006 3.14919996
76.6800003 27.7623997 4.49399996
76.7955017 27.7101994 5.07019997
76.7568512 27.6903992 5.28810024
76.7559967 27.6060009 13.2635002
76.7646027 27.8959007 3.09699988
76.7630005 27.9750004 3.45749998
76.7438965 27.9295006 4.30660009
76.6985016 27.9333 4.82460022
76.7254028 27.9724998 5.74189997
76.7388 27.9279003 5.9520998
76.7939987 27.8155003 11.6084003
76.7897034 27.8174992 12.6076002
76.632103 28.1665001 3.32550001
76.7553024 28.0282993 4.05389977
76.7117996 28.1798992 4.2967
76.6099014 28.1686993 4.60610008
76.7774963 28.1443005 4.88140011
76.709198 28.0098 5.24510002
76.7164993 28.1124992 6.37050009
76.7313004 28.1949997 6.40019989
76.7449036 28.1952 6.69129992
76.7342987 28.1919994 6.93130016
76.762001 28.1075993 7.09159994
76.7061005 28.1863995 9.09850025
76.6167984 28.2958488 5.09455013
76.6449966 28.2474995 5.44129992
76.6532974 28.3966007 5.67449999
76.7046967 28.3143997 6.61359978
76.6625977 28.3521004 6.9684
76.7546997 28.2598991 7.13059998
76.7650986 28.3430004 7.31540012
76.7427979 28.2569008 7.46990013
76.6451035 28.3610992 8.75979996
76.7822037 28.3040009 9.52089977
76.7481003 28.3693008 9.72749996
76.7152023 28.2761002 12.8542004
76.6266022 28.4407005 6.21210003
76.6131973 28.4654999 7.11439991
76.6712036 28.4493008 7.51329994
76.6779022 28.5506992 8.74919987
76.7650986 28.5247993 10.8013
76.6784973 28.4302998 12.2407999
76.685997 28.6217995 9.04419994
76.7501984 28.8957005 4.96969986
76.7539978 29.1056004 3.53189993
76.7757034 29.1515007 3.6479001
76.6203995 29.0041008 4.99319983
76.7490997 29.2133007 4.30389977
76.7937012 29.2830009 5.90719986
76.725647 29.2982998 6.13915014
76.7380981 29.3435001 11.3539
76.7656021 29.3526001 13.0942001
76.6724014 29.5179996 4.84790039
76.7910995 29.4867001 6.39519978
76.7848969 29.4745007 7.08869982
76.7537003 29.4771996 8.76620007
76.7970963 29.5184002 12.3910999
76.6062012 29.7805996 -1.41900003
76.6224976 29.6452007 6.65939999
76.7433014 29.6158009 12.8943996
76.721199 29.9881992 -1.56389999
76.778801 29.8826008 10.6758003
76.7415009 30.1254005 10.4110003
76.6964035 30.1259995 13.1295004
76.7441025 30.3082008 10.4133997
76.7141037 30.4298992 4.23430014
76.7667007 30.4246006 8.15190029
76.6527023 30.4878998 10.3329
76.6791534 31.3662491 8.09955025
76.6435013 31.5305996 7.35059977
76.727356 31.4552994 7.90025043
76.6977997 31.6550007 -1.77339995
76.7698975 31.9983997 5.86399984
76.6866989 31.8484993 8.11289978
76.6649017 32.0001984 4.09630013
76.777298 32.0531006 4.90850019
76.7802963 32.2028999 5.29869986
76.6299973 32.3765984 9.96679974
76.6668015 32.2667999 10.0396996
76.7449951 32.333847 10.2550001
76.7870026 32.2444 11.6597004
76.7950974 32.3258018 12.4834003
76.6680984 33.2170982 -1.40260005
76.7910995 34.0085983 9.21030045
76.789299 34.2069016 -1.60510004
76.7549973 34.7257996 9.63549995
76.7873001 35.3249016 9.1960001
76.6172028 35.9287987 -1.8448
76.9534988 23.8819504 3.49520016
76.9309006 23.8808498 7.93754959
76.8612976 23.9382992 8.07110023
76.9765015 24.0328007 7.57730007
76.9791031 24.4925995 2.70309997
76.9312973 24.4916992 2.90310001
76.8041992 24.5513992 3.77060008
76.9164963 24.5949993 3.82229996
76.9470978 24.5482483 4.63660002
76.8378983 24.6156006 4.27710009
76.8434982 24.6149006 4.96850014
76.8623962 24.7493744 7.07417488
76.9568024 24.7539005 10.1903
76.9234009 24.6567993 13.3762999
76.9061966 24.9004993 2.82719994
76.8315964 24.8742008 3.51279998
76.8041992 24.8931999 4.45179987
76.8134003 24.8278008 6.22650003
76.9856033 24.8036003 7.54949999
76.8856964 24.9633007 7.78119993
76.9757996 24.8456001 8.51130009
76.9744034 24.9258995 9.02840042
76.8497467 24.9202499 9.48620033
76.9825439 24.8783493 10.0916004
76.8223038 24.9438992 10.5923996
76.9723969 24.9577007 12.5998001
76.9651031 24.8607006 12.8341999
76.8163986 25.1007004 3.1796999
76.9061966 25.1618004 5.69040012
76.9997025 25.1345997 7.75449991
76.939003 25.1109009 7.86269999
76.8106995 25.1800995 8.31999969
76.9208984 25.1860008 8.5461998
76.9704971 25.1343994 8.71220016
76.8691025 25.1268997 9.17730045
76.9309006 25.0454998 9.40989971
76.9915009 25.0485001 9.61060047
76.8537979 25.0643005 10.5124998
76.8740997 25.0337009 12.7521
76.8651962 25.2236004 2.75900006
76.8599014 25.2387009 3.6322999
76.9176025 25.2810993 4.79309988
76.8550034 25.3090992 5.91730022
76.9197006 25.3833008 6.47940016
76.9257355 25.3443661 7.31803322
76.9340973 25.2131004 7.95529985
76.8957977 25.3502007 8.78590012
76.9188004 25.27775 9.6277504
76.9472961 25.3005486 10.1581497
76.9636993 25.3391991 11.3569002
76.9776993 25.2388992 11.7747002
76.950798 25.3642006 12.1401997
76.8339005 25.2784004 12.8959999
76.926651 25.4529495 4.26440001
76.8424988 25.4400997 4.91400003
76.9520035 25.5699005 5.06330013
76.9364014 25.4339008 5.85620022
76.828598 25.5340996 6.26940012
76.8704987 25.593399 6.79710007
76.9179001 25.4986992 7.67679977
76.8065033 25.5048008 7.97359991
76.9798965 25.4134998 8.49300003
76.9440994 25.5305004 8.72869968
76.936203 25.5737 9.34490013
76.8049011 25.4804993 9.46150017
76.9225006 25.5802002 10.0197001
76.8789978 25.5328999 10.2446003
76.9138031 25.5004005 10.4962997
76.9702988 25.5564995 10.8852997
76.9617996 25.4626999 12.2752495
76.8209 25.4836998 13.4483995
76.8552017 25.7348003 3.33400011
76.8282013 25.7318001 3.47280002
76.9586029 25.7413998 3.81809998
76.9699554 25.7054501 4.49024963
76.8244019 25.7894993 5.23629999
76.8905029 25.7737007 5.99030018
76.9069977 25.6536999 6.36549997
76.8944016 25.7346001 6.68620014
76.8899002 25.6399002 7.53490019
76.8290024 25.7290001 8.08230019
76.9366989 25.7499008 8.33930016
76.9778976 25.7805996 8.62010002
76.9816971 25.6035004 8.82390022
76.9527969 25.7947998 9.09220028
76.9383011 25.7618008 9.24020004
76.9001999 25.7457504 10.1025505
76.9528503 25.6884995 10.3101501
76.9775009 25.6916008 10.9083004
76.9708023 25.6515999 11.1891003
76.9577942 25.7259483 11.3057499
76.9529037 25.7408009 11.6372004
76.8992462 25.65275 12.3339005
76.9776001 25.6553001 12.6766996
76.9464035 25.9976997 5.17959976
76.8515015 25.8966999 5.49889994
76.8885956 25.8404007 5.98124981
76.8478012 25.9827003 6.48799992
76.8757019 25.9633007 6.6415
76.9994965 25.9936008 7.17350006
76.8255005 25.9271011 7.89764977
76.8839035 25.9237995 9.38430023
76.9001007 25.9965 9.52130032
76.9474487 25.8857498 10.1238499
76.9703979 25.9892998 10.2799997
76.9412003 25.878849 12.7187004
76.8235016 25.8871994 12.9903002
76.8588028 26.1112995 3.30690002
76.9301987 26.1387005 5.26179981
76.8923492 26.1150494 6.36829996
76.9206009 26.0321007 6.64139986
76.8990479 26.0628014 7.15954971
76.9173355 26.110033 7.51746655
76.8051987 26.0443993 8.08979988
76.9365997 26.1807003 9.04459953
76.9068298 26.0622673 9.23576641
76.8956451 26.0818005 9.46115017
76.8961029 26.1665001 10.6625996
76.9730988 26.1432991 10.8037996
76.917099 26.1201 11.1110001
76.9530029 26.1266994 11.2398005
76.960701 26.1814003 11.6231003
76.9643021 26.1961002 12.4963999
76.8178024 26.1072998 12.7299004
76.831398 26.0139999 12.8969002
76.8833008 26.3883991 4.39470005
76.8711014 26.3785992 4.54029989
76.8108978 26.3717995 4.77279997
76.8562012 26.3425999 5.4369998
76.9847031 26.2355003 5.83650017
76.8965988 26.3920994 7.0697999
76.9094009 26.3771992 7.90500021
76.8920975 26.2082005 8.07079983
76.8504028 26.3859005 8.35840034
76.8324966 26.2409 8.80480003
76.9126968 26.2308006 9.4343996
76.9175034 26.3031998 9.8895998
76.9941025 26.3544998 10.1485004
76.9411011 26.2131004 10.2685003
76.9628983 26.3124008 10.9428997
76.9459 26.3174496 11.2867498
76.9937973 26.2254009 12.4376001
76.9156647 26.299366 12.6955338
76.8778 26.4792995 5.6013999
76.8455963 26.5603008 6.46269989
76.8674011 26.4664993 8.27680016
76.9001999 26.4253006 8.97469997
76.9455032 26.5503998 9.07999992
76.9657974 26.4517002 10.6382999
76.8716965 26.4955006 10.9849005
76.9341965 26.5851994 11.1838999
76.822998 26.4951992 11.7476997
76.8968964 26.4557495 12.8489494
76.8948975 26.7089005 4.25290012
76.9167023 26.7229004 5.19169998
76.8638458 26.6601486 6.4451499
76.8610001 26.6007004 6.99370003
76.8995972 26.7723999 7.77650023
76.8063965 26.6030006 8.01620007
76.8358002 26.6674004 8.38770008
76.8438034 26.6814003 8.45950031
76.8889999 26.7109509 9.25939941
76.9225006 26.7236996 10.2729998
76.8973007 26.6427994 10.8561001
76.9389038 26.7940998 11.6782999
76.9589996 26.6737003 12.0806999
76.9368973 26.7217999 12.4034004
76.9136963 26.6245995 12.6414003
76.822403 26.9920006 5.73099995
76.8658981 26.8871994 5.9849
76.8928986 26.9543991 6.14470005
76.9557037 26.8918991 6.71750021
76.8989029 26.9368 8.60299969
76.8806 26.828434 10.3263998
76.9117966 26.8505001 10.4581003
76.9824982 26.9689999 10.7831001
76.9627991 26.8439999 10.8991003
76.8692017 26.8085995 11.3452997
76.9336014 26.9438992 11.4879999
76.9171982 26.9409008 11.816
76.9643021 26.9405994 12.0244999
76.8742981 27.0858994 2.30769992
76.8593445 27.0902004 3.11324978
76.8535004 27.0636501 3.8826499
76.8525009 27.1364994 5.7823
76.8015976 27.0713997 7.61929989
76.9135513 27.0587006 8.06404972
76.919754 27.0379486 8.31554985
76.9085007 27.0790005 9.74359989
76.9178009 27.1749001 10.0193996
76.8950958 27.0495491 10.3347502
76.9686966 27.1054993 11.8646002
76.9255981 27.0592995 12.0479002
76.9311981 27.1821995 12.6584997
76.8237991 27.3999004 3.2578001
76.9138031 27.2910995 4.20599985
76.9220963 27.3836994 5.46350002
76.96035 27.2288494 6.27645016
76.8816986 27.2203999 6.41139984
76.8992996 27.3139 6.77759981
76.9869995 27.3859997 7.57749987
76.9533005 27.3139992 7.6967001
76.9188004 27.2008991 10.0955
76.9319992 27.3488007 10.7785997
76.9217987 27.2178993 11.0410004
76.9126968 27.2651997 11.3128996
76.9787979 27.3918991 12.0018997
76.8874969 27.2710991 12.4573002
76.9728012 27.3887005 12.6058998
76.9604034 27.4549007 2.0632
76.9776993 27.4578991 2.82969999
76.939003 27.4647007 4.05970001
76.8628998 27.4797001 4.78649998
76.8908997 27.4909992 5.64599991
76.9626007 27.5869007 7.02449989
76.8525009 27.4165001 8.43350029
76.933197 27.5221996 8.61530018
76.8792038 27.4463005 9.13339996
76.8800964 27.4940491 9.35249996
76.9661636 27.4848671 9.91753387
76.9890976 27.5263996 10.2714005
76.8552017 27.4195004 10.6543999
76.8735962 27.5261993 10.948
76.9943008 27.4482002 11.7047005
76.8450928 27.4504509 12.7683506
76.8733978 27.4379997 12.8917999
76.8105011 27.7821999 4.62519979
76.8030014 27.6403008 5.29029989
76.8162994 27.7289009 6.04920006
76.8719025 27.6882 7.35480022
76.9044037 27.6993008 7.43989992
76.876297 27.7528992 8.0685997
76.9309006 27.6112995 8.92689991
76.9091034 27.6004009 9.31729984
76.9945984 27.6226997 9.77219963
76.8375015 27.6567001 10.8515997
76.9475021 27.6788006 11.1877003
76.819603 27.6049995 12.7280998
76.8237 27.9906006 1.97350001
76.836998 27.9477005 3.4756999
76.9309006 27.8803005 4.06869984
76.9147034 27.9011002 4.44500017
76.9134979 27.9785995 4.62160015
76.905098 27.9787006 4.87419987
76.8141022 27.9694004 5.04489994
76.9245453 27.8635998 5.28215027
76.8709488 27.8652992 5.64439964
76.884903 27.8924007 6.5229001
76.9549026 27.9909992 7.09240007
76.9014969 27.8523998 7.9914999
76.9508057 27.8719501 8.70699978
76.8597031 27.8064003 9.84770012
76.9684982 27.9120007 11.4828997
76.9464035 27.9004993 12.2236004
76.8924026 27.8216991 12.4411001
76.8202057 27.8677998 12.8655996
76.8548965 28.0405006 2.71460009
76.828598 28.1047993 4.55609989
76.9608994 28.1338997 4.70679998
76.8033981 28.1728992 5.2196002
76.9206009 28.1345997 6.07959986
76.8860016 28.1854992 6.50479984
76.8303986 28.1149006 6.61140013
76.8599548 28.1313496 7.67000008
76.821701 28.0740013 7.96370029
76.990303 28.1371002 8.79259968
76.9425964 28.1555004 8.97399998
76.8666 28.0923004 9.34010029
76.9379501 28.1137009 9.90054989
76.8923035 28.0300999 10.4215002
76.9662018 28.1921005 11.1203003
76.9701996 28.0095997 11.2214003
76.8991318 28.0901661 12.1063328
76.9517975 28.0912991 12.7167997
76.8912964 28.2229996 7.40119982
76.8611984 28.2371006 8.9392004
76.9329987 28.2112999 9.66919994
76.9748993 28.2012997 10.1373997
76.9408035 28.3497009 10.3793001
76.9153671 28.2742996 10.6838665
76.9564972 28.3570004 10.9524002
76.9332962 28.2070999 11.0382004
76.8724365 28.2802658 11.529233
76.8824005 28.3948002 11.7372999
76.9633026 28.3416004 11.9406996
76.8481445 28.2497501 12.1142998
76.9589996 28.4745998 12.0710001
76.9045029 28.4416008 12.7474003
76.8439026 28.4398994 12.9987001
76.9466019 28.7800007 11.2069998
76.8953018 28.9134007 4.43149996
76.8660965 28.9561996 5.74840021
76.8618011 28.9172993 6.4993
76.8497009 28.9507999 12.6304998
76.8709488 29.1054497 3.86975002
76.8615036 29.0986996 4.58309984
76.8688965 29.1746998 5.48629999
76.8643951 29.14785 5.8192997
76.8685455 29.1086998 6.10655022
76.8930969 29.1973991 6.32250023
76.9394989 29.0492992 9.78660011
76.9373016 29.1659508 10.1605501
76.944603 29.1774998 10.5955
76.828598 29.2173004 3.65560007
76.8391037 29.3848991 4.3822999
76.9035034 29.2383995 5.80200005
76.9203033 29.2663994 6.40199995
76.9825974 29.2290993 6.9204998
76.8426971 29.3020992 7.93900013
76.8656006 29.3384991 8.9822998
76.9850998 29.2289009 9.65909958
76.9087982 29.2446499 10.0426502
76.9187012 29.2483997 10.2538996
76.9963989 29.2469006 10.5219002
76.8804016 29.3330994 10.8386993
76.9303513 29.3782005 11.3203001
76.9098969 29.3358994 12.4893999
76.9740982 29.4916992 7.92430019
76.802803 29.4958 8.12650013
76.8858948 29.4400997 8.32410049
76.8936005 29.4887505 9.08864975
76.9860992 29.5842991 9.36670017
76.9040985 29.4293995 10.2854004
76.9961014 29.5606003 12.4467001
76.8218994 29.6168003 4.53030014
76.9032974 29.7542 6.39559984
76.8602982 29.6814499 10.6116009
76.857399 29.8899994 7.02299976
76.9932022 29.8812008 10.2671003
76.8522034 29.8041992 11.5710001
76.8806 29.8889999 12.9094
76.9084015 30.0856991 3.99180007
76.9204025 30.0037003 4.56549978
76.935997 30.0063992 4.70580006
76.8514557 30.0747986 7.52719975
76.844101 30.1742992 8.04419994
76.8914032 30.0123997 9.65209961
76.9714508 30.0928001 9.92444992
76.9173965 30.1081009 10.1416998
76.8337021 30.0158997 10.3156996
76.9115982 30.0114994 12.6325998
76.9035034 30.2045994 7.24980021
76.8766479 30.2301998 7.91384983
76.802803 30.3115997 10.2152996
76.8592987 30.3635998 12.5986996
76.9039993 30.2940006 12.6759996
76.8535004 30.5135994 7.77839994
76.8238525 30.4736996 7.86859989
76.9704971 30.4015007 10.2434998
76.9153976 30.4944992 12.7764997
76.8932037 30.7087994 7.27370024
76.8597031 30.7147007 12.4282999
76.9777527 30.7839012 12.7090502
76.9529037 30.8857994 6.61859989
76.8593979 30.9162006 7.38980007
76.9413986 30.9125996 9.07909966
76.8405991 30.8495998 12.3920002
76.9476013 31.1744003 7.19449997
76.9835968 31.0874004 7.30900002
76.8246994 31.0907993 7.41419983
76.9625015 31.3141003 6.04309988
76.9516983 31.2828999 8.43490028
76.9128036 31.5800991 5.75099993
76.8917999 31.5807991 8.29349995
76.9761963 31.4342003 8.62909985
76.8261032 31.5298004 10.3816004
76.8999023 31.6497993 6.17789984
76.9033966 31.7182999 8.43290043
76.9765015 31.7922001 8.68809986
76.9916992 31.6849003 10.7976999
76.9470978 31.7670002 11.5342999
76.8570023 31.7220001 11.7615004
76.8662033 31.6243 12.1280003
76.9972992 31.8514996 5.62909985
76.9002991 31.8941994 8.64490032
76.9465485 31.9566498 9.04134941
76.9371033 31.969101 11.9584999
76.8271027 32.1973 4.38740015
76.8557968 32.1775017 7.18660021
76.8721008 32.0984001 8.58810043
76.899498 32.0611992 9.03639984
76.9740982 32.0689011 9.61270046
76.9923019 32.0929985 11.2016001
76.9367981 32.1540985 11.5780001
76.9963989 32.1730995 11.9615002
76.9382019 32.1515007 12.0741997
76.8358002 32.1813011 12.2967997
76.9347534 32.0984993 12.4745007
76.8647003 32.1741982 12.6127996
76.8911972 32.2234993 8.9932003
76.8215027 32.2752991 9.70489979
76.8571014 32.2672005 11.6154003
76.9701996 33.0746002 10.1173
76.8778992 33.3670998 7.46260023
76.9261017 33.3636017 8.33940029
76.982399 33.2391014 9.83969975
76.8649979 33.3068008 10.0608997
76.9119034 33.3955002 10.6367998
76.9293976 33.2985992 11.4327002
76.9686966 33.3372993 12.2771997
76.8389969 33.5292015 8.81210041
76.9069977 33.4990005 9.67669964
76.9636993 33.4828987 10.7861996
76.8837967 33.4459991 11.8441
76.8107986 33.7633018 8.74059963
76.9499969 33.7075996 9.91870022
76.8721008 33.6562004 10.1615
76.9847031 33.603199 10.6550999
76.9378967 33.6021996 10.9659004
76.995697 33.6245995 11.0452995
76.9179993 33.7204018 11.7350998
76.8532028 33.8368988 5.42600012
76.8893509 33.9745483 9.92164993
76.8149033 33.8544006 11.8578997
76.9039001 34.1001511 8.70484924
76.9524994 34.1114006 9.88490009
76.8980026 34.0555992 10.1181002
76.9281464 34.1017532 11.2938995
76.9906006 34.384201 8.2198
76.8885956 34.2310028 8.48340034
76.9212036 34.3620987 10.2658005
76.9530029 34.4081993 6.14219999
76.8321991 34.4453011 9.86680031
76.8429031 34.6085014 9.63539982
76.9685516 34.7260513 10.6911001
76.9152985 34.7332001 11.9371004
76.8259964 34.7262993 12.5530005
76.9356995 34.8694 7.16900015
76.9404984 34.9494019 8.22599983
76.9450989 34.8101006 9.54990005
76.8212967 34.8386993 9.73880005
76.9378967 34.9348984 10.5791998
76.9457016 35.0177994 8.36320019
76.9292984 35.1102982 10.5304003
76.9614029 35.0428009 10.6631002
76.8445969 35.4345016 9.58450031
76.862999 35.4383011 10.7473001
76.899498 35.5433006 12.4851999
76.9697037 35.6896019 6.62610006
76.9602966 35.6845016 11.4055996
76.9794998 35.6982002 12.5492001
76.8623962 35.7004013 12.9618998
76.9518967 35.9888 10.0495005
76.9080963 35.8619995 12.0086002
76.9676971 36.0013008 7.99730015
76.9432983 36.1301003 10.1000004
76.9273987 36.3899994 7.69070005
76.9124985 36.2667999 10.4335003
76.9070969 36.2062988 11.2974005
76.9279022 36.2887993 11.9476004
76.9710999 36.3521996 12.6666002
76.9135971 36.7066002 9.77960014
76.9925003 37.0649986 10.8842001
76.8945999 37.3815002 11.5914001
76.9729004 37.2673988 11.941
77.1050491 23.6745987 4.09630013
77.1875992 23.7329006 6.40220022
77.1156998 23.7768993 6.76989985
77.1705017 23.7527008 13.0997
77.1032028 23.9543991 3.1164
77.1339035 23.9892998 3.24259996
77.0049973 23.8066998 3.4855001
77.0686035 23.8043995 4.00600004
77.1282501 23.8941994 6.06550026
77.1078033 23.8353004 6.26429987
77.1156006 23.8943005 6.97399998
77.0295029 23.9178009 7.99350023
77.1736984 23.9647007 12.6458998
77.0756989 24.0139999 3.4519999
77.0290985 24.1872005 6.20889997
77.0998001 24.0184994 6.80439997
77.0406036 24.3600998 2.70469999
77.1532974 24.4158993 2.45000005
77.0493011 24.4736004 2.65689993
77.009903 24.5639992 3.36479998
77.1528015 24.4246502 4.08969975
77.0647964 24.5762997 4.45289993
77.0764999 24.4570007 4.80630016
77.1824036 24.5384998 5.60589981
77.1813965 24.5615005 11.2835999
77.0090027 24.5426006 13.2495003
77.1163025 24.6432991 4.30910015
77.0790024 24.6247005 4.84040022
77.0992966 24.6683998 5.09299994
77.0658035 24.6035004 5.37529993
77.0534973 24.6839008 5.85669994
77.1612015 24.6028996 6.56790018
77.055603 24.6366997 6.7663002
77.1679001 24.6016006 7.13810015
77.021698 24.6501999 7.22259998
77.1408005 24.7686996 8.34309959
77.0365448 24.7202492 8.85700035
77.0847015 24.7175007 9.59560013
77 24.7952995 9.63689995
77.1547012 24.7924995 10.5193996
77.1528015 24.6965008 10.8333998
77.1287003 24.7796001 12.3915997
77.1066971 24.7933998 12.9368
77.0205002 24.8614006 8.92679977
77.0578003 24.9515991 9.5401001
77.1474991 24.8502998 9.6576004
77.0067978 24.8511009 10.3640003
77.1369019 24.9220009 10.7315502
77.0981979 24.9113007 10.9493332
77.1891022 24.8591003 11.3139
77.0030975 24.9309006 11.9196997
77.0623474 24.85355 12.2854004
77.104332 24.8617325 12.7272329
77.0576019 24.8672485 12.8715992
77.0202026 25.0231991 8.51959991
77.0136032 25.0534992 8.73139954
77.0606003 25.1895008 8.83720016
77.036499 25.1613007 9.63580036
77.0473022 25.0848007 10.1294003
77.0412979 25.0529995 10.8880997
77.0531006 25.1765003 11.0723
77.0475006 25.1769009 12.1426001
77.0972977 25.0753002 12.3216
77.0534973 25.2141991 12.5742998
77.0567474 25.4360008 9.51714993
77.0570984 25.5303993 12.3360004
77.0716019 25.4396992 12.4789
77.0345993 25.7131996 7.43860006
77.0121002 25.7721004 9.08180046
77.0234985 25.6408005 9.85169983
77.0435028 25.6235008 10.0741997
77.0010986 25.6581001 10.8106003
77.066803 25.6518002 11.0984001
77.024498 25.6546001 11.3549995
77.0327988 25.7654991 11.5249996
77.0459976 25.7840996 11.9805002
77.1712036 25.7460995 12.5251999
77.168602 25.6879997 12.7038002
77.0419998 25.9507008 7.82280016
77.0550003 25.8064995 8.84029961
77.0118027 25.8631001 9.34749985
77.0141983 25.8931007 11.3634005
77.0313034 25.8820992 11.6730003
77.0910034 25.9347992 12.776
77.0046005 26.1515999 8.40369987
77.0077972 26.1530991 9.44540024
77.0470963 26.1100006 11.1168003
77.0419006 26.0510006 11.4008999
77.0805969 26.0769997 11.9642
77.0755005 26.1917992 12.0516005
77.0470963 26.1856003 12.5118999
77.0010986 26.0800991 12.6932001
77.0318985 26.2117004 8.87930012
77.0008011 26.2427998 10.3992996
77.0169983 26.2714005 11.7290001
77.0091019 26.3810005 11.9130001
77.1324997 26.5016003 10.4397001
77.0644989 26.5097008 10.7614002
77.0384979 26.5442009 11.1772003
77.1361008 26.4004002 12.1736002
77.0439987 26.5345001 12.4616003
77.0054016 26.6530991 10.4970999
77.0383987 26.6471004 11.2966995
77.1261444 26.7104492 12.10075
77.0758972 26.8013992 11.3532
77.0118027 26.9221001 11.5137997
77.0215988 26.8190994 12.6351004
77.0055008 27.0340996 8.47360039
77.0805969 27.1387997 9.92689991
77.0335007 27.1238003 10.7782001
77.1464005 27.1481991 12.2855997
77.0345993 27.0923996 12.5571003
77.0045013 27.2943001 10.3727999
77.0404968 27.2024994 10.7688999
77.0330963 27.2698994 12.0374002
77.108902 27.3055 12.4049997
77.0006027 27.5729008 5.70979977
77.1421967 27.4817009 6.99370003
77.0279999 27.4764996 7.72819996
77.1949005 27.5776005 9.98639965
77.0454025 27.5191002 11.3769999
77.0602036 27.4151993 11.8648996
77.0670013 27.7938995 8.85369968
77.0046997 27.7145996 10.9849005
77.0130005 27.7021008 12.1217003
77.0435028 27.8717003 12.6134996
77.125 28.1149998 11.9656
77.001297 28.0018005 12.4118996
77.0085983 28.3040009 10.9278002
77.1787033 28.2101994 11.4603996
77.0159988 28.4598999 12.2364998
77.0631027 28.8721008 6.90159988
77.0479965 28.9433002 9.80739975
77.1246033 28.9724998 10.5739002
77.1015015 29.1881008 8.77900028
77.0140991 29.1152992 9.56719971
77.0255966 29.1210003 9.67339993
77.0491028 29.1763 10.7615004
77.1311951 29.1399002 12.7658005
77.0578003 29.2721004 7.86259985
77.0641022 29.2353992 9.34749985
77.0886993 29.2373009 9.74610043
77.1379013 29.3008995 12.1911001
77.0085983 29.2560005 12.6807003
77.1106033 29.4664993 11.5710001
77.017746 29.4453011 11.7582493
77.180603 29.4852009 11.8243999
77.0009003 29.7432003 6.66039991
77.0282974 29.6389999 11.1988001
77.0193024 29.7205009 12.7407999
77.0176544 29.89995 9.52684975
77.0334015 29.9134998 10.0274
77.0111008 29.9239006 10.3268003
77.0167999 30.0352993 10.3439999
77.0245972 30.0279007 12.1821003
77.0270004 30.1669006 12.4490995
77.1018982 30.3267994 9.42549992
77.0548019 30.3850002 12.4626999
77.0298996 30.4025002 12.3999996
77.0235977 30.5597 12.4152002
77.0343018 30.6947994 7.57410002
77.0505981 30.7665005 7.62039995
77.0410995 30.7488995 9.82460022
77.0441513 30.6838989 12.3394508
77.0587997 30.9876995 7.95170021
77.1348038 30.8066998 9.34049988
77.0529022 30.9248009 12.5082998
77.1772995 31.0466003 8.15960026
77.1735992 31.1884003 11.7128
77.0948029 31.3663006 6.19640017
77.0427017 31.2623005 8.52950001
77.0353012 31.2784996 9.15390015
77.1112976 31.2577 11.3600998
77.0345001 31.3759995 11.4200001
77.0446014 31.2602005 11.6847
77.0839005 31.2560997 11.908
77.0215988 31.4661999 11.1223001
77.0921021 31.530899 12.1869001
77.1119995 31.6336994 9.49429989
77.0707016 31.6340008 10.9856997
77.0103989 31.7063999 11.7469997
77.1204987 31.6483002 12.2089996
77.1679993 31.8493996 9.78219986
77.0831451 31.927 12.5028496
77.0534973 31.9925003 12.6089001
77.0799026 32.0700989 8.54249954
77.1992035 32.0194016 11.1557999
77.0738983 32.2596016 11.2967997
77.0404968 33.1502991 8.42539978
77.0502014 33.1837997 10.1268997
77.0803986 33.1528015 10.4238005
77.0571976 33.1184006 11.3333998
77.0245972 33.3139992 8.94099998
77.0332031 33.5233002 7.37540007
77.0485992 33.5965004 9.10140038
77.0658035 33.6945992 10.3523998
77.0454025 33.6570015 12.4399004
77.0158997 33.9065018 5.85550022
77.0326996 34.1136017 4.13259983
77.1909027 34.0873985 11.5928001
77.0063019 34.3502998 7.03989983
77.0990982 34.4911003 11.5710001
77.0302963 34.7020988 9.15670013
77.0384979 34.9684982 10.4420996
77.093399 34.8167 10.6722002
77.1287994 35.1053009 9.58349991
77.1917038 35.2981987 8.39519978
77.0233002 35.5359001 9.2741003
77.0268021 35.7714996 8.6953001
77.1488037 36.0677986 7.13110018
77.0752029 36.1907997 10.6557999
77.0375977 36.8577995 10.8226004
77.0317993 37.0946007 9.99810028
77.0398026 37.1253014 11.8996
77.0186996 37.5253983 11.3163996
77.3262024 23.5970001 3.01550007
77.2806015 23.5400009 3.8914001
77.3001022 23.7385006 3.01889992
77.2546997 23.6613998 3.3921001
77.2333527 23.6452503 3.94234991
77.2481995 23.6669998 4.44019985
77.2563019 23.6116009 5.76609993
77.3599014 23.7896996 6.04379988
77.3350983 23.7415009 6.31120014
77.3432999 23.6758003 12.8514996
77.3531036 23.9698009 12.0541
77.2682037 23.9181004 12.7811003
77.2088013 24.1678009 6.1645999
77.3648987 24.0820999 12.5299997
77.3010025 24.2572002 3.29870009
77.2509995 24.3642006 3.61400008
77.3062973 24.3213005 3.88549995
77.3417053 24.2518501 12.58325
77.3588028 24.2647991 12.7293997
77.3710022 24.3393002 13.5433998
77.2536011 24.5419006 7.55019999
77.2055969 24.4267006 9.14159966
77.2480011 24.7091007 6.5486002
77.2619019 24.7098007 8.95079994
77.2481003 24.7726002 9.81509972
77.240799 24.7399998 11.1554003
77.2914963 24.7047997 11.5930004
77.3262482 24.7645493 12.3603497
77.3018951 24.8890495 8.87829971
77.3516006 24.809 11.7742004
77.3005524 24.8957005 11.8523502
77.2213974 24.9750996 12.3013
77.2766037 25.2378006 12.2275
77.2167969 25.5974007 12.5297003
77.3097992 26.5776005 11.1739998
77.3564987 27.0765991 12.5116997
77.232399 30.3693008 11.9265003
77.3554993 30.7385006 11.7627001
77.2794037 30.9636002 3.29220009
77.302597 30.9750996 11.8304005
77.2754517 31.0941505 5.88409996
77.2965012 31.0338001 8.67959976
77.2722015 31.0713005 9.16119957
77.2266006 31.0708008 11.7251997
77.2699966 31.2441006 11.3771
77.2919998 31.3320007 11.4562998
77.2061996 31.2233009 11.7620001
77.3154984 32.2663002 11.2701998
77.206398 34.0831985 8.62870026
77.2412033 35.5797997 10.3174
77.2497025 36.2924004 7.46089983
77.2032013 36.9849014 10.9061003
77.4027023 23.5883007 3.78399992
77.5373993 23.6065998 3.18160009
77.4493027 23.6247997 3.2499001
77.5820999 23.6207008 4.2572999
77.5147018 23.6851006 6.21600008
77.5341034 23.7908001 12.0026999
77.5006027 23.9447002 11.6110001
77.4964981 23.8736 11.8719997
77.5833969 23.9829006 12.2941999
77.4421005 23.9596996 12.4772997
77.5075989 23.8510494 12.6981001
77.4916 24.0851002 12.3522997
77.5046005 24.4778004 12.4783001
77.5319977 24.7131004 11.4958
77.4017029 24.6945992 11.7559004
77.4329987 24.6305008 12.1936998
77.405098 24.6296005 12.3656998
77.4098969 30.0466995 12.2594004
77.4484024 30.6499996 11.8428001
77.4162979 30.6942997 12.0558996
77.7537003 23.6448994 3.08599997
77.7097015 23.6697006 3.44939995
77.6605988 23.7401009 4.39960003
77.767601 23.6737003 6.44220018
77.7240982 23.9927006 9.05090046
77.7157974 23.9885006 9.2045002
77.7820969 23.9137993 9.49450016
77.7205505 23.9261513 11.3622503
77.6650391 23.8656597 12.5209198
77.7366028 23.864151 12.6527996
77.7370987 24.0632992 11.9728003
77.8979034 23.6173992 2.97029996
77.9240036 23.6047001 3.22779989
77.9134979 23.6119003 3.99399996
77.898201 23.6748009 4.08190012
77.8700027 23.7171001 6.21099997
77.9257965 23.7509003 12.6409998
77.8861008 23.9274998 8.47869968
77.8679962 23.8675003 9.41329956
77.9628983 23.9951 12.4872999
77.9073029 24.0480995 11.8588505
78.1632004 23.6086006 3.08130002
78.0196991 23.7005997 3.23779988
78.107399 23.7588997 3.5065999
78.0546036 23.7238007 4.0243001
78.0799026 23.6749992 4.34569979
78.0055008 23.6588001 4.56470013
78.0168991 23.6623993 12.7166004
78.0442963 24.0520992 12.2806997
78.3255005 23.7609997 7.00699997
78.2041016 23.6364002 12.8268995
78.2231979 23.8787994 9.20390034
78.3557968 24.0639 12.3072004
78.4117966 23.7548008 3.81290007
78.4060974 23.6487007 4.11759996
78.5988998 23.6581993 4.28289986
78.4821014 23.6650009 6.36549997
78.4037018 23.6979008 6.68240023
78.4625702 23.7248344 6.88216686
78.4685974 23.7539005 9.0479002
78.4085999 23.7092991 12.8586998
78.4753494 23.9618492 11.30165
78.4664993 23.9036999 11.9642
78.4409027 23.8526001 12.5518999
78.4281998 25.0149994 12.5085001
78.7006989 23.5685997 13.0100002
78.7358017 23.6571007 3.48140001
78.7464981 23.6257 3.83100009
78.7082977 23.7084007 5.97310019
78.6027985 23.7124996 6.88950014
78.7434006 23.7129993 12.5743999
78.7363968 23.7159996 12.6365004
78.6914978 23.8516006 4.03800011
78.7524033 23.8603992 12.5784998
78.629303 24.8873005 6.96490002
78.7221985 24.9666996 7.03049994
78.8057022 23.6516991 3.81520009
78.9412003 23.7922993 6.92869997
78.8927994 23.7978001 12.4673996
78.9897995 23.7661991 12.6301003
78.9552994 23.9330006 11.4813004
78.8078995 23.9925995 12.4584999
78.919899 23.8369007 12.6150999
79.1078033 23.7224007 6.7638998
79.1217041 23.7042999 6.84605026
79.0203018 23.7047005 12.7665997
79.1565018 23.9564991 11.1398001
79.1325989 23.8642006 11.5103493
79.0151978 23.9573994 11.8603001
79.0825958 23.9088497 12.0622997
79.1472015 23.8514996 12.2807999
79.1378021 24.0020008 12.3845997
79.2210999 23.5165005 3.11310005
79.3700027 23.6350002 3.15089989
79.2797012 23.6706009 3.55789995
79.3701019 23.7175007 3.8118999
79.2115021 23.7017002 4.05970001
79.326149 23.6730003 4.48320007
79.2630005 23.6515007 6.33634996
79.3996964 23.7812004 12.3376999
79.4511032 23.6116009 3.44910002
79.4776001 23.6583996 4.3144002
79.5197983 23.7047997 4.45830011
79.5718994 23.7059994 5.99609995
79.5688477 23.6939507 6.29244995
79.4893036 23.7015991 7.10804987
79.4713974 23.9612999 11.8548002
79.7040024 23.6359997 4.27839994
79.6415024 23.7397995 12.6379004
79.7898026 23.9102993 3.48850012
79.6137009 23.8750992 12.6449003
79.7891998 24.3188992 12.2245998
79.9915009 23.5433998 1.14100003
79.9589005 23.5732994 1.44599998
79.8460999 23.5347996 3.00279999
79.8833008 23.7521 3.77550006
79.9008026 23.6546993 4.14960003
79.899498 23.7653008 12.1759005
79.8152008 23.9461002 3.91199994
79.9433975 23.9284992 7.0690999
79.838501 23.8055 12.6107998
