# .PCD v0.7 - Point Cloud Data file format
VERSION 0.7
FIELDS x y z
SIZE 4 4 4
TYPE F F F
COUNT 1 1 1
WIDTH 98
HEIGHT 1
VIEWPOINT 0 0 0 1 0 0 0
POINTS 98
DATA ascii
200.088898 -98.8494034 8.3579998
200.031296 -97.6552963 4.62989998
200.013 -97.1010971 8.47780037
200.169098 -95.3253021 10.1358995
200.067307 -92.4001007 8.40779972
200.079498 -92.4629974 8.95189953
200.050003 -92.2730026 9.41049957
200.028198 -92.3871002 11.5906
200.303406 -98.8227005 7.84849977
200.246094 -98.4120026 7.15010023
200.363693 -97.1495972 4.66909981
200.305099 -97.1922989 8.81809998
200.532394 -98.8134995 6.67659998
200.4664 -98.6408005 7.36199999
200.5186 -98.5445023 7.54759979
200.555603 -95.6857986 9.90019989
200.574799 -95.6838989 10.7584
200.4879 -95.4440994 9.98530006
200.537399 -95.332901 9.39929962
200.641907 -98.0789032 4.37799978
200.731796 -97.2120972 9.31739998
200.670105 -95.5042038 9.53549957
200.769501 -95.4399033 9.97189999
200.960602 -98.1603012 6.35909986
200.911606 -97.2236023 8.96539974
200.9487 -95.9658966 10.2895002
201.188293 -94.7611008 10.3802996
201.371399 -98.277298 6.74429989
201.307297 -90.7715988 13.4833002
201.536102 -98.5628967 8.99940014
201.509399 -98.2769012 8.14640045
201.508698 -98.0086975 9.08979988
201.480103 -90.9602966 13.4881001
201.6306 -98.3368988 8.19110012
201.672806 -95.3122025 10.7746
202.280106 -90.9040985 9.57330036
202.3992 -90.9401016 10.4823999
202.5681 -95.5373001 10.7586002
202.586502 -90.914299 9.9623003
202.548492 -90.7881012 11.7865
202.758896 -90.8862 9.96080017
202.673203 -90.9175034 11.7335997
202.613693 -90.7565994 14.5115995
202.8405 -95.838501 10.4169998
202.800598 -95.6519012 10.2893
202.985397 -95.7857971 10.5621004
202.808807 -90.8181 13.7757998
202.8918 -90.8535995 16.0177994
203.184296 -90.8328018 9.83889961
203.063797 -90.668602 13.9484997
203.129196 -90.5616989 12.8797998
203.364899 -90.9021988 10.8332005
203.224503 -90.6296005 12.1518002
203.313797 -90.6324005 14.3662004
203.2686 -90.6893997 14.4377003
203.205704 -90.7418976 14.6104002
203.457901 -90.7454987 8.14649963
203.637207 -90.7301025 11.9596004
203.855804 -97.2036972 8.04349995
203.844101 -90.6559982 14.1759005
204.022995 -90.5018005 15.1415997
204.552002 -90.5306015 13.9793997
204.916702 -90.5554962 13.2182999
205.149597 -90.7124023 13.9153996
205.111206 -90.5560989 12.2473001
205.241653 -90.6208038 12.5361996
205.270493 -90.601799 14.2018995
205.210297 -90.5650024 12.5391998
205.326599 -90.5621033 14.1002998
205.585205 -90.5259018 11.448
205.529495 -90.5755005 13.8009996
205.673599 -90.9587021 13.7739
205.7715 -90.8851013 14.0340004
205.714905 -90.6432037 13.2839003
205.687103 -90.7664032 13.7763004
205.930695 -91.6843033 11.2107
205.912994 -91.5669022 11.5037003
205.951294 -91.4977036 12.7196999
205.900604 -90.9243011 12.5705996
205.869003 -90.9176025 13.9175997
205.874802 -90.7612991 14.5956001
206.144699 -91.6395035 13.2369003
206.028198 -91.487999 12.3010998
206.393997 -91.578598 13.1169996
207.230896 -91.5512009 13.2131996
207.565598 -90.2577972 15.2026997
207.5392 -90.2078018 16.4037991
207.466003 -90.1377029 16.5855007
210.337296 -91.3795013 11.4202995
210.343506 -89.9104004 15.6001997
211.764603 -91.1083984 11.3100996
214.618698 -89.322403 15.7419004
217.711304 -89.5939026 12.6054001
217.955002 -89.6452026 13.0656996
217.944107 -89.6452026 13.3337002
218.182404 -90.5874023 11.0204
218.128998 -90.0429993 10.8991003
218.196304 -90.0357971 11.5867004
