# .PCD v0.7 - Point Cloud Data file format
VERSION 0.7
FIELDS x y z
SIZE 4 4 4
TYPE F F F
COUNT 1 1 1
WIDTH 1748
HEIGHT 1
VIEWPOINT 0 0 0 1 0 0 0
POINTS 1748
DATA ascii
80.1868973 -57.262001 4.73990011
80.0873032 -57.2673988 5.19610023
80.0466995 -57.2563019 5.57280016
80.1753006 -57.0019989 10.3998003
80.1187973 -56.9061012 9.85039997
80.0762024 -56.9617996 10.3596001
80.1774979 -56.9407997 15.7986002
80.1196976 -55.8125 10.2424002
80.1416016 -44.0060005 3.92820001
80.1000977 -43.843399 3.98009992
80.1305008 -43.612999 3.15499997
80.1251984 -43.7733994 3.99729991
80.0783005 -43.6052017 4.38920021
80.1510468 -43.5515518 4.46889973
80.0401001 -43.5112 6.78800011
80.1242981 -43.5572014 7.16069984
80.1391983 -43.4113998 7.7565999
80.1716995 -43.5852013 9.91919994
80.1544037 -43.2967987 14.9902
80.1344986 -43.0994987 14.8836002
80.0397949 -43.1593018 15.0393505
80.3584976 -57.2109985 4.50199986
80.3040009 -56.8548012 10.1084003
80.2648315 -56.9022331 10.4609995
80.3237457 -56.9463997 15.8990993
80.3906021 -44.0693016 3.48130012
80.3924026 -44.0051003 3.60369992
80.2986984 -44.0279999 3.9684
80.3370972 -43.967701 3.66020012
80.3570023 -43.8499985 3.80240011
80.3429031 -43.8723984 4.42780018
80.366951 -43.6627007 3.29500008
80.3610992 -43.6165009 3.56719995
80.3751984 -43.7844009 3.96440005
80.300148 -43.6547508 4.06115007
80.2664948 -43.6845474 4.29370022
80.3281021 -43.6403999 4.44990015
80.3741989 -43.5824013 3.75869989
80.2861023 -43.5828018 4.45179987
80.3659973 -43.5712013 6.30800009
80.2946014 -43.5181999 9.86670017
80.2413025 -43.2540016 14.9892998
80.3091965 -43.2048988 15.0836
80.581398 -57.4656982 3.37730002
80.5259552 -57.2448997 3.73640013
80.4936981 -57.2400017 3.90490007
80.4690475 -57.2328491 4.07315016
80.5550003 -57.2272987 4.56939983
80.5076981 -57.2027016 5.11670017
80.4654312 -57.1800003 3.89893341
80.4626999 -57.1907005 4.23559999
80.5737991 -57.1749001 4.79839993
80.5393982 -57.1879997 8.45779991
80.4685974 -57.1231995 9.13799953
80.495697 -57.0060005 9.44379997
80.5664978 -57.0634995 9.6019001
80.5215988 -57.0533981 9.90859985
80.5280991 -57.0239983 10.2363005
80.5854034 -56.9623985 7.70919991
80.5329971 -56.8278008 9.11470032
80.5848999 -56.9185982 10.3554001
80.5669022 -56.8325005 13.5915003
80.5672989 -56.9230995 15.033
80.4544678 -56.8462982 15.4804335
80.5415955 -56.8330994 15.6912994
80.4516983 -56.7210007 4.92350006
80.5318985 -56.7858009 10.1308002
80.4212036 -56.6657982 15.2432003
80.5108032 -56.7854996 15.5356998
80.4129028 -56.0284004 15.6739998
80.5953979 -55.9468994 10.3066998
80.4619522 -44.0242996 3.34934998
80.4572983 -44.1212006 3.5703001
80.428299 -43.8699989 3.14689994
80.4463501 -43.8312988 3.32275009
80.5246964 -43.9550514 3.63240004
80.4410019 -43.6418495 4.32159996
80.4065018 -43.6049995 6.04110003
80.4166031 -43.7406998 6.59520006
80.4262009 -43.6155014 7.0145998
80.4515991 -43.5239983 3.58439994
80.4651031 -43.5643005 4.4060998
80.4288025 -43.5781479 5.96364975
80.4792023 -43.5779991 6.53679991
80.4882965 -43.5508995 6.62580013
80.5035324 -43.5376358 6.95303345
80.4451981 -43.3951988 9.44939995
80.5836029 -43.3446007 14.3954
80.4764023 -43.2411995 14.7964001
80.5846024 -43.1362 13.1350002
80.4723969 -43.0181007 15.0410995
80.4195023 -43.0354996 15.2586002
80.6391983 -57.2775993 4.38180017
80.7721024 -57.2224007 5.07870007
80.6980438 -57.3278503 5.24289989
80.6941986 -57.3372993 5.51949978
80.6898041 -57.2905006 5.99670029
80.7612991 -57.327301 6.0145998
80.786499 -57.2102013 8.5692997
80.7537003 -57.1846008 4.29230022
80.6343994 -57.1650009 4.99669981
80.7900009 -57.1763992 7.88049984
80.6593018 -57.1315994 8.1626997
80.6360016 -57.0755997 9.41160011
80.6647034 -57.0820007 9.74540043
80.6041031 -57.0317001 10.5248003
80.6184998 -57.1269989 11.066
80.790802 -57.0191002 11.6398001
80.7244034 -57.0526009 13.5335999
80.6810989 -56.9931984 9.95129967
80.7498016 -56.9706993 10.4342003
80.7918015 -56.9659004 10.8027
80.7303009 -56.9505997 13.2468004
80.6420975 -56.8995018 13.5434999
80.6760483 -56.8656502 15.5368004
80.6546478 -56.9412498 15.7059498
80.7217026 -56.7088013 5.00279999
80.793602 -56.7356987 14.1917
80.6569977 -56.6997986 15.2154999
80.7437973 -56.5800018 15.3739004
80.6193008 -55.9608994 15.4790001
80.6608963 -43.6007996 3.78379989
80.7151489 -43.6982498 3.8902998
80.6980438 -43.6764984 4.25180006
80.696701 -43.4452019 4.64230013
80.7289963 -43.4730988 4.9611001
80.7155991 -43.4062996 9.4151001
80.6219025 -43.3398018 14.7795
80.725502 -43.1288986 13.0903997
80.6532974 -43.1867981 14.3704004
80.7444 -43.0948982 15.0460997
80.6028976 -43.1063995 15.2418003
80.856102 -57.3652 3.01270008
80.8324966 -57.3558006 5.10809994
80.8457031 -57.2493515 5.96615028
80.8305969 -57.1599007 4.46029997
80.9968033 -57.0634995 6.65869999
80.9922028 -57.0679016 7.11380005
80.9757004 -57.1488991 8.25220013
80.9532471 -57.1090508 8.72525024
80.9125977 -57.1785011 8.94449997
80.8960495 -57.1391487 11.3139
80.8228455 -57.0627975 11.53685
80.814003 -57.0768013 14.2490997
80.9001999 -56.9155006 13.8365002
80.8719025 -56.8799019 14.1150999
80.9133987 -56.8232994 15.5576
80.9505463 -56.8551483 15.7340498
80.8679962 -56.6791992 4.95034981
80.8145981 -44.6291008 4.4907999
80.9710007 -43.9207993 3.31850004
80.9479523 -43.8837509 4.02645016
80.8656006 -43.6134987 4.0783
80.8478012 -43.6543007 4.39909983
80.9578018 -43.4964981 4.55109978
80.8033981 -43.4887009 4.65929985
80.8814011 -43.2952995 14.4688997
80.9100494 -42.9260025 13.2883501
81.1710968 -57.3614006 3.22350001
81.0926971 -57.2677002 3.8520999
81.1500473 -57.2851486 5.13094997
81.1280975 -57.3212013 5.33239985
81.0235977 -57.3666 5.7269001
81.0966721 -57.3270493 5.90492535
81.108902 -57.2691002 7.78240013
81.1242981 -57.0186996 7.61149979
81.0603027 -57.0724983 8.22910023
81.1371002 -57.1110001 11.7727003
81.1412964 -57.1492996 13.6224003
81.0523987 -57.0088005 16.0121994
81.0254974 -56.9886017 7.16239977
81.0587997 -56.8791008 9.84860039
81.0950012 -56.9365997 10.5040998
81.1940002 -56.9818001 10.8701
81.1626511 -56.8938522 15.7416
81.132103 -56.7617989 13.1273003
81.1267014 -44.6776009 4.69449997
81.1456985 -43.8149986 3.68390012
81.098999 -43.896801 3.8210001
81.1818008 -43.703701 3.74740005
81.1787033 -43.7154007 3.82680011
81.007103 -43.7103004 4.33500004
81.1735001 -43.6072998 6.6887002
81.1970978 -43.6012993 7.0461998
81.1877975 -43.4686012 4.53420019
81.1066971 -43.4995995 9.22220039
81.100296 -43.0713997 12.9391499
81.0369034 -43.0018997 13.0651999
81.0024033 -43.1875992 14.9757996
81.1439972 -43.1825981 15.0593996
81.1231995 -43.0852013 15.3240995
81.0974655 -42.8688316 13.0748663
81.0298004 -42.7425995 13.1465998
81.2424011 -57.3074989 3.54399991
81.2233963 -57.3284988 4.88339996
81.3640976 -57.3415985 5.42379999
81.3752975 -57.3398018 5.75710011
81.3756027 -57.3577003 5.85050011
81.2888031 -57.1213989 6.77619982
81.290802 -57.0222015 7.29059982
81.2092972 -57.0541992 7.4829998
81.2637024 -57.1057014 7.65250015
81.2570038 -57.1870003 8.11859989
81.3366013 -57.1731987 8.52320004
81.2049026 -57.1823006 8.73560047
81.2442017 -57.0741005 10.7479
81.314949 -57.0515518 13.2518005
81.376297 -56.9306984 11.6712999
81.3733978 -56.9645996 13.3594999
81.3320007 -56.9241982 13.9315004
81.3852997 -56.9247017 15.8678999
81.2581024 -56.7701988 14.3439999
81.2136993 -43.8119011 3.68210006
81.336647 -43.6854477 3.30324984
81.3733368 -43.635601 3.48463345
81.2960968 -43.6349983 3.60730004
81.3673019 -43.7671013 3.89229989
81.2710037 -43.2209015 14.9619999
81.3352966 -43.2943993 15.0248003
81.2328033 -43.0793991 14.9961996
81.2362976 -42.9584007 12.9792004
81.4957962 -57.3707008 3.03979993
81.4604034 -57.2439995 4.53049994
81.5703964 -57.2803001 4.9861002
81.5776978 -57.2499008 5.04360008
81.5491028 -57.2313995 5.62039995
81.4555969 -57.2500992 8.47000027
81.4319992 -57.2095985 8.97630024
81.5370026 -57.110199 7.73064995
81.4125977 -57.1735992 8.60179996
81.5907974 -57.1459007 8.97229958
81.5226974 -57.0279999 10.4443998
81.4447021 -57.1338005 10.8290005
81.5235977 -56.9138985 10.5165501
81.5235977 -56.9575996 11.1561003
81.5027008 -56.9243011 13.1409492
81.5597992 -56.9669991 13.2790003
81.4262009 -56.919899 13.7917004
81.4217987 -56.8785019 15.4507999
81.5475006 -56.1125984 4.93340015
81.533699 -43.676899 3.4224999
81.5500031 -43.6171989 3.82240009
81.513298 -43.6008987 4.03030014
81.5904999 -43.6484985 4.41569996
81.4565964 -43.6562004 6.05660009
81.4517975 -43.658699 6.37330008
81.5538025 -43.6299019 6.4454999
81.4316025 -43.6171989 7.09399986
81.5066986 -43.4668999 2.88639998
81.5708008 -43.5691986 3.9467001
81.4345016 -43.5960007 4.4296999
81.4764023 -43.4723015 5.94369984
81.4791031 -43.531601 6.10300016
81.4646454 -43.4732513 6.44795036
81.4833984 -43.4817505 6.6803503
81.4954071 -43.5130005 9.04644966
81.4754028 -43.4948997 9.27659988
81.4748993 -43.5266991 9.74709988
81.5370483 -43.3992004 8.88934994
81.5346985 -43.3353004 9.23630047
81.5552979 -43.3204002 9.85900021
81.5936966 -43.2261009 14.4406004
81.5979996 -43.0147018 12.9375
81.6973038 -57.3823013 3.24449992
81.7097015 -57.2419014 5.45539999
81.634201 -57.3837013 6.04769993
81.6485977 -57.1263008 7.86100006
81.6905975 -57.1730995 8.07730007
81.717598 -57.0956001 8.22809982
81.6169968 -57.0079994 10.4876003
81.6611023 -57.0937004 10.8744001
81.6827011 -57.0441017 11.4191999
81.6623993 -56.990799 11.0065002
81.6411972 -56.8302002 12.9811001
81.7925034 -56.9360008 15.5853996
81.7277985 -56.9826012 16.0209999
81.6436996 -43.8003006 3.48180008
81.6763992 -43.7710991 3.03670001
81.699501 -43.7980003 3.51839995
81.7357025 -43.6963005 4.38609982
81.6244965 -43.6055984 5.63390017
81.778801 -43.5910988 3.95630002
81.6094971 -43.3358002 9.04599953
81.6520004 -43.3028984 14.9638996
81.6475983 -43.0903015 12.8921003
81.6156006 -43.0587006 15.0558004
81.8718033 -57.2518997 4.62190008
81.9493561 -57.2936478 5.09214973
81.8960037 -57.344799 5.67000008
81.8261032 -57.2226982 8.25339985
81.9944 -57.2030983 8.91460037
81.9480972 -57.1375008 4.85699987
81.9264984 -57.1343002 6.35290003
81.8486023 -57.1497002 7.54320002
81.9220505 -57.010498 10.5350504
81.8828964 -56.9905014 9.47879982
81.9791031 -56.9359016 9.61699963
81.8757019 -56.9150009 10.0562
81.8911972 -56.8544006 10.2131004
81.9821014 -56.8916473 10.5111504
81.9287033 -56.8909988 13.8491001
81.8262024 -56.8089981 15.5958996
81.9347992 -56.9622002 15.8705997
81.9175034 -55.8311996 4.34060001
81.9112473 -55.9430504 4.74324989
81.8992004 -55.6618996 4.58370018
81.9916 -44.8664017 4.14830017
81.813797 -44.3054008 9.8135004
81.9461975 -43.6879997 3.18009996
81.9988022 -43.6621017 3.61279988
81.9439011 -43.6859016 4.1019001
81.9972 -43.6612015 4.27589989
81.9103012 -43.5489006 4.45394993
81.9192047 -43.4758987 7.11290026
81.8660965 -43.5107994 9.78209972
81.9923019 -43.2016983 14.9720001
81.9933014 -43.1957016 14.9048004
82.1043015 -57.4174004 3.28539991
82.1568985 -57.2865982 4.44399977
82.0754013 -57.2294006 4.64900017
82.1156006 -57.2579002 6.08960009
82.0690002 -57.2350998 7.83669996
82.1917038 -57.2346992 8.11330032
82.0886002 -57.2258987 8.23740005
82.0915985 -57.1271019 3.84980011
82.0647507 -57.1694489 4.34004974
82.0393982 -57.0833015 7.64249992
82.0366058 -57.1394997 8.73999977
82.0815964 -57.0802994 10.5457001
82.1064987 -57.0388985 11.2438002
82.0201035 -57.0699005 11.4222002
82.1956024 -57.0046005 13.1296997
82.1958008 -57.0307999 13.3223
82.0146027 -56.8902969 4.58465004
82.1054993 -56.944603 9.91040039
82.0007019 -56.9137001 10.1882
82.0633011 -56.8286018 10.3909998
82.0960999 -56.924099 13.4695997
82.0711975 -56.8286018 13.9380999
82.1763992 -56.8583984 15.1393003
82.0057983 -56.8103981 15.2145996
82.1158981 -56.803299 15.4139996
82.0559006 -56.7616997 4.99310017
82.0535965 -56.6962013 15.2542
82.1980972 -56.7720985 15.4786997
82.1551971 -56.1208 4.86320019
82.1397018 -55.9486008 7.50829983
82.0298996 -43.7929001 3.07290006
82.0205994 -43.6338997 4.37720013
82.0908966 -43.6007996 6.17570019
82.0754547 -43.5034027 3.47704983
82.0619965 -43.5411987 3.61879992
82.1252441 -43.4543495 6.26315022
82.1147308 -43.4854317 6.64890003
82.0786972 -43.5061989 6.93860006
82.0186005 -43.5966988 7.19570017
82.1563034 -43.5233994 9.17010021
82.1539993 -43.3083992 9.13459969
82.1886978 -42.9884987 8.01130009
82.3326035 -57.4533005 3.01329994
82.2052002 -57.2827988 4.93380022
82.3089981 -57.3235016 5.38170004
82.3047028 -57.294735 5.70830011
82.2779007 -57.2070999 5.93380022
82.356102 -57.3352013 6.23859978
82.2598038 -57.2052994 8.00279999
82.3647003 -57.2438011 8.85470009
82.3136978 -57.1404991 7.50110006
82.2078018 -57.0275993 7.63509989
82.2733994 -57.1167984 7.92460012
82.3087006 -57.1413994 8.48260021
82.3119965 -57.0517006 10.3913002
82.2843018 -57.1399002 10.6375999
82.2993011 -57.0196991 10.8387003
82.2363968 -57.1573982 11.0447998
82.3796005 -57.1151009 11.4481001
82.3162003 -57.0849991 13.2124004
82.2522964 -56.9408989 9.52330017
82.2248993 -56.9304008 15.6148996
82.2009964 -56.7857018 9.81070042
82.3283005 -44.6875992 4.30649996
82.3052979 -43.6763 4.30905008
82.2332001 -43.5797997 3.97000003
82.3254013 -43.4370003 7.99700022
82.3363037 -43.2631989 8.15299988
82.2946472 -43.2901993 14.8748999
82.3600006 -43.2196007 15.1365995
82.3897018 -43.1433983 7.77640009
82.2782974 -43.1132011 7.89580011
82.2298965 -43.0514984 8.1239996
82.2254028 -43.1406021 15.1364002
82.370697 -42.950901 7.82310009
82.2290192 -42.9215508 8.10229969
82.2378998 -42.9534988 8.43929958
82.4110031 -57.2867012 4.85620022
82.4194031 -57.3227997 5.65819979
82.5975037 -57.2047997 7.77820015
82.4916992 -57.077301 10.2937002
82.4285965 -57.0681992 13.7420998
82.4220963 -57.0089989 13.8217001
82.5533447 -43.6446991 3.93564987
82.5842972 -43.7725983 4.37020016
82.4531021 -43.5332985 7.10995007
82.4633026 -43.5261002 9.68690014
82.4533005 -43.4131012 9.97640038
82.4554977 -43.3354988 8.11789989
82.4179993 -43.1463013 14.9773998
82.5587006 -42.9380989 7.84030008
82.7380981 -43.7127991 3.74119997
82.6427994 -43.6305008 3.87039995
82.7273026 -43.6208 7.07480001
82.6485977 -43.4359016 2.74309993
82.6128998 -43.4250984 4.69880009
82.6384964 -43.4735985 6.2322998
82.7104492 -43.5147476 7.09214973
82.7285995 -43.4631004 7.74590015
82.6911011 -43.0113983 7.85529995
82.683197 -42.9343987 7.99679995
82.7947998 -42.9776001 10.6190996
82.7929993 -42.8679008 10.8618002
82.756897 -42.7947998 10.8583002
82.8808975 -55.9179993 9.53219986
82.8799973 -55.8719025 9.67444992
82.9478989 -55.8666992 9.85620022
82.8359985 -55.8214989 13.0728998
82.8947983 -43.6171989 6.51980019
82.8468018 -43.4958 2.61310005
82.8023987 -43.4280014 7.22079992
82.8541031 -43.1301994 2.89669991
83.1528015 -56.0166016 7.59819984
83.0647964 -55.9953995 9.11670017
83.1663971 -55.8460007 9.66419983
83.1568985 -55.6307983 14.3593998
83.0522003 -55.6945 14.8500004
83.156601 -55.5723 11.4764996
83.1871033 -55.5875015 13.6731997
83.0911026 -43.5896988 4.39870024
83.1194 -43.3833008 9.87090015
83.1227036 -43.2641983 13.0397997
83.1000519 -43.0811005 2.52810001
83.0848999 -43.1463013 10.6546001
83.1253967 -42.861599 10.7152004
83.0375977 -42.9589996 13.2842999
83.0834503 -42.7013512 13.0912495
83.3921967 -55.8624001 7.60780001
83.3905029 -55.7909012 8.36559963
83.3627014 -55.7640991 11.9954004
83.3616028 -55.6889992 12.7593002
83.2377014 -55.6664009 14.1176004
83.2276993 -55.6044998 15.5632
83.3768005 -43.2910004 10.3816004
83.2145004 -43.2431984 14.6166
83.2539978 -43.0433998 10.5674
83.3419037 -42.8490982 10.4518995
83.2344971 -42.7020988 13.3050003
83.5276031 -55.6952019 11.6589003
83.4648972 -55.7933006 16.0100002
83.4459 -55.5792999 11.4216995
83.5579987 -55.5133018 13.6342001
83.5858994 -43.8269997 3.67260003
83.5409012 -43.8184013 3.9776001
83.5465012 -43.8106003 4.55660009
83.5115967 -43.6941986 2.93569994
83.4821014 -43.6085014 3.16669989
83.5467529 -43.7528992 3.89345002
83.4179001 -43.6172981 4.04460001
83.5895004 -43.7877007 4.42299986
83.5603027 -43.6735001 6.34329987
83.5338974 -43.5507011 3.19989991
83.5831985 -43.5143013 3.3052001
83.5972977 -43.5423012 3.51119995
83.5146027 -43.5662003 4.25839996
83.4073029 -43.5607986 7.0302
83.4200974 -43.2416 10.5712004
83.4136963 -43.2486 14.5986996
83.4873962 -43.3340988 15.0191002
83.4192963 -43.0133018 2.63680005
83.4389038 -43.1917992 10.5433998
83.4868011 -43.0877991 13.1561003
83.5124969 -42.7102013 10.5479002
83.4768066 -42.7080994 13.0980492
83.7615967 -55.8777008 8.21170044
83.7826996 -55.9712982 8.96689987
83.6126022 -55.9145012 9.15089989
83.6011963 -55.8479004 9.23019981
83.7645035 -55.9371986 10.0344
83.7874985 -55.8160019 12.5388002
83.7919006 -55.7681007 8.99190044
83.7194977 -55.7457008 12.7305002
83.680397 -43.9659004 3.75209999
83.6585999 -43.8414993 4.48099995
83.7830963 -43.8014984 9.76140022
83.7338028 -43.6111984 3.53979993
83.6252975 -43.7713013 3.71429992
83.6616974 -43.6246986 6.28009987
83.7039032 -43.7220001 6.54750013
83.6365967 -43.6029015 6.73280001
83.6315002 -43.5280991 3.0483501
83.6202011 -43.4492989 3.39319992
83.65625 -43.47715 3.51850009
83.642334 -43.4416656 3.73383331
83.6080017 -43.5141983 3.83520007
83.6334991 -43.4813004 4.11609983
83.7325974 -43.4640999 4.24779987
83.6275024 -43.4374008 4.43429995
83.7032318 -43.5164337 5.28043318
83.6082001 -43.5429993 5.51879978
83.7507019 -43.5201988 5.62580013
83.6697006 -43.4687004 5.9380002
83.6227036 -43.597599 6.39489985
83.680397 -43.4724007 6.51980019
83.6223984 -43.531601 6.77650023
83.6297302 -43.4686737 6.96570015
83.6532974 -43.4407005 7.48449993
83.7708969 -43.4343987 9.38990021
83.6725006 -43.4227982 14.0778999
83.759903 -43.2961006 3.26975012
83.6808624 -43.3333015 4.11536694
83.6958008 -43.2848015 4.24660015
83.7387009 -43.3437004 4.61420012
83.7556992 -43.2514992 5.30740023
83.668602 -43.3742981 5.95340014
83.6990967 -43.3242989 6.06920004
83.733902 -43.3913994 6.52629995
83.6873703 -43.3156013 6.65813351
83.7642975 -43.2930984 6.89244986
83.7434998 -43.2490005 7.36990023
83.716301 -43.3618011 7.56720018
83.6734009 -43.3650017 7.85039997
83.7370987 -43.3226013 8.12660027
83.7583008 -43.2486 9.44550037
83.7916031 -43.2565994 12.6049995
83.7820969 -43.1878014 4.4052
83.7898026 -43.1062012 9.46210003
83.7463989 -43.1329994 10.5879002
83.7822037 -43.1385994 12.2838001
83.6393967 -43.1641006 13.0820999
83.7547989 -42.7280006 12.9111996
83.8780975 -56.0789032 6.93144989
83.8482971 -56.1021996 7.06389999
83.8076019 -56.0789986 7.61749983
83.9753036 -55.9729004 7.10010004
83.9628983 -55.9676018 7.43160009
83.9389038 -55.982399 9.23349953
83.8292007 -55.8033981 9.59920025
83.8579025 -55.8014984 11.9505997
83.9837036 -55.7546997 8.46870041
83.9389038 -55.7126999 11.3043003
83.8105011 -55.7602997 11.9675999
83.8274994 -43.4005013 7.59019995
83.8550034 -43.3618011 5.20429993
83.9222488 -43.2451019 7.72230005
83.8399963 -43.3330002 9.11060047
83.8684006 -43.3027992 9.63080025
83.8405991 -43.3204002 11.8874998
83.928894 -43.1086502 8.05430031
83.8287964 -43.1553001 12.0649996
83.8732986 -43.1120987 13.0529003
83.990097 -43.0760994 14.5909004
83.8828964 -43.1530991 14.6204004
83.9809036 -42.8939018 8.30780029
84.1564026 -56.0946999 7.5019002
84.1593018 -56.0507965 7.73365021
84.1519012 -56.0662994 9.30179977
84.0764999 -55.9025993 8.12220001
84.0951004 -55.8484001 8.76580048
84.0307999 -55.8949013 9.1196003
84.164856 -55.8806992 9.86660004
84.1932983 -55.9093018 10.2770004
84.1876984 -55.8676987 10.6540003
84.1103973 -55.8027 12.1427002
84.0112 -55.8516006 13.6224003
84.0238495 -55.6571999 13.1142006
84.1889038 -55.7827988 13.8116999
84.0615997 -55.6515999 15.4842997
84.1184998 -55.5917015 12.4671001
84.0708008 -55.5937996 13.9827003
84.1523972 -43.3690987 5.03450012
84.0399017 -43.2621994 14.4757996
84.1172028 -43.1040001 7.78660011
84.0345993 -43.0554008 7.97025013
84.1486969 -43.0437012 13.1469002
84.0048981 -42.921299 7.97800016
84.0550995 -42.8176003 8.18760014
84.2069016 -56.1269989 6.18160009
84.2833023 -56.0760002 6.72049999
84.2770004 -56.0710983 6.82000017
84.2791977 -56.0746994 7.12260008
84.3937988 -56.0047989 7.38399982
84.2733002 -56.0280991 7.49940014
84.206398 -56.0700531 7.67624998
84.3098984 -56.0093002 7.91270018
84.3884964 -56.0451012 8.14009953
84.2027969 -56.0046005 9.76710033
84.2949982 -55.9426003 10.8647003
84.3430023 -55.7867012 9.63860035
84.2236023 -55.7422981 10.5650997
84.3940964 -55.7629013 11.3046999
84.3637009 -55.6696014 13.3743
84.2882004 -43.2933502 2.95359993
84.3337021 -43.2566986 3.05200005
84.2388992 -43.2346992 3.27270007
84.2630005 -43.132 2.79850006
84.3974991 -43.0839996 2.96790004
84.3916473 -43.0658493 3.06379986
84.3367004 -43.0937996 3.90930009
84.2093964 -43.0992012 4.30149984
84.2950974 -43.0507011 4.46619987
84.2619019 -43.0932007 13.2364998
84.3845978 -42.9884987 13.0487003
84.2797012 -42.8268013 13.3102999
84.3354034 -42.7832985 13.1378002
84.5082016 -56.0542984 7.69159985
84.4160995 -56.0559998 7.96810007
84.5239029 -56.0334015 8.25870037
84.4971008 -56.0265999 8.65789986
84.4797974 -56.0373001 9.33500004
84.5641022 -56.0141983 10.2614002
84.4509964 -55.9991989 7.94379997
84.5143967 -55.8820992 9.59200001
84.5398026 -55.8774986 11.5902004
84.4955978 -55.8650017 11.7651997
84.4583969 -55.8366013 13.3001003
84.4207993 -55.8312988 14.3985996
84.4319992 -55.8501015 16.1707993
84.5945969 -55.6389999 11.5226002
84.4447021 -55.7340012 13.0059996
84.5253983 -55.6236 15.2823
84.5500031 -43.3141022 5.06879997
84.447197 -43.2034988 5.23999977
84.5577545 -43.1171989 2.88945007
84.4023972 -43.1795006 5.0229001
84.4826965 -43.0553017 5.36320019
84.4718018 -43.0383987 5.60750008
84.552597 -43.051899 7.82229996
84.5784988 -43.0579987 12.8971996
84.5157013 -42.8805466 5.34934998
84.7945023 -56.3026009 4.16499996
84.7589035 -56.239399 4.3979001
84.7491989 -56.1834984 3.73340011
84.6700974 -56.1631012 4.27580023
84.6692963 -56.1725006 5.16709995
84.7170029 -56.1861992 5.98320007
84.6816025 -56.0597992 6.42689991
84.743103 -56.0108986 7.18779993
84.7583008 -56.0077515 7.48409986
84.7202988 -56.0009995 7.86250019
84.7701035 -56.0399017 10.8909998
84.7553024 -55.9724998 8.21339989
84.6990051 -55.9084511 8.69915009
84.7826996 -55.9491997 10.0883999
84.7911987 -55.8815002 10.9141998
84.7573013 -55.8455009 11.9157
84.6595001 -55.7043991 11.0904503
84.6295013 -55.7840004 12.3941002
84.6343002 -55.6417007 13.6138
84.7210999 -43.6525002 5.6244998
84.7557983 -43.5820999 5.9066
84.7068024 -43.5695 6.5479002
84.7914963 -43.4877014 8.84570026
84.6452026 -43.2206001 3.3131001
84.626152 -43.3132515 7.64309978
84.6608963 -43.1515999 3.14479995
84.6792984 -43.1279488 4.35474968
84.7014008 -43.0276985 5.44140005
84.6894531 -42.9595032 4.8895998
84.7026978 -42.8518982 12.8772001
84.6315994 -42.5741997 13.1862001
84.8830032 -57.2335014 3.48379993
84.9126968 -57.3651009 3.67199993
84.8573532 -57.3390999 3.8743
84.8862991 -57.2518997 4.10750008
84.8687973 -57.282299 4.60550022
84.990097 -57.2358017 5.17399979
84.9188995 -57.2019997 5.92329979
84.8749008 -57.092701 3.7734499
84.8615036 -57.0839005 4.06269979
84.8879013 -57.0643005 4.79050016
84.8700027 -57.0993996 5.04449987
84.9313965 -57.1079025 5.30774975
84.8985672 -57.0936012 5.70429993
84.9349518 -57.0910492 5.97165012
84.9613037 -57.1655998 6.11189985
84.8735962 -57.0457001 7.87510014
84.8592987 -57.0097008 8.12080002
84.9756012 -57.1138992 8.30949974
84.8798523 -57.0779495 8.55235004
84.8078995 -56.8249016 3.63310003
84.9161224 -56.8983269 5.11552525
84.8933029 -56.9096985 5.4798665
84.9284058 -56.9528008 5.75594997
84.8998032 -56.9894981 5.87249994
84.8917465 -56.8729019 7.96860027
84.9104996 -56.9742012 8.25500011
84.9297714 -56.8508339 8.50103378
84.9991989 -56.8988991 10.1766005
84.9641037 -56.9473 10.3879004
84.9376984 -56.917099 10.7109003
84.9321365 -56.8896332 10.9076338
84.953598 -56.8213005 11.3000002
84.9376984 -56.9042015 11.5270004
84.8943024 -56.8474007 16.0639992
84.9079971 -56.7286987 5.17010021
84.8208008 -56.7616005 5.33900023
84.9524994 -56.6091003 5.41379976
84.8731003 -56.7081337 5.68626642
84.9490967 -56.6026001 5.94780016
84.9112015 -56.6601982 7.77559996
84.9815979 -56.7226982 7.91270018
84.9186478 -56.6903534 8.3220005
84.9125061 -56.6557007 8.56589985
84.9998016 -56.6123009 8.81410027
84.955101 -56.7860985 10.4811001
84.9496231 -56.689476 10.7469006
84.8479004 -56.7689018 11.1449003
84.9195023 -56.6503983 11.2187996
84.9508972 -56.6749001 13.9404001
84.8941498 -56.6873512 14.1350498
84.9216995 -56.6982994 15.8357
84.8806 -56.5696983 4.06820011
84.846199 -56.4352989 4.29129982
84.9392014 -56.5337982 4.94540024
84.8676987 -56.5702019 5.15999985
84.9087982 -56.4575996 5.74289989
84.9238968 -56.4263 5.84009981
84.8824997 -56.5774994 6.12150002
84.9897995 -56.4412003 6.79279995
84.9718018 -56.5293007 7.8520999
84.9518967 -56.5321999 8.23799992
84.9904022 -56.4392014 8.55130005
84.9402008 -56.5621986 10.5492001
84.9654007 -56.4916992 10.7557001
84.9747009 -56.5797997 11.1362
84.9161987 -56.4612007 11.6210003
84.9667511 -56.4749527 13.2714005
84.9721985 -56.4464989 13.5137997
84.8255005 -56.3739014 3.74320006
84.8549042 -56.33395 3.87174988
84.8448029 -56.3979988 5.01859999
84.8656998 -56.3012009 5.86619997
84.9860001 -56.2305984 7.65990019
84.933403 -56.2193985 7.85489988
84.8649979 -56.3000488 8.04055023
84.9411469 -56.3127975 8.3572998
84.9558029 -56.3900986 8.51399994
84.9605026 -56.2826996 10.7136002
84.8815002 -56.3465004 10.8715
84.9438934 -56.2290497 11.2692003
84.9468002 -56.2965012 11.4316998
84.9410019 -56.3902016 13.1295004
84.8779984 -56.1918983 5.49560022
84.8548965 -56.1127014 6.23150015
84.8072968 -56.0569992 6.89359999
84.864296 -56.0932007 7.27803326
84.885498 -56.1072464 7.69684982
84.913147 -56.1323013 8.30459976
84.9167023 -56.0078011 8.4659996
84.8504486 -56.0716476 8.6590004
84.8703995 -56.0703011 9.04749966
84.8781967 -56.0481987 9.2421999
84.8880997 -56.1731987 10.6014996
84.9326019 -56.0995483 11.29035
84.9313965 -56.0547981 11.5903997
84.9560013 -56.1729012 13.7182999
84.9916 -56.0357018 13.8017998
84.9060974 -56.1777 15.7726002
84.8367004 -55.9782982 7.81419992
84.8246002 -55.9603004 8.00209999
84.8200989 -55.9384995 8.47399998
84.8395004 -55.9788017 8.85210037
84.8921967 -55.982399 9.17500019
84.9170532 -55.9384995 9.55895042
84.977951 -55.9473495 9.96755028
84.8838043 -55.967598 10.2237501
84.8535004 -55.9217987 10.6254997
84.9208298 -55.949234 10.9235334
84.853302 -55.8419991 11.5839996
84.9438477 -55.8404503 12.1363506
84.964447 -55.8785019 12.3612995
84.933197 -55.8334999 12.5910997
84.921402 -55.9160995 13.3893003
84.9394989 -55.8922005 15.7146997
84.8303986 -55.9221001 16.1331005
84.8496017 -55.9735985 16.2661991
84.8190994 -55.7114983 13.0790997
84.8752975 -43.0620995 4.11219978
84.918602 -42.9397011 5.21400023
84.9206009 -42.9076004 12.8119001
85.0635986 -57.3368988 3.83119988
85.1828003 -57.2014999 5.30840015
85.0839996 -57.293499 5.95389986
85.1364975 -57.2300987 7.77549982
85.0123978 -57.0522003 6.10279989
85.0485992 -57.1099014 6.29304981
85.1165009 -57.0864334 6.51520014
85.0858994 -57.1166 6.69010019
85.109848 -57.0996513 6.86929989
85.093399 -57.0866013 7.32749987
85.0840683 -57.0548019 7.69293356
85.1531982 -57.0845985 8.1473999
85.0065002 -57.1567001 8.22770023
85.0093994 -57.1809006 8.51790047
85.0080032 -57.1062012 8.79399967
85.0002975 -57.0181007 11.073
85.0578003 -57.0303993 11.3091002
85.011795 -56.9884491 6.31589985
85.036499 -56.9970016 6.45050001
85.0058975 -56.8050995 6.98670006
85.069603 -56.9920006 7.09619999
85.0914993 -56.9450989 7.36000013
85.0616455 -56.9054031 7.51210022
85.1219025 -56.9917984 8.9083004
85.1587982 -56.963501 9.11760044
85.0628052 -56.9036484 9.30420017
85.0429993 -56.9197006 9.40799999
85.0623016 -56.9953003 11.3330002
85.1392975 -56.8899994 13.0085001
85.0604019 -56.8987999 13.4741001
85.030899 -56.9487 13.7118998
85.0709 -56.7332993 7.4449501
85.0498962 -56.7532997 9.46290016
85.1945038 -56.7084007 9.97770023
85.125 -56.7243996 10.1760998
85.1257019 -56.6194992 10.2068996
85.0231018 -56.7321014 10.4455004
85.1260986 -56.6794014 13.0312996
85.1941986 -56.6306 14.9261999
85.115303 -56.6939011 15.3111
85.146698 -56.570549 6.84150028
85.0366974 -56.5708008 7.35720015
85.1352997 -56.5130997 9.10179996
85.0559998 -56.5037003 9.99569988
85.0921021 -56.5167999 10.0079002
85.0319519 -56.4402504 10.4705505
85.0820007 -56.4805984 13.2870998
85.1175995 -56.4271011 15.3023005
85.1091995 -56.3042488 7.51554966
85.0830994 -56.2551003 9.4296999
85.1547012 -56.3030014 9.73999977
85.0725021 -56.3536987 9.89500046
85.1258011 -56.2710991 12.1737003
85.0295029 -56.3328018 13.1623001
85.0341034 -56.3745003 13.8745003
85.1199493 -56.2499504 14.5538502
85.1161957 -56.2708511 15.4535999
85.0409012 -56.152401 6.63810015
85.0119019 -56.1366997 7.32340002
85.149147 -56.0762749 9.2887001
85.1378021 -56.0727005 9.5635004
85.093399 -56.0598984 9.78390026
85.0742035 -56.1325989 12.7540998
85.0699005 -56.0918999 13.0389004
85.0827026 -56.1315002 15.0955
85.0963974 -56.0723991 15.5943003
85.0541534 -55.9641991 9.07550049
85.0920029 -55.8807983 10.2470999
85.0213013 -55.8445015 11.9881001
85.0117035 -55.9972992 14.2137003
85.0530014 -55.8139 14.4404001
85.1083984 -43.3356018 5.01440001
85.061203 -43.0093002 5.35370016
85.1817017 -42.9182014 5.13360023
85.0008011 -42.8651009 5.26240015
85.2462997 -57.2144012 6.2256999
85.2241974 -57.0889015 7.32520008
85.341301 -57.1240005 7.59870005
85.3359985 -57.1467018 7.94080019
85.3447037 -57.0791016 8.3057003
85.3445435 -57.1114502 8.65635014
85.2236023 -57.0415001 9.20160007
85.2725983 -57.0536003 11.0928001
85.3535995 -57.0278015 11.4005003
85.2564011 -56.9155006 13.4833002
85.2126007 -56.7640991 9.54669952
85.2505035 -56.7188988 12.7086
85.2120972 -56.6752014 12.8879004
85.2156982 -56.7720985 14.5459995
85.2507019 -56.7658005 15.2219
85.2044983 -56.4289017 9.66600037
85.2099991 -56.0513 12.7458
85.2929001 -56.0489998 15.2603998
85.356102 -43.6007004 6.14559984
85.2098999 -43.6517982 6.98939991
85.358902 -43.5026016 6.04320002
85.4057007 -57.2752991 6.22329998
85.5038986 -57.0522003 7.14349985
85.5825958 -57.1045494 7.45565033
85.5270004 -57.1286011 7.77159977
85.406601 -57.1647987 7.92600012
85.5871964 -57.1265984 8.12160015
85.4268494 -57.1683998 8.46234989
85.5344543 -57.0199966 10.3188
85.4608002 -57.1235008 10.7361002
85.5557022 -57.028801 11.2143002
85.5429001 -56.7605019 15.1274996
85.4626999 -56.6674995 15.3843002
85.4384995 -43.4500999 6.54199982
85.5171967 -43.5299988 9.03240013
85.4291 -43.4076004 9.5710001
85.5014038 -43.0024986 3.17059994
85.7369995 -57.3050003 5.82620001
85.6591034 -57.2640991 6.00339985
85.6307983 -57.2271996 7.67089987
85.6095963 -57.1848984 5.04680014
85.714447 -57.1554489 7.53259993
85.6791992 -57.1189995 7.78569984
85.7049026 -57.1959 7.85659981
85.7344971 -57.1451988 8.08769989
85.7509003 -57.1147499 8.4864502
85.7891998 -57.1954002 8.74020004
85.7762985 -57.0267982 10.7445002
85.7244034 -56.9043007 10.3473997
85.6940994 -56.903801 10.7495499
85.7608032 -56.8335991 13.7334995
85.7830963 -56.9001007 15.4748001
85.6613007 -56.7874985 10.3024998
85.7059021 -56.7335014 15.6048002
85.6364441 -56.4629974 7.63965034
85.8904037 -57.3134003 5.54979992
85.9108963 -57.2938995 5.75689983
85.9979019 -57.3455009 11.1343002
85.9138031 -57.0557022 7.02270031
85.9583969 -57.0531998 7.23150015
85.9770966 -57.0723 7.40770006
85.9062958 -57.1389008 7.75129986
85.9631958 -57.118248 7.82254982
85.8557968 -57.1857986 8.10949993
85.9971008 -57.0744019 8.92329979
85.8343964 -57.0355988 10.5253
85.9574509 -57.0500488 11.0794001
85.8758011 -57.0093002 15.9729996
85.802803 -56.9555016 7.44189978
85.9169006 -43.4012985 9.63389969
85.9963989 -42.6128998 10.6209002
86.0953979 -57.4548988 11.0829
86.1695023 -57.3694 10.8493004
86.0679016 -57.1731987 3.97550011
86.1929016 -57.0696983 6.30189991
86.1479034 -57.0698013 6.67369986
86.092247 -57.0617981 7.1388998
86.0764008 -57.0485992 7.29230022
86.0077972 -57.1029015 7.65910006
86.1143036 -57.0620995 10.6372995
86.0065002 -57.0870018 10.9755001
86.177002 -57.0130997 13.5271997
86.0379028 -56.868 6.87760019
86.0140991 -56.9846001 9.1164999
86.1079025 -56.9590988 9.84819984
86.1836014 -56.9205017 12.9705
86.0782013 -43.4518013 4.49940014
86.0128021 -43.469101 9.65130043
86.0893021 -42.9087982 10.3670006
86.0208969 -42.8284988 10.7037001
86.0354004 -42.7821007 10.5452995
86.2272034 -57.6386986 11.1960001
86.2246017 -57.5326996 10.9685001
86.3509521 -57.495697 11.1142998
86.347702 -57.4860992 11.4686003
86.2020035 -57.2066002 8.7823
86.2556 -57.343399 10.7614002
86.2655029 -57.1814003 5.35790014
86.3991013 -57.1693001 6.21560001
86.3311996 -57.0723 7.46689987
86.280304 -57.1222 7.68114996
86.2067032 -57.1703987 7.95340014
86.2848358 -57.1323662 8.444067
86.2890015 -57.1715012 8.61590004
86.3583984 -57.0419006 10.4980001
86.2362976 -57.0982018 11.2018003
86.2639999 -56.987999 9.1498003
86.2697983 -56.9838982 9.62390041
86.3844986 -56.9299011 13.7884998
86.3034515 -56.8354492 14.2446003
86.376503 -55.8264008 15.4989996
86.2203979 -43.4460983 7.18389988
86.3667984 -43.4233017 9.67389965
86.3603973 -42.7240982 10.4778004
86.5635986 -57.4544983 10.9045
86.5423965 -57.4336014 11.0061998
86.4759979 -57.2335014 5.39779997
86.594101 -57.2921982 5.57819986
86.585701 -57.2490997 5.6013999
86.5114975 -57.0200005 7.02209997
86.4673004 -57.1604996 7.63609982
86.4760971 -57.1717987 8.40209961
86.4785004 -57.0808983 8.63129997
86.5524979 -57.1910019 8.89109993
86.5239029 -57.1138992 10.5324001
86.5837021 -57.0144005 15.7533998
86.5709 -56.9998016 10.5234003
86.4021988 -56.9104004 12.0980997
86.4220505 -56.9304008 13.1318493
86.4942627 -56.8722992 15.4959335
86.4317017 -56.7939987 13.1216002
86.4796982 -43.4958992 7.0927
86.4770966 -43.592701 7.27729988
86.5456009 -42.844101 4.38049984
86.4076004 -42.6515007 10.5092001
86.6122971 -57.4878006 11.4274998
86.7238998 -57.3205986 5.45720005
86.7002029 -57.280201 5.60179996
86.7042007 -57.1234016 4.23169994
86.7994995 -57.1208 6.87220001
86.6200027 -57.0601997 7.25339985
86.776001 -57.1055984 7.41289997
86.6748505 -57.1441498 7.72300005
86.6264038 -57.1521988 8.5248003
86.7291489 -57.1310501 8.91289997
86.7833023 -57.0115013 9.44439983
86.7897034 -57.010601 9.87250042
86.7060013 -57.1242981 10.7503996
86.6629028 -56.8876991 9.11499977
86.7356033 -56.8574982 9.36769962
86.6843033 -56.9917984 9.56519985
86.6297989 -56.8969994 9.8718996
86.7117996 -56.9644012 10.4447002
86.6542969 -56.8115997 12.9974003
86.6325989 -56.9556007 13.573
86.6022034 -56.9189987 13.6587
86.7570038 -56.8050995 15.5005999
86.7678986 -56.8013992 15.7330999
86.6172028 -43.7398987 3.60610008
86.6397018 -43.7025986 5.68860006
86.7288971 -43.7751007 6.3032999
86.7669983 -43.7141991 6.56809998
86.7485962 -43.521801 6.9934001
86.6091995 -43.3364983 9.74419975
86.7642975 -43.2799988 12.2786999
86.6636963 -43.1355019 4.39669991
86.6906967 -42.8846016 10.0809002
86.6793976 -42.9090004 15.2469997
86.6239014 -42.7146988 10.2514
86.8405991 -57.203701 4.59520006
86.8913498 -57.1567993 4.35384989
86.8495026 -57.0699005 6.94859982
86.8569031 -57.0074005 7.41330004
86.9069977 -57.0578995 10.3993998
86.9136963 -56.9280014 9.43239975
86.8125992 -56.8711014 10.1156998
86.9329987 -56.8872986 15.4090996
86.9478989 -56.9253006 15.7820997
86.9938965 -56.0203018 7.17490005
86.9030991 -55.9860001 7.34759998
86.9468994 -43.5298004 6.2045002
86.9876022 -43.4921989 6.46710014
86.9141006 -43.4534988 6.80509996
86.959198 -43.4295006 9.6473999
87.0279999 -57.094101 7.44980001
87.0447006 -56.9264984 9.64690018
87.0379028 -56.9361992 10.0881996
87.1150055 -56.8730507 15.5282993
87.0572968 -55.9807014 6.88999987
87.023201 -55.9271011 7.06860018
87.1934967 -43.5233994 7.05620003
87.2622986 -57.1091995 7.72809982
87.223999 -56.9434013 10.4707003
87.2686005 -56.0237999 7.36289978
87.3996964 -55.9309998 7.24300003
87.3604965 -43.1125984 10.2294998
87.4400024 -57.0738983 4.33909988
87.4826965 -57.0196991 7.69369984
87.4989471 -56.7080002 15.3155499
87.5780029 -43.0024986 10.2300997
87.422699 -42.9211006 10.1306
87.5600967 -42.7769012 10.4771004
87.5149002 -42.6815987 10.6409998
87.7873001 -57.042099 6.24039984
87.7966003 -57.080101 6.46140003
87.6945038 -57.0642014 7.36259985
87.751297 -57.0362015 7.89940023
87.7817001 -56.978199 6.73330021
87.7882996 -56.9407005 9.55340004
87.6560059 -56.9429016 10.2799997
87.7090988 -55.8936005 7.52519989
87.682251 -43.6851501 5.54075003
87.7951965 -43.6470985 5.84719992
87.7718964 -43.6509018 6.47160006
87.7562027 -43.3386993 12.3947001
87.7266998 -42.9529991 10.2265997
87.8237991 -57.1035995 4.58029985
87.8141022 -57.1618996 6.16480017
87.8314972 -57.0726013 6.21260023
87.8080978 -57.0430984 6.53060007
87.8591003 -57.0568008 6.73190022
87.9467926 -57.1286507 6.88405037
87.905098 -57.0573006 7.56920004
87.8170013 -56.8689003 7.40630007
87.917099 -56.9902992 9.45600033
87.9527969 -56.9542007 10.0551996
87.8171997 -56.8652992 10.3340998
87.9235001 -56.9202995 15.6581001
87.8383026 -43.5382004 5.87389994
87.9514008 -43.4235001 8.73429966
87.9158936 -43.4569016 8.91149998
87.8852005 -43.4325981 9.16090012
87.9865036 -43.3530006 8.94540024
87.9260025 -43.0455017 15.0085001
87.9026031 -42.7635994 10.1892004
88.1227493 -57.115097 6.92500019
88.1436005 -57.0527496 7.50119972
88.0103989 -57.0056 9.85070038
88.1669998 -43.6338997 7.09829998
88.1579971 -43.4009018 14.7042999
88.0262985 -43.3947983 14.3466997
88.0410004 -43.3165016 14.4343996
88.0130997 -43.0472984 9.8920002
88.360199 -57.1032982 6.26070023
88.3314972 -57.0677986 6.77250004
88.3625031 -57.0735016 6.88129997
88.2083969 -57.0419998 7.22450018
88.3749008 -56.9660988 6.13089991
88.3606033 -56.9830017 6.76280022
88.2081985 -56.9897003 7.00489998
88.2143021 -56.8750992 7.61829996
88.3839035 -56.9836006 9.10039997
88.3393021 -56.9197998 10.2985001
88.2586975 -43.8558006 6.72209978
88.3587036 -43.6160011 3.66750002
88.2866974 -43.7692986 5.69420004
88.3902969 -43.5848999 3.95639992
88.282402 -43.3810997 9.60330009
88.2574005 -43.2327995 14.6939001
88.2385025 -43.0880013 14.8086004
88.5557022 -57.2070999 6.48869991
88.5334015 -57.0938988 4.69740009
88.5055008 -57.0894012 6.34119987
88.5176544 -57.0783005 6.74530029
88.592598 -57.1352997 7.01669979
88.5205002 -57.0797005 7.2954998
88.5063019 -57.0094986 9.24310017
88.4132004 -57.0493011 15.5024004
88.4531021 -56.9679985 7.62459993
88.4985962 -56.9540482 9.47274971
88.4869995 -56.8557014 9.87909985
88.5249634 -56.8849983 10.0624666
88.4048996 -43.5621986 5.96589994
88.5268021 -43.453701 6.52909994
88.4702988 -43.4799995 8.41720009
88.4503021 -43.4709015 9.54930019
88.4085999 -43.0042 14.9406004
88.6343994 -57.0817986 6.73099995
88.7574005 -57.023201 7.48110008
88.6113968 -57.0671997 9.10079956
88.7480011 -57.0023003 9.47229958
88.677948 -56.9437027 10.2741003
88.6417007 -56.910099 15.7034998
88.7501984 -56.7535019 15.4918003
88.7577972 -43.2556 4.90339994
88.7080536 -43.2195969 5.26920033
88.6827774 -43.1189232 5.08965015
88.6595001 -43.1381989 5.35500002
88.707901 -42.9235001 5.20179987
88.7221985 -42.9967003 5.40019989
88.914299 -57.5209007 8.81330013
88.8295975 -56.9407005 10.1588001
88.834198 -56.9105988 15.5604
88.8308029 -43.3577995 4.87650013
88.9448013 -43.1822014 7.51639986
88.8430023 -42.9099998 5.13240004
88.8542023 -42.976799 5.25279999
88.8862991 -42.8841019 7.62080002
89.0680008 -57.4678993 8.43270016
89.0879974 -57.28405 8.27729988
89.071701 -57.0912018 6.296
89.0149994 -57.1296997 6.45620012
89.0031967 -57.0679016 6.7270999
89.1585999 -57.0711975 6.87750006
89.0858994 -57.0229988 9.27460003
89.1564026 -57.0089989 9.7105999
89.0549011 -56.9920006 7.58330011
89.0573502 -56.891449 9.35124969
89.0673981 -56.9516983 9.43889999
89.1222 -56.9238014 10.5839996
89.1533966 -56.9606018 10.6230001
89.1449966 -43.8950996 6.99919987
89.0391006 -42.9659996 5.12190008
89.3788986 -57.4721985 8.57830048
89.3324966 -57.4501991 8.61760044
89.2182999 -57.3684006 8.23939991
89.3725967 -57.2425995 14.1489
89.3976974 -57.0409012 7.07690001
89.2956009 -57.0323486 7.72090006
89.3902969 -57.1655998 14.1616001
89.3945007 -56.8457985 10.0478001
89.2930984 -56.7961998 7.61429977
89.2495499 -55.7725525 6.9361496
89.2025986 -43.667099 6.30719995
89.3667984 -43.4670982 9.60789967
89.3227997 -43.2762985 5.04530001
89.2085037 -43.0621986 5.28399992
89.3079987 -43.1608009 12.7083998
89.3555984 -42.8812485 5.31540012
89.233902 -42.9139481 12.8803997
89.2048035 -42.8768005 13.1716995
89.3789978 -42.7583008 12.7923002
89.5062027 -57.4664001 8.28820038
89.5960999 -57.5945015 8.47739983
89.4494019 -57.4901009 8.71319962
89.4629974 -57.3824997 14.2800999
89.5802994 -56.979599 7.57000017
89.4982986 -56.8539009 15.5135002
89.5309982 -43.1334 7.39620018
89.4555969 -42.9142532 7.54454994
89.6940002 -57.4435997 8.12460041
89.6451035 -57.5737991 8.32289982
89.6364975 -57.2845001 8.13759995
89.645401 -57.2415009 8.22669983
89.620903 -57.1343994 8.12839985
89.7531967 -56.9650002 7.10680008
89.748497 -56.9459991 7.3980999
89.6306992 -56.7528992 9.88539982
89.7238998 -56.7974014 10.1456003
89.7368011 -43.6767998 6.52260017
89.7491989 -43.2095985 12.7361002
89.808197 -57.2036018 13.8856001
89.9449005 -57.0064011 4.62120008
89.9324036 -57.0511017 7.7494998
89.9404984 -56.8641014 4.79589987
89.9891968 -56.9816017 7.51240015
89.8879547 -56.8133011 10.3175001
89.9888992 -56.9639015 10.6063995
89.9431992 -56.8476982 10.9818001
89.8094025 -56.8149986 15.5447998
89.9049988 -56.7928009 7.22079992
89.9966965 -56.6892014 12.0739002
89.9293976 -44.1393013 6.62340021
89.884903 -43.6408997 3.69359994
89.8731995 -43.733799 3.84439993
89.9450989 -43.6390991 5.77740002
89.9749985 -43.6530991 6.27390003
89.9560013 -43.6996994 6.41219997
89.9244995 -43.6580009 6.70819998
89.9126968 -43.6477013 6.85279989
89.9424973 -43.5648003 4.41559982
89.9993973 -43.5516014 6.19460011
89.9780426 -43.4225006 6.31379986
89.9374008 -43.5582008 6.56960011
89.9150009 -43.5289001 7.0868001
89.9821014 -43.3779984 4.12190008
89.961647 -43.3185997 6.27789974
89.9349976 -43.3410988 7.09100008
89.9782028 -43.1049995 9.18959999
90.0621033 -57.2420998 4.72219992
90.1343994 -57.2067986 7.20419979
90.1028976 -57.2914009 8.11019993
90.0159988 -57.0653992 6.28830004
90.0537033 -57.0685005 6.72130013
90.0222015 -57.1185989 6.83734989
90.0578003 -57.0976982 7.06599998
90.0605011 -57.0898514 7.47545004
90.1162491 -57.1424484 7.73425007
90.0835037 -57.1819992 7.86759996
90.1280975 -57.1966019 8.10070038
90.1064987 -57.0723991 9.51620007
90.164299 -57.1263008 9.60050011
90.0867004 -57.1119003 9.99069977
90.0548553 -57.0374527 10.4577999
90.1636963 -57.0962982 10.8676004
90.1251984 -57.125 11.5058002
90.1678009 -57.0098 12.6154003
90.0572968 -56.8945503 6.63749981
90.0220032 -56.8820992 9.42549992
90.0663528 -56.949501 9.65875053
90.0840988 -56.9626999 10.1619997
90.1374512 -56.8837013 11.8820496
90.0855026 -56.8628998 12.7657003
90.1619034 -56.9543991 12.9133997
90.135498 -56.9403 14.8214998
90.1616974 -56.9522018 15.1283998
90.0689011 -56.7776985 6.32019997
90.197998 -56.7195015 6.51380014
90.0522995 -56.7266006 6.65880013
90.0287018 -56.7475014 9.30780029
90.0317993 -56.7528 11.9986
90.0098038 -56.7736015 12.8411999
90.0412979 -56.7981987 15.0080996
90.1287003 -56.5074997 6.55100012
90.0622025 -56.4855003 7.14529991
90.1287003 -56.4281998 10.1121998
90.0708008 -56.4141006 10.3242998
90.0383987 -56.3974991 6.81339979
90.0839996 -43.7616005 3.72530007
90.0540009 -43.4686012 4.06969976
90.0802002 -43.4283981 8.41380024
90.0500031 -43.2579002 5.42689991
90.0934448 -43.267952 5.73365021
90.0644989 -43.2047005 6.6020999
90.0768967 -43.2944984 6.98999977
90.0391006 -43.3107986 7.1314497
90.0248032 -43.3871002 8.88070011
90.0360031 -43.2776985 9.10480022
90.0139008 -43.3695984 9.44139957
90.0968018 -43.2209015 10.1490002
90.047699 -43.1870995 7.46210003
90.1565018 -43.0863991 12.4157
90.3090973 -57.351799 11.3332996
90.3479004 -57.2383995 11.4448004
90.2288971 -57.1281013 8.81630039
90.2050018 -57.0387993 9.5284996
90.3246002 -57.1123009 10.8627996
90.2155991 -57.1713982 11.3137999
90.2155991 -57.031601 11.5728998
90.2707977 -57.0093002 11.6211996
90.229599 -57.0423012 11.9851999
90.2705002 -56.9263992 11.2861004
90.2321014 -56.9920006 13.0820999
90.2109985 -43.3552017 14.3275995
90.3415985 -43.0770988 10.3720999
90.2397995 -43.1773987 12.9138002
90.4223022 -57.2184982 10.9728003
90.4035034 -57.0904999 10.4507999
90.461853 -57.0991516 11.0993004
90.4290009 -57.1116982 11.3787003
90.4138031 -56.9304008 15.9117002
90.5731964 -43.1060982 10.0860004
90.4704971 -43.0699005 10.2330999
90.4721985 -42.8698997 10.7593002
90.4262009 -42.6377983 10.6269999
90.6164017 -57.3056984 10.8529997
90.6934967 -57.0867996 7.53240013
90.7838974 -56.722599 15.3539
90.7675018 -42.6618996 10.2603998
90.6736984 -42.5587997 10.6227999
90.8135986 -57.5971985 8.5948
90.9758987 -43.7076988 5.8829999
90.8535995 -43.4183006 4.37879992
90.9009018 -42.8282013 10.2409
90.8501968 -42.8807983 12.7742004
91.1399994 -56.9296989 7.11810017
91.183197 -56.9970016 7.23570013
91.0373001 -43.5598984 5.6257
91.0506973 -43.5005989 5.98670006
91.1305008 -43.4099998 6.12209988
91.1196976 -43.4446983 6.23920012
91.134903 -43.4071007 7.59280014
91.3984985 -57.5173988 8.47179985
91.2473984 -57.0690994 6.14489985
91.3434982 -56.9986992 7.23740005
91.3063965 -56.7823982 15.4609003
91.2741013 -43.1249008 14.8227997
91.436203 -57.6506996 8.35809994
91.466301 -57.6292 8.40130043
91.5681992 -57.4281998 5.80219984
91.5603027 -57.5610008 8.16839981
91.4882965 -57.1661987 7.03070021
91.5541992 -56.7650986 12.7439003
91.4779968 -56.7450981 15.3205004
91.4292984 -56.7868996 15.4062996
91.5207977 -43.4408989 8.58290005
91.6992035 -57.2927017 5.4756999
91.7965012 -57.3858986 13.6421003
91.6078033 -56.9766998 9.12119961
91.6956024 -56.6055984 12.3237
91.7743988 -56.6773987 12.8443003
91.7542038 -43.4477005 5.96899986
91.6455994 -43.4800987 6.35720015
91.7253036 -43.4185982 6.61679983
91.6404037 -43.5014 6.88329983
91.8422012 -57.6228981 5.52080011
91.8636017 -57.3885002 5.29769993
91.8609009 -57.2486 13.4689999
91.8979034 -57.035099 6.16079998
91.9044037 -57.0371017 6.21379995
91.9165955 -57.0558014 7.03705025
91.9208527 -56.9421005 7.46974993
91.873703 -56.6932983 12.6283998
91.9449463 -56.7701988 12.8712502
91.9138031 -56.7953987 15.2962999
91.8608017 -43.3686981 5.86089993
91.8080978 -43.3535004 6.48839998
91.8429031 -43.3776016 6.75449991
92.0365982 -57.4693985 5.46750021
92.0756989 -57.3395004 5.45425034
92.0892029 -57.0196991 6.90850019
92.0290985 -56.8414001 12.0037003
92.3887024 -57.1104012 13.4954004
92.2384033 -56.9333 7.35640001
92.3566971 -56.9042015 9.14150047
92.4725037 -57.0820999 6.38560009
92.5046005 -43.4180984 4.7802
92.5056 -43.1311493 5.08069992
92.5138016 -42.8979988 5.11119986
92.6094971 -56.9776001 7.4671998
92.6358032 -43.3637009 6.5777998
92.7065964 -42.9911995 5.34940004
92.919899 -43.4360008 6.89709997
92.9475021 -43.2710991 4.65619993
93.0084991 -56.8442001 7.50059986
93.1817017 -56.8008995 15.5832996
93.0807037 -56.7575989 15.29
93.0549011 -56.777401 15.5163002
93.2974014 -56.9193001 7.40929985
93.3871002 -56.5689011 12.7805004
93.3093033 -56.3218994 9.92240047
93.2680969 -44.0695 5.89610004
93.3177032 -43.9233017 8.8039999
93.3069992 -43.6837997 5.47329998
93.2743988 -43.5200996 5.83960009
93.2789993 -43.4822006 6.44119978
93.2930298 -43.5222664 6.69066668
93.2926025 -43.5427017 6.90339994
93.3498001 -43.4408989 7.19710016
93.2894974 -43.4076004 9.06470013
93.3700027 -43.3347015 5.70639992
93.2780991 -43.3754997 5.82110023
93.3688965 -43.232048 6.49679995
93.3114014 -43.3389015 6.79440022
93.3924026 -43.2387009 8.26809978
93.3529968 -43.384201 8.40200043
93.3602982 -43.3160019 9.27600002
93.328598 -43.394001 9.49750042
93.3646011 -43.1842995 7.18440008
93.3415985 -43.1940994 8.78100014
93.3115005 -43.1977997 12.2486
93.5457001 -57.1299019 6.02820015
93.5524979 -57.0099983 7.73750019
93.5558472 -57.0367508 7.86089993
93.5587997 -57.0387993 8.34420013
93.464798 -56.9449997 6.35599995
93.5460968 -56.7481995 11.8711996
93.4077988 -56.4706993 9.46720028
93.4063034 -56.4477005 15.4281998
93.4225006 -43.4076004 8.55000019
93.453598 -43.2737999 4.48859978
93.4620972 -43.2324982 6.8112998
93.5010986 -43.3148994 7.82630014
93.4063034 -43.299099 8.16399956
93.4820023 -43.2205009 9.96870041
93.4544983 -43.2957993 10.7158003
93.4744034 -43.3297005 12.0202999
93.4586029 -43.3250999 12.2196999
93.5505981 -43.0144005 10.3634996
93.5653 -43.1352997 11.7278996
93.4776993 -43.1730995 12.0193005
93.5037994 -43.1161995 12.3916998
93.5370026 -43.1027985 14.1505003
93.6776962 -57.0158997 7.47049999
93.6389008 -57.1391983 7.74739981
93.6741028 -57.1324997 8.17210007
93.7611008 -57.0195007 8.87129974
93.7492981 -56.9952011 7.86730003
93.6849976 -56.9434013 8.62520027
93.7872009 -56.9328003 11.2163
93.6355972 -56.9000015 11.6882
93.6792984 -43.3306999 6.45349979
93.7629471 -43.3060989 7.31404972
93.7928009 -43.0918007 5.39249992
93.7433014 -43.0400009 7.58160019
93.680397 -43.0194016 7.69560003
93.6984024 -43.0129013 7.99539995
93.6171036 -43.0411987 12.3718996
93.7369995 -42.8866997 7.89209986
93.9076004 -57.1032982 5.86980009
93.9714508 -57.0713501 7.57874966
93.8962479 -57.0611 7.72585011
93.9838028 -57.0839996 8.03629971
93.9873962 -57.0079994 8.8998003
93.8134003 -57.0621986 10.717
93.9888992 -56.8322983 10.6829004
93.9670029 -56.7860985 13.6605997
93.865097 -43.0537987 5.01300001
93.9860001 -42.8409004 5.10909986
93.8098984 -42.9325981 7.71400023
94.1029968 -57.1573982 5.58440018
94.1914978 -57.1819992 6.09070015
94.0619965 -57.026001 6.89729977
94.0093994 -57.1039009 7.58970022
94.0207977 -57.092701 7.90689993
94.0270996 -57.1287994 8.50959969
94.1287003 -57.0550003 8.80410004
94.177803 -57.0555992 10.4266005
94.0733032 -56.895401 9.4538002
94.1472015 -56.8227005 12.9145002
94.0856018 -56.6469994 13.0464001
94.1976013 -43.6181984 6.13789988
94.0322037 -43.4789009 6.79169989
94.020401 -43.0847015 4.70550013
94.1808014 -43.0411987 14.6520004
94.0130005 -42.8941994 7.49090004
94.0309982 -42.7905998 4.91109991
94.001503 -42.7778015 7.82649994
94.3591995 -57.1651001 5.87769985
94.3594971 -57.098999 6.03630018
94.2166977 -57.1535988 7.97559977
94.3100967 -57.1441002 8.08245087
94.3330994 -57.0755005 10.526
94.2048035 -57.0285988 11.3275995
94.3890991 -56.8087997 8.46290016
94.3453979 -56.892601 10.2222004
94.3414993 -56.8732986 10.9589005
94.2452011 -56.9726982 11.4125004
94.3067017 -56.8898506 13.3547497
94.2931976 -56.9425011 13.6800003
94.3787994 -56.5782013 15.3821001
94.3458023 -43.4261017 8.65929985
94.2391968 -43.2895508 7.4533
94.3142014 -43.1719017 7.32999992
94.3351974 -43.0416985 12.8620996
94.2953033 -42.9483986 9.97169971
94.288002 -42.9247017 13.0098
94.2883987 -42.7821999 12.7983999
94.5190964 -57.1713982 7.89179993
94.5614014 -57.0280991 8.08839989
94.4861984 -57.1394005 8.49740028
94.4953003 -57.024601 11.2333002
94.4560013 -57.0849991 11.5204
94.5643005 -56.9056015 7.67140007
94.4549026 -56.9903984 10.6533003
94.5562973 -56.5635986 15.3556995
94.5087967 -43.5018997 4.43209982
94.5273972 -43.5 6.56559992
94.5783997 -43.3754997 5.94929981
94.4776001 -43.2360001 14.5102997
94.5291977 -43.1391983 5.95660019
94.4568024 -43.0079002 12.5270996
94.7750549 -57.0889511 7.71595001
94.6140976 -57.1441002 8.03639984
94.6380005 -57.0791016 8.49190044
94.6961975 -56.9530983 8.46790028
94.6914978 -56.9213982 11.2887001
94.6168976 -56.8829002 13.5878
94.6941986 -43.1469002 10.0776997
94.6389008 -42.9916 10.2047005
94.8774033 -57.027401 8.50640011
94.8863983 -57.1604004 8.66950035
94.9916 -56.9067001 13.0808001
94.8290024 -56.902401 15.559
94.9521027 -56.7775002 12.3624001
94.9429016 -56.7328987 12.5771999
94.9769974 -43.5070992 8.58619976
94.9445038 -43.5000992 9.10980034
95.1848984 -57.0000992 6.40880013
95.0627975 -57.1792984 7.76859999
95.1436996 -57.0915985 8.11380005
95.0330963 -57.1212997 8.6189003
95.096199 -56.9762993 10.6724005
95.1066971 -56.9794006 11.3237
95.0421982 -56.9403992 13.1950998
95.125 -56.9136009 13.4548998
95.1093979 -56.6125984 12.4337997
95.1372528 -56.7802505 12.7213993
95.0883942 -56.7733994 12.8793507
95.1351013 -56.7755013 13.2482004
95.0460968 -56.5758018 12.0553999
95.0037003 -43.6139984 8.63329983
95.1067963 -43.3325996 6.03770018
95.1314011 -43.3100014 6.80070019
95.2085037 -57.0097008 10.2692003
95.3119965 -57.0523987 10.5949001
95.2208023 -57.0229988 10.6787996
95.2899017 -56.9014015 10.8878002
95.2268982 -56.8367004 12.0353003
95.2113037 -56.9084015 13.1064997
95.3293991 -56.9112015 13.3216
95.2397003 -56.9238014 13.6885004
95.2217026 -56.7888985 11.9154997
95.2683487 -56.7671013 12.5325508
95.430603 -56.9025002 13.5197001
95.7173996 -43.3676987 9.63210011
95.793602 -43.2767982 14.5492001
96.3410034 -43.6912003 5.64559984
96.3501968 -43.6068993 6.31930017
96.3960037 -43.5686989 5.48979998
96.4297028 -43.4501991 6.4527998
96.5270996 -43.3875504 5.68735027
96.6952972 -43.1675987 14.5049
97.0718002 -55.8083 9.6906004
97.1155014 -55.7663002 10.6721001
97.1779022 -55.6469002 12.4167995
97.1298981 -55.5658989 12.5078001
97.347702 -55.8991013 6.48799992
97.2771988 -55.9283981 7.51000023
97.3776016 -55.7751999 13.7515001
97.2679977 -43.6775017 6.30889988
97.5199966 -56.0219994 6.84590006
97.5123978 -55.8376007 9.17020035
97.5115967 -55.7939987 9.28100014
97.4514008 -55.6598015 9.90880013
97.4046021 -55.7630005 12.5769997
97.5467987 -55.6239014 13.5092001
97.4166031 -55.4874001 15.1521997
97.4866028 -55.5577011 15.7823
97.7890015 -56.8426018 7.7033
97.7627029 -56.4054985 11.9056997
97.7978973 -56.5125008 15.8169003
97.7557983 -56.3787003 8.42959976
97.7637024 -56.2449989 13.8661003
97.7986984 -56.0890007 13.1752996
97.7661972 -55.9952011 6.45079994
97.7734985 -55.9383011 7.45739985
97.7050018 -55.9847984 8.78009987
97.7677994 -55.9309006 10.4568005
97.7593994 -55.9210014 11.5313997
97.6527023 -55.9388008 13.1241999
97.7873993 -55.8054008 13.8112001
97.6820984 -55.7537994 9.48729992
97.6931992 -55.7184982 11.1342001
97.7133026 -55.7580986 12.3558998
97.794899 -55.719799 13.5710001
97.7499008 -55.6929016 15.7343998
97.9679031 -57.0637016 5.9302001
97.9312973 -57.108799 7.02229977
97.906601 -57.0800018 8.39490032
97.9019012 -57.0119019 10.7733002
97.9472351 -56.8591995 6.28119993
97.9244003 -56.9570007 6.77720022
97.9717484 -56.9240494 10.6960497
97.8302002 -56.8406525 10.8902493
97.9545975 -56.8017006 12.3274002
97.9531555 -56.8291512 13.3546505
97.8906021 -56.9241982 13.5950003
97.8963013 -56.7561989 6.38660002
97.8924026 -56.6638985 6.72980022
97.9153976 -56.7951012 7.06110001
97.9000015 -56.6217499 7.20660019
97.9503021 -56.6001015 10.0268002
97.9061966 -56.7361984 10.4074001
97.8292007 -56.6461487 11.1284504
97.9955978 -56.6509476 11.8716002
97.8904037 -56.6046982 12.1953001
97.9042358 -56.7072334 13.7039003
97.8127975 -56.6833992 13.9085999
97.9252014 -56.5695992 6.53660011
97.9988022 -56.4656982 6.8599
97.9243011 -56.5979004 7.17689991
97.8258972 -56.4425011 8.55550003
97.9039993 -56.5372009 9.53719997
97.885498 -56.5517998 9.9187336
97.8420029 -56.4967003 10.4148998
97.8031998 -56.4514999 11.1864004
97.982399 -56.5814018 12.1787004
97.9026031 -56.4474983 12.4969997
97.9047012 -56.4889984 13.1150999
97.8735962 -56.4020996 13.8448
97.9187012 -56.4981003 14.1126003
97.9395981 -56.5825005 15.2692003
97.9682007 -56.2820015 6.8828001
97.9029007 -56.2285004 7.09329987
97.9106979 -56.2933006 7.3579998
97.825798 -56.3634987 7.49539995
97.8980484 -56.3637009 8.89550018
97.9526978 -56.2871017 9.58969975
97.906601 -56.3322983 10.1988001
97.8536987 -56.3959999 10.5230999
97.8291016 -56.3036995 10.6295996
97.8079987 -56.2784004 10.8253002
97.9284515 -56.2922516 11.9038496
97.9861984 -56.2849998 12.6739998
97.9989014 -56.3596992 12.8594999
97.8677979 -56.2106018 13.5045004
97.9238968 -56.1777 7.21579981
97.939003 -56.1880989 8.83030033
97.8803024 -56.1954994 9.23750019
97.9646988 -56.1946983 9.78919983
97.9324036 -56.0259018 9.90719986
97.8171005 -56.1617012 10.8985004
97.8504028 -56.1110992 11.4872999
97.8826981 -56.0382004 11.6683998
97.9433975 -56.013401 12.7726002
97.975502 -56.1722984 12.9427996
97.9296036 -56.0882988 13.0742998
97.8564987 -56.0808983 13.5916996
97.8303986 -55.9816017 7.40829992
97.9973984 -55.9752007 9.02869987
97.9123001 -55.925499 9.89970016
97.8059006 -55.9263 10.8683996
97.9168015 -55.9002991 11.7318001
97.9132996 -55.9398003 12.0960999
97.8426971 -55.8138008 12.2280998
97.8896027 -55.8605003 12.8527002
97.8435974 -55.9608002 13.3577003
97.8403015 -55.8258018 15.5811996
97.873848 -55.9174004 15.7013998
97.8479004 -43.0253983 14.4989996
98.0027008 -57.0439987 10.9828997
98.0728989 -56.9920998 7.30289984
98.0936966 -56.9138985 8.84939957
98.1958008 -56.9972 10.0351
98.1355972 -56.8722992 10.9394999
98.1418991 -56.9234009 11.2294998
98.0018997 -56.9859009 13.5482998
98.0339966 -56.9305 13.7009001
98.089798 -56.7686005 10.0433998
98.0133972 -56.7925987 12.9336004
98.0187988 -56.6585999 13.2220001
98.1950989 -56.7193985 15.1646004
98.0056 -56.4429016 8.90989971
98.0836029 -56.5340004 11.9271002
98.0314026 -56.5755005 14.9003
98.0112991 -56.3221016 6.94029999
98.0225983 -56.2793007 8.94499969
98.0033035 -56.2517014 9.31919956
98.0453033 -56.3903999 9.82470036
98.0056992 -56.2230988 14.4117002
98.0028992 -56.0685997 8.48900032
98.009903 -55.9998016 12.2723999
98.0911026 -55.9051018 14.8649998
98.1037979 -43.5500488 5.63885021
98.171402 -43.5060997 6.18499994
98.2254028 -56.9486008 7.4927001
98.3671036 -56.7603989 15.3829002
98.256897 -43.3081017 9.12660027
98.4615021 -57.0724983 7.22749996
98.5762024 -57.0003014 10.1941004
98.5196991 -56.9921989 7.0788002
98.4816971 -56.7205009 10.5325003
98.5522003 -56.6963997 15.3845997
98.5616989 -43.2145004 10.1477003
98.5606003 -43.2251015 14.7559996
98.5445023 -43.0057983 10.0986004
98.4751968 -42.7691002 10.1226997
98.7030029 -56.7546005 15.5403004
98.9580994 -56.710701 9.7524004
99.0513 -56.9029999 6.98099995
99.1969986 -56.9704018 8.85779953
99.0736008 -56.8665009 9.20950031
99.1143036 -56.8390007 9.45600033
99.1715012 -56.9578018 10.5208998
99.2713013 -56.8526993 13.5734997
99.2906036 -56.7885017 10.0047998
99.2182007 -56.6414986 11.9694996
99.4999008 -57.2030983 7.96589994
99.4355011 -56.9631004 9.89050007
99.4545975 -43.6265984 5.96700001
99.4859009 -43.6707001 6.02759981
99.4125977 -43.7750015 8.44029999
99.4543991 -43.7103996 8.94639969
99.5706024 -43.472599 5.64219999
99.4866028 -43.5409012 6.01830006
99.4068985 -43.5321007 6.21710014
99.594902 -43.4623985 8.30860043
99.5771027 -43.3185005 5.92030001
99.5854034 -43.2419014 11.7034998
99.7257004 -57.2074013 11.1028004
99.7092972 -57.1671982 11.3596001
99.7371979 -56.8185997 7.37699986
99.7340012 -56.8166008 12.0551996
99.6695023 -43.6855011 8.29940033
99.6128006 -43.4547005 6.05060005
99.6406021 -43.582901 8.15909958
99.6194992 -43.2667999 8.29580021
99.6345978 -43.2561989 8.44299984
99.6374969 -43.2248001 11.1355
99.6463013 -43.1124001 8.24269962
99.714447 -43.1519012 10.8202
99.6876984 -43.1222 11.3469
99.902298 -56.2644005 6.75579977
99.8239975 -43.5632019 11.2941999
