# .PCD v0.7 - Point Cloud Data file format
VERSION 0.7
FIELDS x y z
SIZE 4 4 4
TYPE F F F
COUNT 1 1 1
WIDTH 1651
HEIGHT 1
VIEWPOINT 0 0 0 1 0 0 0
POINTS 1651
DATA ascii
261.578705 -267.794708 0.2315
261.466614 -267.196808 -0.141800001
261.907501 -268.709106 -0.645600021
261.997986 -260.515015 2.68779993
261.984894 -260.448486 3.51699996
261.989288 -260.573914 3.99060011
261.97879 -260.321686 1.13370001
261.958893 -260.289703 1.94490004
261.914398 -260.344604 2.90479994
261.9776 -260.279785 3.1487
261.973785 -260.32254 3.24705005
261.998962 -260.157806 0.14715001
261.944397 -260.039886 0.397700012
261.967407 -260.003906 1.07889998
261.983093 -260.064087 2.36730003
261.986511 -260.127899 2.46580005
261.930023 -260.117401 2.68216681
261.956696 -260.130859 3.04520011
261.958893 -260.096008 3.36000013
261.964905 -260.005707 4.1717
262.179199 -261.937988 2.86829996
262.148407 -261.835388 3.5782001
262.177887 -261.760712 2.50090003
262.192596 -261.6604 2.7723
262.189911 -261.435486 1.96309996
262.176514 -261.443787 2.46230006
262.186493 -261.536102 2.84100008
262.163605 -261.581909 3.11899996
262.151306 -261.384003 -0.00480000023
262.187897 -261.277008 0.711499989
262.175415 -261.322052 1.05876672
262.157715 -261.238495 1.35029995
262.144897 -261.315796 2.64529991
262.135498 -261.239502 3.14610004
262.126404 -261.310059 3.3586998
262.199097 -261.232513 4.02610016
262.168915 -261.011993 -0.0886000022
262.164215 -261.010315 0.194999993
262.181793 -261.058716 0.52184999
262.174194 -261.153687 0.601199985
262.179596 -261.072205 0.859850049
262.1586 -261.105011 1.0323
262.161743 -261.088257 1.29635
262.194794 -261.067413 1.43219995
262.160889 -261.081635 1.67682505
262.149597 -261.130707 1.80340004
262.14502 -261.062134 2.37520003
262.147614 -261.196198 2.70359993
262.190308 -261.185394 2.9361999
262.154907 -261.127899 3.29710007
262.136658 -261.141205 3.54129982
262.12439 -261.13269 3.72860003
262.129211 -261.017792 4.02740002
262.159088 -260.863007 -0.167600006
262.154297 -260.846497 0.0326999985
262.184509 -260.936493 0.909399986
262.098907 -260.816284 1.08303332
262.075256 -260.887939 1.29929996
262.176147 -260.958008 1.48574996
262.100098 -260.958801 1.63170004
262.0849 -260.81781 2.17790008
262.069855 -260.879486 2.3197
262.078369 -260.867157 3.14660001
262.099304 -260.852509 3.27769995
262.080505 -260.80719 3.7974999
262.066315 -260.827209 4.24450016
262.169586 -260.752411 -0.174600005
262.103943 -260.715149 0.3574
262.141113 -260.7742 0.582400024
262.073242 -260.668823 0.794149995
262.037598 -260.776886 0.834299982
262.127014 -260.616089 1.05599999
262.116394 -260.729095 1.52569997
262.11261 -260.710297 1.6559
262.074188 -260.727203 1.8623333
262.072815 -260.694763 2.07920003
262.062714 -260.663788 2.36989999
262.00769 -260.76059 2.87930012
262.067078 -260.673737 3.14926672
262.136597 -260.655609 3.55340004
262.029694 -260.614014 3.78069997
262.069763 -260.732452 3.8824501
262.074402 -260.614105 4.04090023
262.19281 -260.793213 4.33760023
262.155396 -260.472107 -0.630100012
262.1651 -260.43689 -0.210500002
262.042603 -260.403809 0.0274
262.092896 -260.526886 0.324299991
262.094177 -260.511963 0.493900001
262.098785 -260.565704 0.799600005
262.100311 -260.566803 1.01549995
262.096985 -260.464508 1.25989997
262.117096 -260.495178 1.47519994
262.020294 -260.511292 2.11366653
262.059601 -260.577454 2.30105019
262.024292 -260.499878 2.50785017
262.049011 -260.488586 2.61610007
262.063812 -260.581512 3.4921999
262.029694 -260.53894 3.89120007
262.136902 -260.351807 -0.346100003
262.076111 -260.278107 -0.0524999984
262.056885 -260.381592 0.155399993
262.082397 -260.270691 0.713199973
262.036194 -260.26181 1.11829996
262 -260.252594 1.55369997
262.067505 -260.367798 2.16470003
262.04129 -260.288544 2.26995993
262.057007 -260.378906 2.49550009
262.106689 -260.384796 3.30100012
262.070404 -260.397003 3.43959999
262.011902 -260.309814 3.65689993
262.153595 -260.237305 4.12960005
262.138397 -260.056885 -0.629000008
262.090088 -260.101562 -0.328249991
262.076813 -260.054596 -0.132300004
262.060486 -260.079712 0.510900021
262.045593 -260.096985 0.641200006
262.010406 -260.1091 0.823400021
262.010651 -260.073364 1.30480003
262.00351 -260.052002 1.87940001
262.02655 -260.097351 2.12809992
262.023804 -260.172211 2.2026
262.003387 -260.17749 2.62290001
262.035156 -260.139587 2.91725016
262.035797 -260.017303 3.99819994
262.181702 -260.015198 4.49889994
262.340698 -262.997986 2.61389995
262.341309 -262.9487 3.27950001
262.365997 -262.627014 2.41339993
262.361298 -262.728394 3.37409997
262.328186 -262.67099 3.40199995
262.338593 -262.65509 3.65219998
262.366302 -262.482208 2.19720006
262.3703 -262.477112 2.3822
262.368103 -262.447113 2.80310011
262.32901 -262.548615 3.48819995
262.331909 -262.495392 3.66989994
262.378906 -262.528992 4.2189002
262.373688 -262.278015 0.696699977
262.331207 -262.345612 0.807699978
262.3703 -262.267792 1.15880001
262.345703 -262.263489 1.22350001
262.355286 -262.25769 1.57500005
262.372253 -262.311584 1.6663667
262.3508 -262.233612 1.82420003
262.336212 -262.2323 2.41560006
262.360413 -262.308105 3.06745005
262.320648 -262.295105 3.28705001
262.328094 -262.283905 3.83089995
262.364197 -262.328888 4.18730021
262.383698 -262.074799 -0.490700006
262.356445 -262.069763 -0.280499995
262.28891 -262.124207 0.253300011
262.36734 -262.121826 0.474399984
262.338806 -262.129211 0.843400002
262.3591 -262.183197 1.00909996
262.354004 -262.153107 1.76199996
262.32663 -262.098358 2.28546667
262.384613 -262.089508 2.89450002
262.282013 -262.104095 3.09689999
262.238708 -262.101196 3.23140001
262.207001 -262.028107 3.59520006
262.267914 -262.140808 3.67910004
262.356689 -262.150696 3.98460007
262.385315 -261.990601 -0.682799995
262.398407 -261.945801 -0.569899976
262.352234 -261.975586 -0.252750009
262.287994 -261.96051 0.223399997
262.361603 -261.865692 0.457700014
262.303589 -261.848511 0.74940002
262.330505 -261.916901 0.896099985
262.284546 -261.895447 1.54955006
262.269714 -261.941315 1.66760004
262.265106 -261.883301 1.84710002
262.305511 -261.960297 2.39560008
262.247711 -261.826111 2.46370006
262.258087 -261.986115 2.78839993
262.248413 -261.907806 2.90680003
262.208588 -261.802704 3.28500009
262.377991 -261.6875 -0.664499998
262.339813 -261.678711 -0.586600006
262.291687 -261.776489 -0.0866999999
262.261108 -261.611786 0.148499995
262.271393 -261.601807 0.36590001
262.279175 -261.720795 0.475350022
262.240112 -261.724792 0.655900002
262.268311 -261.723755 1.12660003
262.280487 -261.746704 1.34940004
262.294342 -261.715759 1.56754994
262.207092 -261.631592 1.66110003
262.254944 -261.660339 1.8915
262.244507 -261.702393 2.31719995
262.234314 -261.63269 2.59069991
262.246185 -261.691193 2.6401999
262.207794 -261.768188 3.78579998
262.289062 -261.538147 -0.336899996
262.323761 -261.46225 -0.110033333
262.266449 -261.490479 0.107349999
262.253998 -261.552094 0.318699986
262.26059 -261.442505 0.594500005
262.2435 -261.531311 0.750699997
262.213593 -261.496094 0.942499995
262.257812 -261.569794 1.03310001
262.315308 -261.459503 1.5582
262.252808 -261.437988 1.76400006
262.223389 -261.545013 1.83350003
262.239044 -261.457855 2.15705013
262.244446 -261.540253 2.47136664
262.201202 -261.519196 3.30100012
262.200806 -261.525604 3.7750001
262.264893 -261.284607 -0.717400014
262.265808 -261.348846 -0.350950003
262.266693 -261.240173 -0.061900001
262.250702 -261.28421 0.190300003
262.242493 -261.244202 0.304800004
262.266907 -261.355804 0.410600007
262.266388 -261.357605 0.948199987
262.216309 -261.203613 1.18630004
262.245911 -261.399292 3.13599992
262.229492 -261.378815 3.5085001
262.255768 -261.058746 -0.644299984
262.260895 -261.040192 -0.372500002
262.254303 -261.112396 0.387899995
262.23111 -261.163696 0.775099993
262.217896 -261.183594 1.00329995
262.29303 -260.875397 -0.64320004
262.225586 -260.887604 -0.413249999
262.263489 -260.989502 -0.296200007
262.245605 -260.9711 0.0206000004
262.202789 -260.950714 0.547500014
262.2034 -260.931 0.927100003
262.213318 -260.932953 1.91554999
262.2099 -260.974487 3.25900006
262.255005 -260.822693 4.05420017
262.299622 -260.864075 4.47989988
262.2146 -260.770996 -0.601999998
262.255707 -260.765411 -0.233999997
262.203613 -260.714996 1.29579997
262.204193 -260.510193 4.50059986
262.222687 -260.224213 4.36390018
262.437103 -266.539612 -0.0109999999
262.43631 -266.284393 -0.222499996
262.432312 -266.188416 -0.483299971
262.416107 -266.134705 -0.362500012
262.411011 -266.191101 0.163299993
262.444702 -265.984985 -0.671299994
262.59201 -264.183502 1.36259997
262.577087 -264.017609 3.00889993
262.585205 -263.942993 -0.0966999978
262.542908 -263.935699 1.25179994
262.591095 -263.960388 1.90929997
262.57959 -263.807312 2.31809998
262.53894 -263.855255 3.27820015
262.576538 -263.960297 3.47009993
262.592194 -263.766205 0.286900014
262.505402 -263.600403 1.43799996
262.592499 -263.729706 1.60420001
262.594208 -263.773193 1.95439994
262.553406 -263.72699 2.14159989
262.570709 -263.720886 2.38919997
262.598907 -263.450287 0.536800027
262.57489 -263.550415 0.75940001
262.545502 -263.447815 1.74600005
262.561707 -263.544403 1.98679996
262.499786 -263.5578 2.11949992
262.537415 -263.599396 2.41549993
262.573914 -263.5513 3.16199994
262.516388 -263.460846 3.26884985
262.472504 -263.493713 3.74180007
262.516235 -263.502258 3.86479998
262.540009 -263.361908 -0.103200004
262.574585 -263.277802 0.167099997
262.579803 -263.294708 0.661300004
262.585388 -263.274292 0.891700029
262.548248 -263.252808 1.0694499
262.572113 -263.358154 1.53800011
262.598907 -263.303986 1.74409997
262.549713 -263.362701 2.33699989
262.514038 -263.324402 2.51985002
262.520203 -263.314484 2.87163329
262.469482 -263.311646 3.37835002
262.518555 -263.220215 3.51324987
262.459686 -263.36969 3.60579991
262.512604 -263.21759 3.83150005
262.550812 -263.010498 -0.0443000011
262.560699 -263.119202 0.186699986
262.545288 -263.053192 0.210500002
262.553314 -263.065002 0.587400019
262.501709 -263.099396 0.908299983
262.5383 -263.121094 1.14139998
262.490601 -263.05069 2.03360009
262.493805 -263.100037 2.45574999
262.519043 -263.083923 3.05189991
262.458069 -263.086456 3.31045008
262.473389 -263.143097 3.5072
262.471802 -263.112427 3.92414999
262.537903 -262.927094 -0.324000001
262.510193 -262.838593 0.0916000009
262.502106 -262.889954 0.266766667
262.466095 -262.843506 1.0151
262.455994 -262.897614 1.21259999
262.422943 -262.897827 1.50129998
262.507568 -262.926086 1.71039999
262.460266 -262.836151 2.28630018
262.437103 -262.895508 2.47160006
262.415588 -262.906708 2.62619996
262.4039 -262.929108 2.89540005
262.489105 -262.886993 3.62179995
262.496613 -262.832489 3.9907999
262.515503 -262.728699 -0.0375999995
262.489807 -262.751007 0.244800001
262.458557 -262.689697 0.480150014
262.470032 -262.735046 0.64139998
262.52124 -262.736145 0.861899972
262.464508 -262.776794 1.11430001
262.445801 -262.617889 1.25349998
262.448303 -262.710205 1.56799996
262.43219 -262.737 2.24790001
262.450806 -262.744385 2.64490008
262.423706 -262.608093 3.1644001
262.417999 -262.772888 3.20840001
262.4534 -262.664398 3.45659995
262.435303 -262.702209 3.67429996
262.499603 -262.667206 3.88010001
262.456146 -262.531158 -0.100166664
262.44989 -262.566406 0.180500001
262.416656 -262.437805 0.389800012
262.450562 -262.529541 0.49939999
262.42691 -262.460999 0.996100008
262.440704 -262.552917 1.00795007
262.417206 -262.519592 1.44570005
262.431305 -262.582001 1.95819998
262.418701 -262.567902 2.45130014
262.434814 -262.559387 3.11159992
262.415802 -262.334106 -0.309500009
262.434509 -262.255615 0.34040001
262.418488 -262.374603 0.738399982
262.424103 -262.287903 0.87650001
262.415009 -262.306213 1.49660003
262.438385 -262.357788 1.88010001
262.561768 -262.349152 4.30264997
262.436005 -262.179504 -0.25909999
262.429413 -262.096405 0.201299995
262.473541 -262.118744 4.27455044
262.42691 -261.921997 -0.374599993
262.429596 -261.37381 4.5795002
262.763306 -265.209686 3.10019994
262.782288 -265.165192 0.202700004
262.782715 -265.011902 1.59210002
262.758484 -265.150452 1.94295001
262.751404 -265.003906 2.96420002
262.776062 -265.027832 3.0704
262.776794 -265.170593 3.49970007
262.710693 -265.079712 3.91009998
262.773712 -264.953003 0.185000002
262.761688 -264.833099 0.702099979
262.797791 -264.990601 0.962000012
262.737701 -264.959412 1.20019996
262.706787 -264.65271 0.0463999994
262.755005 -264.615204 0.345800012
262.793488 -264.605804 0.518299997
262.737671 -264.711395 1.15076673
262.756836 -264.655823 1.48985004
262.697876 -264.714111 1.94344997
262.733612 -264.721985 2.01769996
262.711395 -264.642853 2.65695
262.769592 -264.776489 3.28279996
262.678009 -264.741302 3.49909997
262.737305 -264.62561 3.96230006
262.759308 -264.586914 -0.32980001
262.756287 -264.550201 0.0957999974
262.778625 -264.47525 0.555999994
262.731689 -264.522186 0.62620002
262.756287 -264.565002 1.68239999
262.693787 -264.50531 2.71105003
262.687805 -264.451996 2.93969989
262.76709 -264.275208 -0.470800012
262.729004 -264.359711 -0.0812999979
262.693695 -264.38681 0.444700003
262.604309 -264.254089 0.913100004
262.688629 -264.327698 1.29713333
262.632904 -264.235291 1.51610005
262.688995 -264.346558 2.30159998
262.754486 -264.391998 2.51099992
262.664001 -264.300232 2.74349999
262.673187 -264.323212 2.97490001
262.622101 -264.282959 3.10395002
262.660004 -264.254608 3.38129997
262.723907 -264.25589 3.63249993
262.6427 -264.342407 3.81719995
262.715027 -264.073242 -0.126000002
262.689056 -264.177307 0.275400013
262.667999 -264.0065 0.663100004
262.607361 -264.079773 1.70889997
262.645996 -264.176208 2.08119988
262.684204 -264.098694 3.20600009
262.676086 -264.110352 3.44759989
262.610229 -264.1633 3.8901
262.681396 -263.856995 -0.514800012
262.672394 -263.831207 -0.249200001
262.674591 -263.849213 -0.000199999995
262.656891 -263.951202 0.167600006
262.609863 -263.929749 0.309249997
262.69101 -263.993408 0.436500013
262.649658 -263.891357 1.05334997
262.681091 -263.903992 1.68190002
262.624207 -263.998413 2.50609994
262.723389 -263.981995 3.648
262.68219 -263.928101 4.26859999
262.724487 -263.676697 -0.287400007
262.644806 -263.71582 -0.108600006
262.661591 -263.741791 0.307099998
262.694702 -263.653809 0.603100002
262.662109 -263.632294 0.988900006
262.660522 -263.743134 1.08843338
262.641205 -263.773987 1.28849995
262.620911 -263.695496 1.88150001
262.707794 -263.769501 2.12639999
262.644287 -263.709503 3.72350001
262.622589 -263.527405 0.0264999997
262.641998 -263.578613 0.300000012
262.622803 -263.5625 0.778500021
262.7099 -263.502411 1.18260002
262.682098 -263.542389 4.35669994
262.61969 -263.386688 0.208399996
262.624603 -263.048615 4.43499994
262.730896 -262.980499 4.37629986
262.676697 -262.799713 4.47749996
262.953796 -268.839996 6.46150017
262.974091 -267.134796 -0.557299972
262.989197 -266.9841 -0.403800011
262.9599 -266.778107 -0.0807000026
262.931763 -265.629883 1.63695002
262.90979 -265.777313 2.30029988
262.85199 -265.627197 3.44815016
262.918396 -265.457214 -0.170200005
262.953186 -265.417511 0.360799998
262.857788 -265.449005 0.469700009
262.952087 -265.50119 1.0151
262.908508 -265.431213 1.31420004
262.934784 -265.504578 1.46333337
262.90741 -265.442413 1.61450005
262.879639 -265.567902 2.97039986
262.843903 -265.491302 3.12059999
262.891388 -265.208008 -0.292100012
262.893311 -265.28299 0.030100001
262.917389 -265.34613 0.293366671
262.939087 -265.3797 0.439599991
262.841003 -265.280304 0.646399975
262.899414 -265.380005 0.879499972
262.836395 -265.3508 1.7428
262.93399 -265.379211 1.85609996
262.91629 -265.373718 2.09689999
262.844299 -265.225006 2.41869998
262.835815 -265.236145 2.91214991
262.815399 -265.368713 3.05649996
262.857391 -265.398193 3.92280006
262.930206 -265.182312 -0.398200005
262.877014 -265.008698 -0.1514
262.821289 -265.104706 0.0983999968
262.841949 -265.084229 1.90100002
262.920197 -265.16449 2.62470007
262.810089 -265.146698 3.29250002
262.892487 -265.010101 3.47799993
262.936615 -265.009186 3.82710004
262.854095 -264.82489 -0.651799977
262.88916 -264.873962 -0.306599975
262.844177 -264.955566 0.101750001
262.843445 -264.848145 0.509050012
262.808899 -264.85199 1.09940004
262.832214 -264.950989 3.46020007
262.822998 -264.950867 3.73294997
262.80426 -264.946167 3.87779999
262.893311 -264.760193 -0.350499988
262.860321 -264.739258 0.506900012
262.814301 -264.609192 0.795099974
262.812286 -264.721588 0.935500026
262.883087 -264.758514 3.05419993
262.950195 -264.783295 4.00610018
262.86319 -264.546295 -0.685899973
262.867065 -264.535522 -0.554549992
262.843201 -264.443115 -0.2685
262.800293 -264.477905 2.47950006
262.812592 -264.039093 3.94569993
262.807404 -263.795502 4.22559977
263.015106 -268.754791 4.09859991
263.002411 -265.614502 1.24670005
263.090393 -265.379089 4.11749983
263.39859 -268.69339 5.20389986
263.202606 -265.838898 4.0855999
263.78949 -268.819489 2.9131
263.820312 -266.010406 -0.145999998
263.83371 -265.947601 -0.247299999
263.918213 -262.36261 -0.0452000014
263.985107 -262.197815 -0.206499994
264.155792 -266.468903 -0.512499988
264.072449 -266.288757 -0.300300002
264.081512 -266.214508 -0.131400004
264.087555 -265.983307 -0.467033327
264.126007 -263.066895 -0.136700004
264.190613 -262.830505 -0.417100012
264.192291 -262.924896 -0.306199998
264.107391 -262.893402 -0.132400006
264.058685 -262.630096 -0.209999993
264.080109 -262.587189 -0.584200025
264.119812 -262.229004 -0.244100004
264.375 -266.058685 0.433299989
264.253113 -263.33371 0.0291000009
264.355499 -262.586914 -0.493400007
264.393707 -262.418091 -0.345499992
264.439514 -268.512299 3.93070006
264.475708 -263.217102 -0.594099998
264.452087 -263.055511 -0.440100014
264.430511 -262.812592 -0.451200008
264.403809 -262.432312 -0.435200006
264.519196 -262.257385 -0.542699993
264.530609 -262.220093 -0.265399992
264.571411 -262.160797 -0.664200008
264.74649 -268.861206 8.84619999
264.65329 -268.884888 10.0158997
264.798096 -268.633514 6.5953002
264.781708 -268.6026 7.63430023
264.747803 -268.561188 4.5394001
264.797089 -268.571808 6.58939981
264.740692 -268.544312 10.4979
264.758698 -263.347107 -0.511699975
264.60611 -263.125305 -0.587300003
264.626587 -262.965393 -0.6778
264.638092 -262.742706 -0.557399988
264.954987 -269.503693 4.3137002
264.979187 -269.561005 6.90100002
264.889496 -269.40979 10.2383003
264.912506 -269.222687 8.66539955
264.997009 -269.076904 8.11130047
264.954498 -269.042999 8.45849991
264.945892 -269.164886 8.8100996
264.947906 -268.875305 7.14260006
264.904419 -268.83844 7.71829987
264.954895 -268.9245 7.85900021
264.901611 -268.869507 8.78149986
264.928497 -268.975189 8.99520016
264.886047 -268.946655 9.63619995
264.859894 -268.877594 9.81620026
264.972809 -268.704193 3.18199992
264.916412 -268.658997 6.07550001
264.898895 -268.630188 6.40180016
264.874023 -268.652557 6.72669983
264.967285 -268.466309 1.16680002
264.859406 -268.432404 1.58500004
264.946289 -268.520813 1.64489996
264.81839 -268.42041 2.17619991
264.882507 -268.4534 2.73880005
264.958405 -268.565887 3.45359993
264.854919 -268.512909 4.05574989
264.812408 -268.579987 4.84499979
264.826111 -268.585388 6.02440023
264.982697 -268.288513 0.0144999996
264.867615 -268.367188 5.56230021
265.161713 -270.43161 8.11260033
265.15329 -270.284485 9.64290047
265.180511 -270.320099 10.0432997
265.190308 -270.393311 10.5417995
265.196106 -270.096588 4.62559986
265.186707 -270.108002 7.12249994
265.154694 -270.047913 10.6374998
265.167511 -269.860901 4.73010015
265.172699 -269.932892 4.98339987
265.184387 -269.955811 5.84660006
265.031799 -269.695587 7.39020014
265.027008 -269.755798 8.92099953
265.039795 -269.714813 10.3921003
265.006989 -269.773712 10.4612999
265.138092 -269.57251 7.84829998
265.067413 -269.466003 8.74660015
265.061493 -269.594604 10.6274004
265.019104 -269.242004 6.36740017
265.048187 -269.377991 7.44899988
265.168701 -269.006409 -0.678600013
265.03479 -269.024414 0.967899978
265.1315 -269.105499 3.19320011
265.155487 -269.161987 8.24020004
265.144287 -268.815094 -0.240099996
265.159912 -268.836212 0.0644000024
265.138794 -268.830811 0.288100004
265.161407 -268.940002 0.946500003
265.008606 -268.808502 3.96000004
265.015808 -268.922913 5.02010012
265.048096 -268.861694 6.00309992
265.118988 -268.662292 -0.0126
265.1091 -268.7164 0.333799988
265.149902 -268.760956 0.66960001
265.137207 -268.640503 0.876299977
265.131195 -268.608002 1.07889998
265.08429 -268.674805 2.39450002
265.041687 -268.702393 3.01900005
265.038605 -268.751709 8.5156002
265.008698 -268.51709 -0.529999971
265.057892 -268.481995 -0.0797000006
265.015015 -268.493988 0.7852
265.006989 -268.523712 1.02129996
265.041931 -268.485168 1.31135011
265.025604 -268.573608 2.27550006
265.332001 -271.09201 8.89249992
265.368011 -271.163208 10.2693005
265.3797 -270.862213 7.7730999
265.354095 -270.815399 7.90019989
265.380798 -270.52829 4.77650023
265.398407 -270.534607 5.51359987
265.283691 -270.568787 8.67099953
265.390686 -270.340912 0.525900006
265.3685 -270.243286 3.32419991
265.322601 -270.327698 4.68160009
265.338013 -270.294312 6.66020012
265.292999 -270.392487 7.26049995
265.252411 -270.044495 0.953100026
265.351013 -270.151306 4.85220003
265.314392 -270.067596 5.13859987
265.322113 -269.909485 -0.1171
265.389709 -269.855804 0.579299986
265.284485 -269.880493 5.17799997
265.239594 -269.846497 6.21649981
265.307404 -269.679504 -0.439300001
265.238312 -269.776215 6.10360003
265.385986 -269.624207 8.54080009
265.312408 -269.463715 -0.418000013
265.242798 -269.545197 0.720700026
265.253693 -269.572113 5.12939978
265.27829 -269.209198 -0.666499972
265.264496 -269.262909 0.546400011
265.226593 -269.327606 0.955799997
265.334595 -269.265198 1.28199995
265.247894 -269.21991 3.74769998
265.251801 -269.361694 8.19139957
265.242493 -269.097412 0.441300005
265.200287 -268.651001 0.239500001
265.464996 -270.819092 1.89979994
265.576599 -270.560913 1.21229994
265.491608 -270.417206 2.03010011
265.409393 -270.237305 5.21290016
265.414215 -270.102509 5.02769995
265.570312 -269.324188 0.449299991
265.579498 -269.213196 2.57620001
265.592499 -269.317902 2.72350001
265.589386 -269.361694 3.00099993
265.470795 -269.32251 5.84049988
265.558502 -269.302094 6.14499998
265.473206 -269.383392 7.79780006
265.415588 -269.071808 0.176400006
265.714691 -269.934692 5.23190022
265.606995 -269.972687 5.60029984
265.673615 -269.981415 8.43169975
265.690155 -269.715332 5.50899982
265.706787 -269.747009 6.1571002
265.681885 -269.571503 0.365399987
265.68631 -269.310303 0.176799998
265.812805 -269.592804 5.18380022
265.82019 -269.323914 0.41170001
268.725708 -267.834412 1.89189994
268.788513 -267.789703 1.36870003
268.962006 -268.044312 6.78569984
268.872314 -268.031799 7.02619982
268.974304 -268.13269 7.69939995
268.922699 -268.120392 9.0309
268.955688 -267.861389 1.09529996
268.994904 -267.960297 1.33150005
268.893707 -267.968689 7.94890022
268.990387 -267.744293 1.34249997
269.062195 -268.006714 4.84849977
269.128601 -268.103607 7.18569994
269.158813 -268.117401 7.21320009
269.020599 -268.13089 10.1950998
269.141113 -267.885101 1.87080002
269.150909 -267.826691 3.046
269.193115 -267.777008 3.95919991
269.342834 -267.900452 2.29995012
269.326691 -267.987793 4.53079987
269.269501 -267.7323 1.10420001
269.393188 -267.756409 2.99519992
269.559601 -267.657013 -0.171100006
269.500092 -267.778992 0.927999973
269.713013 -268.008209 9.01169968
269.786102 -267.806793 1.2895
269.705597 -267.889313 3.53489995
269.627014 -267.564606 -0.543500006
270.352692 -268.043091 7.9987998
270.208099 -267.842804 6.15560007
270.234497 -267.819702 8.09070015
270.353394 -267.895905 9.91219997
270.251404 -267.874512 10.4759998
270.34549 -267.667999 0.433899999
270.367493 -267.672302 3.79690003
270.374908 -267.657013 6.1552
270.375793 -267.738892 7.67229986
270.553711 -267.909698 9.82330036
270.596588 -267.644714 1.36000001
270.498993 -267.709198 5.10879993
270.448395 -267.675812 7.3046999
270.421692 -267.748596 9.94769955
270.480591 -267.697906 10.3500004
270.719788 -267.707306 6.82390022
270.679199 -267.514404 1.51460004
270.781189 -267.580505 3.37120008
270.94281 -267.802612 9.50179958
270.841095 -267.657806 7.11259985
270.92276 -267.704956 7.73360014
270.937286 -267.740906 9.77229977
270.816711 -267.588715 4.08790016
270.930695 -267.597412 5.03719997
270.997894 -267.579987 9.79850006
271.143402 -267.923187 6.89179993
271.081909 -267.841003 7.49539995
271.092712 -267.854187 9.55200005
271.144897 -267.630096 5.51100016
271.10199 -267.769592 7.00369978
271.040894 -267.775208 7.57410002
271.015015 -267.685394 7.70359993
271.065887 -267.680908 8.63589954
271.182312 -267.649414 8.92490005
271.039795 -267.724792 9.9513998
271.0112 -267.499298 -0.0842999965
271.005493 -267.451813 0.469000012
271.102997 -267.581909 5.02349997
271.23291 -267.653809 3.41170001
271.261414 -267.73349 4.47090006
271.333801 -267.70871 6.47450018
271.391113 -267.481506 1.24989998
271.591309 -267.500885 -0.350199997
271.486511 -267.416901 0.334899992
271.502899 -267.47879 0.912400007
271.485107 -267.572906 8.64920044
271.687805 -267.609497 5.05830002
271.608185 -267.654785 5.23129988
271.73291 -267.606293 5.9829998
271.738403 -267.617401 7.31449986
271.645996 -267.673798 8.33850002
271.713989 -267.651489 8.62160015
271.681 -267.643005 9.07019997
271.692505 -267.428894 0.985700011
271.622101 -267.525299 5.86369991
271.792999 -267.554901 8.89690018
271.673889 -267.334991 -0.171499997
271.897614 -267.750793 9.17399979
271.849396 -267.596893 9.28800011
271.862915 -267.594208 10.6239996
272.141693 -267.683014 10.4579
272.071289 -267.414307 6.08050013
272.131104 -267.538086 8.7493
272.133911 -267.31311 -0.1884
272.117889 -267.385895 5.1230998
272.150391 -267.39859 7.22559977
272.165588 -267.177399 -0.1193
272.37561 -267.631195 9.33479977
272.396698 -267.670288 9.62090015
272.398499 -267.703003 9.86900043
272.347595 -267.631897 10.4420004
272.364899 -267.633209 10.7514
272.302002 -267.469177 6.69260025
272.325195 -267.413788 7.51289988
272.311615 -267.48819 7.67659998
272.351196 -267.528015 9.69559956
272.333588 -267.246002 -0.175400004
272.329712 -267.360199 5.28219986
272.39859 -267.37619 6.74389982
272.361603 -267.369812 7.28950024
272.351593 -267.156494 0.206499994
272.597687 -267.648499 6.51809978
272.514313 -267.730591 7.51020002
272.562897 -267.7146 10.4387999
272.44751 -267.43161 4.97809982
272.41391 -267.422607 5.07579994
272.547211 -267.44519 6.02720022
272.4552 -267.454102 6.66779995
272.400391 -267.5383 6.9296999
272.50119 -267.405609 7.07499981
272.434998 -267.495789 7.2823
272.437103 -267.505188 10.2210999
272.480988 -267.262085 1.27550006
272.558197 -267.362 6.09149981
272.421814 -267.372101 7.79559994
272.688202 -267.437592 6.14779997
272.602997 -267.51239 8.79370022
272.753815 -267.302795 0.478899986
272.702393 -267.385895 4.08389997
272.773895 -267.320709 5.78669977
272.693604 -267.317596 5.89599991
272.631592 -267.359711 8.25360012
272.704803 -267.176392 0.0267999992
272.81781 -267.61319 9.44859982
272.840302 -267.225494 0.472000003
272.991211 -267.286896 5.66970015
272.890503 -267.312103 8.34280014
273.190796 -267.409607 7.93179989
273.022186 -267.466187 8.36209965
273.044891 -267.437195 8.45800018
273.145813 -267.571198 10.7363997
273.126709 -267.439911 10.9191999
273.124207 -267.319611 5.15430021
273.161102 -267.290802 9.5152998
273.001892 -267.04361 -0.378500015
273.078613 -267.101288 0.183200002
273.298096 -267.4245 7.94320011
273.331512 -267.301605 5.28179979
273.393799 -267.342987 6.45469999
273.356903 -267.227203 8.46720028
273.256989 -267.341187 8.87769985
273.282196 -267.193207 0.102200001
273.359589 -267.139008 0.604099989
273.479614 -267.215912 5.66779995
273.454193 -267.289795 5.96920013
273.586395 -267.264038 6.50059986
273.520813 -267.285797 6.62900019
273.464294 -267.228302 6.8585
273.530487 -267.223999 8.70100021
273.458893 -267.378387 8.95059967
273.596405 -267.344391 9.13409996
273.576202 -267.140289 3.95449996
273.621094 -267.204987 5.31860018
273.758392 -267.280609 5.64120007
273.793396 -267.217804 7.0374999
273.626892 -267.325745 7.88135004
273.628601 -267.239014 8.21560001
273.741394 -267.290588 9.12590027
273.727783 -267.301819 9.29370022
273.776611 -267.212708 9.76939964
273.7005 -267.257202 9.95870018
273.782715 -267.394104 10.2027998
273.673096 -267.323608 10.7639999
273.698303 -267.151306 5.16520023
273.754089 -267.105286 5.94029999
273.7211 -267.152893 6.70499992
273.780396 -267.16449 7.26660013
273.785797 -267.150909 7.46449995
273.774109 -266.928192 0.510299981
273.874908 -267.214905 6.18289995
273.819214 -267.286194 7.28380013
273.995605 -267.385895 7.49709988
273.804108 -267.327087 8.0632
273.813812 -267.285889 8.23379993
273.918701 -267.264587 10.8081999
273.824585 -267.121613 -0.0368000008
273.801605 -267.102203 4.30670023
273.891296 -267.184906 4.86560011
273.894592 -267.188812 5.38940001
273.834503 -267.123413 6.16940022
273.841095 -267.169006 6.52920008
273.99469 -267.178009 7.12190008
274.023804 -267.274994 9.98519993
274.044891 -267.178101 5.10529995
274.134491 -267.136108 6.16930008
274.049286 -267.116608 6.21589994
274.043091 -267.17511 7.6717
274.087097 -267.182007 8.39960003
274.296204 -267.420898 9.84080029
274.342194 -267.462311 10.0727997
274.316406 -267.283386 7.28490019
274.234894 -267.352905 9.30799961
274.266754 -267.339203 10.1805992
274.28714 -267.281921 10.7039003
274.28479 -267.162689 5.37459993
274.316711 -267.067993 5.52790022
274.22699 -267.081787 5.90600014
274.372406 -267.099701 6.02589989
274.297699 -267.146759 7.31229973
274.337708 -267.160522 7.66774988
274.394806 -267.136414 8.21889973
274.253693 -267.172607 9.98069954
274.388214 -266.874298 1.44200003
274.401886 -267.229401 6.07009983
274.493103 -267.333801 6.90600014
274.436615 -267.173096 5.6564002
274.506104 -267.088715 5.97249985
274.574799 -267.121002 6.09130001
274.403503 -267.198395 7.9296999
274.496613 -267.160889 8.89109993
274.553711 -267.148407 9.15999985
274.515808 -267.076599 9.59249973
274.62439 -267.220001 10.8351002
274.62384 -267.122498 5.32795
274.644989 -267.037811 5.98589993
274.68219 -267.071899 6.25089979
274.7883 -267.042511 6.41629982
274.789001 -267.179504 6.6724
274.607086 -267.098114 8.26449966
274.727295 -267.147491 10.7966003
274.675903 -266.850189 0.0833000019
274.672913 -266.971313 0.319099993
274.615295 -266.877197 0.530200005
274.7034 -266.883392 4.12510014
274.710999 -266.970703 5.82420015
274.774109 -265.248901 1.07169998
274.913605 -267.234192 7.88689995
274.86441 -267.27179 10.6863003
274.959412 -267.057495 6.35459995
274.94339 -267.046997 6.47629976
274.942505 -267.024597 6.76090002
274.996185 -267.039307 6.92869997
274.941895 -267.155212 8.07129955
274.823792 -267.024414 8.34529972
274.973999 -267.006592 8.53509998
274.903809 -267.161804 9.34529972
274.842896 -267.113892 10.1343002
274.841095 -266.847198 -0.355399996
274.831085 -266.70639 -0.448399991
274.981995 -263.686707 -0.72359997
275.078308 -267.102997 5.86829996
275.104889 -267.157501 7.00260019
275.197906 -267.100494 9.67679977
275.055695 -266.86969 0.0159000009
275.014893 -266.898102 0.34889999
275.025696 -266.821503 0.652199984
275.058685 -266.951904 4.5177002
275.185486 -266.977814 6.68520021
275.049408 -263.811707 -0.421700001
275.047791 -263.82489 -0.321799994
275.157715 -263.87561 0.792500019
275.069092 -263.762207 -0.555299997
275.047607 -263.71167 -0.328833342
275.019287 -263.702301 -0.0943000019
275.338806 -267.01001 5.2189002
275.304596 -267.140198 8.05990028
275.332214 -266.803589 0.188500002
275.280609 -266.954315 0.768599987
275.294403 -266.978302 5.95650005
275.357086 -266.957001 6.63700008
275.304291 -266.639313 -0.227400005
275.397095 -266.750702 -0.0296
275.239014 -266.732208 0.055399999
275.20639 -266.783295 0.458700001
275.2565 -263.440186 0.677699983
275.315491 -263.331207 1.11769998
275.518433 -267.014709 8.32259941
275.557312 -267.055908 8.40450001
275.517395 -267.012512 8.70300007
275.593903 -267.002991 9.01850033
275.457489 -267.006897 9.2258997
275.491791 -267.024902 10.8774004
275.437103 -266.810394 0.255199999
275.573853 -266.887695 5.6958499
275.491302 -266.937195 5.9309001
275.541412 -266.963989 8.18739986
275.422211 -266.966797 10.9685001
275.412994 -266.78241 -0.156299993
275.571594 -266.708191 0.832499981
275.475311 -265.558197 -0.322400004
275.406311 -265.466888 0.93720001
275.584595 -264.170685 0.495400012
275.705688 -267.016388 5.62330008
275.686951 -267.143738 7.84130001
275.671112 -267.085297 8.25160027
275.677429 -267.015839 8.64389992
275.725311 -267.034912 9.04969978
275.62439 -267.067993 9.79510021
275.70166 -266.804108 -0.0520000011
275.756195 -266.929901 5.17309999
275.674866 -266.934387 5.74664974
275.747589 -266.901489 5.91529989
275.71286 -266.951202 7.14896679
275.647095 -266.946686 7.29580021
275.604187 -266.881012 7.44140005
275.641388 -266.765106 0.109099999
275.758606 -266.649811 0.609899998
275.721191 -266.596313 0.788100004
275.621094 -265.041809 0.988099992
275.730408 -264.83429 1.05739999
275.713989 -264.563293 0.548099995
275.721405 -264.389709 0.588999987
275.771515 -264.337891 0.694700003
275.788788 -264.032196 0.997500002
275.797211 -262.490509 1.57529998
275.638702 -262.555206 2.80920005
275.945099 -267.7995 9.79889965
275.830414 -267.133514 7.81290007
275.863403 -267.010803 8.46749973
275.959808 -267.046814 8.91240025
275.845215 -267.040314 10.8620996
275.831512 -266.886292 4.44939995
275.960205 -266.886292 5.84850025
275.875793 -266.877014 6.15360022
275.937103 -266.895996 7.24539995
275.896301 -266.964355 7.49359989
275.895599 -266.960785 7.9078002
275.907806 -266.928589 8.08679962
275.9711 -266.979309 8.41670036
275.806793 -266.971802 10.599
275.944885 -266.678986 -0.461100012
275.833191 -266.724792 -0.130799994
275.969604 -266.719513 0.4991
275.897186 -265.67099 0.92110002
275.909607 -265.080109 1.03120005
275.904205 -264.559296 0.709699988
275.869385 -262.869293 1.91630006
275.963806 -262.996887 3.0711
275.824493 -262.641113 1.94449997
275.985413 -262.672485 2.46210003
275.810211 -262.691803 2.82669997
275.944794 -262.484711 1.74059999
275.89917 -262.590088 2.5699501
275.839386 -262.507812 2.70560002
275.890503 -262.380005 1.62720001
275.951782 -262.293396 2.48325014
275.894714 -262.173615 2.3125
275.85141 -262.169189 2.43260002
276.037292 -268.4505 7.16239977
276.058899 -268.462494 10.6500998
276.190308 -267.632507 10.1624002
276.160034 -267.52533 10.573
276.095612 -267.287201 1.35759997
276.158386 -267.23291 9.04669952
276.114014 -267.223694 10.4139004
276.144196 -267.381592 10.6795998
276.195404 -267.066406 7.45730019
276.199188 -267.187592 9.13799953
276.18811 -267.053406 9.26490021
276.085999 -267.176605 9.62209988
276.087524 -267.060913 10.5086002
276.030212 -266.817291 5.46829987
276.102905 -266.865204 5.89160013
276.180206 -266.991608 6.15350008
276.023987 -266.96521 6.5447998
276.15506 -266.925903 6.76639986
276.134491 -266.859711 6.88479996
276.131165 -266.962769 7.08755016
276.104401 -266.99469 7.28429985
276.163208 -266.91745 7.49524975
276.077393 -266.804108 7.84959984
276.069489 -266.843414 8.31340027
276.102692 -266.96051 8.55860043
276.039795 -266.968597 8.70230007
276.029694 -266.846497 8.99139977
276.087006 -266.943207 9.14920044
276.158112 -266.89151 9.40260029
276.084198 -266.913696 9.79269981
276.042389 -266.943787 10.6976995
276.153198 -266.657593 -0.330300003
276.198486 -266.685211 0.0489999987
276.049133 -266.682495 0.329699993
276.144714 -266.609314 0.516300023
276.172394 -266.743408 4.58230019
276.137787 -266.721497 4.74669981
276.131104 -264.944519 -0.130699992
276.111694 -264.959961 0.149899989
276.196106 -264.927704 0.2958
276.015503 -264.405304 0.796299994
276.188995 -262.638885 1.44079995
276.032806 -262.616486 2.24819994
276.047485 -262.472412 1.54700005
276.153198 -262.58609 1.93560004
276.172913 -262.398407 2.35330009
276.383392 -268.496185 10.3260002
276.364197 -268.220612 7.04209995
276.330505 -268.273926 7.31459999
276.347595 -268.214691 9.36009979
276.366394 -268.360992 9.94810009
276.353699 -268.295105 10.0756998
276.313904 -268.399689 10.2653999
276.374908 -268.041016 4.95515013
276.33609 -268.00531 7.71969986
276.343903 -267.900208 4.64459991
276.362915 -267.936188 9.19999981
276.390991 -267.814606 9.20359993
276.248505 -267.885803 10.4463005
276.297791 -267.891205 10.802
276.368195 -267.97699 11.2460003
276.326294 -267.705414 4.4598999
276.331787 -267.628113 6.56780005
276.271698 -267.657593 6.92670012
276.321106 -267.76059 7.73979998
276.343903 -267.675415 9.51729965
276.239594 -267.646606 10.0493002
276.391815 -267.756714 10.2685003
276.312195 -267.695496 10.5278997
276.323395 -267.641205 10.6518002
276.393494 -267.747803 11.0307999
276.265991 -267.469696 4.86630011
276.371002 -267.588104 5.03450012
276.368774 -267.570374 5.22429991
276.379486 -267.438904 6.20499992
276.370209 -267.59259 7.94169998
276.278015 -267.503296 8.06110001
276.348267 -267.468323 8.42510033
276.338806 -267.453491 8.65069962
276.231293 -267.581787 9.73019981
276.254517 -267.535583 10.6900005
276.333496 -267.45285 10.8859997
276.373291 -267.21701 5.35559988
276.335022 -267.33548 5.70609999
276.34967 -267.326599 6.31693316
276.301392 -267.2789 6.64160013
276.221985 -267.31839 8.39820004
276.262695 -267.207001 8.44750023
276.341492 -267.3927 8.88290024
276.232208 -267.277863 9.45559978
276.221802 -267.263092 10.2023001
276.21701 -267.265503 10.6786003
276.216705 -267.25351 11.1055002
276.316406 -267.032898 0.210800007
276.337311 -267.171387 0.84859997
276.293915 -267.047211 4.17630005
276.292389 -267.03299 5.31780005
276.348602 -267.168915 5.48250008
276.290009 -267.003387 5.7329998
276.360596 -267.154907 6.03809977
276.270599 -267.088806 6.37739992
276.345398 -267.058411 6.44059992
276.291809 -267.097992 6.94360018
276.204987 -267.040588 7.99170017
276.303406 -267.07019 8.59539986
276.272705 -267.168396 8.72049999
276.30249 -267.13031 9.35910034
276.244904 -267.035187 10.4575996
276.326691 -267.081085 11.3898001
276.397003 -266.894806 -0.29519999
276.347961 -266.853088 1.09965003
276.29541 -266.891479 1.56080008
276.248108 -266.985199 5.1092
276.307495 -266.988007 5.23390007
276.254242 -266.862946 5.50384998
276.227386 -266.84201 5.70879984
276.265442 -266.955139 5.83669996
276.286713 -266.871399 6.0072999
276.208893 -266.899506 6.22060013
276.236511 -266.868652 6.68979979
276.201599 -266.952393 6.83249998
276.246307 -266.995209 7.62489986
276.256592 -266.928772 8.1480999
276.282104 -266.989502 8.30819988
276.216309 -266.906799 8.41219997
276.206512 -266.969208 9.54749966
276.350098 -266.685455 -0.130199999
276.216614 -266.618408 0.0922000036
276.335052 -266.714172 0.477999985
276.213715 -266.706207 1.80649996
276.267914 -266.76651 4.20790005
276.254211 -266.493103 -0.253199995
276.249695 -265.117615 0.417299986
276.314697 -264.841187 0.403899997
276.280701 -264.712006 0.547200024
276.338196 -264.641388 0.60619998
276.37619 -264.457611 0.404900014
276.385712 -264.330414 -0.25060001
276.251709 -264.227905 0.135299996
276.241791 -264.197601 0.933300018
276.272705 -263.022491 3.63669991
276.270386 -262.704987 1.80659997
276.283905 -262.61499 2.22429991
276.339905 -262.587585 2.32979989
276.598511 -269.837494 10.0688
276.5896 -269.414307 9.97019958
276.597412 -269.317902 9.7894001
276.58197 -269.262848 9.9232502
276.528503 -269.083405 7.99310017
276.572998 -269.036407 9.11159992
276.507812 -269.020905 9.78709984
276.521301 -269.060211 10.1950998
276.588409 -269.066895 10.3594999
276.591949 -268.903809 6.09415007
276.527313 -268.8414 7.06780005
276.564606 -268.933289 8.14719963
276.508911 -268.965607 8.73550034
276.496307 -268.970001 10.8150997
276.599091 -268.644409 4.37589979
276.599792 -268.786011 4.96210003
276.598785 -268.648499 5.23309994
276.551605 -268.640411 5.94099998
276.550598 -268.633301 6.16730022
276.592285 -268.68631 6.39919996
276.593414 -268.712585 6.75670004
276.44751 -268.697113 9.47070026
276.535309 -268.769287 10.2568998
276.423096 -268.688385 10.4006996
276.433014 -268.641815 10.9039001
276.530212 -268.741699 11.0445004
276.53949 -268.47699 4.86079979
276.535889 -268.440308 5.21260023
276.599304 -268.453613 6.1329999
276.48822 -268.451111 6.9677
276.404388 -268.431 7.32730007
276.433258 -268.428589 7.45615005
276.458099 -268.593811 7.79360008
276.47641 -268.500092 9.12909985
276.480713 -268.425995 9.54209995
276.453888 -268.480713 10.2054996
276.433685 -268.588593 10.5900002
276.597809 -268.426392 11.0656996
276.497589 -268.295044 4.89035034
276.572205 -268.284088 5.00540018
276.554901 -268.277008 5.35330009
276.597687 -268.361298 6.06780005
276.475708 -268.36969 6.50719976
276.401215 -268.308014 6.73089981
276.477417 -268.369568 6.87130022
276.442108 -268.262787 10.8149996
276.580688 -268.062592 0.656300008
276.514801 -268.199493 6.1573
276.532104 -268.073303 6.26789999
276.465454 -268.132019 6.5
276.458496 -268.103607 7.91940022
276.421295 -268.082001 8.93630028
276.563507 -267.975494 0.731000006
276.407898 -267.827209 4.8112998
276.472198 -267.823914 5.24539995
276.478912 -267.867615 6.33339977
276.406311 -267.869293 6.52619982
276.412109 -267.912598 7.96579981
276.437592 -267.913696 9.13000011
276.579407 -267.757904 -0.283300012
276.538208 -267.750885 -0.142100006
276.406799 -267.740601 4.88730001
276.479614 -267.776306 6.27650023
276.416595 -267.700989 6.9678998
276.51709 -267.761108 8.14210033
276.411499 -267.644012 10.8097
276.586914 -267.553894 -0.240199998
276.474304 -267.434296 -0.179199994
276.538208 -267.45929 0.333400011
276.502899 -267.516388 0.690800011
276.500397 -267.519165 5.46029997
276.45929 -267.430481 5.62050009
276.409607 -267.587799 5.92789984
276.44519 -267.484711 6.11759996
276.486694 -267.57959 8.09560013
276.579803 -267.490387 8.42819977
276.492798 -267.334686 -0.0713
276.506927 -267.263611 0.282733321
276.452789 -267.238495 0.497000009
276.43219 -267.264496 0.732599974
276.437408 -267.257599 0.836199999
276.428711 -267.201508 1.15369999
276.450012 -267.370209 5.03420019
276.437897 -267.360809 6.15980005
276.4151 -267.390503 8.48960018
276.463104 -267.149109 -0.508099973
276.445679 -267.127197 -0.260549992
276.409363 -267.138458 -0.128849998
276.441803 -267.093597 0.0923999995
276.431793 -267.019196 0.286799997
276.426697 -267.048096 0.773500025
276.445007 -267.052795 0.844299972
276.433014 -267.126801 6.2505002
276.428009 -266.926605 -0.152700007
276.430298 -266.980988 0.511799991
276.539093 -264.841797 0.698099971
276.566315 -264.698395 0.701499999
276.511597 -264.468018 -0.280699998
276.519043 -264.458649 0.0892999992
276.486786 -264.475006 0.262300014
276.414612 -264.260895 -0.321700007
276.464996 -264.354309 -0.192399994
276.431396 -264.367889 0.130400002
276.464691 -264.322693 0.466100007
276.430511 -264.261688 0.705900013
276.426605 -262.926697 2.11560011
276.597198 -262.591003 2.54690003
276.767395 -270.204407 10.4618998
276.715515 -270.271698 10.6386995
276.783386 -270.076599 6.9698
276.798309 -270.078705 10.7024002
276.715607 -269.830109 7.40579987
276.624298 -269.815704 9.28890038
276.765503 -269.936615 9.74330044
276.730286 -269.945801 10.1407003
276.691803 -269.883301 10.3937998
276.666687 -269.826294 10.6703997
276.754791 -269.939911 10.8339996
276.770447 -269.670349 4.87360001
276.769043 -269.65741 5.38755035
276.687195 -269.632904 7.47179985
276.744904 -269.549408 5.53560019
276.791107 -269.598297 6.06360006
276.676605 -269.4664 6.78060007
276.728699 -269.445007 6.92539978
276.766541 -269.489197 7.77115011
276.675415 -269.487091 8.2652998
276.650085 -269.439087 8.95049953
276.644989 -269.519897 9.01970005
276.619202 -269.410706 10.5848999
276.729706 -269.24411 4.74399996
276.731903 -269.218994 5.61359978
276.716095 -269.3414 6.81879997
276.703003 -269.249298 7.27619982
276.712097 -269.326813 8.00699997
276.615112 -269.355896 8.2592001
276.627197 -269.368408 8.83520031
276.602112 -269.269897 10.2517004
276.717712 -269.034485 -0.415600002
276.787415 -269.09671 -0.191799998
276.729309 -269.03949 1.03149998
276.655487 -269.124908 5.29029989
276.708405 -269.0224 5.5323
276.646912 -269.050903 5.69990015
276.661713 -269.159607 5.91349983
276.688904 -269.128296 7.47230005
276.606201 -269.174103 8.11159992
276.649414 -269.107605 8.61130047
276.733307 -268.9646 0.644200027
276.667786 -268.953613 5.52339983
276.613098 -268.962402 7.2342
276.604614 -268.933289 9.49240017
276.661011 -268.647888 -0.156299993
276.703979 -268.7612 0.566949964
276.704407 -268.763794 0.864099979
276.661285 -268.7565 4.47609997
276.600403 -268.670502 7.31459999
276.654388 -268.606415 7.84429979
276.604095 -268.747986 8.07540035
276.70401 -268.423889 -0.458999991
276.648285 -268.554199 -0.253600001
276.634003 -268.583008 -0.0351000018
276.696411 -268.497986 0.55339998
276.600006 -268.440887 8.11279964
276.643707 -268.520508 10.4603004
276.616791 -268.507812 11.1011
276.6633 -268.2229 0.742999971
276.620911 -268.14859 5.48309994
276.72641 -268.138397 8.15390015
276.778687 -267.867554 8.08379936
276.604309 -267.632294 -0.067900002
276.791595 -267.724792 8.13829994
276.752594 -267.705292 8.41720009
276.697998 -267.684692 8.61784935
276.616394 -267.552704 -0.0760999992
276.702698 -267.43689 0.631699979
276.669708 -267.532806 5.54519987
276.638153 -267.524536 5.86385012
276.716095 -267.461304 8.10319996
276.607208 -267.574585 8.20149994
276.611938 -267.352753 0.150849998
276.627594 -264.775696 0.677699983
276.712311 -264.261688 0.429100007
276.638306 -264.363708 0.904200017
276.659698 -263.030609 1.90919995
276.662811 -263.066406 2.17440009
276.665802 -262.891998 0.632200003
276.615814 -262.87149 1.83870006
276.774292 -262.730499 2.56100011
276.96991 -270.514709 9.63300037
276.871399 -270.233704 4.90210009
276.922394 -270.226013 5.91209984
276.853394 -270.207214 8.61830044
276.821503 -270.263794 9.11540031
276.950287 -270.379791 9.21609974
276.875488 -270.333313 10.9668999
276.838806 -270.036285 4.85249996
276.830994 -270.057007 6.89890003
276.815308 -269.984314 6.93739986
276.968994 -269.627014 11.2551003
276.817413 -269.459015 5.73600006
276.82019 -269.286285 -0.0560999997
276.840454 -269.329407 0.266950011
276.812714 -269.374298 0.569700003
276.804504 -268.912292 -0.170699999
276.897797 -268.374786 8.38160038
276.822113 -268.040588 5.2803998
276.946991 -268.0401 5.43989992
276.956787 -268.014191 5.61009979
276.974304 -268.14859 5.81879997
276.862488 -268.151306 8.32629967
276.980103 -267.938507 0.065200001
276.952789 -267.824585 5.46509981
276.971985 -267.997589 5.76030016
276.810486 -267.831085 8.4975996
276.973602 -267.795105 0.00680000009
276.847107 -267.620087 5.68489981
276.806488 -267.740509 8.19419956
276.893311 -267.707489 8.65639973
276.926788 -267.460907 0.183599994
276.874084 -267.457306 0.302599996
276.92099 -267.386505 -0.178599998
276.94519 -267.329102 0.0705000013
276.992096 -265.719696 0.958199978
276.980988 -265.343903 1.3585
276.915894 -263.053314 1.56980002
276.802399 -262.920898 2.81209993
277.049011 -270.500885 7.6164999
277.088287 -270.377014 8.45020008
277.006592 -270.000488 0.747600019
277.17569 -269.143005 32.1828995
277.007294 -268.234894 7.99720001
277.063995 -268.153687 5.97720003
277.168213 -268.115295 6.09229994
277.07019 -267.554993 0.0751999989
277.056213 -265.948486 1.01189995
277.007202 -265.671295 1.07679999
277.036194 -264.494385 0.814999998
277.126312 -262.484589 2.84450006
277.008392 -262.322296 2.06760001
277.217407 -270.041809 8.40799999
277.213806 -266.043304 1.22210002
277.332306 -265.718414 1.43889999
277.299713 -262.672485 2.00209999
277.280396 -262.495087 2.58189988
277.399811 -261.905487 1.46010005
277.561798 -270.354095 8.38819981
277.477905 -265.21701 1.49559999
277.571411 -262.418793 1.71490002
277.572693 -262.259308 1.18060005
277.511688 -262.197205 1.15380001
277.560699 -262.013306 1.54159999
277.502197 -261.929413 1.14069998
277.495605 -261.996887 1.63800001
277.626709 -262.212799 1.77839994
277.783691 -262.268585 2.01020002
277.600494 -262.12439 1.82679999
277.970215 -262.877991 3.58649993
277.877686 -262.911194 3.93720007
278.072113 -265.358093 1.47080004
278.058899 -263.374908 -0.368099988
278.171814 -262.284393 3.01539993
278.070007 -262.05191 2.89389992
278.128815 -262.153198 3.1401
278.122009 -261.838013 3.35719991
278.234314 -266.388 2.49620008
278.37619 -262.913605 0.929099977
278.394104 -262.645905 1.03600001
278.306488 -262.516205 0.74879998
278.29425 -262.559937 1.12155008
278.338501 -262.513092 2.8591001
278.3125 -262.434387 3.02099991
278.338196 -262.444611 3.38750005
278.296509 -262.280396 3.08780003
278.307098 -262.32019 3.52020001
278.365692 -262.049011 1.50919998
278.319336 -261.887024 1.35794997
278.236938 -261.645264 2.87744999
278.362091 -261.586487 2.59770012
278.581787 -262.982788 1.00899994
278.441589 -262.77829 3.12479997
278.429199 -262.543915 2.74970007
278.584412 -262.51059 3.83579993
278.415894 -262.354095 2.87619996
278.581207 -262.024597 1.36660004
278.538147 -261.872772 1.32486665
278.455994 -261.855713 2.70770001
278.588806 -261.992096 2.81459999
278.450104 -261.740814 1.0388
278.559692 -261.715393 1.51900005
278.538208 -261.755707 2.58179998
278.60379 -262.690796 1.25030005
278.765015 -262.619507 3.71359992
278.660889 -262.447693 1.04610002
278.690613 -262.507904 3.2342999
278.661407 -262.305298 2.88809991
278.678192 -262.3992 3.55960011
278.746185 -262.3125 3.6415
278.757385 -262.390289 3.86179996
278.60379 -262.01651 0.948499978
278.639313 -261.918091 1.30630004
278.6026 -261.979309 1.70179999
278.767914 -261.883301 2.51200008
278.601624 -261.691833 1.66235006
278.652802 -261.71701 1.88209999
278.628601 -261.519409 1.7572
278.845612 -264.879791 4.3039999
278.912811 -264.695404 4.07000017
278.897095 -263.54071 3.04410005
278.90271 -263.455109 3.22250009
278.99469 -263.317505 4.9861002
278.990601 -263.117188 3.9137001
278.954803 -262.871307 4.15259981
278.85141 -262.615601 2.93260002
278.926392 -262.699097 3.47300005
278.96109 -262.590912 3.61299992
278.955597 -261.709198 1.79320002
278.973999 -261.737488 2.16160011
278.946198 -261.698792 2.37700009
278.961914 -261.762604 2.42789984
279.011993 -265.005493 4.42530012
279.188812 -264.639099 3.63100004
279.03009 -263.711212 2.98779988
279.1008 -263.562195 -0.187999994
279.10144 -263.581604 3.13310003
279.035492 -263.530396 3.2723999
279.16861 -263.473694 3.68984985
279.103485 -263.240814 3.12899995
279.184387 -263.274292 4.08479977
279.046692 -263.251099 4.21080017
279.107788 -263.271912 4.99480009
279.061707 -263.175995 3.65420008
279.042114 -262.794495 3.29579997
279.145294 -262.783905 3.49460006
279.031403 -262.78949 3.67770004
279.024506 -262.689514 4.30100012
279.014496 -262.55011 4.45889997
279.025604 -261.805908 2.2565999
279.17926 -261.677063 1.14595008
279.168304 -261.639709 1.34909999
279.0578 -261.761597 1.70729995
279.048615 -261.600098 2.15709996
279.115601 -261.780212 2.58940005
279.118988 -261.586609 0.620599985
279.138367 -261.540649 1.34995008
279.176086 -261.519501 1.58159995
279.124512 -261.261414 1.55009997
279.115356 -261.273651 1.8932333
279.19809 -261.322601 2.10339999
279.169708 -261.29361 2.32419991
279.118103 -261.087799 2.20440006
279.303894 -264.846893 4.23460007
279.29129 -264.644012 4.09910011
279.261292 -264.502502 3.7953999
279.300995 -264.352112 3.8441999
279.376801 -263.835114 -0.0916000009
279.352905 -263.862305 0.177399993
279.337402 -263.868286 0.485799998
279.358093 -263.766998 -0.183899999
279.360107 -263.743805 0.389400005
279.290314 -263.791199 0.655200005
279.323608 -263.735809 3.11669993
279.214294 -263.692291 3.77150011
279.3909 -263.540588 3.64059997
279.234711 -263.398193 2.83109999
279.272705 -263.394012 3.43589997
279.28299 -263.34491 4.0479002
279.359558 -263.315704 4.29780006
279.397888 -263.092407 2.76320004
279.323792 -263.141388 3.04220009
279.224701 -263.144897 4.33720016
279.341309 -263.043304 4.42980003
279.361115 -262.717499 0.944299996
279.396606 -262.637909 1.22070003
279.321777 -262.500732 0.906599998
279.391907 -262.493713 1.28649998
279.246399 -262.475189 2.92409992
279.296295 -262.380005 1.07319999
279.367004 -262.396698 2.91849995
279.386658 -262.328979 3.07620001
279.392792 -262.143494 1.33229995
279.358398 -262.100891 1.52020001
279.302307 -262.096802 1.64059997
279.387207 -262.111298 2.579
279.301331 -262.1409 2.69886661
279.307098 -261.921997 1.56050003
279.361908 -261.897491 2.16779995
279.309113 -261.979004 2.27519989
279.343109 -261.959106 2.54830003
279.245209 -261.677887 1.13339996
279.291687 -261.725311 1.25629997
279.218994 -261.711304 1.50419998
279.2005 -261.6427 1.64300001
279.365204 -261.786896 2.0158
279.284698 -261.643188 2.20409989
279.308441 -261.477173 1.95193338
279.224609 -261.451996 2.31800008
279.443604 -264.09549 4.06689978
279.515808 -263.967987 -0.452399999
279.433014 -263.956299 -0.358799994
279.413696 -263.928406 -0.0445999987
279.431213 -263.921692 0.1646
279.482208 -263.977997 0.468300015
279.435059 -263.935638 0.718800008
279.4823 -263.968597 0.878899992
279.54071 -263.657288 -0.219400004
279.486298 -263.66861 3.4605
279.517212 -263.442993 -0.241600007
279.414398 -263.454712 3.15569997
279.517548 -262.894714 3.26289988
279.488098 -262.859589 4.54969978
279.522797 -262.898712 4.72469997
279.492004 -262.62851 0.698000014
279.479187 -262.630096 3.48699999
279.496002 -262.587189 0.962300003
279.545685 -262.463409 1.39489996
279.453094 -262.513214 2.78789997
279.45755 -262.452911 3.04975009
279.502808 -262.374603 1.98199999
279.471252 -262.359314 2.70694995
279.492126 -262.306732 3.07316661
279.57019 -262.191895 2.55159998
279.593994 -262.169006 2.72250009
279.593506 -261.838409 2.1099999
279.428711 -261.867401 2.32570004
279.463593 -261.477203 2.54460001
279.777588 -266.299896 9.50769997
279.797089 -266.255096 9.66279984
279.772308 -266.393494 10.8171997
279.724213 -264.072815 4.19280005
279.753296 -263.850189 -0.358799994
279.772095 -263.815308 4.09320021
279.780304 -263.966095 4.23890018
279.657501 -263.692596 -0.413800001
279.660492 -263.628601 -0.279900014
279.766998 -263.429596 4.29110003
279.743011 -263.490692 4.47830009
279.674805 -263.290192 4.15799999
279.772705 -263.339294 4.55310011
279.711304 -262.931885 2.71760011
279.624786 -262.948395 5.01739979
279.756012 -262.775085 2.63709998
279.723206 -262.704956 3.73619986
279.612 -262.445892 2.65050006
279.627197 -262.51709 2.80809999
279.628235 -262.277954 1.64610004
279.698914 -262.360687 1.99460006
279.763611 -262.239807 2.00629997
279.733398 -262.336487 2.23530006
279.691711 -262.128113 2.88610005
279.753601 -261.866302 1.78410006
279.780609 -261.871185 2.02900004
279.78949 -261.858887 2.2507
279.773193 -261.890503 2.48690009
279.668304 -261.984009 3.16090012
279.688385 -261.764404 3.2980001
279.906311 -266.429413 9.82279968
279.936707 -266.284088 6.72830009
279.919495 -266.309631 6.93945026
279.958801 -266.276611 7.11304998
279.938599 -266.299286 7.29460001
279.923218 -266.264404 7.47990036
279.930237 -266.327057 7.73180008
279.972809 -266.240387 8.06379986
279.963013 -266.239807 8.58990002
279.998505 -266.270691 8.64459991
279.885071 -266.269958 9.94054985
279.940094 -266.362915 10.2109003
279.911102 -266.306793 10.8654003
279.92688 -266.090088 4.25570011
279.898987 -266.138 4.62419987
279.90329 -266.049408 4.87069988
279.964203 -266.19809 5.23549986
279.849304 -266.068787 9.2791996
279.914795 -265.967102 -0.121799998
279.873291 -265.012787 3.43849993
279.850403 -264.28009 4.09375
279.846893 -264.088287 4.17229986
279.888184 -264.06366 4.29440022
279.921692 -263.954102 4.12989998
279.930389 -263.817108 4.27869987
279.9263 -263.620605 3.41829991
279.887299 -263.784698 3.77390003
279.97171 -263.483612 0.643700004
279.976013 -263.554291 3.01230001
279.915955 -263.437531 4.10230017
279.866302 -263.233704 3.97849989
279.850342 -263.300842 4.12310028
279.8479 -263.084595 2.64129996
279.971497 -263.125305 3.67740011
279.860687 -263.167603 4.31150007
279.905487 -262.846008 2.22049999
279.898193 -262.805206 2.49799991
279.88269 -262.887909 3.91869998
279.861298 -262.747009 3.92499995
279.907715 -262.114288 1.51460004
279.941406 -262.11261 1.61839998
279.85849 -261.890808 1.7967
279.891602 -261.881805 1.94229996
279.838409 -261.887787 2.15330005
279.925903 -261.864899 2.26859999
279.970795 -261.897491 2.43050003
279.965912 -261.714905 1.6056
279.881897 -261.716553 1.87189996
279.974091 -261.558014 1.42939997
