# .PCD v0.7 - Point Cloud Data file format
VERSION 0.7
FIELDS x y z
SIZE 4 4 4
TYPE F F F
COUNT 1 1 1
WIDTH 2065
HEIGHT 1
VIEWPOINT 0 0 0 1 0 0 0
POINTS 2065
DATA ascii
-12.4554996 -7.1402998 11.7788
-12.1627998 -7.23579979 11.8146
-12.1990995 -7.19880009 11.9951
-11.8495998 -7.33570004 10.415
-11.8990002 -7.15124989 11.6331005
-11.8069 -6.96400023 11.9642
-11.8655005 -6.39139986 12.1779003
-11.7782001 -7.40679979 11.6606998
-11.7364998 -7.23120022 10.4673004
-11.6601 -7.20709991 11.1784
-11.6632996 -7.03399992 7.37909985
-11.6194 -7.02810001 7.40229988
-11.6286001 -7.15850019 10.5538998
-11.6414003 -7.08979988 11.6519003
-11.65135 -6.96105003 7.44079971
-11.6857996 -6.85379982 10.5565004
-11.6575003 -6.91629982 11.5651999
-11.6245003 -6.77589989 10.4751997
-11.6694002 -6.63219976 12.4244003
-11.6048002 -6.43529987 6.35459995
-11.7068996 -6.44939995 6.8112998
-11.6459999 -6.41265011 7.35585022
-11.6389999 -6.42379999 7.90920019
-11.6237001 -6.36590004 6.77750015
-11.6049995 -6.39830017 7.01660013
-11.6422005 -6.35680008 7.55779982
-11.6131001 -6.38390017 7.7052002
-11.6134996 -6.35389996 7.90280008
-11.6303005 -6.37335014 8.18340015
-11.6905003 -6.29530001 8.78409958
-11.6042004 -6.34800005 9.02980042
-11.6559 -6.28079987 10.3947001
-11.6507998 -6.30049992 10.4813004
-11.7463999 -6.39440012 10.6120996
-11.7707996 -6.37010002 11.9812002
-11.4228001 -7.40619993 10.7065001
-11.5422802 -7.28372002 10.5388393
-11.4448662 -7.30933332 10.6973
-11.4724998 -7.26130009 10.868
-11.5580502 -7.26840019 11.1234493
-11.5488005 -7.22609997 11.5802002
-11.4720001 -7.3204999 11.7519999
-11.4403 -7.30670023 11.8318996
-11.5331497 -7.02734995 7.47255039
-11.5226336 -7.08370018 10.5241671
-11.4995003 -7.08335018 10.6756992
-11.5059996 -7.04920006 10.9158001
-11.5424004 -7.15129995 11.5516996
-11.4843998 -7.10596657 11.7155333
-11.5622997 -7.16130018 11.8169003
-11.4020996 -7.11210012 12.3269997
-11.5507994 -6.88773346 7.35603333
-11.5471745 -6.86342525 7.46752501
-11.5207005 -6.91489983 7.60480022
-11.5361996 -6.82219982 10.3793001
-11.5007095 -6.90856981 10.4939299
-11.4966002 -6.91620016 10.6891994
-11.5101833 -6.87384987 11.7572165
-11.4649 -6.84079981 12.1534004
-11.4300003 -6.61240005 6.40220022
-11.4902 -6.76049995 7.15570021
-11.585 -6.77829981 7.36619997
-11.5264492 -6.72014999 7.49940014
-11.5144663 -6.69239998 7.67250013
-11.4931498 -6.72700024 7.91879988
-11.4462996 -6.62900019 10.1674995
-11.4928999 -6.72349977 10.7186003
-11.5263004 -6.70480013 10.9007998
-11.5433998 -6.70410013 11.6840496
-11.5358 -6.77684975 12.0434494
-11.5262003 -6.75180006 12.290266
-11.5404997 -6.43359995 6.17080021
-11.4792004 -6.45849991 6.28900003
-11.5237999 -6.43529987 6.73390007
-11.5490999 -6.40070009 6.96939993
-11.4942999 -6.45200014 7.09994984
-11.5055246 -6.44882488 7.56237507
-11.5343494 -6.41104984 7.72825003
-11.4965 -6.46613312 7.87659979
-11.4745998 -6.40210009 8.34420013
-11.4651747 -6.46547508 8.50332546
-11.4898005 -6.44250011 8.671134
-11.4730253 -6.45195007 8.88395023
-11.4413004 -6.44229984 9.19149971
-11.4741001 -6.44710016 9.38339996
-11.4926996 -6.51039982 9.45919991
-11.4904995 -6.44410038 9.69339943
-11.4497337 -6.45836687 9.8421669
-11.4352999 -6.42379999 10.0943003
-11.4038 -6.4302001 10.2758999
-11.4512997 -6.40700006 10.4146996
-11.4752502 -6.48309994 10.6871252
-11.4597998 -6.4510498 10.9116993
-11.4442997 -6.47289991 11.0198002
-11.5907001 -6.36460018 6.88819981
-11.5430002 -6.3611002 7.38780022
-11.5501003 -6.3499999 7.94070005
-11.5417004 -6.37836647 8.12576675
-11.5259666 -6.34953356 8.50356674
-11.5622997 -6.37659979 8.75660038
-11.5241003 -6.35760021 8.89799976
-11.573 -6.29780006 9.05249977
-11.4466 -6.37905025 9.50510025
-11.5360498 -6.35575008 9.63444996
-11.4900999 -6.33125019 9.87694931
-11.4952669 -6.3229332 10.0657663
-11.5059996 -6.38320017 10.3136997
-11.5682001 -6.30235004 10.5323
-11.4905996 -6.34899998 10.7847996
-11.4979 -6.38094997 10.8836498
-11.4237003 -6.382267 11.1055336
-11.4378996 -6.3032999 12.6900997
-11.4651003 -6.03480005 12.3961
-11.4683495 -5.49695015 12.2727499
-11.2087002 -7.40799999 11.7662001
-11.3710003 -7.26160002 10.5832996
-11.3978004 -7.39949989 10.7833996
-11.3727999 -7.28499985 10.8439999
-11.3773994 -7.20680046 11.7435999
-11.3754997 -7.34740019 11.8676004
-11.3505497 -7.1484251 11.8762503
-11.2691002 -7.1196332 12.0363998
-11.3233995 -7.09819984 12.3084002
-11.3983002 -7.0394001 12.5487003
-11.3525 -6.96169996 6.57620001
-11.3484001 -6.98110008 6.65420008
-11.3817997 -6.91160011 10.6795998
-11.3650999 -6.92430019 11.7186337
-11.2650995 -6.92009974 11.9417334
-11.2714005 -6.85594988 12.0538006
-11.3915005 -6.99420023 12.5880003
-11.3422661 -6.6736002 7.90576649
-11.2910995 -6.65500021 8.09430027
-11.2742004 -6.6408 8.30830002
-11.2728004 -6.63539982 8.47189999
-11.2943001 -6.65350008 8.73799992
-11.3494997 -6.62900019 9.21679974
-11.2722998 -6.65269995 9.4073
-11.3599997 -6.6560998 10.2973003
-11.3498001 -6.68499994 10.6633997
-11.3800001 -6.78240013 11.8769999
-11.3601999 -6.79150009 12.0724001
-11.3570004 -6.78374958 12.2833004
-11.2521 -6.57240009 8.94489956
-11.2854004 -6.58799982 9.35550022
-11.2424002 -6.56290007 9.47710037
-11.2743998 -6.57620001 9.88319969
-11.3544998 -6.48250008 10.0150995
-11.2969999 -6.53879976 11.2066002
-11.3151999 -6.55499983 11.5146999
-11.3425999 -6.48460007 11.75735
-11.382267 -6.50626659 11.8656006
-11.3384333 -6.51980019 12.2644329
-11.3957996 -6.38490009 11.5732002
-11.2245998 -6.38579988 12.1870003
-11.1528997 -7.52470016 12.2890997
-11.1085501 -7.33965015 11.8751755
-11.0754499 -7.35169983 12.0878
-11.0769329 -7.34969997 12.3243666
-11.1160002 -7.22340012 12.5049
-11.0654001 -7.0571332 11.9451332
-11.1324501 -6.94919968 11.9657001
-11.1766996 -6.8046999 12.0893002
-11.1012497 -6.50950003 12.1674004
-11.0172005 -6.35406685 12.2825003
-11.0551004 -5.41450024 12.0822001
-10.9703999 -7.45190001 6.62639999
-10.9698 -7.41470003 11.8618002
-10.9844494 -7.51020002 12.3277998
-10.9172497 -7.10875034 11.9242001
-10.8909998 -6.97329998 12.0086002
-10.8082504 -6.60340023 9.10440063
-10.8702002 -6.53369999 9.3902998
-10.9076996 -6.55149984 9.67609978
-10.8346996 -6.48929977 12.1348
-10.9731998 -6.49660015 12.2939005
-10.9457998 -6.28929996 12.3894997
-10.9041004 -6.20319986 12.4736996
-10.6099005 -8.33380032 9.41069984
-10.6833992 -7.48845005 12.2726994
-10.6631002 -6.62069988 8.53960037
-10.6413002 -6.64440012 8.60060024
-10.6815996 -6.59880018 8.59130001
-10.72855 -6.55175018 8.76070023
-10.6930504 -6.5323 8.90425014
-10.4941998 -8.24260044 9.39089966
-10.5150995 -8.2652998 9.46389961
-10.4935999 -8.08955002 6.5401001
-10.4823999 -8.11359978 6.74440002
-10.4719 -7.94379997 6.75454998
-10.4879999 -7.59719992 8.84679985
-10.2439003 -8.78050041 6.55410004
-10.2496996 -8.2020998 6.4229002
-10.2839003 -8.23449993 6.67080021
-10.2480001 -8.22119999 9.44209957
-10.2509003 -8.17630005 5.90840006
-10.3652496 -8.08242512 6.70714998
-10.2757998 -8.14939976 6.83739996
-10.1850004 -8.99790001 8.78639984
-10.0473499 -8.87752533 8.89579964
-10.0284328 -8.73086643 8.86363316
-10.1090002 -8.4701004 6.17679977
-10.1193008 -8.46615028 6.53055
-10.1163006 -8.47235012 6.6303997
-10.0040998 -8.41590023 7.13019991
-10.03965 -8.48869991 8.90049934
-10.1084003 -8.21220016 5.49790001
-10.0973997 -8.27340031 5.73640013
-10.0693998 -8.29109955 5.86560011
-10.1047497 -8.22780037 6.11815023
-10.1103992 -8.24435043 6.24884987
-10.0882244 -8.24817467 6.51515007
-10.0361004 -8.25905037 6.66975021
-10.0299997 -8.25313282 6.92350006
-10.0272751 -8.24822521 7.07670021
-10.0324497 -8.25975037 7.53880024
-10.0801506 -8.21245003 7.86384964
-10.0228996 -8.21879959 8.27560043
-10.0775003 -8.21370029 8.43620014
-10.1681004 -8.1541996 5.70340014
-10.1046 -8.19260025 6.07200003
-10.1357002 -8.17949963 6.37400007
-10.1684999 -8.19439983 6.5612998
-10.1780996 -8.17724991 6.66669989
-10.1154995 -8.16740036 6.90365028
-10.0978003 -8.17570019 7.08510017
-10.1181993 -8.1845665 7.26146698
-10.0840502 -8.17679977 7.43704987
-10.0737333 -8.16213322 7.71236658
-10.0794001 -8.16870022 7.94229984
-10.0993004 -8.13825035 8.09165001
-10.0112495 -8.15914917 8.35605049
-10.0570002 -8.15945053 8.76589966
-10.0710249 -8.09817505 8.8688755
-10.0067997 -8.0788002 9.06550026
-10.0028 -8.19750023 9.21630001
-10.0227003 -7.9545002 8.93700027
-10.1013498 -7.64874983 8.88024998
-10.0180998 -6.74779987 5.38100004
-10.0251999 -6.77810001 5.5085001
-9.89719963 -8.93634987 8.96585083
-9.96450043 -8.83049965 9.01720047
-9.98038006 -8.73692036 8.94147968
-9.88969994 -8.79539967 9.0795002
-9.97360039 -8.47999954 8.9368
-9.94695091 -8.57419968 9.03719997
-9.99289989 -8.25879955 7.35979986
-9.99259949 -8.3185997 7.50029993
-9.97669983 -8.27159977 7.70319986
-9.98503304 -8.27933311 7.9739666
-9.97140026 -8.27356625 8.05653381
-9.96759987 -8.29656696 8.28766727
-9.96694946 -8.22789955 8.45055008
-9.9728508 -8.27409935 8.69764996
-9.96612549 -8.27499962 8.84445
-9.95940018 -8.3156004 9.00030041
-9.88609982 -8.28359985 9.30632496
-9.91259956 -8.24383354 9.45213318
-9.91755009 -8.25329971 9.70409966
-9.90380001 -8.23789978 9.92399979
-9.96360016 -8.19250011 8.67179966
-9.9647665 -8.09293365 8.92249966
-9.9921999 -8.15130043 9.34039974
-9.94299984 -8.13455009 9.70129967
-9.93500042 -8.10750008 9.85249996
-9.99129963 -7.92000008 8.91930008
-9.89690018 -7.66020012 8.9439497
-9.73859978 -8.47939968 9.46430016
-9.69950008 -8.29419994 9.50380039
-9.4531002 -8.20149994 9.37759972
-9.42310047 -8.19260025 9.32970047
-9.40009975 -8.16160011 9.50409985
-9.36569977 -8.2116003 9.40600014
-7.83360004 -4.03579998 7.17640018
-7.87825012 -3.98320007 7.17150021
-7.91809988 -3.77579999 7.08430004
-7.83179998 -3.56902504 7.11472511
-7.83330011 -3.04250002 7.12440014
-7.73780012 -4.1085 7.17679977
-7.72669983 -4.13759995 7.21750021
-7.70363998 -3.92192006 7.16684008
-7.70699978 -3.7090168 7.15531683
-7.63920021 -3.62599993 7.20440006
-7.67144966 -3.52047491 7.15242481
-7.7020998 -3.02544999 7.10274982
-7.61009979 -3.16300011 7.20769978
-7.6645999 -2.89770007 7.1072998
-7.51800013 -4.07889986 7.18249989
-7.4842 -3.90414 7.13575983
-7.48102474 -3.73845005 7.16012478
-7.46432495 -3.56439996 7.16152525
-7.47510004 -3.28579998 7.14680004
-7.44019985 -3.31459999 7.22149992
-7.54419994 -3.08159995 7.11019993
-7.43779993 -2.5230999 6.7947998
-7.48500013 -2.45230007 6.84140015
-7.2198 -4.06069994 7.17579985
-7.24547482 -4.05949974 7.30327511
-7.20860004 -4.06080008 7.54890013
-7.22069979 -4.06449986 7.73570013
-7.20835018 -4.0791502 7.85305023
-7.20079994 -4.09520006 8.10879993
-7.29874992 -3.9703002 7.16814995
-7.25105715 -3.89481425 7.24885702
-7.21723318 -3.82316661 7.47550011
-7.21549988 -3.90739989 7.70009995
-7.23116016 -3.90684009 7.91836023
-7.21600008 -3.86269999 8.09173298
-7.2098999 -3.82480001 8.24619961
-7.22595024 -3.88772488 8.5234499
-7.20489979 -3.80270004 8.69239998
-7.32429981 -3.60349989 7.13730001
-7.25279999 -3.71651244 7.28611231
-7.21880007 -3.67045021 7.4916501
-7.24285984 -3.7026999 7.69500017
-7.21166658 -3.66103339 7.88273335
-7.22116661 -3.64346671 8.05819988
-7.22179985 -3.70560002 8.25399971
-7.21084976 -3.74822497 8.49310017
-7.2937665 -3.48390007 7.13563347
-7.22572851 -3.49687147 7.30297136
-7.20419979 -3.49889994 7.44309998
-7.22090006 -3.44160008 7.65859985
-7.22650003 -3.51196671 7.90199995
-7.22345018 -3.54925013 8.15464973
-7.20319986 -3.58470011 8.3743
-7.22393322 -3.47679996 8.44153309
-7.2256999 -3.46499991 8.68620014
-7.27795696 -3.30480003 7.1606288
-7.2262001 -3.32730007 7.33340025
-7.22287512 -3.33345008 7.51327515
-7.21659994 -3.21799994 7.69259977
-7.2487998 -3.31925011 7.92280006
-7.2335 -3.21834993 8.15380001
-7.21630001 -3.36470008 8.33224964
-7.20879984 -3.26040006 8.48279953
-7.24289989 -3.05559993 7.14970016
-7.21535015 -3.14770007 7.26319981
-7.23025036 -3.0710001 7.48285007
-7.21490002 -3.0789001 7.67180014
-7.25059986 -3.10509992 8.19550037
-7.21350002 -3.1967001 8.62230015
-7.33220005 -2.8125999 7.10949993
-7.22949982 -2.92363334 7.30376673
-7.21229982 -2.94970012 7.54080009
-7.2026 -2.93569994 7.70915031
-7.23309994 -2.90860009 7.81519985
-7.22994995 -2.85650015 8.12109947
-7.21540022 -2.81999993 8.45969963
-7.2880249 -2.70037508 7.07997513
-7.21630001 -2.66160011 7.36240005
-7.23156691 -2.77880001 7.51183319
-7.22525024 -2.76515007 7.73690033
-7.23725033 -2.66219997 8.03464985
-7.21479988 -2.63389993 8.34669971
-7.32833338 -2.50230002 6.9163332
-7.27129984 -2.43549991 7.2519002
-7.22219992 -2.56500006 7.54279995
-7.23460007 -2.46199989 7.75209999
-7.21479988 -2.52885008 7.92319965
-7.34380007 -2.23390007 6.74720001
-7.27554989 -2.36054993 6.88405037
-7.2196002 -2.2658999 7.02839994
-7.24289989 -2.35759997 7.45730019
-7.22389984 -2.25819993 7.82819986
-7.20755005 -2.36670017 8.0927
-7.23479986 -2.31590009 8.30150032
-7.27834988 -0.23210001 3.69729996
-7.25339985 -0.216299996 4.11560011
-7.28462505 -0.108024999 3.70522499
-7.27183342 -0.118866667 3.9454999
-7.2526598 -0.130720004 4.04148006
-7.00150013 -4.17299986 6.84149981
-7.09894991 -4.04379988 7.01854992
-7.19770002 -4.04339981 7.64599991
-7.17320013 -4.01079988 7.90150023
-7.18620014 -4.01620007 8.52369976
-7.17840004 -3.98070002 7.12160015
-7.17749977 -3.91799998 7.56640005
-7.18623352 -3.91950011 7.73426676
-7.19059992 -3.87890005 7.82009983
-7.16730022 -3.97740006 8.11149979
-7.17749977 -3.8857801 8.29668045
-7.17772007 -3.90059996 8.49639988
-7.18109989 -3.84240007 8.63674927
-7.19589996 -3.6026001 7.46630001
-7.19690037 -3.65695 7.72070026
-7.18599987 -3.72799993 8.19400024
-7.19439983 -3.68270016 8.28795052
-7.17570019 -3.65389991 8.5227499
-7.16750002 -3.71149993 8.72459984
-7.13609982 -3.65560007 8.81779957
-7.04799986 -3.46679997 6.71939993
-7.19780016 -3.41790009 7.3895998
-7.19329977 -3.44070005 7.56040001
-7.18429995 -3.44926667 7.70676661
-7.18132496 -3.53915 7.92297506
-7.16580009 -3.49359989 8.15200043
-7.1944499 -3.50164986 8.24440002
-7.18050003 -3.52950001 8.52672482
-7.1803503 -3.46710014 8.68239975
-7.0612998 -3.30095005 6.7262001
-7.19159985 -3.3829 7.3519001
-7.19320011 -3.27909994 7.71929979
-7.19379997 -3.34089994 7.89120007
-7.18690014 -3.33529997 8.04190063
-7.19509983 -3.27410007 8.25570011
-7.19400024 -3.27619982 8.50379944
-7.17080021 -3.25270009 8.69460011
-7.07159996 -3.05235004 6.69070005
-7.17579985 -3.18050003 7.39589977
-7.17576647 -3.10529995 7.89783335
-7.16499996 -3.11980009 8.13204956
-7.17070007 -3.1861999 8.23630047
-7.19859982 -3.08220005 8.44929981
-7.17700005 -3.03609991 8.68099976
-7.19990015 -2.82329988 8.19130039
-7.16860008 -2.87583327 8.37419987
-7.18009996 -2.85409999 8.62639999
-7.07329988 -2.78399992 6.62260008
-7.19619989 -2.78609991 7.57380009
-7.18323326 -2.72443342 8.29723358
-7.15689993 -2.7427001 8.49769974
-7.1717 -2.75209999 8.63070011
-7.19019985 -2.59019995 7.26440001
-7.16879988 -2.59039998 8.14089966
-7.1940999 -2.40350008 8.4907999
-7.14370012 -0.084800005 4.1104002
-6.80210018 -6.36460018 7.30730009
-6.81829977 -6.10620022 7.29510021
-6.84539986 -5.87909985 7.27649975
-6.86299992 -5.32057524 7.13154984
-6.88549995 -5.31900024 7.2402668
-6.83433342 -5.08946657 7.08789968
-6.87930012 -4.8435998 6.98689985
-6.91226006 -4.88108015 7.03463984
-6.89523983 -4.66192007 6.95711994
-6.8989501 -4.75380039 7.06524992
-6.89055014 -4.51830006 6.96425009
-6.87960005 -4.53415012 7.00469971
-6.93258333 -4.29178333 6.91366673
-6.92265034 -4.13300037 6.86139965
-6.96806669 -3.98040009 6.86743355
-6.98970032 -3.22814989 6.75930023
-6.88113356 -0.21176666 4.16796684
-6.85686255 -0.0748500004 4.15756226
-6.62249994 -7.87779999 7.74919987
-6.64525032 -7.68424988 7.67124987
-6.65360022 -7.46309996 7.60050011
-6.65009975 -7.24714994 7.55259991
-6.76280022 -7.0474 7.38910007
-6.68513346 -7.09266663 7.47359991
-6.71225023 -6.88756657 7.45826674
-6.7354002 -6.73710012 7.39629984
-6.73834991 -6.72550011 7.47004986
-6.75400019 -6.44239998 7.3439002
-6.77199984 -6.32200003 7.31930017
-6.78653336 -6.08500004 7.31380033
-6.77904987 -5.8298502 7.25454998
-6.79199982 -5.59880018 7.24380016
-6.62779999 -0.0955666676 4.14779997
-6.56680012 -8.43190002 7.88859987
-6.48594284 -0.0753000006 4.15004301
-6.30017519 -0.108737499 4.14788723
-6.11528587 -0.0787142888 4.14682865
-5.87251663 -0.122183338 4.14603329
-5.75290012 -0.117040001 4.13922024
-5.52783346 -0.0675999969 4.12566662
-5.3117857 -0.0684999973 4.12587166
-5.10629988 -0.0658166707 4.13004971
-4.89941978 -0.0538199991 4.12109995
-4.69759989 -0.065200001 4.11252499
-4.40049982 -8.54599953 5.96330023
-4.42144966 -5.94264984 5.65540028
-4.52169991 -0.0619500019 4.10257483
-4.28604984 -6.04984999 5.3276
-4.32369995 -6.08024979 5.46294975
-4.2823 -4.17840004 7.06279993
-4.28964996 -3.94615006 7.08844995
-4.23360014 -3.75169992 7.07303333
-4.21880007 -3.49090004 6.99319983
-4.21310043 -3.53600001 7.05729961
-4.2335 -3.24090004 6.9914999
-4.26490021 -3.36210012 7.07269955
-4.22900009 -3.07640004 7.04659986
-4.22039986 -2.87339997 6.91744995
-4.21159983 -2.69899988 6.8270998
-4.25689983 -2.51419997 6.72520018
-4.22860003 -1.82620001 6.26789999
-4.24399996 -0.165800005 2.23939991
-4.21010017 -0.146300003 2.59800005
-4.29086018 -0.0658800006 4.06744003
-4.03149986 -8.50339985 5.34149981
-4.16660023 -6.33549976 5.26000023
-4.08519983 -6.17689991 4.89300013
-4.1501503 -6.11420012 5.30569983
-4.12790012 -5.93190002 5.39589977
-4.10004997 -5.91849995 5.52229977
-4.12440014 -4.31850004 7.12400007
-4.08781242 -4.07061243 7.11143732
-4.07146025 -3.88319993 7.10862017
-4.10284996 -3.6640749 7.08664989
-4.08414984 -3.4777 7.06820011
-4.09433985 -3.27218008 7.05189991
-4.18949986 -3.05570006 6.99889994
-4.07738352 -3.07658339 7.05220032
-4.10400009 -2.9081285 6.95744276
-4.13192511 -2.67184997 6.83240032
-4.10085011 -2.47166252 6.70003748
-4.11174011 -2.27031994 6.56392002
-4.0397501 -2.30065012 6.6701498
-4.12624979 -2.09115005 6.47087479
-4.09897995 -1.89382005 6.36437988
-4.07474995 -1.94834995 6.40950012
-4.07324982 -0.193899989 2.14835
-4.11703348 -0.180099994 2.27663326
-4.11723328 -0.164966673 2.46816659
-4.05093336 -0.171666667 2.68796659
-4.11555004 -0.144549996 2.91429996
-4.10634995 -0.141900003 3.11070013
-4.06886673 -0.149399996 3.30113339
-4.00680017 -0.168599993 3.40429997
-4.03174973 -0.109999999 3.76520014
-4.13253307 -0.0277166665 4.09590006
-4.15450001 -0.0359999985 5.97910023
-4.08244991 -0.0168500002 6.08855009
-3.93729997 -8.56760025 5.19570017
-3.88969994 -8.49055004 5.31750011
-3.8131001 -8.34519958 5.53649998
-3.8888998 -7.82380009 5.32635021
-3.90490007 -7.76053333 5.38063335
-3.93260002 -7.07560015 5.12130022
-3.8355999 -6.92880011 5.04260015
-3.89400005 -6.4066 4.70779991
-3.96469998 -6.43769979 5.23890018
-3.88019991 -6.02489996 5.30679989
-3.87704992 -5.93280029 5.33625031
-3.90775013 -4.25979996 7.11595011
-3.89802003 -4.07053995 7.10391998
-3.91042495 -3.92394996 7.10599995
-3.88942003 -3.72099996 7.09984016
-3.91634989 -3.49633336 7.08138323
-3.91303754 -3.28466249 7.06830025
-3.9247334 -3.09893322 7.03833342
-3.91809988 -2.94490004 6.97430038
-3.94880009 -2.86319995 7.0223999
-3.9058001 -2.72294283 6.85971403
-3.94027495 -2.53247499 6.72727489
-3.90856671 -2.25593328 6.55906677
-3.90574288 -2.13782859 6.50861406
-3.86817503 -1.88520002 6.34719992
-3.85739994 -1.95099998 6.40229988
-3.84610009 -1.62779999 6.29659986
-3.82775021 -0.230800003 3.63639998
-3.88669991 -0.173966676 2.49989986
-3.85560012 -0.192599997 2.61890006
-3.86929989 -0.156000003 2.88389993
-3.97359991 -0.164299995 3.15799999
-3.86739993 -0.134900004 3.22790003
-3.85524988 -0.136700004 3.48239994
-3.86150002 -0.151099995 3.62709999
-3.9187429 -0.0544428565 4.08234262
-3.86395001 -0.0172000006 6.0958004
-3.70549989 -9.44309998 5.47959995
-3.79220009 -8.46674919 5.28254986
-3.63579988 -8.02874947 5.87244987
-3.71716666 -7.8791666 5.44089985
-3.69525003 -6.87485027 5.02229977
-3.6473999 -6.91004992 5.42609978
-3.79080009 -6.46640015 5.25969982
-3.7404201 -6.05876017 5.29047966
-3.76410007 -5.94700003 5.42490005
-3.62109995 -5.41109991 6.53439999
-3.6170001 -5.15819979 6.65049982
-3.69044995 -4.26202488 7.11662483
-3.62479997 -4.25759983 7.23019981
-3.61960006 -4.27659988 7.46280003
-3.62220001 -4.25829983 7.71689987
-3.60660005 -4.30240011 7.9612999
-3.60019994 -4.21449995 8.32429981
-3.71933341 -4.05999994 7.10213327
-3.64096665 -4.08909988 7.27180004
-3.60439992 -4.10050011 7.49749994
-3.61625004 -4.10659981 7.72195005
-3.63844991 -4.0395999 7.95374966
-3.61120009 -4.02759981 8.23309994
-3.69483328 -3.97259998 7.1208663
-3.64221668 -3.88618326 7.26716661
-3.60996675 -3.89946675 7.49100018
-3.60783339 -3.98263335 7.6364665
-3.60769987 -3.87949991 7.88374996
-3.66529989 -3.86450005 8.05900002
-3.61599994 -3.90700006 8.33430004
-3.60179996 -3.96589994 8.40200043
-3.66972494 -3.6884625 7.09632492
-3.6026001 -3.61549997 7.23005009
-3.61159992 -3.65884995 7.5220499
-3.62949991 -3.71584988 7.78795004
-3.6020999 -3.61899996 8.11769962
-3.67015004 -3.49604988 7.09105015
-3.60389996 -3.46700001 7.31330013
-3.61560011 -3.51443338 7.52729988
-3.66409993 -3.45300007 7.69610023
-3.64219999 -3.5782001 7.90850019
-3.6968751 -3.26122499 7.1165247
-3.61205006 -3.29844999 7.39365005
-3.63150001 -3.35619998 7.55639982
-3.62090015 -3.24315 8.06215
-3.65491247 -3.07809997 7.05420017
-3.61999989 -3.17639995 7.36969995
-3.6329999 -3.06360006 7.55999994
-3.60590005 -3.12290001 7.6408
-3.60349989 -3.11179996 8.04109955
-3.69312501 -2.90892506 6.94245005
-3.68235016 -2.93840003 7.02095032
-3.6243 -2.93950009 7.48479986
-3.67439985 -2.60969996 6.76239967
-3.69061422 -2.73992848 6.8790288
-3.62330008 -2.66050005 7.16879988
-3.60179996 -2.7902 7.26060009
-3.69985008 -2.48909998 6.72844982
-3.67490005 -2.49429989 6.81659985
-3.62610006 -2.43370008 7.17490005
-3.68906665 -2.24479985 6.56829977
-3.69016004 -2.36890006 6.67452002
-3.67166662 -2.09813333 6.5208168
-3.64450002 -2.10162497 6.62632513
-3.60770011 -2.00419998 7.83300018
-3.7100749 -1.86522496 6.33710003
-3.63386655 -1.94309998 6.44490004
-3.65280008 -1.66680002 2.02548337
-3.63950014 -1.63804996 2.31095004
-3.64562511 -1.61444998 2.48290014
-3.63574982 -1.63470006 2.71990013
-3.63453341 -1.64593339 2.90930009
-3.61486673 -1.64433336 3.33123326
-3.62012506 -1.62899995 3.50874996
-3.61323333 -1.64603329 3.76239991
-3.62345004 -1.64775002 4.11884975
-3.60634995 -1.63489997 4.23750019
-3.69120002 -1.73798335 6.26781654
-3.6480999 -1.58729994 2.36689997
-3.64400005 -1.54533327 2.46263337
-3.63884997 -1.5625 2.67465019
-3.64055014 -1.56769991 2.89954996
-3.64520001 -1.55949998 3.00869989
-3.61989999 -1.49758005 3.33337998
-3.61438012 -1.53656006 3.49589992
-3.61572003 -1.51556003 3.72817993
-3.61612511 -1.48292494 3.92715001
-3.60866666 -1.48685002 4.10388327
-3.61086679 -1.50923336 4.29393339
-3.60459995 -1.55729997 4.44469976
-3.60240006 -1.53199995 4.72119999
-3.69079995 -1.57519996 6.18909979
-3.64154005 -1.24520004 1.96485996
-3.64459991 -1.32069993 2.06780005
-3.63686657 -1.2695334 2.34041667
-3.64376664 -1.25699997 2.47140002
-3.62230015 -1.26417506 2.66612482
-3.6305778 -1.27791107 2.93415546
-3.61010003 -1.27894998 3.12809992
-3.60820007 -1.24150002 3.3671
-3.6127665 -1.2504667 3.48849988
-3.61010003 -1.28376675 3.64016676
-3.60640001 -1.33220005 3.83139992
-3.60450006 -1.22119999 4.01410007
-3.6085 -1.23580003 4.3604002
-3.60700011 -1.28550005 4.55660009
-3.60310006 -1.28799999 4.63999987
-3.62546682 -1.11273336 2.67251658
-3.62750006 -1.18270004 2.8217001
-3.61815 -1.14684999 3.35680008
-3.61199999 -1.12454998 3.46877503
-3.60704994 -1.10510004 3.70965004
-3.60050011 -1.14040005 3.97779989
-3.61399984 -1.1482501 4.08319998
-3.60360003 -1.12039995 4.55959988
-3.62759995 -0.881433308 1.95589995
-3.63680005 -0.888999999 2.33189988
-3.6177001 -0.860300004 2.76559997
-3.61319995 -0.907400012 3.33389997
-3.60630012 -0.897899985 3.6480999
-3.60899997 -0.901966691 3.93190002
-3.63332844 -0.741671443 1.93987143
-3.62543344 -0.742333353 2.30393338
-3.625175 -0.763900042 2.52717495
-3.61344004 -0.742760003 2.65648007
-3.61317134 -0.742771447 2.89488578
-3.62129998 -0.778999984 3.06430006
-3.6164 -0.634899974 3.35150003
-3.60907507 -0.728675008 3.47792506
-3.60520005 -0.712800026 3.66529989
-3.61089993 -0.769800007 3.83349991
-3.62876678 -0.441033334 1.92236662
-3.62549996 -0.498250008 2.0331502
-3.61940002 -0.43900001 2.45059991
-3.60755014 -0.408050001 2.65024996
-3.60759997 -0.410400003 3.04970002
-3.6099999 -0.555800021 3.51040006
-3.60450006 -0.480599999 4.03569984
-3.64731669 -0.324683338 1.92320001
-3.63240004 -0.336800009 2.29080009
-3.61899996 -0.297650009 2.54139996
-3.61369991 -0.36105001 2.67579985
-3.64621997 -0.296640009 2.90012002
-3.65370011 -0.238700002 3.1953001
-3.60575008 -0.280000001 3.38189983
-3.69440007 -0.287600011 3.55096674
-3.72956657 -0.226333335 3.73180008
-3.63039994 -0.25150001 3.90350008
-3.66199994 -0.214200005 4.02330017
-3.75489998 -0.192200005 2.24920011
-3.70900011 -0.183899999 2.57780004
-3.76415014 -0.169050008 2.94080019
-3.68379998 -0.148599997 3.5480001
-3.6564002 -0.116549999 3.68044996
-3.69330001 -0.179700002 3.86185002
-3.67164993 -0.113425002 4.03250027
-3.63930011 -0.106299996 5.91989994
-3.65549994 -0.0443999991 6.03669977
-3.55240011 -10.4545002 5.29899979
-3.45905018 -10.3297501 5.27054977
-3.45900011 -10.2432003 5.40030003
-3.41840005 -8.75520039 6.11030006
-3.45585012 -8.40920067 5.85914993
-3.51209998 -8.2198 5.88089991
-3.52893329 -8.09013367 5.85293341
-3.45239997 -7.01730013 6.42700005
-3.51345015 -6.90985012 4.93939972
-3.47385001 -6.8354001 5.04710007
-3.43799996 -6.88560009 5.34369993
-3.58459997 -6.76450014 5.01289988
-3.47280002 -6.23570013 5.20440006
-3.4846499 -5.93999958 5.33330011
-3.41100001 -5.71740007 5.23659992
-3.50944996 -5.65155029 6.44680023
-3.42199993 -5.41750002 5.29449987
-3.4848001 -5.46556664 6.36730003
-3.51539993 -5.4144001 6.45900011
-3.40389991 -5.3927002 6.37760019
-3.47732496 -5.28467512 6.47112513
-3.46480012 -5.1006999 6.45043993
-3.48979998 -4.96619987 6.51170015
-3.50813341 -4.88710022 6.6244669
-3.57340002 -4.20109987 7.45429993
-3.57620001 -4.2343502 7.8680501
-3.5941 -4.25549984 8.25730038
-3.58590007 -4.24919987 8.5376997
-3.59780002 -4.17880011 7.13710022
-3.58649993 -4.19103336 7.27706671
-3.59310007 -4.11810017 7.51786661
-3.5896666 -4.13363361 7.71799994
-3.577775 -4.11642504 7.9465251
-3.57315993 -4.09195995 8.09523964
-3.57489991 -4.10211992 8.31614017
-3.56268001 -4.04979992 8.51780033
-3.58535004 -3.8513999 7.17589998
-3.59326673 -3.87610006 7.29456663
-3.58369994 -3.89559984 7.53505039
-3.57826662 -3.92066669 7.72366667
-3.58704996 -3.89244986 7.95874977
-3.56999993 -3.88450003 8.05236626
-3.59323335 -3.90310001 8.32366657
-3.56336665 -3.87636662 8.48853397
-3.55007505 -3.84684992 8.63652515
-3.58235002 -3.70760012 7.11339998
-3.58032513 -3.69129992 7.76230001
-3.55455017 -3.68319988 7.89034986
-3.5940001 -3.7177999 8.00049973
-3.57161665 -3.71926665 8.28896713
-3.55183339 -3.71866655 8.51361656
-3.55539989 -3.63910007 8.67249966
-3.5934 -3.57579994 7.1092
-3.58067989 -3.44242001 7.30988026
-3.57567501 -3.52502489 7.43704987
-3.57626677 -3.54703331 7.71536636
-3.56812859 -3.51158571 7.90765715
-3.57319999 -3.48525 8.07507515
-3.55455995 -3.5034399 8.30327988
-3.54663992 -3.51959991 8.47484016
-3.55170012 -3.5126667 8.65036678
-3.58650017 -3.33217502 7.13427496
-3.58370018 -3.27589989 7.30220032
-3.56664014 -3.29437995 7.49618006
-3.57540011 -3.2565999 7.69013357
-3.57143998 -3.32735991 7.9195199
-3.56679988 -3.31602502 8.31614971
-3.55457497 -3.32205009 8.48232555
-3.58699989 -3.09693336 7.1147666
-3.58360004 -3.12619996 7.32569981
-3.5776999 -3.08819985 7.47389984
-3.57310009 -3.07229996 7.67299986
-3.57270002 -3.08710003 7.90070009
-3.54554987 -3.06150007 8.06999969
-3.55098009 -3.11184001 8.31705952
-3.55426669 -3.10833335 8.49810028
-3.5474999 -3.0085001 8.65639973
-3.56317496 -2.93077493 7.14067459
-3.56773329 -2.9131999 7.3235836
-3.54323339 -2.9144001 7.50361681
-3.56131673 -2.92593336 7.72543335
-3.54320002 -2.87701988 7.90093994
-3.55794001 -2.91664004 8.10855961
-3.55751991 -2.91233993 8.27497959
-3.53426242 -2.93201256 8.52490044
-3.57069993 -2.67203331 6.88180017
-3.55784988 -2.69982505 7.11070013
-3.55871987 -2.74273992 7.29644012
-3.55189991 -2.74975014 7.44824982
-3.57255006 -2.73374987 7.69613361
-3.54154992 -2.67464995 7.94649982
-3.5526166 -2.67680001 8.10728359
-3.54735708 -2.69515729 8.31691456
-3.52033329 -2.68943334 8.46231651
-3.59155011 -2.4914 6.75615025
-3.55565 -2.50724983 6.91310024
-3.54990005 -2.52662849 7.0997715
-3.55343342 -2.48236656 7.32189989
-3.55045009 -2.51568341 7.49695015
-3.55327153 -2.48735714 7.67780018
-3.54659986 -2.44899988 7.9321003
-3.5306499 -2.49355006 8.08444977
-3.52694988 -2.48361659 8.29331684
-3.51535988 -2.51155996 8.45919991
-3.56680012 -2.35630012 6.68809986
-3.55605006 -2.2895999 6.89612484
-3.55618334 -2.31393337 7.09383345
-3.53270006 -2.28457499 7.29794979
-3.54169989 -2.31715012 7.47720003
-3.52047491 -2.33017492 7.74837494
-3.54131436 -2.29777145 7.88161421
-3.52588344 -2.30115008 8.12823296
-3.52484989 -2.328475 8.2649498
-3.46790004 -2.38330007 8.41390038
-3.55940008 -2.18319988 6.57429981
-3.56305003 -2.07380009 6.71711683
-3.54371262 -2.09369993 6.90787506
-3.54991674 -2.08789992 7.08991671
-3.55408335 -2.11193347 7.31278324
-3.54150009 -2.09682512 7.53820038
-3.5418334 -2.0989666 7.69751692
-3.50024986 -2.15485001 7.91160011
-3.51900005 -2.11391664 8.08381653
-3.4968667 -2.09436655 8.21863365
-3.56838012 -1.87875998 6.34677982
-3.5697999 -1.97905004 6.55214977
-3.54572487 -1.90167499 6.71455002
-3.55690002 -1.88950002 6.96019983
-3.54387498 -1.89584994 7.09280014
-3.52970004 -1.91873336 7.34406662
-3.5352571 -1.89590001 7.52699995
-3.51264 -1.88084006 7.73617983
-3.52390003 -1.93400002 7.88549995
-3.50831676 -1.93898332 8.08689976
-3.47959995 -1.91159999 8.22889996
-3.59619999 -1.60745001 3.51699996
-3.59699988 -1.63610005 3.66050005
-3.59789991 -1.62750006 4.5447998
-3.58459997 -1.64094996 4.89375019
-3.58049989 -1.61020005 5.3895998
-3.55819988 -1.63374996 5.55690002
-3.55569983 -1.60505009 5.68044996
-3.59310007 -1.61339998 6.17040014
-3.55906677 -1.70784998 6.35379982
-3.54482508 -1.75312495 6.49905014
-3.55227137 -1.68222857 6.67589998
-3.54443336 -1.63843334 6.8987999
-3.53964996 -1.70710003 7.12127495
-3.52927494 -1.71360004 7.34727478
-3.53477502 -1.71467495 7.51184988
-3.50683331 -1.68336666 7.70293331
-3.48920012 -1.67156672 7.8899169
-3.53769994 -1.778 8.01640034
-3.59949994 -1.53659999 3.43889999
-3.59889984 -1.52909994 3.93039989
-3.58984995 -1.53499997 4.04440022
-3.58885002 -1.54865003 4.33574963
-3.58529997 -1.51929998 4.50810003
-3.58471417 -1.50668573 4.71540022
-3.58217502 -1.50339997 4.89414978
-3.5776 -1.51800001 5.12762499
-3.57868338 -1.48823333 5.28398323
-3.56272507 -1.48907495 5.52172518
-3.56793332 -1.45373333 5.69873333
-3.56061244 -1.48277497 5.91736221
-3.57386661 -1.45306671 6.07940006
-3.54942012 -1.51566005 6.31724024
-3.55263996 -1.53312004 6.49139977
-3.54574275 -1.4985714 6.66752863
-3.53575993 -1.52305996 6.90102005
-3.53590012 -1.48556256 7.10613728
-3.5237 -1.45729995 7.38154984
-3.50580001 -1.44079995 7.54276657
-3.50530005 -1.52683997 7.63630009
-3.47828007 -1.49471998 7.89355993
-3.44420004 -1.55999994 8.00419998
-3.59089994 -1.24070001 3.2657001
-3.59345007 -1.26040006 3.73514986
-3.58380008 -1.36220002 4.31899977
-3.58509994 -1.25876665 4.49113321
-3.57938337 -1.29515004 4.71299982
-3.58319998 -1.29582858 4.88752842
-3.56920004 -1.31307995 5.06705999
-3.57257509 -1.25255001 5.30512524
-3.56646252 -1.28617501 5.51018763
-3.55049992 -1.29684997 5.7017498
-3.57060003 -1.28189993 5.83584976
-3.56159997 -1.29386663 6.07179976
-3.54893327 -1.2903167 6.30990028
-3.53883743 -1.32956254 6.51886272
-3.53546667 -1.29809999 6.71116686
-3.51545 -1.27454996 6.92549992
-3.51766682 -1.32143331 7.10393333
-3.51099992 -1.31949997 7.30455017
-3.50014997 -1.28515005 7.4960165
-3.47819996 -1.30142498 7.69272518
-3.45219994 -1.34889996 7.85379982
-3.59910011 -1.16939998 3.4066
-3.59475994 -1.11202002 3.71568012
-3.58955002 -1.17474997 3.91540003
-3.55012488 -1.13312495 4.10512495
-3.45679998 -1.10984993 4.34920025
-3.49246001 -1.12412 4.47246027
-3.54264998 -1.08130002 4.71422482
-3.5494833 -1.15453339 4.88358307
-3.52962494 -1.12660003 5.12137508
-3.56710005 -1.08500004 5.30982876
-3.56788015 -1.11063993 5.47552013
-3.5673399 -1.0582 5.70735979
-3.55586672 -1.08039999 5.8928833
-3.54721999 -1.09174001 6.13804007
-3.54745007 -1.10028338 6.30506659
-3.5387001 -1.08711672 6.51660013
-3.53957987 -1.08122003 6.68830013
-3.51324987 -1.06389999 6.95050001
-3.52623343 -1.06850004 7.08529997
-3.53306007 -1.13002002 7.30503988
-3.49763346 -1.10055006 7.48145008
-3.51224995 -1.13809991 7.65380001
-3.58990002 -0.978200018 3.5632
-3.58699989 -0.904850006 3.7427001
-3.53239989 -0.887099981 3.97679996
-3.51469994 -0.994400024 4.0395999
-3.49029994 -0.924199998 5.12956667
-3.56220007 -0.920149982 5.37849998
-3.55221677 -0.919466674 5.51195002
-3.54476666 -0.928333342 5.72366667
-3.54358578 -0.916885734 5.8828001
-3.53270006 -0.889174998 6.15117502
-3.53247786 -0.918200016 6.31695557
-3.52055001 -0.899275005 6.52330017
-3.53136659 -0.957066655 6.67386675
-3.51880002 -0.994449973 6.85505009
-3.52755713 -0.926942825 7.08387136
-3.50634289 -0.921700001 7.31640005
-3.49433327 -0.884000003 7.49784994
-3.59240007 -0.63380003 2.69930005
-3.59222507 -0.67505002 3.33104992
-3.58739996 -0.695066631 3.48189998
-3.58564997 -0.714524984 3.7256999
-3.54582 -0.680079997 3.92637992
-3.45017147 -0.692228556 4.07620001
-3.43889999 -0.661899984 4.99399996
-3.57080007 -0.634299994 5.15959978
-3.54819989 -0.697160006 5.34599972
-3.55394006 -0.664820015 5.45578003
-3.54597998 -0.740199983 5.69589996
-3.54515004 -0.664083362 5.91629982
-3.53507996 -0.69374001 6.08179998
-3.54559994 -0.682619989 6.26340008
-3.53118753 -0.71222502 6.49401236
-3.51646662 -0.728566647 6.71470022
-3.48682499 -0.705725014 6.90359974
-3.52591991 -0.68870002 7.10324001
-3.49663997 -0.700860023 7.36999989
-3.49959993 -0.675300002 7.46517515
-3.5078001 -0.733200014 7.64580011
-3.55960011 -0.403600007 3.59719992
-3.52749991 -0.504840016 3.72075987
-3.41429996 -0.56220001 3.8355
-3.49119997 -0.457199991 4.0092001
-3.43893337 -0.535566688 5.10680008
-3.53083992 -0.540279984 5.30227995
-3.55200005 -0.560633302 5.46850014
-3.51763988 -0.547100008 5.76397991
-3.52859998 -0.499449998 5.87272501
-3.52407503 -0.504000008 6.13542509
-3.52718878 -0.526355565 6.31975555
-3.5072 -0.543099999 6.48680019
-3.52110004 -0.497979999 6.6806798
-3.51916242 -0.487275004 6.93721247
-3.52046657 -0.512466669 7.08206654
-3.50262499 -0.518100023 7.28550005
-3.49501657 -0.478683323 7.46793365
-3.46530008 -0.553499997 7.6171999
-3.58929992 -0.259900004 2.66120005
-3.59686661 -0.33616668 2.88709998
-3.59809995 -0.330900013 3.09170008
-3.58947492 -0.321274996 3.30657506
-3.58067513 -0.240850002 3.45527506
-3.58060002 -0.279799998 3.69813323
-3.52727985 -0.304800004 3.93517995
-3.54935002 -0.283100009 4.01615
-3.46904993 -0.276349992 5.1480999
-3.5562501 -0.321733326 5.32279968
-3.53868008 -0.313439995 5.48995972
-3.50584292 -0.286500007 5.71172857
-3.49253345 -0.346266657 5.95863342
-3.51329994 -0.287099987 6.09969997
-3.52064991 -0.319099993 6.32000017
-3.51054287 -0.294585705 6.5150857
-3.49996662 -0.305333346 6.67733335
-3.50497508 -0.323525012 6.88567495
-3.50573325 -0.313466668 7.10923338
-3.50155997 -0.321839988 7.2922802
-3.49106669 -0.275933325 7.48996639
-3.46160007 -0.277014285 7.67042875
-3.58130002 -0.174500003 3.62989998
-3.55439997 -0.179100007 3.97169995
-3.49032497 -0.169925004 4.04939985
-3.40490007 -0.0983999968 5.02479982
-3.5450201 -0.121619999 5.33379984
-3.55561996 -0.0926399976 5.48782015
-3.50148344 -0.125733331 5.71258354
-3.50293326 -0.144466668 5.87268877
-3.52162004 -0.101020001 6.12841988
-3.53911996 -0.080339998 6.26106024
-3.51511669 -0.0883833319 6.50456667
-3.51493335 -0.0785333365 6.70539999
-3.50336671 -0.0830333382 6.9222002
-3.49831986 -0.0819800049 7.12005997
-3.48650002 -0.02685 7.33874989
-3.49312496 -0.122500002 7.515625
-3.46801996 -0.0498199984 7.72228003
-3.45689988 -0.0658999979 7.80800009
-3.3362 -10.2365999 5.35769987
-3.30999994 -10.1941004 5.34030008
-3.23769999 -10.0135002 5.63490009
-3.31229997 -9.92380047 5.45200014
-3.36220002 -9.18260002 5.61299992
-3.32934999 -8.64615059 6.06270027
-3.34369993 -8.46469975 5.77880001
-3.31865001 -8.43104935 5.84879971
-3.3275001 -8.59790039 6.13870001
-3.3993001 -8.37889957 5.99550009
-3.28539991 -8.04196739 5.88293314
-3.30734992 -7.88609982 5.8352499
-3.38499999 -7.41309977 5.50479984
-3.38549995 -7.23850012 5.18289995
-3.22810006 -7.34805012 5.48760033
-3.32010007 -7.0152998 5.43889999
-3.38610005 -6.9454999 4.95270014
-3.26866674 -6.9234333 5.08016634
-3.34030008 -6.90549994 5.30079985
-3.25 -6.87160015 6.39449978
-3.33855009 -6.31599998 5.23040009
-3.27940011 -5.81360006 5.18230009
-3.39359999 -5.92549992 6.15059996
-3.21429992 -5.91359997 6.20459986
-3.25650001 -5.76090002 5.2052002
-3.31933331 -5.52799988 6.41513348
-3.30990005 -5.33069992 5.36959982
-3.3434 -5.35249996 5.51039982
-3.32290006 -5.29020023 6.36049986
-3.39129996 -5.22160006 6.40869999
-3.26055002 -5.09474993 6.37760019
-3.32640004 -5.05369997 6.46097994
-3.2572 -4.9987998 6.45219994
-3.39549994 -1.05400002 4.36679983
-3.3894999 -1.03659999 4.59369993
-3.37839985 -1.05519998 4.62674999
-3.28439999 -1.00590003 4.85080004
-3.29277492 -0.911525011 4.25255013
-3.28795004 -0.935216665 4.52566671
-3.30554271 -0.946814299 4.67198563
-3.27999997 -0.878366649 4.8190999
-3.38450003 -0.606100023 3.75020003
-3.36249995 -0.645099998 4.10340023
-3.29614282 -0.700957119 4.29925728
-3.28818321 -0.67353332 4.49009991
-3.28285718 -0.680985689 4.70071411
-3.28843331 -0.69296664 4.82243347
-3.39890003 -0.654100001 5.02920008
-3.35529995 -0.594399989 3.77099991
-3.28369999 -0.494450003 4.29517508
-3.28057504 -0.543150008 4.48690033
-3.27544999 -0.495983332 4.69993353
-3.33813334 -0.505699992 4.87093353
-3.37789989 -0.421900004 5.01809978
-3.32936668 -0.319433331 4.13336658
-3.30337501 -0.294100016 4.25702477
-3.27843332 -0.266600013 4.57726669
-3.26539993 -0.3046 4.72776651
-3.35700011 -0.354499996 4.91020012
-3.38735008 -0.317299992 5.75180006
-3.35610008 -0.370499998 5.8354001
-3.28875709 -0.0876285732 4.12372875
-3.26701427 -0.136600003 4.29092884
-3.27203321 -0.102299996 4.45073318
-3.26165009 -0.0850166678 4.72699976
-3.37269998 -0.154499993 4.97179985
-3.38739991 -0.187800005 5.80270004
-3.1882 -10.1129999 5.40199995
-3.16840005 -9.38425064 5.64745045
-3.16359997 -9.09230042 5.60860014
-3.17569995 -8.42520046 5.74380016
-3.14949989 -8.50290012 6.04659986
-3.08430004 -8.38440037 5.68340015
-3.06360006 -7.9598999 5.65199995
-3.11910009 -7.98960018 5.86670017
-3.00209999 -7.41219997 3.90300012
-3.07279992 -7.53760004 5.71070004
-3.03329992 -7.30039978 3.97589993
-3.03310013 -7.23864985 5.53155041
-3.11570001 -7.02680016 5.34140015
-3.0941 -7.19850016 5.46640015
-3.06839991 -6.96675014 5.33809996
-3.10109997 -6.91340017 5.41139984
-3.19499993 -6.67059994 5.33330011
-3.16739988 -5.92159986 5.16890001
-3.15450001 -5.91060019 6.16230011
-3.15540004 -5.66724968 5.22354984
-3.16149998 -5.50223351 5.33529997
-3.05629992 -5.20940018 6.20340014
-3.06229997 -5.19339991 6.19119978
-3.15280008 -5.1624999 6.2651
-3.04040003 -0.252600014 4.79809999
-2.84019995 -8.94419956 5.67710018
-2.95846677 -8.33866692 5.66846657
-2.82990003 -7.43380022 3.77920008
-2.91875005 -7.30385017 3.90082502
-2.93289995 -7.24845028 4.01280022
-2.91820002 -7.34800005 5.34660006
-2.96440005 -7.27370024 5.55249977
-2.9763 -7.09320021 5.2974
-2.84980011 -6.94799995 5.40770006
-2.80380011 -6.62799978 5.18879986
-2.80360007 -6.48080015 3.75679994
-2.84229994 -6.41989994 3.8355999
-2.8275001 -6.37300014 3.90330005
-2.8203001 -6.35179996 5.15150023
-2.8217001 -6.11280012 5.09829998
-2.98889995 -5.05140018 6.1395998
-2.82189989 -4.55140018 5.69960022
-2.81349993 -4.43349981 5.9066
-2.81299996 -4.41919994 6.20849991
-2.63310003 -10.4656 5.37629986
-2.64249992 -9.8718996 4.47849989
-2.71399999 -9.80160046 5.39139986
-2.6480999 -9.75939941 4.49625015
-2.70939994 -9.73600006 4.73204994
-2.75926661 -9.73713303 4.88553333
-2.63569999 -9.79450035 5.2519002
-2.62594986 -8.10944939 6.68604994
-2.70324993 -7.46420002 3.85925007
-2.72666669 -7.27383327 3.9096334
-2.62700009 -7.07110023 3.9454
-2.71420002 -7.0644002 5.03669977
-2.66610003 -7.05149984 6.37909985
-2.62115002 -6.61524963 3.73594999
-2.66949987 -6.69009972 3.84934998
-2.66680002 -6.64209986 5.14820004
-2.68725014 -6.53737497 3.76952505
-2.71567988 -6.49565983 3.84814
-2.69059992 -6.4932332 5.1510334
-2.77719998 -6.35440016 3.9145
-2.69215012 -6.24424982 5.16825008
-2.6408 -6.18400002 5.15430021
-2.64409995 -6.14239979 5.22900009
-2.61094999 -4.64909983 5.69715023
-2.75510001 -4.77790022 5.88170004
-2.67375565 -4.48817778 5.92250013
-2.70410013 -4.43610001 6.13434982
-2.70532513 -4.43532467 6.26392508
-2.6638 -4.36409998 6.30060005
-2.44056678 -10.9015999 5.67320013
-2.48422503 -10.6927748 5.07127476
-2.40319991 -10.6391001 5.35519981
-2.57955003 -10.0845499 5.27425003
-2.5072999 -10.0445995 5.47489977
-2.5306499 -9.86894989 4.70550013
-2.48799992 -9.84684944 4.87020016
-2.50530005 -9.89350033 5.11219978
-2.5227499 -9.30154991 5.52190018
-2.50046659 -8.09786606 6.66435003
-2.57375002 -7.23379993 3.87750006
-2.53859997 -6.98080015 6.33850002
-2.57485008 -6.56470013 5.23120022
-2.55194998 -6.29640007 5.1175499
-2.40470004 -6.01399994 4.99319983
-2.42429996 -5.87400007 4.9987998
-2.42370009 -5.8604002 5.01179981
-2.50749993 -4.86990023 5.50950003
-2.44199991 -4.90515041 5.64540005
-2.59660006 -4.65199995 5.58449984
-2.55920005 -4.70370007 5.64143324
-2.47309995 -4.65180016 5.98099995
-2.51697493 -4.55837488 5.88590002
-2.53484988 -4.5086751 6.08487511
-2.4066 -4.23000002 6.08209991
-2.38730001 -10.9898005 5.69910002
-2.22280002 -10.7306499 5.08150005
-2.20600009 -10.5941 5.15329981
-2.21199989 -10.3007002 5.40360022
-2.26629996 -10.1557999 5.53950024
-2.30380011 -9.31089973 5.5868001
-2.2974 -8.80729961 6.27449989
-2.31255007 -8.22630024 6.56034994
-2.3599999 -8.08689976 6.79920006
-2.31786656 -7.93790007 6.76876688
-2.24504995 -7.68270016 6.2816
-2.21386671 -7.03789997 2.2791667
-2.21519995 -6.98169994 2.17820001
-2.30824995 -5.84759998 4.94554996
-2.27579999 -5.69996691 4.93523312
-2.33124995 -5.66890001 5.02314997
-2.35100007 -5.59450006 5.01030016
-2.23775005 -5.0625 3.30620003
-2.30760002 -5.02699995 5.74410009
-2.24880004 -4.98799992 3.4282999
-2.31769991 -4.92649984 4.9467001
-2.25539994 -4.89099979 5.11269999
-2.22239995 -4.85340023 5.22399998
-2.39919996 -4.82490015 5.86199999
-2.32660007 -4.77670002 5.16419983
-2.37619996 -4.69439983 5.88850021
-2.3671 -4.63430023 6.05070019
-2.21289992 -4.41750002 5.97130013
-2.23830009 -4.41820002 6.04139996
-2.32859993 -4.35036659 6.09870005
-2.21659994 -4.07590008 6.13269997
-2.03859997 -11.1108999 5.69430017
-2.00500011 -10.8563004 5.15829992
-2.03999996 -10.8083 5.61070013
-2.08115005 -10.7159996 5.16090012
-2.11549997 -10.6259003 5.22170019
-2.06054997 -10.7457504 5.73985004
-2.1171 -10.5036001 5.29360008
-2.19910002 -10.5706997 5.49770021
-2.00349998 -10.5799999 5.65220022
-2.15939999 -10.2973003 5.36089993
-2.07680011 -10.2277002 5.66429996
-2.14319992 -10.0699997 5.53146648
-2.06080008 -10.1866999 5.67740011
-2.0229001 -10.0516996 5.82060003
-2.07410002 -9.93239975 5.70660019
-2.04340005 -9.52359962 5.77250004
-2.00099993 -8.7184 4.79339981
-2.04530001 -8.72959995 6.2968998
-2.02340007 -8.67339993 6.56570005
-2.16392493 -8.52009964 6.32754993
-2.11905003 -8.12179947 6.6321497
-2.10560012 -7.81559992 6.67539978
-2.12010002 -7.66540003 6.19589996
-2.08459997 -7.65420008 6.28884983
-2.06459999 -7.54265022 5.92714977
-2.09859991 -7.59700012 6.33220005
-2.04530001 -7.16940022 2.07559991
-2.02600002 -7.02580023 2.20040011
-2.09157133 -6.97261429 1.31994283
-2.13667512 -6.93809986 1.49852502
-2.1108799 -6.93586016 1.73329997
-2.08671999 -6.94636011 1.91014004
-2.10043335 -6.92920017 2.1360333
-2.0711751 -6.91397524 2.27442503
-2.07606006 -6.90403986 2.47796011
-2.05421662 -6.8817668 2.66989994
-2.01009989 -6.81659985 2.81220007
-2.10765004 -6.74499989 2.69619989
-2.07795 -6.78104973 2.8510499
-2.07819986 -6.45874977 2.78110003
-2.06597495 -6.26472521 2.7125001
-2.0745666 -6.14853334 2.68770003
-2.08459997 -6.0645504 2.80955005
-2.0706501 -5.97525024 2.72335005
-2.04209995 -5.84259987 5.12750006
-2.02189994 -5.69570017 2.8512001
-2.1724999 -5.75479984 4.9131999
-2.10465002 -5.69005013 5.04160023
-2.06360006 -5.29460001 6.40110016
-2.04080009 -5.09487486 3.15002489
-2.13617134 -5.04780006 3.26847148
-2.14559984 -5.0083499 3.4458499
-2.05500007 -4.97609997 3.24530005
-2.00749993 -4.95469999 4.95919991
-2.13459992 -4.98089981 5.00349998
-2.06676674 -4.85870028 6.12436676
-2.04110003 -4.82975006 6.22415018
-2.14980006 -4.68200016 5.90080023
-2.06820011 -4.44740009 5.91809988
-2.00230002 -4.52670002 6.04129982
-2.11789989 -4.29900026 6.06820011
-2.16524982 -4.12615013 6.15799999
-2.10560012 -4.16279984 6.21070004
-1.9217 -11.0169001 5.71640015
-1.93869996 -10.9069004 5.69810009
-1.91180003 -10.8809996 5.91830015
-1.98989999 -10.7186003 5.22889996
-1.92309999 -10.4439001 5.83809996
-1.88540006 -10.0213003 5.77299976
-1.97660005 -9.76720047 5.79339981
-1.93060005 -8.80799961 6.2572999
-1.95580006 -8.78899956 6.26450014
-1.95949996 -8.72640038 6.45559978
-1.86179996 -8.41909981 5.9052
-1.89890003 -8.46249962 6.31344986
-1.84000003 -8.27719975 5.80159998
-1.90680003 -8.34360027 6.32929993
-1.9084667 -8.08916664 6.54903316
-1.95959997 -8.03579998 6.61180019
-1.90904999 -7.91774988 6.56409979
-1.91149998 -7.77930021 5.91289997
-1.93069994 -7.64160013 6.02629995
-1.85549998 -7.6493001 6.58623314
-1.89125001 -7.62365007 6.61499977
-1.89063334 -7.54053307 5.92553329
-1.80110002 -7.4064002 6.61929989
-1.9892 -7.06689978 2.15879989
-1.87164998 -7.03980017 5.36975002
-1.84259999 -7.05459976 5.40399981
-1.88209999 -6.84000015 1.51119995
-1.99619997 -6.92749977 2.27999997
-1.97909999 -6.92990017 2.53489995
-1.96860003 -6.88509989 2.83030009
-1.88703334 -6.07159996 2.84069991
-1.95930004 -6.05620003 5.14459991
-1.81099999 -6.02540016 5.23909998
-1.80840003 -5.98320007 2.79629993
-1.86590004 -5.91755009 2.98280001
-1.94149995 -5.97469997 5.14720011
-1.97235 -5.8906002 5.22359991
-1.91435003 -5.74464989 2.91340017
-1.90499997 -5.66699982 3.07509995
-1.9526 -5.78599977 5.2968998
-1.8836 -5.53184986 2.99394989
-1.90851247 -5.49292517 3.09361243
-1.91190004 -5.23379993 3.12400007
-1.8664 -5.20629978 3.2342
-1.8283 -5.25649977 4.94570017
-1.90092003 -5.13384008 3.16743994
-1.89342499 -5.12829971 3.24532509
-1.921 -5.04300022 6.07690001
-1.82210004 -4.83370018 4.96729994
-1.97309995 -4.91830015 5.87669992
-1.97119999 -4.93419981 6.08269978
-1.88730001 -4.41590023 5.91699982
-1.98759997 -4.46159983 6.1085
-1.8556 -4.43350029 6.24005032
-1.91639996 -4.32329988 6.73190022
-1.90415001 -4.32555008 6.90480042
-1.89129996 -4.1953001 6.53480005
-1.63405001 -10.9407997 5.29050016
-1.69210005 -10.8116999 5.41940022
-1.7773 -10.9860001 5.89179993
-1.61370003 -10.6278 5.45660019
-1.74259996 -10.7923002 5.95959997
-1.71644998 -10.5251999 5.91324997
-1.66989994 -10.2395 5.7796998
-1.7342 -9.8998003 5.89960003
-1.74899995 -8.65320015 6.4211998
-1.6056 -8.58990002 6.32730007
-1.68433332 -8.33646679 6.34076691
-1.67820001 -8.17930031 5.92259979
-1.61240005 -8.00209999 6.44920015
-1.67550004 -8.00220013 6.62039995
-1.71879995 -7.82740021 6.29680014
-1.69889998 -7.96926689 6.50886631
-1.72409999 -7.67519999 5.7947998
-1.68000007 -7.6718998 6.57789993
-1.68700004 -7.46020031 5.18650007
-1.6645 -7.54080009 5.96360016
-1.66100001 -7.59660006 6.03289986
-1.75750005 -7.50080013 6.52370024
-1.73310006 -7.44010019 6.60550022
-1.73119998 -7.32329988 6.57240009
-1.6400001 -7.12440014 5.51184988
-1.69319999 -7.04150009 5.61289978
-1.77384996 -6.93245029 6.13685036
-1.74319994 -6.72455025 1.54155004
-1.66015005 -6.65555 1.83790004
-1.60140002 -6.56710005 0.999300003
-1.60000002 -6.55060005 1.15460002
-1.6056 -6.58580017 1.88039994
-1.62310004 -6.33850002 1.96280003
-1.73555005 -6.12082481 2.05177498
-1.67303336 -6.0583334 2.71453333
-1.65649998 -6.02400017 2.80609989
-1.72189999 -6.10330009 5.25290012
-1.70056665 -5.99256659 2.12623334
-1.69605708 -5.95971441 2.90912867
-1.71246004 -5.94221973 3.07213998
-1.71650004 -5.88635015 5.17679977
-1.75610006 -5.82310009 5.24130011
-1.72043335 -5.66296673 3.05349994
-1.71213329 -5.76186657 5.15716696
-1.79550004 -5.7665 5.26789999
-1.68700004 -5.52365017 2.98270011
-1.71089995 -5.47137499 3.05030012
-1.72819996 -5.24730015 3.15074992
-1.71259999 -5.30299997 4.97704983
-1.74020004 -5.36059999 5.00110006
-1.73946667 -5.0770998 3.17613339
-1.75929999 -5.12305021 3.2437501
-1.72103333 -5.04413319 4.9024334
-1.62450004 -5.00489998 5.65579987
-1.75035 -5.05949974 6.35890007
-1.77320004 -4.84959984 6.12304974
-1.62779999 -4.95809984 6.21320009
-1.74399996 -4.62133312 6.09863329
-1.6983 -4.5314002 5.61549997
-1.60909998 -4.57390022 6.15360022
-1.78559995 -4.53149986 6.54360008
-1.73300004 -4.45234966 6.71390009
-1.69439995 -4.49910021 6.98999977
-1.61969995 -4.31069994 3.1724
-1.72449994 -4.38880014 6.4907999
-1.72609997 -4.39919996 6.7887001
-1.67379999 -4.16730022 4.79174995
-1.65674996 -4.0159502 4.86019993
-1.45550001 -11.2077999 5.15829992
-1.51676667 -11.1002998 5.25489998
-1.43429995 -10.8599997 5.28859997
-1.43159997 -10.8165998 5.5704999
-1.49049997 -10.7309999 5.34904957
-1.44569993 -10.6517 5.51233339
-1.51615 -10.4970999 5.51475
-1.41170001 -9.96430016 5.94080019
-1.45813334 -9.50816631 4.8949666
-1.42309999 -8.91129971 6.25559998
-1.57299995 -8.46249962 6.1717
-1.59469998 -8.40750027 6.24940014
-1.49349999 -8.32933331 6.31309986
-1.42146671 -8.06656647 6.43033361
-1.57140005 -7.81419992 5.70149994
-1.56840003 -7.9907999 6.45130014
-1.44019997 -7.7262001 5.54659986
-1.48800004 -7.61959982 5.69110012
-1.42510009 -7.6654501 5.90509987
-1.51929998 -7.49800014 5.29869986
-1.54879999 -7.5223999 5.61749983
-1.53219998 -7.57460022 5.85769987
-1.59389997 -7.2322998 4.84609985
-1.51329994 -7.2177 5.63649988
-1.49849999 -6.86950016 1.89549994
-1.5826 -6.60090017 1.51479995
-1.47370005 -6.66970015 1.76743329
-1.52921999 -6.68196011 1.85510004
-1.47249997 -6.57742023 0.942879975
-1.46616673 -6.54209995 1.07816672
-1.483675 -6.5458498 1.33392501
-1.55844998 -6.54107523 1.51020002
-1.52939999 -6.5357399 1.67786002
-1.477 -6.48855019 1.88127494
-1.51317143 -6.3091712 1.95121431
-1.59019995 -6.23120022 2.01079988
-1.51052499 -6.09439993 2.05175018
-1.52287507 -6.02680016 2.73169994
-1.58275008 -6.01429987 2.81804991
-1.48668337 -5.9763999 2.94008327
-1.4786334 -5.93973351 3.09150004
-1.55799997 -5.94589996 3.21490002
-1.53659999 -5.87939978 5.2493
-1.44496667 -5.69239998 3.07006669
-1.57450008 -5.7269001 5.11989975
-1.4698 -5.71860027 5.25854969
-1.51213992 -5.48939991 3.04148006
-1.51289999 -5.56645012 5.13089991
-1.5244 -5.29559994 3.13934994
-1.58840001 -5.29309988 4.94659996
-1.43270004 -5.35500002 6.35669994
-1.49399996 -5.05677509 3.11654997
-1.50569999 -5.07569981 6.32399988
-1.45895004 -4.92770004 3.12800002
-1.52260005 -4.81360006 4.67110014
-1.51059997 -4.83449984 6.12510014
-1.47298002 -4.95052004 6.32921982
-1.46290004 -4.70043325 3.14590001
-1.51376665 -4.70429993 4.72749996
-1.49086666 -4.73000002 6.0987668
-1.4379667 -4.49683332 3.11533332
-1.49419999 -4.56073332 6.72826672
-1.49067497 -4.32245016 3.16843748
-1.48582506 -4.23764992 3.25640011
-1.58729994 -4.26749992 4.70959997
-1.44974995 -4.26554966 5.76854992
-1.44459999 -4.38660002 5.90549994
-1.59010005 -4.28480005 6.19000006
-1.58039999 -4.3354001 6.23890018
-1.53699994 -4.14115 3.36330009
-1.44834995 -4.14318323 3.47028327
-1.53240001 -4.16989994 4.74980021
-1.47727501 -4.03849983 4.89664984
-1.45223331 -4.08863306 5.90120029
-1.41910005 -4.05499983 6.07649994
-1.49269998 -4.06309986 6.21280003
-1.5539 -3.9914999 4.89400005
-1.5402 -3.97810006 5.0948
-1.4533 -3.95826674 6.09056664
-1.35169995 -11.1612997 5.48220015
-1.28707993 -10.9140196 5.52651978
-1.28246665 -10.7063665 5.56509972
-1.30760002 -10.4977999 5.74170017
-1.32159996 -10.1192999 5.48929977
-1.33140004 -10.1478004 5.89890003
-1.39429998 -9.48089981 4.87340021
-1.24460006 -9.12090015 5.06260014
-1.20959997 -8.82269955 6.07110023
-1.24549997 -8.83899975 6.20240021
-1.39559996 -8.78569984 6.38700008
-1.32290006 -8.59519958 5.13759995
-1.33070004 -8.50520039 6.24039984
-1.33239996 -8.33279991 6.16870022
-1.3154 -8.27845001 6.24635029
-1.37960005 -8.01799965 6.16190004
-1.25396669 -7.61026669 5.91943359
-1.25750005 -7.55340004 5.42729998
-1.28423333 -7.56016684 5.90959978
-1.31819999 -6.85470009 1.89059997
-1.28410006 -6.9689002 5.21689987
-1.324 -6.6026001 0.782299995
-1.30859995 -6.60220003 0.8926
-1.25750005 -6.79580021 1.79530001
-1.29232502 -6.68945026 1.84557498
-1.3021667 -6.59600019 0.867866635
-1.29449999 -6.58220005 1.14110005
-1.34686005 -6.56369972 1.26259995
-1.34399998 -6.55049992 1.49179995
-1.35610008 -6.5092001 1.68760002
-1.31013334 -6.53756666 1.83423328
-1.30119991 -6.33104992 1.97080004
-1.36070001 -6.10570002 2.05279994
-1.33169997 -6.01989985 2.87229991
-1.27690005 -5.99399996 2.08529997
-1.34743333 -5.97146654 2.91879988
-1.29601252 -5.90409994 3.07501245
-1.39579999 -5.76210022 3.10019994
-1.38300002 -5.76690006 5.29330015
-1.28429997 -5.43319988 6.28569984
-1.33759999 -5.32800007 6.46509981
-1.3786 -5.00299978 2.94120002
-1.39180005 -5.10480022 3.00119996
-1.29174995 -4.8906498 2.94180012
-1.27269995 -4.8217001 3.2019999
-1.30667996 -4.87832022 4.66847992
-1.34990001 -4.90600014 6.36059999
-1.31500006 -4.74599981 2.96569991
-1.28933001 -4.69077015 3.1054101
-1.22503328 -4.68036652 3.22743344
-1.36304998 -4.76609993 4.58794975
-1.32096004 -4.67895985 4.64438009
-1.21290004 -4.64569998 6.20889997
-1.38125002 -4.50325012 3.11600018
-1.31624997 -4.48080015 3.29145002
-1.37199998 -4.53420019 5.89410019
-1.22235 -4.41880035 6.07240009
-1.32360005 -4.46700001 6.51749992
-1.27999997 -4.4927001 6.61009979
-1.32861114 -4.29534435 3.296
-1.39490008 -4.2562499 3.49749994
-1.23699999 -4.32620001 4.45440006
-1.31255996 -4.31406021 5.88849974
-1.308725 -4.30562496 6.06034994
-1.2938 -4.36509991 6.27255011
-1.37679994 -4.12300014 3.4920001
-1.29425001 -4.16575003 4.4994998
-1.28489995 -4.08094978 4.7249999
-1.32379997 -4.03469992 4.81820011
-1.34503341 -4.16366673 5.92206669
-1.36063337 -4.08763313 6.09393311
-1.26849997 -3.9835999 4.70870018
-1.14120007 -11.14505 5.5461998
-1.04980004 -11.0113001 5.64109993
-1.03480005 -10.8813 5.66200018
-1.15349996 -10.7580996 5.54939985
-1.08649993 -10.7313004 5.60874987
-1.09010005 -10.2117996 5.579
-1.10249996 -10.1350002 5.60820007
-1.12419999 -8.99100018 5.2104001
-1.14779997 -8.77250004 6.01980019
-1.15240002 -8.05510044 6.15719986
-1.13279998 -7.58549976 5.50339985
-1.15639997 -7.14289999 5.23400021
-1.08539999 -6.81139994 1.8348
-1.16770005 -6.60050011 0.789699972
-1.18690002 -6.6020999 0.816699982
-1.08883333 -6.64876652 1.72189999
-1.14649999 -6.77040005 1.83099997
-1.11940002 -6.59840012 0.708000004
-1.05320001 -6.59074974 0.961899996
-1.16935003 -6.59025002 1.0632
-1.1043334 -6.56206656 1.55649996
-1.06901252 -6.57175016 1.64087498
-1.12230003 -6.4836998 1.88594997
-1.15509999 -6.31993341 1.95829999
-1.10604 -6.06620026 2.04410005
-1.11905003 -5.86934996 3.12214994
-1.11031997 -5.75122023 3.15310001
-1.09979999 -5.54559994 3.06459999
-1.17639995 -5.52250004 6.48549986
-1.02400005 -5.25279999 6.40939999
-1.14367497 -5.02162504 2.76849985
-1.07914996 -5.11724997 2.83850002
-1.14810002 -5.08120012 3.52419996
-1.08850002 -5.1704998 6.51200008
-1.19490004 -4.89309978 2.83060002
-1.14349997 -4.94925022 3.39620018
-1.18309999 -4.9696002 3.47869992
-1.12440002 -4.83314991 4.73250008
-1.09316659 -4.8314333 6.31169987
-1.00629997 -4.87069988 6.45510006
-1.11860001 -4.73409986 2.89779997
-1.16443336 -4.65619993 3.30096674
-1.13610005 -4.65054989 4.70044994
-1.07870007 -4.72265005 6.34544992
-1.04149997 -4.4703331 2.86283326
-1.17453337 -4.56133318 3.30233335
-1.08975005 -4.44947529 4.51312494
-1.15380001 -4.49286652 6.15676641
-1.14752507 -4.4312501 6.25010014
-1.14443326 -4.29343319 4.53296661
-1.14020002 -4.30100012 6.12290001
-1.12109995 -4.36310005 6.20039988
-1.01329994 -4.01195002 6.09959984
-1.07379997 -3.99259996 6.07189989
-1.00010002 -3.76399994 6.05089998
-1.02849996 -3.5079999 6.38439989
-1.11819994 -3.41499996 6.55179977
-0.893000007 -11.2903004 5.76674986
-0.834599972 -11.2697001 5.81269979
-0.811100006 -11.1315002 5.75600004
-0.927150011 -10.9319 5.66300011
-0.921000004 -10.689333 5.67266655
-0.92019999 -10.5461998 5.52899981
-0.817900002 -10.1387997 5.96390009
-0.897549987 -9.68400002 5.72375011
-0.930599988 -6.83860016 1.81599998
-0.917699993 -6.96479988 4.7421999
-0.905799985 -6.60309982 0.566600025
-0.842999995 -6.60760021 0.79519999
-0.925250053 -6.60340023 0.962499976
-0.858250022 -6.686975 1.84130001
-0.963400006 -6.58529997 1.08204997
-0.880900025 -6.56293344 1.37366664
-0.880100012 -6.49663305 1.85743332
-0.901814282 -6.29671431 1.96560001
-0.909749985 -6.08990002 2.06474996
-0.964699984 -5.43889999 6.56419992
-0.801400006 -5.20550013 0.510500014
-0.895500004 -5.34499979 6.51170015
-0.88152498 -5.07749987 0.519599974
-0.990350008 -5.05604982 6.43319988
-0.939100027 -4.97349977 0.574000001
-0.857949972 -4.91725016 2.75675011
-0.926699996 -4.8526001 6.39830017
-0.878250003 -4.84095001 6.45504999
-0.885659993 -4.72283983 2.77421999
-0.9199 -4.67125988 2.84658003
-0.972233355 -4.71673346 6.31026649
-0.921074986 -4.50777483 2.90100002
-0.918466687 -4.4477334 3.08719993
-0.820100009 -4.4822998 3.23449993
-0.952899992 -4.46780014 4.56829977
-0.937449992 -4.50014973 4.66020012
-0.899374962 -4.09117508 6.11417484
-0.813799977 -4.16750002 6.20340014
-0.893599987 -4.08519983 7.33059978
-0.860599995 -3.91144991 3.42304993
-0.867550015 -3.87540007 5.97380018
-0.892274976 -3.87905002 6.11417484
-0.919399977 -3.9928 7.32110023
-0.850566685 -3.66886663 3.50536656
-0.802399993 -3.71620011 4.55749989
-0.908699989 -3.69560003 4.62750006
-0.92809999 -3.76740003 5.99429989
-0.9921 -3.67510009 6.34689999
-0.916700006 -3.66645002 6.43459988
-0.810199976 -3.54310012 4.76429987
-0.92719996 -3.54375005 6.13455009
-0.961499989 -3.5243001 6.32219982
-0.906000018 -3.53670001 6.48974991
-0.998099983 -3.51620007 6.64849997
-0.834599972 -3.24589992 6.38110018
-0.856419981 -3.31645989 6.49620008
-0.833199978 -3.11969995 6.69964981
-0.773599982 -11.4278002 5.82399988
-0.741599977 -10.4496002 5.71740007
-0.622900009 -10.3481998 5.72700024
-0.731349945 -10.1294498 6.03189993
-0.688600004 -8.92323303 4.15943336
-0.685099959 -8.89107513 4.64612484
-0.693199992 -8.54870033 5.17449999
-0.665400028 -6.84434986 1.85374999
-0.669499993 -6.6329999 0.715699971
-0.702399969 -6.69505024 1.68200004
-0.769299984 -6.56260014 0.636900008
-0.709463656 -6.58190012 1.30145454
-0.657066643 -6.57406664 1.44916666
-0.744150043 -6.53894997 1.77804995
-0.718666673 -6.53310013 1.87576663
-0.625999987 -6.3059001 0.381399989
-0.663850009 -6.29594994 0.436300009
-0.73623997 -6.28275967 1.93980002
-0.698566675 -6.12146664 1.98383331
-0.718216658 -6.09796667 2.03228331
-0.686100006 -6.12909985 4.19059992
-0.683099985 -6.11920023 4.21479988
-0.73210001 -5.86810017 0.502099991
-0.605099976 -5.87330008 3.53640008
-0.755460024 -5.7638402 0.51165998
-0.645900011 -5.41009998 3.57360005
-0.708400011 -5.32320023 0.530200005
-0.605599999 -5.39249992 3.58150005
-0.660557151 -5.11355686 0.538771451
-0.743300021 -5.00379992 0.616599977
-0.695600033 -5.01239967 2.71574998
-0.697549999 -5.08249998 2.86929989
-0.725700021 -4.97289991 0.561500013
-0.672485709 -4.94732857 2.74302864
-0.663500011 -4.85629988 2.89400005
-0.790499985 -4.92229986 6.47020006
-0.629299998 -4.98950005 6.60200024
-0.787100017 -4.79519987 2.76040006
-0.744757175 -4.69465733 2.92254281
-0.693425 -4.64557505 3.04417491
-0.661499977 -4.60400009 4.31090021
-0.754000008 -4.63054991 4.7432003
-0.726499975 -4.44329977 2.7493
-0.788450003 -4.5326004 3.09170008
-0.793299973 -4.56589985 3.22029996
-0.703700006 -4.50719976 4.36460018
-0.629299998 -4.54724979 4.49944973
-0.745700002 -4.46990013 4.72022486
-0.673500001 -4.29833317 4.69860029
-0.621500015 -4.31500006 6.32340002
-0.666000009 -4.10979986 3.26130009
-0.717585742 -4.09508562 4.65888596
-0.716500044 -4.069067 6.14136648
-0.638499975 -4.0690999 6.43669987
-0.718766689 -3.91093326 3.30831671
-0.69933331 -3.84969997 3.4951334
-0.72299999 -3.86759996 4.55929995
-0.61195004 -3.94260001 4.63444996
-0.712175012 -3.88295007 6.12332535
-0.72724998 -3.8368001 6.2730999
-0.746500015 -3.86120009 6.51539993
-0.725660026 -3.74810004 3.51252007
-0.739533365 -3.68330002 3.61479998
-0.695580006 -3.67689991 4.7392602
-0.657649994 -3.64170003 4.91069984
-0.668500006 -3.73180008 5.0309
-0.766866684 -3.75316668 6.05913353
-0.724449992 -3.72297502 6.2562499
-0.648699999 -3.63050008 6.44640017
-0.648199975 -3.7974 6.97749996
-0.728999972 -3.55739999 4.7579999
-0.666499972 -3.5237 4.90688324
-0.645500004 -3.51555014 6.46315002
-0.768700004 -3.30419993 6.38800001
-0.691949964 -3.25868344 6.54043341
-0.60650003 -3.20289993 6.65740013
-0.698320031 -3.12926006 6.55575991
-0.682380021 -3.09884 6.65853977
-0.707899988 -2.99429989 6.75390005
-0.64230001 -0.0489999987 1.06879997
-0.400599986 -11.4047003 5.68200016
-0.595099986 -10.7554998 5.76789999
-0.488866657 -10.5300999 5.75403357
-0.475300014 -9.05029964 4.66410017
-0.541299999 -8.87360001 4.36835003
-0.552649975 -8.88815022 4.53389978
-0.521799982 -8.93809986 4.70690012
-0.483900011 -8.11019993 2.08270001
-0.467350006 -8.02664948 2.84144998
-0.501399994 -8.07229996 3.05679989
-0.440549999 -7.97054958 2.87785006
-0.424299985 -7.9533 3.17869997
-0.423400015 -7.93919992 3.67449999
-0.432999998 -7.88940001 4.06680012
-0.503057122 -6.61662865 0.729685724
-0.482833326 -6.61873341 0.896933377
-0.445899993 -6.61089993 1.11409998
-0.446074992 -6.6793251 1.75325
-0.46540001 -6.41900015 0.303499997
-0.509649992 -6.47739983 0.50849998
-0.560699999 -6.5885334 1.15573335
-0.457500011 -6.57544994 1.355075
-0.551850021 -6.56589985 1.45744991
-0.503716648 -6.5612669 1.72044992
-0.471933335 -6.45736647 1.86656666
-0.493900001 -6.35410023 0.320749998
-0.511966646 -6.36702251 0.451200008
-0.486200005 -6.27263355 1.96230006
-0.498100013 -6.09673357 1.97636664
-0.568549991 -6.03420019 2.03695011
-0.476249993 -6.10655022 3.67855
-0.403499991 -6.16139984 6.99550009
-0.414400011 -5.76940012 3.67600012
-0.571366668 -5.25369978 0.50486666
-0.595600009 -5.39900017 3.54279995
-0.570766687 -5.07826662 0.545266688
-0.504428566 -5.10492849 2.73921418
-0.493733346 -5.03133345 2.81723332
-0.422399998 -5.14499998 3.57439995
-0.492749989 -5.1015501 3.73215008
-0.495000005 -5.09369993 3.81620002
-0.536799967 -4.92973328 2.86436677
-0.473699987 -4.77409983 2.78600001
-0.588 -4.72749996 3.04040003
-0.443699986 -4.60179996 3.45539999
-0.403400004 -4.40070009 2.60770011
-0.497799993 -4.56939983 3.11500001
-0.446666658 -4.51520014 3.27909994
-0.59829998 -4.55740023 4.50600004
-0.501699984 -4.45650005 4.65443325
-0.410899997 -4.30105019 2.76740003
-0.569999993 -4.34310007 2.87949991
-0.487879992 -4.33425999 3.29884005
-0.545966685 -4.25163317 4.64226675
-0.588999987 -4.32910013 6.48010015
-0.466914296 -4.10322857 3.33484292
-0.533699989 -4.0007 3.43969989
-0.517137527 -4.10689974 4.68244982
-0.458099991 -4.06850004 4.81829977
-0.421199977 -4.08354998 5.76515007
-0.479999989 -4.18769979 7.37650013
-0.434899986 -3.96169996 3.3520999
-0.486266673 -3.84986663 3.44823337
-0.48998332 -3.93464994 4.71611691
-0.497924984 -3.8767252 4.83362484
-0.572600007 -3.90759993 6.04300022
-0.413399994 -3.86599994 6.27699995
-0.520950019 -3.6961 3.4932332
-0.569599986 -3.77509999 4.71969986
-0.563600004 -3.68610001 4.82609987
-0.451900005 -3.71210003 6.16879988
-0.538399994 -3.64339995 6.40010023
-0.48969999 -3.55719995 3.41330004
-0.544499993 -3.52060008 6.38070011
-0.503266692 -3.47290015 6.45423317
-0.536933362 -3.32791662 6.51160002
-0.525033355 -3.27870011 6.66603327
-0.467350006 -3.28679991 6.82240009
-0.559433341 -3.14286661 6.69026661
-0.561999977 -3.09730005 6.82299995
-0.448199987 -0.0675999969 1.06579995
-0.27669999 -11.4204998 5.68100023
-0.206300005 -11.3434 5.65259981
-0.209099993 -10.6491003 5.73820019
-0.236200005 -10.0895004 5.82499981
-0.219500005 -8.84090042 4.84849977
-0.343100011 -8.35569954 5.10599995
-0.202900007 -8.02900028 2.98860002
-0.278699994 -8.13370037 6.15269995
-0.282299995 -7.98285007 2.74310017
-0.308733344 -7.93701649 2.92394996
-0.309777766 -7.92665577 3.12795544
-0.324233323 -7.89856672 3.29803324
-0.284049988 -7.85941696 3.53028345
-0.269500017 -7.83818007 3.70179987
-0.272700012 -7.83199978 3.81986666
-0.386350006 -7.8352499 4.07145023
-0.31310001 -7.78830004 3.56209993
-0.247199997 -7.76460028 3.90439987
-0.299374998 -7.77392483 4.07251263
-0.237300009 -7.71395016 4.30235004
-0.292899996 -7.71089983 4.61070013
-0.254900008 -7.56990004 4.58059978
-0.331400007 -6.85480022 4.3829999
-0.297600001 -6.75470018 0.195800006
-0.224449992 -6.63370037 0.510250032
-0.320766658 -6.62870026 0.681033313
-0.282350004 -6.60900021 1.097
-0.235200003 -6.6026001 1.2256
-0.365033329 -6.63990021 1.71650004
-0.296099991 -6.40269995 -0.00650000013
-0.237500012 -6.43130016 0.149550006
-0.288500011 -6.52720022 0.218999997
-0.310750008 -6.59514999 1.10730004
-0.2456 -6.56750011 1.37510002
-0.324433327 -6.56089973 1.54313338
-0.302100003 -6.55016661 1.69845557
-0.337966681 -6.48373318 1.8671
-0.282350004 -6.36740017 0.272500008
-0.335700005 -6.27604008 1.94194007
-0.271316677 -6.12866688 1.97738338
-0.321749985 -6.05539989 2.04075003
-0.35800001 -6.04053307 3.72616673
-0.380499989 -6.11240005 6.94740009
-0.247899994 -5.80259991 3.83430004
-0.295249999 -5.92630005 6.71685028
-0.235200003 -5.7427001 6.49919987
-0.301324993 -5.71560001 6.68044996
-0.239500001 -5.59679985 6.58549976
-0.332866669 -5.07046652 2.75336671
-0.271600008 -5.14260006 2.89280009
-0.393599987 -5.04979992 3.80620003
-0.292316675 -4.9003334 2.68141675
-0.250999987 -4.91730022 3.67000008
-0.30222857 -4.69717121 2.71914291
-0.220100001 -4.67589998 2.8217001
-0.259133339 -4.68426657 3.10396671
-0.263099998 -4.63640022 3.34870005
-0.246399999 -4.67526674 3.45996666
-0.271050006 -4.77795029 3.64744997
-0.273799986 -4.5170002 2.57349992
-0.279012501 -4.48939991 2.6648376
-0.284000009 -4.58939981 2.83969998
-0.328675002 -4.55267525 3.1543498
-0.310575008 -4.52982473 3.35522509
-0.314899981 -4.55959988 3.42355013
-0.31656 -4.34397984 2.69415998
-0.367799997 -4.28669977 2.81780005
-0.283174992 -4.313375 3.33407497
-0.333600014 -4.21169996 4.73589993
-0.279799998 -4.23009968 4.93319988
-0.311825007 -4.23939991 5.91312504
-0.324383318 -4.06645012 3.34684992
-0.310900003 -4.03830004 3.41499996
-0.36285001 -4.0939002 4.75430012
-0.303880006 -4.13070011 4.85956001
-0.360900015 -4.12960005 5.05800009
-0.366400003 -4.17959976 5.73260021
-0.315349996 -4.11227512 5.90425014
-0.303149998 -4.09894991 6.23395014
-0.291350007 -3.90472507 3.304425
-0.397399992 -3.87170005 4.86450005
-0.29036665 -3.88440013 6.06586647
-0.383300006 -3.81949997 6.23999977
-0.264100015 -3.69969988 3.38355017
-0.378149986 -3.69569993 3.4532001
-0.261733323 -3.69766665 6.0758667
-0.272799999 -3.70149994 6.33125019
-0.206 -3.7263999 6.41190004
-0.2192 -3.52382493 3.35835004
-0.324166656 -3.51810002 3.44819999
-0.300399989 -3.40849996 3.60279989
-0.223966673 -3.49230003 6.10263348
-0.293950021 -3.54349995 6.29635
-0.274599999 -3.50209999 6.47136688
-0.281450003 -3.43560004 6.69579983
-0.275140017 -3.29250002 3.50369
-0.217399999 -3.26399994 3.63720012
-0.259450018 -3.35325003 6.41639996
-0.235550001 -3.38684988 6.64944983
-0.260199994 -3.16170001 3.66890001
-0.300599992 -0.0698999986 1.05710006
-0.206200004 -0.0214000009 1.26810002
-0.177300006 -11.2159996 5.77220011
-0.0172000006 -10.5042 5.78879976
-0.0263999999 -10.5565672 5.89576674
-0.125599995 -10.1800003 5.83379984
-0.0833000019 -9.9822998 5.90049982
-0.127200007 -9.60249996 4.3987999
-0.0372000001 -9.72830009 6.03100014
-0.094766669 -9.51553345 4.49576664
-0.100900002 -9.5909996 6.07989979
-0.155699998 -8.02964973 2.84695005
-0.177300006 -8.03180027 3.07360005
-0.114799999 -8.00209999 3.38639998
-0.1435 -7.98219967 2.93554997
-0.109599993 -7.98589993 3.09065008
-0.147533327 -7.94059992 3.2991333
-0.0837000012 -7.92157507 3.50502491
-0.136940002 -7.89678001 3.76536012
-0.104075 -7.85762501 3.8815124
-0.0583000034 -7.85505009 4.10344982
-0.0628499985 -7.86775017 4.26434994
-0.0104999999 -7.83659983 4.41020012
-0.198699996 -7.78270006 3.71409988
-0.134800002 -7.77979994 3.93239999
-0.141599998 -7.75883341 4.09856653
-0.0610999987 -7.75229979 4.37020016
-0.139533341 -7.69603348 4.51179981
-0.104649998 -7.73460007 4.7585001
-0.0348000005 -7.51300001 4.93340015
-0.142900005 -7.13630009 4.42140007
-0.0984666646 -6.64659977 0.0714000016
-0.0683833361 -6.62130022 0.339333326
-0.107100002 -6.62612486 0.506375015
-0.0381999984 -6.61350012 0.738900006
-0.0939999968 -6.62769985 0.832799971
-0.153699994 -6.6111002 1.12390006
-0.0604999997 -6.62599993 1.67760003
-0.0639666691 -6.48896646 0.0883000046
-0.173700005 -6.41905022 0.320800006
-0.0353000015 -6.59950018 0.573499978
-0.132799998 -6.5953002 0.602999985
-0.089549996 -6.58909988 1.35327506
-0.107749999 -6.56470013 1.44359994
-0.0247000009 -6.55600023 4.05200005
-0.118525006 -6.37809992 0.33632499
-0.1303 -6.37139988 0.467099994
-0.17414999 -6.29694986 1.92439997
-0.139699996 -6.05649996 1.9837501
-0.101075001 -6.04692507 2.02117491
-0.0288999993 -6.04839993 3.94930005
-0.0917000026 -5.7026 3.83209991
-0.187400013 -5.66184998 6.46609974
-0.188600004 -5.52199984 3.65330005
-0.125059992 -5.54054022 6.33565998
-0.129199997 -5.52473354 6.5189333
-0.136799991 -5.23820019 2.81659985
-0.190699995 -5.25549984 3.13980007
-0.148399994 -5.2421999 3.27040005
-0.0342999995 -5.25320005 5.98190022
-0.0341333337 -5.28763342 6.11326647
-0.116800003 -5.34445 6.35599995
-0.192300007 -5.10270023 2.77780008
-0.103400007 -5.07445002 2.93134999
-0.0854000002 -5.19290018 3.02889991
-0.0472999997 -5.00619984 3.33800006
-0.00949999969 -5.12270021 3.50990009
-0.168899998 -4.86670017 2.78530002
-0.126100004 -4.8132 3.08139992
-0.098999992 -4.93340015 3.47239995
-0.0647999942 -4.82089996 5.14274979
-0.0571999997 -4.88500023 5.99770021
-0.0627999976 -4.91860008 7.10900021
-0.0608500019 -4.8213501 7.25990009
-0.0607249998 -4.64340019 2.72485018
-0.119000003 -4.68139982 2.85089993
-0.103433333 -4.72768307 3.09533334
-0.0821333304 -4.68704176 3.28669167
-0.127166674 -4.70163345 3.52053332
-0.0177999996 -4.73169994 5.19059992
-0.156650007 -4.68114996 5.28469992
-0.0828500018 -4.72315025 5.87230015
-0.0688333362 -4.67036676 6.07673359
-0.0921999961 -4.68604994 6.89509964
-0.0845666677 -4.71673346 7.27873325
-0.140933335 -4.52176666 2.66289997
-0.0906499997 -4.56150007 3.30634999
-0.0588999987 -4.5008502 3.4440999
-0.103399992 -4.51340008 5.96930027
-0.0601999983 -4.49490023 6.69150019
-0.104099996 -4.5468998 6.98890018
-0.112399995 -4.49919987 7.11894989
-0.0675999969 -4.50629997 7.27409983
-0.180000007 -4.38950014 2.76160002
-0.187000006 -4.32119989 3.3598001
-0.0836333334 -4.30293322 3.42533326
-0.0889333338 -4.23436689 5.92570019
-0.0714749992 -4.08297491 3.36607504
-0.0153499991 -4.14499998 3.4049499
-0.135240003 -3.92966008 3.32060003
-0.0835499987 -3.95125008 3.4124999
-0.0549000017 -3.99569988 5.87039995
-0.197400004 -3.89890003 6.09000015
-0.11355 -3.93834996 6.29204988
-0.00410000002 -3.80320001 6.44630003
-0.104383335 -3.68296671 3.30273342
-0.0541666672 -3.68860006 6.12680006
-0.133300006 -3.69589996 6.22070026
-0.110833332 -3.72616673 6.49176645
-0.057500001 -3.60159993 6.68709993
-0.0926999971 -3.54194999 3.34905005
-0.137999997 -3.4605999 3.43989992
-0.148550004 -3.50379992 6.14432478
-0.110699996 -3.48860002 6.30420017
-0.117699996 -3.48479986 6.43659973
-0.185299993 -3.44650006 6.60279989
-0.149159998 -3.32834005 3.53476
-0.15715 -3.37269998 6.15310001
-0.159899995 -3.39129996 6.24450016
