# .PCD v0.7 - Point Cloud Data file format
VERSION 0.7
FIELDS x y z
SIZE 4 4 4
TYPE F F F
COUNT 1 1 1
WIDTH 66
HEIGHT 1
VIEWPOINT 0 0 0 1 0 0 0
POINTS 66
DATA ascii
-38.2196999 -28.9634991 24.8848
-37.9332008 -22.4775009 20.7772999
-37.6971016 -23.3749008 20.1296005
-37.7162018 -23.3456001 21.0883007
-37.6506004 -23.0309982 20.3564491
-37.7363014 -22.9440002 20.382
-36.9659004 -24.0499992 20.5249004
-36.9500999 -23.2469997 23.5863991
-36.1377983 -24.3530998 22.4487
-35.8175011 -30.5294991 24.7392006
-35.7770996 -30.7050991 24.6403999
-35.6870003 -30.5279503 24.8969002
-35.7022018 -30.5310993 25.1079998
-35.7426987 -25.0620003 24.2404995
-35.6435013 -24.7882004 23.5678997
-35.6913986 -24.6309509 23.9293499
-35.6693001 -23.6285992 21.8971996
-35.7491989 -23.3370991 21.594101
-35.5946999 -30.6343994 25.0816994
-35.5563011 -24.8596992 24.3246002
-35.5093994 -24.7098789 24.5065002
-35.4993973 -24.6365013 24.7260513
-35.4156494 -24.5093002 24.7765999
-35.4944 -23.441 22.8691998
-35.4660988 -23.4706993 23.0230999
-35.4939995 -23.1858006 22.7612991
-35.3224983 -30.6060009 25.3267002
-35.3658981 -25.0128002 18.8120003
-35.3581009 -24.8862 22.6021996
-35.3717995 -24.0578995 22.8490009
-35.2192993 -22.8742008 24.0310993
-35.360199 -22.6497993 22.7644005
-35.3340988 -22.5755005 22.8582001
-35.2074013 -22.1441994 23.1082001
-35.1495018 -30.0286999 21.9160004
-35.1643982 -24.9279003 19.1875992
-35.1197014 -24.6194 19.0482006
-34.8437004 -24.8729992 22.4011002
-34.8726997 -24.7416 22.4722996
-34.919899 -24.7647991 22.6231003
-34.6932983 -27.1714001 22.5774994
-34.4692993 -26.8980007 23.5604
-34.5549011 -22.7022991 18.4367008
-34.5756989 -22.7392006 18.6989002
-34.2444992 -26.8899002 24.3400993
-34.2859993 -24.8617992 19.8759995
-34.2905006 -22.0851994 18.5569
-34.0915985 -21.5662003 18.4703999
-34.0756989 -21.3309002 18.8638
-33.8753014 -24.3113003 19.8372993
-33.7167015 -24.2507 19.7329998
-33.2374992 -25.4354992 17.8218994
-33.3694 -25.1539993 19.7691994
-33.3124008 -24.3603001 17.7607994
-33.1063995 -24.6049995 17.9881001
-33.1529999 -24.5093002 17.7423
-33.0951004 -24.2383003 19.4500008
-32.9513016 -25.0238991 20.2066002
-32.8054008 -24.8544006 17.6417999
-32.9382019 -24.4951992 19.5291004
-32.8636017 -24.2084007 19.8756008
-32.7775993 -25.6462994 17.5181999
-32.6170998 -25.6166992 17.8591003
-32.5704002 -27.0105991 17.0785007
-32.5802994 -24.8661003 17.6270008
-32.3923988 -27.1571007 17.4498997
